<svg xmlns="http://www.w3.org/2000/svg" xmlns:xlink="http://www.w3.org/1999/xlink" xmlns:inkscape="http://www.inkscape.org/namespaces/inkscape" version="1.1" width="197" height="165" viewBox="0 0 197 165">
<defs>
<clipPath id="clip_1">
<path transform="matrix(1.00003,0,0,-1.00003,-37.757669,163.19441)" d="M38.85382 0H233.12294V161.39257H38.85382Z"/>
</clipPath>
<path id="font_2_3" d="M.3959961 .37998963C.37998963 .37998963 .3659973 .37998963 .35198976 .36598207 .33599855 .35098268 .33399964 .33398438 .33399964 .3269806 .33399964 .30297853 .35198976 .2919922 .37098695 .2919922 .3999939 .2919922 .4269867 .315979 .4269867 .35598756 .4269867 .40522767 .37998963 .4423828 .30899049 .4423828 .17399597 .4423828 .040985109 .2989807 .040985109 .15811157 .040985109 .06819153 .09899902-.0107421879 .20298767-.0107421879 .34599305-.0107421879 .42999269 .09516907 .42999269 .107162479 .42999269 .11315918 .42399598 .120147708 .41799928 .120147708 .41299439 .120147708 .41099549 .1181488 .40499879 .1101532 .32598878 .011245728 .21699524 .011245728 .20498657 .011245728 .14199829 .011245728 .114990238 .06021118 .114990238 .120147708 .114990238 .1611023 .1349945 .25801087 .16899109 .31999208 .19999695 .37698365 .25498963 .42037965 .30999757 .42037965 .34399415 .42037965 .38198854 .40724183 .3959961 .37998963Z"/>
<path id="font_2_1" d="M.37298585 .37835694C.35499574 .41537477 .32598878 .4423828 .2809906 .4423828 .1639862 .4423828 .039993287 .29533387 .039993287 .14929199 .039993287 .055267335 .09498596-.0107421879 .17298889-.0107421879 .19299317-.0107421879 .24299622-.0067443849 .30299378 .06427002 .31098939 .022247315 .34599305-.0107421879 .3939972-.0107421879 .42900086-.0107421879 .45199586 .012252808 .46798707 .044265748 .4850006 .08027649 .49798585 .14129639 .49798585 .14329529 .49798585 .1532898 .4889984 .1532898 .48599244 .1532898 .47599793 .1532898 .47499085 .14929199 .47200013 .13528443 .45498658 .07026672 .43699647 .011245728 .3959961 .011245728 .36898805 .011245728 .3659973 .037261964 .3659973 .057266237 .3659973 .07926941 .36799623 .08728027 .3789978 .13128662 .3899994 .17329407 .3919983 .18330384 .40098573 .22131348L.43699647 .36135865C.44400025 .38935853 .44400025 .39135743 .44400025 .39537049 .44400025 .41236878 .43199159 .42237855 .4149933 .42237855 .3909912 .42237855 .37599183 .4003601 .37298585 .37835694M.30799867 .119277957C.30299378 .10127258 .30299378 .09927368 .28799439 .08227539 .24398804 .027252198 .20298767 .011245728 .1749878 .011245728 .125 .011245728 .11099243 .06626892 .11099243 .105285648 .11099243 .1552887 .14299011 .27833558 .1659851 .32434083 .19699097 .38336183 .24198914 .42037965 .28199769 .42037965 .34700013 .42037965 .36099244 .3383484 .36099244 .33235169 .36099244 .32633973 .35899354 .32034303 .35798646 .31533814L.30799867 .119277957Z"/>
<path id="font_2_2" d="M.23899842 .68333438C.23899842 .6843262 .23899842 .69433596 .22599793 .69433596 .20298767 .69433596 .12998963 .6863251 .10398865 .6843262 .09599304 .68333438 .084991458 .6823273 .084991458 .6643219 .084991458 .6523285 .09399414 .6523285 .10899353 .6523285 .15699768 .6523285 .15899658 .6453247 .15899658 .6353302 .15899658 .6283264 .1499939 .5943451 .14498902 .573349L.06298828 .24731446C.050994874 .1973114 .04699707 .18130493 .04699707 .14628601 .04699707 .05126953 .099990848-.0107421879 .17399597-.0107421879 .2919922-.0107421879 .4149933 .1382904 .4149933 .28233338 .4149933 .37335206 .3619995 .4423828 .28199769 .4423828 .23599243 .4423828 .19499207 .41337586 .16499329 .38235475L.23899842 .68333438M.14498902 .30534364C.15098572 .3273468 .15098572 .3293457 .1599884 .3403473 .20899964 .405365 .2539978 .42037965 .27999879 .42037965 .31599427 .42037965 .34298707 .3903656 .34298707 .32633973 .34298707 .26733399 .30999757 .15229798 .2919922 .11428833 .25898744 .04725647 .21299744 .011245728 .17399597 .011245728 .13999939 .011245728 .10699463 .038253786 .10699463 .11227417 .10699463 .13128662 .10699463 .15029907 .12298584 .21331787L.14498902 .30534364Z"/>
<path id="font_2_6" d="M.48599244 .38136292C.48999024 .39537049 .48999024 .39736939 .48999024 .40437318 .48999024 .42237855 .47599793 .43138124 .46099855 .43138124 .45098878 .43138124 .43499757 .42536927 .42599488 .41036988 .42399598 .405365 .41600038 .37435914 .4119873 .35635377 .40499879 .33035279 .397995 .30334474 .3919983 .27633668L.34700013 .09628296C.34298707 .08126831 .2999878 .011245728 .23399353 .011245728 .18299866 .011245728 .17199707 .055267335 .17199707 .0922699 .17199707 .1382904 .18899536 .20030213 .22299195 .28833009 .23899842 .3293457 .24299622 .3403473 .24299622 .36035157 .24299622 .405365 .21099854 .4423828 .16099549 .4423828 .06599426 .4423828 .0289917 .29733277 .0289917 .28833009 .0289917 .27833558 .038986207 .27833558 .040985109 .27833558 .050994874 .27833558 .051986696 .28033448 .056991579 .29634095 .083999637 .3903656 .12399292 .42037965 .1579895 .42037965 .1659851 .42037965 .18299866 .42037965 .18299866 .3883667 .18299866 .36335755 .17298889 .3373413 .1659851 .31834413 .12599182 .21231079 .10798645 .1552887 .10798645 .10827637 .10798645 .019256592 .17098999-.0107421879 .22999573-.0107421879 .2689972-.0107421879 .30299378 .0062561037 .33099366 .03425598 .31799317-.017745972 .30599977-.06674194 .2659912-.11973572 .23999024-.15385437 .20199585-.18309021 .1559906-.18309021 .14199829-.18309021 .09700012-.18005371 .07998657-.14074707 .09599304-.14074707 .10899353-.14074707 .12298584-.1287384 .1329956-.11973572 .14299011-.10673523 .14299011-.08773804 .14299011-.056747438 .115997318-.052734376 .10598755-.052734376 .08299255-.052734376 .049987794-.068740848 .049987794-.11773682 .049987794-.16796875 .09399414-.20507813 .1559906-.20507813 .25898744-.20507813 .3619995-.11373901 .3899994-.00074768069L.48599244 .38136292Z"/>
<path id="font_3_3" d="M.68699648 .32714845C.70199587 .32714845 .72099307 .32714845 .72099307 .34713746 .72099307 .36714173 .70199587 .36714173 .6879883 .36714173H.08898926C.07499695 .36714173 .055999757 .36714173 .055999757 .34713746 .055999757 .32714845 .07499695 .32714845 .08999634 .32714845H.68699648M.6879883 .13284302C.70199587 .13284302 .72099307 .13284302 .72099307 .15284729 .72099307 .17285156 .70199587 .17285156 .68699648 .17285156H.08999634C.07499695 .17285156 .055999757 .17285156 .055999757 .15284729 .055999757 .13284302 .07499695 .13284302 .08898926 .13284302H.6879883Z"/>
<path id="font_2_4" d="M.36698915 .3996582H.45298768C.47299195 .3996582 .48298646 .3996582 .48298646 .41966249 .48298646 .43066407 .47299195 .43066407 .45599366 .43066407H.37298585L.3939972 .5449524C.397995 .5660095 .4119873 .6370239 .41799928 .6490326 .4269867 .66804507 .44400025 .68307498 .46499635 .68307498 .46899415 .68307498 .49499513 .68307498 .5139923 .66503909 .46998597 .661026 .45999146 .6260376 .45999146 .6110382 .45999146 .58802798 .47799684 .57603457 .49699403 .57603457 .522995 .57603457 .5519867 .5980377 .5519867 .6360321 .5519867 .6820679 .5059967 .7050781 .46499635 .7050781 .43099977 .7050781 .36799623 .68707278 .33799745 .58802798 .33198548 .56700137 .32899476 .5569763 .30499269 .43066407H.23599243C.21699524 .43066407 .20599365 .43066407 .20599365 .4116516 .20599365 .3996582 .21499634 .3996582 .23399353 .3996582H.2999878L.22499085 .0048828127C.20698548-.09207153 .18998719-.18309021 .13798523-.18309021 .13398743-.18309021 .10899353-.18309021 .08999634-.16506958 .13598633-.1620636 .14498902-.12606812 .14498902-.111068729 .14498902-.08807373 .1269989-.07606506 .10798645-.07606506 .08198547-.07606506 .052993776-.09806824 .052993776-.13606262 .052993776-.18109131 .09700012-.20507813 .13798523-.20507813 .19299317-.20507813 .23298645-.14607239 .25099183-.108062747 .2829895-.04508972 .30599977 .07583618 .30699159 .082839969L.36698915 .3996582Z"/>
<path id="font_3_1" d="M.33099366-.2400055C.33099366-.23701477 .33099366-.23500061 .31399537-.21800232 .18899536-.0920105 .15699768 .09700012 .15699768 .25 .15699768 .42399598 .19499207 .59799197 .31799317 .72299197 .33099366 .73498538 .33099366 .7369995 .33099366 .73999026 .33099366 .746994 .32699586 .75 .32099916 .75 .31098939 .75 .22099304 .6819916 .1619873 .5549927 .11099243 .44499208 .09899902 .33399964 .09899902 .25 .09899902 .17199707 .10998535 .050994874 .16499329-.06201172 .22499085-.18501282 .31098939-.25 .32099916-.25 .32699586-.25 .33099366-.24700928 .33099366-.2400055Z"/>
<path id="font_2_5" d="M.20599365 .3996582H.2999878C.31999208 .3996582 .32998658 .3996582 .32998658 .41966249 .32998658 .43066407 .31999208 .43066407 .3019867 .43066407H.21398926C.25 .5724945 .25498963 .59246829 .25498963 .59846499 .25498963 .61546328 .24299622 .62545779 .22599793 .62545779 .22299195 .62545779 .19499207 .62446597 .18598938 .58947756L.14698792 .43066407H.052993776C.032989503 .43066407 .022994996 .43066407 .022994996 .4116516 .022994996 .3996582 .0309906 .3996582 .050994874 .3996582H.13899231C.066986087 .11608887 .06298828 .099121097 .06298828 .08114624 .06298828 .02722168 .100997928-.0107421879 .15499878-.0107421879 .25698854-.0107421879 .31399537 .13505554 .31399537 .14305115 .31399537 .1530304 .30599977 .1530304 .3019867 .1530304 .29299928 .1530304 .2919922 .15003968 .2869873 .13905335 .24398804 .035217287 .19099427 .011245728 .15699768 .011245728 .13598633 .011245728 .12599182 .024230957 .12599182 .057174684 .12599182 .08114624 .12799073 .088134769 .13198853 .10510254L.20599365 .3996582Z"/>
<path id="font_3_2" d="M.2889862 .25C.2889862 .32798768 .27799989 .44898988 .22299195 .56199648 .16299439 .68499758 .07699585 .75 .066986087 .75 .06098938 .75 .056991579 .74598696 .056991579 .73999026 .056991579 .7369995 .056991579 .73498538 .07598877 .71699526 .17399597 .6179962 .23098755 .45899964 .23098755 .25 .23098755 .07899475 .19400025-.09700012 .069992069-.2230072 .056991579-.23500061 .056991579-.23701477 .056991579-.2400055 .056991579-.2460022 .06098938-.25 .066986087-.25 .07699585-.25 .16699219-.18200684 .22599793-.055007936 .2769928 .054992677 .2889862 .16600037 .2889862 .25Z"/>
</defs>
<path transform="matrix(1.00003,0,0,-1.00003,-37.757669,163.19441)" stroke-width=".19925" stroke-linecap="butt" stroke-miterlimit="10" stroke-linejoin="miter" fill="none" stroke="#7f807f" d=""/>
<path transform="matrix(1.00003,0,0,-1.00003,-37.757669,163.19441)" stroke-width=".19925" stroke-linecap="butt" stroke-miterlimit="10" stroke-linejoin="miter" fill="none" stroke="#7f807f" d=""/>
<path transform="matrix(1.00003,0,0,-1.00003,-37.757669,163.19441)" stroke-width=".3985" stroke-linecap="butt" stroke-miterlimit="10" stroke-linejoin="miter" fill="none" stroke="#000000" d="M38.85382 23.05608H231.13042"/>
<path transform="matrix(1.00003,0,0,-1.00003,193.3797,140.13764)" d="M1.99252 0-1.19551 1.59401 0 0-1.19551-1.59401"/>
<path transform="matrix(1.00003,0,0,-1.00003,-37.757669,163.19441)" stroke-width=".3985" stroke-linecap="butt" stroke-miterlimit="10" stroke-linejoin="miter" fill="none" stroke="#000000" d="M66.60655 0V159.40004"/>
<path transform="matrix(0,-1.00003,-1.00003,-0,28.850884,3.7895814)" d="M1.99252 0-1.19551 1.59401 0 0-1.19551-1.59401"/>
<g clip-path="url(#clip_1)">
<path transform="matrix(1.00003,0,0,-1.00003,-37.757669,163.19441)" d="M94.35928 23.05608V84.15468L108.23564 79.97575 122.11201 78.39067V23.05608Z" fill="#4dff4d" fill-opacity=".7"/>
<path transform="matrix(1.00003,0,0,-1.00003,-37.757669,163.19441)" d="M122.11201 23.05608V78.39067L149.86475 86.46028 177.61748 115.2804V23.05608Z" fill="#ff9933" fill-opacity=".7"/>
<path transform="matrix(1.00003,0,0,-1.00003,-37.757669,163.19441)" stroke-width=".3985" stroke-linecap="butt" stroke-dasharray="2.98883,2.98883" stroke-miterlimit="10" stroke-linejoin="miter" fill="none" stroke="#000000" d="M94.35928 13.83363V84.15468"/>
<path transform="matrix(1.00003,0,0,-1.00003,-37.757669,163.19441)" stroke-width=".3985" stroke-linecap="butt" stroke-dasharray="2.98883,2.98883" stroke-miterlimit="10" stroke-linejoin="miter" fill="none" stroke="#000000" d="M122.11201 13.83363V78.39067"/>
<path transform="matrix(1.00003,0,0,-1.00003,-37.757669,163.19441)" stroke-width=".3985" stroke-linecap="butt" stroke-dasharray="2.98883,2.98883" stroke-miterlimit="10" stroke-linejoin="miter" fill="none" stroke="#000000" d="M177.61748 13.83363V115.2804"/>
<use data-text="c" xlink:href="#font_2_3" transform="matrix(9.962899,0,0,-9.962899,54.449106,160.72834)"/>
<use data-text="a" xlink:href="#font_2_1" transform="matrix(9.962899,0,0,-9.962899,81.724918,160.72834)"/>
<use data-text="b" xlink:href="#font_2_2" transform="matrix(9.962899,0,0,-9.962899,148.82892,160.65933)"/>
<use data-text="y" xlink:href="#font_2_6" transform="matrix(9.962899,0,0,-9.962899,121.95312,13.51091)"/>
<use data-text="=" xlink:href="#font_3_3" transform="matrix(9.962899,0,0,-9.962899,129.96236,13.51091)"/>
<use data-text="f" xlink:href="#font_2_4" transform="matrix(9.962899,0,0,-9.962899,140.47867,13.51091)"/>
<use data-text="(" xlink:href="#font_3_1" transform="matrix(9.962899,0,0,-9.962899,146.42885,13.51091)"/>
<use data-text="t" xlink:href="#font_2_5" transform="matrix(9.962899,0,0,-9.962899,150.30298,13.51091)"/>
<use data-text=")" xlink:href="#font_3_2" transform="matrix(9.962899,0,0,-9.962899,153.90108,13.51091)"/>
<path transform="matrix(1.00003,0,0,-1.00003,-37.757669,163.19441)" stroke-width="1.59404" stroke-linecap="butt" stroke-miterlimit="10" stroke-linejoin="miter" fill="none" stroke="#0000ff" d="M0 114.09991 1.08777 114.32582 2.17558 114.52663 3.26337 114.70276 4.35117 114.85464 5.43895 114.9827 6.52676 115.08733 7.61456 115.16895 8.70235 115.22798 9.79015 115.26485 10.87794 115.27994 11.96574 115.27371 13.05354 115.24655 14.14133 115.1989 15.22914 115.13116 16.31693 115.04373 17.40472 114.93706 18.49251 114.81154 19.58032 114.6676 20.66812 114.50566 21.7559 114.32613 22.8437 114.12941 23.9315 113.91595 25.0193 113.68614 26.1071 113.44043 27.19489 113.17918 28.2827 112.90285 29.37048 112.61186 30.45828 112.3066 31.54607 111.98749 32.63388 111.65497 33.72168 111.30943 34.80946 110.95131 35.89726 110.58102 36.98506 110.19896 38.07286 109.80556 39.16066 109.40123 40.24844 108.9864 41.33626 108.56148 42.42404 108.12688 43.51184 107.68301 44.59964 107.23032 45.68744 106.76917 46.77524 106.30003 47.86302 105.8233 48.95082 105.3394 50.03862 104.84872 51.12642 104.35172 52.21422 103.84877 53.302 103.34029 54.38982 102.82675 55.4776 102.30853 56.5654 101.78604 57.6532 101.25972 58.741 100.72997 59.8288 100.19717 60.91658 99.6618 62.00438 99.12427 63.09218 98.58496 64.17998 98.0443 65.26778 97.50272 66.35558 96.96063 67.44337 96.41844 68.53116 95.87657 69.61896 95.33543 70.70677 94.79544 71.79456 94.257 72.88235 93.72063 73.97014 93.1866 75.05795 92.65538 76.14575 92.12743 77.23354 91.60312 78.32133 91.08286 79.40913 90.56712 80.49693 90.05629 81.58472 89.55072 82.67252 89.05092 83.76031 88.55727 84.84811 88.07016 85.93591 87.5901 87.0237 87.1174 88.1115 86.6525 89.1993 86.19583 90.2871 85.74786 91.3749 85.30893 92.46268 84.8795 93.55048 84.45996 94.63828 84.05074 95.72607 83.65224 96.81387 83.26488 97.90166 82.88913 98.98947 82.52533 100.07726 82.17393 101.16505 81.83534 102.25285 81.51001 103.34064 81.19832 104.42845 80.90068 105.51624 80.61752 106.60403 80.34929 107.69182 80.09636 108.77963 79.85915 109.8675 79.63806 110.95518 79.4336 112.04306 79.24606 113.13074 79.07597 114.21861 78.92365 115.30647 78.7896 116.39417 78.67416 117.48204 78.57782 118.56972 78.50096 119.6576 78.44397 120.74547 78.4073 121.83316 78.39137 122.92102 78.39658 124.00871 78.42332 125.09657 78.47209 126.18443 78.54321 127.27214 78.6372 128.36 78.75438 129.4477 78.89523 130.53557 79.0601 131.62342 79.24951 132.71112 79.46376 133.79898 79.70331 134.88668 79.96863 135.97455 80.2601 137.0624 80.57814 138.1501 80.9231 139.23795 81.29553 140.32566 81.69565 141.41353 82.12405 142.50139 82.58118 143.58908 83.06723 144.67694 83.58292 145.76465 84.12834 146.85251 84.7042 147.94037 85.31073 149.02806 85.94838 150.11592 86.61763 151.20363 87.31882 152.2915 88.05243 153.37935 88.81888 154.46706 89.61847 155.5549 90.45177 156.64261 91.31906 157.73047 92.2209 158.81833 93.15765 159.90604 94.12958 160.99388 95.13739 162.08159 96.18115 163.16945 97.26164 164.25733 98.37912 165.34502 99.53381 166.43288 100.7265 167.52059 101.95721 168.60843 103.22675 169.69629 104.53535 170.78398 105.88322 171.87186 107.2712 172.95957 108.69925 174.04743 110.16827 175.13529 111.6784 176.22298 113.22987 177.31084 114.82355 178.39855 116.45937 179.48639 118.13823 180.57427 119.86034 181.66196 121.62581 182.74982 123.43561 183.83753 125.2896 184.92539 127.18877 186.01325 129.13324 187.10094 131.12314 188.18881 133.15944 189.27649 135.24205 190.36437 137.37189 191.45223 139.54915 192.53992 141.77384 193.62779 144.04715 194.71547 146.36869 195.80335 148.7397 196.89122 151.16013 197.97891 153.63011 199.06678 156.15079 200.15447 158.72176 201.24233 161.34426 202.33019 164.01828 203.4179 166.7439 204.50576 169.5223 205.59345 172.3531 206.68132 175.2376 207.76917 178.17566 208.85688 181.16735 209.94475 184.21398 211.03243 187.31505 212.1203 190.4718 213.20815 193.68434 214.29586 196.95246 215.3837 200.2777 216.4714 203.65933"/>
</g>
<use data-text="t" xlink:href="#font_2_5" transform="matrix(9.962899,0,0,-9.962899,188.25412,136.61762)"/>
<use data-text="y" xlink:href="#font_2_6" transform="matrix(9.962899,0,0,-9.962899,32.370439,9.606812)"/>
</svg>
