<svg xmlns="http://www.w3.org/2000/svg" xmlns:xlink="http://www.w3.org/1999/xlink" xmlns:inkscape="http://www.inkscape.org/namespaces/inkscape" version="1.1" width="218" height="183" viewBox="0 0 218 183">
<defs>
<path id="font_1_5" d="M.1269989 .07699585 .23298645 .18003845C.3889923 .31811524 .44898988 .3721466 .44898988 .47216798 .44898988 .5860901 .35899354 .6660156 .23699951 .6660156 .12399292 .6660156 .049987794 .57411196 .049987794 .48516847 .049987794 .4291687 .099990848 .4291687 .102996829 .4291687 .11999512 .4291687 .15499878 .44117738 .15499878 .48217774 .15499878 .5081787 .13699341 .5341797 .101989749 .5341797 .09399414 .5341797 .09199524 .5341797 .08898926 .5331726 .11199951 .59806826 .1659851 .63500979 .22399903 .63500979 .31498719 .63500979 .35798646 .5541382 .35798646 .47216798 .35798646 .39215089 .30799867 .31311036 .25299073 .25108338L.06098938 .036987306C.049987794 .025985718 .049987794 .023986817 .049987794 0H.42099L.44898988 .17404175H.42399598C.4189911 .14402771 .4119873 .1000061 .4019928 .084991458 .394989 .07699585 .32899476 .07699585 .30699159 .07699585H.1269989Z"/>
<path id="font_1_6" d="M.2939911 .16503906V.07800293C.2939911 .041992189 .2919922 .0309906 .21798706 .0309906H.19699097V0C.23799134 .0029907227 .2899933 .0029907227 .33198548 .0029907227 .37399293 .0029907227 .4269867 .0029907227 .46798707 0V.0309906H.44699098C.37298585 .0309906 .37098695 .041992189 .37098695 .07800293V.16503906H.47099305V.19602967H.37098695V.65075686C.37098695 .67074587 .37098695 .6767578 .35499574 .6767578 .34599305 .6767578 .34298707 .6767578 .33499146 .66474917L.027999878 .19602967V.16503906H.2939911M.2999878 .19602967H.055999757L.2999878 .5688019V.19602967Z"/>
<path id="font_1_7" d="M.13198853 .327713V.35173036C.13198853 .6047821 .2559967 .64100649 .30699159 .64100649 .33099366 .64100649 .37298585 .634964 .394989 .6007538 .37998963 .6007538 .33999635 .6007538 .33999635 .5557556 .33999635 .524765 .3639984 .5097656 .38598634 .5097656 .4019928 .5097656 .43199159 .51875308 .43199159 .5577545 .43199159 .6178589 .3880005 .6660156 .30499269 .6660156 .1769867 .6660156 .041992189 .5367584 .041992189 .31570436 .041992189 .048553468 .1579895-.022460938 .25099183-.022460938 .3619995-.022460938 .45700074 .07156372 .45700074 .2036438 .45700074 .33070375 .36799623 .4267578 .25698854 .4267578 .18899536 .4267578 .1519928 .37573243 .13198853 .327713M.25099183 .0055389406C.18798828 .0055389406 .1579895 .06556702 .1519928 .080566409 .13398743 .127594 .13398743 .2076416 .13398743 .22564698 .13398743 .30369569 .1659851 .40374757 .2559967 .40374757 .27198792 .40374757 .31799317 .40374757 .34899903 .34172059 .36698915 .30470277 .36698915 .2536621 .36698915 .20463562 .36698915 .15661621 .36698915 .10658264 .34999085 .0705719 .31999208 .010528564 .27398683 .0055389406 .25099183 .0055389406Z"/>
<path id="font_1_8" d="M.16299439 .4569702C.116989139 .486969 .11299133 .52098086 .11299133 .5379791 .11299133 .598999 .17799378 .64100649 .24899292 .64100649 .32199098 .64100649 .38598634 .58898928 .38598634 .51698306 .38598634 .45996095 .34700013 .4119568 .2869873 .37695313L.16299439 .4569702M.30899049 .36193849C.3809967 .3989563 .42999269 .45095826 .42999269 .51698306 .42999269 .6090088 .34098817 .6660156 .25 .6660156 .1499939 .6660156 .068984989 .59199526 .068984989 .49897767 .068984989 .4809723 .070999149 .43595887 .11299133 .38894654 .12399292 .37695313 .16099549 .35194398 .18598938 .33494569 .12799073 .30592347 .041992189 .24984741 .041992189 .15072632 .041992189 .04458618 .14399719-.022460938 .24899292-.022460938 .3619995-.022460938 .45700074 .06060791 .45700074 .16773987 .45700074 .20379639 .44599916 .24885559 .4079895 .2909088 .3889923 .31193543 .37298585 .3219452 .30899049 .36193849M.20899964 .3199463 .33198548 .24183655C.3600006 .2228241 .40699769 .19277954 .40699769 .13169861 .40699769 .05760193 .33198548 .0055389406 .25 .0055389406 .1639862 .0055389406 .09199524 .067611698 .09199524 .15072632 .09199524 .20880127 .12399292 .27288819 .20899964 .3199463Z"/>
<path id="font_1_4" d="M.2939911 .64004519C.2939911 .66400149 .2939911 .6660156 .2709961 .6660156 .20899964 .60227969 .12098694 .60227969 .08898926 .60227969V.57128909C.10899353 .57128909 .16799927 .57128909 .21998596 .5972748V.07902527C.21998596 .042999269 .21699524 .0309906 .1269989 .0309906H.09498596V0C.12998963 .0029907227 .21699524 .0029907227 .25698854 .0029907227 .29699708 .0029907227 .38398744 .0029907227 .4189911 0V.0309906H.3869934C.29699708 .0309906 .2939911 .041992189 .2939911 .07902527V.64004519Z"/>
<path id="font_1_3" d="M.45999146 .31976319C.45999146 .39982606 .45498658 .47988893 .41999818 .5539398 .37399293 .65000918 .2919922 .6660156 .25 .6660156 .18998719 .6660156 .116989139 .64001467 .07598877 .54693606 .04399109 .47789 .038986207 .39982606 .038986207 .31976319 .038986207 .24472046 .042999269 .15464783 .083999637 .07859802 .1269989-.0024719239 .19999695-.022460938 .24899292-.022460938 .30299378-.022460938 .3789978-.0014648438 .4229889 .09359741 .45498658 .16265869 .45999146 .2407074 .45999146 .31976319M.24899292-.00047302247C.20999146-.00047302247 .15098572 .024551392 .1329956 .12062073 .12199402 .18066406 .12199402 .2727356 .12199402 .3317871 .12199402 .39582826 .12199402 .46188355 .12998963 .5159149 .14898682 .63500979 .22399903 .64401248 .24899292 .64401248 .28199769 .64401248 .34799195 .6259918 .36698915 .52693179 .3769989 .47088624 .3769989 .39482118 .3769989 .3317871 .3769989 .25672914 .3769989 .18867493 .3659973 .12461853 .35099793 .029556275 .2939911-.00047302247 .24899292-.00047302247Z"/>
<clipPath id="clip_2">
<path transform="matrix(1.00005,0,0,-1.00005,3.83844,181.33042)" d="M0 0H194.27399V161.38724H0Z"/>
</clipPath>
<path id="font_3_3" d="M.48599244 .38136292C.48999024 .39537049 .48999024 .39736939 .48999024 .40437318 .48999024 .42237855 .47599793 .43138124 .46099855 .43138124 .45098878 .43138124 .43499757 .42536927 .42599488 .41036988 .42399598 .405365 .41600038 .37435914 .4119873 .35635377 .40499879 .33035279 .397995 .30334474 .3919983 .27633668L.34700013 .09628296C.34298707 .08126831 .2999878 .011245728 .23399353 .011245728 .18299866 .011245728 .17199707 .055267335 .17199707 .0922699 .17199707 .1382904 .18899536 .20030213 .22299195 .28833009 .23899842 .3293457 .24299622 .3403473 .24299622 .36035157 .24299622 .405365 .21099854 .4423828 .16099549 .4423828 .06599426 .4423828 .0289917 .29733277 .0289917 .28833009 .0289917 .27833558 .038986207 .27833558 .040985109 .27833558 .050994874 .27833558 .051986696 .28033448 .056991579 .29634095 .083999637 .3903656 .12399292 .42037965 .1579895 .42037965 .1659851 .42037965 .18299866 .42037965 .18299866 .3883667 .18299866 .36335755 .17298889 .3373413 .1659851 .31834413 .12599182 .21231079 .10798645 .1552887 .10798645 .10827637 .10798645 .019256592 .17098999-.0107421879 .22999573-.0107421879 .2689972-.0107421879 .30299378 .0062561037 .33099366 .03425598 .31799317-.017745972 .30599977-.06674194 .2659912-.11973572 .23999024-.15385437 .20199585-.18309021 .1559906-.18309021 .14199829-.18309021 .09700012-.18005371 .07998657-.14074707 .09599304-.14074707 .10899353-.14074707 .12298584-.1287384 .1329956-.11973572 .14299011-.10673523 .14299011-.08773804 .14299011-.056747438 .115997318-.052734376 .10598755-.052734376 .08299255-.052734376 .049987794-.068740848 .049987794-.11773682 .049987794-.16796875 .09399414-.20507813 .1559906-.20507813 .25898744-.20507813 .3619995-.11373901 .3899994-.00074768069L.48599244 .38136292Z"/>
<path id="font_1_9" d="M.68699648 .32714845C.70199587 .32714845 .72099307 .32714845 .72099307 .34713746 .72099307 .36714173 .70199587 .36714173 .6879883 .36714173H.08898926C.07499695 .36714173 .055999757 .36714173 .055999757 .34713746 .055999757 .32714845 .07499695 .32714845 .08999634 .32714845H.68699648M.6879883 .13284302C.70199587 .13284302 .72099307 .13284302 .72099307 .15284729 .72099307 .17285156 .70199587 .17285156 .68699648 .17285156H.08999634C.07499695 .17285156 .055999757 .17285156 .055999757 .15284729 .055999757 .13284302 .07499695 .13284302 .08898926 .13284302H.6879883Z"/>
<path id="font_3_1" d="M.36698915 .3996582H.45298768C.47299195 .3996582 .48298646 .3996582 .48298646 .41966249 .48298646 .43066407 .47299195 .43066407 .45599366 .43066407H.37298585L.3939972 .5449524C.397995 .5660095 .4119873 .6370239 .41799928 .6490326 .4269867 .66804507 .44400025 .68307498 .46499635 .68307498 .46899415 .68307498 .49499513 .68307498 .5139923 .66503909 .46998597 .661026 .45999146 .6260376 .45999146 .6110382 .45999146 .58802798 .47799684 .57603457 .49699403 .57603457 .522995 .57603457 .5519867 .5980377 .5519867 .6360321 .5519867 .6820679 .5059967 .7050781 .46499635 .7050781 .43099977 .7050781 .36799623 .68707278 .33799745 .58802798 .33198548 .56700137 .32899476 .5569763 .30499269 .43066407H.23599243C.21699524 .43066407 .20599365 .43066407 .20599365 .4116516 .20599365 .3996582 .21499634 .3996582 .23399353 .3996582H.2999878L.22499085 .0048828127C.20698548-.09207153 .18998719-.18309021 .13798523-.18309021 .13398743-.18309021 .10899353-.18309021 .08999634-.16506958 .13598633-.1620636 .14498902-.12606812 .14498902-.111068729 .14498902-.08807373 .1269989-.07606506 .10798645-.07606506 .08198547-.07606506 .052993776-.09806824 .052993776-.13606262 .052993776-.18109131 .09700012-.20507813 .13798523-.20507813 .19299317-.20507813 .23298645-.14607239 .25099183-.108062747 .2829895-.04508972 .30599977 .07583618 .30699159 .082839969L.36698915 .3996582Z"/>
<path id="font_1_1" d="M.33099366-.2400055C.33099366-.23701477 .33099366-.23500061 .31399537-.21800232 .18899536-.0920105 .15699768 .09700012 .15699768 .25 .15699768 .42399598 .19499207 .59799197 .31799317 .72299197 .33099366 .73498538 .33099366 .7369995 .33099366 .73999026 .33099366 .746994 .32699586 .75 .32099916 .75 .31098939 .75 .22099304 .6819916 .1619873 .5549927 .11099243 .44499208 .09899902 .33399964 .09899902 .25 .09899902 .17199707 .10998535 .050994874 .16499329-.06201172 .22499085-.18501282 .31098939-.25 .32099916-.25 .32699586-.25 .33099366-.24700928 .33099366-.2400055Z"/>
<path id="font_3_2" d="M.33399964 .30233766C.33999635 .32835389 .36299134 .42037965 .43299867 .42037965 .43798829 .42037965 .46199037 .42037965 .48298646 .40734864 .45498658 .402359 .43499757 .37734986 .43499757 .35334779 .43499757 .33735658 .44599916 .31835938 .47299195 .31835938 .49499513 .31835938 .5269928 .3363495 .5269928 .37635804 .5269928 .42837525 .46798707 .4423828 .43399049 .4423828 .37599183 .4423828 .34098817 .38935853 .32899476 .36634828 .3039856 .43237306 .25 .4423828 .22099304 .4423828 .116989139 .4423828 .05999756 .3133545 .05999756 .28834535 .05999756 .27833558 .069992069 .27833558 .07199097 .27833558 .07998657 .27833558 .08299255 .28033448 .084991458 .28933717 .11898804 .39535523 .18499756 .42037965 .21899414 .42037965 .23799134 .42037965 .272995 .4113617 .272995 .35334779 .272995 .32235719 .2559967 .25532533 .21899414 .11528015 .20298767 .053268434 .16799927 .011245728 .12399292 .011245728 .117996219 .011245728 .09498596 .011245728 .07398987 .024276734 .09899902 .029266358 .12098694 .05027771 .12098694 .07827759 .12098694 .105270389 .09899902 .11328125 .083999637 .11328125 .053985597 .11328125 .0289917 .08728027 .0289917 .055267335 .0289917 .009246826 .07899475-.0107421879 .12298584-.0107421879 .18899536-.0107421879 .22499085 .059280397 .22799683 .0652771 .23999024 .028274537 .27598573-.0107421879 .33599855-.0107421879 .43899537-.0107421879 .49598695 .118270877 .49598695 .14328003 .49598695 .1532898 .4869995 .1532898 .48399354 .1532898 .47499085 .1532898 .47299195 .14929199 .47099305 .14228821 .43798829 .03527832 .36999513 .011245728 .33799745 .011245728 .29899598 .011245728 .2829895 .043273927 .2829895 .07727051 .2829895 .09927368 .2889862 .121276859 .2999878 .16529846L.33399964 .30233766Z"/>
<path id="font_1_2" d="M.2889862 .25C.2889862 .32798768 .27799989 .44898988 .22299195 .56199648 .16299439 .68499758 .07699585 .75 .066986087 .75 .06098938 .75 .056991579 .74598696 .056991579 .73999026 .056991579 .7369995 .056991579 .73498538 .07598877 .71699526 .17399597 .6179962 .23098755 .45899964 .23098755 .25 .23098755 .07899475 .19400025-.09700012 .069992069-.2230072 .056991579-.23500061 .056991579-.23701477 .056991579-.2400055 .056991579-.2460022 .06098938-.25 .066986087-.25 .07699585-.25 .16699219-.18200684 .22599793-.055007936 .2769928 .054992677 .2889862 .16600037 .2889862 .25Z"/>
</defs>
<path transform="matrix(1.00005,0,0,-1.00005,3.83844,181.33042)" stroke-width=".19925" stroke-linecap="butt" stroke-miterlimit="10" stroke-linejoin="miter" fill="none" stroke="#7f807f" d="M29.8883 67.03998V71.29192M59.77661 67.03998V71.29192M89.66492 67.03998V71.29192M119.55322 67.03998V71.29192M149.44153 67.03998V71.29192M179.32984 67.03998V71.29192"/>
<path transform="matrix(1.00005,0,0,-1.00005,3.83844,181.33042)" stroke-width=".19925" stroke-linecap="butt" stroke-miterlimit="10" stroke-linejoin="miter" fill="none" stroke="#7f807f" d=""/>
<path transform="matrix(1.00005,0,0,-1.00005,3.83844,181.33042)" stroke-width=".79701" stroke-linecap="butt" stroke-miterlimit="10" stroke-linejoin="miter" fill="none" stroke="#000000" d="M0 69.16595H193.56662"/>
<path transform="matrix(1.00005,0,0,-1.00005,197.41474,112.16101)" stroke-width=".6376" stroke-linecap="round" stroke-linejoin="round" fill="none" stroke="#000000" d="M-1.55415 2.0722C-1.42464 1.29512 0 .1295 .38852 0 0-.1295-1.42464-1.29512-1.55415-2.0722"/>
<path transform="matrix(1.00005,0,0,-1.00005,3.83844,181.33042)" stroke-width=".79701" stroke-linecap="butt" stroke-miterlimit="10" stroke-linejoin="miter" fill="none" stroke="#000000" d="M0 0V160.67987"/>
<path transform="matrix(0,-1.00005,-1.00005,-0,3.83844,20.642518)" stroke-width=".6376" stroke-linecap="round" stroke-linejoin="round" fill="none" stroke="#000000" d="M-1.55415 2.0722C-1.42464 1.29512 0 .1295 .38852 0 0-.1295-1.42464-1.29512-1.55415-2.0722"/>
<use data-text="2" xlink:href="#font_1_5" transform="matrix(9.963098,0,0,-9.963098,31.237809,124.42757)"/>
<use data-text="4" xlink:href="#font_1_6" transform="matrix(9.963098,0,0,-9.963098,61.1273,124.42757)"/>
<use data-text="6" xlink:href="#font_1_7" transform="matrix(9.963098,0,0,-9.963098,91.0168,124.42757)"/>
<use data-text="8" xlink:href="#font_1_8" transform="matrix(9.963098,0,0,-9.963098,120.90729,124.42757)"/>
<use data-text="1" xlink:href="#font_1_4" transform="matrix(9.963098,0,0,-9.963098,148.30567,124.42757)"/>
<use data-text="0" xlink:href="#font_1_3" transform="matrix(9.963098,0,0,-9.963098,153.2872,124.42757)"/>
<use data-text="1" xlink:href="#font_1_4" transform="matrix(9.963098,0,0,-9.963098,178.19516,124.42757)"/>
<use data-text="2" xlink:href="#font_1_5" transform="matrix(9.963098,0,0,-9.963098,183.1767,124.42757)"/>
<g clip-path="url(#clip_2)">
<path transform="matrix(1.00005,0,0,-1.00005,3.83844,181.33042)" stroke-width=".79701" stroke-linecap="butt" stroke-miterlimit="10" stroke-linejoin="miter" fill="none" stroke="#ec008c" d="M0 69.16595C0 69.16595 .70534 70.524 .97623 71.04393 1.24713 71.56386 1.68158 72.39604 1.95247 72.91324 2.22337 73.43045 2.65782 74.25784 2.92871 74.77164 3.19962 75.28543 3.63405 76.10652 3.90495 76.6164 4.17586 77.12627 4.61029 77.94109 4.8812 78.44653 5.1521 78.95198 5.58653 79.759 5.85744 80.2594 6.12834 80.7598 6.56277 81.55824 6.83368 82.05313 7.10458 82.54802 7.53902 83.33737 7.80992 83.82622 8.08081 84.31508 8.51526 85.09406 8.78616 85.57652 9.05705 86.05899 9.4915 86.82816 9.7624 87.30354 10.0333 87.77892 10.46776 88.5351 10.73865 89.00276 11.00955 89.47041 11.444 90.2144 11.71489 90.67413 11.9858 91.13388 12.42024 91.86467 12.69113 92.31633 12.96204 92.768 13.39648 93.4868 13.66737 93.9295 13.93828 94.37221 14.37271 95.07376 14.64362 95.50708 14.91452 95.9404 15.34895 96.62903 15.61986 97.05261 15.89076 97.4762 16.3252 98.14685 16.5961 98.56007 16.867 98.9733 17.30144 99.62817 17.57234 100.03084 17.84323 100.43349 18.27768 101.0704 18.54858 101.46217 18.81947 101.85394 19.25392 102.47346 19.52483 102.85448 19.79572 103.2355 20.23016 103.83908 20.50107 104.20842 20.77196 104.57774 21.2064 105.15953 21.4773 105.51639 21.7482 105.87326 22.18265 106.4364 22.45354 106.78055 22.72444 107.12468 23.15889 107.66537 23.42978 107.99678 23.70068 108.32819 24.13513 108.85014 24.40602 109.16917 24.67693 109.4882 25.11136 109.99057 25.38226 110.29614 25.65317 110.60172 26.0876 111.07928 26.3585 111.37154 26.62941 111.6638 27.06384 112.1242 27.33475 112.40257 27.60565 112.68094 28.04008 113.11365 28.31099 113.37785 28.58188 113.64206 29.01633 114.05688 29.28723 114.3069 29.55812 114.55693 29.9926 114.94469 30.2635 115.17998 30.5344 115.41525 30.96884 115.78252 31.23975 116.00273 31.51064 116.22295 31.94508 116.56172 32.21597 116.76721 32.48688 116.9727 32.92133 117.29236 33.19221 117.48373 33.46312 117.67511 33.89757 117.97115 34.16846 118.14655 34.43936 118.32195 34.8738 118.588 35.1447 118.74794 35.4156 118.90788 35.85004 119.15381 36.12094 119.29935 36.39185 119.44487 36.82628 119.66682 37.09718 119.79684 37.36809 119.92686 37.80252 120.12257 38.07343 120.23651 38.34433 120.35045 38.77876 120.51994 39.04967 120.61812 39.32056 120.7163 39.755 120.86156 40.02591 120.94412 40.2968 121.02669 40.73125 121.14635 41.00215 121.21324 41.27304 121.28014 41.70749 121.37512 41.97838 121.4263 42.24928 121.47746 42.68373 121.54758 42.95462 121.5821 43.22552 121.61662 43.65997 121.65553 43.93086 121.67516 44.20177 121.69478 44.63622 121.71881 44.9071 121.72365 45.17801 121.72849 45.61244 121.72174 45.88335 121.71007 46.15425 121.6984 46.58868 121.66698 46.85959 121.63945 47.1305 121.61191 47.56493 121.55473 47.83583 121.5116 48.10674 121.46844 48.54117 121.38599 48.81207 121.3284 49.08296 121.27081 49.51743 121.1693 49.78833 121.0965 50.05922 121.02368 50.49367 120.89217 50.76457 120.80368 51.03546 120.71521 51.46991 120.56203 51.74081 120.45874 52.0117 120.35544 52.44615 120.17664 52.71704 120.0591 52.98795 119.94154 53.4224 119.74377 53.69328 119.61153 53.96419 119.4793 54.39864 119.25253 54.66953 119.10594 54.94043 118.95935 55.37488 118.7158 55.64577 118.55496 55.91667 118.39412 56.3511 118.12178 56.62201 117.94669 56.89291 117.77159 57.32735 117.48161 57.59825 117.29294 57.86916 117.10426 58.30359 116.78868 58.5745 116.58685 58.8454 116.38503 59.27983 116.0527 59.55074 115.83833 59.82162 115.62398 60.25607 115.26997 60.52698 115.04181 60.79787 114.81366 61.23232 114.43474 61.50322 114.19397 61.77411 113.9532 62.20856 113.55905 62.47946 113.30643 62.75035 113.05382 63.1848 112.63846 63.45569 112.37326 63.7266 112.10806 64.16104 111.67166 64.43193 111.39497 64.70284 111.11827 65.13728 110.66641 65.40817 110.37904 65.67908 110.09169 66.11353 109.62222 66.38441 109.32379 66.65532 109.02536 67.08975 108.53703 67.36066 108.22809 67.63156 107.91914 68.066 107.41638 68.3369 107.09706 68.6078 106.77774 69.04227 106.25603 69.31317 105.92662 69.58408 105.5972 70.01851 105.0615 70.28941 104.72287 70.5603 104.38425 70.99475 103.8338 71.26566 103.48605 71.53654 103.13829 71.971 102.57289 72.2419 102.2164 72.51279 101.85992 72.94724 101.28128 73.21814 100.91666 73.48903 100.55203 73.92348 99.96086 74.19437 99.58846 74.46527 99.21605 74.89972 98.61238 75.17061 98.23259 75.44151 97.8528 75.87596 97.23799 76.14685 96.85114 76.41776 96.46426 76.85219 95.83725 77.1231 95.44432 77.394 95.05139 77.82843 94.41809 78.09933 94.01913 78.37024 93.62018 78.80467 92.97386 79.07558 92.56886 79.34648 92.16386 79.78091 91.50996 80.05182 91.10011 80.32272 90.69026 80.75716 90.02931 81.02806 89.61491 81.29895 89.2005 81.7334 88.53226 82.0043 88.11334 82.27519 87.69444 82.70964 87.01826 82.98055 86.5957 83.25143 86.17316 83.68588 85.49368 83.95677 85.06784 84.22768 84.64201 84.66212 83.95522 84.93301 83.52646 85.20392 83.0977 85.63837 82.40862 85.90926 81.97763 86.18016 81.54666 86.61461 80.85309 86.8855 80.42018 87.1564 79.98727 87.59084 79.29187 87.86174 78.8575 88.13264 78.42314 88.5671 77.72484 88.838 77.28952 89.1089 76.85422 89.54333 76.15567 89.81424 75.72006 90.08514 75.28444 90.51958 74.58551 90.79048 74.14983 91.06137 73.71416 91.49582 73.01532 91.76672 72.57994 92.03761 72.14455 92.47206 71.44609 92.74297 71.01178 93.01385 70.57747 93.4483 69.88234 93.71921 69.44966 93.9901 69.01698 94.42455 68.3243 94.69543 67.89325 94.96634 67.46219 95.40079 66.77171 95.67168 66.34286 95.94258 65.91402 96.37703 65.22835 96.64792 64.80237 96.91882 64.37637 97.35327 63.69553 97.62416 63.27257 97.89507 62.84962 98.32957 62.1733 98.60048 61.75397 98.87138 61.33466 99.30574 60.66556 99.57663 60.25041 99.84752 59.83528 100.28203 59.17258 100.55292 58.76187 100.8238 58.35117 101.2582 57.6961 101.52908 57.29024 101.79996 56.88438 102.23445 56.23718 102.50537 55.83667 102.77628 55.43617 103.21078 54.79837 103.48169 54.40361 103.75258 54.00887 104.18695 53.3802 104.45784 52.99155 104.72871 52.60289 105.16325 51.98442 105.43413 51.60245 105.70502 51.22049 106.1394 50.61389 106.41028 50.23853 106.68117 49.86317 107.11566 49.2653 107.38657 48.89713 107.65749 48.52895 108.09198 47.94505 108.36288 47.58487 108.63379 47.2247 109.06815 46.65315 109.33904 46.30116 109.60992 45.94917 110.04445 45.39212 110.31534 45.04797 110.58623 44.70381 111.02058 44.15608 111.29149 43.82063 111.5624 43.48518 111.99689 42.95618 112.2678 42.63022 112.53871 42.30426 112.9732 41.78844 113.2441 41.47131 113.51497 41.15417 113.94936 40.6519 114.22025 40.34457 114.49112 40.03723 114.92566 39.55357 115.19655 39.25615 115.46742 38.95872 115.9018 38.48804 116.17268 38.20085 116.44359 37.91365 116.8781 37.46289 117.149 37.18614 117.41992 36.9094 117.85443 36.47214 118.1253 36.20615 118.3962 35.94016 118.83057 35.52408 119.10146 35.26901 119.37234 35.01393 119.80684 34.61145 120.07774 34.36769 120.34865 34.12395 120.78302 33.74463 121.05392 33.51218 121.32483 33.27972 121.7593 32.91373 122.03021 32.69232 122.30113 32.47092 122.73563 32.12518 123.00652 31.91637 123.27739 31.70755 123.71176 31.38387 123.98267 31.18723 124.25356 30.9906 124.68808 30.68433 124.95898 30.49911 125.22987 30.3139 125.66425 30.02545 125.93512 29.85231 126.20601 29.67918 126.6405 29.41188 126.9114 29.25124 127.18233 29.09058 127.61684 28.84178 127.88771 28.69435 128.1586 28.54692 128.59297 28.3232 128.86386 28.18858 129.13477 28.05397 129.56928 27.84663 129.84018 27.72412 130.11109 27.60161 130.54544 27.41505 130.81633 27.30557 131.08722 27.19609 131.52172 27.03154 131.79264 26.93498 132.06356 26.83841 132.49802 26.69331 132.76892 26.60957 133.03981 26.52582 133.4742 26.40202 133.7451 26.33134 134.01599 26.26065 134.4505 26.15771 134.72139 26.09998 134.99227 26.04224 135.42665 25.95998 135.69754 25.9152 135.96842 25.87044 136.40293 25.8087 136.67383 25.77722 136.94475 25.74576 137.37926 25.70656 137.65015 25.68837 137.92105 25.6702 138.35543 25.6523 138.6263 25.64616 138.89719 25.64005 139.33171 25.63737 139.60259 25.64413 139.87348 25.6509 140.30786 25.67455 140.57875 25.69502 140.84964 25.7155 141.28412 25.75845 141.55504 25.79173 141.82596 25.82501 142.26045 25.88971 142.53136 25.93489 142.80226 25.98007 143.23662 26.05981 143.5075 26.11745 143.77838 26.17508 144.21292 26.27908 144.48381 26.35036 144.75469 26.42163 145.18907 26.54803 145.45996 26.6312 145.73084 26.71437 146.16533 26.85445 146.43625 26.94981 146.70716 27.0452 147.14167 27.21136 147.41255 27.31865 147.68346 27.42593 148.11783 27.60393 148.3887 27.7231 148.65959 27.84227 149.09413 28.04652 149.365 28.17757 149.6359 28.30862 150.07027 28.52515 150.34116 28.6677 150.61206 28.81026 151.04656 29.05107 151.31748 29.20508 151.5884 29.35909 152.02288 29.61243 152.29376 29.77773 152.56465 29.94301 152.99904 30.21996 153.26993 30.39647 153.54082 30.57298 153.97533 30.86276 154.24622 31.0499 154.51709 31.23703 154.95146 31.54776 155.22237 31.74525 155.49326 31.94273 155.92777 32.2662 156.19869 32.47328 156.46959 32.68037 156.9041 33.02003 157.17498 33.23785 157.44586 33.45567 157.88025 33.81572 158.15113 34.04317 158.42201 34.27061 158.85654 34.641 159.12741 34.87718 159.3983 35.11336 159.83267 35.4999 160.10356 35.74544 160.37447 35.99098 160.80896 36.39256 161.07988 36.64693 161.3508 36.9013 161.7853 37.316 162.05619 37.57887 162.32707 37.84175 162.76143 38.27046 163.03234 38.54153 163.30324 38.81262 163.73775 39.25316 164.00865 39.53265 164.27954 39.81216 164.71392 40.26889 164.9848 40.55602 165.25568 40.84314 165.69019 41.30829 165.9611 41.60207 166.23201 41.89584 166.6665 42.37271 166.9374 42.67346 167.20827 42.97423 167.64264 43.46246 167.91353 43.76976 168.18444 44.07706 168.61896 44.57498 168.88985 44.88829 169.16075 45.2016 169.59513 45.70879 169.866 46.02795 170.13689 46.34712 170.5714 46.86386 170.8423 47.18861 171.11322 47.51338 171.54769 48.03915 171.81859 48.36864 172.0895 48.69814 172.52387 49.2293 172.79477 49.56342 173.06568 49.89754 173.50017 50.43825 173.77106 50.77687 174.04195 51.1155 174.47632 51.66127 174.74721 52.00406 175.01808 52.34685 175.45259 52.9009 175.72351 53.24748 175.99442 53.59406 176.42893 54.15282 176.69983 54.50203 176.97072 54.85126 177.40509 55.41246 177.67598 55.76451 177.94686 56.11656 178.38138 56.68463 178.65225 57.03944 178.92314 57.39426 179.35753 57.96521 179.6284 58.32184 179.89929 58.67845 180.3338 59.25163 180.6047 59.60982 180.87563 59.96802 181.31014 60.54391 181.58103 60.9035 181.85193 61.26308 182.28629 61.84113 182.55718 62.2015 182.82807 62.56187 183.26259 63.14017 183.53348 63.5009 183.80437 63.86165 184.23873 64.44064 184.50963 64.80151 184.78054 65.16237 185.21503 65.74109 185.48595 66.10178 185.75685 66.46248 186.19135 67.04137 186.46224 67.40123 186.73311 67.7611 187.1675 68.33679 187.43839 68.69543 187.70926 69.05408 188.1438 69.62889 188.41469 69.98619 188.68556 70.3435 189.11994 70.91525 189.39083 71.27075 189.66173 71.62627 190.09624 72.19524 190.36714 72.54854 190.63806 72.90182 191.07256 73.4664 191.34343 73.81712 191.61432 74.16785 192.04869 74.72849 192.31958 75.07635 192.59047 75.42424 193.025 75.98006 193.29589 76.32445 193.56678 76.66882 194.27204 77.55852 194.27204 77.55852"/>
<use data-text="y" xlink:href="#font_3_3" transform="matrix(9.963098,0,0,-9.963098,52.392866,57.0102)"/>
<use data-text="=" xlink:href="#font_1_9" transform="matrix(9.963098,0,0,-9.963098,60.402265,57.0102)"/>
<use data-text="f" xlink:href="#font_3_1" transform="matrix(9.963098,0,0,-9.963098,70.91879,57.0102)"/>
<use data-text="(" xlink:href="#font_1_1" transform="matrix(9.963098,0,0,-9.963098,76.86908,57.0102)"/>
<use data-text="x" xlink:href="#font_3_2" transform="matrix(9.963098,0,0,-9.963098,80.74327,57.0102)"/>
<use data-text=")" xlink:href="#font_1_2" transform="matrix(9.963098,0,0,-9.963098,86.43756,57.0102)"/>
</g>
<use data-text="x" xlink:href="#font_3_2" transform="matrix(9.963098,0,0,-9.963098,211.55582,114.30606)"/>
<use data-text="y" xlink:href="#font_3_3" transform="matrix(9.963098,0,0,-9.963098,1.217308,6.208664)"/>
</svg>
