<svg xmlns="http://www.w3.org/2000/svg" xmlns:xlink="http://www.w3.org/1999/xlink" xmlns:inkscape="http://www.inkscape.org/namespaces/inkscape" version="1.1" width="304" height="128" viewBox="0 0 304 128">
<defs>
<path id="font_1_5" d="M.1269989 .07699585 .23298645 .18003845C.3889923 .31811524 .44898988 .3721466 .44898988 .47216798 .44898988 .5860901 .35899354 .6660156 .23699951 .6660156 .12399292 .6660156 .049987794 .57411196 .049987794 .48516847 .049987794 .4291687 .099990848 .4291687 .102996829 .4291687 .11999512 .4291687 .15499878 .44117738 .15499878 .48217774 .15499878 .5081787 .13699341 .5341797 .101989749 .5341797 .09399414 .5341797 .09199524 .5341797 .08898926 .5331726 .11199951 .59806826 .1659851 .63500979 .22399903 .63500979 .31498719 .63500979 .35798646 .5541382 .35798646 .47216798 .35798646 .39215089 .30799867 .31311036 .25299073 .25108338L.06098938 .036987306C.049987794 .025985718 .049987794 .023986817 .049987794 0H.42099L.44898988 .17404175H.42399598C.4189911 .14402771 .4119873 .1000061 .4019928 .084991458 .394989 .07699585 .32899476 .07699585 .30699159 .07699585H.1269989Z"/>
<path id="font_1_6" d="M.2939911 .16503906V.07800293C.2939911 .041992189 .2919922 .0309906 .21798706 .0309906H.19699097V0C.23799134 .0029907227 .2899933 .0029907227 .33198548 .0029907227 .37399293 .0029907227 .4269867 .0029907227 .46798707 0V.0309906H.44699098C.37298585 .0309906 .37098695 .041992189 .37098695 .07800293V.16503906H.47099305V.19602967H.37098695V.65075686C.37098695 .67074587 .37098695 .6767578 .35499574 .6767578 .34599305 .6767578 .34298707 .6767578 .33499146 .66474917L.027999878 .19602967V.16503906H.2939911M.2999878 .19602967H.055999757L.2999878 .5688019V.19602967Z"/>
<path id="font_1_7" d="M.13198853 .327713V.35173036C.13198853 .6047821 .2559967 .64100649 .30699159 .64100649 .33099366 .64100649 .37298585 .634964 .394989 .6007538 .37998963 .6007538 .33999635 .6007538 .33999635 .5557556 .33999635 .524765 .3639984 .5097656 .38598634 .5097656 .4019928 .5097656 .43199159 .51875308 .43199159 .5577545 .43199159 .6178589 .3880005 .6660156 .30499269 .6660156 .1769867 .6660156 .041992189 .5367584 .041992189 .31570436 .041992189 .048553468 .1579895-.022460938 .25099183-.022460938 .3619995-.022460938 .45700074 .07156372 .45700074 .2036438 .45700074 .33070375 .36799623 .4267578 .25698854 .4267578 .18899536 .4267578 .1519928 .37573243 .13198853 .327713M.25099183 .0055389406C.18798828 .0055389406 .1579895 .06556702 .1519928 .080566409 .13398743 .127594 .13398743 .2076416 .13398743 .22564698 .13398743 .30369569 .1659851 .40374757 .2559967 .40374757 .27198792 .40374757 .31799317 .40374757 .34899903 .34172059 .36698915 .30470277 .36698915 .2536621 .36698915 .20463562 .36698915 .15661621 .36698915 .10658264 .34999085 .0705719 .31999208 .010528564 .27398683 .0055389406 .25099183 .0055389406Z"/>
<path id="font_1_8" d="M.16299439 .4569702C.116989139 .486969 .11299133 .52098086 .11299133 .5379791 .11299133 .598999 .17799378 .64100649 .24899292 .64100649 .32199098 .64100649 .38598634 .58898928 .38598634 .51698306 .38598634 .45996095 .34700013 .4119568 .2869873 .37695313L.16299439 .4569702M.30899049 .36193849C.3809967 .3989563 .42999269 .45095826 .42999269 .51698306 .42999269 .6090088 .34098817 .6660156 .25 .6660156 .1499939 .6660156 .068984989 .59199526 .068984989 .49897767 .068984989 .4809723 .070999149 .43595887 .11299133 .38894654 .12399292 .37695313 .16099549 .35194398 .18598938 .33494569 .12799073 .30592347 .041992189 .24984741 .041992189 .15072632 .041992189 .04458618 .14399719-.022460938 .24899292-.022460938 .3619995-.022460938 .45700074 .06060791 .45700074 .16773987 .45700074 .20379639 .44599916 .24885559 .4079895 .2909088 .3889923 .31193543 .37298585 .3219452 .30899049 .36193849M.20899964 .3199463 .33198548 .24183655C.3600006 .2228241 .40699769 .19277954 .40699769 .13169861 .40699769 .05760193 .33198548 .0055389406 .25 .0055389406 .1639862 .0055389406 .09199524 .067611698 .09199524 .15072632 .09199524 .20880127 .12399292 .27288819 .20899964 .3199463Z"/>
<path id="font_1_4" d="M.2939911 .64004519C.2939911 .66400149 .2939911 .6660156 .2709961 .6660156 .20899964 .60227969 .12098694 .60227969 .08898926 .60227969V.57128909C.10899353 .57128909 .16799927 .57128909 .21998596 .5972748V.07902527C.21998596 .042999269 .21699524 .0309906 .1269989 .0309906H.09498596V0C.12998963 .0029907227 .21699524 .0029907227 .25698854 .0029907227 .29699708 .0029907227 .38398744 .0029907227 .4189911 0V.0309906H.3869934C.29699708 .0309906 .2939911 .041992189 .2939911 .07902527V.64004519Z"/>
<path id="font_1_3" d="M.45999146 .31976319C.45999146 .39982606 .45498658 .47988893 .41999818 .5539398 .37399293 .65000918 .2919922 .6660156 .25 .6660156 .18998719 .6660156 .116989139 .64001467 .07598877 .54693606 .04399109 .47789 .038986207 .39982606 .038986207 .31976319 .038986207 .24472046 .042999269 .15464783 .083999637 .07859802 .1269989-.0024719239 .19999695-.022460938 .24899292-.022460938 .30299378-.022460938 .3789978-.0014648438 .4229889 .09359741 .45498658 .16265869 .45999146 .2407074 .45999146 .31976319M.24899292-.00047302247C.20999146-.00047302247 .15098572 .024551392 .1329956 .12062073 .12199402 .18066406 .12199402 .2727356 .12199402 .3317871 .12199402 .39582826 .12199402 .46188355 .12998963 .5159149 .14898682 .63500979 .22399903 .64401248 .24899292 .64401248 .28199769 .64401248 .34799195 .6259918 .36698915 .52693179 .3769989 .47088624 .3769989 .39482118 .3769989 .3317871 .3769989 .25672914 .3769989 .18867493 .3659973 .12461853 .35099793 .029556275 .2939911-.00047302247 .24899292-.00047302247Z"/>
<path id="font_2_1" d="M.6589966 .23046875C.6759949 .23046875 .69400027 .23046875 .69400027 .25045777 .69400027 .27046205 .6759949 .27046205 .6589966 .27046205H.117996219C.100997928 .27046205 .08299255 .27046205 .08299255 .25045777 .08299255 .23046875 .100997928 .23046875 .117996219 .23046875H.6589966Z"/>
<clipPath id="clip_3">
<path transform="matrix(1.00003,0,0,-1.00003,7.552902,133.55854)" d="M0 6.51059H295.3279V131.75666H0Z"/>
</clipPath>
<path id="font_4_2" d="M.48599244 .38136292C.48999024 .39537049 .48999024 .39736939 .48999024 .40437318 .48999024 .42237855 .47599793 .43138124 .46099855 .43138124 .45098878 .43138124 .43499757 .42536927 .42599488 .41036988 .42399598 .405365 .41600038 .37435914 .4119873 .35635377 .40499879 .33035279 .397995 .30334474 .3919983 .27633668L.34700013 .09628296C.34298707 .08126831 .2999878 .011245728 .23399353 .011245728 .18299866 .011245728 .17199707 .055267335 .17199707 .0922699 .17199707 .1382904 .18899536 .20030213 .22299195 .28833009 .23899842 .3293457 .24299622 .3403473 .24299622 .36035157 .24299622 .405365 .21099854 .4423828 .16099549 .4423828 .06599426 .4423828 .0289917 .29733277 .0289917 .28833009 .0289917 .27833558 .038986207 .27833558 .040985109 .27833558 .050994874 .27833558 .051986696 .28033448 .056991579 .29634095 .083999637 .3903656 .12399292 .42037965 .1579895 .42037965 .1659851 .42037965 .18299866 .42037965 .18299866 .3883667 .18299866 .36335755 .17298889 .3373413 .1659851 .31834413 .12599182 .21231079 .10798645 .1552887 .10798645 .10827637 .10798645 .019256592 .17098999-.0107421879 .22999573-.0107421879 .2689972-.0107421879 .30299378 .0062561037 .33099366 .03425598 .31799317-.017745972 .30599977-.06674194 .2659912-.11973572 .23999024-.15385437 .20199585-.18309021 .1559906-.18309021 .14199829-.18309021 .09700012-.18005371 .07998657-.14074707 .09599304-.14074707 .10899353-.14074707 .12298584-.1287384 .1329956-.11973572 .14299011-.10673523 .14299011-.08773804 .14299011-.056747438 .115997318-.052734376 .10598755-.052734376 .08299255-.052734376 .049987794-.068740848 .049987794-.11773682 .049987794-.16796875 .09399414-.20507813 .1559906-.20507813 .25898744-.20507813 .3619995-.11373901 .3899994-.00074768069L.48599244 .38136292Z"/>
<path id="font_1_9" d="M.68699648 .32714845C.70199587 .32714845 .72099307 .32714845 .72099307 .34713746 .72099307 .36714173 .70199587 .36714173 .6879883 .36714173H.08898926C.07499695 .36714173 .055999757 .36714173 .055999757 .34713746 .055999757 .32714845 .07499695 .32714845 .08999634 .32714845H.68699648M.6879883 .13284302C.70199587 .13284302 .72099307 .13284302 .72099307 .15284729 .72099307 .17285156 .70199587 .17285156 .68699648 .17285156H.08999634C.07499695 .17285156 .055999757 .17285156 .055999757 .15284729 .055999757 .13284302 .07499695 .13284302 .08898926 .13284302H.6879883Z"/>
<path id="font_4_1" d="M.33399964 .30233766C.33999635 .32835389 .36299134 .42037965 .43299867 .42037965 .43798829 .42037965 .46199037 .42037965 .48298646 .40734864 .45498658 .402359 .43499757 .37734986 .43499757 .35334779 .43499757 .33735658 .44599916 .31835938 .47299195 .31835938 .49499513 .31835938 .5269928 .3363495 .5269928 .37635804 .5269928 .42837525 .46798707 .4423828 .43399049 .4423828 .37599183 .4423828 .34098817 .38935853 .32899476 .36634828 .3039856 .43237306 .25 .4423828 .22099304 .4423828 .116989139 .4423828 .05999756 .3133545 .05999756 .28834535 .05999756 .27833558 .069992069 .27833558 .07199097 .27833558 .07998657 .27833558 .08299255 .28033448 .084991458 .28933717 .11898804 .39535523 .18499756 .42037965 .21899414 .42037965 .23799134 .42037965 .272995 .4113617 .272995 .35334779 .272995 .32235719 .2559967 .25532533 .21899414 .11528015 .20298767 .053268434 .16799927 .011245728 .12399292 .011245728 .117996219 .011245728 .09498596 .011245728 .07398987 .024276734 .09899902 .029266358 .12098694 .05027771 .12098694 .07827759 .12098694 .105270389 .09899902 .11328125 .083999637 .11328125 .053985597 .11328125 .0289917 .08728027 .0289917 .055267335 .0289917 .009246826 .07899475-.0107421879 .12298584-.0107421879 .18899536-.0107421879 .22499085 .059280397 .22799683 .0652771 .23999024 .028274537 .27598573-.0107421879 .33599855-.0107421879 .43899537-.0107421879 .49598695 .118270877 .49598695 .14328003 .49598695 .1532898 .4869995 .1532898 .48399354 .1532898 .47499085 .1532898 .47299195 .14929199 .47099305 .14228821 .43798829 .03527832 .36999513 .011245728 .33799745 .011245728 .29899598 .011245728 .2829895 .043273927 .2829895 .07727051 .2829895 .09927368 .2889862 .121276859 .2999878 .16529846L.33399964 .30233766Z"/>
<path id="font_1_12" d="M.20799256 .19424439C.22999573 .19024658 .31199647 .17424011 .31199647 .102249149 .31199647 .051254274 .2769928 .011245728 .19898987 .011245728 .114990238 .011245728 .07899475 .06825256 .05999756 .15324402 .056991579 .1662445 .055999757 .17024231 .04598999 .17024231 .032989503 .17024231 .032989503 .16323853 .032989503 .14524842V.013244629C.032989503-.003753662 .032989503-.0107421879 .04399109-.0107421879 .04899597-.0107421879 .049987794-.009750366 .068984989 .009246826 .070999149 .011245728 .070999149 .013244629 .08898926 .03224182 .1329956-.009750366 .17799378-.0107421879 .19898987-.0107421879 .31399537-.0107421879 .3600006 .056243898 .3600006 .12825012 .3600006 .1812439 .32998658 .21124268 .31799317 .22323609 .2849884 .25523377 .24598694 .26324464 .20399475 .27124024 .147995 .28224183 .08099365 .2952423 .08099365 .35324098 .08099365 .38822938 .10699463 .42922975 .19299317 .42922975 .30299378 .42922975 .30799867 .3392334 .30999757 .3082428 .31098939 .2992401 .31999208 .2992401 .32199098 .2992401 .33499146 .2992401 .33499146 .304245 .33499146 .3232422V.4242401C.33499146 .4412384 .33499146 .4482422 .32398988 .4482422 .31900025 .4482422 .31698609 .4482422 .3039856 .43623353 .30099488 .43223573 .29100038 .42323304 .2869873 .42022706 .24899292 .4482422 .20799256 .4482422 .19299317 .4482422 .070999149 .4482422 .032989503 .38124085 .032989503 .3252411 .032989503 .29023744 .04899597 .26223756 .07598877 .24023438 .10798645 .21424866 .13598633 .2082367 .20799256 .19424439Z"/>
<path id="font_1_10" d="M.1769867 .4423828 .036987306 .43138124V.40037538C.101989749 .40037538 .11099243 .3943634 .11099243 .34532167V.076034549C.11099243 .0309906 .099990848 .0309906 .032989503 .0309906V0C.06498718 .0009918213 .11898804 .0029907227 .14299011 .0029907227 .17799378 .0029907227 .21299744 .0009918213 .24699402 0V.0309906C.18099976 .0309906 .1769867 .035995485 .1769867 .075042728V.4423828M.18099976 .6159363C.18099976 .64793398 .1559906 .6689453 .12799073 .6689453 .09700012 .6689453 .07499695 .64193728 .07499695 .6159363 .07499695 .5889435 .09700012 .5629425 .12799073 .5629425 .1559906 .5629425 .18099976 .5839386 .18099976 .6159363Z"/>
<path id="font_1_11" d="M.10998535 .34429933V.076034549C.10998535 .0309906 .09899902 .0309906 .03199768 .0309906V0C.066986087 .0009918213 .117996219 .0029907227 .14498902 .0029907227 .17098999 .0029907227 .22299195 .0009918213 .25698854 0V.0309906C.18998719 .0309906 .1789856 .0309906 .1789856 .076034549V.2602234C.1789856 .36431886 .25 .42037965 .31399537 .42037965 .3769989 .42037965 .3880005 .36631776 .3880005 .30926515V.076034549C.3880005 .0309906 .3769989 .0309906 .30999757 .0309906V0C.34498597 .0009918213 .3959961 .0029907227 .4229889 .0029907227 .44898988 .0029907227 .5009918 .0009918213 .5349884 0V.0309906C.48298646 .0309906 .45799256 .0309906 .45700074 .061019899V.25221253C.45700074 .3383026 .45700074 .36932374 .42599488 .405365 .4119873 .42237855 .3789978 .4423828 .32099916 .4423828 .24798584 .4423828 .20098877 .39935304 .17298889 .33729554V.4423828L.03199768 .43138124V.40037538C.101989749 .4003601 .10998535 .39335633 .10998535 .34429933Z"/>
<path id="font_1_1" d="M.33099366-.2400055C.33099366-.23701477 .33099366-.23500061 .31399537-.21800232 .18899536-.0920105 .15699768 .09700012 .15699768 .25 .15699768 .42399598 .19499207 .59799197 .31799317 .72299197 .33099366 .73498538 .33099366 .7369995 .33099366 .73999026 .33099366 .746994 .32699586 .75 .32099916 .75 .31098939 .75 .22099304 .6819916 .1619873 .5549927 .11099243 .44499208 .09899902 .33399964 .09899902 .25 .09899902 .17199707 .10998535 .050994874 .16499329-.06201172 .22499085-.18501282 .31098939-.25 .32099916-.25 .32699586-.25 .33099366-.24700928 .33099366-.2400055Z"/>
<path id="font_1_2" d="M.2889862 .25C.2889862 .32798768 .27799989 .44898988 .22299195 .56199648 .16299439 .68499758 .07699585 .75 .066986087 .75 .06098938 .75 .056991579 .74598696 .056991579 .73999026 .056991579 .7369995 .056991579 .73498538 .07598877 .71699526 .17399597 .6179962 .23098755 .45899964 .23098755 .25 .23098755 .07899475 .19400025-.09700012 .069992069-.2230072 .056991579-.23500061 .056991579-.23701477 .056991579-.2400055 .056991579-.2460022 .06098938-.25 .066986087-.25 .07699585-.25 .16699219-.18200684 .22599793-.055007936 .2769928 .054992677 .2889862 .16600037 .2889862 .25Z"/>
</defs>
<path transform="matrix(1.00003,0,0,-1.00003,7.552902,133.55854)" stroke-width=".19925" stroke-linecap="butt" stroke-miterlimit="10" stroke-linejoin="miter" fill="none" stroke="#7f807f" d="M56.79382 67.00754V71.2597M102.22888 67.00754V71.2597M147.66396 67.00754V71.2597M193.09902 67.00754V71.2597M238.53409 67.00754V71.2597M283.96916 67.00754V71.2597"/>
<path transform="matrix(1.00003,0,0,-1.00003,7.552902,133.55854)" stroke-width=".19925" stroke-linecap="butt" stroke-miterlimit="10" stroke-linejoin="miter" fill="none" stroke="#7f807f" d="M9.23262 19.0352H13.48488M9.23262 44.08441H13.48488M9.23262 94.18283H13.48488M9.23262 119.23204H13.48488"/>
<path transform="matrix(1.00003,0,0,-1.00003,7.552902,133.55854)" stroke-width=".3985" stroke-linecap="butt" stroke-miterlimit="10" stroke-linejoin="miter" fill="none" stroke="#000000" d="M0 69.13362H294.86964"/>
<path transform="matrix(1.00003,0,0,-1.00003,302.4314,64.42284)" stroke-width=".31879" stroke-linecap="round" stroke-linejoin="round" fill="none" stroke="#000000" d="M-1.19551 1.59401C-1.09587 .99626 0 .09961 .29886 0 0-.09961-1.09587-.99626-1.19551-1.59401"/>
<path transform="matrix(1.00003,0,0,-1.00003,7.552902,133.55854)" stroke-width=".3985" stroke-linecap="butt" stroke-miterlimit="10" stroke-linejoin="miter" fill="none" stroke="#000000" d="M11.35876 6.51059V131.29837"/>
<path transform="matrix(0,-1.00003,-1.00003,-0,18.912003,2.2562257)" stroke-width=".31879" stroke-linecap="round" stroke-linejoin="round" fill="none" stroke="#000000" d="M-1.19551 1.59401C-1.09587 .99626 0 .09961 .29886 0 0-.09961-1.09587-.99626-1.19551-1.59401"/>
<use data-text="2" xlink:href="#font_1_5" transform="matrix(9.962899,0,0,-9.962899,61.857538,76.48982)"/>
<use data-text="4" xlink:href="#font_1_6" transform="matrix(9.962899,0,0,-9.962899,107.2939,76.48982)"/>
<use data-text="6" xlink:href="#font_1_7" transform="matrix(9.962899,0,0,-9.962899,152.73027,76.48982)"/>
<use data-text="8" xlink:href="#font_1_8" transform="matrix(9.962899,0,0,-9.962899,198.16663,76.48982)"/>
<use data-text="1" xlink:href="#font_1_4" transform="matrix(9.962899,0,0,-9.962899,241.11292,76.48982)"/>
<use data-text="0" xlink:href="#font_1_3" transform="matrix(9.962899,0,0,-9.962899,246.09436,76.48982)"/>
<use data-text="1" xlink:href="#font_1_4" transform="matrix(9.962899,0,0,-9.962899,286.54933,76.48982)"/>
<use data-text="2" xlink:href="#font_1_5" transform="matrix(9.962899,0,0,-9.962899,291.53077,76.48982)"/>
<use data-text="&#x2212;" xlink:href="#font_2_1" transform="matrix(9.962899,0,0,-9.962899,.5356903,117.31805)"/>
<use data-text="8" xlink:href="#font_1_8" transform="matrix(9.962899,0,0,-9.962899,8.28492,117.31805)"/>
<use data-text="&#x2212;" xlink:href="#font_2_1" transform="matrix(9.962899,0,0,-9.962899,.5356903,92.268299)"/>
<use data-text="4" xlink:href="#font_1_6" transform="matrix(9.962899,0,0,-9.962899,8.28492,92.268299)"/>
<use data-text="4" xlink:href="#font_1_6" transform="matrix(9.962899,0,0,-9.962899,8.283928,42.5828)"/>
<use data-text="8" xlink:href="#font_1_8" transform="matrix(9.962899,0,0,-9.962899,8.283928,17.533043)"/>
<g clip-path="url(#clip_3)">
<path transform="matrix(1.00003,0,0,-1.00003,7.552902,133.55854)" stroke-width="1.19553" stroke-linecap="butt" stroke-miterlimit="10" stroke-linejoin="miter" fill="none" stroke="#ec008c" d="M11.35876 69.13362C11.35876 69.13362 12.01749 69.13812 12.27048 69.14369 12.52347 69.14928 12.92921 69.16277 13.18222 69.17392 13.43523 69.18507 13.841 69.20749 14.09401 69.22418 14.34702 69.24088 14.75275 69.27211 15.00574 69.2943 15.25873 69.31647 15.66449 69.35648 15.91748 69.38408 16.17047 69.41167 16.5762 69.4603 16.82921 69.49321 17.08221 69.52612 17.48798 69.58325 17.741 69.62137 17.994 69.6595 18.39973 69.72485 18.65273 69.76807 18.90572 69.8113 19.31148 69.88477 19.56447 69.93295 19.81746 69.98114 20.22322 70.06244 20.47621 70.11542 20.7292 70.1684 21.13493 70.25723 21.38794 70.31482 21.64095 70.37239 22.0467 70.46849 22.29971 70.53053 22.55272 70.59258 22.95847 70.69571 23.21146 70.76198 23.46445 70.82825 23.8702 70.93793 24.12318 71.00818 24.37617 71.07843 24.78192 71.1943 25.03493 71.26836 25.28793 71.3424 25.6937 71.46431 25.9467 71.5419 26.1997 71.61949 26.60545 71.74683 26.85844 71.82768 27.11143 71.90854 27.51718 72.04085 27.77017 72.12468 28.02316 72.20853 28.42892 72.34541 28.68192 72.432 28.9349 72.5186 29.34065 72.6598 29.59366 72.74881 29.84666 72.83783 30.25241 72.98242 30.50542 73.07352 30.75842 73.16461 31.16417 73.31244 31.41716 73.40538 31.67015 73.4983 32.07591 73.64891 32.3289 73.74332 32.5819 73.83772 32.98763 73.99031 33.24063 74.08585 33.49365 74.18138 33.8994 74.33553 34.1524 74.43187 34.40541 74.52823 34.81116 74.68346 35.06415 74.7803 35.31714 74.87715 35.7229 75.03302 35.97589 75.12994 36.22888 75.22688 36.63463 75.38225 36.88762 75.47893 37.14061 75.57559 37.54636 75.7306 37.79936 75.82675 38.05237 75.92288 38.45813 76.07669 38.71114 76.17184 38.96414 76.267 39.36987 76.4188 39.62286 76.51259 39.87585 76.60638 40.28162 76.75575 40.5346 76.84793 40.7876 76.9401 41.19336 77.08685 41.44635 77.17699 41.69934 77.26712 42.10507 77.40991 42.3581 77.49754 42.6111 77.58519 43.01685 77.72382 43.26985 77.80873 43.52286 77.89365 43.9286 78.02783 44.1816 78.10962 44.43459 78.19139 44.84035 78.32002 45.09334 78.39828 45.34633 78.47655 45.75206 78.59924 46.00507 78.67369 46.25807 78.74815 46.66383 78.86464 46.91684 78.93494 47.16985 79.00525 47.57559 79.11476 47.82858 79.18053 48.08157 79.24629 48.48732 79.34804 48.74031 79.40892 48.9933 79.4698 49.39906 79.56366 49.65205 79.61945 49.90504 79.67522 50.31079 79.76067 50.5638 79.81096 50.8168 79.86125 51.22255 79.93753 51.47557 79.98198 51.72858 80.02643 52.13431 80.09299 52.3873 80.13138 52.64029 80.16978 53.04605 80.22665 53.29904 80.25876 53.55203 80.29086 53.95778 80.33745 54.21078 80.36288 54.46379 80.3883 54.86954 80.42358 55.12254 80.44208 55.37555 80.46059 55.7813 80.48482 56.03429 80.49628 56.28728 80.50774 56.69304 80.52063 56.94603 80.5247 57.19902 80.52878 57.60477 80.52916 57.85776 80.52565 58.11075 80.52214 58.5165 80.51056 58.7695 80.49939 59.0225 80.48824 59.42827 80.46428 59.68127 80.44518 59.93428 80.42606 60.34003 80.38887 60.59302 80.36165 60.84601 80.33443 61.25175 80.28432 61.50475 80.24887 61.75774 80.21341 62.16348 80.1499 62.41649 80.10614 62.6695 80.06236 63.07526 79.98558 63.32826 79.93333 63.58127 79.88109 63.987 79.79031 64.23999 79.7295 64.49298 79.6687 64.89874 79.5644 65.15173 79.49506 65.40472 79.4257 65.81049 79.30766 66.06348 79.22958 66.31647 79.1515 66.7222 79.01904 66.9752 78.93225 67.22823 78.84546 67.63397 78.69943 67.88698 78.60405 68.13998 78.50868 68.54573 78.34875 68.79872 78.24474 69.05171 78.14073 69.45747 77.96704 69.71046 77.85437 69.96346 77.7417 70.36919 77.5539 70.6222 77.43257 70.8752 77.31126 71.28096 77.10976 71.53397 76.98001 71.78697 76.85027 72.19272 76.63554 72.44571 76.49739 72.6987 76.35925 73.10445 76.13078 73.35744 75.98436 73.61043 75.83794 74.01619 75.5965 74.26918 75.44206 74.52217 75.28763 74.92792 75.0337 75.18092 74.87129 75.43393 74.70886 75.83968 74.4417 76.09268 74.27142 76.3457 74.10114 76.75143 73.82178 77.00443 73.64401 77.25742 73.46626 77.66318 73.17525 77.91617 72.99019 78.16916 72.80515 78.57492 72.50237 78.82791 72.31024 79.0809 72.11812 79.48663 71.80428 79.73964 71.6054 79.99265 71.40652 80.3984 71.08217 80.65141 70.8768 80.90442 70.67143 81.31017 70.33679 81.56316 70.12524 81.81615 69.9137 82.2219 69.56943 82.47488 69.352 82.72787 69.1346 83.13362 68.78116 83.38663 68.55821 83.63963 68.33525 84.0454 67.97314 84.2984 67.74506 84.5514 67.51697 84.95714 67.14708 85.21014 66.9142 85.46313 66.68132 85.86888 66.30388 86.12187 66.06656 86.37486 65.82924 86.78062 65.44493 87.03362 65.2037 87.2866 64.96248 87.69235 64.57262 87.94536 64.32793 88.19836 64.08324 88.60413 63.68797 88.85713 63.44012 89.11014 63.19229 89.51587 62.79208 89.76886 62.54163 90.02185 62.29118 90.42761 61.88748 90.6806 61.63495 90.9336 61.38243 91.33932 60.97578 91.59233 60.72159 91.84534 60.46739 92.25111 60.05833 92.50412 59.80283 92.75713 59.54733 93.16287 59.13615 93.41586 58.88005 93.66885 58.62395 94.0746 58.21307 94.32759 57.95695 94.58058 57.70084 94.98633 57.2899 95.23932 57.03409 95.49231 56.77829 95.89806 56.36824 96.15106 56.11325 96.40407 55.85825 96.80984 55.44968 97.06285 55.1962 97.31586 54.94272 97.72159 54.53775 97.97458 54.28627 98.22757 54.0348 98.63333 53.63277 98.88632 53.38371 99.13931 53.13466 99.54504 52.73709 99.79805 52.49121 100.05106 52.24533 100.45682 51.85368 100.70982 51.6115 100.96284 51.36932 101.36858 50.98387 101.62157 50.74571 101.87456 50.50757 102.2803 50.12837 102.53331 49.89497 102.78632 49.66156 103.19212 49.29144 103.44511 49.06339 103.6981 48.83533 104.10378 48.47356 104.35677 48.25122 104.60976 48.0289 105.01556 47.67686 105.26855 47.46092 105.52155 47.24498 105.92723 46.90382 106.18022 46.69481 106.43321 46.48581 106.839 46.15608 107.09203 45.95442 107.34505 45.75275 107.75084 45.43509 108.00383 45.2413 108.25682 45.04753 108.66252 44.74284 108.91551 44.5577 109.1685 44.37253 109.57428 44.08293 109.82727 43.90672 110.08028 43.73051 110.48595 43.45464 110.73894 43.28772 110.99193 43.1208 111.39774 42.86057 111.65076 42.70363 111.90378 42.54668 112.30957 42.30284 112.56256 42.15646 112.81555 42.01009 113.22124 41.78415 113.47423 41.64854 113.72722 41.51294 114.13304 41.30345 114.38603 41.17906 114.63902 41.05469 115.04468 40.86461 115.29767 40.75206 115.55066 40.6395 115.95645 40.46832 116.20947 40.36781 116.4625 40.2673 116.86829 40.11575 117.12128 40.02757 117.37427 39.9394 117.77997 39.8074 118.03296 39.73228 118.28595 39.65715 118.69176 39.54773 118.94476 39.48601 119.19775 39.42429 119.60342 39.3359 119.85641 39.28741 120.1094 39.2389 120.5152 39.17099 120.7682 39.13643 121.02121 39.10185 121.42702 39.0585 121.68001 39.0382 121.933 39.01788 122.33868 38.99614 122.59167 38.99 122.84467 38.98389 123.25049 38.9855 123.50348 38.99394 123.75647 39.00238 124.16216 39.02754 124.41515 39.0509 124.66814 39.07428 125.07391 39.124 125.32692 39.16237 125.57993 39.20076 125.98573 39.27428 126.23872 39.32762 126.49171 39.38097 126.89742 39.4781 127.1504 39.54689 127.4034 39.61568 127.80922 39.73923 128.06221 39.82347 128.3152 39.90773 128.72089 40.05469 128.97388 40.1541 129.22687 40.25352 129.63268 40.42506 129.88568 40.5401 130.13869 40.65514 130.54447 40.85262 130.79746 40.98325 131.05045 41.11388 131.45613 41.33574 131.70912 41.48166 131.96212 41.62758 132.36794 41.87367 132.62093 42.03497 132.87392 42.19626 133.27962 42.46747 133.53261 42.64423 133.7856 42.821 134.19138 43.117 134.4444 43.30904 134.69744 43.50107 135.10323 43.82132 135.35622 44.0283 135.6092 44.2353 136.01486 44.57895 136.26786 44.80095 136.52085 45.02296 136.92667 45.39172 137.17966 45.62846 137.43265 45.8652 137.83834 46.25623 138.09133 46.50723 138.34432 46.75826 138.7501 47.17221 139.00313 47.43768 139.25615 47.70316 139.66196 48.14111 139.91495 48.42062 140.16794 48.70012 140.57358 49.15921 140.82657 49.4522 141.07956 49.74518 141.48538 50.22606 141.73838 50.53232 141.99137 50.83858 142.39707 51.3403 142.65006 51.65955 142.90305 51.9788 143.30883 52.50156 143.56186 52.83337 143.81488 53.16519 144.22068 53.70746 144.47367 54.05113 144.72666 54.3948 145.13231 54.95502 145.3853 55.31038 145.63829 55.66574 146.04412 56.24573 146.2971 56.61234 146.5501 56.97896 146.95578 57.57559 147.20877 57.95267 147.46176 58.32976 147.86756 58.94301 148.12058 59.3302 148.3736 59.71739 148.7794 60.34674 149.0324 60.74341 149.28539 61.14008 149.69106 61.78366 149.94405 62.1892 150.19704 62.59471 150.60283 63.25246 150.85582 63.66628 151.10881 64.0801 151.51451 64.75026 151.7675 65.17177 152.0205 65.59328 152.42627 66.2757 152.6793 66.7043 152.93233 67.1329 153.33812 67.82613 153.59111 68.26086 153.8441 68.69559 154.24979 69.39723 154.50278 69.83755 154.75577 70.2779 155.1616 70.98912 155.4146 71.43443 155.66759 71.87975 156.07323 72.59746 156.32622 73.04706 156.57921 73.49667 156.985 74.2218 157.23802 74.67497 157.49105 75.12814 157.89685 75.85748 158.14984 76.3132 158.40283 76.76894 158.8085 77.50189 159.0615 77.95955 159.31449 78.4172 159.72032 79.15302 159.97332 79.61176 160.2263 80.07048 160.63196 80.80672 160.88495 81.26582 161.13794 81.72491 161.54373 82.46196 161.79676 82.92062 162.04978 83.3793 162.45557 84.11432 162.70856 84.57164 162.96155 85.02896 163.36724 85.76166 163.62023 86.21677 163.87322 86.67188 164.27906 87.39967 164.53205 87.85179 164.78504 88.3039 165.1907 89.02664 165.4437 89.47531 165.69669 89.92398 166.10247 90.64148 166.35547 91.08556 166.60848 91.52962 167.0143 92.23756 167.26729 92.67592 167.52028 93.11427 167.92595 93.81265 168.17894 94.2449 168.43195 94.67715 168.83777 95.3662 169.09076 95.7914 169.34375 96.2166 169.74944 96.89232 170.00243 97.30946 170.25542 97.72661 170.66124 98.38937 170.91425 98.79794 171.16725 99.20651 171.57302 99.85513 171.826 100.25423 172.079 100.65332 172.48468 101.28581 172.73767 101.67441 172.99066 102.063 173.3965 102.67758 173.64949 103.05498 173.90248 103.43239 174.30815 104.02878 174.56114 104.39455 174.81414 104.76031 175.21996 105.33818 175.47296 105.69131 175.72597 106.04446 176.13175 106.60039 176.38474 106.9398 176.63773 107.27922 177.0434 107.81226 177.2964 108.13759 177.5494 108.46294 177.95522 108.97394 178.2082 109.28467 178.4612 109.5954 178.86688 110.08217 179.11988 110.37717 179.37287 110.67216 179.77869 111.1322 180.0317 111.41084 180.2847 111.68947 180.69046 112.12335 180.94345 112.38545 181.19644 112.64755 181.60213 113.0556 181.85512 113.29994 182.10811 113.54428 182.51395 113.9206 182.76694 114.1466 183.01993 114.3726 183.4256 114.72127 183.67859 114.92896 183.93158 115.13664 184.33739 115.45517 184.59041 115.64355 184.84343 115.83194 185.24922 116.11838 185.50222 116.28679 185.7552 116.45522 186.16086 116.70924 186.41385 116.85744 186.66684 117.00562 187.07266 117.22723 187.32566 117.35486 187.57865 117.48248 187.98433 117.6709 188.23732 117.77728 188.49031 117.88367 188.89612 118.03682 189.14914 118.12164 189.40216 118.20647 189.80794 118.32549 190.06093 118.38867 190.31392 118.45184 190.71958 118.53639 190.97257 118.57704 191.22556 118.61769 191.6314 118.66386 191.88439 118.68175 192.13738 118.69963 192.54305 118.71031 192.79604 118.7059 193.04904 118.70149 193.45484 118.67735 193.70786 118.6499 193.96088 118.62244 194.36667 118.5589 194.61966 118.508 194.87265 118.4571 195.27835 118.35706 195.53134 118.28302 195.78433 118.20897 196.19011 118.0716 196.4431 117.97429 196.69609 117.87698 197.10178 117.70262 197.35477 117.58165 197.60776 117.4607 198.01357 117.2471 198.26659 117.10248 198.5196 116.95784 198.92539 116.70688 199.17838 116.53917 199.43137 116.37146 199.83707 116.08492 200.09006 115.89368 200.34305 115.70244 200.74887 115.37561 201.00186 115.16083 201.25485 114.94606 201.66049 114.58339 201.91349 114.34572 202.16649 114.10805 202.57228 113.7085 202.8253 113.44788 203.07833 113.18726 203.48412 112.75073 203.7371 112.4673 203.9901 112.18387 204.3958 111.71085 204.64879 111.40508 204.90178 111.0993 205.30759 110.59132 205.56058 110.26347 205.81357 109.93561 206.21923 109.39175 206.47222 109.04199 206.7252 108.69221 207.13101 108.11351 207.38404 107.7425 207.63706 107.37148 208.04283 106.7597 208.29582 106.36784 208.54882 105.97598 208.95452 105.33083 209.2075 104.91821 209.4605 104.5056 209.86632 103.82655 210.11931 103.39395 210.3723 102.96135 210.77794 102.25198 211.03095 101.80022 211.28394 101.34846 211.68973 100.60861 211.94275 100.138 212.19577 99.66737 212.60157 98.89697 212.85456 98.4082 213.10755 97.91943 213.51325 97.12149 213.76624 96.61514 214.01923 96.1088 214.42504 95.28194 214.67803 94.7588 214.93102 94.23567 215.33672 93.3839 215.5897 92.84474 215.8427 92.30559 216.24848 91.4274 216.50148 90.87296 216.75449 90.3185 217.16028 89.41733 217.41327 88.84863 217.66626 88.27995 218.07196 87.35666 218.32495 86.77414 218.57794 86.19164 218.98377 85.24576 219.23676 84.65028 219.48975 84.0548 219.89545 83.0895 220.14844 82.48232 220.40143 81.87512 220.80722 80.89204 221.06023 80.27402 221.31324 79.656 221.71901 78.65616 221.972 78.02805 222.22499 77.39992 222.63069 76.38412 222.88368 75.747 223.13668 75.10986 223.54248 74.08107 223.79547 73.43604 224.04846 72.791 224.45417 71.74977 224.70716 71.09793 224.96015 70.44608 225.36595 69.39568 225.61896 68.7379 225.87197 68.08012 226.27773 67.01999 226.53072 66.35712 226.7837 65.69424 227.1894 64.62708 227.4424 63.96036 227.69539 63.29364 228.10121 62.2212 228.3542 61.55183 228.6072 60.88246 229.0129 59.80704 229.26589 59.13586 229.51888 58.4647 229.92465 57.38591 230.17768 56.71442 230.4307 56.04294 230.8365 54.96698 231.0895 54.29617 231.34249 53.62535 231.74814 52.54889 232.00113 51.8796 232.25412 51.21028 232.65993 50.13841 232.91292 49.47223 233.16591 48.80605 233.57161 47.74016 233.8246 47.07816 234.07759 46.41614 234.48339 45.3577 234.7364 44.70082 234.98943 44.04395 235.39522 42.9945 235.64821 42.34375 235.9012 41.693 236.30689 40.65378 236.55988 40.01057 236.81287 39.36739 237.21866 38.34218 237.47165 37.708 237.72464 37.07382 238.13034 36.06451 238.38333 35.43976 238.63632 34.815 239.0421 33.81908 239.29512 33.20515 239.54814 32.59125 239.95395 31.61658 240.20694 31.01501 240.45993 30.41344 240.86562 29.45787 241.1186 28.86935 241.3716 28.28084 241.77738 27.34773 242.03037 26.77336 242.28336 26.199 242.68906 25.28902 242.94205 24.72974 243.19504 24.17046 243.60083 23.28505 243.85385 22.74243 244.10688 22.19981 244.51267 21.34418 244.76566 20.81882 245.01866 20.29344 245.42433 19.46284 245.67733 18.95587 245.93032 18.4489 246.3361 17.65216 246.5891 17.16484 246.84209 16.6775 247.24779 15.911 247.50078 15.44347 247.75377 14.97595 248.15955 14.24121 248.41257 13.79523 248.66559 13.34924 249.0714 12.65253 249.32439 12.22911 249.57738 11.80571 249.98307 11.14418 250.23606 10.74353 250.48905 10.34288 250.89487 9.71823 251.14786 9.34146 251.40085 8.96468 251.8065 8.37982 252.0595 8.02795 252.31249 7.6761 252.71828 7.13193 252.9713 6.80537 253.22432 6.47882 253.63011 5.97488 253.88312 5.67436 254.13611 5.37383 254.54178 4.91266 254.79477 4.63927 255.04776 4.36588 255.4536 3.94922 255.70659 3.70386 255.95958 3.4585 256.36528 3.08832 256.61827 2.87088 256.87126 2.65346 257.277 2.32568 257.53 2.13666 257.78303 1.94763 258.18885 1.66762 258.44184 1.50848 258.69483 1.34935 259.10054 1.11903 259.3535 .98962 259.60649 .86021 260.0123 .67554 260.2653 .57571 260.5183 .4759 260.92399 .339 261.17698 .2702 261.42997 .2014 261.83576 .11722 262.08876 .07973 262.34175 .04224 262.74757 .00688 263.00056 0 263.25358-.00688 263.65925 .00537 263.91224 .03008 264.1652 .05478 264.57106 .12126 264.82405 .1781 265.07704 .23494 265.4827 .35176 265.7357 .43985 265.9887 .52792 266.3945 .69304 266.6475 .81293 266.9005 .93283 267.3063 1.1521 267.55928 1.30406 267.81227 1.45602 268.21797 1.72455 268.47096 1.90823 268.72395 2.09192 269.12977 2.41246 269.38276 2.62796 269.63578 2.84346 270.04145 3.21414 270.29444 3.4615 270.54743 3.70885 270.95323 4.13205 271.20625 4.41074 271.45927 4.68944 271.86506 5.16078 272.11805 5.47025 272.37104 5.77971 272.77668 6.30058 273.02967 6.64124 273.28266 6.98189 273.68849 7.55394 273.94148 7.92546 274.19447 8.29698 274.60017 8.91795 274.85316 9.31891 275.10615 9.71986 275.51194 10.38445 275.76496 10.8153 276.01799 11.24615 276.42378 11.96356 276.67677 12.42432 276.92976 12.88506 277.3354 13.64742 277.5884 14.13608 277.84138 14.62476 278.24723 15.43004 278.5002 15.94635 278.7532 16.46268 279.15888 17.31331 279.41188 17.85744 279.66487 18.40157 280.07066 19.2973 280.32368 19.86803 280.5767 20.43874 280.9825 21.37456 281.2355 21.97075 281.4885 22.56694 281.89414 23.54372 282.14714 24.165 282.4001 24.78627 282.80595 25.80287 283.05894 26.44849 283.31193 27.0941 283.9706 28.81822 283.9706 28.81822"/>
<use data-text="y" xlink:href="#font_4_2" transform="matrix(9.962899,0,0,-9.962899,204.17781,26.207306)"/>
<use data-text="=" xlink:href="#font_1_9" transform="matrix(9.962899,0,0,-9.962899,212.18704,26.207306)"/>
<use data-text="x" xlink:href="#font_4_1" transform="matrix(9.962899,0,0,-9.962899,222.70337,26.207306)"/>
<use data-text="s" xlink:href="#font_1_12" transform="matrix(9.962899,0,0,-9.962899,230.0586,26.207306)"/>
<use data-text="i" xlink:href="#font_1_10" transform="matrix(9.962899,0,0,-9.962899,233.98398,26.207306)"/>
<use data-text="n" xlink:href="#font_1_11" transform="matrix(9.962899,0,0,-9.962899,236.74372,26.207306)"/>
<use data-text="(" xlink:href="#font_1_1" transform="matrix(9.962899,0,0,-9.962899,242.2731,26.207306)"/>
<use data-text="x" xlink:href="#font_4_1" transform="matrix(9.962899,0,0,-9.962899,246.16507,26.207306)"/>
<use data-text=")" xlink:href="#font_1_2" transform="matrix(9.962899,0,0,-9.962899,251.85926,26.207306)"/>
</g>
<use data-text="x" xlink:href="#font_4_1" transform="matrix(9.962899,0,0,-9.962899,293.67555,60.90335)"/>
<use data-text="y" xlink:href="#font_4_2" transform="matrix(9.962899,0,0,-9.962899,22.43235,9.607811)"/>
</svg>
