<svg xmlns="http://www.w3.org/2000/svg" xmlns:xlink="http://www.w3.org/1999/xlink" xmlns:inkscape="http://www.inkscape.org/namespaces/inkscape" version="1.1" width="197" height="165" viewBox="0 0 197 165">
<defs>
<clipPath id="clip_1">
<path transform="matrix(1.00005,0,0,-1.00009,1.0961456,168.0687)" d="M0 4.86928H194.27216V166.25652H0Z"/>
</clipPath>
<path id="font_2_1" d="M.37298585 .37835694C.35499574 .41537477 .32598878 .4423828 .2809906 .4423828 .1639862 .4423828 .039993287 .29533387 .039993287 .14929199 .039993287 .055267335 .09498596-.0107421879 .17298889-.0107421879 .19299317-.0107421879 .24299622-.0067443849 .30299378 .06427002 .31098939 .022247315 .34599305-.0107421879 .3939972-.0107421879 .42900086-.0107421879 .45199586 .012252808 .46798707 .044265748 .4850006 .08027649 .49798585 .14129639 .49798585 .14329529 .49798585 .1532898 .4889984 .1532898 .48599244 .1532898 .47599793 .1532898 .47499085 .14929199 .47200013 .13528443 .45498658 .07026672 .43699647 .011245728 .3959961 .011245728 .36898805 .011245728 .3659973 .037261964 .3659973 .057266237 .3659973 .07926941 .36799623 .08728027 .3789978 .13128662 .3899994 .17329407 .3919983 .18330384 .40098573 .22131348L.43699647 .36135865C.44400025 .38935853 .44400025 .39135743 .44400025 .39537049 .44400025 .41236878 .43199159 .42237855 .4149933 .42237855 .3909912 .42237855 .37599183 .4003601 .37298585 .37835694M.30799867 .119277957C.30299378 .10127258 .30299378 .09927368 .28799439 .08227539 .24398804 .027252198 .20298767 .011245728 .1749878 .011245728 .125 .011245728 .11099243 .06626892 .11099243 .105285648 .11099243 .1552887 .14299011 .27833558 .1659851 .32434083 .19699097 .38336183 .24198914 .42037965 .28199769 .42037965 .34700013 .42037965 .36099244 .3383484 .36099244 .33235169 .36099244 .32633973 .35899354 .32034303 .35798646 .31533814L.30799867 .119277957Z"/>
<path id="font_2_5" d="M.33399964 .30233766C.33999635 .32835389 .36299134 .42037965 .43299867 .42037965 .43798829 .42037965 .46199037 .42037965 .48298646 .40734864 .45498658 .402359 .43499757 .37734986 .43499757 .35334779 .43499757 .33735658 .44599916 .31835938 .47299195 .31835938 .49499513 .31835938 .5269928 .3363495 .5269928 .37635804 .5269928 .42837525 .46798707 .4423828 .43399049 .4423828 .37599183 .4423828 .34098817 .38935853 .32899476 .36634828 .3039856 .43237306 .25 .4423828 .22099304 .4423828 .116989139 .4423828 .05999756 .3133545 .05999756 .28834535 .05999756 .27833558 .069992069 .27833558 .07199097 .27833558 .07998657 .27833558 .08299255 .28033448 .084991458 .28933717 .11898804 .39535523 .18499756 .42037965 .21899414 .42037965 .23799134 .42037965 .272995 .4113617 .272995 .35334779 .272995 .32235719 .2559967 .25532533 .21899414 .11528015 .20298767 .053268434 .16799927 .011245728 .12399292 .011245728 .117996219 .011245728 .09498596 .011245728 .07398987 .024276734 .09899902 .029266358 .12098694 .05027771 .12098694 .07827759 .12098694 .105270389 .09899902 .11328125 .083999637 .11328125 .053985597 .11328125 .0289917 .08728027 .0289917 .055267335 .0289917 .009246826 .07899475-.0107421879 .12298584-.0107421879 .18899536-.0107421879 .22499085 .059280397 .22799683 .0652771 .23999024 .028274537 .27598573-.0107421879 .33599855-.0107421879 .43899537-.0107421879 .49598695 .118270877 .49598695 .14328003 .49598695 .1532898 .4869995 .1532898 .48399354 .1532898 .47499085 .1532898 .47299195 .14929199 .47099305 .14228821 .43798829 .03527832 .36999513 .011245728 .33799745 .011245728 .29899598 .011245728 .2829895 .043273927 .2829895 .07727051 .2829895 .09927368 .2889862 .121276859 .2999878 .16529846L.33399964 .30233766Z"/>
<path id="font_3_3" d="M.40899659 .23046875H.6879883C.70199587 .23046875 .72099307 .23046875 .72099307 .25045777 .72099307 .27046205 .70199587 .27046205 .6879883 .27046205H.40899659V.5500183C.40899659 .56399539 .40899659 .5830078 .3889923 .5830078 .36898805 .5830078 .36898805 .56399539 .36898805 .5500183V.27046205H.08898926C.07499695 .27046205 .055999757 .27046205 .055999757 .25045777 .055999757 .23046875 .07499695 .23046875 .08898926 .23046875H.36898805V-.05000305C.36898805-.06401062 .36898805-.08300781 .3889923-.08300781 .40899659-.08300781 .40899659-.06401062 .40899659-.05000305V.23046875Z"/>
<path id="font_2_3" d="M.2869873 .68333438C.2869873 .6843262 .2869873 .69433596 .27398683 .69433596 .25099183 .69433596 .17799378 .6863251 .1519928 .6843262 .14399719 .68333438 .1329956 .6823273 .1329956 .6643219 .1329956 .6523285 .14199829 .6523285 .15699768 .6523285 .20498657 .6523285 .20698548 .6453247 .20698548 .6353302L.20399475 .6153412 .05899048 .039260866C.054992677 .025253296 .054992677 .023254395 .054992677 .01725769 .054992677-.0057525637 .07499695-.0107421879 .083999637-.0107421879 .099990848-.0107421879 .115997318 .0012512207 .12098694 .015258789L.13999939 .091278079 .1619873 .18130493C.16799927 .2033081 .17399597 .22531128 .1789856 .24832154 .18099976 .25431825 .18899536 .28733827 .18998719 .29333497 .19299317 .30233766 .22399903 .35835267 .2579956 .38536073 .27999879 .4013672 .31098939 .42037965 .35398866 .42037965 .39698792 .42037965 .4079895 .3863678 .4079895 .35035707 .4079895 .29634095 .36999513 .18730164 .34599305 .12628174 .33799745 .103271488 .33299256 .091278079 .33299256 .0712738 .33299256 .024261475 .36799623-.0107421879 .4149933-.0107421879 .5089874-.0107421879 .54599 .13528443 .54599 .14329529 .54599 .1532898 .5369873 .1532898 .5339966 .1532898 .5239868 .1532898 .5239868 .15029907 .5189972 .13528443 .5039978 .08227539 .47200013 .011245728 .4169922 .011245728 .3999939 .011245728 .3929901 .021255494 .3929901 .044265748 .3929901 .0692749 .4019928 .09327698 .41099549 .11528015 .4269867 .15829468 .47200013 .2773285 .47200013 .3353424 .47200013 .4003601 .43199159 .4423828 .35699464 .4423828 .2939911 .4423828 .24598694 .41137696 .20899964 .36535646L.2869873 .68333438Z"/>
<path id="font_2_6" d="M.48599244 .38136292C.48999024 .39537049 .48999024 .39736939 .48999024 .40437318 .48999024 .42237855 .47599793 .43138124 .46099855 .43138124 .45098878 .43138124 .43499757 .42536927 .42599488 .41036988 .42399598 .405365 .41600038 .37435914 .4119873 .35635377 .40499879 .33035279 .397995 .30334474 .3919983 .27633668L.34700013 .09628296C.34298707 .08126831 .2999878 .011245728 .23399353 .011245728 .18299866 .011245728 .17199707 .055267335 .17199707 .0922699 .17199707 .1382904 .18899536 .20030213 .22299195 .28833009 .23899842 .3293457 .24299622 .3403473 .24299622 .36035157 .24299622 .405365 .21099854 .4423828 .16099549 .4423828 .06599426 .4423828 .0289917 .29733277 .0289917 .28833009 .0289917 .27833558 .038986207 .27833558 .040985109 .27833558 .050994874 .27833558 .051986696 .28033448 .056991579 .29634095 .083999637 .3903656 .12399292 .42037965 .1579895 .42037965 .1659851 .42037965 .18299866 .42037965 .18299866 .3883667 .18299866 .36335755 .17298889 .3373413 .1659851 .31834413 .12599182 .21231079 .10798645 .1552887 .10798645 .10827637 .10798645 .019256592 .17098999-.0107421879 .22999573-.0107421879 .2689972-.0107421879 .30299378 .0062561037 .33099366 .03425598 .31799317-.017745972 .30599977-.06674194 .2659912-.11973572 .23999024-.15385437 .20199585-.18309021 .1559906-.18309021 .14199829-.18309021 .09700012-.18005371 .07998657-.14074707 .09599304-.14074707 .10899353-.14074707 .12298584-.1287384 .1329956-.11973572 .14299011-.10673523 .14299011-.08773804 .14299011-.056747438 .115997318-.052734376 .10598755-.052734376 .08299255-.052734376 .049987794-.068740848 .049987794-.11773682 .049987794-.16796875 .09399414-.20507813 .1559906-.20507813 .25898744-.20507813 .3619995-.11373901 .3899994-.00074768069L.48599244 .38136292Z"/>
<path id="font_3_4" d="M.68699648 .32714845C.70199587 .32714845 .72099307 .32714845 .72099307 .34713746 .72099307 .36714173 .70199587 .36714173 .6879883 .36714173H.08898926C.07499695 .36714173 .055999757 .36714173 .055999757 .34713746 .055999757 .32714845 .07499695 .32714845 .08999634 .32714845H.68699648M.6879883 .13284302C.70199587 .13284302 .72099307 .13284302 .72099307 .15284729 .72099307 .17285156 .70199587 .17285156 .68699648 .17285156H.08999634C.07499695 .17285156 .055999757 .17285156 .055999757 .15284729 .055999757 .13284302 .07499695 .13284302 .08898926 .13284302H.6879883Z"/>
<path id="font_2_2" d="M.36698915 .3996582H.45298768C.47299195 .3996582 .48298646 .3996582 .48298646 .41966249 .48298646 .43066407 .47299195 .43066407 .45599366 .43066407H.37298585L.3939972 .5449524C.397995 .5660095 .4119873 .6370239 .41799928 .6490326 .4269867 .66804507 .44400025 .68307498 .46499635 .68307498 .46899415 .68307498 .49499513 .68307498 .5139923 .66503909 .46998597 .661026 .45999146 .6260376 .45999146 .6110382 .45999146 .58802798 .47799684 .57603457 .49699403 .57603457 .522995 .57603457 .5519867 .5980377 .5519867 .6360321 .5519867 .6820679 .5059967 .7050781 .46499635 .7050781 .43099977 .7050781 .36799623 .68707278 .33799745 .58802798 .33198548 .56700137 .32899476 .5569763 .30499269 .43066407H.23599243C.21699524 .43066407 .20599365 .43066407 .20599365 .4116516 .20599365 .3996582 .21499634 .3996582 .23399353 .3996582H.2999878L.22499085 .0048828127C.20698548-.09207153 .18998719-.18309021 .13798523-.18309021 .13398743-.18309021 .10899353-.18309021 .08999634-.16506958 .13598633-.1620636 .14498902-.12606812 .14498902-.111068729 .14498902-.08807373 .1269989-.07606506 .10798645-.07606506 .08198547-.07606506 .052993776-.09806824 .052993776-.13606262 .052993776-.18109131 .09700012-.20507813 .13798523-.20507813 .19299317-.20507813 .23298645-.14607239 .25099183-.108062747 .2829895-.04508972 .30599977 .07583618 .30699159 .082839969L.36698915 .3996582Z"/>
<path id="font_3_1" d="M.33099366-.2400055C.33099366-.23701477 .33099366-.23500061 .31399537-.21800232 .18899536-.0920105 .15699768 .09700012 .15699768 .25 .15699768 .42399598 .19499207 .59799197 .31799317 .72299197 .33099366 .73498538 .33099366 .7369995 .33099366 .73999026 .33099366 .746994 .32699586 .75 .32099916 .75 .31098939 .75 .22099304 .6819916 .1619873 .5549927 .11099243 .44499208 .09899902 .33399964 .09899902 .25 .09899902 .17199707 .10998535 .050994874 .16499329-.06201172 .22499085-.18501282 .31098939-.25 .32099916-.25 .32699586-.25 .33099366-.24700928 .33099366-.2400055Z"/>
<path id="font_2_4" d="M.20599365 .3996582H.2999878C.31999208 .3996582 .32998658 .3996582 .32998658 .41966249 .32998658 .43066407 .31999208 .43066407 .3019867 .43066407H.21398926C.25 .5724945 .25498963 .59246829 .25498963 .59846499 .25498963 .61546328 .24299622 .62545779 .22599793 .62545779 .22299195 .62545779 .19499207 .62446597 .18598938 .58947756L.14698792 .43066407H.052993776C.032989503 .43066407 .022994996 .43066407 .022994996 .4116516 .022994996 .3996582 .0309906 .3996582 .050994874 .3996582H.13899231C.066986087 .11608887 .06298828 .099121097 .06298828 .08114624 .06298828 .02722168 .100997928-.0107421879 .15499878-.0107421879 .25698854-.0107421879 .31399537 .13505554 .31399537 .14305115 .31399537 .1530304 .30599977 .1530304 .3019867 .1530304 .29299928 .1530304 .2919922 .15003968 .2869873 .13905335 .24398804 .035217287 .19099427 .011245728 .15699768 .011245728 .13598633 .011245728 .12599182 .024230957 .12599182 .057174684 .12599182 .08114624 .12799073 .088134769 .13198853 .10510254L.20599365 .3996582Z"/>
<path id="font_3_2" d="M.2889862 .25C.2889862 .32798768 .27799989 .44898988 .22299195 .56199648 .16299439 .68499758 .07699585 .75 .066986087 .75 .06098938 .75 .056991579 .74598696 .056991579 .73999026 .056991579 .7369995 .056991579 .73498538 .07598877 .71699526 .17399597 .6179962 .23098755 .45899964 .23098755 .25 .23098755 .07899475 .19400025-.09700012 .069992069-.2230072 .056991579-.23500061 .056991579-.23701477 .056991579-.2400055 .056991579-.2460022 .06098938-.25 .066986087-.25 .07699585-.25 .16699219-.18200684 .22599793-.055007936 .2769928 .054992677 .2889862 .16600037 .2889862 .25Z"/>
</defs>
<path transform="matrix(1.00005,0,0,-1.00009,1.0961456,168.0687)" stroke-width=".19925" stroke-linecap="butt" stroke-miterlimit="10" stroke-linejoin="miter" fill="none" stroke="#7f807f" d=""/>
<path transform="matrix(1.00005,0,0,-1.00009,1.0961456,168.0687)" stroke-width=".19925" stroke-linecap="butt" stroke-miterlimit="10" stroke-linejoin="miter" fill="none" stroke="#7f807f" d=""/>
<path transform="matrix(1.00005,0,0,-1.00009,1.0961456,168.0687)" stroke-width=".3985" stroke-linecap="butt" stroke-miterlimit="10" stroke-linejoin="miter" fill="none" stroke="#000000" d="M0 50.97992H192.27964"/>
<path transform="matrix(1.00005,0,0,-1.00009,193.38538,117.08418)" d="M1.99252 0-1.19551 1.59401 0 0-1.19551-1.59401"/>
<path transform="matrix(1.00005,0,0,-1.00009,1.0961456,168.0687)" stroke-width=".3985" stroke-linecap="butt" stroke-miterlimit="10" stroke-linejoin="miter" fill="none" stroke="#000000" d="M64.75739 4.86928V164.26399"/>
<path transform="matrix(0,-1.00009,-1.00005,-0,65.85677,3.789917)" d="M1.99252 0-1.19551 1.59401 0 0-1.19551-1.59401"/>
<g clip-path="url(#clip_1)">
<path transform="matrix(1.00005,0,0,-1.00009,1.0961456,168.0687)" d="M80.94673 50.97992V131.67354L97.13608 115.53482 113.32542 97.09056 129.51477 83.25737V50.97992Z" fill="#4dff4d" fill-opacity=".7"/>
<path transform="matrix(1.00005,0,0,-1.00009,1.0961456,168.0687)" d="M129.51477 50.97992V83.25737L137.60944 80.23135 145.70412 80.95183V50.97992Z" fill="#ff9933" fill-opacity=".7"/>
<path transform="matrix(1.00005,0,0,-1.00009,1.0961456,168.0687)" stroke-width=".3985" stroke-linecap="butt" stroke-dasharray="2.98883,2.98883" stroke-miterlimit="10" stroke-linejoin="miter" fill="none" stroke="#000000" d="M80.94673 47.52162V131.67354"/>
<path transform="matrix(1.00005,0,0,-1.00009,1.0961456,168.0687)" stroke-width=".3985" stroke-linecap="butt" stroke-dasharray="2.98883,2.98883" stroke-miterlimit="10" stroke-linejoin="miter" fill="none" stroke="#000000" d="M129.51477 47.52162V83.25737"/>
<path transform="matrix(1.00005,0,0,-1.00009,1.0961456,168.0687)" stroke-width=".3985" stroke-linecap="butt" stroke-dasharray="2.98883,2.98883" stroke-miterlimit="10" stroke-linejoin="miter" fill="none" stroke="#000000" d="M145.70412 47.52162V80.95183"/>
<use data-text="a" xlink:href="#font_2_1" transform="matrix(9.963098,0,0,-9.963496,79.41406,128.45214)"/>
<use data-text="x" xlink:href="#font_2_5" transform="matrix(9.963098,0,0,-9.963496,127.77047,128.45214)"/>
<use data-text="x" xlink:href="#font_2_5" transform="matrix(9.963098,0,0,-9.963496,144.71532,128.66016)"/>
<use data-text="+" xlink:href="#font_3_3" transform="matrix(9.963098,0,0,-9.963496,152.62372,128.66016)"/>
<use data-text="h" xlink:href="#font_2_3" transform="matrix(9.963098,0,0,-9.963496,162.5872,128.66016)"/>
<use data-text="y" xlink:href="#font_2_6" transform="matrix(9.963098,0,0,-9.963496,138.61002,36.568849)"/>
<use data-text="=" xlink:href="#font_3_4" transform="matrix(9.963098,0,0,-9.963496,146.61942,36.568849)"/>
<use data-text="f" xlink:href="#font_2_2" transform="matrix(9.963098,0,0,-9.963496,157.13596,36.568849)"/>
<use data-text="(" xlink:href="#font_3_1" transform="matrix(9.963098,0,0,-9.963496,163.08625,36.568849)"/>
<use data-text="t" xlink:href="#font_2_4" transform="matrix(9.963098,0,0,-9.963496,166.96143,36.568849)"/>
<use data-text=")" xlink:href="#font_3_2" transform="matrix(9.963098,0,0,-9.963496,170.55861,36.568849)"/>
<path transform="matrix(1.00005,0,0,-1.00009,1.0961456,168.0687)" stroke-width="1.59404" stroke-linecap="butt" stroke-miterlimit="10" stroke-linejoin="miter" fill="none" stroke="#0000ff" d="M9.71361 0C9.71361 0 10.96596 7.23596 11.44695 9.92946 11.92793 12.62294 12.69931 16.84193 13.1803 19.41281 13.6613 21.98369 14.4327 26.00797 14.91368 28.45859 15.39467 30.9092 16.16605 34.74252 16.64703 37.07523 17.12804 39.40794 17.89941 43.05408 18.3804 45.27126 18.86139 47.48843 19.63277 50.95114 20.11375 53.05513 20.59476 55.1591 21.36613 58.44217 21.84712 60.43532 22.32811 62.42847 23.09949 65.53574 23.58047 67.4204 24.06148 69.30507 24.83286 72.24022 25.31384 74.01875 25.79483 75.7973 26.56621 78.56418 27.0472 80.23897 27.5282 81.91376 28.29958 84.51611 28.78056 86.08946 29.26155 87.66283 30.03293 90.10443 30.51392 91.57875 30.9949 93.05307 31.7663 95.33772 32.24728 96.71535 32.72827 98.09296 33.49965 100.22441 33.98064 101.50768 34.46162 102.79094 35.23302 104.77301 35.714 105.9643 36.19499 107.15556 36.96637 108.99199 37.44736 110.09363 37.92834 111.19527 38.69972 112.88985 39.18073 113.90422 39.66171 114.9186 40.4331 116.4751 40.9141 117.40456 41.39508 118.334 42.16646 119.75621 42.64746 120.60309 43.12845 121.44998 43.89983 122.74168 44.38081 123.50835 44.8618 124.27501 45.63318 125.43997 46.11418 126.12878 46.59517 126.8176 47.36655 127.8596 47.84753 128.47293 48.32852 129.08626 49.0999 130.00907 49.5809 130.54923 50.06189 131.0894 50.83327 131.8968 51.31425 132.3662 51.79524 132.83559 52.56662 133.53136 53.04762 133.93233 53.52861 134.3333 54.29999 134.92122 54.78098 135.2561 55.26196 135.59099 56.03334 136.07485 56.51433 136.34601 56.99533 136.61716 57.76671 137.0007 58.2477 137.21051 58.72868 137.42032 59.50006 137.70738 59.98105 137.85819 60.46205 138.00899 61.23343 138.20331 61.71442 138.29744 62.1954 138.39157 62.96678 138.49689 63.44777 138.53672 63.92877 138.57654 64.70015 138.5967 65.18114 138.5846 65.66212 138.57251 66.4335 138.51123 66.91449 138.44959 67.3955 138.38793 68.16689 138.24901 68.64787 138.1401 69.12886 138.03122 69.90024 137.81845 70.38123 137.66469 70.86223 137.51091 71.6336 137.2281 72.1146 137.03182 72.59558 136.83553 73.36696 136.48639 73.84795 136.24994 74.32893 136.01349 75.10033 135.60186 75.58131 135.32759 76.0623 135.05333 76.83368 134.58298 77.31467 134.27327 77.79565 133.96358 78.56703 133.43824 79.04803 133.09543 79.52902 132.75263 80.3004 132.1761 80.78139 131.80255 81.26237 131.42902 82.03375 130.8051 82.51476 130.40317 82.99574 130.00125 83.76712 129.33368 84.24811 128.90573 84.7291 128.47779 85.50047 127.77036 85.98148 127.31874 86.46246 126.86711 87.23384 126.12361 87.71483 125.65068 88.19582 125.17775 88.9672 124.40196 89.4482 123.91006 89.92918 123.41818 90.70056 122.61389 91.18155 122.10538 91.66254 121.59688 92.43391 120.76784 92.91492 120.24509 93.3959 119.72234 94.1673 118.87233 94.64828 118.33769 95.12927 117.80305 95.90063 116.9359 96.38162 116.39171 96.86263 115.84752 97.634 114.96693 98.11499 114.41557 98.59598 113.86421 99.36737 112.974 99.84836 112.4178 100.32936 111.8616 101.10074 110.96556 101.58173 110.4069 102.06271 109.84824 102.83409 108.9501 103.31508 108.39133 103.79608 107.83255 104.56746 106.93614 105.04845 106.37961 105.52943 105.82307 106.30081 104.93213 106.7818 104.3802 107.2628 103.82826 108.03418 102.94658 108.51517 102.4016 108.99615 101.85663 109.76753 100.98796 110.24852 100.4523 110.72952 99.91663 111.5009 99.06479 111.98189 98.54079 112.46288 98.01677 113.23425 97.18555 113.71524 96.67557 114.19623 96.16557 114.96762 95.3587 115.44861 94.8651 115.9296 94.37149 116.70097 93.59279 117.18196 93.11789 117.66295 92.64299 118.43434 91.89618 118.91533 91.44238 119.39632 90.98859 120.1677 90.27751 120.64868 89.84717 121.12967 89.41681 121.90105 88.74524 122.38205 88.34068 122.86304 87.93613 123.63441 87.3078 124.1154 86.9314 124.59639 86.555 125.36778 85.97372 125.84879 85.62782 126.32977 85.28194 127.10114 84.75146 127.58212 84.43845 128.06311 84.12541 128.8345 83.64955 129.3155 83.37175 129.7965 83.09395 130.56787 82.67642 131.04886 82.4362 131.52985 82.19598 132.30123 81.84062 132.78223 81.64034 133.26322 81.44005 134.03459 81.15062 134.51558 80.99261 134.99657 80.83463 135.76795 80.6149 136.24895 80.50156 136.72994 80.3882 137.50131 80.24196 137.9823 80.17561 138.46329 80.10925 139.23467 80.04027 139.71566 80.02327 140.19666 80.00627 140.96804 80.01836 141.44902 80.05307 141.93001 80.08777 142.70139 80.18466 143.18238 80.27344 143.66338 80.3622 144.43476 80.54768 144.91574 80.69289 145.39673 80.83807 146.1681 81.11597 146.6491 81.31993 147.1301 81.5239 147.90148 81.89792 148.38246 82.16302 148.86345 82.42813 149.63483 82.90208 150.11582 83.23068 150.59682 83.5593 151.3682 84.13695 151.84918 84.5314 152.33017 84.92584 153.10155 85.61098 153.58254 86.07362 154.06354 86.53627 154.83493 87.33267 155.31592 87.86588 155.7969 88.3991 156.56829 89.31052 157.04927 89.91664 157.53026 90.52275 158.30164 91.55302 158.78263 92.2344 159.26361 92.91579 160.035 94.06865 160.51599 94.82767 160.99698 95.58669 161.76837 96.8659 162.24936 97.7049 162.73035 98.5439 163.50173 99.95328 163.98271 100.8746 164.4637 101.79593 165.23508 103.33923 165.71608 104.34526 166.19707 105.35129 166.96845 107.0323 167.44944 108.12537 167.93042 109.21844 168.7018 111.04095 169.1828 112.22343 169.66379 113.4059 170.43517 115.37366 170.91616 116.64789 171.39714 117.92212 172.16852 120.03894 172.64952 121.40729 173.13051 122.77565 173.90189 125.04526 174.38288 126.51009 174.86386 127.9749 175.63524 130.40113 176.11624 131.96477 176.59723 133.52841 177.3686 136.115 177.8496 137.77985 178.33058 139.44467 179.10196 142.19539 179.58296 143.96376 180.06395 145.73213 181.31633 150.52507 181.31633 150.52507"/>
</g>
<use data-text="t" xlink:href="#font_2_4" transform="matrix(9.963098,0,0,-9.963496,188.2605,113.56379)"/>
<use data-text="y" xlink:href="#font_2_6" transform="matrix(9.963098,0,0,-9.963496,69.37656,9.607422)"/>
</svg>
