<svg xmlns="http://www.w3.org/2000/svg" xmlns:xlink="http://www.w3.org/1999/xlink" xmlns:inkscape="http://www.inkscape.org/namespaces/inkscape" version="1.1" width="352" height="145" viewBox="0 0 352 145">
<defs>
<path id="font_1_1" d="M.31098939 .36265565H.42999269C.4149933 .30274964 .3929901 .2118988 .3929901 .13302613 .3929901 .09309387 .397995 .06613159 .4039917 .044174196 .41999818-.0057678224 .43299867-.009765625 .44898988-.009765625 .47200013-.009765625 .49598695 .011230469 .49598695 .035186769 .49598695 .043182374 .49398805 .047164918 .48799134 .057159425 .46899415 .09408569 .45098878 .15100098 .45098878 .23286438 .45098878 .25183106 .45098878 .29177857 .46499635 .36265565H.58999636C.60798647 .36265565 .6159973 .36265565 .6269989 .37065126 .6409912 .380661 .6439972 .39665223 .6439972 .4016571 .6439972 .43066407 .6179962 .43066407 .6009979 .43066407H.22399903C.18299866 .43066407 .15499878 .42166139 .10998535 .37965394 .083999637 .35665895 .04499817 .30274964 .04499817 .2937622 .04499817 .28178407 .057998659 .28178407 .06199646 .28178407 .07299805 .28178407 .07398987 .28378297 .07998657 .2927704 .1309967 .36265565 .19299317 .36265565 .21499634 .36265565H.27598573C.24499512 .25283814 .19099427 .13502503 .16099549 .07511902 .15499878 .062149049 .14498902 .04118347 .14199829 .03718567 .14099121 .033187868 .13899231 .029190064 .13899231 .022201539 .13899231 .006225586 .15098572-.009765625 .17399597-.009765625 .21398926-.009765625 .22499085 .035186769 .24899292 .12504578L.31098939 .36265565Z"/>
<path id="font_2_1" d="M.5049896 .18203736H.47099305C.46798707 .16001892 .45799256 .100997928 .44499208 .09098816 .43699647 .084991458 .3600006 .084991458 .34599305 .084991458H.1619873C.2669983 .17803955 .3019867 .20603943 .3619995 .25306703 .43598939 .312088 .5049896 .374115 .5049896 .46914674 .5049896 .5900879 .39898683 .6640625 .2709961 .6640625 .14698792 .6640625 .06298828 .57710269 .06298828 .4851532 .06298828 .43414308 .10598755 .42915345 .115997318 .42915345 .13999939 .42915345 .16899109 .44615174 .16899109 .48214723 .16899109 .5001526 .1619873 .53515627 .10998535 .53515627 .14099121 .6060791 .20899964 .62805178 .2559967 .62805178 .35598756 .62805178 .4079895 .5501404 .4079895 .46914674 .4079895 .38212586 .34599305 .3130951 .31399537 .27708436L.07299805 .038986207C.06298828 .02999878 .06298828 .027999878 .06298828 0H.47499085L.5049896 .18203736Z"/>
<path id="font_3_1" d="M.2649994 .37265016H.37799073C.34498597 .22489929 .33599855 .18196106 .33599855 .11508179 .33599855 .100097659 .33599855 .073150638 .34399415 .03919983 .35398866-.0047454836 .36499024-.0107421879 .37998963-.0107421879 .3999939-.0107421879 .42099 .007247925 .42099 .02722168 .42099 .033218385 .42099 .035202028 .4149933 .049179079 .38598634 .12106323 .38598634 .18595886 .38598634 .21391297 .38598634 .26683045 .3929901 .32073976 .4039917 .37265016H.5179901C.5309906 .37265016 .5669861 .37265016 .5669861 .406662 .5669861 .43066407 .54599 .43066407 .5269928 .43066407H.19198609C.16999817 .43066407 .13198853 .43066407 .08799744 .38365174 .052993776 .34469605 .026992798 .29878236 .026992798 .29379273 .026992798 .29278565 .026992798 .28379823 .038986207 .28379823 .04699707 .28379823 .04899597 .28779603 .054992677 .29577638 .10398865 .37265016 .1619873 .37265016 .18199158 .37265016H.23899842C.20698548 .25186158 .15299988 .13105774 .11099243 .04020691 .102996829 .025222779 .102996829 .023223877 .102996829 .016235352 .102996829-.002746582 .11898804-.0107421879 .13198853-.0107421879 .1619873-.0107421879 .16999817 .017242432 .18199158 .05418396 .19599915 .100097659 .19599915 .10209656 .20899964 .15202332L.2649994 .37265016Z"/>
<path id="font_2_2" d="M.272995 .33428956C.35099793 .33428956 .40699769 .2803192 .40699769 .1733551 .40699769 .04940796 .33499146 .012466431 .2769928 .012466431 .23699951 .012466431 .14898682 .0234375 .10699463 .082351688 .1539917 .084350589 .16499329 .11735535 .16499329 .13835144 .16499329 .17034912 .14099121 .19335938 .10998535 .19335938 .08198547 .19335938 .053985597 .17634583 .053985597 .13534546 .053985597 .041412355 .1579895-.01953125 .2789917-.01953125 .41799928-.01953125 .5139923 .07336426 .5139923 .1733551 .5139923 .2513275 .44999696 .32929994 .33999635 .35229493 .44499208 .39024354 .48298646 .4650879 .48298646 .5260773 .48298646 .60505679 .3919983 .6640625 .2809906 .6640625 .16999817 .6640625 .084991458 .61006167 .084991458 .5300751 .084991458 .49606324 .10699463 .47706605 .13699341 .47706605 .16799927 .47706605 .18798828 .5000763 .18798828 .5280762 .18798828 .5570679 .16799927 .57806399 .13699341 .5800781 .17199707 .62405398 .24099732 .63505557 .27799989 .63505557 .32299806 .63505557 .38598634 .6130676 .38598634 .5260773 .38598634 .48406983 .37199403 .43814088 .34599305 .4072113 .31298829 .36927796 .2849884 .3672943 .23498535 .36428834 .20999146 .3623047 .20799256 .3623047 .20298767 .3612976 .20098877 .3612976 .19299317 .3592987 .19299317 .34829713 .19299317 .33428956 .20199585 .33428956 .21899414 .33428956H.272995Z"/>
<path id="font_4_3" d="M.1269989 .07699585 .23298645 .18003845C.3889923 .31811524 .44898988 .3721466 .44898988 .47216798 .44898988 .5860901 .35899354 .6660156 .23699951 .6660156 .12399292 .6660156 .049987794 .57411196 .049987794 .48516847 .049987794 .4291687 .099990848 .4291687 .102996829 .4291687 .11999512 .4291687 .15499878 .44117738 .15499878 .48217774 .15499878 .5081787 .13699341 .5341797 .101989749 .5341797 .09399414 .5341797 .09199524 .5341797 .08898926 .5331726 .11199951 .59806826 .1659851 .63500979 .22399903 .63500979 .31498719 .63500979 .35798646 .5541382 .35798646 .47216798 .35798646 .39215089 .30799867 .31311036 .25299073 .25108338L.06098938 .036987306C.049987794 .025985718 .049987794 .023986817 .049987794 0H.42099L.44898988 .17404175H.42399598C.4189911 .14402771 .4119873 .1000061 .4019928 .084991458 .394989 .07699585 .32899476 .07699585 .30699159 .07699585H.1269989Z"/>
<path id="font_2_3" d="M.15499878 .5588074C.20599365 .5458069 .23599243 .5458069 .2519989 .5458069 .38398744 .5458069 .46199037 .6358032 .46199037 .6508026 .46199037 .6618042 .45498658 .6648102 .44999696 .6648102 .44799806 .6648102 .44599916 .6648102 .44198609 .6618042 .41799928 .6528015 .36499024 .6328125 .29100038 .6328125 .2630005 .6328125 .20999146 .6348114 .14498902 .6598053 .1349945 .6648102 .1329956 .6648102 .13198853 .6648102 .11898804 .6648102 .11898804 .6538086 .11898804 .6378021V.34251405C.11898804 .32548524 .11898804 .3134613 .1349945 .3134613 .14399719 .3134613 .14498902 .3154602 .15499878 .32748414 .19799805 .38259889 .25898744 .390625 .2939911 .390625 .35398866 .390625 .3809967 .34251405 .38598634 .33450318 .4039917 .30143739 .4099884 .26335145 .4099884 .20524597 .4099884 .17524719 .4099884 .116256717 .37998963 .07234192 .35499574 .03640747 .31199647 .012466431 .2630005 .012466431 .19799805 .012466431 .1309967 .04838562 .10598755 .11425781 .14399719 .11125183 .16299439 .13624573 .16299439 .16325379 .16299439 .20625305 .12599182 .21424866 .11299133 .21424866 .11099243 .21424866 .06298828 .21424866 .06298828 .1602478 .06298828 .07034302 .14498902-.01953125 .2649994-.01953125 .3929901-.01953125 .5049896 .07533264 .5049896 .20124817 .5049896 .31445313 .4189911 .41862489 .29499818 .41862489 .25099183 .41862489 .19898987 .4076233 .15499878 .36956788V.5588074Z"/>
<path id="font_4_4" d="M.2899933 .35191346C.37199403 .37893678 .42999269 .4490509 .42999269 .52809146 .42999269 .6100464 .34199525 .6660156 .24598694 .6660156 .14498902 .6660156 .068984989 .60606387 .068984989 .53009036 .068984989 .49710084 .09098816 .47808839 .11999512 .47808839 .15098572 .47808839 .17098999 .50009158 .17098999 .5290985 .17098999 .57910159 .12399292 .57910159 .10899353 .57910159 .13999939 .62802127 .20599365 .64100649 .24198914 .64100649 .2829895 .64100649 .33799745 .6190338 .33799745 .5290985 .33799745 .51708987 .33599855 .45906068 .30999757 .4149933 .27999879 .36691285 .24598694 .36390687 .22099304 .36291505 .21299744 .36190797 .18899536 .35990907 .18199158 .35990907 .17399597 .35890199 .16699219 .35791017 .16699219 .3479004 .16699219 .33691407 .17399597 .33691407 .19099427 .33691407H.23498535C.31698609 .33691407 .35398866 .2686615 .35398866 .17037964 .35398866 .034469606 .2849884 .0055389406 .24099732 .0055389406 .19799805 .0055389406 .12298584 .022491456 .08799744 .08137512 .12298584 .07637024 .1539917 .09837341 .1539917 .1363678 .1539917 .17237854 .1269989 .19238281 .09799194 .19238281 .07398987 .19238281 .041992189 .17837525 .041992189 .1343689 .041992189 .043441774 .1349945-.022460938 .24398804-.022460938 .3659973-.022460938 .45700074 .06838989 .45700074 .17037964 .45700074 .252594 .3939972 .33088685 .2899933 .35191346Z"/>
<path id="font_5_1" d="M.6589966 .23046875C.6759949 .23046875 .69400027 .23046875 .69400027 .25045777 .69400027 .27046205 .6759949 .27046205 .6589966 .27046205H.117996219C.100997928 .27046205 .08299255 .27046205 .08299255 .25045777 .08299255 .23046875 .100997928 .23046875 .117996219 .23046875H.6589966Z"/>
<path id="font_4_5" d="M.2939911 .16503906V.07800293C.2939911 .041992189 .2919922 .0309906 .21798706 .0309906H.19699097V0C.23799134 .0029907227 .2899933 .0029907227 .33198548 .0029907227 .37399293 .0029907227 .4269867 .0029907227 .46798707 0V.0309906H.44699098C.37298585 .0309906 .37098695 .041992189 .37098695 .07800293V.16503906H.47099305V.19602967H.37098695V.65075686C.37098695 .67074587 .37098695 .6767578 .35499574 .6767578 .34599305 .6767578 .34298707 .6767578 .33499146 .66474917L.027999878 .19602967V.16503906H.2939911M.2999878 .19602967H.055999757L.2999878 .5688019V.19602967Z"/>
<path id="font_4_6" d="M.16299439 .4569702C.116989139 .486969 .11299133 .52098086 .11299133 .5379791 .11299133 .598999 .17799378 .64100649 .24899292 .64100649 .32199098 .64100649 .38598634 .58898928 .38598634 .51698306 .38598634 .45996095 .34700013 .4119568 .2869873 .37695313L.16299439 .4569702M.30899049 .36193849C.3809967 .3989563 .42999269 .45095826 .42999269 .51698306 .42999269 .6090088 .34098817 .6660156 .25 .6660156 .1499939 .6660156 .068984989 .59199526 .068984989 .49897767 .068984989 .4809723 .070999149 .43595887 .11299133 .38894654 .12399292 .37695313 .16099549 .35194398 .18598938 .33494569 .12799073 .30592347 .041992189 .24984741 .041992189 .15072632 .041992189 .04458618 .14399719-.022460938 .24899292-.022460938 .3619995-.022460938 .45700074 .06060791 .45700074 .16773987 .45700074 .20379639 .44599916 .24885559 .4079895 .2909088 .3889923 .31193543 .37298585 .3219452 .30899049 .36193849M.20899964 .3199463 .33198548 .24183655C.3600006 .2228241 .40699769 .19277954 .40699769 .13169861 .40699769 .05760193 .33198548 .0055389406 .25 .0055389406 .1639862 .0055389406 .09199524 .067611698 .09199524 .15072632 .09199524 .20880127 .12399292 .27288819 .20899964 .3199463Z"/>
<clipPath id="clip_6">
<path transform="matrix(1.00003,0,0,-1.00005,3.4987794,143.18349)" d="M0 0H323.6758V125.2491H0Z"/>
</clipPath>
<path id="font_3_2" d="M.36698915 .3996582H.45298768C.47299195 .3996582 .48298646 .3996582 .48298646 .41966249 .48298646 .43066407 .47299195 .43066407 .45599366 .43066407H.37298585L.3939972 .5449524C.397995 .5660095 .4119873 .6370239 .41799928 .6490326 .4269867 .66804507 .44400025 .68307498 .46499635 .68307498 .46899415 .68307498 .49499513 .68307498 .5139923 .66503909 .46998597 .661026 .45999146 .6260376 .45999146 .6110382 .45999146 .58802798 .47799684 .57603457 .49699403 .57603457 .522995 .57603457 .5519867 .5980377 .5519867 .6360321 .5519867 .6820679 .5059967 .7050781 .46499635 .7050781 .43099977 .7050781 .36799623 .68707278 .33799745 .58802798 .33198548 .56700137 .32899476 .5569763 .30499269 .43066407H.23599243C.21699524 .43066407 .20599365 .43066407 .20599365 .4116516 .20599365 .3996582 .21499634 .3996582 .23399353 .3996582H.2999878L.22499085 .0048828127C.20698548-.09207153 .18998719-.18309021 .13798523-.18309021 .13398743-.18309021 .10899353-.18309021 .08999634-.16506958 .13598633-.1620636 .14498902-.12606812 .14498902-.111068729 .14498902-.08807373 .1269989-.07606506 .10798645-.07606506 .08198547-.07606506 .052993776-.09806824 .052993776-.13606262 .052993776-.18109131 .09700012-.20507813 .13798523-.20507813 .19299317-.20507813 .23298645-.14607239 .25099183-.108062747 .2829895-.04508972 .30599977 .07583618 .30699159 .082839969L.36698915 .3996582Z"/>
<path id="font_4_1" d="M.33099366-.2400055C.33099366-.23701477 .33099366-.23500061 .31399537-.21800232 .18899536-.0920105 .15699768 .09700012 .15699768 .25 .15699768 .42399598 .19499207 .59799197 .31799317 .72299197 .33099366 .73498538 .33099366 .7369995 .33099366 .73999026 .33099366 .746994 .32699586 .75 .32099916 .75 .31098939 .75 .22099304 .6819916 .1619873 .5549927 .11099243 .44499208 .09899902 .33399964 .09899902 .25 .09899902 .17199707 .10998535 .050994874 .16499329-.06201172 .22499085-.18501282 .31098939-.25 .32099916-.25 .32699586-.25 .33099366-.24700928 .33099366-.2400055Z"/>
<path id="font_3_3" d="M.20599365 .3996582H.2999878C.31999208 .3996582 .32998658 .3996582 .32998658 .41966249 .32998658 .43066407 .31999208 .43066407 .3019867 .43066407H.21398926C.25 .5724945 .25498963 .59246829 .25498963 .59846499 .25498963 .61546328 .24299622 .62545779 .22599793 .62545779 .22299195 .62545779 .19499207 .62446597 .18598938 .58947756L.14698792 .43066407H.052993776C.032989503 .43066407 .022994996 .43066407 .022994996 .4116516 .022994996 .3996582 .0309906 .3996582 .050994874 .3996582H.13899231C.066986087 .11608887 .06298828 .099121097 .06298828 .08114624 .06298828 .02722168 .100997928-.0107421879 .15499878-.0107421879 .25698854-.0107421879 .31399537 .13505554 .31399537 .14305115 .31399537 .1530304 .30599977 .1530304 .3019867 .1530304 .29299928 .1530304 .2919922 .15003968 .2869873 .13905335 .24398804 .035217287 .19099427 .011245728 .15699768 .011245728 .13598633 .011245728 .12599182 .024230957 .12599182 .057174684 .12599182 .08114624 .12799073 .088134769 .13198853 .10510254L.20599365 .3996582Z"/>
<path id="font_4_2" d="M.2889862 .25C.2889862 .32798768 .27799989 .44898988 .22299195 .56199648 .16299439 .68499758 .07699585 .75 .066986087 .75 .06098938 .75 .056991579 .74598696 .056991579 .73999026 .056991579 .7369995 .056991579 .73498538 .07598877 .71699526 .17399597 .6179962 .23098755 .45899964 .23098755 .25 .23098755 .07899475 .19400025-.09700012 .069992069-.2230072 .056991579-.23500061 .056991579-.23701477 .056991579-.2400055 .056991579-.2460022 .06098938-.25 .066986087-.25 .07699585-.25 .16699219-.18200684 .22599793-.055007936 .2769928 .054992677 .2889862 .16600037 .2889862 .25Z"/>
<path id="font_4_7" d="M.68699648 .32714845C.70199587 .32714845 .72099307 .32714845 .72099307 .34713746 .72099307 .36714173 .70199587 .36714173 .6879883 .36714173H.08898926C.07499695 .36714173 .055999757 .36714173 .055999757 .34713746 .055999757 .32714845 .07499695 .32714845 .08999634 .32714845H.68699648M.6879883 .13284302C.70199587 .13284302 .72099307 .13284302 .72099307 .15284729 .72099307 .17285156 .70199587 .17285156 .68699648 .17285156H.08999634C.07499695 .17285156 .055999757 .17285156 .055999757 .15284729 .055999757 .13284302 .07499695 .13284302 .08898926 .13284302H.6879883Z"/>
<path id="font_4_10" d="M.20799256 .19424439C.22999573 .19024658 .31199647 .17424011 .31199647 .102249149 .31199647 .051254274 .2769928 .011245728 .19898987 .011245728 .114990238 .011245728 .07899475 .06825256 .05999756 .15324402 .056991579 .1662445 .055999757 .17024231 .04598999 .17024231 .032989503 .17024231 .032989503 .16323853 .032989503 .14524842V.013244629C.032989503-.003753662 .032989503-.0107421879 .04399109-.0107421879 .04899597-.0107421879 .049987794-.009750366 .068984989 .009246826 .070999149 .011245728 .070999149 .013244629 .08898926 .03224182 .1329956-.009750366 .17799378-.0107421879 .19898987-.0107421879 .31399537-.0107421879 .3600006 .056243898 .3600006 .12825012 .3600006 .1812439 .32998658 .21124268 .31799317 .22323609 .2849884 .25523377 .24598694 .26324464 .20399475 .27124024 .147995 .28224183 .08099365 .2952423 .08099365 .35324098 .08099365 .38822938 .10699463 .42922975 .19299317 .42922975 .30299378 .42922975 .30799867 .3392334 .30999757 .3082428 .31098939 .2992401 .31999208 .2992401 .32199098 .2992401 .33499146 .2992401 .33499146 .304245 .33499146 .3232422V.4242401C.33499146 .4412384 .33499146 .4482422 .32398988 .4482422 .31900025 .4482422 .31698609 .4482422 .3039856 .43623353 .30099488 .43223573 .29100038 .42323304 .2869873 .42022706 .24899292 .4482422 .20799256 .4482422 .19299317 .4482422 .070999149 .4482422 .032989503 .38124085 .032989503 .3252411 .032989503 .29023744 .04899597 .26223756 .07598877 .24023438 .10798645 .21424866 .13598633 .2082367 .20799256 .19424439Z"/>
<path id="font_4_8" d="M.1769867 .4423828 .036987306 .43138124V.40037538C.101989749 .40037538 .11099243 .3943634 .11099243 .34532167V.076034549C.11099243 .0309906 .099990848 .0309906 .032989503 .0309906V0C.06498718 .0009918213 .11898804 .0029907227 .14299011 .0029907227 .17799378 .0029907227 .21299744 .0009918213 .24699402 0V.0309906C.18099976 .0309906 .1769867 .035995485 .1769867 .075042728V.4423828M.18099976 .6159363C.18099976 .64793398 .1559906 .6689453 .12799073 .6689453 .09700012 .6689453 .07499695 .64193728 .07499695 .6159363 .07499695 .5889435 .09700012 .5629425 .12799073 .5629425 .1559906 .5629425 .18099976 .5839386 .18099976 .6159363Z"/>
<path id="font_4_9" d="M.10998535 .34429933V.076034549C.10998535 .0309906 .09899902 .0309906 .03199768 .0309906V0C.066986087 .0009918213 .117996219 .0029907227 .14498902 .0029907227 .17098999 .0029907227 .22299195 .0009918213 .25698854 0V.0309906C.18998719 .0309906 .1789856 .0309906 .1789856 .076034549V.2602234C.1789856 .36431886 .25 .42037965 .31399537 .42037965 .3769989 .42037965 .3880005 .36631776 .3880005 .30926515V.076034549C.3880005 .0309906 .3769989 .0309906 .30999757 .0309906V0C.34498597 .0009918213 .3959961 .0029907227 .4229889 .0029907227 .44898988 .0029907227 .5009918 .0009918213 .5349884 0V.0309906C.48298646 .0309906 .45799256 .0309906 .45700074 .061019899V.25221253C.45700074 .3383026 .45700074 .36932374 .42599488 .405365 .4119873 .42237855 .3789978 .4423828 .32099916 .4423828 .24798584 .4423828 .20098877 .39935304 .17298889 .33729554V.4423828L.03199768 .43138124V.40037538C.101989749 .4003601 .10998535 .39335633 .10998535 .34429933Z"/>
<path id="font_3_4" d="M.48599244 .38136292C.48999024 .39537049 .48999024 .39736939 .48999024 .40437318 .48999024 .42237855 .47599793 .43138124 .46099855 .43138124 .45098878 .43138124 .43499757 .42536927 .42599488 .41036988 .42399598 .405365 .41600038 .37435914 .4119873 .35635377 .40499879 .33035279 .397995 .30334474 .3919983 .27633668L.34700013 .09628296C.34298707 .08126831 .2999878 .011245728 .23399353 .011245728 .18299866 .011245728 .17199707 .055267335 .17199707 .0922699 .17199707 .1382904 .18899536 .20030213 .22299195 .28833009 .23899842 .3293457 .24299622 .3403473 .24299622 .36035157 .24299622 .405365 .21099854 .4423828 .16099549 .4423828 .06599426 .4423828 .0289917 .29733277 .0289917 .28833009 .0289917 .27833558 .038986207 .27833558 .040985109 .27833558 .050994874 .27833558 .051986696 .28033448 .056991579 .29634095 .083999637 .3903656 .12399292 .42037965 .1579895 .42037965 .1659851 .42037965 .18299866 .42037965 .18299866 .3883667 .18299866 .36335755 .17298889 .3373413 .1659851 .31834413 .12599182 .21231079 .10798645 .1552887 .10798645 .10827637 .10798645 .019256592 .17098999-.0107421879 .22999573-.0107421879 .2689972-.0107421879 .30299378 .0062561037 .33099366 .03425598 .31799317-.017745972 .30599977-.06674194 .2659912-.11973572 .23999024-.15385437 .20199585-.18309021 .1559906-.18309021 .14199829-.18309021 .09700012-.18005371 .07998657-.14074707 .09599304-.14074707 .10899353-.14074707 .12298584-.1287384 .1329956-.11973572 .14299011-.10673523 .14299011-.08773804 .14299011-.056747438 .115997318-.052734376 .10598755-.052734376 .08299255-.052734376 .049987794-.068740848 .049987794-.11773682 .049987794-.16796875 .09399414-.20507813 .1559906-.20507813 .25898744-.20507813 .3619995-.11373901 .3899994-.00074768069L.48599244 .38136292Z"/>
</defs>
<path transform="matrix(1.00003,0,0,-1.00005,3.4987794,143.18349)" stroke-width=".19925" stroke-linecap="butt" stroke-miterlimit="10" stroke-linejoin="miter" fill="none" stroke="#7f807f" d="M63.8412 47.07912V51.33086M112.26924 47.07912V51.33086M160.66648 47.07912V51.33086M209.09458 47.07912V51.33086M257.5226 47.07912V51.33086M305.9507 47.07912V51.33086"/>
<path transform="matrix(1.00003,0,0,-1.00005,3.4987794,143.18349)" stroke-width=".19925" stroke-linecap="butt" stroke-miterlimit="10" stroke-linejoin="miter" fill="none" stroke="#7f807f" d="M13.28737 13.41954H17.53886M13.28737 84.99045H17.53886M13.28737 120.77591H17.53886"/>
<path transform="matrix(1.00003,0,0,-1.00005,3.4987794,143.18349)" stroke-width=".3985" stroke-linecap="butt" stroke-miterlimit="10" stroke-linejoin="miter" fill="none" stroke="#000000" d="M0 49.205H323.21754"/>
<path transform="matrix(1.00003,0,0,-1.00005,326.726,93.97603)" stroke-width=".31879" stroke-linecap="round" stroke-linejoin="round" fill="none" stroke="#000000" d="M-1.19551 1.59401C-1.09587 .99626 0 .09961 .29886 0 0-.09961-1.09587-.99626-1.19551-1.59401"/>
<path transform="matrix(1.00003,0,0,-1.00005,3.4987794,143.18349)" stroke-width=".3985" stroke-linecap="butt" stroke-miterlimit="10" stroke-linejoin="miter" fill="none" stroke="#000000" d="M15.41313 0V124.79082"/>
<path transform="matrix(0,-1.00005,-1.00003,-0,18.912373,18.386437)" stroke-width=".31879" stroke-linecap="round" stroke-linejoin="round" fill="none" stroke="#000000" d="M-1.19551 1.59401C-1.09587 .99626 0 .09961 .29886 0 0-.09961-1.09587-.99626-1.19551-1.59401"/>
<use data-text="&#x03c0;" xlink:href="#font_1_1" transform="matrix(6.9740097,0,0,-6.9741489,64.88663,102.624469)"/>
<path transform="matrix(1.00003,0,0,-1.00005,-35.092378,-23.443829)" stroke-width=".3985" stroke-linecap="butt" stroke-miterlimit="10" stroke-linejoin="miter" fill="none" stroke="#000000" d="M99.976-127.494H104.885"/>
<use data-text="2" xlink:href="#font_2_1" transform="matrix(6.9740097,0,0,-6.9741489,65.355648,109.982837)"/>
<use data-text="&#x03c0;" xlink:href="#font_3_1" transform="matrix(9.962899,0,0,-9.963098,112.75306,103.91153)"/>
<use data-text="3" xlink:href="#font_2_2" transform="matrix(6.9740097,0,0,-6.9741489,159.72948,104.11654)"/>
<use data-text="&#x03c0;" xlink:href="#font_1_1" transform="matrix(6.9740097,0,0,-6.9741489,163.70059,104.11654)"/>
<path transform="matrix(1.00003,0,0,-1.00005,59.750474,-21.951752)" stroke-width=".3985" stroke-linecap="butt" stroke-miterlimit="10" stroke-linejoin="miter" fill="none" stroke="#000000" d="M99.976-127.494H108.856"/>
<use data-text="2" xlink:href="#font_2_1" transform="matrix(6.9740097,0,0,-6.9741489,162.18454,111.474918)"/>
<use data-text="2" xlink:href="#font_4_3" transform="matrix(9.962899,0,0,-9.963098,207.0909,106.04263)"/>
<use data-text="&#x03c0;" xlink:href="#font_3_1" transform="matrix(9.962899,0,0,-9.963098,212.07205,106.04263)"/>
<use data-text="5" xlink:href="#font_2_3" transform="matrix(6.9740097,0,0,-6.9741489,256.58839,104.11654)"/>
<use data-text="&#x03c0;" xlink:href="#font_1_1" transform="matrix(6.9740097,0,0,-6.9741489,260.5595,104.11654)"/>
<path transform="matrix(1.00003,0,0,-1.00005,156.60938,-21.951752)" stroke-width=".3985" stroke-linecap="butt" stroke-miterlimit="10" stroke-linejoin="miter" fill="none" stroke="#000000" d="M99.976-127.494H108.856"/>
<use data-text="2" xlink:href="#font_2_1" transform="matrix(6.9740097,0,0,-6.9741489,259.04347,111.474918)"/>
<use data-text="3" xlink:href="#font_4_4" transform="matrix(9.962899,0,0,-9.963098,303.9498,106.04263)"/>
<use data-text="&#x03c0;" xlink:href="#font_3_1" transform="matrix(9.962899,0,0,-9.963098,308.93098,106.04263)"/>
<use data-text="&#x2212;" xlink:href="#font_5_1" transform="matrix(9.962899,0,0,-9.963098,.5356903,132.55896)"/>
<use data-text="4" xlink:href="#font_4_5" transform="matrix(9.962899,0,0,-9.963098,8.28392,132.55896)"/>
<use data-text="4" xlink:href="#font_4_5" transform="matrix(9.962899,0,0,-9.963098,8.28492,61.399408)"/>
<use data-text="8" xlink:href="#font_4_6" transform="matrix(9.962899,0,0,-9.963098,8.28492,25.61161)"/>
<g clip-path="url(#clip_6)">
<path transform="matrix(1.00003,0,0,-1.00005,3.4987794,143.18349)" stroke-width="1.59404" stroke-linecap="butt" stroke-miterlimit="10" stroke-linejoin="miter" fill="none" stroke="#0000ff" d="M15.41313 49.205C15.41313 49.205 15.93925 49.20721 16.1413 49.20998 16.34335 49.21275 16.66737 49.2194 16.86943 49.22495 17.07147 49.23047 17.39557 49.2416 17.59763 49.24988 17.79967 49.25816 18.1237 49.2737 18.32574 49.28473 18.5278 49.29576 18.85187 49.3157 19.05394 49.32947 19.256 49.34325 19.58006 49.3676 19.78212 49.3841 19.98416 49.40059 20.30821 49.42924 20.51025 49.44844 20.71231 49.46764 21.03638 49.50066 21.23843 49.52255 21.44048 49.54443 21.76451 49.58173 21.96657 49.60626 22.16861 49.6308 22.4927 49.6723 22.69475 49.6995 22.8968 49.72667 23.22083 49.7724 23.42288 49.80217 23.62492 49.83195 23.949 49.8818 24.15108 49.91415 24.35313 49.9465 24.6772 50.00046 24.87924 50.03534 25.0813 50.07024 25.40533 50.12823 25.60739 50.1656 25.80943 50.20297 26.13351 50.26488 26.33557 50.30469 26.53761 50.34451 26.86166 50.41039 27.0637 50.45262 27.26576 50.49486 27.58981 50.56453 27.79189 50.6091 27.99394 50.65367 28.31802 50.72707 28.52008 50.77393 28.72212 50.8208 29.04616 50.89784 29.2482 50.94699 29.45026 50.99614 29.77432 51.07684 29.97638 51.12819 30.17842 51.17952 30.50247 51.26358 30.70453 51.31705 30.90657 51.37051 31.23064 51.45807 31.4327 51.51363 31.63477 51.5692 31.95883 51.66 32.16089 51.71758 32.36293 51.77515 32.68697 51.86905 32.88902 51.92857 33.09106 51.98808 33.41516 52.08516 33.6172 52.14655 33.81926 52.20793 34.14328 52.30788 34.34534 52.37108 34.54738 52.4343 34.87146 52.53717 35.07353 52.60213 35.27559 52.66708 35.59966 52.7727 35.8017 52.83931 36.00375 52.9059 36.32777 53.01405 36.52983 53.08223 36.73187 53.1504 37.05597 53.26103 37.25803 53.33073 37.46007 53.40044 37.7841 53.51349 37.98615 53.58461 38.1882 53.65573 38.51228 53.77089 38.71434 53.84335 38.91638 53.9158 39.24042 54.03313 39.44247 54.10686 39.64452 54.18059 39.9686 54.29988 40.17065 54.37474 40.37273 54.44962 40.69678 54.5706 40.89883 54.64655 41.10088 54.72249 41.42493 54.84525 41.62698 54.92221 41.82903 54.99919 42.1531 55.12346 42.35515 55.20128 42.5572 55.2791 42.88123 55.40453 43.08328 55.48317 43.28532 55.56181 43.6094 55.68875 43.81148 55.76813 44.01353 55.84752 44.3376 55.9754 44.53964 56.05536 44.7417 56.1353 45.06573 56.26392 45.26779 56.34436 45.46983 56.4248 45.79391 56.55434 45.99597 56.63521 46.19801 56.71608 46.52206 56.84615 46.7241 56.92734 46.92616 57.00853 47.25021 57.13902 47.45229 57.22047 47.65434 57.30191 47.97842 57.43285 48.18048 57.51439 48.38252 57.59593 48.70656 57.72668 48.9086 57.8082 49.11066 57.88971 49.43474 58.02043 49.6368 58.1019 49.83884 58.18336 50.16287 58.31412 50.36493 58.39536 50.56697 58.4766 50.89104 58.60657 51.0931 58.68747 51.29517 58.76837 51.61923 58.89795 51.82129 58.97853 52.02333 59.05911 52.34737 59.18828 52.54942 59.2683 52.75146 59.34831 53.07556 59.4759 53.2776 59.5553 53.47966 59.63467 53.80368 59.76178 54.00574 59.84047 54.20778 59.91916 54.53188 60.04471 54.73393 60.12251 54.93597 60.20032 55.26001 60.32434 55.46205 60.40128 55.66411 60.4782 55.98817 60.60103 56.19025 60.67691 56.3923 60.75279 56.71637 60.8736 56.91843 60.94827 57.12047 61.02293 57.4445 61.14172 57.64655 61.2152 57.8486 61.28867 58.17268 61.40578 58.37474 61.47789 58.57678 61.54999 58.90082 61.66435 59.10287 61.73495 59.30492 61.80556 59.629 61.91765 59.83105 61.98672 60.03313 62.0558 60.35718 62.16542 60.55923 62.23282 60.76128 62.3002 61.08533 62.4069 61.28737 62.47249 61.48943 62.53807 61.8135 62.64175 62.01555 62.70555 62.2176 62.76936 62.54164 62.87062 62.7437 62.93243 62.94574 62.99423 63.2698 63.0915 63.47186 63.15115 63.67393 63.2108 63.998 63.3049 64.20004 63.36246 64.4021 63.42001 64.72614 63.51082 64.92819 63.566 65.13023 63.62119 65.45432 63.70747 65.65636 63.76028 65.85841 63.8131 66.18246 63.89621 66.3845 63.94666 66.58656 63.99712 66.91063 64.07611 67.11269 64.12396 67.31473 64.1718 67.63878 64.24629 67.84082 64.29147 68.04288 64.33665 68.36694 64.40714 68.569 64.44963 68.77107 64.49213 69.09514 64.55817 69.2972 64.59781 69.49924 64.63744 69.82327 64.69858 70.02531 64.73528 70.22737 64.77197 70.55145 64.82864 70.7535 64.86237 70.95555 64.89609 71.27959 64.94778 71.48164 64.9784 71.68369 65.00899 72.00775 65.05554 72.20981 65.08302 72.41188 65.1105 72.73596 65.1523 72.938 65.17657 73.14006 65.20085 73.46408 65.23712 73.66614 65.25803 73.86818 65.27893 74.19228 65.30966 74.39432 65.32724 74.59637 65.34482 74.92041 65.37064 75.12245 65.38469 75.32451 65.39874 75.64857 65.41808 75.85065 65.42853 76.0527 65.439 76.37677 65.45314 76.57881 65.46016 76.78087 65.46716 77.1049 65.47578 77.30695 65.47906 77.509 65.48235 77.83308 65.48439 78.03514 65.48389 78.23718 65.48338 78.56122 65.47949 78.76326 65.47534 78.96532 65.47119 79.2894 65.46194 79.49146 65.45389 79.69353 65.44583 80.01758 65.42912 80.21964 65.41718 80.42168 65.40523 80.74573 65.38348 80.94777 65.36766 81.14983 65.35184 81.4739 65.32294 81.67595 65.30302 81.878 65.28311 82.20204 65.24792 82.4041 65.22406 82.60614 65.20021 82.93022 65.15901 83.13226 65.1311 83.33432 65.1032 83.65836 65.055 83.8604 65.02286 84.06245 64.99072 84.38652 64.93562 84.5886 64.89943 84.79065 64.86324 85.11472 64.80234 85.31676 64.76195 85.51881 64.72154 85.84286 64.65295 86.0449 64.6083 86.24696 64.56366 86.57103 64.48877 86.77309 64.4401 86.97513 64.39142 87.29918 64.31046 87.50122 64.25746 87.70328 64.20447 88.02734 64.11546 88.2294 64.05807 88.43147 64.00069 88.75558 63.9053 88.95764 63.84377 89.15968 63.78223 89.48367 63.68039 89.68571 63.6145 89.88777 63.5486 90.21187 63.43896 90.41391 63.36876 90.61597 63.29855 90.93994 63.18285 91.142 63.10844 91.34404 63.03406 91.66815 62.91133 91.87021 62.83253 92.07228 62.75374 92.39636 62.6236 92.5984 62.54053 92.80046 62.45744 93.12448 62.32104 93.32654 62.23376 93.52858 62.14647 93.85268 62.00296 94.05472 61.91139 94.25677 61.81981 94.58076 61.66953 94.7828 61.57364 94.98486 61.47777 95.30898 61.32053 95.51105 61.22035 95.7131 61.12016 96.03717 60.95592 96.23921 60.85152 96.44127 60.74713 96.76532 60.57632 96.96736 60.46791 97.16942 60.35951 97.49348 60.18282 97.69554 60.07011 97.89758 59.9574 98.22157 59.77245 98.42361 59.65552 98.62567 59.5386 98.9498 59.3482 99.15186 59.22737 99.35393 59.10654 99.67798 58.90953 99.88004 58.78452 100.08208 58.65952 100.40613 58.45532 100.60817 58.32637 100.81023 58.1974 101.13431 57.98785 101.33635 57.85498 101.5384 57.72212 101.8624 57.50563 102.06445 57.36873 102.2665 57.23184 102.5906 57.00903 102.79266 56.86829 102.99474 56.72752 103.3188 56.49875 103.52086 56.35426 103.72292 56.20976 104.04694 55.97507 104.249 55.8268 104.45103 55.67853 104.77513 55.43753 104.97717 55.28557 105.17923 55.13362 105.50322 54.88701 105.70526 54.7315 105.90732 54.576 106.23141 54.32387 106.43349 54.16483 106.63554 54.00578 106.95963 53.74763 107.16167 53.58516 107.36372 53.42268 107.68771 53.15958 107.88976 52.99377 108.09181 52.82796 108.41594 52.55928 108.618 52.3901 108.82004 52.22092 109.14403 51.9467 109.34607 51.77434 109.54813 51.60199 109.87224 51.3233 110.07431 51.14784 110.27638 50.97238 110.60043 50.68817 110.80249 50.50972 111.00453 50.33127 111.32852 50.0429 111.53056 49.86165 111.73262 49.68039 112.05675 49.3874 112.2588 49.20331 112.46086 49.01921 112.78484 48.72159 112.9869 48.53471 113.18893 48.34784 113.51306 48.04596 113.71512 47.85641 113.91719 47.66685 114.24124 47.36049 114.4433 47.16844 114.64534 46.9764 114.96935 46.6666 115.1714 46.47223 115.37344 46.27786 115.69757 45.96425 115.89961 45.76753 116.10167 45.57083 116.42566 45.25327 116.62772 45.05438 116.82977 44.8555 117.15387 44.53493 117.35594 44.334 117.558 44.13306 117.88208 43.80896 118.08412 43.60612 118.28618 43.40329 118.61015 43.07663 118.81221 42.87202 119.01425 42.66742 119.33838 42.33774 119.54044 42.13145 119.74248 41.92517 120.06648 41.5929 120.26852 41.38513 120.47058 41.17737 120.79468 40.84322 120.99675 40.63402 121.1988 40.42482 121.52289 40.08784 121.72495 39.8773 121.92699 39.66678 122.25098 39.32816 122.45302 39.11662 122.65508 38.9051 122.9792 38.5653 123.18126 38.35272 123.3833 38.14015 123.70729 37.79797 123.90935 37.58447 124.11139 37.37096 124.43552 37.02795 124.63757 36.81384 124.83965 36.59975 125.1637 36.25595 125.36575 36.04135 125.5678 35.82674 125.89178 35.48228 126.09384 35.26709 126.29588 35.0519 126.62003 34.70566 126.82207 34.49025 127.02412 34.27486 127.3481 33.93004 127.55016 33.71455 127.7522 33.49908 128.07628 33.15277 128.27835 32.93724 128.48041 32.72171 128.80452 32.37625 129.00656 32.16107 129.20862 31.94589 129.53261 31.60106 129.73467 31.38628 129.9367 31.17148 130.26084 30.82744 130.46289 30.61298 130.66493 30.39851 130.98892 30.05428 131.19097 29.84044 131.39302 29.62662 131.71709 29.28476 131.91916 29.07181 132.12122 28.85887 132.44535 28.51755 132.6474 28.30565 132.84944 28.09375 133.17343 27.75531 133.37548 27.54457 133.57753 27.33382 133.90164 26.99632 134.1037 26.78668 134.30574 26.57704 134.62975 26.24171 134.8318 26.03365 135.03385 25.82558 135.35791 25.49347 135.55997 25.28702 135.76204 25.08058 136.08615 24.75053 136.28821 24.54568 136.49025 24.34084 136.81424 24.01343 137.0163 23.81061 137.21834 23.60779 137.54244 23.28441 137.74448 23.08376 137.94654 22.8831 138.27056 22.56287 138.47261 22.36435 138.67465 22.16585 138.99872 21.84903 139.20079 21.65298 139.40285 21.45694 139.72698 21.14484 139.92902 20.95139 140.13108 20.75795 140.45505 20.44952 140.6571 20.25876 140.85915 20.068 141.18325 19.76424 141.3853 19.57643 141.58734 19.38863 141.91138 19.08987 142.11342 18.90509 142.31548 18.72032 142.63954 18.42636 142.84162 18.24464 143.04367 18.06294 143.36779 17.77362 143.56984 17.59535 143.77188 17.4171 144.09589 17.13458 144.29793 16.95981 144.49999 16.78503 144.82405 16.5068 145.02611 16.33565 145.22815 16.16449 145.55219 15.89331 145.75424 15.72618 145.95629 15.55905 146.28037 15.2944 146.48242 15.131 146.6845 14.96759 147.0086 14.7077 147.21067 14.54845 147.4127 14.38919 147.7367 14.13797 147.93875 13.98317 148.1408 13.82837 148.46488 13.58327 148.66692 13.43268 148.86898 13.28209 149.19301 13.04366 149.39507 12.89775 149.5971 12.75183 149.92118 12.52222 150.12325 12.38101 150.3253 12.23982 150.64943 12.01662 150.85147 11.88008 151.05353 11.74353 151.3775 11.52818 151.57956 11.39687 151.7816 11.26555 152.1057 11.0599 152.30776 10.93365 152.5098 10.8074 152.83379 10.60802 153.03583 10.48686 153.23789 10.3657 153.56197 10.17589 153.76406 10.06036 153.96613 9.94482 154.29024 9.76434 154.4923 9.6541 154.69434 9.54385 155.01833 9.37029 155.22037 9.26569 155.42243 9.1611 155.7465 8.99884 155.94857 8.90022 156.1506 8.8016 156.4746 8.64795 156.67665 8.55489 156.8787 8.46184 157.20282 8.31648 157.40488 8.22954 157.60695 8.1426 157.931 8.00888 158.13306 7.92828 158.3351 7.84769 158.65915 7.72327 158.8612 7.64857 159.06325 7.5739 159.38733 7.45837 159.58937 7.38994 159.79143 7.32149 160.1154 7.2171 160.31746 7.15521 160.5195 7.09332 160.84363 6.99922 161.0457 6.9439 161.24776 6.88855 161.57183 6.80493 161.77387 6.75638 161.97592 6.70782 162.29996 6.63565 162.50202 6.59386 162.70406 6.55205 163.02814 6.4903 163.23018 6.45499 163.43224 6.41966 163.75624 6.36763 163.95829 6.33925 164.16034 6.31087 164.48444 6.27158 164.68651 6.25041 164.88857 6.22925 165.21265 6.20102 165.41469 6.18669 165.61675 6.17238 165.94078 6.15424 166.14282 6.14717 166.34488 6.1401 166.66895 6.13547 166.871 6.13565 167.07305 6.13583 167.39705 6.14148 167.59909 6.14856 167.80115 6.15562 168.12526 6.17195 168.32732 6.1866 168.52939 6.20126 168.85346 6.23222 169.05551 6.2542 169.25756 6.27615 169.58159 6.31573 169.78363 6.34499 169.98569 6.37422 170.30979 6.42809 170.51183 6.4651 170.71389 6.50212 171.03786 6.56749 171.23992 6.61179 171.44196 6.65608 171.76609 6.73248 171.96814 6.7844 172.17021 6.8363 172.49428 6.92645 172.69632 6.98604 172.89838 7.04561 173.2224 7.14697 173.42446 7.21387 173.6265 7.28075 173.95059 7.39342 174.15264 7.46812 174.35469 7.54285 174.67868 7.66995 174.88072 7.75247 175.08278 7.83499 175.40689 7.97307 175.60897 8.06296 175.81102 8.15285 176.13509 8.30273 176.33713 8.40042 176.53919 8.49811 176.86319 8.66168 177.06523 8.76703 177.26729 8.87239 177.5914 9.04701 177.79346 9.1598 177.9955 9.27261 178.31949 9.45932 178.52153 9.58002 178.72359 9.70073 179.04772 9.90155 179.24977 10.02979 179.45185 10.15802 179.77591 10.36853 179.97797 10.50426 180.18001 10.63998 180.504 10.86426 180.70604 11.008 180.9081 11.15172 181.23223 11.3891 181.43427 11.54027 181.63632 11.69144 181.96031 11.93904 182.16237 12.09761 182.36441 12.25616 182.68852 12.51695 182.89058 12.68309 183.09265 12.84924 183.41674 13.12178 183.61878 13.2951 183.82083 13.46844 184.1448 13.75145 184.34687 13.93245 184.5489 14.11346 184.87305 14.41113 185.07509 14.59975 185.27715 14.78836 185.60114 15.09628 185.80318 15.29189 186.00524 15.48749 186.32935 15.8067 186.53142 16.00958 186.73348 16.21245 187.05754 16.54393 187.25959 16.75406 187.46164 16.9642 187.78563 17.30699 187.98767 17.52411 188.18973 17.74121 188.51386 18.0948 188.71591 18.31888 188.91796 18.54295 189.24195 18.90813 189.44399 19.13916 189.64604 19.37021 189.97017 19.74611 190.17223 19.9841 190.3743 20.22209 190.69835 20.6098 190.9004 20.85445 191.10245 21.09909 191.42646 21.49623 191.6285 21.74736 191.83055 21.9985 192.15468 22.40672 192.35672 22.66455 192.55878 22.92238 192.88275 23.34126 193.08481 23.60568 193.28685 23.8701 193.61093 24.3 193.81299 24.57043 194.01506 24.84087 194.33919 25.27821 194.54123 25.55484 194.74329 25.83147 195.06726 26.28123 195.26932 26.56425 195.47136 26.84726 195.79549 27.30595 195.99753 27.59467 196.19959 27.88339 196.52359 28.35057 196.72563 28.64517 196.92769 28.93977 197.25174 29.41772 197.45381 29.71803 197.65587 30.01836 197.98 30.50415 198.18204 30.8097 198.3841 31.11523 198.70809 31.60913 198.91013 31.92024 199.11219 32.23135 199.43631 32.73555 199.63837 33.05196 199.84041 33.36835 200.1644 33.87932 200.36644 34.20067 200.5685 34.52203 200.89257 35.04169 201.09462 35.36809 201.29669 35.69449 201.6208 36.22229 201.82286 36.55325 202.0249 36.88422 202.34889 37.41805 202.55094 37.75352 202.75299 38.089 203.07714 38.63109 203.27918 38.97116 203.48123 39.31123 203.8052 39.86044 204.00727 40.2046 204.2093 40.54877 204.53339 41.1036 204.73545 41.4517 204.93752 41.79982 205.26161 42.36156 205.46367 42.71364 205.66573 43.06573 205.98972 43.6336 206.19178 43.98936 206.39382 44.34512 206.71794 44.91864 206.91999 45.27777 207.12204 45.6369 207.44603 46.2153 207.64807 46.57782 207.85013 46.94034 208.1742 47.52519 208.37627 47.89064 208.57833 48.25607 208.90244 48.8436 209.10448 49.21173 209.30654 49.57986 209.63053 50.17297 209.83258 50.54395 210.03464 50.91492 210.3587 51.51196 210.56076 51.88554 210.7628 52.25914 211.08686 52.8606 211.2889 53.23656 211.49095 53.61252 211.815 54.21725 212.01708 54.59526 212.21915 54.97328 212.54326 55.5815 212.74532 55.96107 212.94736 56.34065 213.27135 56.95009 213.47339 57.33104 213.67545 57.712 213.99951 58.3243 214.20157 58.70688 214.40363 59.08948 214.72766 59.70474 214.92972 60.08853 215.13176 60.47232 215.45583 61.08836 215.65789 61.47302 215.85996 61.85768 216.18407 62.47554 216.38613 62.86089 216.58817 63.24623 216.91216 63.86453 217.11421 64.25029 217.31626 64.63603 217.64035 65.25502 217.84239 65.64114 218.04445 66.02728 218.36847 66.647 218.57053 67.03334 218.77259 67.4197 219.09665 68.0398 219.29872 68.42564 219.50078 68.81151 219.82489 69.4292 220.02693 69.81438 220.22899 70.19955 220.55297 70.81714 220.75502 71.20175 220.95706 71.58638 221.28116 72.2029 221.48322 72.58652 221.68526 72.97014 222.0093 73.5842 222.21134 73.96669 222.41339 74.3492 222.73746 74.96219 222.93953 75.34337 223.14159 75.72455 223.4657 76.33469 223.66776 76.71399 223.8698 77.09329 224.1938 77.6997 224.39585 78.07716 224.5979 78.45464 224.92197 79.05923 225.12403 79.43457 225.32607 79.8099 225.65007 80.40955 225.85213 80.78236 226.05417 81.15518 226.37827 81.75119 226.58034 82.12161 226.78243 82.49203 227.10652 83.08469 227.30858 83.45215 227.51062 83.81961 227.83461 84.40585 228.03667 84.77002 228.23871 85.1342 228.56279 85.71602 228.76483 86.07695 228.96689 86.4379 229.29088 87.01408 229.49294 87.37144 229.69498 87.72882 230.01909 88.29922 230.22116 88.65271 230.42322 89.00621 230.7473 89.56981 230.94934 89.91927 231.1514 90.26874 231.47542 90.82648 231.67748 91.17151 231.87952 91.51653 232.20362 92.06573 232.40567 92.40607 232.60771 92.74641 232.9317 93.28877 233.13375 93.62456 233.3358 93.96033 233.65991 94.49556 233.86199 94.82617 234.06404 95.15678 234.3881 95.68199 234.59017 96.00745 234.7922 96.3329 235.11624 96.85187 235.31829 97.17194 235.52034 97.492 235.84442 98.00024 236.04648 98.3143 236.24852 98.62836 236.57251 99.12717 236.77457 99.43552 236.97661 99.74385 237.30074 100.23427 237.50279 100.53664 237.70487 100.839 238.02892 101.3192 238.23097 101.61479 238.43302 101.91037 238.75707 102.378 238.95912 102.6671 239.16117 102.95619 239.48525 103.41594 239.68729 103.69847 239.88935 103.98099 240.21332 104.42824 240.41538 104.70337 240.61742 104.97852 240.94155 105.41344 241.14362 105.68158 241.34568 105.94972 241.66976 106.37523 241.8718 106.636 242.07386 106.89677 242.39788 107.30832 242.59993 107.56111 242.80197 107.81389 243.12606 108.21255 243.32811 108.45789 243.53015 108.70322 243.85416 109.09209 244.0562 109.32932 244.25826 109.56656 244.58235 109.93922 244.78443 110.16785 244.98648 110.39647 245.31056 110.75656 245.51262 110.9771 245.71466 111.19763 246.03865 111.54547 246.24069 111.75739 246.44275 111.9693 246.76688 112.30144 246.96894 112.50444 247.17098 112.70744 247.49497 113.02635 247.69702 113.22054 247.89907 113.41473 248.22319 113.71916 248.42525 113.90407 248.62732 114.08897 248.95137 114.37766 249.15343 114.55328 249.35547 114.72891 249.67946 115.00374 249.88152 115.16989 250.08356 115.33604 250.4077 115.59439 250.60974 115.75089 250.8118 115.90736 251.13578 116.15065 251.33783 116.29787 251.53987 116.44508 251.864 116.67488 252.06607 116.81197 252.26813 116.94904 252.5922 117.15945 252.79424 117.28592 252.99629 117.41238 253.32028 117.60666 253.52234 117.72346 253.72438 117.84026 254.04851 118.02124 254.25057 118.1278 254.4526 118.23438 254.7766 118.39581 254.97864 118.49156 255.1807 118.5873 255.5048 118.73224 255.70688 118.81795 255.90894 118.90366 256.233 119.03436 256.43507 119.10933 256.6371 119.18431 256.9611 119.29453 257.16316 119.35838 257.3652 119.42226 257.68934 119.51657 257.89137 119.56972 258.0934 119.62286 258.41743 119.69955 258.61949 119.74147 258.82154 119.7834 259.14564 119.84117 259.3477 119.87198 259.54978 119.9028 259.87385 119.94354 260.07588 119.96362 260.27793 119.9837 260.6019 120.00813 260.80397 120.01682 261.006 120.0255 261.33015 120.02905 261.5322 120.02625 261.73426 120.02342 262.05824 120.0101 262.26029 119.99648 262.46235 119.98285 262.78645 119.95331 262.9885 119.92798 263.19059 119.90265 263.51466 119.8509 263.71669 119.81387 263.91877 119.77684 264.2427 119.70912 264.4448 119.661 264.64683 119.61287 264.97096 119.52682 265.173 119.4669 265.37507 119.40697 265.69905 119.30042 265.9011 119.229 266.10316 119.15758 266.42723 119.03499 266.6293 118.9521 266.83134 118.8692 267.15547 118.72627 267.3575 118.63148 267.55958 118.5367 267.88356 118.37509 268.0856 118.26895 268.28767 118.16281 268.61177 117.98434 268.81385 117.86644 269.01588 117.74852 269.33988 117.54898 269.5419 117.41911 269.74397 117.28925 270.06806 117.07138 270.2701 116.9304 270.47218 116.78941 270.79627 116.55566 270.99833 116.40294 271.20036 116.25021 271.52439 115.99419 271.7264 115.82965 271.92848 115.66513 272.2526 115.39244 272.45466 115.21703 272.6567 115.04163 272.98069 114.75269 273.18275 114.56538 273.38478 114.37808 273.70887 114.066 273.9109 113.86703 274.11299 113.66808 274.4371 113.34125 274.63914 113.13136 274.8412 112.9215 275.1652 112.57579 275.36723 112.3543 275.56929 112.13278 275.89344 111.7675 276.09547 111.5348 276.29753 111.30211 276.6215 110.92097 276.82356 110.67711 277.0256 110.43326 277.34968 110.03249 277.55174 109.77719 277.75379 109.52188 278.0779 109.10287 278.27995 108.83698 278.48204 108.57108 278.806 108.13742 279.00804 107.86076 279.2101 107.5841 279.53425 107.1309 279.73628 106.84299 279.93833 106.55508 280.2623 106.08368 280.46437 105.7856 280.6664 105.48752 280.9905 105.00351 281.19255 104.69456 281.39463 104.3856 281.71873 103.8785 281.92079 103.5588 282.12284 103.2391 282.4468 102.71991 282.64888 102.39038 282.8509 102.06085 283.17506 101.52367 283.37709 101.18369 283.57917 100.84372 283.9031 100.29007 284.1052 99.94002 284.30723 99.58997 284.6313 99.02045 284.83338 98.66069 285.03544 98.30093 285.35954 97.7167 285.56159 97.34706 285.76365 96.97743 286.08763 96.37566 286.2897 95.99652 286.49174 95.61739 286.81587 95.00278 287.0179 94.6144 287.21998 94.22601 287.54396 93.59506 287.746 93.19728 287.94807 92.79951 288.27214 92.15399 288.47419 91.7474 288.67625 91.34084 289.00038 90.68234 289.20243 90.26692 289.40446 89.8515 289.72846 89.17757 289.9305 88.75323 290.13255 88.3289 290.45664 87.6411 290.6587 87.20859 290.86073 86.77608 291.18479 86.07669 291.3868 85.63597 291.58888 85.19525 291.91294 84.48106 292.115 84.03207 292.31706 83.58308 292.64118 82.85643 292.84324 82.3999 293.04527 81.94337 293.36927 81.2059 293.5713 80.7417 293.77336 80.2775 294.09748 79.52574 294.2995 79.05414 294.50157 78.58255 294.8256 77.82095 295.02763 77.34273 295.22969 76.8645 295.55378 76.09282 295.7558 75.60736 295.9579 75.1219 296.282 74.336 296.48405 73.84383 296.6861 73.35167 297.01008 72.55838 297.21214 72.06017 297.41419 71.56195 297.73829 70.75731 297.9403 70.25304 298.14237 69.74875 298.4664 68.93562 298.66844 68.42558 298.8705 67.91554 299.19456 67.09253 299.39665 66.57692 299.5987 66.06131 299.9228 65.2304 300.12486 64.70944 300.3269 64.1885 300.6509 63.3482 300.85295 62.82224 301.05503 62.29625 301.37907 61.44923 301.58113 60.91856 301.78318 60.3879 302.1072 59.53255 302.30928 58.99751 302.51133 58.46248 302.8354 57.60133 303.03746 57.0624 303.23954 56.52345 303.56364 55.65627 303.7657 55.11317 303.96775 54.57008 304.29173 53.69492 304.49378 53.14813 304.69584 52.60135 305.0199 51.7217 305.22196 51.17227 305.424 50.62283 305.95005 49.18813 305.95005 49.18813"/>
<use data-text="f" xlink:href="#font_3_2" transform="matrix(9.962899,0,0,-9.963098,176.56798,33.839029)"/>
<use data-text="(" xlink:href="#font_4_1" transform="matrix(9.962899,0,0,-9.963098,182.51715,33.839029)"/>
<use data-text="t" xlink:href="#font_3_3" transform="matrix(9.962899,0,0,-9.963098,186.39228,33.839029)"/>
<use data-text=")" xlink:href="#font_4_2" transform="matrix(9.962899,0,0,-9.963098,189.98938,33.839029)"/>
<use data-text="=" xlink:href="#font_4_7" transform="matrix(9.962899,0,0,-9.963098,196.61472,33.839029)"/>
<use data-text="t" xlink:href="#font_3_3" transform="matrix(9.962899,0,0,-9.963098,207.1479,33.839029)"/>
<use data-text="s" xlink:href="#font_4_10" transform="matrix(9.962899,0,0,-9.963098,212.40605,33.839029)"/>
<use data-text="i" xlink:href="#font_4_8" transform="matrix(9.962899,0,0,-9.963098,216.33144,33.839029)"/>
<use data-text="n" xlink:href="#font_4_9" transform="matrix(9.962899,0,0,-9.963098,219.09116,33.839029)"/>
<use data-text="(" xlink:href="#font_4_1" transform="matrix(9.962899,0,0,-9.963098,224.62056,33.839029)"/>
<use data-text="t" xlink:href="#font_3_3" transform="matrix(9.962899,0,0,-9.963098,228.51354,33.839029)"/>
<use data-text=")" xlink:href="#font_4_2" transform="matrix(9.962899,0,0,-9.963098,232.11064,33.839029)"/>
</g>
<use data-text="t" xlink:href="#font_3_3" transform="matrix(9.962899,0,0,-9.963098,346.8891,97.040187)"/>
<use data-text="y" xlink:href="#font_3_4" transform="matrix(9.962899,0,0,-9.963098,16.29116,6.207657)"/>
</svg>
