<svg xmlns="http://www.w3.org/2000/svg" xmlns:xlink="http://www.w3.org/1999/xlink" xmlns:inkscape="http://www.inkscape.org/namespaces/inkscape" version="1.1" width="241" height="152" viewBox="0 0 241 152">
<defs>
<path id="font_1_7" d="M.5019989 .38536073C.5029907 .3903656 .5049896 .39637757 .5049896 .40237428 .5049896 .41537477 .49598695 .43138124 .47399903 .43138124 .46099855 .43138124 .44299317 .42337037 .43499757 .40437318 .43399049 .40037538 .42399598 .35935975 .41799928 .33735658L.36799623 .13728333C.3600006 .10827637 .3600006 .106277469 .35798646 .09727478 .35699464 .09327698 .31498719 .014251709 .24299622 .014251709 .18099976 .014251709 .18099976 .07727051 .18099976 .09628296 .18099976 .14129639 .19400025 .19030762 .23699951 .30233766 .24499512 .3253479 .25099183 .33935548 .25099183 .35835267 .25099183 .40737916 .21398926 .4423828 .16499329 .4423828 .068984989 .4423828 .0289917 .30033876 .0289917 .28833009 .0289917 .2793274 .035995485 .27633668 .042999269 .27633668 .053985597 .27633668 .054992677 .28233338 .05899048 .29533387 .07998657 .3693695 .11999512 .41737367 .1619873 .41737367 .18598938 .41737367 .18598938 .39837647 .18598938 .3843689 .18598938 .36735536 .18199158 .34934999 .17298889 .3253479 .12599182 .2013092 .11299133 .15930176 .11299133 .11128235 .11299133 .00024414063 .20298767-.0107421879 .23999024-.0107421879 .2889862-.0107421879 .32398988 .01524353 .34199525 .0332489 .32899476-.017745972 .31799317-.0627594 .2789917-.11276245 .24899292-.15286255 .20899964-.18008423 .16499329-.18008423 .13699341-.18008423 .10398865-.16999817 .08999634-.14176941 .14299011-.14176941 .1499939-.09776306 .1499939-.087768558 .1499939-.06576538 .13398743-.051757814 .11199951-.051757814 .08799744-.051757814 .055999757-.07077026 .055999757-.116760257 .055999757-.16899109 .101989749-.20507813 .16499329-.20507813 .2669983-.20507813 .37599183-.117767337 .40499879-.00074768069L.5019989 .38536073Z"/>
<path id="font_2_3" d="M.70799258 .3310089C.7220001 .3310089 .7409973 .3310089 .7409973 .35202027 .7409973 .37402345 .71899417 .37402345 .70399478 .37402345H.09399414C.07899475 .37402345 .056991579 .37402345 .056991579 .35202027 .056991579 .3310089 .07699585 .3310089 .08999634 .3310089H.70799258M.70399478 .12695313C.71899417 .12695313 .7409973 .12695313 .7409973 .14894104 .7409973 .1699524 .7220001 .1699524 .70799258 .1699524H.08999634C.07699585 .1699524 .056991579 .1699524 .056991579 .14894104 .056991579 .12695313 .07899475 .12695313 .09399414 .12695313H.70399478Z"/>
<path id="font_1_4" d="M.37399293 .3996582H.46398927C.48399354 .3996582 .49398805 .3996582 .49398805 .41766358 .49398805 .43066407 .48399354 .43066407 .46499635 .43066407H.37998963C.3909912 .49082948 .40499879 .5730438 .41799928 .62705996 .4269867 .6660614 .45098878 .68006899 .47099305 .68006899 .47698976 .68006899 .5 .67807009 .5169983 .6660614 .49699403 .66204836 .46798707 .6440582 .46798707 .61105349 .46798707 .5860596 .4869995 .575058 .5059967 .575058 .5329895 .575058 .5609894 .59706118 .5609894 .63505557 .5609894 .68006899 .5169983 .7050781 .46998597 .7050781 .4249878 .7050781 .37998963 .6730652 .35899354 .63204959 .33699037 .5890503 .32998658 .5499878 .30899049 .43066407H.23699951C.21798706 .43066407 .20599365 .43066407 .20599365 .4126587 .20599365 .3996582 .21699524 .3996582 .23498535 .3996582H.30299378C.2749939 .25474549 .23999024 .054855348 .21798706-.049087526 .20599365-.10406494 .18998719-.18008423 .14199829-.18008423 .1269989-.18008423 .10699463-.17407227 .09700012-.16607666 .12199402-.1620636 .14698792-.1410675 .14698792-.111068729 .14698792-.08607483 .12799073-.07507324 .10899353-.07507324 .08198547-.07507324 .053985597-.097076419 .053985597-.1350708 .053985597-.18109131 .099990848-.20507813 .14199829-.20507813 .24398804-.20507813 .29100038-.039093019 .30699159 .04685974L.37399293 .3996582Z"/>
<path id="font_2_1" d="M.34098817-.23803711C.34098817-.23303223 .33799745-.23002625 .33198548-.22303772 .20298767-.105026248 .1639862 .07498169 .1639862 .24996948 .1639862 .40498353 .19400025 .59298709 .33499146 .72698977 .33898927 .73098757 .34098817 .73399356 .34098817 .7389984 .34098817 .74598696 .33599855 .75 .32899476 .75 .31698609 .75 .22698975 .6779785 .17298889 .568985 .125 .47297669 .100997928 .36997987 .100997928 .25097657 .100997928 .17897034 .10998535 .064971927 .16499329-.053024293 .22399903-.17602539 .31698609-.24902344 .32899476-.24902344 .33599855-.24902344 .34098817-.24502564 .34098817-.23803711Z"/>
<path id="font_1_6" d="M.49198915 .40434266C.45498658 .39733888 .44400025 .3653412 .44400025 .3503418 .44400025 .33132936 .45799256 .31433106 .48298646 .31433106 .5109863 .31433106 .5379944 .33833314 .5379944 .3733368 .5379944 .41937257 .48799134 .4423828 .44099427 .4423828 .3809967 .4423828 .34599305 .38934327 .33399964 .3683319 .31498719 .41737367 .2709961 .4423828 .22299195 .4423828 .115997318 .4423828 .057998659 .31433106 .057998659 .28833009 .057998659 .2793274 .06498718 .2763214 .07199097 .2763214 .08099365 .2763214 .083999637 .2813263 .085998538 .287323 .116989139 .38633729 .18299866 .41737367 .22099304 .41737367 .25 .41737367 .27598573 .3983307 .27598573 .35133363 .27598573 .31533814 .23298645 .15530396 .21998596 .107284549 .21199036 .076293949 .18199158 .014251709 .1269989 .014251709 .10699463 .014251709 .085998538 .021270752 .07598877 .027282715 .102996829 .032287599 .12298584 .055282594 .12298584 .08128357 .12298584 .106292728 .10398865 .11729431 .084991458 .11729431 .055999757 .11729431 .02999878 .092285159 .02999878 .058288576 .02999878 .009246826 .083999637-.0107421879 .12599182-.0107421879 .18399048-.0107421879 .21798706 .03729248 .23298645 .06428528 .2579956-.0017547608 .31698609-.0107421879 .34399415-.0107421879 .45199586-.0107421879 .5089874 .11929321 .5089874 .14329529 .5089874 .14830017 .5059967 .15530396 .49598695 .15530396 .4850006 .15530396 .48399354 .1512909 .47898866 .1362915 .45700074 .06428528 .39898683 .014251709 .34700013 .014251709 .31799317 .014251709 .29100038 .032287599 .29100038 .08029175 .29100038 .10229492 .30499269 .15730286 .31399537 .1953125 .31799317 .21331787 .34498597 .32133485 .34700013 .32833863 .35899354 .3643341 .3889923 .41737367 .43998719 .41737367 .45799256 .41737367 .47698976 .41436769 .49198915 .40434266Z"/>
<path id="font_2_2" d="M.2979889 .25097657C.2979889 .3329773 .28599549 .4429779 .23399353 .5539856 .1749878 .6769867 .08198547 .75 .069992069 .75 .05999756 .75 .057998659 .74198916 .057998659 .7389984 .057998659 .73399356 .05999756 .73098757 .066986087 .72398379 .125 .6719818 .23498535 .5359802 .23498535 .25097657 .23498535 .10797119 .20899964-.091033939 .06399536-.22602844 .06199646-.22903443 .057998659-.23303223 .057998659-.23803711 .057998659-.24102783 .05999756-.24902344 .069992069-.24902344 .08198547-.24902344 .17199707-.17703247 .22599793-.06802368 .27398683 .02796936 .2979889 .13098145 .2979889 .25097657Z"/>
<path id="font_1_2" d="M.31098939 .3244629H.40899659C.47999574 .3244629 .49398805 .31248475 .49398805 .2805481 .49398805 .2775421 .49299623 .25958253 .4869995 .23562622 .48298646 .22364807 .48298646 .22264099 .48298646 .22065735 .48298646 .21665955 .48599244 .20767212 .49699403 .20767212 .5079956 .20767212 .5089874 .21266175 .5130005 .2286377L.56799319 .44450379C.56900027 .4485016 .57099917 .45451356 .57099917 .45951844 .57099917 .46551515 .5669861 .47251893 .5569916 .47251893 .54599 .47251893 .5439911 .46551515 .5399933 .4485016 .519989 .37046815 .49198915 .35546876 .41099549 .35546876H.31900025C.33198548 .41049195 .3829956 .6156006 .3869934 .6286011 .3939972 .64860537 .40499879 .64860537 .43499757 .64860537H.57299807C.69898989 .64860537 .72099307 .6156006 .72099307 .53855898 .72099307 .50453189 .71598818 .4775238 .71598818 .46951295 .71598818 .46151734 .72099307 .45451356 .7299957 .45451356 .74198916 .45451356 .7429962 .46151734 .7449951 .4795227L.7659912 .66560366C.7659912 .6796112 .7559967 .6796112 .7369995 .6796112H.23599243C.21598816 .6796112 .20599365 .6796112 .20599365 .66160586 .20599365 .64860537 .21598816 .64860537 .23699951 .64860537 .24099732 .64860537 .25898744 .64860537 .2749939 .64660647 .29699708 .64360049 .2979889 .63960269 .2979889 .6306 .2979889 .627594 .2979889 .6255951 .29299928 .6075897L.1599884 .075912479C.15098572 .039978029 .14898682 .0309906 .07398987 .0309906 .054992677 .0309906 .04399109 .0309906 .04399109 .0129852299 .04399109 .0069885256 .04699707 0 .05899048 0 .069992069 0 .116989139 .0009918213 .1269989 .0019989014 .1349945 .0029907227 .16999817 .0029907227 .19198609 .0029907227 .21099854 .0029907227 .23899842 .0019989014 .2630005 .0019989014 .2869873 .0019989014 .31498719 0 .33898927 0 .34700013 0 .3600006 0 .3600006 .017990113 .3600006 .0309906 .34999085 .0309906 .32899476 .0309906 .32699586 .0309906 .30099488 .0309906 .2769928 .032989503 .24598694 .035980226 .24398804 .039978029 .24398804 .051956178 .24398804 .053955079 .24398804 .059936525 .24798584 .074920658L.31098939 .3244629Z"/>
<path id="font_3_65" d="M.31698609 0V.0289917H.29499818C.21998596 .0289917 .21699524 .038986207 .21699524 .07595825V.6066437C.21699524 .6436157 .21998596 .6536102 .29499818 .6536102H.31698609V.6826172C.29299928 .680603 .20698548 .680603 .1769867 .680603 .14698792 .680603 .05999756 .680603 .035995485 .6826172V.6536102H.057998659C.1329956 .6536102 .13598633 .6436157 .13598633 .6066437V.07595825C.13598633 .038986207 .1329956 .0289917 .057998659 .0289917H.035995485V0C.05999756 .0019989014 .1459961 .0019989014 .17599488 .0019989014 .20599365 .0019989014 .29299928 .0019989014 .31698609 0Z"/>
<path id="font_3_77" d="M.5209961 0V.0289917C.47099305 .0289917 .44599916 .0289917 .44499208 .059051515V.24342346C.44499208 .3365631 .44499208 .36450196 .42199708 .39640809 .3929901 .4353943 .34599305 .44140626 .31199647 .44140626 .21499634 .44140626 .1769867 .35850526 .16899109 .338562H.16799927V.44140626L.03199768 .4303589V.4013672C.099990848 .4013672 .10798645 .39437867 .10798645 .34553529V.07408142C.10798645 .0289917 .09700012 .0289917 .03199768 .0289917V0C.057998659 .0019989014 .11199951 .0019989014 .13999939 .0019989014 .16899109 .0019989014 .22299195 .0019989014 .24899292 0V.0289917C.18499756 .0289917 .17298889 .0289917 .17298889 .07408142V.26046754C.17298889 .36547853 .24198914 .4213562 .3039856 .4213562 .3659973 .4213562 .37998963 .37045289 .37998963 .3095703V.07408142C.37998963 .0289917 .36898805 .0289917 .3039856 .0289917V0C.32998658 .0019989014 .38398744 .0019989014 .4119873 .0019989014 .44099427 .0019989014 .49499513 .0019989014 .5209961 0Z"/>
<path id="font_3_105" d="M.32598878 .124069217V.1809845H.3039856V.12606812C.3039856 .0541687 .2749939 .01222229 .23599243 .01222229 .16799927 .01222229 .16799927 .10508728 .16799927 .12207031V.4016571H.30899049V.43066407H.16799927V.6142578H.1459961C.14498902 .52046206 .10899353 .4246521 .017990113 .42166139V.4016571H.102996829V.124069217C.102996829 .01322937 .1769867-.009765625 .22999573-.009765625 .29299928-.009765625 .32598878 .0521698 .32598878 .124069217Z"/>
<path id="font_3_50" d="M.40699769 .11932373C.40699769 .1253357 .4019928 .1293335 .3959961 .1293335 .3880005 .1293335 .38598634 .12432861 .38398744 .11932373 .35798646 .035247804 .29100038 .01222229 .24899292 .01222229 .20698548 .01222229 .10598755 .040252687 .10598755 .21340943V.23242188H.3829956C.40499879 .23242188 .40699769 .23242188 .40699769 .25141908 .40699769 .3523407 .35299684 .44628907 .23199463 .44628907 .117996219 .44628907 .02999878 .34335328 .02999878 .21940613 .02999878 .08729553 .13198853-.009765625 .24299622-.009765625 .3619995-.009765625 .40699769 .09829712 .40699769 .11932373M.34498597 .25141908H.10699463C.114990238 .40830995 .20298767 .42630006 .23098755 .42630006 .33799745 .42630006 .34399415 .28538514 .34498597 .25141908Z"/>
<path id="font_3_59" d="M.47499085 .4064026C.47499085 .4243927 .46099855 .45239259 .42599488 .45239259 .37399293 .45239259 .33499146 .4203949 .32099916 .4053955 .29100038 .42840577 .2559967 .44140626 .21798706 .44140626 .12799073 .44140626 .06098938 .37339784 .06098938 .29640199 .06098938 .23939514 .09599304 .20239258 .10598755 .19340515 .09399414 .1783905 .07598877 .14936829 .07598877 .11010742 .07598877 .05178833 .11099243 .026779175 .11898804 .021774292 .07299805 .0087890629 .026992798-.027191163 .026992798-.0791626 .026992798-.14811707 .12098694-.20507813 .24398804-.20507813 .36299134-.20507813 .46199037-.15211487 .46199037-.0771637 .46199037-.0521698 .45498658 .006790161 .394989 .03778076 .34399415 .06378174 .2939911 .06378174 .20799256 .06378174 .14698792 .06378174 .13999939 .06378174 .12199402 .08291626 .11199951 .09298706 .102996829 .11212158 .102996829 .13327027 .102996829 .15039063 .10899353 .16738892 .11898804 .18138123 .1659851 .15039063 .20599365 .15039063 .21699524 .15039063 .30699159 .15039063 .37399293 .21838379 .37399293 .29537965 .37399293 .3223877 .3659973 .36038209 .33399964 .39237977 .37298585 .4323883 .41999818 .4323883 .4249878 .4323883 .42900086 .4323883 .43399049 .4323883 .43798829 .4303894 .42799378 .4263916 .4229889 .4163971 .4229889 .4053955 .4229889 .3914032 .43299867 .37939454 .44898988 .37939454 .45700074 .37939454 .47499085 .3843994 .47499085 .4064026M.30499269 .29638673C.30499269 .2783966 .30499269 .23738098 .28799439 .21038819 .2689972 .18138123 .23899842 .17138672 .21798706 .17138672 .12998963 .17138672 .12998963 .27238465 .12998963 .2953949 .12998963 .313385 .12998963 .35440064 .14698792 .38139344 .1659851 .4104004 .19599915 .4203949 .21699524 .4203949 .30499269 .41978456 .30499269 .31878663 .30499269 .29577638V.29638673M.41299439-.07815552C.41299439-.13711548 .33699037-.18408203 .24499512-.18408203 .14898682-.18408203 .07598877-.13511658 .07598877-.07815552 .07598877-.07015991 .07798767-.031188965 .115997318-.005203247 .13798523 .0087890629 .14698792 .0087890629 .21699524 .0087890629 .2999878 .0087890629 .41299439 .0087890629 .41299439-.07815552Z"/>
<path id="font_3_96" d="M.35299684 .38339234C.35299684 .4133911 .32598878 .44140626 .2829895 .44140626 .19799805 .44140626 .16899109 .34939576 .16299439 .33039857H.1619873V.44140626L.027999878 .4303589V.4013672C.09599304 .4013672 .10398865 .39434815 .10398865 .3453064V.074035648C.10398865 .0289917 .09298706 .0289917 .027999878 .0289917V0C.055999757 .0019989014 .11099243 .0019989014 .14099121 .0019989014 .16799927 .0019989014 .23899842 .0019989014 .2619934 0V.0289917H.24198914C.16899109 .02973938 .16699219 .040740968 .16699219 .07673645V.23374939C.16699219 .3307495 .20698548 .42173768 .28399659 .42173768 .2919922 .42173768 .2939911 .42173768 .2979889 .42074586 .2899933 .41674806 .27398683 .41073609 .27398683 .3837433 .27398683 .35473634 .29699708 .34375 .31298829 .34375 .33299256 .34375 .35299684 .35673524 .35299684 .3837433V.38339234Z"/>
<path id="font_3_28" d="M.47399903 .08912659V.14515686H.45199586V.08912659C.45199586 .03211975 .42799378 .024108887 .4139862 .024108887 .37599183 .024108887 .37599183 .07713318 .37599183 .09213257V.26719667C.37599183 .3211975 .37599183 .36120606 .33198548 .40023805 .29699708 .43226625 .2519989 .44628907 .20799256 .44628907 .12599182 .44628907 .06298828 .39222718 .06298828 .32720948 .06298828 .2982025 .08198547 .2842102 .10499573 .2842102 .1289978 .2842102 .1459961 .3012085 .1459961 .32521058 .1459961 .36621095 .10998535 .36621095 .09498596 .36621095 .117996219 .4082489 .1659851 .42625428 .20599365 .42625428 .2519989 .42625428 .31098939 .38822938 .31098939 .2982025V.25819398C.10998535 .255188 .033996583 .17115784 .033996583 .09413147 .033996583 .0152282719 .12599182-.009765625 .18699646-.009765625 .25299073-.009765625 .2979889 .030227662 .31698609 .07823181 .32099916 .03111267 .35198976-.0048828127 .394989-.0048828127 .41600038-.0048828127 .47399903 .009109497 .47399903 .089141849V.08912659M.31098939 .14117432C.31098939 .043121339 .23799134 .010116577 .19499207 .010116577 .1459961 .010116577 .10499573 .04612732 .10499573 .09414673 .10499573 .22621155 .2749939 .23822022 .31098939 .24023438V.14117432Z"/>
<path id="font_3_66" d="M.24099732 0V.0289917C.17599488 .0289917 .17199707 .033996583 .17199707 .07304382V.44140626L.035995485 .4303589V.4013672C.099990848 .4013672 .10899353 .39535523 .10899353 .34629823V.074035648C.10899353 .0289917 .09799194 .0289917 .032989503 .0289917V0C.06098938 .0019989014 .10899353 .0019989014 .13798523 .0019989014 .14898682 .0019989014 .20698548 .0019989014 .24099732 0M.18499756 .6043091C.18499756 .63430789 .16099549 .6533203 .13699341 .6533203 .10899353 .6533203 .08799744 .63131716 .08799744 .6043091 .08799744 .5783081 .10998535 .55630496 .13598633 .55630496 .1659851 .55630496 .18499756 .580307 .18499756 .6043091Z"/>
<path id="font_3_81" d="M.45899964 .21424866C.45899964 .34326173 .36099244 .44628907 .24499512 .44628907 .125 .44628907 .02999878 .340271 .02999878 .21424866 .02999878 .086242679 .12998963-.009765625 .24398804-.009765625 .3619995-.009765625 .45899964 .08824158 .45899964 .21424866M.3829956 .22325135C.3829956 .18824768 .3829956 .12623596 .35699464 .07923889 .32899476 .031234742 .2829895 .01222229 .24499512 .01222229 .20799256 .01222229 .16299439 .02822876 .13398743 .07723999 .10699463 .12223816 .10598755 .1812439 .10598755 .22325135 .10598755 .261261 .10598755 .32226563 .13699341 .3672638 .16499329 .41027833 .20899964 .42626954 .24398804 .42626954 .2829895 .42626954 .32499696 .40827943 .35198976 .3692627 .3829956 .32325746 .3829956 .2602539 .3829956 .22325135Z"/>
<path id="font_3_46" d="M.69299319 .33480836C.69299319 .5276947 .55799868 .6826172 .3919983 .6826172H.041992189V.6536102H.06199646C.13398743 .6536102 .13699341 .6436157 .13699341 .6066437V.07595825C.13699341 .038986207 .13398743 .0289917 .06199646 .0289917H.041992189V0H.3919983C.5589905 0 .69299319 .1499176 .69299319 .33480836M.60198977 .33580018C.60198977 .2798462 .6009979 .18589783 .5439911 .11193848 .5109863 .06996155 .45098878 .0289917 .36698915 .0289917H.2619934C.21798706 .0289917 .21598816 .035995485 .21598816 .06896973V.6136322C.21598816 .6466217 .21798706 .6536102 .2619934 .6536102H.36698915C.44999696 .6536102 .5159912 .6136322 .5569916 .5476837 .60198977 .4767151 .60198977 .3757782 .60198977 .33580018Z"/>
<path id="font_3_122" d="M.60899356 .6379852C.60899356 .67404177 .57398989 .70410159 .5239868 .70410159 .48399354 .70410159 .44599916 .6860657 .42099 .6620178 .394989 .6990814 .33898927 .70410159 .31199647 .70410159 .21598816 .70410159 .10398865 .65200808 .10398865 .5458374V.43066407H.025985718V.4016571H.10398865V.07394409C.10398865 .0289917 .09298706 .0289917 .027999878 .0289917V0C.055999757 .0019989014 .10499573 .0019989014 .1349945 .0019989014 .16499329 .0019989014 .21499634 .0019989014 .24299622 0V.0289917C.1789856 .0289917 .16699219 .0289917 .16699219 .07394409V.4016571H.375V.07394409C.375 .0289917 .3639984 .0289917 .29899598 .0289917V0C.32699586 .0019989014 .38198854 .0019989014 .4119873 .0019989014 .43899537 .0019989014 .5099945 .0019989014 .5329895 0V.0289917H.5130005C.43998719 .028656006 .43798829 .039657594 .43798829 .075653079V.4016571H.5519867V.43066407H.43598939V.5476532C.43598939 .63365176 .47999574 .6836548 .5239868 .6836548 .5389862 .6836548 .5529938 .6786499 .5589905 .6756592 .5549927 .6746521 .5299988 .6656494 .5299988 .6366577 .5299988 .6136627 .54599 .59765627 .56900027 .59765627 .59298709 .59765627 .60899356 .6136627 .60899356 .63764956V.6379852M.3899994 .6626587C.36299134 .6576538 .35499574 .6386566 .35499574 .6236572 .35499574 .60665896 .3639984 .59265139 .3789978 .58665469 .375 .5716553 .375 .5586548 .375 .5476532V.43066407H.16499329V.5436554C.16499329 .6456604 .25 .6836548 .30999757 .6836548 .31698609 .6836548 .36099244 .6836548 .3899994 .6626587Z"/>
<path id="font_1_1" d="M.18199158 .116867069C.1329956 .036987306 .08898926 .033981325 .04899597 .0309906 .041992189 .02999878 .036987306 .021987915 .036987306 .0129852299 .036987306 .0069885256 .040985109 0 .050994874 0 .069992069 0 .116989139 .0029907227 .13598633 .0029907227 .1579895 .0029907227 .21199036 0 .23399353 0 .23999024 0 .25299073 0 .25299073 .017990113 .25299073 .02999878 .24099732 .0309906 .23799134 .0309906 .22898865 .03199768 .19099427 .033981325 .19099427 .063949588 .19099427 .077926639 .20199585 .09689331 .20498657 .101882938L.28399659 .23068238H.54499819C.5479889 .2077179 .5509949 .17378235 .55400088 .14881897 .55799868 .10987854 .56399539 .06593323 .56399539 .062942508 .56399539 .047973634 .5499878 .0309906 .49198915 .0309906 .48199464 .0309906 .46899415 .0309906 .46899415 .0129852299 .46899415 .0019989014 .47698976 0 .48399354 0 .5029907 0 .5269928 .0019989014 .5469971 .0019989014 .5669861 .0019989014 .59098818 .0029907227 .6069946 .0029907227 .6399994 .0029907227 .6419983 .0029907227 .66600039 .0019989014 .6819916 .0009918213 .7049866 0 .72099307 0 .72698977 0 .73999026 0 .73999026 .017990113 .73999026 .0309906 .72898867 .0309906 .71699526 .0309906 .6569977 .0309906 .6559906 .037979127 .6529999 .06694031L.58299258 .68881228C.58099368 .7108154 .5799866 .7158203 .5629883 .7158203 .548996 .7158203 .54299929 .7088165 .5349884 .69581606L.18199158 .116867069M.30299378 .26168824 .5049896 .5917816 .5419922 .26168824H.30299378Z"/>
<path id="font_1_5" d="M.21299744 .3996582H.30799867C.32598878 .3996582 .33799745 .3996582 .33799745 .41766358 .33799745 .43066407 .32798768 .43066407 .30999757 .43066407H.22099304L.2619934 .59646609C.2619934 .6124573 .24899292 .62545779 .23098755 .62545779 .19898987 .62545779 .19099427 .59646609 .18899536 .5864868L.14898682 .43066407H.054992677C.035995485 .43066407 .023986817 .43066407 .023986817 .4126587 .023986817 .3996582 .034988405 .3996582 .052993776 .3996582H.14199829L.07398987 .12808228C.06599426 .09811401 .06599426 .09613037 .06599426 .08215332 .06599426 .023239136 .11099243-.0107421879 .16299439-.0107421879 .2669983-.0107421879 .32598878 .1330719 .32598878 .14305115 .32598878 .14804077 .32299806 .1550293 .31298829 .1550293 .30299378 .1550293 .3019867 .15203858 .29499818 .1350708 .2639923 .06317139 .21398926 .014251709 .16499329 .014251709 .14498902 .014251709 .1329956 .027236939 .1329956 .060180665 .1329956 .08215332 .13598633 .09413147 .13999939 .10910034L.21299744 .3996582Z"/>
<path id="font_4_1" d="M.91999819-.049804689C.875-.05378723 .87098696-.08879089 .87098696-.0987854 .87098696-.13278198 .897995-.14878845 .91999819-.14878845 .94400027-.14878845 .9700012-.13278198 .9700012-.09779358 .9700012-.04286194 .91600039 0 .8569946 0 .7549896 0 .69599917-.13278198 .651001-.28479005 .625-.37179566 .49598695-.8718262 .3899994-1.4648743 .37298585-1.5608673 .32398988-1.8368988 .28399659-1.986908 .2679901-2.0449067 .22599793-2.1972657 .16899109-2.1972657 .16099549-2.1972657 .1309967-2.1952515 .10699463-2.1719208 .1519928-2.1679078 .1559906-2.132904 .1559906-2.1229096 .1559906-2.088913 .1289978-2.0729066 .10699463-2.0729066 .08299255-2.0729066 .056991579-2.088913 .056991579-2.1239014 .056991579-2.179016 .11099243-2.2222748 .16999817-2.2222748 .27198792-2.2222748 .33099366-2.088913 .37599183-1.9369049 .4019928-1.8488922 .5309906-1.3478546 .6369934-.7568207 .6539917-.6608124 .7029877-.38479615 .7429962-.23478699 .7589874-.17678833 .8009949-.025009156 .8580017-.025009156 .8659973-.025009156 .8959961-.026992798 .91999819-.049804689Z"/>
<path id="font_5_1" d="M.2689972 .39065553H.37799073C.397995 .39065553 .4119873 .39065553 .4119873 .4156494 .4119873 .43066407 .39898683 .43066407 .3809967 .43066407H.2789917L.31399537 .5685272C.31799317 .58351138 .31799317 .5894928 .31799317 .5904999 .31799317 .6144867 .29899598 .6244812 .2829895 .6244812 .2709961 .6244812 .24499512 .6174774 .23599243 .58551028L.19699097 .43066407H.08898926C.067993167 .43066407 .066986087 .42965699 .06298828 .426651 .057998659 .4226532 .053985597 .4096527 .053985597 .4046631 .056991579 .39065553 .06599426 .39065553 .085998538 .39065553H.18699646L.12799073 .15501404C.12199402 .13204956 .11399841 .09811401 .11399841 .086120609 .11399841 .028213501 .1659851-.009765625 .22698975-.009765625 .34199525-.009765625 .4099884 .12705994 .4099884 .14404297 .4099884 .14703369 .4079895 .15802002 .3909912 .15802002 .37799073 .15802002 .37599183 .1530304 .37098695 .14103699 .33699037 .06616211 .27999879 .023223877 .23098755 .023223877 .19400025 .023223877 .19299317 .060165407 .19299317 .073150638 .19299317 .087127689 .19299317 .08912659 .19799805 .10809326L.2689972 .39065553Z"/>
<path id="font_6_1" d="M.5499878 .31877137C.5499878 .39183045 .5499878 .66503909 .30499269 .66503909 .05999756 .66503909 .05999756 .39183045 .05999756 .31877137 .05999756 .2467041 .05999756-.021484375 .30499269-.021484375 .5499878-.021484375 .5499878 .2467041 .5499878 .31877137M.30499269 .010513306C.2630005 .010513306 .19499207 .030517579 .17098999 .113601688 .15499878 .17164612 .15499878 .2697296 .15499878 .33177186 .15499878 .39883424 .15499878 .4758911 .16899109 .52993777 .19400025 .6200104 .269989 .6330261 .30499269 .6330261 .35099793 .6330261 .4169922 .6110077 .43899537 .5349426 .45399476 .48190309 .45498658 .408844 .45498658 .33177186 .45498658 .26771546 .45498658 .16664124 .43798829 .1105957 .4099884 .023513794 .33799745 .010513306 .30499269 .010513306Z"/>
<path id="font_1_3" d="M.5239868 .6603241C.5279999 .67433169 .5279999 .67633059 .5279999 .68032839 .5279999 .68933108 .5219879 .69433596 .5130005 .69433596 .49899293 .69433596 .41099549 .6863251 .3909912 .6843262 .3809967 .68333438 .36999513 .6823273 .36999513 .665329 .36999513 .6523285 .3809967 .6523285 .39698792 .6523285 .44400025 .6523285 .44400025 .6453247 .44400025 .6363373 .44400025 .6293335 .43499757 .5943451 .42999269 .573349L.41099549 .4963684C.40098573 .45837403 .3909912 .41937257 .38198854 .3803711 .36299134 .41638185 .33198548 .4423828 .2869873 .4423828 .17098999 .4423828 .041992189 .30433656 .041992189 .1512909 .041992189 .041259767 .11199951-.0107421879 .1789856-.0107421879 .24398804-.0107421879 .29699708 .043258668 .31298829 .06227112 .32398988 .007247925 .37399293-.0107421879 .4059906-.0107421879 .43499757-.0107421879 .45999146 .002243042 .48199464 .044265748 .5 .07727051 .5139923 .13928223 .5139923 .14329529 .5139923 .14828491 .5109863 .1552887 .5009918 .1552887 .4889984 .1552887 .48799134 .15029907 .48399354 .13128662 .46199037 .044265748 .43998719 .014251709 .40899659 .014251709 .38398744 .014251709 .37799073 .038253786 .37799073 .060272218 .37799073 .073272708 .3829956 .10127258 .38398744 .104278568L.5239868 .6603241M.31698609 .121276859C.31298829 .105285648 .31199647 .103271488 .29599 .08326721 .2599945 .040252687 .21899414 .014251709 .18199158 .014251709 .1329956 .014251709 .115997318 .06526184 .115997318 .10827637 .115997318 .15730286 .14498902 .27233888 .16899109 .32034303 .20098877 .3803711 .24699402 .41737367 .2869873 .41737367 .35398866 .41737367 .36898805 .3363495 .36898805 .3313446 .36898805 .32635499 .36698915 .32034303 .3659973 .3163452L.31698609 .121276859Z"/>
</defs>
<path transform="matrix(1.00002,0,0,-1,119.79817,76.073)" stroke-width="2.59032" stroke-linecap="butt" stroke-miterlimit="10" stroke-linejoin="miter" fill="none" stroke="#0092b8" d="M-69.25711 25.20787C-55.33568 63.4578-13.04166 83.17879 25.20825 69.25737 45.67711 61.80688 61.80727 45.67673 67.45177 30.16954"/>
<path transform="matrix(.34203685,.93967,.93968889,-.34203,187.25128,45.90344)" d="M5.28024 0-3.16815 4.2242 0 0-3.16815-4.2242" fill="#0092b8"/>
<path transform="matrix(1.00002,0,0,-1,119.79817,76.073)" stroke-width="1.59404" stroke-linecap="butt" stroke-miterlimit="10" stroke-linejoin="miter" fill="none" stroke="#b2b3b2" d="M-69.25711-25.20787C-55.33568-63.4578-13.04166-83.17879 25.20825-69.25737 45.67711-61.80688 61.80727-45.67673 67.9629-28.76527"/>
<path transform="matrix(.34203685,-.93967,-.93968889,-.34203,187.76242,104.83829)" d="M3.78581 0-2.27148 3.02866 0 0-2.27148-3.02866" fill="#b2b3b2"/>
<use data-text="y" xlink:href="#font_1_7" transform="matrix(8.966579,0,0,-8.9664,.7757721,90.57)"/>
<use data-text="=" xlink:href="#font_2_3" transform="matrix(8.966579,0,0,-8.9664,8.195923,90.57)"/>
<use data-text="f" xlink:href="#font_1_4" transform="matrix(8.966579,0,0,-8.9664,17.923127,90.57)"/>
<use data-text="(" xlink:href="#font_2_1" transform="matrix(8.966579,0,0,-8.9664,23.371232,90.57)"/>
<use data-text="x" xlink:href="#font_1_6" transform="matrix(8.966579,0,0,-8.9664,26.955292,90.57)"/>
<use data-text=")" xlink:href="#font_2_2" transform="matrix(8.966579,0,0,-8.9664,32.179399,90.57)"/>
<use data-text="y" xlink:href="#font_1_7" transform="matrix(8.966579,0,0,-8.9664,203.83385,90.57)"/>
<use data-text="=" xlink:href="#font_2_3" transform="matrix(8.966579,0,0,-8.9664,211.254,90.57)"/>
<use data-text="F" xlink:href="#font_1_2" transform="matrix(8.966579,0,0,-8.9664,220.9812,90.57)"/>
<use data-text="(" xlink:href="#font_2_1" transform="matrix(8.966579,0,0,-8.9664,228.14534,90.57)"/>
<use data-text="x" xlink:href="#font_1_6" transform="matrix(8.966579,0,0,-8.9664,231.72942,90.57)"/>
<use data-text=")" xlink:href="#font_2_2" transform="matrix(8.966579,0,0,-8.9664,236.95253,90.57)"/>
<use data-text="I" xlink:href="#font_3_65" transform="matrix(11.95544,0,0,-11.9552,91.4996,40.662)"/>
<use data-text="n" xlink:href="#font_3_77" transform="matrix(11.95544,0,0,-11.9552,95.719867,40.662)"/>
<use data-text="t" xlink:href="#font_3_105" transform="matrix(11.95544,0,0,-11.9552,101.90083,40.662)"/>
<use data-text="e" xlink:href="#font_3_50" transform="matrix(11.95544,0,0,-11.9552,106.45586,40.662)"/>
<use data-text="g" xlink:href="#font_3_59" transform="matrix(11.95544,0,0,-11.9552,111.65648,40.662)"/>
<use data-text="r" xlink:href="#font_3_96" transform="matrix(11.95544,0,0,-11.9552,117.51465,40.662)"/>
<use data-text="a" xlink:href="#font_3_28" transform="matrix(11.95544,0,0,-11.9552,122.06967,40.662)"/>
<use data-text="t" xlink:href="#font_3_105" transform="matrix(11.95544,0,0,-11.9552,127.92784,40.662)"/>
<use data-text="i" xlink:href="#font_3_66" transform="matrix(11.95544,0,0,-11.9552,132.48287,40.662)"/>
<use data-text="o" xlink:href="#font_3_81" transform="matrix(11.95544,0,0,-11.9552,135.73474,40.662)"/>
<use data-text="n" xlink:href="#font_3_77" transform="matrix(11.95544,0,0,-11.9552,141.5929,40.662)"/>
<use data-text="D" xlink:href="#font_3_46" transform="matrix(11.95544,0,0,-11.9552,82.80144,118.49)"/>
<use data-text="i" xlink:href="#font_3_66" transform="matrix(11.95544,0,0,-11.9552,91.744098,118.49)"/>
<use data-text="f" xlink:href="#font_3_122" transform="matrix(11.95544,0,0,-11.9552,94.99599,118.49)"/>
<use data-text="e" xlink:href="#font_3_50" transform="matrix(11.95544,0,0,-11.9552,101.82254,118.49)"/>
<use data-text="r" xlink:href="#font_3_96" transform="matrix(11.95544,0,0,-11.9552,107.02316,118.49)"/>
<use data-text="e" xlink:href="#font_3_50" transform="matrix(11.95544,0,0,-11.9552,111.578189,118.49)"/>
<use data-text="n" xlink:href="#font_3_77" transform="matrix(11.95544,0,0,-11.9552,116.77879,118.49)"/>
<use data-text="t" xlink:href="#font_3_105" transform="matrix(11.95544,0,0,-11.9552,122.95976,118.49)"/>
<use data-text="i" xlink:href="#font_3_66" transform="matrix(11.95544,0,0,-11.9552,127.514789,118.49)"/>
<use data-text="a" xlink:href="#font_3_28" transform="matrix(11.95544,0,0,-11.9552,130.76668,118.49)"/>
<use data-text="t" xlink:href="#font_3_105" transform="matrix(11.95544,0,0,-11.9552,136.62487,118.49)"/>
<use data-text="i" xlink:href="#font_3_66" transform="matrix(11.95544,0,0,-11.9552,141.17989,118.49)"/>
<use data-text="o" xlink:href="#font_3_81" transform="matrix(11.95544,0,0,-11.9552,144.43175,118.49)"/>
<use data-text="n" xlink:href="#font_3_77" transform="matrix(11.95544,0,0,-11.9552,150.28993,118.49)"/>
<use data-text="A" xlink:href="#font_1_1" transform="matrix(8.966579,0,0,-8.9664,83.21444,23.396)"/>
<use data-text="(" xlink:href="#font_2_1" transform="matrix(8.966579,0,0,-8.9664,90.12458,23.396)"/>
<use data-text="t" xlink:href="#font_1_5" transform="matrix(8.966579,0,0,-8.9664,93.70866,23.396)"/>
<use data-text=")" xlink:href="#font_2_2" transform="matrix(8.966579,0,0,-8.9664,97.03672,23.396)"/>
<use data-text="=" xlink:href="#font_2_3" transform="matrix(8.966579,0,0,-8.9664,103.16985,23.396)"/>
<use data-text="&#x222b;" xlink:href="#font_4_1" transform="matrix(8.966579,0,0,-8.9664,112.90804,11.191998)"/>
<use data-text="t" xlink:href="#font_5_1" transform="matrix(5.97772,0,0,-5.9776,122.12322,13.6539959)"/>
<use data-text="0" xlink:href="#font_6_1" transform="matrix(5.97772,0,0,-5.9776,118.02714,31.614995)"/>
<use data-text="f" xlink:href="#font_1_4" transform="matrix(8.966579,0,0,-8.9664,127.00732,23.395993)"/>
<use data-text="(" xlink:href="#font_2_1" transform="matrix(8.966579,0,0,-8.9664,132.45645,23.395993)"/>
<use data-text="x" xlink:href="#font_1_6" transform="matrix(8.966579,0,0,-8.9664,136.03952,23.395993)"/>
<use data-text=")" xlink:href="#font_2_2" transform="matrix(8.966579,0,0,-8.9664,141.26361,23.395993)"/>
<use data-text="d" xlink:href="#font_1_3" transform="matrix(8.966579,0,0,-8.9664,146.38373,23.395993)"/>
<use data-text="x" xlink:href="#font_1_6" transform="matrix(8.966579,0,0,-8.9664,151.15393,23.395993)"/>
<use data-text="d" xlink:href="#font_1_3" transform="matrix(8.966579,0,0,-8.9664,113.95504,128.522)"/>
<use data-text="A" xlink:href="#font_1_1" transform="matrix(8.966579,0,0,-8.9664,118.72527,128.522)"/>
<path transform="matrix(1.00002,0,0,-1,-95.04014,64.248)" stroke-width=".3786" stroke-linecap="butt" stroke-miterlimit="10" stroke-linejoin="miter" fill="none" stroke="#000000" d="M208.991-67.831H220.676"/>
<use data-text="d" xlink:href="#font_1_3" transform="matrix(8.966579,0,0,-8.9664,115.74709,140.40201)"/>
<use data-text="t" xlink:href="#font_1_5" transform="matrix(8.966579,0,0,-8.9664,120.51731,140.40201)"/>
</svg>
