<svg xmlns="http://www.w3.org/2000/svg" xmlns:xlink="http://www.w3.org/1999/xlink" xmlns:inkscape="http://www.inkscape.org/namespaces/inkscape" version="1.1" width="208" height="177" viewBox="0 0 208 177">
<defs>
<path id="font_1_1" d="M.2939911 .64004519C.2939911 .66400149 .2939911 .6660156 .2709961 .6660156 .20899964 .60227969 .12098694 .60227969 .08898926 .60227969V.57128909C.10899353 .57128909 .16799927 .57128909 .21998596 .5972748V.07902527C.21998596 .042999269 .21699524 .0309906 .1269989 .0309906H.09498596V0C.12998963 .0029907227 .21699524 .0029907227 .25698854 .0029907227 .29699708 .0029907227 .38398744 .0029907227 .4189911 0V.0309906H.3869934C.29699708 .0309906 .2939911 .041992189 .2939911 .07902527V.64004519Z"/>
<path id="font_1_2" d="M.1269989 .07699585 .23298645 .18003845C.3889923 .31811524 .44898988 .3721466 .44898988 .47216798 .44898988 .5860901 .35899354 .6660156 .23699951 .6660156 .12399292 .6660156 .049987794 .57411196 .049987794 .48516847 .049987794 .4291687 .099990848 .4291687 .102996829 .4291687 .11999512 .4291687 .15499878 .44117738 .15499878 .48217774 .15499878 .5081787 .13699341 .5341797 .101989749 .5341797 .09399414 .5341797 .09199524 .5341797 .08898926 .5331726 .11199951 .59806826 .1659851 .63500979 .22399903 .63500979 .31498719 .63500979 .35798646 .5541382 .35798646 .47216798 .35798646 .39215089 .30799867 .31311036 .25299073 .25108338L.06098938 .036987306C.049987794 .025985718 .049987794 .023986817 .049987794 0H.42099L.44898988 .17404175H.42399598C.4189911 .14402771 .4119873 .1000061 .4019928 .084991458 .394989 .07699585 .32899476 .07699585 .30699159 .07699585H.1269989Z"/>
<path id="font_1_3" d="M.2899933 .35191346C.37199403 .37893678 .42999269 .4490509 .42999269 .52809146 .42999269 .6100464 .34199525 .6660156 .24598694 .6660156 .14498902 .6660156 .068984989 .60606387 .068984989 .53009036 .068984989 .49710084 .09098816 .47808839 .11999512 .47808839 .15098572 .47808839 .17098999 .50009158 .17098999 .5290985 .17098999 .57910159 .12399292 .57910159 .10899353 .57910159 .13999939 .62802127 .20599365 .64100649 .24198914 .64100649 .2829895 .64100649 .33799745 .6190338 .33799745 .5290985 .33799745 .51708987 .33599855 .45906068 .30999757 .4149933 .27999879 .36691285 .24598694 .36390687 .22099304 .36291505 .21299744 .36190797 .18899536 .35990907 .18199158 .35990907 .17399597 .35890199 .16699219 .35791017 .16699219 .3479004 .16699219 .33691407 .17399597 .33691407 .19099427 .33691407H.23498535C.31698609 .33691407 .35398866 .2686615 .35398866 .17037964 .35398866 .034469606 .2849884 .0055389406 .24099732 .0055389406 .19799805 .0055389406 .12298584 .022491456 .08799744 .08137512 .12298584 .07637024 .1539917 .09837341 .1539917 .1363678 .1539917 .17237854 .1269989 .19238281 .09799194 .19238281 .07398987 .19238281 .041992189 .17837525 .041992189 .1343689 .041992189 .043441774 .1349945-.022460938 .24398804-.022460938 .3659973-.022460938 .45700074 .06838989 .45700074 .17037964 .45700074 .252594 .3939972 .33088685 .2899933 .35191346Z"/>
<path id="font_1_4" d="M.2939911 .16503906V.07800293C.2939911 .041992189 .2919922 .0309906 .21798706 .0309906H.19699097V0C.23799134 .0029907227 .2899933 .0029907227 .33198548 .0029907227 .37399293 .0029907227 .4269867 .0029907227 .46798707 0V.0309906H.44699098C.37298585 .0309906 .37098695 .041992189 .37098695 .07800293V.16503906H.47099305V.19602967H.37098695V.65075686C.37098695 .67074587 .37098695 .6767578 .35499574 .6767578 .34599305 .6767578 .34298707 .6767578 .33499146 .66474917L.027999878 .19602967V.16503906H.2939911M.2999878 .19602967H.055999757L.2999878 .5688019V.19602967Z"/>
<path id="font_1_5" d="M.13198853 .327713V.35173036C.13198853 .6047821 .2559967 .64100649 .30699159 .64100649 .33099366 .64100649 .37298585 .634964 .394989 .6007538 .37998963 .6007538 .33999635 .6007538 .33999635 .5557556 .33999635 .524765 .3639984 .5097656 .38598634 .5097656 .4019928 .5097656 .43199159 .51875308 .43199159 .5577545 .43199159 .6178589 .3880005 .6660156 .30499269 .6660156 .1769867 .6660156 .041992189 .5367584 .041992189 .31570436 .041992189 .048553468 .1579895-.022460938 .25099183-.022460938 .3619995-.022460938 .45700074 .07156372 .45700074 .2036438 .45700074 .33070375 .36799623 .4267578 .25698854 .4267578 .18899536 .4267578 .1519928 .37573243 .13198853 .327713M.25099183 .0055389406C.18798828 .0055389406 .1579895 .06556702 .1519928 .080566409 .13398743 .127594 .13398743 .2076416 .13398743 .22564698 .13398743 .30369569 .1659851 .40374757 .2559967 .40374757 .27198792 .40374757 .31799317 .40374757 .34899903 .34172059 .36698915 .30470277 .36698915 .2536621 .36698915 .20463562 .36698915 .15661621 .36698915 .10658264 .34999085 .0705719 .31999208 .010528564 .27398683 .0055389406 .25099183 .0055389406Z"/>
<clipPath id="clip_2">
<path transform="matrix(1.00003,0,0,-1.00005,11.84491,163.19235)" d="M0 0H194.26912V161.38724H0Z"/>
</clipPath>
<path id="font_3_1" d="M.33399964 .30233766C.33999635 .32835389 .36299134 .42037965 .43299867 .42037965 .43798829 .42037965 .46199037 .42037965 .48298646 .40734864 .45498658 .402359 .43499757 .37734986 .43499757 .35334779 .43499757 .33735658 .44599916 .31835938 .47299195 .31835938 .49499513 .31835938 .5269928 .3363495 .5269928 .37635804 .5269928 .42837525 .46798707 .4423828 .43399049 .4423828 .37599183 .4423828 .34098817 .38935853 .32899476 .36634828 .3039856 .43237306 .25 .4423828 .22099304 .4423828 .116989139 .4423828 .05999756 .3133545 .05999756 .28834535 .05999756 .27833558 .069992069 .27833558 .07199097 .27833558 .07998657 .27833558 .08299255 .28033448 .084991458 .28933717 .11898804 .39535523 .18499756 .42037965 .21899414 .42037965 .23799134 .42037965 .272995 .4113617 .272995 .35334779 .272995 .32235719 .2559967 .25532533 .21899414 .11528015 .20298767 .053268434 .16799927 .011245728 .12399292 .011245728 .117996219 .011245728 .09498596 .011245728 .07398987 .024276734 .09899902 .029266358 .12098694 .05027771 .12098694 .07827759 .12098694 .105270389 .09899902 .11328125 .083999637 .11328125 .053985597 .11328125 .0289917 .08728027 .0289917 .055267335 .0289917 .009246826 .07899475-.0107421879 .12298584-.0107421879 .18899536-.0107421879 .22499085 .059280397 .22799683 .0652771 .23999024 .028274537 .27598573-.0107421879 .33599855-.0107421879 .43899537-.0107421879 .49598695 .118270877 .49598695 .14328003 .49598695 .1532898 .4869995 .1532898 .48399354 .1532898 .47499085 .1532898 .47299195 .14929199 .47099305 .14228821 .43798829 .03527832 .36999513 .011245728 .33799745 .011245728 .29899598 .011245728 .2829895 .043273927 .2829895 .07727051 .2829895 .09927368 .2889862 .121276859 .2999878 .16529846L.33399964 .30233766Z"/>
<path id="font_3_2" d="M.48599244 .38136292C.48999024 .39537049 .48999024 .39736939 .48999024 .40437318 .48999024 .42237855 .47599793 .43138124 .46099855 .43138124 .45098878 .43138124 .43499757 .42536927 .42599488 .41036988 .42399598 .405365 .41600038 .37435914 .4119873 .35635377 .40499879 .33035279 .397995 .30334474 .3919983 .27633668L.34700013 .09628296C.34298707 .08126831 .2999878 .011245728 .23399353 .011245728 .18299866 .011245728 .17199707 .055267335 .17199707 .0922699 .17199707 .1382904 .18899536 .20030213 .22299195 .28833009 .23899842 .3293457 .24299622 .3403473 .24299622 .36035157 .24299622 .405365 .21099854 .4423828 .16099549 .4423828 .06599426 .4423828 .0289917 .29733277 .0289917 .28833009 .0289917 .27833558 .038986207 .27833558 .040985109 .27833558 .050994874 .27833558 .051986696 .28033448 .056991579 .29634095 .083999637 .3903656 .12399292 .42037965 .1579895 .42037965 .1659851 .42037965 .18299866 .42037965 .18299866 .3883667 .18299866 .36335755 .17298889 .3373413 .1659851 .31834413 .12599182 .21231079 .10798645 .1552887 .10798645 .10827637 .10798645 .019256592 .17098999-.0107421879 .22999573-.0107421879 .2689972-.0107421879 .30299378 .0062561037 .33099366 .03425598 .31799317-.017745972 .30599977-.06674194 .2659912-.11973572 .23999024-.15385437 .20199585-.18309021 .1559906-.18309021 .14199829-.18309021 .09700012-.18005371 .07998657-.14074707 .09599304-.14074707 .10899353-.14074707 .12298584-.1287384 .1329956-.11973572 .14299011-.10673523 .14299011-.08773804 .14299011-.056747438 .115997318-.052734376 .10598755-.052734376 .08299255-.052734376 .049987794-.068740848 .049987794-.11773682 .049987794-.16796875 .09399414-.20507813 .1559906-.20507813 .25898744-.20507813 .3619995-.11373901 .3899994-.00074768069L.48599244 .38136292Z"/>
</defs>
<path transform="matrix(1.00003,0,0,-1.00005,11.84491,163.19235)" stroke-width=".19925" stroke-linecap="butt" stroke-miterlimit="10" stroke-linejoin="miter" fill="none" stroke="#7f807f" d="M55.50546-2.12596V2.12596M111.01093-2.12596V2.12596M166.51639-2.12596V2.12596"/>
<path transform="matrix(1.00003,0,0,-1.00005,11.84491,163.19235)" stroke-width=".19925" stroke-linecap="butt" stroke-miterlimit="10" stroke-linejoin="miter" fill="none" stroke="#7f807f" d="M-2.12611 46.11063H2.12611M-2.12611 92.22127H2.12611M-2.12611 138.33191H2.12611"/>
<path transform="matrix(1.00003,0,0,-1.00005,11.84491,163.19235)" stroke-width=".3985" stroke-linecap="butt" stroke-miterlimit="10" stroke-linejoin="miter" fill="none" stroke="#000000" d="M0 0H192.2766"/>
<path transform="matrix(1.00003,0,0,-1.00005,204.12729,163.19235)" d="M1.99252 0-1.19551 1.59401 0 0-1.19551-1.59401"/>
<path transform="matrix(1.00003,0,0,-1.00005,11.84491,163.19235)" stroke-width=".3985" stroke-linecap="butt" stroke-miterlimit="10" stroke-linejoin="miter" fill="none" stroke="#000000" d="M0 0V159.39472"/>
<path transform="matrix(0,-1.00005,-1.00003,-0,11.84491,3.7896729)" d="M1.99252 0-1.19551 1.59401 0 0-1.19551-1.59401"/>
<use data-text="1" xlink:href="#font_1_1" transform="matrix(9.962899,0,0,-9.963098,64.861499,175.25896)"/>
<use data-text="2" xlink:href="#font_1_2" transform="matrix(9.962899,0,0,-9.963098,120.368167,175.25896)"/>
<use data-text="3" xlink:href="#font_1_3" transform="matrix(9.962899,0,0,-9.963098,175.87584,175.25896)"/>
<use data-text="2" xlink:href="#font_1_2" transform="matrix(9.962899,0,0,-9.963098,1.2175903,120.29021)"/>
<use data-text="4" xlink:href="#font_1_4" transform="matrix(9.962899,0,0,-9.963098,1.2175903,74.1769)"/>
<use data-text="6" xlink:href="#font_1_5" transform="matrix(9.962899,0,0,-9.963098,1.2175903,28.063614)"/>
<g clip-path="url(#clip_2)">
<path transform="matrix(1.00003,0,0,-1.00005,11.84491,163.19235)" d="M0 0H166.51639V138.33191Z" fill="#b3ffb3"/>
<path transform="matrix(1.00003,0,0,-1.00005,11.84491,163.19235)" stroke-width=".79701" stroke-linecap="butt" stroke-miterlimit="10" stroke-linejoin="miter" fill="none" stroke="#0000ff" d="M0 0 .83675 .69511 1.67351 1.39024 2.51025 2.08537 3.34702 2.7805 4.18376 3.47562 5.02052 4.17075 5.85728 4.86588 6.69403 5.561 7.53078 6.25612 8.36754 6.95125 9.2043 7.64638 10.04105 8.34152 10.87779 9.03662 11.71455 9.73177 12.55133 10.4269 13.38808 11.12202 14.22484 11.81714 15.06158 12.51227 15.89835 13.2074 16.7351 13.90253 17.57185 14.59764 18.40862 15.29277 19.24536 15.9879 20.08212 16.68303 20.91887 17.37816 21.75563 18.07329 22.59239 18.76842 23.42914 19.46355 24.26588 20.15866 25.10266 20.85379 25.93942 21.54892 26.77617 22.24405 27.61293 22.93916 28.44968 23.6343 29.28644 24.32942 30.1232 25.02457 30.95995 25.71968 31.79669 26.4148 32.63345 27.10994 33.47021 27.80507 34.30696 28.50018 35.14372 29.19531 35.98047 29.89044 36.81725 30.58557 37.65399 31.28069 38.49075 31.97581 39.32751 32.67096 40.16426 33.36607 41.001 34.0612 41.83777 34.75633 42.67453 35.45146 43.51128 36.14659 44.34804 36.84172 45.18478 37.53683 46.02155 38.23196 46.8583 38.9271 47.69505 39.62222 48.5318 40.31734 49.36858 41.01247 50.20534 41.7076 51.04208 42.40274 51.87885 43.09785 52.71559 43.79298 53.55235 44.48811 54.3891 45.18324 55.22586 45.87836 56.06262 46.57352 56.89937 47.2686 57.73613 47.96376 58.57288 48.65889 59.40964 49.35397 60.2464 50.04913 61.08316 50.74428 61.9199 51.43935 62.75667 52.1345 63.59343 52.82965 64.43018 53.52473 65.26692 54.21988 66.10368 54.91502 66.94044 55.6101 67.77719 56.30527 68.61395 57.0004 69.4507 57.69548 70.28746 58.39064 71.12422 59.08578 71.96097 59.78085 72.79773 60.47601 73.63449 61.17116 74.47125 61.86632 75.308 62.56139 76.14476 63.25655 76.98152 63.95169 77.81827 64.64677 78.65501 65.34192 79.49178 66.03706 80.32854 66.73215 81.16528 67.4273 82.00203 68.12245 82.83879 68.81752 83.67555 69.51268 84.51234 70.20782 85.34904 70.90291 86.18585 71.59805 87.02254 72.29314 87.85934 72.98828 88.69614 73.6835 89.53282 74.37851 90.36963 75.07373 91.2063 75.76874 92.0431 76.46396 92.87991 77.1591 93.71658 77.85419 94.55339 78.54935 95.39008 79.24442 96.22688 79.93956 97.06369 80.63472 97.90038 81.3298 98.73718 82.02495 99.57387 82.72002 100.41068 83.41524 101.24747 84.1104 102.08415 84.80548 102.92096 85.50061 103.75764 86.1957 104.59445 86.89085 105.43124 87.586 106.26793 88.28107 107.10474 88.97623 107.9414 89.67131 108.77821 90.36646 109.61502 91.06168 110.45172 91.75668 111.28853 92.4519 112.1252 93.14691 112.962 93.84213 113.79881 94.53728 114.63548 95.23236 115.47229 95.92752 116.30898 96.62259 117.14578 97.31773 117.98257 98.0129 118.81926 98.70798 119.65607 99.4031 120.49275 100.09819 121.32956 100.79341 122.16637 101.48857 123.00305 102.18365 123.83986 102.87878 124.67653 103.57387 125.51334 104.26903 126.35014 104.96417 127.18683 105.65924 128.02364 106.3544 128.8603 107.04948 129.69712 107.74463 130.53392 108.43985 131.37059 109.13486 132.2074 109.83008 133.04409 110.52509 133.88089 111.2203 134.7177 111.91545 135.55438 112.61053 136.39119 113.3057 137.22788 114.00076 138.06468 114.6959 138.90148 115.39107 139.73816 116.08615 140.57497 116.78128 141.41165 117.47636 142.24846 118.17159 143.08525 118.86674 143.92194 119.56181 144.75875 120.25696 145.59542 120.95204 146.43224 121.6472 147.26905 122.34233 148.10572 123.03741 148.94252 123.73257 149.7792 124.42766 150.61602 125.12279 151.45282 125.81802 152.28949 126.51303 153.1263 127.20825 153.96298 127.90332 154.79979 128.59848 155.63658 129.29363 156.47327 129.98871 157.31008 130.68386 158.14676 131.37894 158.98358 132.07408 159.82038 132.76924 160.65706 133.46433 161.49387 134.15953 162.33054 134.85454 163.16735 135.54976 164.00415 136.24492 164.84082 136.93999 165.67763 137.63513 166.51432 138.33022"/>
<path transform="matrix(1.00003,0,0,-1.00005,11.84491,163.19235)" stroke-width=".3985" stroke-linecap="butt" stroke-dasharray="2.98883,2.98883" stroke-miterlimit="10" stroke-linejoin="miter" fill="none" stroke="#000000" d="M166.51639 0V138.33191"/>
</g>
<use data-text="x" xlink:href="#font_3_1" transform="matrix(9.962899,0,0,-9.963098,196.90546,159.67218)"/>
<use data-text="y" xlink:href="#font_3_2" transform="matrix(9.962899,0,0,-9.963098,15.365013,9.606674)"/>
</svg>
