<svg xmlns="http://www.w3.org/2000/svg" xmlns:xlink="http://www.w3.org/1999/xlink" xmlns:inkscape="http://www.inkscape.org/namespaces/inkscape" version="1.1" width="207" height="178" viewBox="0 0 207 178">
<defs>
<path id="font_1_1" d="M.23899842 .68333438C.23899842 .6843262 .23899842 .69433596 .22599793 .69433596 .20298767 .69433596 .12998963 .6863251 .10398865 .6843262 .09599304 .68333438 .084991458 .6823273 .084991458 .6643219 .084991458 .6523285 .09399414 .6523285 .10899353 .6523285 .15699768 .6523285 .15899658 .6453247 .15899658 .6353302 .15899658 .6283264 .1499939 .5943451 .14498902 .573349L.06298828 .24731446C.050994874 .1973114 .04699707 .18130493 .04699707 .14628601 .04699707 .05126953 .099990848-.0107421879 .17399597-.0107421879 .2919922-.0107421879 .4149933 .1382904 .4149933 .28233338 .4149933 .37335206 .3619995 .4423828 .28199769 .4423828 .23599243 .4423828 .19499207 .41337586 .16499329 .38235475L.23899842 .68333438M.14498902 .30534364C.15098572 .3273468 .15098572 .3293457 .1599884 .3403473 .20899964 .405365 .2539978 .42037965 .27999879 .42037965 .31599427 .42037965 .34298707 .3903656 .34298707 .32633973 .34298707 .26733399 .30999757 .15229798 .2919922 .11428833 .25898744 .04725647 .21299744 .011245728 .17399597 .011245728 .13999939 .011245728 .10699463 .038253786 .10699463 .11227417 .10699463 .13128662 .10699463 .15029907 .12298584 .21331787L.14498902 .30534364Z"/>
<clipPath id="clip_2">
<path transform="matrix(1,0,0,-1.00006,11.1380009,163.19783)" d="M0 0H194.2676V161.39028H0Z"/>
</clipPath>
</defs>
<path transform="matrix(1,0,0,-1.00006,11.1380009,163.19783)" stroke-width=".19925" stroke-linecap="butt" stroke-miterlimit="10" stroke-linejoin="miter" fill="none" stroke="#7f807f" d="M172.68231-2.12598V2.12598"/>
<path transform="matrix(1,0,0,-1.00006,11.1380009,163.19783)" stroke-width=".19925" stroke-linecap="butt" stroke-miterlimit="10" stroke-linejoin="miter" fill="none" stroke="#7f807f" d="M-2.12592 143.45803H2.12592"/>
<path transform="matrix(1,0,0,-1.00006,11.1380009,163.19783)" stroke-width=".3985" stroke-linecap="butt" stroke-miterlimit="10" stroke-linejoin="miter" fill="none" stroke="#000000" d="M0 0H192.27507"/>
<path transform="matrix(1,0,0,-1.00006,203.41307,163.19783)" d="M1.99252 0-1.19551 1.59401 0 0-1.19551-1.59401"/>
<path transform="matrix(1,0,0,-1.00006,11.1380009,163.19783)" stroke-width=".3985" stroke-linecap="butt" stroke-miterlimit="10" stroke-linejoin="miter" fill="none" stroke="#000000" d="M0 0V159.39775"/>
<path transform="matrix(0,-1.00006,-1,-0,11.1380009,3.7905274)" d="M1.99252 0-1.19551 1.59401 0 0-1.19551-1.59401"/>
<use data-text="b" xlink:href="#font_1_1" transform="matrix(9.9626,0,0,-9.963197,181.682,175.76259)"/>
<use data-text="b" xlink:href="#font_1_1" transform="matrix(9.9626,0,0,-9.963197,1.2170029,23.190445)"/>
<g clip-path="url(#clip_2)">
<path transform="matrix(1,0,0,-1.00006,11.1380009,163.19783)" d="M0 0H172.68231V143.45803Z" fill="#b3ffb3"/>
<path transform="matrix(1,0,0,-1.00006,11.1380009,163.19783)" stroke-width=".79701" stroke-linecap="butt" stroke-miterlimit="10" stroke-linejoin="miter" fill="none" stroke="#0000ff" d="M0 0 .86774 .72089 1.73549 1.44177 2.60326 2.16269 3.471 2.88358 4.33876 3.60448 5.20651 4.32538 6.07426 5.04628 6.94202 5.76717 7.80978 6.48807 8.67752 7.20897 9.54529 7.92986 10.41304 8.65077 11.28079 9.37166 12.14854 10.09256 13.01631 10.81346 13.88406 11.53436 14.75182 12.25525 15.61957 12.97614 16.48734 13.69705 17.35507 14.41794 18.22284 15.13884 19.09059 15.85974 19.95833 16.58064 20.8261 17.30154 21.69385 18.02245 22.5616 18.74333 23.42935 19.46423 24.29712 20.18513 25.16487 20.90602 26.03262 21.62694 26.90038 22.34782 27.76814 23.06873 28.63588 23.78963 29.50365 24.51053 30.37138 25.23141 31.23915 25.95232 32.1069 26.67322 32.97466 27.3941 33.8424 28.11502 34.71017 28.8359 35.57793 29.55681 36.4457 30.27771 37.31343 30.99861 38.18118 31.7195 39.04893 32.4404 39.91669 33.1613 40.78445 33.88219 41.65219 34.6031 42.51996 35.32399 43.38771 36.04489 44.25546 36.7658 45.12321 37.4867 45.99098 38.20758 46.85873 38.92848 47.7265 39.64938 48.59424 40.37029 49.462 41.09119 50.32974 41.81207 51.19751 42.53299 52.06526 43.25388 52.93301 43.97478 53.80077 44.69568 54.66853 45.41656 55.53627 46.13747 56.40402 46.85837 57.27179 47.57927 58.13954 48.30016 59.0073 49.02106 59.87505 49.74196 60.74281 50.46286 61.61055 51.18375 62.47832 51.90465 63.34607 52.62555 64.21382 53.34644 65.08157 54.06735 65.94934 54.78824 66.81708 55.50916 67.68484 56.23004 68.5526 56.95094 69.42035 57.67184 70.2881 58.39273 71.15587 59.11363 72.02362 59.83453 72.89137 60.55544 73.75912 61.27632 74.62688 61.99724 75.49463 62.71812 76.36238 63.43903 77.23015 64.15993 78.09789 64.88081 78.96565 65.60172 79.8334 66.32262 80.70116 67.04352 81.56891 67.7644 82.43668 68.4853 83.30443 69.2062 84.17218 69.92711 85.03993 70.64801 85.9077 71.3689 86.77544 72.0898 87.64325 72.81073 88.51093 73.53157 89.37874 74.2525 90.2464 74.97336 91.11421 75.69429 91.98201 76.41524 92.8497 77.13606 93.7175 77.857 94.58517 78.57784 95.45299 79.29878 96.32079 80.01973 97.18846 80.74055 98.05627 81.4615 98.92395 82.18233 99.79175 82.90327 100.65956 83.6242 101.52724 84.34505 102.39505 85.066 103.26273 85.78682 104.13054 86.50777 104.99834 87.2287 105.86601 87.94954 106.73381 88.67047 107.6015 89.39133 108.4693 90.11226 109.33711 90.83319 110.20479 91.55403 111.0726 92.27496 111.94026 92.9958 112.80807 93.71674 113.67589 94.4377 114.54355 95.15852 115.41136 95.87946 116.27904 96.6003 117.14685 97.32123 118.01465 98.04218 118.88234 98.763 119.75014 99.48395 120.61781 100.20477 121.48563 100.92574 122.35344 101.64667 123.2211 102.3675 124.08891 103.08844 124.95659 103.80927 125.8244 104.53021 126.6922 105.25114 127.55989 105.972 128.42769 106.69293 129.29537 107.41377 130.16318 108.1347 131.03098 108.85564 131.89865 109.57648 132.76645 110.29741 133.63414 111.01826 134.50194 111.7392 135.36975 112.46014 136.23743 113.18097 137.10524 113.90192 137.9729 114.62274 138.84072 115.34369 139.70851 116.06464 140.5762 116.78546 141.444 117.50641 142.31169 118.22723 143.17949 118.94818 144.0473 119.66911 144.91497 120.38997 145.78279 121.1109 146.65045 121.83173 147.51827 122.55267 148.38607 123.2736 149.25374 123.99445 150.12155 124.71538 150.98923 125.43622 151.85704 126.15717 152.72484 126.87811 153.59252 127.59894 154.46031 128.31987 155.328 129.04071 156.1958 129.76165 157.06362 130.4826 157.93129 131.20342 158.7991 131.92438 159.66677 132.6452 160.53458 133.36615 161.40238 134.08708 162.27007 134.8079 163.13787 135.52886 164.00556 136.24968 164.87335 136.97064 165.74117 137.69158 166.60883 138.41242 167.47663 139.13335 168.34432 139.85419 169.21212 140.57512 170.07993 141.29605 170.9476 142.0169 171.81542 142.73784 172.68308 143.45868"/>
<path transform="matrix(1,0,0,-1.00006,11.1380009,163.19783)" stroke-width=".3985" stroke-linecap="butt" stroke-dasharray="2.98883,2.98883" stroke-miterlimit="10" stroke-linejoin="miter" fill="none" stroke="#000000" d="M172.68231 0V143.45803"/>
</g>
</svg>
