<svg xmlns="http://www.w3.org/2000/svg" xmlns:xlink="http://www.w3.org/1999/xlink" xmlns:inkscape="http://www.inkscape.org/namespaces/inkscape" version="1.1" width="210" height="181" viewBox="0 0 210 181">
<defs>
<path id="font_1_1" d="M.2939911 .64004519C.2939911 .66400149 .2939911 .6660156 .2709961 .6660156 .20899964 .60227969 .12098694 .60227969 .08898926 .60227969V.57128909C.10899353 .57128909 .16799927 .57128909 .21998596 .5972748V.07902527C.21998596 .042999269 .21699524 .0309906 .1269989 .0309906H.09498596V0C.12998963 .0029907227 .21699524 .0029907227 .25698854 .0029907227 .29699708 .0029907227 .38398744 .0029907227 .4189911 0V.0309906H.3869934C.29699708 .0309906 .2939911 .041992189 .2939911 .07902527V.64004519Z"/>
<path id="font_1_2" d="M.1269989 .07699585 .23298645 .18003845C.3889923 .31811524 .44898988 .3721466 .44898988 .47216798 .44898988 .5860901 .35899354 .6660156 .23699951 .6660156 .12399292 .6660156 .049987794 .57411196 .049987794 .48516847 .049987794 .4291687 .099990848 .4291687 .102996829 .4291687 .11999512 .4291687 .15499878 .44117738 .15499878 .48217774 .15499878 .5081787 .13699341 .5341797 .101989749 .5341797 .09399414 .5341797 .09199524 .5341797 .08898926 .5331726 .11199951 .59806826 .1659851 .63500979 .22399903 .63500979 .31498719 .63500979 .35798646 .5541382 .35798646 .47216798 .35798646 .39215089 .30799867 .31311036 .25299073 .25108338L.06098938 .036987306C.049987794 .025985718 .049987794 .023986817 .049987794 0H.42099L.44898988 .17404175H.42399598C.4189911 .14402771 .4119873 .1000061 .4019928 .084991458 .394989 .07699585 .32899476 .07699585 .30699159 .07699585H.1269989Z"/>
<path id="font_1_3" d="M.2899933 .35191346C.37199403 .37893678 .42999269 .4490509 .42999269 .52809146 .42999269 .6100464 .34199525 .6660156 .24598694 .6660156 .14498902 .6660156 .068984989 .60606387 .068984989 .53009036 .068984989 .49710084 .09098816 .47808839 .11999512 .47808839 .15098572 .47808839 .17098999 .50009158 .17098999 .5290985 .17098999 .57910159 .12399292 .57910159 .10899353 .57910159 .13999939 .62802127 .20599365 .64100649 .24198914 .64100649 .2829895 .64100649 .33799745 .6190338 .33799745 .5290985 .33799745 .51708987 .33599855 .45906068 .30999757 .4149933 .27999879 .36691285 .24598694 .36390687 .22099304 .36291505 .21299744 .36190797 .18899536 .35990907 .18199158 .35990907 .17399597 .35890199 .16699219 .35791017 .16699219 .3479004 .16699219 .33691407 .17399597 .33691407 .19099427 .33691407H.23498535C.31698609 .33691407 .35398866 .2686615 .35398866 .17037964 .35398866 .034469606 .2849884 .0055389406 .24099732 .0055389406 .19799805 .0055389406 .12298584 .022491456 .08799744 .08137512 .12298584 .07637024 .1539917 .09837341 .1539917 .1363678 .1539917 .17237854 .1269989 .19238281 .09799194 .19238281 .07398987 .19238281 .041992189 .17837525 .041992189 .1343689 .041992189 .043441774 .1349945-.022460938 .24398804-.022460938 .3659973-.022460938 .45700074 .06838989 .45700074 .17037964 .45700074 .252594 .3939972 .33088685 .2899933 .35191346Z"/>
<path id="font_1_4" d="M.2939911 .16503906V.07800293C.2939911 .041992189 .2919922 .0309906 .21798706 .0309906H.19699097V0C.23799134 .0029907227 .2899933 .0029907227 .33198548 .0029907227 .37399293 .0029907227 .4269867 .0029907227 .46798707 0V.0309906H.44699098C.37298585 .0309906 .37098695 .041992189 .37098695 .07800293V.16503906H.47099305V.19602967H.37098695V.65075686C.37098695 .67074587 .37098695 .6767578 .35499574 .6767578 .34599305 .6767578 .34298707 .6767578 .33499146 .66474917L.027999878 .19602967V.16503906H.2939911M.2999878 .19602967H.055999757L.2999878 .5688019V.19602967Z"/>
<clipPath id="clip_2">
<path transform="matrix(1,0,0,-1.00006,-230.99,166.53421)" d="M242.8364 0H437.1055V161.39484H242.8364Z"/>
</clipPath>
<path id="font_3_95" d="M.7319946 .08753967C.7319946 .09353638 .7319946 .104537967 .71899417 .104537967 .70799258 .104537967 .70799258 .09555054 .70700076 .08854675 .70098879 .017532349 .66600039-.00047302247 .6409912-.00047302247 .59199526-.00047302247 .58399966 .05053711 .56999209 .14355469L.5569916 .22355652C.5389862 .28756715 .48999024 .3205719 .43499757 .3395691 .5319977 .36357118 .6100006 .4245758 .6100006 .502594 .6100006 .5986023 .49598695 .6826172 .34899903 .6826172H.034988405V.6516113H.05899048C.13598633 .6516113 .13798523 .64060977 .13798523 .604599V.077545169C.13798523 .04197693 .13598633 .0309906 .05899048 .0309906H.034988405V0C.070999149 .0029907227 .14199829 .0029907227 .18099976 .0029907227 .21998596 .0029907227 .29100038 .0029907227 .32699586 0V.0309906H.30299378C.22599793 .0309906 .22399903 .04197693 .22399903 .077926639V.3305359H.33898927C.35499574 .3305359 .39698792 .3305359 .43199159 .29658509 .46998597 .26063539 .46998597 .22969055 .46998597 .16279602 .46998597 .09788513 .46998597 .05795288 .5109863 .019989014 .5519867-.016464234 .6069946-.022460938 .6369934-.022460938 .71499636-.022460938 .7319946 .059524537 .7319946 .087524417V.08753967M.5069885 .5025635C.5069885 .43354798 .48298646 .35253907 .33499146 .35253907H.22399903V.6116028C.22399903 .6345978 .22399903 .64660647 .24598694 .6496124 .2559967 .6516113 .2849884 .6516113 .30499269 .6516113 .394989 .6516113 .5069885 .6476135 .5069885 .5025635Z"/>
<path id="font_3_50" d="M.4149933 .11933899C.4149933 .12934876 .40699769 .13134766 .4019928 .13134766 .3929901 .13134766 .3909912 .12535095 .3889923 .11734009 .35398866 .014251709 .2639923 .014251709 .2539978 .014251709 .20399475 .014251709 .1639862 .044281007 .14099121 .08131409 .11099243 .12934876 .11099243 .19540406 .11099243 .23144531H.3899994C.4119873 .23144531 .4149933 .23144531 .4149933 .2524414 .4149933 .35131837 .36099244 .4482422 .23599243 .4482422 .11999512 .4482422 .027999878 .34532167 .027999878 .22042847 .027999878 .08631897 .1329956-.0107421879 .24798584-.0107421879 .36999513-.0107421879 .4149933 .10032654 .4149933 .11933899M.34899903 .2524414H.11199951C.117996219 .40126039 .20199585 .426239 .23599243 .426239 .33898927 .426239 .34899903 .2913971 .34899903 .2524414Z"/>
<path id="font_3_59" d="M.4850006 .40411378C.4850006 .42111207 .47299195 .453125 .43399049 .453125 .4139862 .453125 .36999513 .44711305 .32798768 .40611268 .28599549 .43937684 .24398804 .4423828 .22200012 .4423828 .1289978 .4423828 .05999756 .37338258 .05999756 .29638673 .05999756 .25239564 .08198547 .21440125 .10699463 .19340515 .09399414 .17840576 .07598877 .14538574 .07598877 .11035156 .07598877 .07899475 .08898926 .04083252 .11999512 .020828248 .05999756 .003829956 .027999878-.039138795 .027999878-.07911682 .027999878-.15107727 .1269989-.20605469 .24899292-.20605469 .36698915-.20605469 .47099305-.15507508 .47099305-.07711792 .47099305-.042144777 .45700074 .008834839 .4059906 .036834718 .35299684 .064834598 .29499818 .064834598 .23399353 .064834598 .20899964 .064834598 .1659851 .064834598 .15899658 .065841678 .1269989 .069885257 .10598755 .101242069 .10598755 .13334656 .10598755 .13735962 .10598755 .16040039 .12298584 .18040467 .1619873 .15240479 .20298767 .14941406 .22200012 .14941406 .31498719 .14941406 .38398744 .21839905 .38398744 .2953949 .38398744 .3323822 .36799623 .36938478 .34298707 .39237977 .3789978 .42637635 .4149933 .43138124 .43299867 .43138124 .43299867 .43112184 .43998719 .43112184 .44299317 .43011476 .43199159 .42611695 .4269867 .41513063 .4269867 .40315248 .4269867 .38616944 .43998719 .37417604 .45599366 .37417604 .46598817 .37417604 .4850006 .3811798 .4850006 .4041443V.40411378M.30899049 .29626466C.30899049 .26930238 .30799867 .2373352 .29299928 .21235657 .2849884 .20037842 .2619934 .17240906 .22200012 .17240906 .1349945 .17240906 .1349945 .2722931 .1349945 .29527284 .1349945 .3222351 .13598633 .35420228 .15098572 .3791809 .15899658 .3913269 .18199158 .41937257 .22200012 .41937257 .30899049 .41937257 .30899049 .31922914 .30899049 .29618836V.29626466M.4189911-.07911682C.4189911-.13308716 .34799195-.18305969 .25-.18305969 .14898682-.18305969 .07998657-.13209534 .07998657-.07911682 .07998657-.03314209 .117996219 .003829956 .1619873 .0068359377H.22099304C.30699159 .0068359377 .4189911 .0068359377 .4189911-.07911682Z"/>
<path id="font_3_66" d="M.24699402 0V.0309906C.18099976 .0309906 .1769867 .035995485 .1769867 .075042728V.4423828L.036987306 .43066407V.3996582C.101989749 .3996582 .11099243 .3936615 .11099243 .3447113V.07595825C.11099243 .0309906 .099990848 .0309906 .032989503 .0309906V0L.14299011 .0029907227C.17799378 .0029907227 .21299744 .0009918213 .24699402 0M.19198609 .603775C.19198609 .6307678 .16899109 .6567688 .13899231 .6567688 .10499573 .6567688 .084991458 .6287689 .084991458 .603775 .084991458 .57676699 .10798645 .55078127 .13798523 .55078127 .17199707 .55078127 .19198609 .5787811 .19198609 .603775Z"/>
<path id="font_3_81" d="M.47099305 .21424866C.47099305 .34223939 .37098695 .4482422 .25 .4482422 .125 .4482422 .027999878 .3392334 .027999878 .21424866 .027999878 .085250858 .13198853-.0107421879 .24899292-.0107421879 .36999513-.0107421879 .47099305 .087249759 .47099305 .21424866M.3880005 .22224427C.3880005 .18624878 .3880005 .13224793 .3659973 .08824158 .34399415 .04324341 .2999878 .014251709 .25 .014251709 .20698548 .014251709 .16299439 .035247804 .13598633 .08125305 .11099243 .12524414 .11099243 .18624878 .11099243 .22224427 .11099243 .26124574 .11099243 .31523133 .1349945 .35923768 .1619873 .40522767 .20899964 .426239 .24899292 .426239 .29299928 .426239 .33599855 .40423585 .3619995 .36123658 .3880005 .3182373 .3880005 .26023866 .3880005 .22224427Z"/>
<path id="font_3_77" d="M.5349884 0V.0309906C.48298646 .0309906 .45799256 .0309906 .45700074 .061019899V.25221253C.45700074 .3383026 .45700074 .36932374 .42599488 .405365 .4119873 .42237855 .3789978 .4423828 .32099916 .4423828 .24798584 .4423828 .20098877 .39935304 .17298889 .33729554V.4423828L.03199768 .43066407V.3996582C.101989749 .3996582 .10998535 .39266969 .10998535 .34370423V.07595825C.10998535 .0309906 .09899902 .0309906 .03199768 .0309906V0L.14498902 .0029907227 .25698854 0V.0309906C.18998719 .0309906 .1789856 .0309906 .1789856 .07595825V.25978089C.1789856 .36431886 .25 .42037965 .31399537 .42037965 .3769989 .42037965 .3880005 .36631776 .3880005 .30926515V.076034549C.3880005 .0309906 .3769989 .0309906 .30999757 .0309906V0L.4229889 .0029907227 .5349884 0Z"/>
<path id="font_4_1" d="M.33399964 .30233766C.33999635 .32835389 .36299134 .42037965 .43299867 .42037965 .43798829 .42037965 .46199037 .42037965 .48298646 .40734864 .45498658 .402359 .43499757 .37734986 .43499757 .35334779 .43499757 .33735658 .44599916 .31835938 .47299195 .31835938 .49499513 .31835938 .5269928 .3363495 .5269928 .37635804 .5269928 .42837525 .46798707 .4423828 .43399049 .4423828 .37599183 .4423828 .34098817 .38935853 .32899476 .36634828 .3039856 .43237306 .25 .4423828 .22099304 .4423828 .116989139 .4423828 .05999756 .3133545 .05999756 .28834535 .05999756 .27833558 .069992069 .27833558 .07199097 .27833558 .07998657 .27833558 .08299255 .28033448 .084991458 .28933717 .11898804 .39535523 .18499756 .42037965 .21899414 .42037965 .23799134 .42037965 .272995 .4113617 .272995 .35334779 .272995 .32235719 .2559967 .25532533 .21899414 .11528015 .20298767 .053268434 .16799927 .011245728 .12399292 .011245728 .117996219 .011245728 .09498596 .011245728 .07398987 .024276734 .09899902 .029266358 .12098694 .05027771 .12098694 .07827759 .12098694 .105270389 .09899902 .11328125 .083999637 .11328125 .053985597 .11328125 .0289917 .08728027 .0289917 .055267335 .0289917 .009246826 .07899475-.0107421879 .12298584-.0107421879 .18899536-.0107421879 .22499085 .059280397 .22799683 .0652771 .23999024 .028274537 .27598573-.0107421879 .33599855-.0107421879 .43899537-.0107421879 .49598695 .118270877 .49598695 .14328003 .49598695 .1532898 .4869995 .1532898 .48399354 .1532898 .47499085 .1532898 .47299195 .14929199 .47099305 .14228821 .43798829 .03527832 .36999513 .011245728 .33799745 .011245728 .29899598 .011245728 .2829895 .043273927 .2829895 .07727051 .2829895 .09927368 .2889862 .121276859 .2999878 .16529846L.33399964 .30233766Z"/>
<path id="font_4_2" d="M.48599244 .38136292C.48999024 .39537049 .48999024 .39736939 .48999024 .40437318 .48999024 .42237855 .47599793 .43138124 .46099855 .43138124 .45098878 .43138124 .43499757 .42536927 .42599488 .41036988 .42399598 .405365 .41600038 .37435914 .4119873 .35635377 .40499879 .33035279 .397995 .30334474 .3919983 .27633668L.34700013 .09628296C.34298707 .08126831 .2999878 .011245728 .23399353 .011245728 .18299866 .011245728 .17199707 .055267335 .17199707 .0922699 .17199707 .1382904 .18899536 .20030213 .22299195 .28833009 .23899842 .3293457 .24299622 .3403473 .24299622 .36035157 .24299622 .405365 .21099854 .4423828 .16099549 .4423828 .06599426 .4423828 .0289917 .29733277 .0289917 .28833009 .0289917 .27833558 .038986207 .27833558 .040985109 .27833558 .050994874 .27833558 .051986696 .28033448 .056991579 .29634095 .083999637 .3903656 .12399292 .42037965 .1579895 .42037965 .1659851 .42037965 .18299866 .42037965 .18299866 .3883667 .18299866 .36335755 .17298889 .3373413 .1659851 .31834413 .12599182 .21231079 .10798645 .1552887 .10798645 .10827637 .10798645 .019256592 .17098999-.0107421879 .22999573-.0107421879 .2689972-.0107421879 .30299378 .0062561037 .33099366 .03425598 .31799317-.017745972 .30599977-.06674194 .2659912-.11973572 .23999024-.15385437 .20199585-.18309021 .1559906-.18309021 .14199829-.18309021 .09700012-.18005371 .07998657-.14074707 .09599304-.14074707 .10899353-.14074707 .12298584-.1287384 .1329956-.11973572 .14299011-.10673523 .14299011-.08773804 .14299011-.056747438 .115997318-.052734376 .10598755-.052734376 .08299255-.052734376 .049987794-.068740848 .049987794-.11773682 .049987794-.16796875 .09399414-.20507813 .1559906-.20507813 .25898744-.20507813 .3619995-.11373901 .3899994-.00074768069L.48599244 .38136292Z"/>
</defs>
<path transform="matrix(1,0,0,-1.00006,-230.99,166.53421)" stroke-width=".19925" stroke-linecap="butt" stroke-miterlimit="10" stroke-linejoin="miter" fill="none" stroke="#7f807f" d="M291.40367-2.12605V2.12605M339.97096-2.12605V2.12605M388.53825-2.12605V2.12605M437.1055-2.12605V2.12605"/>
<path transform="matrix(1,0,0,-1.00006,-230.99,166.53421)" stroke-width=".19925" stroke-linecap="butt" stroke-miterlimit="10" stroke-linejoin="miter" fill="none" stroke="#7f807f" d="M240.71051 53.79828H244.96227M240.71051 107.59656H244.96227M240.71051 161.39484H244.96227"/>
<path transform="matrix(1,0,0,-1.00006,-230.99,166.53421)" stroke-width=".3985" stroke-linecap="butt" stroke-miterlimit="10" stroke-linejoin="miter" fill="none" stroke="#000000" d="M242.8364 0H435.11299"/>
<path transform="matrix(1,0,0,-1.00006,204.12297,166.53421)" d="M1.99252 0-1.19551 1.59401 0 0-1.19551-1.59401"/>
<path transform="matrix(1,0,0,-1.00006,-230.99,166.53421)" stroke-width=".3985" stroke-linecap="butt" stroke-miterlimit="10" stroke-linejoin="miter" fill="none" stroke="#000000" d="M242.8364 0V159.40232"/>
<path transform="matrix(0,-1.00006,-1,-0,11.84639,7.122345)" d="M1.99252 0-1.19551 1.59401 0 0-1.19551-1.59401"/>
<use data-text="1" xlink:href="#font_1_1" transform="matrix(9.9626,0,0,-9.963197,57.92299,178.60094)"/>
<use data-text="2" xlink:href="#font_1_2" transform="matrix(9.9626,0,0,-9.963197,106.490009,178.60094)"/>
<use data-text="3" xlink:href="#font_1_3" transform="matrix(9.9626,0,0,-9.963197,155.058,178.60094)"/>
<use data-text="4" xlink:href="#font_1_4" transform="matrix(9.9626,0,0,-9.963197,203.62499,178.60094)"/>
<use data-text="1" xlink:href="#font_1_1" transform="matrix(9.9626,0,0,-9.963197,1.2189942,115.94318)"/>
<use data-text="2" xlink:href="#font_1_2" transform="matrix(9.9626,0,0,-9.963197,1.2189942,62.141954)"/>
<use data-text="3" xlink:href="#font_1_3" transform="matrix(9.9626,0,0,-9.963197,1.2189942,8.339722)"/>
<g clip-path="url(#clip_2)">
<path transform="matrix(1,0,0,-1.00006,-230.99,166.53421)" d="M291.40367 107.59656H388.53825V0H291.40367Z" fill="#b3ffb3"/>
<path transform="matrix(1,0,0,-1.00006,-230.99,166.53421)" stroke-width=".79701" stroke-linecap="butt" stroke-miterlimit="10" stroke-linejoin="miter" fill="none" stroke="#0000ff" d="M0 107.59656H2.44049 4.881 7.3215 9.76201 12.20251 14.64302 17.08353 19.52403 21.96454 24.40504 26.84555 29.28606 31.72656 34.16707 36.60757 39.04808 41.48857 43.9291 46.3696 48.8101 51.25061 53.69112 56.13162 58.57211 61.01263 63.45314 65.89363 68.33415 70.77466 73.21516 75.65567 78.09618 80.53668 82.97717 85.4177 87.8582 90.29869 92.73921 95.17972 97.62022 100.06071 102.50124 104.94174 107.38223 109.82275 112.26326 114.70375 117.14426 119.58478 122.02528 124.46577 126.9063 129.3468 131.7873 134.22782 136.66832 139.10881 141.54932 143.98984 146.43035 148.87084 151.31136 153.75186 156.19235 158.63286 161.07338 163.51387 165.95438 168.3949 170.8354 173.2759 175.7164 178.15692 180.59741 183.03792 185.47844 187.91893 190.35944 192.79996 195.24047 197.68096 200.12146 202.56198 205.00247 207.44298 209.8835 212.32399 214.7645 217.205 219.64553 222.08602 224.52652 226.96704 229.40753 231.84804 234.28855 236.72905 239.16956 241.61006 244.05059 246.49123 248.9315 251.37215 253.81244 256.2531 258.69374 261.13404 263.57469 266.01499 268.45564 270.8963 273.33656 275.7772 278.2175 280.65818 283.0988 285.5391 287.97975 290.42005 292.8607 295.30137 297.7416 300.18229 302.62257 305.06324 307.50386 309.94416 312.3848 314.8251 317.26576 319.7064 322.14668 324.58735 327.02763 329.4683 331.9089 334.3492 336.78987 339.23017 341.6708 344.11149 346.55174 348.9924 351.43266 353.87336 356.31398 358.75428 361.19493 363.63523 366.07588 368.5165 370.9568 373.39747 375.8377 378.2784 380.71907 383.15934 385.59999 388.04029 390.48094 392.92158 395.36186 397.8025 400.24278 402.68348 405.1241 407.5644 410.00505 412.44535 414.886 417.32664 419.7669 422.20759 424.64784 427.0885 429.52919 431.96946 434.4101 436.8504 439.29106 441.7317 444.17198 446.61265 449.0529 451.49357 453.93424 456.3745 458.81517 461.25547 463.6961 466.13676 468.57704 471.01768 473.45796 475.89863 478.3393 480.77958 483.2202 485.6605"/>
<use data-text="R" xlink:href="#font_3_95" transform="matrix(9.9626,0,0,-9.963197,93.966999,115.10913)"/>
<use data-text="e" xlink:href="#font_3_50" transform="matrix(9.9626,0,0,-9.963197,101.29947,115.10913)"/>
<use data-text="g" xlink:href="#font_3_59" transform="matrix(9.9626,0,0,-9.963197,105.72286,115.10913)"/>
<use data-text="i" xlink:href="#font_3_66" transform="matrix(9.9626,0,0,-9.963197,110.70416,115.10913)"/>
<use data-text="o" xlink:href="#font_3_81" transform="matrix(9.9626,0,0,-9.963197,113.47376,115.10913)"/>
<use data-text="n" xlink:href="#font_3_77" transform="matrix(9.9626,0,0,-9.963197,118.45506,115.10913)"/>
</g>
<use data-text="x" xlink:href="#font_4_1" transform="matrix(9.9626,0,0,-9.963197,196.902,163.014)"/>
<use data-text="y" xlink:href="#font_4_2" transform="matrix(9.9626,0,0,-9.963197,15.365997,12.938995)"/>
</svg>
