<svg xmlns="http://www.w3.org/2000/svg" xmlns:xlink="http://www.w3.org/1999/xlink" xmlns:inkscape="http://www.inkscape.org/namespaces/inkscape" version="1.1" width="211" height="178" viewBox="0 0 211 178">
<defs>
<path id="font_1_1" d="M.23899842 .68333438C.23899842 .6843262 .23899842 .69433596 .22599793 .69433596 .20298767 .69433596 .12998963 .6863251 .10398865 .6843262 .09599304 .68333438 .084991458 .6823273 .084991458 .6643219 .084991458 .6523285 .09399414 .6523285 .10899353 .6523285 .15699768 .6523285 .15899658 .6453247 .15899658 .6353302 .15899658 .6283264 .1499939 .5943451 .14498902 .573349L.06298828 .24731446C.050994874 .1973114 .04699707 .18130493 .04699707 .14628601 .04699707 .05126953 .099990848-.0107421879 .17399597-.0107421879 .2919922-.0107421879 .4149933 .1382904 .4149933 .28233338 .4149933 .37335206 .3619995 .4423828 .28199769 .4423828 .23599243 .4423828 .19499207 .41337586 .16499329 .38235475L.23899842 .68333438M.14498902 .30534364C.15098572 .3273468 .15098572 .3293457 .1599884 .3403473 .20899964 .405365 .2539978 .42037965 .27999879 .42037965 .31599427 .42037965 .34298707 .3903656 .34298707 .32633973 .34298707 .26733399 .30999757 .15229798 .2919922 .11428833 .25898744 .04725647 .21299744 .011245728 .17399597 .011245728 .13999939 .011245728 .10699463 .038253786 .10699463 .11227417 .10699463 .13128662 .10699463 .15029907 .12298584 .21331787L.14498902 .30534364Z"/>
<path id="font_2_1" d="M.5049896 .18203736H.47099305C.46798707 .16001892 .45799256 .100997928 .44499208 .09098816 .43699647 .084991458 .3600006 .084991458 .34599305 .084991458H.1619873C.2669983 .17803955 .3019867 .20603943 .3619995 .25306703 .43598939 .312088 .5049896 .374115 .5049896 .46914674 .5049896 .5900879 .39898683 .6640625 .2709961 .6640625 .14698792 .6640625 .06298828 .57710269 .06298828 .4851532 .06298828 .43414308 .10598755 .42915345 .115997318 .42915345 .13999939 .42915345 .16899109 .44615174 .16899109 .48214723 .16899109 .5001526 .1619873 .53515627 .10998535 .53515627 .14099121 .6060791 .20899964 .62805178 .2559967 .62805178 .35598756 .62805178 .4079895 .5501404 .4079895 .46914674 .4079895 .38212586 .34599305 .3130951 .31399537 .27708436L.07299805 .038986207C.06298828 .02999878 .06298828 .027999878 .06298828 0H.47499085L.5049896 .18203736Z"/>
<clipPath id="clip_3">
<path transform="matrix(1.00005,0,0,-1.00008,15.609032,163.20177)" d="M0 0H194.27368V161.3918H0Z"/>
</clipPath>
</defs>
<path transform="matrix(1.00005,0,0,-1.00008,15.609032,163.20177)" stroke-width=".19925" stroke-linecap="butt" stroke-miterlimit="10" stroke-linejoin="miter" fill="none" stroke="#7f807f" d="M155.41895-2.12592V2.12592"/>
<path transform="matrix(1.00005,0,0,-1.00008,15.609032,163.20177)" stroke-width=".19925" stroke-linecap="butt" stroke-miterlimit="10" stroke-linejoin="miter" fill="none" stroke="#7f807f" d="M-2.12592 129.11344H2.12592"/>
<path transform="matrix(1.00005,0,0,-1.00008,15.609032,163.20177)" stroke-width=".3985" stroke-linecap="butt" stroke-miterlimit="10" stroke-linejoin="miter" fill="none" stroke="#000000" d="M0 0H192.28116"/>
<path transform="matrix(1.00005,0,0,-1.00008,207.89978,163.20177)" d="M1.99252 0-1.19551 1.59401 0 0-1.19551-1.59401"/>
<path transform="matrix(1.00005,0,0,-1.00008,15.609032,163.20177)" stroke-width=".3985" stroke-linecap="butt" stroke-miterlimit="10" stroke-linejoin="miter" fill="none" stroke="#000000" d="M0 0V159.39928"/>
<path transform="matrix(0,-1.00008,-1.00005,-0,15.609032,3.789734)" d="M1.99252 0-1.19551 1.59401 0 0-1.19551-1.59401"/>
<use data-text="b" xlink:href="#font_1_1" transform="matrix(9.963098,0,0,-9.963397,168.8977,175.76677)"/>
<use data-text="b" xlink:href="#font_1_1" transform="matrix(9.963098,0,0,-9.963397,1.2173157,38.132768)"/>
<use data-text="2" xlink:href="#font_2_1" transform="matrix(6.9741489,0,0,-6.974358,5.4935305,34.516489)"/>
<g clip-path="url(#clip_3)">
<path transform="matrix(1.00005,0,0,-1.00008,15.609032,163.20177)" d="M0 0 3.17178 .05376 6.34357 .21509 9.51535 .48395 12.68713 .86037 15.85892 1.34433 19.03073 1.93584 22.20251 2.6349 25.3743 3.44153 28.54608 4.35568 31.71786 5.3774 34.88968 6.50664 38.06146 7.74344 41.23325 9.0878 44.40503 10.53969 47.57681 12.09912 50.74863 13.76613 53.92041 15.54066 57.0922 17.42274 60.26398 19.41238 63.43576 21.50958 66.60757 23.71432 69.77936 26.02658 72.95114 28.44643 76.12292 30.97382 79.29472 33.6087 82.4665 36.35117 85.6383 39.20128 88.81009 42.15881 91.98187 45.22392 95.15366 48.39655 98.32545 51.67673 101.49725 55.0645 104.66904 58.55992 107.84082 62.16272 111.01262 65.87314 114.1844 69.69107 117.3562 73.61653 120.52798 77.64955 123.69977 81.79028 126.87155 86.0384 130.04335 90.39407 133.21515 94.85727 136.38694 99.42802 139.55872 104.10632 142.7305 108.89236 145.9023 113.78578 149.07408 118.78673 152.24588 123.89523 155.41767 129.11127 155.41895 0H0Z" fill="#b3ffb3"/>
<path transform="matrix(1.00005,0,0,-1.00008,15.609032,163.20177)" stroke-width=".79701" stroke-linecap="butt" stroke-miterlimit="10" stroke-linejoin="miter" fill="none" stroke="#0000ff" d="M0 0 .78098 .00325 1.56198 .01302 2.34297 .02933 3.12396 .05215 3.90497 .0815 4.68596 .11736 5.46696 .15973 6.24794 .20863 7.02895 .26407 7.80995 .32602 8.59093 .39449 9.37193 .46948 10.15294 .551 10.93393 .639 11.71492 .73357 12.49591 .83463 13.27692 .94221 14.05792 1.05634 14.8389 1.17696 15.6199 1.30412 16.40091 1.43779 17.18188 1.57799 17.96289 1.7247 18.74388 1.87794 19.52489 2.03769 20.30588 2.20396 21.08687 2.37675 21.86787 2.55608 22.64886 2.74191 23.42986 2.93428 24.21086 3.13315 24.99185 3.33856 25.77284 3.55048 26.55385 3.76892 27.33484 3.99388 28.11584 4.22537 28.89682 4.46336 29.67783 4.70789 30.45883 4.95894 31.2398 5.2165 32.02081 5.48059 32.80182 5.7512 33.58281 6.02832 34.3638 6.31198 35.14479 6.60216 35.9258 6.89883 36.7068 7.20206 37.48778 7.51178 38.26878 7.82802 39.04977 8.15079 39.83076 8.4801 40.61177 8.8159 41.39276 9.15825 42.17377 9.5071 42.95476 9.86247 43.73575 10.22437 44.51675 10.59279 45.29774 10.96771 46.07874 11.34918 46.85974 11.73715 47.64073 12.13165 48.42172 12.53267 49.20273 12.94022 49.98372 13.35428 50.76472 13.77486 51.5457 14.20197 52.3267 14.63559 53.10771 15.07573 53.8887 15.5224 54.6697 15.97559 55.45068 16.43529 56.23169 16.90152 57.01268 17.37425 57.79367 17.85353 58.57468 18.33931 59.35568 18.83162 60.13666 19.33044 60.91766 19.8358 61.69865 20.34767 62.47964 20.86607 63.26065 21.39099 64.04164 21.92241 64.82265 22.46037 65.60364 23.00484 66.38463 23.55583 67.16563 24.11336 67.94662 24.6774 68.72762 25.24794 69.50862 25.82503 70.28961 26.40863 71.0706 26.99873 71.85161 27.59538 72.6326 28.19853 73.4136 28.80823 74.19458 29.42442 74.97559 30.04715 75.75659 30.67638 76.53758 31.31215 77.31857 31.95444 78.09956 32.60327 78.88062 33.25862 79.66151 33.92038 80.44258 34.58884 81.2235 35.26366 82.00456 35.94502 82.78558 36.633 83.5665 37.32741 84.34756 38.02843 85.12848 38.73584 85.90953 39.4499 86.69057 40.17052 87.4715 40.89749 88.25253 41.63113 89.03345 42.37119 89.81451 43.11786 90.59555 43.87094 91.37646 44.63052 92.15752 45.39674 92.93843 46.16937 93.71948 46.94865 94.50053 47.7345 95.28145 48.52667 96.0625 49.3255 96.8434 50.13065 97.62447 50.94263 98.40552 51.76091 99.18643 52.58571 99.96747 53.41713 100.7484 54.25504 101.52945 55.09952 102.31049 55.95052 103.0914 56.8079 103.87245 57.67195 104.65338 58.54225 105.43442 59.41948 106.21547 60.303 106.99638 61.193 107.77745 62.08963 108.55835 62.99269 109.3394 63.90237 110.12045 64.81859 110.90135 65.7412 111.68242 66.67044 112.46333 67.60596 113.24438 68.54825 114.02542 69.49712 114.80634 70.45227 115.5874 71.41418 116.36832 72.3824 117.14935 73.3573 117.9304 74.33871 118.71132 75.32654 119.49237 76.32106 120.27328 77.32185 121.05435 78.32924 121.83539 79.34325 122.61629 80.36366 123.39735 81.39075 124.17827 82.42422 124.95932 83.46434 125.74036 84.51097 126.52129 85.564 127.30234 86.62366 128.08324 87.6897 128.8643 88.76228 129.64534 89.8415 130.42627 90.92712 131.2073 92.01942 131.98822 93.11806 132.76929 94.22339 133.55033 95.33527 134.33124 96.45346 135.11229 97.57834 135.8932 98.70963 136.67426 99.84738 137.4553 100.9918 138.23622 102.14265 139.01728 103.30014 139.79819 104.46399 140.57924 105.63454 141.36029 106.81158 142.14119 107.99503 142.92224 109.18513 143.70317 110.38158 144.48423 111.58472 145.26526 112.79424 146.04618 114.01024 146.82724 115.23294 147.60816 116.46199 148.38919 117.69775 149.17024 118.94 149.95116 120.18861 150.73221 121.44395 151.51313 122.70543 152.29418 123.974 153.07523 125.24866 153.85613 126.52988 154.63719 127.81778 155.4181 129.11205"/>
<path transform="matrix(1.00005,0,0,-1.00008,15.609032,163.20177)" stroke-width=".3985" stroke-linecap="butt" stroke-dasharray="2.98883,2.98883" stroke-miterlimit="10" stroke-linejoin="miter" fill="none" stroke="#000000" d="M155.41895 0V129.11344"/>
</g>
</svg>
