<svg xmlns="http://www.w3.org/2000/svg" xmlns:xlink="http://www.w3.org/1999/xlink" xmlns:inkscape="http://www.inkscape.org/namespaces/inkscape" version="1.1" width="212" height="178" viewBox="0 0 212 178">
<defs>
<path id="font_1_2" d="M.37298585 .37835694C.35499574 .41537477 .32598878 .4423828 .2809906 .4423828 .1639862 .4423828 .039993287 .29533387 .039993287 .14929199 .039993287 .055267335 .09498596-.0107421879 .17298889-.0107421879 .19299317-.0107421879 .24299622-.0067443849 .30299378 .06427002 .31098939 .022247315 .34599305-.0107421879 .3939972-.0107421879 .42900086-.0107421879 .45199586 .012252808 .46798707 .044265748 .4850006 .08027649 .49798585 .14129639 .49798585 .14329529 .49798585 .1532898 .4889984 .1532898 .48599244 .1532898 .47599793 .1532898 .47499085 .14929199 .47200013 .13528443 .45498658 .07026672 .43699647 .011245728 .3959961 .011245728 .36898805 .011245728 .3659973 .037261964 .3659973 .057266237 .3659973 .07926941 .36799623 .08728027 .3789978 .13128662 .3899994 .17329407 .3919983 .18330384 .40098573 .22131348L.43699647 .36135865C.44400025 .38935853 .44400025 .39135743 .44400025 .39537049 .44400025 .41236878 .43199159 .42237855 .4149933 .42237855 .3909912 .42237855 .37599183 .4003601 .37298585 .37835694M.30799867 .119277957C.30299378 .10127258 .30299378 .09927368 .28799439 .08227539 .24398804 .027252198 .20298767 .011245728 .1749878 .011245728 .125 .011245728 .11099243 .06626892 .11099243 .105285648 .11099243 .1552887 .14299011 .27833558 .1659851 .32434083 .19699097 .38336183 .24198914 .42037965 .28199769 .42037965 .34700013 .42037965 .36099244 .3383484 .36099244 .33235169 .36099244 .32633973 .35899354 .32034303 .35798646 .31533814L.30799867 .119277957Z"/>
<path id="font_1_3" d="M.23899842 .68333438C.23899842 .6843262 .23899842 .69433596 .22599793 .69433596 .20298767 .69433596 .12998963 .6863251 .10398865 .6843262 .09599304 .68333438 .084991458 .6823273 .084991458 .6643219 .084991458 .6523285 .09399414 .6523285 .10899353 .6523285 .15699768 .6523285 .15899658 .6453247 .15899658 .6353302 .15899658 .6283264 .1499939 .5943451 .14498902 .573349L.06298828 .24731446C.050994874 .1973114 .04699707 .18130493 .04699707 .14628601 .04699707 .05126953 .099990848-.0107421879 .17399597-.0107421879 .2919922-.0107421879 .4149933 .1382904 .4149933 .28233338 .4149933 .37335206 .3619995 .4423828 .28199769 .4423828 .23599243 .4423828 .19499207 .41337586 .16499329 .38235475L.23899842 .68333438M.14498902 .30534364C.15098572 .3273468 .15098572 .3293457 .1599884 .3403473 .20899964 .405365 .2539978 .42037965 .27999879 .42037965 .31599427 .42037965 .34298707 .3903656 .34298707 .32633973 .34298707 .26733399 .30999757 .15229798 .2919922 .11428833 .25898744 .04725647 .21299744 .011245728 .17399597 .011245728 .13999939 .011245728 .10699463 .038253786 .10699463 .11227417 .10699463 .13128662 .10699463 .15029907 .12298584 .21331787L.14498902 .30534364Z"/>
<path id="font_1_1" d="M.5089874 .40376283C.5079956 .40675355 .5039978 .41474916 .5039978 .41775514 .5039978 .41874696 .5219879 .43273927 .5329895 .44073487L.70799258 .5756531C.8019867 .64460757 .84098818 .64860537 .87098696 .6516113 .8789978 .65260317 .8889923 .6536102 .8889923 .6716156 .8889923 .6756134 .8860016 .6826172 .8779907 .6826172 .85598757 .6826172 .83099368 .6796112 .8069916 .6796112 .7709961 .6796112 .7319946 .6826172 .69599917 .6826172 .68899539 .6826172 .6769867 .6826172 .6769867 .6626129 .6769867 .65560916 .6819916 .65260317 .68899539 .6516113 .71099856 .6496124 .7200012 .64460757 .7200012 .63061526 .7200012 .6126251 .6899872 .5896454 .6839905 .5846405L.2939911 .28483583 .37399293 .6056366C.3829956 .6416168 .3849945 .6516113 .45799256 .6516113 .48298646 .6516113 .49198915 .6516113 .49198915 .6716156 .49198915 .680603 .48399354 .6826172 .47799684 .6826172 .44999696 .6826172 .37799073 .6796112 .34999085 .6796112 .32099916 .6796112 .25 .6826172 .22099304 .6826172 .21398926 .6826172 .20098877 .6826172 .20098877 .66360476 .20098877 .6516113 .20999146 .6516113 .22999573 .6516113 .24299622 .6516113 .26098634 .65060427 .272995 .6496124 .2889862 .6476135 .29499818 .64460757 .29499818 .6336212 .29499818 .6296234 .2939911 .62661746 .29100038 .614624L.15699768 .07795715C.14698792 .038986207 .14498902 .0309906 .06599426 .0309906 .04899597 .0309906 .037994386 .0309906 .037994386 .011993408 .037994386 0 .049987794 0 .052993776 0 .08099365 0 .1519928 .0029907227 .17999268 .0029907227 .20098877 .0029907227 .22299195 .0019989014 .24398804 .0019989014 .2659912 .0019989014 .28799439 0 .30899049 0 .31599427 0 .32899476 0 .32899476 .019989014 .32899476 .0309906 .31999208 .0309906 .30099488 .0309906 .2639923 .0309906 .23599243 .0309906 .23599243 .048980714 .23599243 .05596924 .24198914 .07795715 .24499512 .09295654 .25898744 .14492798 .27198792 .19789124 .2849884 .24986267L.43399049 .3657837 .5499878 .096954349C.56199648 .06996155 .56199648 .06796265 .56199648 .061965944 .56199648 .03199768 .5189972 .0309906 .5099945 .0309906 .49899293 .0309906 .48799134 .0309906 .48799134 .010986328 .48799134 0 .5 0 .5019989 0 .5419922 0 .58399966 .0029907227 .6239929 .0029907227 .6459961 .0029907227 .69999697 0 .7220001 0 .72698977 0 .73999026 0 .73999026 .019989014 .73999026 .0309906 .72898867 .0309906 .7200012 .0309906 .67900088 .03199768 .66600039 .040985109 .651001 .07595825L.5089874 .40376283Z"/>
<clipPath id="clip_2">
<path transform="matrix(1.00005,0,0,-1.00008,-199.82273,163.20278)" d="M215.85289 0H410.12049V161.39257H215.85289Z"/>
</clipPath>
</defs>
<path transform="matrix(1.00005,0,0,-1.00008,-199.82273,163.20278)" stroke-width=".19925" stroke-linecap="butt" stroke-miterlimit="10" stroke-linejoin="miter" fill="none" stroke="#7f807f" d="M259.02348-2.12589V2.12589M388.5352-2.12589V2.12589"/>
<path transform="matrix(1.00005,0,0,-1.00008,-199.82273,163.20278)" stroke-width=".19925" stroke-linecap="butt" stroke-miterlimit="10" stroke-linejoin="miter" fill="none" stroke="#7f807f" d="M213.72695 92.22432H217.9788"/>
<path transform="matrix(1.00005,0,0,-1.00008,-199.82273,163.20278)" stroke-width=".3985" stroke-linecap="butt" stroke-miterlimit="10" stroke-linejoin="miter" fill="none" stroke="#000000" d="M215.85289 0H408.12797"/>
<path transform="matrix(1.00005,0,0,-1.00008,208.32563,163.20278)" d="M1.99252 0-1.19551 1.59401 0 0-1.19551-1.59401"/>
<path transform="matrix(1.00005,0,0,-1.00008,-199.82273,163.20278)" stroke-width=".3985" stroke-linecap="butt" stroke-miterlimit="10" stroke-linejoin="miter" fill="none" stroke="#000000" d="M215.85289 0V159.40004"/>
<path transform="matrix(0,-1.00008,-1.00005,-0,16.040955,3.789978)" d="M1.99252 0-1.19551 1.59401 0 0-1.19551-1.59401"/>
<use data-text="a" xlink:href="#font_1_2" transform="matrix(9.963098,0,0,-9.963397,56.58011,173.13857)"/>
<use data-text="b" xlink:href="#font_1_3" transform="matrix(9.963098,0,0,-9.963397,186.59357,175.76778)"/>
<use data-text="K" xlink:href="#font_1_1" transform="matrix(9.963098,0,0,-9.963397,1.2203217,74.37567)"/>
<g clip-path="url(#clip_2)">
<path transform="matrix(1.00005,0,0,-1.00008,-199.82273,163.20278)" d="M259.02348 92.22432H388.5352V0H259.02348Z" fill="#b3ffb3"/>
<path transform="matrix(1.00005,0,0,-1.00008,-199.82273,163.20278)" stroke-width=".79701" stroke-linecap="butt" stroke-miterlimit="10" stroke-linejoin="miter" fill="none" stroke="#0000ff" d="M0 92.22432H2.1693 4.33862 6.50795 8.67726 10.84659 13.01591 15.18523 17.35455 19.52388 21.6932 23.86252 26.03185 28.20117 30.37048 32.53981 34.70914 36.87845 39.04778 41.21709 43.38643 45.55573 47.72505 49.89438 52.06369 54.23302 56.40234 58.57167 60.74098 62.91031 65.07964 67.24895 69.41827 71.5876 73.75693 75.92624 78.09557 80.2649 82.4342 84.60353 86.77286 88.94217 91.11148 93.2808 95.45013 97.61945 99.78877 101.9581 104.12741 106.29674 108.46606 110.63539 112.8047 114.97403 117.14336 119.31267 121.482 123.65132 125.82065 127.98996 130.15929 132.3286 134.49791 136.66724 138.83657 141.00588 143.1752 145.34453 147.51386 149.68317 151.8525 154.02182 156.19113 158.36046 160.52979 162.69911 164.86843 167.03775 169.20708 171.37639 173.54572 175.71503 177.88436 180.05367 182.22299 184.39232 186.56163 188.73096 190.90029 193.0696 195.23892 197.40825 199.57758 201.74689 203.91622 206.08554 208.25485 210.42418 212.5935 214.76284 216.93215 219.1016 221.27072 223.44017 225.60929 227.77875 229.9482 232.11731 234.28678 236.4559 238.62535 240.7948 242.96393 245.13338 247.3025 249.47197 251.64142 253.81053 255.98 258.1491 260.31858 262.488 264.65715 266.8266 268.9957 271.1652 273.33464 275.50376 277.6732 279.84233 282.01179 284.18125 286.35038 288.5198 290.68894 292.8584 295.02787 297.19697 299.36643 301.53556 303.70503 305.87446 308.04359 310.21305 312.38215 314.5516 316.72108 318.89018 321.05964 323.22877 325.39823 327.56767 329.7368 331.90626 334.07536 336.24485 338.41429 340.5834 342.75285 344.92198 347.09147 349.2609 351.43003 353.59947 355.7686 357.93803 360.1075 362.2766 364.44606 366.6152 368.78465 370.9541 373.1232 375.2927 377.4618 379.63127 381.8007 383.96983 386.13929 388.3084 390.47789 392.6473 394.81645 396.9859 399.155 401.32447 403.49394 405.66304 407.8325 410.00163 412.17109 414.3405 416.50965 418.6791 420.84825 423.01768 425.18714 427.35627 429.52574 431.69486"/>
<path transform="matrix(1.00005,0,0,-1.00008,-199.82273,163.20278)" stroke-width=".3985" stroke-linecap="butt" stroke-dasharray="2.98883,2.98883" stroke-miterlimit="10" stroke-linejoin="miter" fill="none" stroke="#000000" d="M259.02348 0V92.22432"/>
<path transform="matrix(1.00005,0,0,-1.00008,-199.82273,163.20278)" stroke-width=".3985" stroke-linecap="butt" stroke-dasharray="2.98883,2.98883" stroke-miterlimit="10" stroke-linejoin="miter" fill="none" stroke="#000000" d="M388.5352 0V92.22432"/>
</g>
</svg>
