<svg xmlns="http://www.w3.org/2000/svg" xmlns:xlink="http://www.w3.org/1999/xlink" xmlns:inkscape="http://www.inkscape.org/namespaces/inkscape" version="1.1" width="305" height="185" viewBox="0 0 305 185">
<defs>
<path id="font_1_1" d="M.6589966 .23046875C.6759949 .23046875 .69400027 .23046875 .69400027 .25045777 .69400027 .27046205 .6759949 .27046205 .6589966 .27046205H.117996219C.100997928 .27046205 .08299255 .27046205 .08299255 .25045777 .08299255 .23046875 .100997928 .23046875 .117996219 .23046875H.6589966Z"/>
<path id="font_2_5" d="M.2899933 .35191346C.37199403 .37893678 .42999269 .4490509 .42999269 .52809146 .42999269 .6100464 .34199525 .6660156 .24598694 .6660156 .14498902 .6660156 .068984989 .60606387 .068984989 .53009036 .068984989 .49710084 .09098816 .47808839 .11999512 .47808839 .15098572 .47808839 .17098999 .50009158 .17098999 .5290985 .17098999 .57910159 .12399292 .57910159 .10899353 .57910159 .13999939 .62802127 .20599365 .64100649 .24198914 .64100649 .2829895 .64100649 .33799745 .6190338 .33799745 .5290985 .33799745 .51708987 .33599855 .45906068 .30999757 .4149933 .27999879 .36691285 .24598694 .36390687 .22099304 .36291505 .21299744 .36190797 .18899536 .35990907 .18199158 .35990907 .17399597 .35890199 .16699219 .35791017 .16699219 .3479004 .16699219 .33691407 .17399597 .33691407 .19099427 .33691407H.23498535C.31698609 .33691407 .35398866 .2686615 .35398866 .17037964 .35398866 .034469606 .2849884 .0055389406 .24099732 .0055389406 .19799805 .0055389406 .12298584 .022491456 .08799744 .08137512 .12298584 .07637024 .1539917 .09837341 .1539917 .1363678 .1539917 .17237854 .1269989 .19238281 .09799194 .19238281 .07398987 .19238281 .041992189 .17837525 .041992189 .1343689 .041992189 .043441774 .1349945-.022460938 .24398804-.022460938 .3659973-.022460938 .45700074 .06838989 .45700074 .17037964 .45700074 .252594 .3939972 .33088685 .2899933 .35191346Z"/>
<path id="font_2_4" d="M.1269989 .07699585 .23298645 .18003845C.3889923 .31811524 .44898988 .3721466 .44898988 .47216798 .44898988 .5860901 .35899354 .6660156 .23699951 .6660156 .12399292 .6660156 .049987794 .57411196 .049987794 .48516847 .049987794 .4291687 .099990848 .4291687 .102996829 .4291687 .11999512 .4291687 .15499878 .44117738 .15499878 .48217774 .15499878 .5081787 .13699341 .5341797 .101989749 .5341797 .09399414 .5341797 .09199524 .5341797 .08898926 .5331726 .11199951 .59806826 .1659851 .63500979 .22399903 .63500979 .31498719 .63500979 .35798646 .5541382 .35798646 .47216798 .35798646 .39215089 .30799867 .31311036 .25299073 .25108338L.06098938 .036987306C.049987794 .025985718 .049987794 .023986817 .049987794 0H.42099L.44898988 .17404175H.42399598C.4189911 .14402771 .4119873 .1000061 .4019928 .084991458 .394989 .07699585 .32899476 .07699585 .30699159 .07699585H.1269989Z"/>
<path id="font_2_3" d="M.2939911 .64004519C.2939911 .66400149 .2939911 .6660156 .2709961 .6660156 .20899964 .60227969 .12098694 .60227969 .08898926 .60227969V.57128909C.10899353 .57128909 .16799927 .57128909 .21998596 .5972748V.07902527C.21998596 .042999269 .21699524 .0309906 .1269989 .0309906H.09498596V0C.12998963 .0029907227 .21699524 .0029907227 .25698854 .0029907227 .29699708 .0029907227 .38398744 .0029907227 .4189911 0V.0309906H.3869934C.29699708 .0309906 .2939911 .041992189 .2939911 .07902527V.64004519Z"/>
<path id="font_2_6" d="M.2939911 .16503906V.07800293C.2939911 .041992189 .2919922 .0309906 .21798706 .0309906H.19699097V0C.23799134 .0029907227 .2899933 .0029907227 .33198548 .0029907227 .37399293 .0029907227 .4269867 .0029907227 .46798707 0V.0309906H.44699098C.37298585 .0309906 .37098695 .041992189 .37098695 .07800293V.16503906H.47099305V.19602967H.37098695V.65075686C.37098695 .67074587 .37098695 .6767578 .35499574 .6767578 .34599305 .6767578 .34298707 .6767578 .33499146 .66474917L.027999878 .19602967V.16503906H.2939911M.2999878 .19602967H.055999757L.2999878 .5688019V.19602967Z"/>
<path id="font_2_7" d="M.44898988 .20022583C.44898988 .3193512 .36698915 .41944886 .25898744 .41944886 .21099854 .41944886 .16799927 .40345765 .13198853 .36842347V.5637665C.1519928 .5577698 .18499756 .55078127 .21699524 .55078127 .33999635 .55078127 .4099884 .6417694 .4099884 .6547699 .4099884 .6607666 .40699769 .6657715 .3999939 .6657715 .39898683 .6657715 .39698792 .6657715 .3919983 .66278079 .37199403 .6537781 .32299806 .6337738 .2559967 .6337738 .21598816 .6337738 .16999817 .6407776 .12298584 .6617737 .114990238 .66477969 .11299133 .66477969 .11099243 .66477969 .100997928 .66477969 .100997928 .6567688 .100997928 .6407776V.34439088C.100997928 .32637025 .100997928 .31835938 .114990238 .31835938 .12199402 .31835938 .12399292 .32136537 .12799073 .32736207 .13899231 .3433838 .17599488 .39746095 .25698854 .39746095 .30899049 .39746095 .33399964 .35139466 .34199525 .33337403 .35798646 .29632569 .3600006 .25727845 .3600006 .20722962 .3600006 .17222595 .3600006 .11222839 .33599855 .07035828 .31199647 .031463624 .2749939 .0055389406 .22898865 .0055389406 .1559906 .0055389406 .09899902 .058380128 .08198547 .11723328 .084991458 .1162262 .08799744 .115234378 .09899902 .115234378 .13198853 .115234378 .14898682 .14022827 .14898682 .16423035 .14898682 .18823242 .13198853 .21322632 .09899902 .21322632 .084991458 .21322632 .049987794 .20622254 .049987794 .16023255 .049987794 .07434082 .11898804-.022460938 .23098755-.022460938 .34700013-.022460938 .44898988 .073349 .44898988 .20022583Z"/>
<clipPath id="clip_3">
<path transform="matrix(1.00008,0,0,-1,6.5834047,238.31401)" d="M0 54.58118H295.3197V236.51845H0Z"/>
</clipPath>
<path id="font_4_85" d="M.34098817-.23803711C.34098817-.23303223 .33799745-.23002625 .33198548-.22303772 .20298767-.105026248 .1639862 .07498169 .1639862 .24998474 .1639862 .40498353 .19400025 .59298709 .33499146 .72698977 .33898927 .73098757 .34098817 .7339783 .34098817 .73898318 .34098817 .74598696 .33599855 .75 .32899476 .75 .31698609 .75 .22698975 .6779785 .17298889 .568985 .125 .47297669 .100997928 .36997987 .100997928 .25097657 .100997928 .17897034 .10998535 .064971927 .16499329-.053024293 .22399903-.17602539 .31698609-.24902344 .32899476-.24902344 .33599855-.24902344 .34098817-.24502564 .34098817-.23803711Z"/>
<path id="font_4_64" d="M.2849884 .1850586V.24707031H.010986328V.1850586H.2849884Z"/>
<path id="font_4_107" d="M.46199037 .17704773H.43399049C.43199159 .16404724 .42399598 .10501099 .41099549 .08900452 .40499879 .07998657 .33599855 .07998657 .31599427 .07998657H.13798523L.23699951 .17404175C.40098573 .3161316 .46199037 .36915589 .46199037 .4711914 .46199037 .5860901 .36698915 .6660156 .24398804 .6660156 .1289978 .6660156 .050994874 .575119 .050994874 .4841919 .050994874 .43418885 .09399414 .42919923 .102996829 .42919923 .125 .42919923 .15499878 .44519044 .15499878 .48120118 .15499878 .51119998 .13398743 .5332031 .102996829 .5332031 .09799194 .5332031 .09498596 .5332031 .09098816 .53219607 .114990238 .6030731 .1789856 .63500979 .23298645 .63500979 .33499146 .63500979 .36999513 .5401764 .36999513 .4711914 .36999513 .36915589 .29299928 .28611756 .24499512 .23408509L.06199646 .035995485C.050994874 .024993897 .050994874 .022994996 .050994874 0H.43399049L.46199037 .17704773Z"/>
<path id="font_4_45" d="M.20698548 .0019989014C.20698548 .070999149 .18099976 .10798645 .14199829 .10798645 .10699463 .10798645 .08799744 .08099365 .08799744 .053985597 .08799744 .026992798 .10699463 0 .14199829 0 .16699219 0 .18199158 .015991211 .18199158 .015991211 .18199158-.017044068 .18199158-.09919739 .10598755-.17132569 .101989749-.17633057 .101989749-.18135071 .101989749-.18135071 .101989749-.18635559 .10798645-.19335938 .114990238-.19335938 .12599182-.19335938 .20698548-.1162262 .20698548 .0019989014Z"/>
<path id="font_4_101" d="M.46998597 .20277405C.46998597 .32977296 .37799073 .42578126 .2649994 .42578126 .20498657 .42578126 .1619873 .3907776 .13398743 .33078004 .13398743 .43276979 .14498902 .4897766 .17199707 .54177859 .19198609 .58277896 .24099732 .64100649 .31498719 .64100649 .33499146 .64100649 .3809967 .63697817 .4039917 .6007843 .36698915 .6007843 .35099793 .5817871 .35099793 .55477908 .35099793 .5287781 .36898805 .50878909 .39698792 .50878909 .4249878 .50878909 .44400025 .5267792 .44400025 .55677798 .44400025 .61299136 .4039917 .6660156 .31298829 .6660156 .18399048 .6660156 .042999269 .5389252 .042999269 .31576539 .042999269 .044555665 .16499329-.022460938 .25898744-.022460938 .36999513-.022460938 .46998597 .07052612 .46998597 .2025299V.20277405M.3789978 .20353699C.3789978 .15553284 .3789978 .106536868 .3600006 .0695343 .32899476 .012527466 .2849884 .0055389406 .2579956 .0055389406 .20098877 .0055389406 .16799927 .05253601 .1559906 .08152771 .13699341 .12652588 .13598633 .20953369 .13598633 .2255249 .13598633 .2927704 .16699219 .4007721 .2630005 .4007721 .2789917 .4007721 .32798768 .4007721 .3600006 .33877564 .3789978 .300766 .3789978 .25177003 .3789978 .20376587V.20353699Z"/>
<path id="font_4_86" d="M.2979889 .25097657C.2979889 .3329773 .28599549 .4429779 .23399353 .5539856 .1749878 .6769867 .08198547 .75 .069992069 .75 .05999756 .75 .057998659 .74198916 .057998659 .73898318 .057998659 .7339783 .05999756 .73098757 .066986087 .72398379 .125 .6719818 .23498535 .5359802 .23498535 .25097657 .23498535 .10797119 .20899964-.091033939 .06399536-.22602844 .06199646-.22903443 .057998659-.23303223 .057998659-.23803711 .057998659-.24102783 .05999756-.24902344 .069992069-.24902344 .08198547-.24902344 .17199707-.17703247 .22599793-.06802368 .27398683 .02796936 .2979889 .13098145 .2979889 .25097657Z"/>
<path id="font_4_82" d="M.43199159 0V.0309906H.3999939C.30699159 .0309906 .3039856 .042999269 .3039856 .08001709V.63912966C.3039856 .6640167 .30299378 .6660156 .27799989 .6660156 .21598816 .60227969 .12399292 .60227969 .09298706 .60227969V.57128909C.11199951 .57128909 .17298889 .57128909 .22698975 .5972748V.08001709C.22698975 .042999269 .22399903 .0309906 .1309967 .0309906H.09899902V0C.1349945 .0029907227 .22399903 .0029907227 .2649994 .0029907227 .30599977 .0029907227 .3959961 .0029907227 .43199159 0Z"/>
<path id="font_4_121" d="M.47299195 .31976319C.47299195 .38682557 .46998597 .47288514 .43499757 .5479431 .3909912 .64201357 .31498719 .6660156 .25698854 .6660156 .19699097 .6660156 .12098694 .64201357 .07699585 .5459442 .04499817 .47688294 .039993287 .39582826 .039993287 .31976319 .039993287 .25471498 .041992189 .15765381 .084991458 .07858276 .13198853-.0064697267 .20999146-.022460938 .2559967-.022460938 .32099916-.022460938 .394989 .0055389406 .43699647 .097595218 .46699525 .1646576 .47299195 .23971558 .47299195 .31976319M.3869934 .33177186C.3869934 .2697296 .3869934 .18566895 .3769989 .12661743 .35598756 .012542725 .28199769 .002532959 .25698854 .002532959 .22698975 .002532959 .15499878 .016540528 .13598633 .12962342 .12599182 .18867493 .12599182 .2747345 .12599182 .33177186 .12599182 .39982606 .12599182 .47888185 .13798523 .53393557 .1579895 .6230011 .22200012 .64100649 .2559967 .64100649 .2939911 .64100649 .35699464 .62098696 .37599183 .5279236 .3869934 .47288514 .3869934 .39482118 .3869934 .33177186Z"/>
<path id="font_5_1" d="M.33399964 .30233766C.33999635 .32835389 .36299134 .42037965 .43299867 .42037965 .43798829 .42037965 .46199037 .42037965 .48298646 .40734864 .45498658 .402359 .43499757 .37734986 .43499757 .35334779 .43499757 .33735658 .44599916 .31835938 .47299195 .31835938 .49499513 .31835938 .5269928 .3363495 .5269928 .37635804 .5269928 .42837525 .46798707 .4423828 .43399049 .4423828 .37599183 .4423828 .34098817 .38935853 .32899476 .36634828 .3039856 .43237306 .25 .4423828 .22099304 .4423828 .116989139 .4423828 .05999756 .3133545 .05999756 .28834535 .05999756 .27833558 .069992069 .27833558 .07199097 .27833558 .07998657 .27833558 .08299255 .28033448 .084991458 .28933717 .11898804 .39535523 .18499756 .42037965 .21899414 .42037965 .23799134 .42037965 .272995 .4113617 .272995 .35334779 .272995 .32235719 .2559967 .25532533 .21899414 .11528015 .20298767 .053268434 .16799927 .011245728 .12399292 .011245728 .117996219 .011245728 .09498596 .011245728 .07398987 .024276734 .09899902 .029266358 .12098694 .05027771 .12098694 .07827759 .12098694 .105270389 .09899902 .11328125 .083999637 .11328125 .053985597 .11328125 .0289917 .08728027 .0289917 .055267335 .0289917 .009246826 .07899475-.0107421879 .12298584-.0107421879 .18899536-.0107421879 .22499085 .059280397 .22799683 .0652771 .23999024 .028274537 .27598573-.0107421879 .33599855-.0107421879 .43899537-.0107421879 .49598695 .118270877 .49598695 .14328003 .49598695 .1532898 .4869995 .1532898 .48399354 .1532898 .47499085 .1532898 .47299195 .14929199 .47099305 .14228821 .43798829 .03527832 .36999513 .011245728 .33799745 .011245728 .29899598 .011245728 .2829895 .043273927 .2829895 .07727051 .2829895 .09927368 .2889862 .121276859 .2999878 .16529846L.33399964 .30233766Z"/>
<path id="font_5_2" d="M.48599244 .38136292C.48999024 .39537049 .48999024 .39736939 .48999024 .40437318 .48999024 .42237855 .47599793 .43138124 .46099855 .43138124 .45098878 .43138124 .43499757 .42536927 .42599488 .41036988 .42399598 .405365 .41600038 .37435914 .4119873 .35635377 .40499879 .33035279 .397995 .30334474 .3919983 .27633668L.34700013 .09628296C.34298707 .08126831 .2999878 .011245728 .23399353 .011245728 .18299866 .011245728 .17199707 .055267335 .17199707 .0922699 .17199707 .1382904 .18899536 .20030213 .22299195 .28833009 .23899842 .3293457 .24299622 .3403473 .24299622 .36035157 .24299622 .405365 .21099854 .4423828 .16099549 .4423828 .06599426 .4423828 .0289917 .29733277 .0289917 .28833009 .0289917 .27833558 .038986207 .27833558 .040985109 .27833558 .050994874 .27833558 .051986696 .28033448 .056991579 .29634095 .083999637 .3903656 .12399292 .42037965 .1579895 .42037965 .1659851 .42037965 .18299866 .42037965 .18299866 .3883667 .18299866 .36335755 .17298889 .3373413 .1659851 .31834413 .12599182 .21231079 .10798645 .1552887 .10798645 .10827637 .10798645 .019256592 .17098999-.0107421879 .22999573-.0107421879 .2689972-.0107421879 .30299378 .0062561037 .33099366 .03425598 .31799317-.017745972 .30599977-.06674194 .2659912-.11973572 .23999024-.15385437 .20199585-.18309021 .1559906-.18309021 .14199829-.18309021 .09700012-.18005371 .07998657-.14074707 .09599304-.14074707 .10899353-.14074707 .12298584-.1287384 .1329956-.11973572 .14299011-.10673523 .14299011-.08773804 .14299011-.056747438 .115997318-.052734376 .10598755-.052734376 .08299255-.052734376 .049987794-.068740848 .049987794-.11773682 .049987794-.16796875 .09399414-.20507813 .1559906-.20507813 .25898744-.20507813 .3619995-.11373901 .3899994-.00074768069L.48599244 .38136292Z"/>
<path id="font_2_8" d="M.68699648 .32714845C.70199587 .32714845 .72099307 .32714845 .72099307 .34713746 .72099307 .36714173 .70199587 .36714173 .6879883 .36714173H.08898926C.07499695 .36714173 .055999757 .36714173 .055999757 .34713746 .055999757 .32714845 .07499695 .32714845 .08999634 .32714845H.68699648M.6879883 .13284302C.70199587 .13284302 .72099307 .13284302 .72099307 .15284729 .72099307 .17285156 .70199587 .17285156 .68699648 .17285156H.08999634C.07499695 .17285156 .055999757 .17285156 .055999757 .15284729 .055999757 .13284302 .07499695 .13284302 .08898926 .13284302H.6879883Z"/>
<path id="font_6_2" d="M.272995 .33428956C.35099793 .33428956 .40699769 .2803192 .40699769 .1733551 .40699769 .04940796 .33499146 .012466431 .2769928 .012466431 .23699951 .012466431 .14898682 .0234375 .10699463 .082351688 .1539917 .084350589 .16499329 .11735535 .16499329 .13835144 .16499329 .17034912 .14099121 .19335938 .10998535 .19335938 .08198547 .19335938 .053985597 .17634583 .053985597 .13534546 .053985597 .041412355 .1579895-.01953125 .2789917-.01953125 .41799928-.01953125 .5139923 .07336426 .5139923 .1733551 .5139923 .2513275 .44999696 .32929994 .33999635 .35229493 .44499208 .39024354 .48298646 .4650879 .48298646 .5260773 .48298646 .60505679 .3919983 .6640625 .2809906 .6640625 .16999817 .6640625 .084991458 .61006167 .084991458 .5300751 .084991458 .49606324 .10699463 .47706605 .13699341 .47706605 .16799927 .47706605 .18798828 .5000763 .18798828 .5280762 .18798828 .5570679 .16799927 .57806399 .13699341 .5800781 .17199707 .62405398 .24099732 .63505557 .27799989 .63505557 .32299806 .63505557 .38598634 .6130676 .38598634 .5260773 .38598634 .48406983 .37199403 .43814088 .34599305 .4072113 .31298829 .36927796 .2849884 .3672943 .23498535 .36428834 .20999146 .3623047 .20799256 .3623047 .20298767 .3612976 .20098877 .3612976 .19299317 .3592987 .19299317 .34829713 .19299317 .33428956 .20199585 .33428956 .21899414 .33428956H.272995Z"/>
<path id="font_6_1" d="M.5049896 .18203736H.47099305C.46798707 .16001892 .45799256 .100997928 .44499208 .09098816 .43699647 .084991458 .3600006 .084991458 .34599305 .084991458H.1619873C.2669983 .17803955 .3019867 .20603943 .3619995 .25306703 .43598939 .312088 .5049896 .374115 .5049896 .46914674 .5049896 .5900879 .39898683 .6640625 .2709961 .6640625 .14698792 .6640625 .06298828 .57710269 .06298828 .4851532 .06298828 .43414308 .10598755 .42915345 .115997318 .42915345 .13999939 .42915345 .16899109 .44615174 .16899109 .48214723 .16899109 .5001526 .1619873 .53515627 .10998535 .53515627 .14099121 .6060791 .20899964 .62805178 .2559967 .62805178 .35598756 .62805178 .4079895 .5501404 .4079895 .46914674 .4079895 .38212586 .34599305 .3130951 .31399537 .27708436L.07299805 .038986207C.06298828 .02999878 .06298828 .027999878 .06298828 0H.47499085L.5049896 .18203736Z"/>
<path id="font_2_1" d="M.40899659 .23046875H.6879883C.70199587 .23046875 .72099307 .23046875 .72099307 .25045777 .72099307 .27046205 .70199587 .27046205 .6879883 .27046205H.40899659V.5500183C.40899659 .56399539 .40899659 .5830078 .3889923 .5830078 .36898805 .5830078 .36898805 .56399539 .36898805 .5500183V.27046205H.08898926C.07499695 .27046205 .055999757 .27046205 .055999757 .25045777 .055999757 .23046875 .07499695 .23046875 .08898926 .23046875H.36898805V-.05000305C.36898805-.06401062 .36898805-.08300781 .3889923-.08300781 .40899659-.08300781 .40899659-.06401062 .40899659-.05000305V.23046875Z"/>
<path id="font_2_2" d="M.45999146 .31976319C.45999146 .39982606 .45498658 .47988893 .41999818 .5539398 .37399293 .65000918 .2919922 .6660156 .25 .6660156 .18998719 .6660156 .116989139 .64001467 .07598877 .54693606 .04399109 .47789 .038986207 .39982606 .038986207 .31976319 .038986207 .24472046 .042999269 .15464783 .083999637 .07859802 .1269989-.0024719239 .19999695-.022460938 .24899292-.022460938 .30299378-.022460938 .3789978-.0014648438 .4229889 .09359741 .45498658 .16265869 .45999146 .2407074 .45999146 .31976319M.24899292-.00047302247C.20999146-.00047302247 .15098572 .024551392 .1329956 .12062073 .12199402 .18066406 .12199402 .2727356 .12199402 .3317871 .12199402 .39582826 .12199402 .46188355 .12998963 .5159149 .14898682 .63500979 .22399903 .64401248 .24899292 .64401248 .28199769 .64401248 .34799195 .6259918 .36698915 .52693179 .3769989 .47088624 .3769989 .39482118 .3769989 .3317871 .3769989 .25672914 .3769989 .18867493 .3659973 .12461853 .35099793 .029556275 .2939911-.00047302247 .24899292-.00047302247Z"/>
</defs>
<path transform="matrix(1.00008,0,0,-1,6.5834047,238.31401)" stroke-width=".19925" stroke-linecap="butt" stroke-miterlimit="10" stroke-linejoin="miter" fill="none" stroke="#7f807f" d="M0 125.23V129.48217M36.91496 125.23V129.48217M73.82993 125.23V129.48217M147.65985 125.23V129.48217M184.57482 125.23V129.48217M221.48978 125.23V129.48217M258.40476 125.23V129.48217M295.3197 125.23V129.48217"/>
<path transform="matrix(1.00008,0,0,-1,6.5834047,238.31401)" stroke-width=".19925" stroke-linecap="butt" stroke-miterlimit="10" stroke-linejoin="miter" fill="none" stroke="#7f807f" d=""/>
<path transform="matrix(1.00008,0,0,-1,6.5834047,238.31401)" stroke-width=".3985" stroke-linecap="butt" stroke-miterlimit="10" stroke-linejoin="miter" fill="none" stroke="#000000" d="M0 127.35608H293.32719"/>
<path transform="matrix(1.00008,0,0,-1,299.93406,110.95793)" d="M1.99252 0-1.19551 1.59401 0 0-1.19551-1.59401"/>
<path transform="matrix(1.00008,0,0,-1,6.5834047,238.31401)" stroke-width=".3985" stroke-linecap="butt" stroke-miterlimit="10" stroke-linejoin="miter" fill="none" stroke="#000000" d="M110.74489 54.58118V234.52593"/>
<path transform="matrix(0,-1,-1.00008,-0,117.33715,3.788086)" d="M1.99252 0-1.19551 1.59401 0 0-1.19551-1.59401"/>
<use data-text="&#x2212;" xlink:href="#font_1_1" transform="matrix(9.963397,0,0,-9.9626,.21789551,123.02401)"/>
<use data-text="3" xlink:href="#font_2_5" transform="matrix(9.963397,0,0,-9.9626,7.967514,123.02401)"/>
<use data-text="&#x2212;" xlink:href="#font_1_1" transform="matrix(9.963397,0,0,-9.9626,37.13585,123.02401)"/>
<use data-text="2" xlink:href="#font_2_4" transform="matrix(9.963397,0,0,-9.9626,44.885469,123.02401)"/>
<use data-text="&#x2212;" xlink:href="#font_1_1" transform="matrix(9.963397,0,0,-9.9626,74.053798,123.02401)"/>
<use data-text="1" xlink:href="#font_2_3" transform="matrix(9.963397,0,0,-9.9626,81.80341,123.02401)"/>
<use data-text="1" xlink:href="#font_2_3" transform="matrix(9.963397,0,0,-9.9626,151.76403,123.02401)"/>
<use data-text="2" xlink:href="#font_2_4" transform="matrix(9.963397,0,0,-9.9626,188.68198,123.02401)"/>
<use data-text="3" xlink:href="#font_2_5" transform="matrix(9.963397,0,0,-9.9626,225.59992,123.02401)"/>
<use data-text="4" xlink:href="#font_2_6" transform="matrix(9.963397,0,0,-9.9626,262.51789,123.02401)"/>
<use data-text="5" xlink:href="#font_2_7" transform="matrix(9.963397,0,0,-9.9626,299.43586,123.02401)"/>
<g clip-path="url(#clip_3)">
<path transform="matrix(1.00008,0,0,-1,6.5834047,238.31401)" d="M36.91496 163.74355C36.91496 163.74355 37.58572 164.0039 37.84335 164.10044 38.10098 164.19698 38.5142 164.34775 38.77177 164.43929 39.02934 164.53084 39.44226 164.6736 39.69983 164.76029 39.95738 164.84697 40.37065 164.98215 40.62822 165.06406 40.88579 165.14597 41.2987 165.27344 41.55627 165.35066 41.81384 165.42789 42.22705 165.5481 42.48466 165.62076 42.7423 165.69342 43.15552 165.8063 43.41309 165.87448 43.67065 165.94266 44.08357 166.04837 44.34114 166.11217 44.59871 166.17595 45.01198 166.27478 45.26953 166.33428 45.5271 166.39379 45.94002 166.48574 46.19759 166.54105 46.45515 166.59635 46.86836 166.68173 47.12599 166.73296 47.38362 166.78417 47.79683 166.86304 48.0544 166.91025 48.31197 166.95748 48.72488 167.02997 48.98245 167.07328 49.24002 167.1166 49.65324 167.18292 49.91087 167.22245 50.1685 167.26195 50.5817 167.32228 50.83926 167.35808 51.09683 167.39386 51.50975 167.44828 51.76732 167.48047 52.02489 167.51265 52.4381 167.56137 52.69572 167.59003 52.95335 167.61869 53.36656 167.66185 53.62413 167.68709 53.8817 167.71233 54.29462 167.75005 54.55219 167.77194 54.80975 167.79386 55.22296 167.82636 55.48059 167.84503 55.73822 167.86373 56.15143 167.89112 56.409 167.90666 56.66656 167.92221 57.07948 167.94463 57.33705 167.95714 57.59462 167.96965 58.00784 167.98729 58.26547 167.99687 58.52309 168.00646 58.9363 168.01946 59.19386 168.02619 59.45143 168.03292 59.86435 168.04143 60.12192 168.04541 60.37949 168.0494 60.7927 168.05358 61.05032 168.0549 61.30794 168.05623 61.72116 168.05625 61.97873 168.05503 62.2363 168.0538 62.64922 168.04978 62.90678 168.04611 63.16435 168.04245 63.57756 168.03455 63.83519 168.0285 64.0928 168.02248 64.50603 168.01087 64.7636 168.00257 65.02116 167.99427 65.43407 167.9791 65.69164 167.96863 65.9492 167.95816 66.36249 167.93959 66.62004 167.92705 66.87761 167.9145 67.29053 167.8927 67.5481 167.87818 67.80566 167.86367 68.21887 167.83875 68.4765 167.82234 68.73413 167.80594 69.14734 167.77809 69.4049 167.7599 69.66248 167.74173 70.07538 167.71109 70.33295 167.69123 70.59052 167.67136 71.00375 167.63809 71.26138 167.61663 71.51901 167.59516 71.9322 167.5594 72.18977 167.53646 72.44734 167.51349 72.86026 167.47545 73.11783 167.4511 73.3754 167.42675 73.78867 167.3865 74.04623 167.36084 74.3038 167.33518 74.7167 167.29294 74.97427 167.26609 75.23184 167.23923 75.64507 167.19512 75.9027 167.16713 76.16032 167.13915 76.57347 167.09334 76.8311 167.06435 77.08873 167.03537 77.50194 166.98799 77.7595 166.95809 78.01707 166.92819 78.42998 166.87947 78.68755 166.84874 78.94511 166.81803 79.3584 166.768 79.61597 166.73656 79.87354 166.7051 80.28644 166.65406 80.544 166.62198 80.80157 166.5899 81.2148 166.53789 81.47243 166.50527 81.73006 166.47264 82.14326 166.41986 82.40083 166.38681 82.65839 166.35376 83.0713 166.30042 83.32887 166.26703 83.58644 166.23365 83.99965 166.17977 84.25728 166.14612 84.51491 166.11249 84.92813 166.0583 85.1857 166.02452 85.44325 165.99074 85.85617 165.93643 86.11374 165.9026 86.3713 165.86878 86.78452 165.81444 87.04214 165.78064 87.29977 165.74684 87.713 165.69266 87.97055 165.65903 88.22812 165.62538 88.64104 165.57152 88.8986 165.53812 89.15617 165.50472 89.56938 165.45131 89.82701 165.41823 90.08464 165.38515 90.49786 165.33234 90.75542 165.2997 91.01299 165.26706 91.42589 165.21504 91.68346 165.18294 91.94102 165.15084 92.35425 165.09972 92.61188 165.06822 92.8695 165.03675 93.28271 164.9867 93.54028 164.95594 93.79785 164.92516 94.21077 164.87639 94.46834 164.84645 94.7259 164.8165 95.13918 164.76908 95.39674 164.74004 95.65431 164.711 96.06721 164.66516 96.32478 164.63713 96.58235 164.6091 96.99556 164.56491 97.25319 164.53798 97.51082 164.51107 97.92404 164.46874 98.18161 164.44301 98.43918 164.4173 98.85208 164.377 99.10965 164.35259 99.36722 164.32817 99.78049 164.29 100.03806 164.26697 100.29562 164.24393 100.70854 164.20812 100.96611 164.18657 101.22368 164.16504 101.63687 164.13164 101.8945 164.1117 102.15213 164.09174 102.56529 164.06098 102.82292 164.04271 103.08055 164.02446 103.49371 163.99649 103.75134 163.98 104.00896 163.9635 104.42218 163.93845 104.67975 163.92385 104.93732 163.90923 105.35022 163.8873 105.60779 163.87467 105.86536 163.86203 106.27864 163.84329 106.53621 163.83274 106.79376 163.82218 107.20668 163.80686 107.46425 163.79845 107.72182 163.79004 108.13503 163.77828 108.39265 163.77214 108.65028 163.76599 109.0635 163.75794 109.32106 163.75415 109.57863 163.75037 109.99153 163.74645 110.2491 163.74483 110.50667 163.74323 110.91989 163.74407 111.17752 163.74254 111.43515 163.74102 111.84837 163.73744 112.10593 163.73383 112.3635 163.73021 112.7764 163.72241 113.03397 163.71642 113.29153 163.71044 113.70482 163.69892 113.96239 163.69066 114.21996 163.6824 114.63286 163.66732 114.89041 163.6569 115.14798 163.6465 115.5612 163.62799 115.81883 163.6155 116.07646 163.603 116.48969 163.58126 116.74725 163.56678 117.00482 163.5523 117.41774 163.52747 117.6753 163.51111 117.93286 163.49475 118.34607 163.46697 118.6037 163.4488 118.86133 163.43065 119.27455 163.4001 119.53212 163.38027 119.78969 163.36043 120.20258 163.32724 120.46014 163.3058 120.71771 163.28437 121.13094 163.24868 121.38857 163.22576 121.6462 163.20282 122.05942 163.16481 122.31699 163.14048 122.57455 163.11615 122.98744 163.07599 123.24501 163.05037 123.50258 163.02474 123.9158 162.98252 124.17343 162.95568 124.43106 162.92882 124.84428 162.88477 125.10185 162.85681 125.3594 162.82886 125.77232 162.78313 126.02989 162.75415 126.28746 162.72518 126.70067 162.67787 126.9583 162.64797 127.21593 162.61806 127.62915 162.56934 127.88672 162.53864 128.14427 162.50792 128.55718 162.45801 128.81475 162.42656 129.07231 162.39513 129.48554 162.34407 129.74317 162.31198 130.0008 162.2799 130.41402 162.22794 130.67157 162.19533 130.92914 162.16272 131.34204 162.11 131.59961 162.07695 131.85718 162.0439 132.27046 161.99051 132.52803 161.95713 132.7856 161.92374 133.1985 161.86994 133.45607 161.8363 133.71363 161.80268 134.12685 161.74849 134.38448 161.71472 134.6421 161.68094 135.05533 161.62657 135.3129 161.59276 135.57047 161.55893 135.98337 161.50463 136.24092 161.47084 136.49849 161.43708 136.91172 161.38286 137.16934 161.3492 137.42697 161.31554 137.8402 161.26166 138.09777 161.22824 138.35533 161.19483 138.76824 161.14144 139.02579 161.10836 139.28336 161.07527 139.69664 161.02245 139.95421 160.98979 140.21178 160.95714 140.6247 160.90512 140.88227 160.873 141.13983 160.84088 141.55303 160.78974 141.81066 160.75824 142.06829 160.72675 142.48145 160.67667 142.73908 160.64588 142.9967 160.6151 143.40993 160.56624 143.6675 160.53627 143.92507 160.50632 144.33795 160.45888 144.59552 160.42983 144.85309 160.40077 145.26631 160.35486 145.52394 160.32682 145.78157 160.29875 146.1948 160.25453 146.45236 160.22759 146.70993 160.20063 147.12282 160.1583 147.38039 160.13254 147.63796 160.10678 148.05124 160.0664 148.3088 160.04196 148.56638 160.01752 148.9793 159.97934 149.23686 159.95627 149.49443 159.93321 149.90763 159.89731 150.16526 159.87574 150.42288 159.85416 150.8361 159.82073 151.09368 159.80072 151.35124 159.78073 151.76415 159.74996 152.02172 159.73165 152.27928 159.71335 152.69249 159.68529 152.95012 159.66876 153.20775 159.65224 153.62097 159.62712 153.87854 159.61248 154.13611 159.59781 154.54901 159.57579 154.80658 159.56313 155.06414 159.55045 155.47736 159.53163 155.73499 159.52103 155.99262 159.51042 156.40584 159.49501 156.6634 159.48656 156.92098 159.4781 157.3339 159.46625 157.59145 159.46007 157.84902 159.45388 158.26222 159.44571 158.51985 159.44188 158.77748 159.43805 159.1907 159.43375 159.44828 159.43238 159.70584 159.43099 160.11875 159.4307 160.3763 159.43186 160.63387 159.433 161.04709 159.43692 161.30472 159.44072 161.56235 159.44452 161.97557 159.45275 162.23314 159.45928 162.4907 159.4658 162.9036 159.47849 163.16117 159.48787 163.41873 159.49726 163.83202 159.51456 164.08959 159.52687 164.34716 159.53919 164.76006 159.5613 165.01763 159.57663 165.27519 159.59198 165.6884 159.61902 165.94603 159.63748 166.20366 159.65596 166.61688 159.68808 166.87445 159.70978 167.13202 159.73146 167.54492 159.76883 167.80249 159.79384 168.06006 159.81885 168.47327 159.86162 168.7309 159.89006 168.98853 159.91849 169.40169 159.96683 169.65932 159.99877 169.91695 160.0307 170.33017 160.08477 170.58774 160.1203 170.84529 160.15584 171.2582 160.21573 171.51576 160.25498 171.77333 160.29424 172.18662 160.36017 172.44419 160.40322 172.70175 160.44625 173.11466 160.51833 173.37223 160.56526 173.62979 160.61222 174.043 160.69066 174.30063 160.74161 174.55826 160.79254 174.97148 160.87749 175.22905 160.93251 175.48662 160.98755 175.89952 161.07903 176.15709 161.13825 176.41464 161.19745 176.82787 161.2958 177.0855 161.35933 177.34313 161.42284 177.75635 161.52814 178.01392 161.59603 178.27149 161.6639 178.68439 161.77622 178.94194 161.84856 179.19951 161.9209 179.6128 162.04059 179.87036 162.11751 180.12793 162.19443 180.54085 162.32141 180.79842 162.403 181.05599 162.48459 181.4692 162.61922 181.7268 162.70558 181.98444 162.79195 182.39766 162.93431 182.65523 163.02553 182.9128 163.11673 183.3257 163.26686 183.58327 163.36302 183.84084 163.45919 184.51168 163.71869 184.51168 163.71869L184.57482 163.74355C184.57482 163.74355 183.90402 162.6887 183.6464 162.28623 183.38877 161.88373 182.97556 161.24123 182.71799 160.84265 182.46042 160.44409 182.0475 159.80832 181.78993 159.41358 181.53237 159.01885 181.1191 158.38852 180.86153 157.99762 180.60396 157.60672 180.19106 156.98322 179.93349 156.59615 179.67592 156.20908 179.26271 155.59111 179.00508 155.20778 178.74745 154.82445 178.33423 154.21274 178.07666 153.83333 177.81909 153.45392 177.40619 152.84877 177.14862 152.47319 176.89105 152.09761 176.47779 151.4981 176.22022 151.12635 175.96265 150.7546 175.54973 150.16172 175.29216 149.7938 175.03459 149.42588 174.6214 148.83873 174.36377 148.47457 174.10614 148.11042 173.69292 147.5294 173.43535 147.16915 173.17778 146.80889 172.76486 146.23444 172.5073 145.878 172.24973 145.52159 171.83652 144.95287 171.57889 144.60019 171.32126 144.24753 170.90805 143.6849 170.65048 143.33614 170.39292 142.98735 169.98 142.4313 169.72243 142.08638 169.46488 141.74144 169.05167 141.19116 168.79404 140.85 168.5364 140.50884 168.12319 139.96469 167.86562 139.62743 167.60805 139.29016 167.19513 138.75255 166.93758 138.41912 166.68001 138.08568 166.2668 137.55384 166.00917 137.22415 165.75154 136.89446 165.33832 136.3687 165.08075 136.04293 164.82318 135.71715 164.41027 135.19802 164.15271 134.87607 163.89514 134.55413 163.48192 134.04064 163.22429 133.72245 162.96666 133.40425 162.55345 132.897 162.29589 132.58272 162.03832 132.26844 161.62541 131.76766 161.36785 131.4572 161.11028 131.14675 160.69707 130.65177 160.43944 130.34508 160.18181 130.0384 159.76859 129.54958 159.51102 129.24678 159.25345 128.944 158.84055 128.46164 158.58298 128.16268 158.32541 127.86371 157.9122 127.38718 157.65457 127.09198 157.39694 126.79678 156.98372 126.32634 156.72615 126.03503 156.46858 125.74373 156.0557 125.27986 155.79813 124.99239 155.54056 124.70493 155.12728 124.2467 154.8697 123.96306 154.61214 123.67943 154.19922 123.22784 153.94165 122.94803 153.68408 122.66823 153.27089 122.22235 153.01326 121.9463 152.75563 121.67027 152.3424 121.23062 152.08484 120.95847 151.82727 120.68633 151.41437 120.25308 151.1568 119.98477 150.89923 119.71646 150.48601 119.28908 150.22838 119.02454 149.97075 118.76 149.55754 118.33876 149.29998 118.07811 149.0424 117.81746 148.62949 117.40266 148.37192 117.14583 148.11437 116.88899 147.7011 116.48 147.44353 116.22699 147.18596 115.97398 146.77304 115.5715 146.51548 115.32233 146.2579 115.07315 145.84468 114.67648 145.58707 114.43109 145.32944 114.1857 144.91629 113.79526 144.65866 113.5537 144.40103 113.31213 143.98781 112.92775 143.73024 112.69008 143.47267 112.45242 143.05977 112.07448 142.80222 111.84064 142.54465 111.60681 142.13137 111.23468 141.8738 111.00465 141.61623 110.77463 141.20331 110.409 140.94574 110.1828 140.68817 109.95662 140.27497 109.59683 140.01734 109.37442 139.7597 109.15202 139.3465 108.79839 139.08893 108.57986 138.83136 108.36134 138.41844 108.01413 138.16088 107.79942 137.9033 107.58473 137.49011 107.24336 137.23249 107.03247 136.97486 106.82158 136.56163 106.48637 136.30406 106.27933 136.0465 106.0723 135.63358 105.7435 135.376 105.54028 135.11844 105.33708 134.70525 105.01416 134.44762 104.81476 134.18999 104.61536 133.77677 104.2986 133.5192 104.10304 133.26163 103.9075 132.84871 103.59712 132.59114 103.40541 132.33358 103.2137 131.92038 102.90923 131.66275 102.72131 131.40512 102.5334 130.9919 102.23508 130.73433 102.05103 130.47676 101.86697 130.06386 101.57503 129.80629 101.3948 129.54872 101.21458 129.13552 100.92854 128.87789 100.75212 128.62026 100.5757 128.20703 100.2958 127.94946 100.12325 127.6919 99.95068 127.27898 99.67715 127.02141 99.50844 126.76385 99.3397 126.35059 99.07208 126.09302 98.90718 125.83545 98.74228 125.42253 98.48102 125.16496 98.31996 124.9074 98.15889 124.49419 97.9036 124.23656 97.74632 123.97894 97.58907 123.56572 97.33989 123.30815 97.18648 123.05058 97.03308 122.63766 96.79024 122.3801 96.64067 122.12253 96.4911 121.70926 96.2542 121.4517 96.10844 121.19414 95.9627 120.78122 95.73216 120.52365 95.59024 120.26608 95.44833 119.85287 95.22374 119.59525 95.08565 119.33762 94.94756 118.92445 94.72911 118.66684 94.59485 118.40921 94.46059 117.99605 94.24829 117.73842 94.11786 117.48079 93.98743 117.06757 93.78127 116.81 93.65468 116.55243 93.52809 116.13954 93.32825 115.88197 93.20549 115.6244 93.08273 115.21112 92.88885 114.95355 92.76993 114.69598 92.651 114.28307 92.46342 114.0255 92.34833 113.76793 92.23323 113.35474 92.05167 113.0971 91.94038 112.83948 91.8291 112.42625 91.65367 112.16869 91.54625 111.91112 91.43881 111.49821 91.27007 111.24065 91.16606 110.98308 91.06204 110.56987 90.90045 110.31224 90.79654 110.05461 90.69264 109.64139 90.52432 109.38382 90.41714 109.12625 90.30998 108.71335 90.1351 108.45578 90.02411 108.19821 89.9131 107.78494 89.73192 107.52737 89.61708 107.2698 89.50224 106.8569 89.3151 106.59933 89.19643 106.34177 89.07776 105.92854 88.88432 105.67091 88.76181 105.4133 88.6393 105.00008 88.43971 104.74251 88.31339 104.48494 88.18704 104.07202 87.98148 103.81445 87.85132 103.55688 87.72116 103.14368 87.50926 102.88605 87.37526 102.62843 87.24126 102.21521 87.02321 101.95764 86.8854 101.70007 86.7476 101.28717 86.5236 101.0296 86.38196 100.77203 86.2403 100.35881 86.00998 100.1012 85.86447 99.84357 85.71898 99.43034 85.4825 99.17278 85.33319 98.9152 85.1839 98.5023 84.94147 98.24474 84.78833 97.98717 84.63518 97.57394 84.38643 97.31633 84.22943 97.0587 84.07242 96.64548 83.81754 96.38791 83.65672 96.13034 83.49591 95.71742 83.23506 95.45985 83.07045 95.20229 82.90582 94.7891 82.63863 94.53146 82.47014 94.27383 82.30164 93.86061 82.02829 93.60304 81.856 93.34547 81.68372 92.93257 81.40446 92.675 81.22833 92.41743 81.0522 92.00423 80.76657 91.7466 80.58658 91.48897 80.40659 91.07574 80.1148 90.81818 79.93103 90.56061 79.74725 90.1477 79.44955 89.89014 79.26193 89.63257 79.07431 89.2193 78.77022 88.96173 78.57878 88.70416 78.38734 88.29126 78.07735 88.03369 77.88208 87.77612 77.68681 87.3629 77.37045 87.10527 77.1713 86.84764 76.97215 86.43443 76.64966 86.17686 76.44673 85.9193 76.24379 85.5064 75.91539 85.24883 75.70862 84.99126 75.50183 84.57803 75.16705 84.3204 74.95642 84.06279 74.74577 83.64957 74.40483 83.392 74.1904 83.13443 73.97598 82.72153 73.62917 82.46396 73.4109 82.20639 73.19266 81.7931 72.83936 81.53554 72.61728 81.27798 72.39519 80.86507 72.03609 80.6075 71.81017 80.34993 71.58426 79.93672 71.21872 79.6791 70.98892 79.42146 70.75914 79.0083 70.38751 78.75069 70.15388 78.49306 69.92026 78.07983 69.54243 77.82227 69.30502 77.5647 69.06761 77.1518 68.68394 76.89423 68.4427 76.63666 68.20146 76.22343 67.81137 75.96582 67.56624 75.70819 67.3211 75.29497 66.92487 75.0374 66.67596 74.77983 66.42706 74.36693 66.02496 74.10936 65.77223 73.85179 65.5195 73.43852 65.1109 73.18095 64.85434 72.92339 64.59778 72.51047 64.1834 72.2529 63.923 71.99533 63.66261 71.58212 63.2418 71.3245 62.97752 71.06686 62.71323 70.65366 62.28622 70.39609 62.01817 70.13852 61.7501 69.72562 61.31735 69.46805 61.04547 69.21048 60.77357 68.79726 60.33427 68.53963 60.05849 68.282 59.78271 67.86879 59.33734 67.61122 59.0578 67.35365 58.77824 66.94075 58.32701 66.68318 58.04362 66.42561 57.76024 66.01239 57.30255 65.75476 57.01529 65.49713 56.72801 65.08392 56.2642 64.82635 55.97316 64.56879 55.68211 64.15587 55.21245 63.8983 54.91759 63.64073 54.62271 63.22752 54.14658 62.9699 53.84782 62.71228 53.54906 62.29906 53.06674 62.04149 52.7642 61.78392 52.46167 61.37102 51.97366 61.11345 51.6673 60.85588 51.36093 60.44266 50.86632 60.18503 50.55605 59.92741 50.24577 59.51419 49.74507 59.25662 49.43105 58.99905 49.11702 58.58615 48.61053 58.32858 48.29268 58.07101 47.97482 57.65773 47.46178 57.40018 47.14008 57.14261 46.81839 56.7297 46.2996 56.47214 45.97409 56.21457 45.64857 55.80135 45.12329 55.54372 44.79388 55.28609 44.46448 54.87286 43.93304 54.61531 43.59985 54.35774 43.26668 53.94484 42.72948 53.68727 42.39246 53.4297 42.05545 53.01648 41.51175 52.75885 41.17082 52.50122 40.82991 52.08807 40.28006 51.83044 39.93532 51.57281 39.59056 51.15959 39.03456 50.90202 38.68607 50.64445 38.33755 50.23155 37.77579 49.97398 37.42345 49.71642 37.0711 49.30315 36.50276 49.04558 36.14659 48.78801 35.79042 48.3751 35.21638 48.11754 34.85638 47.85997 34.49638 47.44675 33.9158 47.18912 33.5519 46.93149 33.18799 46.51828 32.6012 46.26071 32.23354 46.00314 31.86588 45.59024 31.2735 45.33267 30.90201 45.0751 30.53052 44.66188 29.93141 44.40425 29.55602 44.14662 29.18062 43.73341 28.57547 43.47585 28.19632 43.21828 27.81717 42.80537 27.20627 42.5478 26.82329 42.29024 26.4403 41.87695 25.82277 41.61938 25.43596 41.36182 25.04915 40.94891 24.426 40.69135 24.03535 40.43378 23.64471 40.02057 23.01495 39.76294 22.62039 39.50531 22.22585 39.09209 21.58997 38.83452 21.19165 38.57697 20.79335 38.16406 20.15176 37.9065 19.74963 37.64893 19.34749 36.97807 18.29326 36.97807 18.29326Z" fill="#d9d9d9"/>
<path transform="matrix(1.00008,0,0,-1,6.5834047,238.31401)" stroke-width=".79701" stroke-linecap="butt" stroke-miterlimit="10" stroke-linejoin="miter" fill="none" stroke="#ff0000" d="M0 0 1.484 5.64047 2.96802 11.15303 4.45203 16.53902 5.93607 21.8001 7.42007 26.93726 8.9041 31.95216 10.3881 36.84619 11.87213 41.62077 13.35614 46.27736 14.84016 50.8173 16.32419 55.24207 17.8082 59.55322 19.29222 63.75188 20.77625 67.83958 22.26027 71.81776 23.74428 75.68788 25.2283 79.4513 26.71231 83.10945 28.19633 86.66377 29.68034 90.11578 31.16437 93.46667 32.64839 96.71799 34.1324 99.8711 35.61644 102.92749 37.10045 105.88855 38.58447 108.75569 40.06848 111.53043 41.5525 114.214 43.03651 116.80792 44.52054 119.31358 46.00455 121.73245 47.48859 124.06589 48.97261 126.31535 50.45662 128.48227 51.94064 130.56803 53.42465 132.57415 54.90868 134.50185 56.39268 136.35266 57.87671 138.12802 59.36072 139.82933 60.84474 141.458 62.32877 143.01543 63.81279 144.50315 65.29681 145.9224 66.78082 147.2747 68.26485 148.56148 69.74886 149.7841 71.23288 150.94403 72.71689 152.04267 74.20091 153.08145 75.68492 154.06179 77.16896 154.98508 78.65297 155.85274 80.137 156.66622 81.62102 157.42693 83.10503 158.13625 84.58905 158.79566 86.07306 159.40653 87.55708 159.9703 89.04109 160.48839 90.52512 160.9622 92.00914 161.39316 93.49316 161.7827 94.97717 162.13224 96.4612 162.44316 97.94522 162.71692 99.42923 162.95493 100.91325 163.15859 102.39726 163.32933 103.88129 163.46857 105.3653 163.57773 106.84933 163.65822 108.33334 163.71147 109.81737 163.73889 111.30138 163.7419 112.7854 163.72191 114.26942 163.68036 115.75343 163.61865 117.23746 163.53821 118.72147 163.44046 120.20549 163.3268 121.68951 163.19866 123.17354 163.05747 124.65755 162.90462 126.14157 162.74156 127.62558 162.56969 129.1096 162.39043 130.59363 162.2052 132.07764 162.01541 133.56166 161.8225 135.04567 161.62787 136.52971 161.43296 138.01372 161.23915 139.49774 161.0479 140.98175 160.8606 142.46578 160.67867 143.94979 160.50356 145.4338 160.33664 146.91783 160.17938 148.40184 160.03314 149.88596 159.89939 151.36983 159.77954 152.85395 159.67498 154.33783 159.58716 155.82195 159.51747 157.30605 159.46735 158.78993 159.4382 160.27404 159.43146 161.75792 159.44855 163.24204 159.49085 164.72614 159.55982 166.21002 159.65686 167.69412 159.7834 169.17803 159.94083 170.66213 160.13062 172.14624 160.35416 173.63011 160.61281 175.11423 160.9081 176.59812 161.24135 178.08222 161.61406 179.56633 162.0276 181.0502 162.48336 182.53432 162.98287 184.0182 163.52736 185.50232 164.11847 186.9864 164.75753 188.4703 165.44583 189.9544 166.18498 191.4383 166.97623 192.92241 167.82122 194.40651 168.72122 195.8904 169.67748 197.3745 170.6918 198.8584 171.76525 200.3425 172.89954 201.8266 174.09592 203.31049 175.3557 204.7946 176.68062 206.27848 178.07166 207.76259 179.53073 209.2467 181.05905 210.73058 182.65773 212.21469 184.32868 213.69858 186.07286 215.1827 187.8922 216.66678 189.78778 218.15068 191.76087 219.63478 193.81337 221.11867 195.94614 222.60277 198.1611 224.08689 200.45958 225.57077 202.84249 227.05487 205.312 228.53878 207.8687 230.02288 210.51494 231.50698 213.2517 232.99086 216.0799 234.47498 219.0017 235.95885 222.01799 237.44297 225.13085 238.92707 228.34125 240.41095 231.65023 241.89507 235.06005 243.37895 238.57128 244.86305 242.18614 246.34716 245.90579 247.83106 249.73096 249.31516 253.66425 250.79904 257.7057 252.28314 261.85829 253.76726 266.12257 255.25113 270.49943 256.73524 274.99147 258.21916 279.5989 259.70323 284.32444 261.18736 289.16874 262.67124 294.13279 264.15538 299.21919 265.63923 304.42796 267.12336 309.76185 268.60746 315.2219 270.0913 320.80845 271.5754 326.52449 273.05934 332.37 274.54344 338.34806 276.02754 344.4591 277.51145 350.7036 278.99555 357.08509 280.47944 363.60289 281.96354 370.26026 283.44764 377.05757 284.9315 383.99577 286.41563 391.07798 287.8995 398.30345 289.3836 405.67555 290.8677 413.19505 292.35163 420.86225 293.83573 428.68055 295.3196 436.64884"/>
<path transform="matrix(1.00008,0,0,-1,6.5834047,238.31401)" stroke-width=".79701" stroke-linecap="butt" stroke-miterlimit="10" stroke-linejoin="miter" fill="none" stroke="#0000ff" d="M0 145.54982 1.484 143.51952 2.96802 141.5245 4.45203 139.56479 5.93607 137.64029 7.42007 135.75115 8.9041 133.89727 10.3881 132.0787 11.87213 130.29541 13.35614 128.54738 14.84016 126.83466 16.32419 125.1572 17.8082 123.51498 19.29222 121.9081 20.77625 120.3365 22.26027 118.80019 23.74428 117.29916 25.2283 115.83342 26.71231 114.40294 28.19633 113.00778 29.68034 111.64783 31.16437 110.3232 32.64839 109.03387 34.1324 107.77985 35.61644 106.56108 37.10045 105.3776 38.58447 104.2294 40.06848 103.11647 41.5525 102.03883 43.03651 100.99649 44.52054 99.98946 46.00455 99.01767 47.48859 98.08119 48.97261 97.18 50.45662 96.31406 51.94064 95.48341 53.42465 94.68802 54.90868 93.92795 56.39268 93.20319 57.87671 92.51367 59.36072 91.85945 60.84474 91.24052 62.32877 90.65688 63.81279 90.10847 65.29681 89.59541 66.78082 89.11761 68.26485 88.67508 69.74886 88.26785 71.23288 87.8959 72.71689 87.55923 74.20091 87.25784 75.68492 86.99174 77.16896 86.76094 78.65297 86.5654 80.137 86.40515 81.62102 86.28018 83.10503 86.19049 84.58905 86.13611 86.07306 86.11699 87.55708 86.13316 89.04109 86.18463 90.52512 86.27136 92.00914 86.39339 93.49316 86.55069 94.97717 86.74329 96.4612 86.97116 97.94522 87.23431 99.42923 87.53278 100.91325 87.86649 102.39726 88.2355 103.88129 88.6398 105.3653 89.07938 106.84933 89.55424 108.33334 90.06439 109.81737 90.60982 111.30138 91.19052 112.7854 91.80652 114.26942 92.4578 115.75343 93.14436 117.23746 93.86623 118.72147 94.62335 120.20549 95.41577 121.68951 96.24347 123.17354 97.10646 124.65755 98.00473 126.14157 98.93828 127.62558 99.90712 129.1096 100.91124 130.59363 101.95065 132.07764 103.02533 133.56166 104.13531 135.04567 105.28056 136.52971 106.4611 138.01372 107.67693 139.49774 108.92804 140.98175 110.21443 142.46578 111.5361 143.94979 112.89307 145.4338 114.28531 146.91783 115.71284 148.40184 117.17566 149.88596 118.67386 151.36983 120.20705 152.85395 121.77583 154.33783 123.37964 155.82195 125.019 157.30605 126.69357 158.78993 128.40323 160.27404 130.14846 161.75792 131.92867 163.24204 133.74437 164.72614 135.59545 166.21002 137.4815 167.69412 139.40308 169.17803 141.3597 170.66213 143.35192 172.14624 145.3794 173.63011 147.4418 175.11423 149.53987 176.59812 151.67292 178.08222 153.84157 179.56633 156.0454 181.0502 158.28427 182.53432 160.55878 184.0182 162.86814 185.50232 165.21321 186.9864 167.59357 188.4703 170.00885 189.9544 172.4597 191.4383 174.94554 192.92241 177.46706 194.40651 180.02385 195.8904 182.61544 197.3745 185.24279 198.8584 187.90505 200.3425 190.603 201.8266 193.3361 203.31049 196.1042 204.7946 198.90802 206.27848 201.74655 207.76259 204.62093 209.2467 207.5306 210.73058 210.47509 212.21469 213.4552 213.69858 216.47026 215.1827 219.52108 216.66678 222.60704 218.15068 225.72795 219.63478 228.88462 221.11867 232.07607 222.60277 235.30319 224.08689 238.56572 225.57077 241.863 227.05487 245.1961 228.53878 248.56389 230.02288 251.96758 231.50698 255.40654 232.99086 258.88026 234.47498 262.3895 235.95885 265.93385 237.44297 269.51393 238.92707 273.1293 240.41095 276.7794 241.89507 280.46525 243.37895 284.18598 244.86305 287.9424 246.34716 291.7342 247.83106 295.56068 249.31516 299.42308 250.79904 303.32 252.28314 307.25306 253.76726 311.22123 255.25113 315.2241 256.73524 319.2629 258.21916 323.33644 259.70323 327.44569 261.18736 331.59025 262.67124 335.76969 264.15538 339.9849 265.63923 344.2348 267.12336 348.52043 268.60746 352.84156 270.0913 357.19725 271.5754 361.5888 273.05934 366.01515 274.54344 370.47734 276.02754 374.97489 277.51145 379.50694 278.99555 384.0751 280.47944 388.6778 281.96354 393.3164 283.44764 397.99018 284.9315 402.6988 286.41563 407.44337 287.8995 412.22248 289.3836 417.03746 290.8677 421.88777 292.35163 426.7728 293.83573 431.69377 295.3196 436.64909"/>
<use data-text="(" xlink:href="#font_4_85" transform="matrix(8.967117,0,0,-8.9664,14.87307,143.035)"/>
<use data-text="-" xlink:href="#font_4_64" transform="matrix(8.967117,0,0,-8.9664,18.459923,143.035)"/>
<use data-text="2" xlink:href="#font_4_107" transform="matrix(8.967117,0,0,-8.9664,21.535645,143.035)"/>
<use data-text="," xlink:href="#font_4_45" transform="matrix(8.967117,0,0,-8.9664,26.144738,143.035)"/>
<use data-text="-" xlink:href="#font_4_64" transform="matrix(8.967117,0,0,-8.9664,28.709336,143.035)"/>
<use data-text="6" xlink:href="#font_4_101" transform="matrix(8.967117,0,0,-8.9664,31.785065,143.035)"/>
<use data-text=")" xlink:href="#font_4_86" transform="matrix(8.967117,0,0,-8.9664,36.394159,143.035)"/>
<use data-text="(" xlink:href="#font_4_85" transform="matrix(8.967117,0,0,-8.9664,194.69345,68.81801)"/>
<use data-text="2" xlink:href="#font_4_107" transform="matrix(8.967117,0,0,-8.9664,198.2803,68.81801)"/>
<use data-text="," xlink:href="#font_4_45" transform="matrix(8.967117,0,0,-8.9664,202.8894,68.81801)"/>
<use data-text="1" xlink:href="#font_4_82" transform="matrix(8.967117,0,0,-8.9664,205.454,68.81801)"/>
<use data-text="0" xlink:href="#font_4_121" transform="matrix(8.967117,0,0,-8.9664,210.06308,68.81801)"/>
<use data-text=")" xlink:href="#font_4_86" transform="matrix(8.967117,0,0,-8.9664,214.67218,68.81801)"/>
</g>
<path transform="matrix(1.00008,0,0,-1,6.5834047,238.31401)" d="M39.30602 105.52362C39.30602 106.84416 38.2355 107.91467 36.91496 107.91467 35.5944 107.91467 34.5239 106.84416 34.5239 105.52362 34.5239 104.20306 35.5944 103.13255 36.91496 103.13255 38.2355 103.13255 39.30602 104.20306 39.30602 105.52362ZM36.91496 105.52362" fill="#ffffff"/>
<path transform="matrix(1.00008,0,0,-1,6.5834047,238.31401)" stroke-width=".3985" stroke-linecap="butt" stroke-miterlimit="10" stroke-linejoin="miter" fill="none" stroke="#000000" d="M39.30602 105.52362C39.30602 106.84416 38.2355 107.91467 36.91496 107.91467 35.5944 107.91467 34.5239 106.84416 34.5239 105.52362 34.5239 104.20306 35.5944 103.13255 36.91496 103.13255 38.2355 103.13255 39.30602 104.20306 39.30602 105.52362ZM36.91496 105.52362"/>
<path transform="matrix(1.00008,0,0,-1,6.5834047,238.31401)" d="M186.96587 163.74355C186.96587 165.06409 185.89537 166.1346 184.57482 166.1346 183.25426 166.1346 182.18376 165.06409 182.18376 163.74355 182.18376 162.42299 183.25426 161.35248 184.57482 161.35248 185.89537 161.35248 186.96587 162.42299 186.96587 163.74355ZM184.57482 163.74355" fill="#ffffff"/>
<path transform="matrix(1.00008,0,0,-1,6.5834047,238.31401)" stroke-width=".3985" stroke-linecap="butt" stroke-miterlimit="10" stroke-linejoin="miter" fill="none" stroke="#000000" d="M186.96587 163.74355C186.96587 165.06409 185.89537 166.1346 184.57482 166.1346 183.25426 166.1346 182.18376 165.06409 182.18376 163.74355 182.18376 162.42299 183.25426 161.35248 184.57482 161.35248 185.89537 161.35248 186.96587 162.42299 186.96587 163.74355ZM184.57482 163.74355"/>
<path transform="matrix(1.00008,0,0,-1,6.5834047,238.31401)" stroke-width=".3985" stroke-linecap="butt" stroke-miterlimit="10" stroke-linejoin="miter" fill="none" stroke="#000000" d=""/>
<use data-text="x" xlink:href="#font_5_1" transform="matrix(9.963397,0,0,-9.9626,292.71229,107.438)"/>
<use data-text="y" xlink:href="#font_5_2" transform="matrix(9.963397,0,0,-9.9626,120.857547,9.605011)"/>
<path transform="matrix(1.00008,0,0,-1,6.5834047,238.31401)" d="M182.78293 201.51622H289.2128V232.67966H182.78293Z" fill="#ffffff"/>
<path transform="matrix(1.00008,0,0,-1,6.5834047,238.31401)" stroke-width=".3985" stroke-linecap="butt" stroke-miterlimit="10" stroke-linejoin="miter" fill="none" stroke="#000000" d="M182.78293 201.51622H289.2128V232.67966H182.78293Z"/>
<path transform="matrix(1.00008,0,0,-1,192.76831,14.422012)" stroke-width=".79701" stroke-linecap="butt" stroke-miterlimit="10" stroke-linejoin="miter" fill="none" stroke="#ff0000" d="M0 0H8.50412 17.00826"/>
<use data-text="y" xlink:href="#font_5_2" transform="matrix(9.963397,0,0,-9.9626,212.42487,17.730011)"/>
<use data-text="=" xlink:href="#font_2_8" transform="matrix(9.963397,0,0,-9.9626,220.43451,17.730011)"/>
<use data-text="x" xlink:href="#font_5_1" transform="matrix(9.963397,0,0,-9.9626,230.95136,17.730011)"/>
<use data-text="3" xlink:href="#font_6_2" transform="matrix(6.974358,0,0,-6.9738,236.64582,14.1150059)"/>
<use data-text="&#x2212;" xlink:href="#font_1_1" transform="matrix(9.963397,0,0,-9.9626,243.32935,17.730011)"/>
<use data-text="2" xlink:href="#font_2_4" transform="matrix(9.963397,0,0,-9.9626,253.29314,17.730011)"/>
<use data-text="x" xlink:href="#font_5_1" transform="matrix(9.963397,0,0,-9.9626,258.27455,17.730011)"/>
<use data-text="2" xlink:href="#font_6_1" transform="matrix(6.974358,0,0,-6.9738,263.969,14.1150059)"/>
<use data-text="+" xlink:href="#font_2_1" transform="matrix(9.963397,0,0,-9.9626,270.65254,17.730011)"/>
<use data-text="1" xlink:href="#font_2_3" transform="matrix(9.963397,0,0,-9.9626,280.60597,17.730011)"/>
<use data-text="0" xlink:href="#font_2_2" transform="matrix(9.963397,0,0,-9.9626,285.58766,17.730011)"/>
<path transform="matrix(1.00008,0,0,-1,192.76831,28.011017)" stroke-width=".79701" stroke-linecap="butt" stroke-miterlimit="10" stroke-linejoin="miter" fill="none" stroke="#0000ff" d="M0 0H8.50412 17.00826"/>
<use data-text="y" xlink:href="#font_5_2" transform="matrix(9.963397,0,0,-9.9626,212.16884,31.319016)"/>
<use data-text="=" xlink:href="#font_2_8" transform="matrix(9.963397,0,0,-9.9626,220.17848,31.319016)"/>
<use data-text="3" xlink:href="#font_2_5" transform="matrix(9.963397,0,0,-9.9626,230.6799,31.319016)"/>
<use data-text="x" xlink:href="#font_5_1" transform="matrix(9.963397,0,0,-9.9626,235.67671,31.319016)"/>
<use data-text="2" xlink:href="#font_6_1" transform="matrix(6.974358,0,0,-6.9738,241.37117,27.70401)"/>
<use data-text="+" xlink:href="#font_2_1" transform="matrix(9.963397,0,0,-9.9626,248.05571,31.319016)"/>
<use data-text="4" xlink:href="#font_2_6" transform="matrix(9.963397,0,0,-9.9626,258.00917,31.319016)"/>
<use data-text="x" xlink:href="#font_5_1" transform="matrix(9.963397,0,0,-9.9626,263.00093,31.319016)"/>
<use data-text="&#x2212;" xlink:href="#font_1_1" transform="matrix(9.963397,0,0,-9.9626,270.90855,31.319016)"/>
<use data-text="1" xlink:href="#font_2_3" transform="matrix(9.963397,0,0,-9.9626,280.87236,31.319016)"/>
<use data-text="0" xlink:href="#font_2_2" transform="matrix(9.963397,0,0,-9.9626,285.85404,31.319016)"/>
</svg>
