<svg xmlns="http://www.w3.org/2000/svg" xmlns:xlink="http://www.w3.org/1999/xlink" xmlns:inkscape="http://www.inkscape.org/namespaces/inkscape" version="1.1" width="296" height="298" viewBox="0 0 296 298">
<defs>
<clipPath id="clip_1">
<path transform="matrix(1.00003,0,0,-1.00009,1.0964966,295.72315)" d="M0 0H293.89985V293.90107H0Z"/>
</clipPath>
<path id="font_2_1" d="M.6589966 .23046875C.6759949 .23046875 .69400027 .23046875 .69400027 .25045777 .69400027 .27046205 .6759949 .27046205 .6589966 .27046205H.117996219C.100997928 .27046205 .08299255 .27046205 .08299255 .25045777 .08299255 .23046875 .100997928 .23046875 .117996219 .23046875H.6589966Z"/>
<path id="font_3_2" d="M.2939911 .64004519C.2939911 .66400149 .2939911 .6660156 .2709961 .6660156 .20899964 .60227969 .12098694 .60227969 .08898926 .60227969V.57128909C.10899353 .57128909 .16799927 .57128909 .21998596 .5972748V.07902527C.21998596 .042999269 .21699524 .0309906 .1269989 .0309906H.09498596V0C.12998963 .0029907227 .21699524 .0029907227 .25698854 .0029907227 .29699708 .0029907227 .38398744 .0029907227 .4189911 0V.0309906H.3869934C.29699708 .0309906 .2939911 .041992189 .2939911 .07902527V.64004519Z"/>
<path id="font_3_3" d="M.1269989 .07699585 .23298645 .18003845C.3889923 .31811524 .44898988 .3721466 .44898988 .47216798 .44898988 .5860901 .35899354 .6660156 .23699951 .6660156 .12399292 .6660156 .049987794 .57411196 .049987794 .48516847 .049987794 .4291687 .099990848 .4291687 .102996829 .4291687 .11999512 .4291687 .15499878 .44117738 .15499878 .48217774 .15499878 .5081787 .13699341 .5341797 .101989749 .5341797 .09399414 .5341797 .09199524 .5341797 .08898926 .5331726 .11199951 .59806826 .1659851 .63500979 .22399903 .63500979 .31498719 .63500979 .35798646 .5541382 .35798646 .47216798 .35798646 .39215089 .30799867 .31311036 .25299073 .25108338L.06098938 .036987306C.049987794 .025985718 .049987794 .023986817 .049987794 0H.42099L.44898988 .17404175H.42399598C.4189911 .14402771 .4119873 .1000061 .4019928 .084991458 .394989 .07699585 .32899476 .07699585 .30699159 .07699585H.1269989Z"/>
<path id="font_3_4" d="M.2899933 .35191346C.37199403 .37893678 .42999269 .4490509 .42999269 .52809146 .42999269 .6100464 .34199525 .6660156 .24598694 .6660156 .14498902 .6660156 .068984989 .60606387 .068984989 .53009036 .068984989 .49710084 .09098816 .47808839 .11999512 .47808839 .15098572 .47808839 .17098999 .50009158 .17098999 .5290985 .17098999 .57910159 .12399292 .57910159 .10899353 .57910159 .13999939 .62802127 .20599365 .64100649 .24198914 .64100649 .2829895 .64100649 .33799745 .6190338 .33799745 .5290985 .33799745 .51708987 .33599855 .45906068 .30999757 .4149933 .27999879 .36691285 .24598694 .36390687 .22099304 .36291505 .21299744 .36190797 .18899536 .35990907 .18199158 .35990907 .17399597 .35890199 .16699219 .35791017 .16699219 .3479004 .16699219 .33691407 .17399597 .33691407 .19099427 .33691407H.23498535C.31698609 .33691407 .35398866 .2686615 .35398866 .17037964 .35398866 .034469606 .2849884 .0055389406 .24099732 .0055389406 .19799805 .0055389406 .12298584 .022491456 .08799744 .08137512 .12298584 .07637024 .1539917 .09837341 .1539917 .1363678 .1539917 .17237854 .1269989 .19238281 .09799194 .19238281 .07398987 .19238281 .041992189 .17837525 .041992189 .1343689 .041992189 .043441774 .1349945-.022460938 .24398804-.022460938 .3659973-.022460938 .45700074 .06838989 .45700074 .17037964 .45700074 .252594 .3939972 .33088685 .2899933 .35191346Z"/>
<path id="font_3_5" d="M.2939911 .16503906V.07800293C.2939911 .041992189 .2919922 .0309906 .21798706 .0309906H.19699097V0C.23799134 .0029907227 .2899933 .0029907227 .33198548 .0029907227 .37399293 .0029907227 .4269867 .0029907227 .46798707 0V.0309906H.44699098C.37298585 .0309906 .37098695 .041992189 .37098695 .07800293V.16503906H.47099305V.19602967H.37098695V.65075686C.37098695 .67074587 .37098695 .6767578 .35499574 .6767578 .34599305 .6767578 .34298707 .6767578 .33499146 .66474917L.027999878 .19602967V.16503906H.2939911M.2999878 .19602967H.055999757L.2999878 .5688019V.19602967Z"/>
<path id="font_3_6" d="M.13198853 .327713V.35173036C.13198853 .6047821 .2559967 .64100649 .30699159 .64100649 .33099366 .64100649 .37298585 .634964 .394989 .6007538 .37998963 .6007538 .33999635 .6007538 .33999635 .5557556 .33999635 .524765 .3639984 .5097656 .38598634 .5097656 .4019928 .5097656 .43199159 .51875308 .43199159 .5577545 .43199159 .6178589 .3880005 .6660156 .30499269 .6660156 .1769867 .6660156 .041992189 .5367584 .041992189 .31570436 .041992189 .048553468 .1579895-.022460938 .25099183-.022460938 .3619995-.022460938 .45700074 .07156372 .45700074 .2036438 .45700074 .33070375 .36799623 .4267578 .25698854 .4267578 .18899536 .4267578 .1519928 .37573243 .13198853 .327713M.25099183 .0055389406C.18798828 .0055389406 .1579895 .06556702 .1519928 .080566409 .13398743 .127594 .13398743 .2076416 .13398743 .22564698 .13398743 .30369569 .1659851 .40374757 .2559967 .40374757 .27198792 .40374757 .31799317 .40374757 .34899903 .34172059 .36698915 .30470277 .36698915 .2536621 .36698915 .20463562 .36698915 .15661621 .36698915 .10658264 .34999085 .0705719 .31999208 .010528564 .27398683 .0055389406 .25099183 .0055389406Z"/>
<path id="font_3_7" d="M.16299439 .4569702C.116989139 .486969 .11299133 .52098086 .11299133 .5379791 .11299133 .598999 .17799378 .64100649 .24899292 .64100649 .32199098 .64100649 .38598634 .58898928 .38598634 .51698306 .38598634 .45996095 .34700013 .4119568 .2869873 .37695313L.16299439 .4569702M.30899049 .36193849C.3809967 .3989563 .42999269 .45095826 .42999269 .51698306 .42999269 .6090088 .34098817 .6660156 .25 .6660156 .1499939 .6660156 .068984989 .59199526 .068984989 .49897767 .068984989 .4809723 .070999149 .43595887 .11299133 .38894654 .12399292 .37695313 .16099549 .35194398 .18598938 .33494569 .12799073 .30592347 .041992189 .24984741 .041992189 .15072632 .041992189 .04458618 .14399719-.022460938 .24899292-.022460938 .3619995-.022460938 .45700074 .06060791 .45700074 .16773987 .45700074 .20379639 .44599916 .24885559 .4079895 .2909088 .3889923 .31193543 .37298585 .3219452 .30899049 .36193849M.20899964 .3199463 .33198548 .24183655C.3600006 .2228241 .40699769 .19277954 .40699769 .13169861 .40699769 .05760193 .33198548 .0055389406 .25 .0055389406 .1639862 .0055389406 .09199524 .067611698 .09199524 .15072632 .09199524 .20880127 .12399292 .27288819 .20899964 .3199463Z"/>
<path id="font_3_1" d="M.45999146 .31976319C.45999146 .39982606 .45498658 .47988893 .41999818 .5539398 .37399293 .65000918 .2919922 .6660156 .25 .6660156 .18998719 .6660156 .116989139 .64001467 .07598877 .54693606 .04399109 .47789 .038986207 .39982606 .038986207 .31976319 .038986207 .24472046 .042999269 .15464783 .083999637 .07859802 .1269989-.0024719239 .19999695-.022460938 .24899292-.022460938 .30299378-.022460938 .3789978-.0014648438 .4229889 .09359741 .45498658 .16265869 .45999146 .2407074 .45999146 .31976319M.24899292-.00047302247C.20999146-.00047302247 .15098572 .024551392 .1329956 .12062073 .12199402 .18066406 .12199402 .2727356 .12199402 .3317871 .12199402 .39582826 .12199402 .46188355 .12998963 .5159149 .14898682 .63500979 .22399903 .64401248 .24899292 .64401248 .28199769 .64401248 .34799195 .6259918 .36698915 .52693179 .3769989 .47088624 .3769989 .39482118 .3769989 .3317871 .3769989 .25672914 .3769989 .18867493 .3659973 .12461853 .35099793 .029556275 .2939911-.00047302247 .24899292-.00047302247Z"/>
<path id="font_4_1" d="M.33399964 .30233766C.33999635 .32835389 .36299134 .42037965 .43299867 .42037965 .43798829 .42037965 .46199037 .42037965 .48298646 .40734864 .45498658 .402359 .43499757 .37734986 .43499757 .35334779 .43499757 .33735658 .44599916 .31835938 .47299195 .31835938 .49499513 .31835938 .5269928 .3363495 .5269928 .37635804 .5269928 .42837525 .46798707 .4423828 .43399049 .4423828 .37599183 .4423828 .34098817 .38935853 .32899476 .36634828 .3039856 .43237306 .25 .4423828 .22099304 .4423828 .116989139 .4423828 .05999756 .3133545 .05999756 .28834535 .05999756 .27833558 .069992069 .27833558 .07199097 .27833558 .07998657 .27833558 .08299255 .28033448 .084991458 .28933717 .11898804 .39535523 .18499756 .42037965 .21899414 .42037965 .23799134 .42037965 .272995 .4113617 .272995 .35334779 .272995 .32235719 .2559967 .25532533 .21899414 .11528015 .20298767 .053268434 .16799927 .011245728 .12399292 .011245728 .117996219 .011245728 .09498596 .011245728 .07398987 .024276734 .09899902 .029266358 .12098694 .05027771 .12098694 .07827759 .12098694 .105270389 .09899902 .11328125 .083999637 .11328125 .053985597 .11328125 .0289917 .08728027 .0289917 .055267335 .0289917 .009246826 .07899475-.0107421879 .12298584-.0107421879 .18899536-.0107421879 .22499085 .059280397 .22799683 .0652771 .23999024 .028274537 .27598573-.0107421879 .33599855-.0107421879 .43899537-.0107421879 .49598695 .118270877 .49598695 .14328003 .49598695 .1532898 .4869995 .1532898 .48399354 .1532898 .47499085 .1532898 .47299195 .14929199 .47099305 .14228821 .43798829 .03527832 .36999513 .011245728 .33799745 .011245728 .29899598 .011245728 .2829895 .043273927 .2829895 .07727051 .2829895 .09927368 .2889862 .121276859 .2999878 .16529846L.33399964 .30233766Z"/>
<path id="font_4_2" d="M.48599244 .38136292C.48999024 .39537049 .48999024 .39736939 .48999024 .40437318 .48999024 .42237855 .47599793 .43138124 .46099855 .43138124 .45098878 .43138124 .43499757 .42536927 .42599488 .41036988 .42399598 .405365 .41600038 .37435914 .4119873 .35635377 .40499879 .33035279 .397995 .30334474 .3919983 .27633668L.34700013 .09628296C.34298707 .08126831 .2999878 .011245728 .23399353 .011245728 .18299866 .011245728 .17199707 .055267335 .17199707 .0922699 .17199707 .1382904 .18899536 .20030213 .22299195 .28833009 .23899842 .3293457 .24299622 .3403473 .24299622 .36035157 .24299622 .405365 .21099854 .4423828 .16099549 .4423828 .06599426 .4423828 .0289917 .29733277 .0289917 .28833009 .0289917 .27833558 .038986207 .27833558 .040985109 .27833558 .050994874 .27833558 .051986696 .28033448 .056991579 .29634095 .083999637 .3903656 .12399292 .42037965 .1579895 .42037965 .1659851 .42037965 .18299866 .42037965 .18299866 .3883667 .18299866 .36335755 .17298889 .3373413 .1659851 .31834413 .12599182 .21231079 .10798645 .1552887 .10798645 .10827637 .10798645 .019256592 .17098999-.0107421879 .22999573-.0107421879 .2689972-.0107421879 .30299378 .0062561037 .33099366 .03425598 .31799317-.017745972 .30599977-.06674194 .2659912-.11973572 .23999024-.15385437 .20199585-.18309021 .1559906-.18309021 .14199829-.18309021 .09700012-.18005371 .07998657-.14074707 .09599304-.14074707 .10899353-.14074707 .12298584-.1287384 .1329956-.11973572 .14299011-.10673523 .14299011-.08773804 .14299011-.056747438 .115997318-.052734376 .10598755-.052734376 .08299255-.052734376 .049987794-.068740848 .049987794-.11773682 .049987794-.16796875 .09399414-.20507813 .1559906-.20507813 .25898744-.20507813 .3619995-.11373901 .3899994-.00074768069L.48599244 .38136292Z"/>
</defs>
<g clip-path="url(#clip_1)">
<path transform="matrix(1.00003,0,0,-1.00009,1.0964966,295.72315)" d="M29.38998 61.22939 31.76491 63.2085 34.13985 65.1876 36.5148 67.16676 38.88972 69.14589 41.26466 71.125 43.63962 73.10411 46.01456 75.08324 48.38948 77.0624 50.76443 79.0415 53.13937 81.02063 55.5143 82.99974 57.88925 84.97885 60.26419 86.95801 62.63913 88.93713 65.01407 90.91624 67.389 92.89536 69.76395 94.87448 72.13889 96.85364 74.51382 98.83275 76.88878 100.81186 79.26372 102.79099 81.63864 104.77011 84.0136 106.74925 86.38853 108.72838 88.76347 110.70749 91.13841 112.68661 93.51335 114.66574 95.88829 116.64488 98.26323 118.62401 100.63817 120.60312 103.0131 122.58224 105.38806 124.56136 107.76299 126.54051 110.13792 128.51964 112.51288 130.49875 114.8878 132.47786 117.26274 134.45697 119.6377 136.43614 122.01263 138.41526 124.38757 140.39437 126.76251 142.37349 129.13745 144.3526 131.51239 146.33176 133.88733 148.31087 136.26227 150.29 138.63722 152.2691 141.01215 154.24823 143.38709 156.22739 145.76204 158.2065 148.13698 160.18561 150.5119 162.16474 152.88686 164.14386 155.2618 166.12297 157.63672 168.10208 160.01168 170.0812 162.38661 172.0604 164.76155 174.0395 167.13649 176.01863 169.51143 177.99776 171.88637 179.97687 174.2613 181.95598 176.63625 183.9351 179.0112 185.91422 181.38614 187.89333 183.76107 189.87245 186.13602 191.85166 188.51096 193.83077 190.88588 195.80988 193.26084 197.789 195.63578 199.76811 198.01071 201.74723 200.38565 203.72637 202.76059 205.70548 205.13553 207.68459 207.51049 209.6637 209.8854 211.6429 212.26035 213.62201 214.6353 215.60112 217.01023 217.58025 219.38516 219.55937 221.76012 221.53849 224.13506 223.5176 226.51 225.49672 228.88494 227.47583 231.25988 229.45494 233.63481 231.43415 236.00975 233.41327 238.38469 235.39238 240.75965 237.37149 243.13457 239.35062 245.5095 241.32973 247.88446 243.30884 250.25939 245.28797 252.63433 247.26709 255.00928 249.2462 257.38423 251.22539 259.75914 253.20452 262.1341 255.18363 264.50904 257.16273V12.24586H29.38998Z" fill="#b3ffb3" fill-opacity=".6"/>
<path transform="matrix(1.00003,0,0,-1.00009,1.0964966,295.72315)" stroke-width="1.59404" stroke-linecap="butt" stroke-miterlimit="10" stroke-linejoin="miter" fill="none" stroke="#ff0000" d="M0 91.84407C0 91.84407 2.14482 89.19086 2.9686 88.19579 3.79239 87.20073 5.11345 85.6327 5.93723 84.6723 6.76102 83.7119 8.08208 82.1996 8.90585 81.2739 9.72964 80.34818 11.0507 78.89146 11.87448 78.00041 12.69827 77.10938 14.01932 75.70818 14.8431 74.85179 15.66687 73.99542 16.98795 72.64989 17.81172 71.82819 18.6355 71.00648 19.95657 69.71655 20.78035 68.92953 21.60413 68.14252 22.9252 66.90819 23.74898 66.15582 24.57275 65.40346 25.89381 64.22467 26.71759 63.50697 27.54137 62.78928 28.86244 61.66617 29.68622 60.98314 30.51 60.30011 31.83107 59.23254 32.65485 58.5842 33.47862 57.93584 34.7997 56.92387 35.62347 56.3102 36.44725 55.69653 37.76831 54.74017 38.59209 54.16116 39.41586 53.58215 40.73694 52.68138 41.56071 52.13705 42.38449 51.59271 43.70555 50.74757 44.52934 50.23792 45.35312 49.72824 46.67418 48.93866 47.49797 48.46365 48.32175 47.98866 49.64279 47.2547 50.46658 46.81438 51.29036 46.37405 52.61142 45.6957 53.43521 45.29002 54.25899 44.88437 55.58005 44.26161 56.40384 43.89063 57.22762 43.51964 58.54868 42.9525 59.37245 42.61618 60.19624 42.27988 61.51729 41.7683 62.34106 41.46664 63.16486 41.165 64.48592 40.70903 65.3097 40.44206 66.13348 40.17508 67.45454 39.77472 68.27832 39.54242 69.10211 39.31012 70.42317 38.96535 71.24695 38.76772 72.07074 38.57007 73.39178 38.2809 74.21556 38.11794 75.03934 37.95497 76.36041 37.72142 77.18419 37.59312 78.00797 37.46484 79.32904 37.28688 80.15282 37.19324 80.9766 37.09961 82.29767 36.97722 83.12144 36.91827 83.94522 36.85931 85.26628 36.79259 86.09006 36.76831 86.91383 36.74402 88.23491 36.73285 89.05869 36.74323 89.88246 36.75359 91.20354 36.79803 92.02731 36.84308 92.85109 36.88812 94.17216 36.98819 94.99594 37.0679 95.81972 37.14763 97.1408 37.30328 97.96457 37.41766 98.78835 37.53204 100.1094 37.7433 100.93318 37.89235 101.75696 38.04141 103.07802 38.30824 103.90181 38.49197 104.72559 38.6757 106.04665 38.99818 106.87044 39.21658 107.69421 39.43497 109.01527 39.813 109.83907 40.06607 110.66284 40.31914 111.98389 40.75279 112.80768 41.04053 113.63145 41.32828 114.95251 41.81752 115.7763 42.13992 116.60008 42.46233 117.92114 43.00717 118.74492 43.36424 119.56871 43.72133 120.88977 44.32181 121.71355 44.71355 122.53734 45.10529 123.85838 45.76132 124.68216 46.18774 125.50595 46.61415 126.82701 47.3258 127.65079 47.7869 128.47458 48.24799 129.79564 49.01524 130.61942 49.511 131.4432 50.00674 132.76427 50.8296 133.58805 51.36003 134.41182 51.89046 135.73288 52.76892 136.55666 53.33401 137.38043 53.89912 138.7015 54.83315 139.52529 55.4329 140.34906 56.03267 141.67014 57.02234 142.49391 57.65678 143.31769 58.29121 144.63877 59.33646 145.46254 60.00557 146.28632 60.6747 147.60738 61.77553 148.43115 62.47931 149.25493 63.18307 150.576 64.33951 151.39978 65.07796 152.22356 65.8164 153.54463 67.02849 154.36841 67.80162 155.19219 68.57475 156.51326 69.84236 157.33704 70.65015 158.16082 71.45795 159.48188 72.78116 160.30565 73.62361 161.12943 74.46608 162.45049 75.84499 163.27428 76.72212 164.09806 77.59927 165.41912 79.03368 166.2429 79.94548 167.06668 80.85728 168.38774 82.34729 169.21154 83.29375 170.03531 84.2402 171.35636 85.78583 172.18015 86.76697 173.00392 87.74812 174.32498 89.34943 175.14876 90.36523 175.97255 91.38104 177.29361 93.03786 178.11739 94.08833 178.94118 95.13881 180.26224 96.85123 181.08602 97.9364 181.9098 99.02156 183.23085 100.78964 184.05463 101.90947 184.87842 103.02928 186.19948 104.85292 187.02326 106.0074 187.84705 107.16188 189.1681 109.04109 189.99188 110.23027 190.81566 111.41945 192.13674 113.35434 192.96051 114.57817 193.78429 115.802 195.10536 117.79243 195.92914 119.05093 196.75292 120.30942 198.07398 122.35544 198.89775 123.64859 199.72153 124.94176 201.0426 127.04333 201.86638 128.37119 202.69016 129.69904 204.01123 131.85637 204.835 133.2189 205.65879 134.58142 206.97986 136.79422 207.80364 138.1914 208.62741 139.5886 209.94847 141.85697 210.77225 143.28882 211.59603 144.72069 212.9171 147.0448 213.74088 148.51134 214.56465 149.97788 215.88573 152.35744 216.7095 153.85863 217.53328 155.3598 218.85434 157.79505 219.67813 159.33089 220.5019 160.86675 221.82295 163.3575 222.64675 164.92806 223.47052 166.4986 224.79158 169.04515 225.61537 170.65038 226.43915 172.2556 227.76021 174.85758 228.584 176.49744 229.40778 178.13732 230.72884 180.79488 231.55263 182.46944 232.3764 184.14398 233.69745 186.85733 234.52123 188.56655 235.34502 190.27577 236.66608 193.04453 237.48986 194.7884 238.31365 196.53227 239.6347 199.35668 240.45848 201.13524 241.28227 202.91382 242.60334 205.79395 243.42711 207.6072 244.2509 209.42044 245.57195 212.35599 246.39572 214.20388 247.21952 216.05178 248.54058 219.04296 249.36435 220.9255 250.18813 222.80806 251.5092 225.85482 252.33298 227.77207 253.15676 229.68933 254.47783 232.79186 255.3016 234.74379 256.12538 236.69573 257.44645 239.85369 258.27024 241.84026 259.094 243.82682 260.41508 247.04039 261.23887 249.06166 262.06263 251.08293 263.3837 254.35225 264.20747 256.40818 265.03126 258.4641 266.35234 261.78886 267.1761 263.87944 267.99989 265.97004 269.32096 269.3504 270.1447 271.47569 270.96849 273.60096 272.28959 277.0371 273.11335 279.19706 273.93714 281.35697 275.2582 284.84846 276.08198 287.043 276.90577 289.23759 278.2268 292.78465 279.0506 295.01399 279.87437 297.2433 281.19544 300.84654 282.01924 303.1105 282.843 305.37449 284.16407 309.0325 284.98786 311.3311 285.8116 313.6297 287.1327 317.34397 287.95649 319.67726 288.78025 322.01054 290.1013 325.77995 290.92509 328.14787 291.74888 330.5158 293.8937 336.74369 293.8937 336.74369"/>
<path transform="matrix(1.00003,0,0,-1.00009,1.0964966,295.72315)" stroke-width="1.59404" stroke-linecap="butt" stroke-miterlimit="10" stroke-linejoin="miter" fill="none" stroke="#0000ff" d="M0 36.73763C0 36.73763 2.14482 38.52498 2.9686 39.21146 3.79239 39.89793 5.11345 40.99887 5.93723 41.68536 6.76102 42.37186 8.08208 43.47275 8.90585 44.15921 9.72964 44.84569 11.0507 45.94656 11.87448 46.63306 12.69827 47.31953 14.01932 48.42049 14.8431 49.10698 15.66687 49.79346 16.98795 50.89433 17.81172 51.58081 18.6355 52.26729 19.95657 53.36818 20.78035 54.05466 21.60413 54.74113 22.9252 55.842 23.74898 56.52849 24.57275 57.21498 25.89381 58.31592 26.71759 59.00241 27.54137 59.6889 28.86244 60.78976 29.68622 61.47624 30.51 62.16272 31.83107 63.26364 32.65485 63.95012 33.47862 64.6366 34.7997 65.7375 35.62347 66.42397 36.44725 67.11044 37.76831 68.21138 38.59209 68.89786 39.41586 69.58432 40.73694 70.68521 41.56071 71.37169 42.38449 72.05817 43.70555 73.15907 44.52934 73.84557 45.35312 74.53206 46.67418 75.63297 47.49797 76.31944 48.32175 77.00592 49.64279 78.10681 50.46658 78.79329 51.29036 79.47977 52.61142 80.58067 53.43521 81.26715 54.25899 81.95363 55.58005 83.05452 56.40384 83.741 57.22762 84.42747 58.54868 85.5284 59.37245 86.21487 60.19624 86.90137 61.51729 88.00229 62.34106 88.68877 63.16486 89.37523 64.48592 90.47612 65.3097 91.1626 66.13348 91.84908 67.45454 92.95 68.27832 93.63647 69.10211 94.32295 70.42317 95.42384 71.24695 96.11032 72.07074 96.7968 73.39178 97.8977 74.21556 98.5842 75.03934 99.27069 76.36041 100.3716 77.18419 101.05807 78.00797 101.74455 79.32904 102.84543 80.15282 103.5319 80.9766 104.21838 82.29767 105.31932 83.12144 106.00578 83.94522 106.69226 85.26628 107.79317 86.09006 108.47964 86.91383 109.1661 88.23491 110.26703 89.05869 110.95352 89.88246 111.64001 91.20354 112.74092 92.02731 113.4274 92.85109 114.11388 94.17216 115.21475 94.99594 115.90123 95.81972 116.5877 97.1408 117.68863 97.96457 118.3751 98.78835 119.06158 100.1094 120.16248 100.93318 120.84895 101.75696 121.53543 103.07802 122.63635 103.90181 123.32283 104.72559 124.00931 106.04665 125.11023 106.87044 125.79669 107.69421 126.48317 109.01527 127.58408 109.83907 128.27056 110.66284 128.95702 111.98389 130.05796 112.80768 130.74443 113.63145 131.43091 114.95251 132.53179 115.7763 133.21826 116.60008 133.90474 117.92114 135.00565 118.74492 135.69214 119.56871 136.37863 120.88977 137.47954 121.71355 138.16602 122.53734 138.8525 123.85838 139.95339 124.68216 140.63986 125.50595 141.32634 126.82701 142.42726 127.65079 143.11374 128.47458 143.80022 129.79564 144.90111 130.61942 145.58757 131.4432 146.27405 132.76427 147.37497 133.58805 148.06145 134.41182 148.74794 135.73288 149.84886 136.55666 150.53534 137.38043 151.2218 138.7015 152.32271 139.52529 153.00919 140.34906 153.69567 141.67014 154.79659 142.49391 155.48307 143.31769 156.16954 144.63877 157.27042 145.46254 157.9569 146.28632 158.64337 147.60738 159.7443 148.43115 160.43077 149.25493 161.11725 150.576 162.21813 151.39978 162.90462 152.22356 163.59111 153.54463 164.69205 154.36841 165.37853 155.19219 166.065 156.51326 167.1659 157.33704 167.85236 158.16082 168.53884 159.48188 169.63973 160.30565 170.32622 161.12943 171.0127 162.45049 172.11363 163.27428 172.80013 164.09806 173.48662 165.41912 174.5875 166.2429 175.27397 167.06668 175.96045 168.38774 177.06133 169.21154 177.7478 170.03531 178.43428 171.35636 179.53516 172.18015 180.22165 173.00392 180.90814 174.32498 182.00907 175.14876 182.69556 175.97255 183.38205 177.29361 184.48293 178.11739 185.1694 178.94118 185.85588 180.26224 186.95676 181.08602 187.64324 181.9098 188.32973 183.23085 189.43068 184.05463 190.11717 184.87842 190.80365 186.19948 191.90453 187.02326 192.591 187.84705 193.27748 189.1681 194.37836 189.99188 195.06485 190.81566 195.75135 192.13674 196.85227 192.96051 197.53876 193.78429 198.22525 195.10536 199.32613 195.92914 200.0126 196.75292 200.69908 198.07398 201.79996 198.89775 202.48644 199.72153 203.17292 201.0426 204.27379 201.86638 204.96028 202.69016 205.64678 204.01123 206.74771 204.835 207.43419 205.65879 208.12068 206.97986 209.22158 207.80364 209.90805 208.62741 210.59452 209.94847 211.6954 210.77225 212.38188 211.59603 213.06836 212.9171 214.1693 213.74088 214.85579 214.56465 215.54228 215.88573 216.64316 216.7095 217.32964 217.53328 218.01612 218.85434 219.11699 219.67813 219.80347 220.5019 220.48995 221.82295 221.59082 222.64675 222.27732 223.47052 222.9638 224.79158 224.06473 225.61537 224.75122 226.43915 225.43772 227.76021 226.5386 228.584 227.22507 229.40778 227.91155 230.72884 229.01242 231.55263 229.69892 232.3764 230.38539 233.69745 231.48635 234.52123 232.17284 235.34502 232.85932 236.66608 233.96019 237.48986 234.64667 238.31365 235.33315 239.6347 236.43402 240.45848 237.12052 241.28227 237.807 242.60334 238.90793 243.42711 239.59442 244.2509 240.28092 245.57195 241.38179 246.39572 242.06827 247.21952 242.75475 248.54058 243.85562 249.36435 244.5421 250.18813 245.22858 251.5092 246.32946 252.33298 247.01595 253.15676 247.70244 254.47783 248.80338 255.3016 249.48986 256.12538 250.17635 257.44645 251.27724 258.27024 251.96372 259.094 252.65018 260.41508 253.75107 261.23887 254.43755 262.06263 255.12403 263.3837 256.22496 264.20747 256.91145 265.03126 257.59797 266.35234 258.69883 267.1761 259.3853 267.99989 260.07179 269.32096 261.17265 270.1447 261.85914 270.96849 262.54563 272.28959 263.64656 273.11335 264.33305 273.93714 265.01957 275.2582 266.1204 276.08198 266.8069 276.90577 267.49336 278.2268 268.59425 279.0506 269.28074 279.87437 269.96723 281.19544 271.06816 282.01924 271.75465 282.843 272.44114 284.16407 273.54203 284.98786 274.2285 285.8116 274.91499 287.1327 276.01585 287.95649 276.70234 288.78025 277.38883 290.1013 278.4897 290.92509 279.17619 291.74888 279.86268 293.8937 281.6501 293.8937 281.6501"/>
</g>
<path transform="matrix(1.00003,0,0,-1.00009,1.0964966,295.72315)" stroke-width=".19925" stroke-linecap="butt" stroke-miterlimit="10" stroke-linejoin="miter" fill="none" stroke="#7f807f" d="M29.38998 10.11995V14.37178M146.94992 10.11995V14.37178M205.72989 10.11995V14.37178M264.50987 10.11995V14.37178"/>
<path transform="matrix(1.00003,0,0,-1.00009,1.0964966,295.72315)" stroke-width=".19925" stroke-linecap="butt" stroke-miterlimit="10" stroke-linejoin="miter" fill="none" stroke="#7f807f" d="M86.04385 61.22939H90.29602M86.04385 110.21289H90.29602M86.04385 159.1964H90.29602M86.04385 208.17992H90.29602M86.04385 257.16343H90.29602"/>
<path transform="matrix(1.00003,0,0,-1.00009,1.0964966,295.72315)" stroke-width=".3985" stroke-linecap="butt" stroke-miterlimit="10" stroke-linejoin="miter" fill="none" stroke="#000000" d="M0 12.24586H291.90733"/>
<path transform="matrix(1.00003,0,0,-1.00009,293.01258,283.4762)" d="M1.99252 0-1.19551 1.59401 0 0-1.19551-1.59401"/>
<path transform="matrix(1.00003,0,0,-1.00009,1.0964966,295.72315)" stroke-width=".3985" stroke-linecap="butt" stroke-miterlimit="10" stroke-linejoin="miter" fill="none" stroke="#000000" d="M88.16995 0V291.90855"/>
<path transform="matrix(0,-1.00009,-1.00003,-0,89.2691,3.78833)" d="M1.99252 0-1.19551 1.59401 0 0-1.19551-1.59401"/>
<use data-text="&#x2212;" xlink:href="#font_2_1" transform="matrix(9.962899,0,0,-9.963496,24.122189,295.54313)"/>
<use data-text="1" xlink:href="#font_3_2" transform="matrix(9.962899,0,0,-9.963496,31.871418,295.54313)"/>
<use data-text="1" xlink:href="#font_3_2" transform="matrix(9.962899,0,0,-9.963496,145.55983,295.54313)"/>
<use data-text="2" xlink:href="#font_3_3" transform="matrix(9.962899,0,0,-9.963496,204.3416,295.54313)"/>
<use data-text="3" xlink:href="#font_3_4" transform="matrix(9.962899,0,0,-9.963496,263.12339,295.54313)"/>
<use data-text="2" xlink:href="#font_3_3" transform="matrix(9.962899,0,0,-9.963496,78.64182,237.69892)"/>
<use data-text="4" xlink:href="#font_3_5" transform="matrix(9.962899,0,0,-9.963496,78.64182,188.71051)"/>
<use data-text="6" xlink:href="#font_3_6" transform="matrix(9.962899,0,0,-9.963496,78.64182,139.72312)"/>
<use data-text="8" xlink:href="#font_3_7" transform="matrix(9.962899,0,0,-9.963496,78.64182,90.734699)"/>
<use data-text="1" xlink:href="#font_3_2" transform="matrix(9.962899,0,0,-9.963496,73.659679,41.747285)"/>
<use data-text="0" xlink:href="#font_3_1" transform="matrix(9.962899,0,0,-9.963496,78.64113,41.747285)"/>
<use data-text="x" xlink:href="#font_4_1" transform="matrix(9.962899,0,0,-9.963496,285.79106,279.95573)"/>
<use data-text="y" xlink:href="#font_4_2" transform="matrix(9.962899,0,0,-9.963496,92.78925,9.605377)"/>
</svg>
