<svg xmlns="http://www.w3.org/2000/svg" xmlns:xlink="http://www.w3.org/1999/xlink" xmlns:inkscape="http://www.inkscape.org/namespaces/inkscape" version="1.1" width="184" height="185" viewBox="0 0 184 185">
<defs>
<clipPath id="clip_1">
<path transform="matrix(1.00002,0,0,-1.00002,1.095665,183.74036)" d="M0 0H181.93727V181.9403H0Z"/>
</clipPath>
<path id="font_2_1" d="M.31098939 .36265565H.42999269C.4149933 .30274964 .3929901 .2118988 .3929901 .13302613 .3929901 .09309387 .397995 .06613159 .4039917 .044174196 .41999818-.0057678224 .43299867-.009765625 .44898988-.009765625 .47200013-.009765625 .49598695 .011230469 .49598695 .035186769 .49598695 .043182374 .49398805 .047164918 .48799134 .057159425 .46899415 .09408569 .45098878 .15100098 .45098878 .23286438 .45098878 .25183106 .45098878 .29177857 .46499635 .36265565H.58999636C.60798647 .36265565 .6159973 .36265565 .6269989 .37065126 .6409912 .380661 .6439972 .39665223 .6439972 .4016571 .6439972 .43066407 .6179962 .43066407 .6009979 .43066407H.22399903C.18299866 .43066407 .15499878 .42166139 .10998535 .37965394 .083999637 .35665895 .04499817 .30274964 .04499817 .2937622 .04499817 .28178407 .057998659 .28178407 .06199646 .28178407 .07299805 .28178407 .07398987 .28378297 .07998657 .2927704 .1309967 .36265565 .19299317 .36265565 .21499634 .36265565H.27598573C.24499512 .25283814 .19099427 .13502503 .16099549 .07511902 .15499878 .062149049 .14498902 .04118347 .14199829 .03718567 .14099121 .033187868 .13899231 .029190064 .13899231 .022201539 .13899231 .006225586 .15098572-.009765625 .17399597-.009765625 .21398926-.009765625 .22499085 .035186769 .24899292 .12504578L.31098939 .36265565Z"/>
<path id="font_3_1" d="M.5049896 .18203736H.47099305C.46798707 .16001892 .45799256 .100997928 .44499208 .09098816 .43699647 .084991458 .3600006 .084991458 .34599305 .084991458H.1619873C.2669983 .17803955 .3019867 .20603943 .3619995 .25306703 .43598939 .312088 .5049896 .374115 .5049896 .46914674 .5049896 .5900879 .39898683 .6640625 .2709961 .6640625 .14698792 .6640625 .06298828 .57710269 .06298828 .4851532 .06298828 .43414308 .10598755 .42915345 .115997318 .42915345 .13999939 .42915345 .16899109 .44615174 .16899109 .48214723 .16899109 .5001526 .1619873 .53515627 .10998535 .53515627 .14099121 .6060791 .20899964 .62805178 .2559967 .62805178 .35598756 .62805178 .4079895 .5501404 .4079895 .46914674 .4079895 .38212586 .34599305 .3130951 .31399537 .27708436L.07299805 .038986207C.06298828 .02999878 .06298828 .027999878 .06298828 0H.47499085L.5049896 .18203736Z"/>
<path id="font_4_1" d="M.2649994 .37265016H.37799073C.34498597 .22489929 .33599855 .18196106 .33599855 .11508179 .33599855 .100097659 .33599855 .073150638 .34399415 .03919983 .35398866-.0047454836 .36499024-.0107421879 .37998963-.0107421879 .3999939-.0107421879 .42099 .007247925 .42099 .02722168 .42099 .033218385 .42099 .035202028 .4149933 .049179079 .38598634 .12106323 .38598634 .18595886 .38598634 .21391297 .38598634 .26683045 .3929901 .32073976 .4039917 .37265016H.5179901C.5309906 .37265016 .5669861 .37265016 .5669861 .406662 .5669861 .43066407 .54599 .43066407 .5269928 .43066407H.19198609C.16999817 .43066407 .13198853 .43066407 .08799744 .38365174 .052993776 .34469605 .026992798 .29878236 .026992798 .29379273 .026992798 .29278565 .026992798 .28379823 .038986207 .28379823 .04699707 .28379823 .04899597 .28779603 .054992677 .29577638 .10398865 .37265016 .1619873 .37265016 .18199158 .37265016H.23899842C.20698548 .25186158 .15299988 .13105774 .11099243 .04020691 .102996829 .025222779 .102996829 .023223877 .102996829 .016235352 .102996829-.002746582 .11898804-.0107421879 .13198853-.0107421879 .1619873-.0107421879 .16999817 .017242432 .18199158 .05418396 .19599915 .100097659 .19599915 .10209656 .20899964 .15202332L.2649994 .37265016Z"/>
<path id="font_4_2" d="M.33399964 .30233766C.33999635 .32835389 .36299134 .42037965 .43299867 .42037965 .43798829 .42037965 .46199037 .42037965 .48298646 .40734864 .45498658 .402359 .43499757 .37734986 .43499757 .35334779 .43499757 .33735658 .44599916 .31835938 .47299195 .31835938 .49499513 .31835938 .5269928 .3363495 .5269928 .37635804 .5269928 .42837525 .46798707 .4423828 .43399049 .4423828 .37599183 .4423828 .34098817 .38935853 .32899476 .36634828 .3039856 .43237306 .25 .4423828 .22099304 .4423828 .116989139 .4423828 .05999756 .3133545 .05999756 .28834535 .05999756 .27833558 .069992069 .27833558 .07199097 .27833558 .07998657 .27833558 .08299255 .28033448 .084991458 .28933717 .11898804 .39535523 .18499756 .42037965 .21899414 .42037965 .23799134 .42037965 .272995 .4113617 .272995 .35334779 .272995 .32235719 .2559967 .25532533 .21899414 .11528015 .20298767 .053268434 .16799927 .011245728 .12399292 .011245728 .117996219 .011245728 .09498596 .011245728 .07398987 .024276734 .09899902 .029266358 .12098694 .05027771 .12098694 .07827759 .12098694 .105270389 .09899902 .11328125 .083999637 .11328125 .053985597 .11328125 .0289917 .08728027 .0289917 .055267335 .0289917 .009246826 .07899475-.0107421879 .12298584-.0107421879 .18899536-.0107421879 .22499085 .059280397 .22799683 .0652771 .23999024 .028274537 .27598573-.0107421879 .33599855-.0107421879 .43899537-.0107421879 .49598695 .118270877 .49598695 .14328003 .49598695 .1532898 .4869995 .1532898 .48399354 .1532898 .47499085 .1532898 .47299195 .14929199 .47099305 .14228821 .43798829 .03527832 .36999513 .011245728 .33799745 .011245728 .29899598 .011245728 .2829895 .043273927 .2829895 .07727051 .2829895 .09927368 .2889862 .121276859 .2999878 .16529846L.33399964 .30233766Z"/>
<path id="font_4_3" d="M.48599244 .38136292C.48999024 .39537049 .48999024 .39736939 .48999024 .40437318 .48999024 .42237855 .47599793 .43138124 .46099855 .43138124 .45098878 .43138124 .43499757 .42536927 .42599488 .41036988 .42399598 .405365 .41600038 .37435914 .4119873 .35635377 .40499879 .33035279 .397995 .30334474 .3919983 .27633668L.34700013 .09628296C.34298707 .08126831 .2999878 .011245728 .23399353 .011245728 .18299866 .011245728 .17199707 .055267335 .17199707 .0922699 .17199707 .1382904 .18899536 .20030213 .22299195 .28833009 .23899842 .3293457 .24299622 .3403473 .24299622 .36035157 .24299622 .405365 .21099854 .4423828 .16099549 .4423828 .06599426 .4423828 .0289917 .29733277 .0289917 .28833009 .0289917 .27833558 .038986207 .27833558 .040985109 .27833558 .050994874 .27833558 .051986696 .28033448 .056991579 .29634095 .083999637 .3903656 .12399292 .42037965 .1579895 .42037965 .1659851 .42037965 .18299866 .42037965 .18299866 .3883667 .18299866 .36335755 .17298889 .3373413 .1659851 .31834413 .12599182 .21231079 .10798645 .1552887 .10798645 .10827637 .10798645 .019256592 .17098999-.0107421879 .22999573-.0107421879 .2689972-.0107421879 .30299378 .0062561037 .33099366 .03425598 .31799317-.017745972 .30599977-.06674194 .2659912-.11973572 .23999024-.15385437 .20199585-.18309021 .1559906-.18309021 .14199829-.18309021 .09700012-.18005371 .07998657-.14074707 .09599304-.14074707 .10899353-.14074707 .12298584-.1287384 .1329956-.11973572 .14299011-.10673523 .14299011-.08773804 .14299011-.056747438 .115997318-.052734376 .10598755-.052734376 .08299255-.052734376 .049987794-.068740848 .049987794-.11773682 .049987794-.16796875 .09399414-.20507813 .1559906-.20507813 .25898744-.20507813 .3619995-.11373901 .3899994-.00074768069L.48599244 .38136292Z"/>
</defs>
<g clip-path="url(#clip_1)">
<path transform="matrix(1.00002,0,0,-1.00002,1.095665,183.74036)" d="M22.74216 90.97015 31.83902 103.01762 40.93588 114.586 50.03275 125.21132 59.12961 134.47389 68.22647 142.00017 77.32333 147.49234 86.4202 150.73329 94.15253 151.6157 95.51706 151.58843 104.61392 150.02919 113.71078 146.11261 122.80765 140.00125 131.90453 131.9328 141.00139 122.23294 150.09825 111.2856 159.19512 99.528 165.63568 90.97015V90.97136L159.19512 74.02605 150.09825 52.68748 141.00139 37.39236 131.90453 30.55867 122.80765 33.25989 113.71078 45.07448 104.61392 64.13455 95.51706 87.4308 94.15253 91.06657 86.4202 111.2844 77.32333 131.9328 68.22647 146.11261 59.12961 151.58843 50.03275 147.49234 40.93588 134.47389 31.83902 114.586 22.74216 90.97015Z" fill="#99ff99" fill-opacity=".6"/>
<path transform="matrix(1.00002,0,0,-1.00002,1.095665,183.74036)" stroke-width="1.59404" stroke-linecap="butt" stroke-miterlimit="10" stroke-linejoin="miter" fill="none" stroke="#ff0000" d="M0 39.94012C0 39.94012 1.32776 41.92793 1.83772 42.75171 2.3477 43.57549 3.16551 44.96918 3.67548 45.87746 4.18544 46.78572 5.00327 48.31107 5.51323 49.29793 6.0232 50.28479 6.841 51.93097 7.35097 52.99011 7.86093 54.04924 8.67876 55.80736 9.18872 56.93153 9.69868 58.05573 10.51651 59.91052 11.02647 61.09251 11.53644 62.27452 12.35426 64.2182 12.86423 65.45059 13.37419 66.68298 14.19202 68.70036 14.70198 69.97484 15.21194 71.24931 16.02975 73.32802 16.53972 74.63614 17.04968 75.94427 17.86751 78.0696 18.37747 79.40298 18.88744 80.73636 19.70525 82.89601 20.21523 84.24623 20.72519 85.59644 21.54298 87.77669 22.05295 89.13437 22.56293 90.49207 23.38074 92.67542 23.8907 94.0316 24.40067 95.38779 25.21849 97.56221 25.72845 98.90881 26.23842 100.2554 27.05624 102.40874 27.56621 103.7369 28.07617 105.06505 28.894 107.18091 29.40396 108.4813 29.91393 109.7817 30.73174 111.84453 31.2417 113.10925 31.75166 114.37396 32.56949 116.37581 33.07945 117.59651 33.58942 118.81721 34.40723 120.739 34.91719 121.90727 35.42715 123.07555 36.24498 124.90791 36.75494 126.01671 37.26491 127.12549 38.08273 128.85715 38.5927 129.8987 39.10266 130.94025 39.92049 132.55597 40.43045 133.52356 40.94041 134.49115 41.75822 135.98465 42.2682 136.87248 42.77817 137.7603 43.59596 139.12058 44.10593 139.9224 44.6159 140.7242 45.43372 141.94081 45.94368 142.65149 46.45364 143.36219 47.27147 144.42969 47.78143 145.04462 48.2914 145.65956 49.1092 146.56851 49.61917 147.08358 50.12914 147.59864 50.94696 148.34459 51.45692 148.7568 51.96689 149.16902 52.78471 149.74845 53.29468 150.05464 53.80464 150.36084 54.62247 150.7655 55.13243 150.96376 55.6424 151.162 56.46022 151.39406 56.97018 151.48349 57.48015 151.57292 58.29796 151.62895 58.80792 151.60843 59.31789 151.5879 60.13571 151.46544 60.64568 151.33553 61.15564 151.2056 61.97345 150.91068 62.48343 150.67205 62.9934 150.43343 63.8112 149.96173 64.32117 149.61557 64.83115 149.26941 65.64894 148.62772 66.1589 148.17704 66.66888 147.72637 67.4867 146.92017 67.99666 146.36733 68.50662 145.8145 69.32445 144.84392 69.83441 144.19254 70.34438 143.54117 71.16219 142.41777 71.67215 141.67266 72.18211 140.92755 72.99994 139.65683 73.5099 138.82227 74.01987 137.98772 74.83769 136.57599 75.34766 135.65772 75.85762 134.73944 76.67545 133.19992 77.18541 132.20389 77.69537 131.20786 78.5132 129.54644 79.02316 128.47896 79.53313 127.4115 80.35094 125.64182 80.8609 124.51022 81.37086 123.37865 82.18869 121.5119 82.69865 120.32318 83.20862 119.13446 84.02643 117.18071 84.5364 115.94267 85.04637 114.70464 85.86417 112.67915 86.37413 111.40022 86.88411 110.12129 87.70192 108.0368 88.21188 106.72496 88.72185 105.41313 89.53967 103.28146 90.04964 101.94539 90.5596 100.60931 91.37743 98.44685 91.88739 97.09547 92.39735 95.7441 93.21518 93.56331 93.72514 92.20552 94.2351 90.84775 95.05292 88.66525 95.56288 87.3095 96.07285 85.95374 96.89067 83.7791 97.40063 82.43411 97.9106 81.08914 98.72841 78.94077 99.23837 77.6157 99.74834 76.29066 100.56616 74.18074 101.07613 72.88405 101.58609 71.58737 102.40392 69.52954 102.91388 68.27005 103.42384 67.01057 104.24165 65.02094 104.75163 63.80647 105.2616 62.592 106.0794 60.67854 106.58937 59.5169 107.09935 58.35529 107.91714 56.53488 108.42711 55.43417 108.93709 54.33347 109.7549 52.6166 110.26486 51.58371 110.77483 50.55083 111.59265 48.94804 112.10262 47.98978 112.61258 47.03152 113.43039 45.55464 113.94035 44.67726 114.45032 43.79987 115.26814 42.45718 115.7781 41.66614 116.28807 40.87509 117.1059 39.6751 117.61586 38.97585 118.12582 38.2766 118.94365 37.22922 119.45361 36.62639 119.96358 36.02357 120.7814 35.13379 121.29137 34.6311 121.80133 34.12842 122.61914 33.40254 123.1291 33.00336 123.63907 32.60416 124.4569 32.04718 124.96686 31.75403 125.47682 31.46086 126.29463 31.07544 126.80461 30.89041 127.31458 30.70538 128.13239 30.49597 128.64235 30.42041 129.15233 30.34486 129.97013 30.312 130.48009 30.34581 130.99005 30.37964 131.80788 30.52084 132.31784 30.6642 132.8278 30.80757 133.64563 31.12697 134.1556 31.37923 134.66556 31.6315 135.48337 32.12376 135.99333 32.48239 136.5033 32.84102 137.32112 33.50053 137.83109 33.96399 138.34105 34.42746 139.15888 35.2576 139.66884 35.82281 140.1788 36.38803 140.99663 37.375 141.50659 38.03764 142.01656 38.70027 142.83438 39.84212 143.34435 40.59874 143.85431 41.35538 144.67212 42.64584 145.18209 43.491 145.69205 44.33615 146.50986 45.76208 147.01984 46.69012 147.5298 47.61815 148.34761 49.17444 148.85759 50.17973 149.36756 51.18503 150.18535 52.86003 150.69532 53.9356 151.20529 55.01115 152.0231 56.79243 152.53307 57.9316 153.04303 59.07076 153.86086 60.95056 154.37082 62.14594 154.88079 63.34131 155.69861 65.30383 156.20858 66.54707 156.71854 67.79033 157.53636 69.82294 158.04633 71.1065 158.55629 72.39006 159.3741 74.48285 159.88407 75.79814 160.39403 77.11343 161.21186 79.24805 161.72182 80.58621 162.23178 81.92438 163.04959 84.09016 163.55956 85.44281 164.06952 86.79544 164.88735 88.97699 165.39731 90.33517 165.90727 91.69337 166.7251 93.87679 167.23506 95.23178 167.74503 96.58678 168.56284 98.75824 169.07282 100.10114 169.58278 101.44402 170.40059 103.5883 170.91056 104.91042 171.42053 106.23251 172.23833 108.33737 172.74829 109.62994 173.25826 110.9225 174.07608 112.97183 174.58605 114.22636 175.09601 115.4809 175.91384 117.46335 176.4238 118.67177 176.93376 119.88019 177.75157 121.7817 178.26154 122.93584 178.7715 124.08998 179.58933 125.89711 180.09929 126.99008 180.60926 128.08306 181.93704 130.81327 181.93704 130.81327"/>
<path transform="matrix(1.00002,0,0,-1.00002,1.095665,183.74036)" stroke-width="1.59404" stroke-linecap="butt" stroke-miterlimit="10" stroke-linejoin="miter" fill="none" stroke="#0000ff" d="M0 61.89607C0 61.89607 1.32776 63.46053 1.83772 64.06966 2.3477 64.67879 3.16551 65.66539 3.67548 66.2863 4.18544 66.90721 5.00327 67.91312 5.51323 68.54478 6.0232 69.17645 6.841 70.19795 7.35097 70.83905 7.86093 71.48015 8.67876 72.51561 9.18872 73.16545 9.69868 73.8153 10.51651 74.86539 11.02647 75.52281 11.53644 76.18024 12.35426 77.24005 12.86423 77.9038 13.37419 78.56752 14.19202 79.6375 14.70198 80.30663 15.21194 80.97577 16.02975 82.05301 16.53972 82.72643 17.04968 83.39984 17.86751 84.48347 18.37747 85.16019 18.88744 85.83688 19.70525 86.92502 20.21523 87.60364 20.72519 88.28227 21.54298 89.37204 22.05295 90.05135 22.56293 90.73064 23.38074 91.82036 23.8907 92.49965 24.40067 93.17896 25.21849 94.26889 25.72845 94.94736 26.23842 95.62582 27.05624 96.71358 27.56621 97.38962 28.07617 98.06564 28.894 99.14732 29.40396 99.81972 29.91393 100.49213 30.73174 101.56795 31.2417 102.2359 31.75166 102.90384 32.56949 103.97156 33.07945 104.63385 33.58942 105.29616 34.40723 106.3539 34.91719 107.0094 35.42715 107.66489 36.24498 108.71042 36.75494 109.35825 37.26491 110.00609 38.08273 111.03976 38.5927 111.67859 39.10266 112.31743 39.92049 113.33365 40.43045 113.96255 40.94041 114.59146 41.75822 115.59303 42.2682 116.21133 42.77817 116.82964 43.59596 117.8126 44.10593 118.41887 44.6159 119.02515 45.43372 119.9878 45.94368 120.58093 46.45364 121.17407 47.27147 122.1147 47.78143 122.69386 48.2914 123.27303 49.1092 124.19089 49.61917 124.75523 50.12914 125.3196 50.94696 126.21266 51.45692 126.76144 51.96689 127.31024 52.78471 128.17824 53.29468 128.71063 53.80464 129.24301 54.62247 130.08393 55.13243 130.59856 55.6424 131.11319 56.46022 131.92385 56.97018 132.41979 57.48015 132.91574 58.29796 133.69623 58.80792 134.17308 59.31789 134.64994 60.13571 135.39949 60.64568 135.85665 61.15564 136.3138 61.97345 137.03165 62.48343 137.46802 62.9934 137.90439 63.8112 138.58687 64.32117 139.00179 64.83115 139.41672 65.64894 140.0654 66.1589 140.45853 66.66888 140.85164 67.4867 141.46504 67.99666 141.83519 68.50662 142.20536 69.32445 142.77979 69.83441 143.12638 70.34438 143.47296 71.16219 144.01023 71.67215 144.33325 72.18211 144.65627 72.99994 145.15615 73.5099 145.4546 74.01987 145.75307 74.83769 146.21102 75.34766 146.48439 75.85762 146.75777 76.67545 147.17653 77.18541 147.425 77.69537 147.6735 78.5132 148.05281 79.02316 148.27529 79.53313 148.49777 80.35094 148.83229 80.8609 149.02852 81.37086 149.22475 82.18869 149.51959 82.69865 149.68958 83.20862 149.85955 84.02643 150.11022 84.5364 150.25359 85.04637 150.39696 85.86417 150.60678 86.37413 150.72299 86.88411 150.83919 87.70192 151.00225 88.21188 151.0911 88.72185 151.17996 89.53967 151.30149 90.04964 151.36342 90.5596 151.42536 91.37743 151.50308 91.88739 151.53748 92.39735 151.57189 93.21518 151.60465 93.72514 151.61145 94.2351 151.61826 95.05292 151.60704 95.56288 151.5866 96.07285 151.56615 96.89067 151.51212 97.40063 151.46408 97.9106 151.41605 98.72841 151.31577 99.23837 151.2403 99.74834 151.16481 100.56616 151.02239 101.07613 150.92008 101.58609 150.81777 102.40392 150.63249 102.91388 150.50284 103.42384 150.37317 104.24165 150.1422 104.75163 149.98552 105.2616 149.82886 106.0794 149.55625 106.58937 149.37358 107.09935 149.19092 107.91714 148.87798 108.42711 148.66889 108.93709 148.4598 109.7549 148.10213 110.26486 147.86652 110.77483 147.63092 111.59265 147.23154 112.10262 146.97078 112.61258 146.71 113.43039 146.27292 113.94035 145.98708 114.45032 145.70124 115.26814 145.22151 115.7781 144.9106 116.28807 144.59969 117.1059 144.08107 117.61586 143.74617 118.12582 143.41127 118.94365 142.85515 119.45361 142.49686 119.96358 142.13858 120.7814 141.54535 121.29137 141.16385 121.80133 140.78234 122.61914 140.1512 123.1291 139.74713 123.63907 139.34307 124.4569 138.67711 124.96686 138.25159 125.47682 137.82607 126.29463 137.12694 126.80461 136.68022 127.31458 136.23349 128.13239 135.4991 128.64235 135.03185 129.15233 134.56458 129.97013 133.79897 130.48009 133.31252 130.99005 132.82607 131.80788 132.03139 132.31784 131.52585 132.8278 131.02031 133.64563 130.19242 134.1556 129.66886 134.66556 129.1453 135.48337 128.29253 135.99333 127.7524 136.5033 127.21228 137.32112 126.33246 137.83109 125.77592 138.34105 125.2194 139.15888 124.31334 139.66884 123.74124 140.1788 123.16914 140.99663 122.23898 141.50659 121.65256 142.01656 121.06615 142.83438 120.11446 143.34435 119.51476 143.85431 118.91505 144.67212 117.94241 145.18209 117.33026 145.69205 116.71811 146.50986 115.72641 147.01984 115.1027 147.5298 114.47902 148.34761 113.46916 148.85759 112.83513 149.36756 112.2011 150.18535 111.17635 150.69532 110.53297 151.20529 109.88959 152.0231 108.84995 152.53307 108.19807 153.04303 107.54619 153.86086 106.4936 154.37082 105.83466 154.88079 105.17572 155.69861 104.114 156.20858 103.44884 156.71854 102.78368 157.53636 101.711 158.04633 101.04053 158.55629 100.37007 159.3741 99.29074 159.88407 98.61649 160.39403 97.94223 161.21186 96.85812 161.72182 96.18092 162.23178 95.50372 163.04959 94.4146 163.55956 93.73564 164.06952 93.05667 164.88735 91.96672 165.39731 91.28732 165.90727 90.60794 166.7251 89.51823 167.23506 88.83902 167.74503 88.15979 168.56284 87.0698 169.07282 86.39192 169.58278 85.71405 170.40059 84.6285 170.91056 83.95331 171.42053 83.27814 172.23833 82.19717 172.74829 81.52562 173.25826 80.85405 174.07608 79.77962 174.58605 79.1131 175.09601 78.44658 175.91384 77.38243 176.4238 76.72179 176.93376 76.06116 177.75157 75.00552 178.26154 74.35172 178.7715 73.6979 179.58933 72.65517 180.09929 72.00954 180.60926 71.36389 181.93704 69.6983 181.93704 69.6983"/>
<path transform="matrix(1.00002,0,0,-1.00002,1.095665,183.74036)" stroke-width="1.19553" stroke-linecap="butt" stroke-miterlimit="10" stroke-linejoin="miter" fill="none" stroke="#008080" d="M127.63808 30.62662H132.18651V133.85349H127.63808V30.62662"/>
</g>
<path transform="matrix(1.00002,0,0,-1.00002,1.095665,183.74036)" stroke-width=".19925" stroke-linecap="butt" stroke-miterlimit="10" stroke-linejoin="miter" fill="none" stroke="#7f807f" d="M94.18892 88.8441V93.09619M165.63568 88.8441V93.09619"/>
<path transform="matrix(1.00002,0,0,-1.00002,1.095665,183.74036)" stroke-width=".19925" stroke-linecap="butt" stroke-miterlimit="10" stroke-linejoin="miter" fill="none" stroke="#7f807f" d=""/>
<path transform="matrix(1.00002,0,0,-1.00002,1.095665,183.74036)" stroke-width=".3985" stroke-linecap="butt" stroke-miterlimit="10" stroke-linejoin="miter" fill="none" stroke="#000000" d="M0 90.97015H179.94475"/>
<path transform="matrix(1.00002,0,0,-1.00002,181.044,92.76838)" d="M1.99252 0-1.19551 1.59401 0 0-1.19551-1.59401"/>
<path transform="matrix(1.00002,0,0,-1.00002,1.095665,183.74036)" stroke-width=".3985" stroke-linecap="butt" stroke-miterlimit="10" stroke-linejoin="miter" fill="none" stroke="#000000" d="M22.74216 0V179.94779"/>
<path transform="matrix(0,-1.00002,-1.00002,-0,23.838282,3.788971)" d="M1.99252 0-1.19551 1.59401 0 0-1.19551-1.59401"/>
<use data-text="&#x03c0;" xlink:href="#font_2_1" transform="matrix(6.97394,0,0,-6.97394,92.832508,101.4167)"/>
<path transform="matrix(1.00002,0,0,-1.00002,8.339813,-62.204576)" stroke-width=".3985" stroke-linecap="butt" stroke-miterlimit="10" stroke-linejoin="miter" fill="none" stroke="#000000" d="M84.491-165.05H89.4"/>
<use data-text="2" xlink:href="#font_3_1" transform="matrix(6.97394,0,0,-6.97394,93.30151,108.77484)"/>
<use data-text="&#x03c0;" xlink:href="#font_4_1" transform="matrix(9.962799,0,0,-9.962799,163.71591,102.70373)"/>
<use data-text="x" xlink:href="#font_4_2" transform="matrix(9.962799,0,0,-9.962799,173.82215,89.24847)"/>
<use data-text="y" xlink:href="#font_4_3" transform="matrix(9.962799,0,0,-9.962799,27.358193,9.6058659)"/>
</svg>
