<svg xmlns="http://www.w3.org/2000/svg" xmlns:xlink="http://www.w3.org/1999/xlink" xmlns:inkscape="http://www.inkscape.org/namespaces/inkscape" version="1.1" width="241" height="128" viewBox="0 0 241 128">
<defs>
<clipPath id="clip_1">
<path transform="matrix(1.00002,0,0,-1.00005,1.095665,308.14363)" d="M0 181.08712H238.63304V306.3347H0Z"/>
</clipPath>
<path id="font_2_1" d="M.6589966 .23046875C.6759949 .23046875 .69400027 .23046875 .69400027 .25045777 .69400027 .27046205 .6759949 .27046205 .6589966 .27046205H.117996219C.100997928 .27046205 .08299255 .27046205 .08299255 .25045777 .08299255 .23046875 .100997928 .23046875 .117996219 .23046875H.6589966Z"/>
<path id="font_3_3" d="M.2899933 .35191346C.37199403 .37893678 .42999269 .4490509 .42999269 .52809146 .42999269 .6100464 .34199525 .6660156 .24598694 .6660156 .14498902 .6660156 .068984989 .60606387 .068984989 .53009036 .068984989 .49710084 .09098816 .47808839 .11999512 .47808839 .15098572 .47808839 .17098999 .50009158 .17098999 .5290985 .17098999 .57910159 .12399292 .57910159 .10899353 .57910159 .13999939 .62802127 .20599365 .64100649 .24198914 .64100649 .2829895 .64100649 .33799745 .6190338 .33799745 .5290985 .33799745 .51708987 .33599855 .45906068 .30999757 .4149933 .27999879 .36691285 .24598694 .36390687 .22099304 .36291505 .21299744 .36190797 .18899536 .35990907 .18199158 .35990907 .17399597 .35890199 .16699219 .35791017 .16699219 .3479004 .16699219 .33691407 .17399597 .33691407 .19099427 .33691407H.23498535C.31698609 .33691407 .35398866 .2686615 .35398866 .17037964 .35398866 .034469606 .2849884 .0055389406 .24099732 .0055389406 .19799805 .0055389406 .12298584 .022491456 .08799744 .08137512 .12298584 .07637024 .1539917 .09837341 .1539917 .1363678 .1539917 .17237854 .1269989 .19238281 .09799194 .19238281 .07398987 .19238281 .041992189 .17837525 .041992189 .1343689 .041992189 .043441774 .1349945-.022460938 .24398804-.022460938 .3659973-.022460938 .45700074 .06838989 .45700074 .17037964 .45700074 .252594 .3939972 .33088685 .2899933 .35191346Z"/>
<path id="font_3_2" d="M.1269989 .07699585 .23298645 .18003845C.3889923 .31811524 .44898988 .3721466 .44898988 .47216798 .44898988 .5860901 .35899354 .6660156 .23699951 .6660156 .12399292 .6660156 .049987794 .57411196 .049987794 .48516847 .049987794 .4291687 .099990848 .4291687 .102996829 .4291687 .11999512 .4291687 .15499878 .44117738 .15499878 .48217774 .15499878 .5081787 .13699341 .5341797 .101989749 .5341797 .09399414 .5341797 .09199524 .5341797 .08898926 .5331726 .11199951 .59806826 .1659851 .63500979 .22399903 .63500979 .31498719 .63500979 .35798646 .5541382 .35798646 .47216798 .35798646 .39215089 .30799867 .31311036 .25299073 .25108338L.06098938 .036987306C.049987794 .025985718 .049987794 .023986817 .049987794 0H.42099L.44898988 .17404175H.42399598C.4189911 .14402771 .4119873 .1000061 .4019928 .084991458 .394989 .07699585 .32899476 .07699585 .30699159 .07699585H.1269989Z"/>
<path id="font_3_1" d="M.2939911 .64004519C.2939911 .66400149 .2939911 .6660156 .2709961 .6660156 .20899964 .60227969 .12098694 .60227969 .08898926 .60227969V.57128909C.10899353 .57128909 .16799927 .57128909 .21998596 .5972748V.07902527C.21998596 .042999269 .21699524 .0309906 .1269989 .0309906H.09498596V0C.12998963 .0029907227 .21699524 .0029907227 .25698854 .0029907227 .29699708 .0029907227 .38398744 .0029907227 .4189911 0V.0309906H.3869934C.29699708 .0309906 .2939911 .041992189 .2939911 .07902527V.64004519Z"/>
<path id="font_4_1" d="M.33399964 .30233766C.33999635 .32835389 .36299134 .42037965 .43299867 .42037965 .43798829 .42037965 .46199037 .42037965 .48298646 .40734864 .45498658 .402359 .43499757 .37734986 .43499757 .35334779 .43499757 .33735658 .44599916 .31835938 .47299195 .31835938 .49499513 .31835938 .5269928 .3363495 .5269928 .37635804 .5269928 .42837525 .46798707 .4423828 .43399049 .4423828 .37599183 .4423828 .34098817 .38935853 .32899476 .36634828 .3039856 .43237306 .25 .4423828 .22099304 .4423828 .116989139 .4423828 .05999756 .3133545 .05999756 .28834535 .05999756 .27833558 .069992069 .27833558 .07199097 .27833558 .07998657 .27833558 .08299255 .28033448 .084991458 .28933717 .11898804 .39535523 .18499756 .42037965 .21899414 .42037965 .23799134 .42037965 .272995 .4113617 .272995 .35334779 .272995 .32235719 .2559967 .25532533 .21899414 .11528015 .20298767 .053268434 .16799927 .011245728 .12399292 .011245728 .117996219 .011245728 .09498596 .011245728 .07398987 .024276734 .09899902 .029266358 .12098694 .05027771 .12098694 .07827759 .12098694 .105270389 .09899902 .11328125 .083999637 .11328125 .053985597 .11328125 .0289917 .08728027 .0289917 .055267335 .0289917 .009246826 .07899475-.0107421879 .12298584-.0107421879 .18899536-.0107421879 .22499085 .059280397 .22799683 .0652771 .23999024 .028274537 .27598573-.0107421879 .33599855-.0107421879 .43899537-.0107421879 .49598695 .118270877 .49598695 .14328003 .49598695 .1532898 .4869995 .1532898 .48399354 .1532898 .47499085 .1532898 .47299195 .14929199 .47099305 .14228821 .43798829 .03527832 .36999513 .011245728 .33799745 .011245728 .29899598 .011245728 .2829895 .043273927 .2829895 .07727051 .2829895 .09927368 .2889862 .121276859 .2999878 .16529846L.33399964 .30233766Z"/>
<path id="font_4_2" d="M.48599244 .38136292C.48999024 .39537049 .48999024 .39736939 .48999024 .40437318 .48999024 .42237855 .47599793 .43138124 .46099855 .43138124 .45098878 .43138124 .43499757 .42536927 .42599488 .41036988 .42399598 .405365 .41600038 .37435914 .4119873 .35635377 .40499879 .33035279 .397995 .30334474 .3919983 .27633668L.34700013 .09628296C.34298707 .08126831 .2999878 .011245728 .23399353 .011245728 .18299866 .011245728 .17199707 .055267335 .17199707 .0922699 .17199707 .1382904 .18899536 .20030213 .22299195 .28833009 .23899842 .3293457 .24299622 .3403473 .24299622 .36035157 .24299622 .405365 .21099854 .4423828 .16099549 .4423828 .06599426 .4423828 .0289917 .29733277 .0289917 .28833009 .0289917 .27833558 .038986207 .27833558 .040985109 .27833558 .050994874 .27833558 .051986696 .28033448 .056991579 .29634095 .083999637 .3903656 .12399292 .42037965 .1579895 .42037965 .1659851 .42037965 .18299866 .42037965 .18299866 .3883667 .18299866 .36335755 .17298889 .3373413 .1659851 .31834413 .12599182 .21231079 .10798645 .1552887 .10798645 .10827637 .10798645 .019256592 .17098999-.0107421879 .22999573-.0107421879 .2689972-.0107421879 .30299378 .0062561037 .33099366 .03425598 .31799317-.017745972 .30599977-.06674194 .2659912-.11973572 .23999024-.15385437 .20199585-.18309021 .1559906-.18309021 .14199829-.18309021 .09700012-.18005371 .07998657-.14074707 .09599304-.14074707 .10899353-.14074707 .12298584-.1287384 .1329956-.11973572 .14299011-.10673523 .14299011-.08773804 .14299011-.056747438 .115997318-.052734376 .10598755-.052734376 .08299255-.052734376 .049987794-.068740848 .049987794-.11773682 .049987794-.16796875 .09399414-.20507813 .1559906-.20507813 .25898744-.20507813 .3619995-.11373901 .3899994-.00074768069L.48599244 .38136292Z"/>
</defs>
<g clip-path="url(#clip_1)">
<path transform="matrix(1.00002,0,0,-1.00005,1.095665,308.14363)" d="M51.13565 214.48647 68.18086 248.4077 85.22609 268.7604 102.2713 278.67585 119.31651 281.28517 136.36174 279.7196 153.40695 277.11027 170.45218 276.5884 187.49739 281.28517 170.45218 251.017 153.40695 227.01123 136.36174 209.2678 119.31651 197.78679 102.2713 192.56813 85.22609 193.61188 68.18086 200.91797 51.13565 214.48647Z" fill="#99ff99" fill-opacity=".6"/>
<path transform="matrix(1.00002,0,0,-1.00005,1.095665,308.14363)" stroke-width="1.59404" stroke-linecap="butt" stroke-miterlimit="10" stroke-linejoin="miter" fill="none" stroke="#ff0000" d="M0 0C0 0 1.7415 10.70758 2.41037 14.7216 3.07924 18.73563 4.1519 25.05753 4.82077 28.93036 5.48964 32.8032 6.56229 38.90016 7.23117 42.63438 7.90004 46.36859 8.97269 52.24596 9.64156 55.84402 10.31042 59.44208 11.38309 65.10254 12.05196 68.56683 12.72083 72.03111 13.79347 77.47922 14.46234 80.81226 15.13123 84.14528 16.20387 89.38486 16.87274 92.58902 17.54161 95.7932 18.61427 100.82794 19.28314 103.90575 19.95201 106.98355 21.02466 111.81783 21.69353 114.77176 22.36241 117.72568 23.43506 122.36317 24.10393 125.19565 24.7728 128.0281 25.84546 132.4728 26.51433 135.18628 27.1832 137.89975 28.25584 142.15557 28.92471 144.7525 29.5936 147.34944 30.66624 151.42038 31.33511 153.90322 32.00398 156.38605 33.07664 160.27584 33.74551 162.64704 34.41438 165.01825 35.48703 168.73116 36.1559 170.99321 36.82478 173.25527 37.89743 176.79508 38.5663 178.95043 39.23517 181.10579 40.30783 184.47643 40.9767 186.52753 41.64557 188.57862 42.71822 191.78404 43.38708 193.73334 44.05597 195.68264 45.12862 198.72679 45.79749 200.57672 46.46635 202.42665 47.53902 205.31337 48.20789 207.0664 48.87675 208.81946 49.9494 211.55292 50.61827 213.21155 51.28716 214.8702 52.3598 217.45417 53.02867 219.02085 53.69754 220.58751 54.7702 223.02596 55.43907 224.50312 56.10794 225.98027 57.18059 228.27716 57.84946 229.66727 58.51834 231.05739 59.59099 233.21663 60.25986 234.52213 60.92873 235.82764 62.00139 237.8531 62.67026 239.07648 63.33913 240.29984 64.41177 242.19562 65.08064 243.33931 65.74953 244.483 66.82217 246.25299 67.49104 247.31946 68.15991 248.38593 69.23257 250.03401 69.90144 251.02571 70.57031 252.01741 71.64296 253.54759 72.31183 254.46697 72.98071 255.38632 74.05336 256.80247 74.72223 257.65199 75.3911 258.5015 76.46376 259.80763 77.13263 260.58976 77.8015 261.37187 78.87415 262.5719 79.54301 263.2891 80.2119 264.00627 81.28455 265.1041 81.95341 265.75883 82.62228 266.41355 83.69495 267.41316 84.36382 268.00785 85.03268 268.6025 86.10533 269.5078 86.7742 270.0449 87.44308 270.58204 88.51573 271.397 89.1846 271.87898 89.85347 272.361 90.92613 273.08955 91.595 273.5189 92.26387 273.94825 93.33652 274.5943 94.00539 274.97346 94.67427 275.35264 95.74692 275.92015 96.41579 276.25157 97.08466 276.58296 98.15732 277.07594 98.82619 277.36207 99.49506 277.6482 100.5677 278.0705 101.23657 278.3138 101.90546 278.5571 102.9781 278.9127 103.64697 279.11567 104.31584 279.31858 105.3885 279.6114 106.05737 279.77644 106.72624 279.94145 107.79889 280.17546 108.46776 280.30503 109.13664 280.4346 110.20929 280.6137 110.87816 280.71028 111.54703 280.80686 112.61969 280.935 113.28856 281.001 113.95743 281.06706 115.03008 281.14823 115.69894 281.18617 116.36783 281.2241 117.44048 281.2622 118.10934 281.2745 118.77821 281.28684 119.85088 281.2858 120.51974 281.27497 121.18861 281.26414 122.26126 281.22789 122.93013 281.19633 123.59901 281.1648 124.67166 281.0973 125.34053 281.0475 126.0094 280.99769 127.08206 280.9029 127.75093 280.83729 128.4198 280.77168 129.49245 280.65354 130.16132 280.5746 130.8302 280.49565 131.90285 280.35807 132.57172 280.26823 133.24059 280.17839 134.31325 280.02534 134.98212 279.9271 135.65099 279.82884 136.72364 279.6642 137.3925 279.56 138.06139 279.45576 139.13404 279.28358 139.8029 279.17585 140.47177 279.06809 141.54444 278.8922 142.2133 278.78343 142.88217 278.67463 143.95482 278.49903 144.62369 278.39164 145.29257 278.28425 146.36522 278.11289 147.03409 278.00935 147.70296 277.9058 148.7756 277.7426 149.44448 277.6454 150.11334 277.54817 151.186 277.39707 151.85488 277.3086 152.52376 277.22016 153.5964 277.08509 154.26528 277.00788 154.93415 276.93067 156.0068 276.81556 156.67568 276.752 157.34455 276.68849 158.41718 276.59733 159.08605 276.54994 159.75493 276.50257 160.82758 276.4392 161.49645 276.41044 162.16532 276.38166 163.23799 276.35014 163.90686 276.3424 164.57573 276.3347 165.64838 276.33894 166.31725 276.3547 166.98613 276.37049 168.05876 276.4144 168.72763 276.45616 169.3965 276.49794 170.46916 276.58546 171.13803 276.65565 171.8069 276.7258 172.87955 276.86097 173.54842 276.962 174.2173 277.06306 175.28997 277.2497 175.95883 277.38414 176.6277 277.51853 177.70035 277.76057 178.36922 277.9308 179.03809 278.101 180.11074 278.40245 180.7796 278.61094 181.44849 278.81938 182.52114 279.18415 183.19 279.43333 183.85887 279.6825 184.93154 280.11454 185.6004 280.4069 186.26927 280.69926 187.34194 281.2025 188.0108 281.54048 188.67969 281.87846 189.75232 282.45686 190.42119 282.84294 191.09006 283.229 192.16272 283.88648 192.83159 284.32307 193.50046 284.7597 194.5731 285.50016 195.24198 285.98976 195.91086 286.47938 196.9835 287.30686 197.65238 287.85194 198.32125 288.39704 199.3939 289.31538 200.06278 289.91835 200.73165 290.52134 201.80429 291.53456 202.47316 292.19795 203.14205 292.8613 204.21469 293.97328 204.88356 294.6995 205.55243 295.42567 206.62509 296.6404 207.29396 297.4319 207.96283 298.22334 209.03548 299.5447 209.70435 300.40394 210.37323 301.26316 211.44588 302.69514 212.11475 303.62458 212.78362 304.554 213.85628 306.10054 214.52515 307.1026 215.19402 308.10469 216.26667 309.76976 216.93553 310.84693 217.60442 311.92414 218.67707 313.7116 219.34593 314.86637 220.0148 316.0211 221.08747 317.93489 221.75634 319.16966 222.4252 320.40446 223.49785 322.4486 224.16672 323.76588 224.8356 325.0832 225.90825 327.26158 226.57712 328.6638 227.24599 330.066 228.31865 332.38264 228.98752 333.87229 229.65639 335.3619 230.72904 337.82063 231.3979 339.4001 232.06679 340.97956 233.13944 343.5842 233.8083 345.25599 234.47718 346.92778 235.54984 349.6826 236.2187 351.44917 236.88758 353.21577 238.62909 357.98835 238.62909 357.98835"/>
<path transform="matrix(1.00002,0,0,-1.00005,1.095665,308.14363)" stroke-width="1.59404" stroke-linecap="butt" stroke-miterlimit="10" stroke-linejoin="miter" fill="none" stroke="#0000ff" d="M0 292.7662C0 292.7662 1.7415 289.16835 2.41037 287.81053 3.07924 286.45274 4.1519 284.30305 4.82077 282.98005 5.48964 281.65705 6.56229 279.5634 7.23117 278.2751 7.90004 276.98683 8.97269 274.94853 9.64156 273.69496 10.31042 272.4414 11.38309 270.4591 12.05196 269.24034 12.72083 268.02156 13.79347 266.09486 14.46234 264.91084 15.13123 263.72679 16.20387 261.85585 16.87274 260.70655 17.54161 259.55729 18.61427 257.7421 19.28314 256.6276 19.95201 255.51308 21.02466 253.75356 21.69353 252.67378 22.36241 251.594 23.43506 249.89023 24.10393 248.8452 24.7728 247.80017 25.84546 246.15213 26.51433 245.14185 27.1832 244.13158 28.25584 242.53928 28.92471 241.56375 29.5936 240.58823 30.66624 239.05164 31.33511 238.11086 32.00398 237.17009 33.07664 235.6893 33.74551 234.78328 34.41438 233.87726 35.48703 232.45214 36.1559 231.58087 36.82478 230.7096 37.89743 229.3402 38.5663 228.50366 39.23517 227.66713 40.30783 226.35349 40.9767 225.5517 41.64557 224.74993 42.71822 223.492 43.38708 222.72498 44.05597 221.95793 45.12862 220.75574 45.79749 220.02347 46.46635 219.2912 47.53902 218.14478 48.20789 217.44727 48.87675 216.74976 49.9494 215.659 50.61827 214.99622 51.28716 214.33345 52.3598 213.29843 53.02867 212.67043 53.69754 212.04242 54.7702 211.06314 55.43907 210.46987 56.10794 209.87659 57.18059 208.95304 57.84946 208.39452 58.51834 207.836 59.59099 206.96817 60.25986 206.4444 60.92873 205.92063 62.00139 205.10855 62.67026 204.61956 63.33913 204.13056 64.41177 203.37418 65.08064 202.9199 65.74953 202.46564 66.82217 201.765 67.49104 201.34549 68.15991 200.92597 69.23257 200.28107 69.90144 199.89632 70.57031 199.51155 71.64296 198.92235 72.31183 198.57234 72.98071 198.22234 74.05336 197.6889 74.72223 197.37364 75.3911 197.0584 76.46376 196.58068 77.13263 196.30016 77.8015 196.01966 78.87415 195.59766 79.54301 195.35192 80.2119 195.10616 81.28455 194.73987 81.95341 194.52887 82.62228 194.31787 83.69495 194.00733 84.36382 193.83107 85.03268 193.65482 86.10533 193.40003 86.7742 193.25852 87.44308 193.11702 88.51573 192.91794 89.1846 192.81119 89.85347 192.70444 90.92613 192.56107 91.595 192.48908 92.26387 192.41707 93.33652 192.32946 94.00539 192.2922 94.67427 192.25496 95.74692 192.22306 96.41579 192.22055 97.08466 192.21807 98.15732 192.2419 98.82619 192.27414 99.49506 192.30638 100.5677 192.38597 101.23657 192.45296 101.90546 192.51996 102.9781 192.65526 103.64697 192.757 104.31584 192.85875 105.3885 193.04979 106.05737 193.1863 106.72624 193.32279 107.79889 193.56957 108.46776 193.7408 109.13664 193.91204 110.20929 194.21456 110.87816 194.42055 111.54703 194.62653 112.61969 194.98476 113.28856 195.2255 113.95743 195.46625 115.03008 195.8802 115.69894 196.15572 116.36783 196.43122 117.44048 196.90091 118.10934 197.21115 118.77821 197.5214 119.85088 198.0468 120.51974 198.3918 121.18861 198.7368 122.26126 199.31795 122.93013 199.6977 123.59901 200.07744 124.67166 200.71433 125.34053 201.12883 126.0094 201.54332 127.08206 202.23593 127.75093 202.68517 128.4198 203.13442 129.49245 203.88277 130.16132 204.36678 130.8302 204.85077 131.90285 205.65483 132.57172 206.17359 133.24059 206.69234 134.31325 207.55213 134.98212 208.10562 135.65099 208.65912 136.72364 209.57465 137.3925 210.1629 138.06139 210.75116 139.13404 211.72241 139.8029 212.34543 140.47177 212.96843 141.54444 213.99539 142.2133 214.65316 142.88217 215.31092 143.95482 216.39362 144.62369 217.08614 145.29257 217.77864 146.36522 218.91706 147.03409 219.64432 147.70296 220.37158 148.7756 221.56574 149.44448 222.32776 150.11334 223.08977 151.186 224.33966 151.85488 225.13643 152.52376 225.9332 153.5964 227.23883 154.26528 228.07033 154.93415 228.90184 156.0068 230.26316 156.67568 231.12941 157.34455 231.99567 158.41718 233.41275 159.08605 234.31377 159.75493 235.2148 160.82758 236.6876 161.49645 237.62339 162.16532 238.55916 163.23799 240.08769 163.90686 241.05821 164.57573 242.02875 165.64838 243.613 166.31725 244.61827 166.98613 245.62352 168.05876 247.26348 168.72763 248.30348 169.3965 249.34349 170.46916 251.03922 171.13803 252.114 171.8069 253.18878 172.87955 254.94023 173.54842 256.04978 174.2173 257.1593 175.28997 258.9665 175.95883 260.11073 176.6277 261.255 177.70035 263.11796 178.36922 264.29695 179.03809 265.47599 180.11074 267.3946 180.7796 268.60838 181.44849 269.82218 182.52114 271.79646 183.19 273.045 183.85887 274.29353 184.93154 276.3236 185.6004 277.6069 186.26927 278.89018 187.34194 280.976 188.0108 282.29405 188.67969 283.6121 189.75232 285.75364 190.42119 287.1064 191.09006 288.45918 192.16272 290.6565 192.83159 292.044 193.50046 293.43153 194.5731 295.68446 195.24198 297.10676 195.91086 298.529 196.9835 300.83778 197.65238 302.2948 198.32125 303.75184 199.3939 306.1163 200.06278 307.6081 200.73165 309.09989 201.80429 311.52009 202.47316 313.04664 203.14205 314.57316 204.21469 317.04908 204.88356 318.61039 205.55243 320.17167 206.62509 322.70335 207.29396 324.29939 207.96283 325.8954 209.03548 328.48268 209.70435 330.11347 210.37323 331.74424 211.44588 334.38737 212.11475 336.0529 212.78362 337.71846 213.85628 340.4173 214.52515 342.1176 215.19402 343.8179 216.26667 346.57246 216.93553 348.3075 217.60442 350.04258 218.67707 352.85289 219.34593 354.62266 220.0148 356.39244 221.08747 359.25837 221.75634 361.0629 222.4252 362.86744 223.49785 365.78919 224.16672 367.6285 224.8356 369.4678 225.90825 372.44529 226.57712 374.31935 227.24599 376.1934 228.31865 379.22669 228.98752 381.1355 229.65639 383.0443 230.72904 386.13328 231.3979 388.07679 232.06679 390.0203 233.13944 393.16477 233.8083 395.143 234.47718 397.1213 235.54984 400.3218 236.2187 402.33488 236.88758 404.34797 238.62909 409.6519 238.62909 409.6519"/>
</g>
<path transform="matrix(1.00002,0,0,-1.00005,1.095665,308.14363)" stroke-width=".19925" stroke-linecap="butt" stroke-miterlimit="10" stroke-linejoin="miter" fill="none" stroke="#7f807f" d="M17.04521 237.41002V241.66194M51.13565 237.41002V241.66194M85.22609 237.41002V241.66194M153.40695 237.41002V241.66194M187.49739 237.41002V241.66194M221.58783 237.41002V241.66194"/>
<path transform="matrix(1.00002,0,0,-1.00005,1.095665,308.14363)" stroke-width=".19925" stroke-linecap="butt" stroke-miterlimit="10" stroke-linejoin="miter" fill="none" stroke="#7f807f" d=""/>
<path transform="matrix(1.00002,0,0,-1.00005,1.095665,308.14363)" stroke-width=".3985" stroke-linecap="butt" stroke-miterlimit="10" stroke-linejoin="miter" fill="none" stroke="#000000" d="M0 239.53598H236.64052"/>
<path transform="matrix(1.00002,0,0,-1.00005,237.74094,68.59567)" d="M1.99252 0-1.19551 1.59401 0 0-1.19551-1.59401"/>
<path transform="matrix(1.00002,0,0,-1.00005,1.095665,308.14363)" stroke-width=".3985" stroke-linecap="butt" stroke-miterlimit="10" stroke-linejoin="miter" fill="none" stroke="#000000" d="M119.31651 181.08712V304.34217"/>
<path transform="matrix(0,-1.00005,-1.00002,-0,120.414569,3.786255)" d="M1.99252 0-1.19551 1.59401 0 0-1.19551-1.59401"/>
<use data-text="&#x2212;" xlink:href="#font_2_1" transform="matrix(9.962799,0,0,-9.963098,11.775879,80.66225)"/>
<use data-text="3" xlink:href="#font_3_3" transform="matrix(9.962799,0,0,-9.963098,19.525032,80.66225)"/>
<use data-text="&#x2212;" xlink:href="#font_2_1" transform="matrix(9.962799,0,0,-9.963098,45.86756,80.66225)"/>
<use data-text="2" xlink:href="#font_3_2" transform="matrix(9.962799,0,0,-9.963098,53.616716,80.66225)"/>
<use data-text="&#x2212;" xlink:href="#font_2_1" transform="matrix(9.962799,0,0,-9.963098,79.958248,80.66225)"/>
<use data-text="1" xlink:href="#font_3_1" transform="matrix(9.962799,0,0,-9.963098,87.7074,80.66225)"/>
<use data-text="1" xlink:href="#font_3_1" transform="matrix(9.962799,0,0,-9.963098,152.01468,80.66225)"/>
<use data-text="2" xlink:href="#font_3_2" transform="matrix(9.962799,0,0,-9.963098,186.10639,80.66225)"/>
<use data-text="3" xlink:href="#font_3_3" transform="matrix(9.962799,0,0,-9.963098,220.19705,80.66225)"/>
<use data-text="x" xlink:href="#font_4_1" transform="matrix(9.962799,0,0,-9.963098,230.51926,65.07547)"/>
<use data-text="y" xlink:href="#font_4_2" transform="matrix(9.962799,0,0,-9.963098,123.93412,9.603699)"/>
</svg>
