<svg xmlns="http://www.w3.org/2000/svg" xmlns:xlink="http://www.w3.org/1999/xlink" xmlns:inkscape="http://www.inkscape.org/namespaces/inkscape" version="1.1" width="213" height="157" viewBox="0 0 213 157">
<defs>
<clipPath id="clip_1">
<path transform="matrix(1.00003,0,0,-1.00002,1.0964966,206.58882)" d="M0 51.19722H210.28896V204.78888H0Z"/>
</clipPath>
<path id="font_2_1" d="M.6589966 .23046875C.6759949 .23046875 .69400027 .23046875 .69400027 .25045777 .69400027 .27046205 .6759949 .27046205 .6589966 .27046205H.117996219C.100997928 .27046205 .08299255 .27046205 .08299255 .25045777 .08299255 .23046875 .100997928 .23046875 .117996219 .23046875H.6589966Z"/>
<path id="font_3_1" d="M.2939911 .64004519C.2939911 .66400149 .2939911 .6660156 .2709961 .6660156 .20899964 .60227969 .12098694 .60227969 .08898926 .60227969V.57128909C.10899353 .57128909 .16799927 .57128909 .21998596 .5972748V.07902527C.21998596 .042999269 .21699524 .0309906 .1269989 .0309906H.09498596V0C.12998963 .0029907227 .21699524 .0029907227 .25698854 .0029907227 .29699708 .0029907227 .38398744 .0029907227 .4189911 0V.0309906H.3869934C.29699708 .0309906 .2939911 .041992189 .2939911 .07902527V.64004519Z"/>
<path id="font_4_1" d="M.31098939 .36265565H.42999269C.4149933 .30274964 .3929901 .2118988 .3929901 .13302613 .3929901 .09309387 .397995 .06613159 .4039917 .044174196 .41999818-.0057678224 .43299867-.009765625 .44898988-.009765625 .47200013-.009765625 .49598695 .011230469 .49598695 .035186769 .49598695 .043182374 .49398805 .047164918 .48799134 .057159425 .46899415 .09408569 .45098878 .15100098 .45098878 .23286438 .45098878 .25183106 .45098878 .29177857 .46499635 .36265565H.58999636C.60798647 .36265565 .6159973 .36265565 .6269989 .37065126 .6409912 .380661 .6439972 .39665223 .6439972 .4016571 .6439972 .43066407 .6179962 .43066407 .6009979 .43066407H.22399903C.18299866 .43066407 .15499878 .42166139 .10998535 .37965394 .083999637 .35665895 .04499817 .30274964 .04499817 .2937622 .04499817 .28178407 .057998659 .28178407 .06199646 .28178407 .07299805 .28178407 .07398987 .28378297 .07998657 .2927704 .1309967 .36265565 .19299317 .36265565 .21499634 .36265565H.27598573C.24499512 .25283814 .19099427 .13502503 .16099549 .07511902 .15499878 .062149049 .14498902 .04118347 .14199829 .03718567 .14099121 .033187868 .13899231 .029190064 .13899231 .022201539 .13899231 .006225586 .15098572-.009765625 .17399597-.009765625 .21398926-.009765625 .22499085 .035186769 .24899292 .12504578L.31098939 .36265565Z"/>
<path id="font_5_2" d="M.5289917 .1640625V.20005799H.41799928V.64582827C.41799928 .66682437 .41799928 .6738281 .3959961 .6738281 .38398744 .6738281 .37998963 .6738281 .36999513 .65982058L.038986207 .20005799V.1640625H.33299256V.08201599C.33299256 .04800415 .33299256 .035995485 .2519989 .035995485H.22499085V0C.2749939 .0019989014 .33898927 .0039978029 .375 .0039978029 .4119873 .0039978029 .47599793 .0019989014 .526001 0V.035995485H.49899293C.41799928 .035995485 .41799928 .04800415 .41799928 .08201599V.1640625H.5289917M.33999635 .5658722V.20005799H.07598877L.33999635 .5658722Z"/>
<path id="font_5_1" d="M.5049896 .18203736H.47099305C.46798707 .16001892 .45799256 .100997928 .44499208 .09098816 .43699647 .084991458 .3600006 .084991458 .34599305 .084991458H.1619873C.2669983 .17803955 .3019867 .20603943 .3619995 .25306703 .43598939 .312088 .5049896 .374115 .5049896 .46914674 .5049896 .5900879 .39898683 .6640625 .2709961 .6640625 .14698792 .6640625 .06298828 .57710269 .06298828 .4851532 .06298828 .43414308 .10598755 .42915345 .115997318 .42915345 .13999939 .42915345 .16899109 .44615174 .16899109 .48214723 .16899109 .5001526 .1619873 .53515627 .10998535 .53515627 .14099121 .6060791 .20899964 .62805178 .2559967 .62805178 .35598756 .62805178 .4079895 .5501404 .4079895 .46914674 .4079895 .38212586 .34599305 .3130951 .31399537 .27708436L.07299805 .038986207C.06298828 .02999878 .06298828 .027999878 .06298828 0H.47499085L.5049896 .18203736Z"/>
<path id="font_6_1" d="M.33399964 .30233766C.33999635 .32835389 .36299134 .42037965 .43299867 .42037965 .43798829 .42037965 .46199037 .42037965 .48298646 .40734864 .45498658 .402359 .43499757 .37734986 .43499757 .35334779 .43499757 .33735658 .44599916 .31835938 .47299195 .31835938 .49499513 .31835938 .5269928 .3363495 .5269928 .37635804 .5269928 .42837525 .46798707 .4423828 .43399049 .4423828 .37599183 .4423828 .34098817 .38935853 .32899476 .36634828 .3039856 .43237306 .25 .4423828 .22099304 .4423828 .116989139 .4423828 .05999756 .3133545 .05999756 .28834535 .05999756 .27833558 .069992069 .27833558 .07199097 .27833558 .07998657 .27833558 .08299255 .28033448 .084991458 .28933717 .11898804 .39535523 .18499756 .42037965 .21899414 .42037965 .23799134 .42037965 .272995 .4113617 .272995 .35334779 .272995 .32235719 .2559967 .25532533 .21899414 .11528015 .20298767 .053268434 .16799927 .011245728 .12399292 .011245728 .117996219 .011245728 .09498596 .011245728 .07398987 .024276734 .09899902 .029266358 .12098694 .05027771 .12098694 .07827759 .12098694 .105270389 .09899902 .11328125 .083999637 .11328125 .053985597 .11328125 .0289917 .08728027 .0289917 .055267335 .0289917 .009246826 .07899475-.0107421879 .12298584-.0107421879 .18899536-.0107421879 .22499085 .059280397 .22799683 .0652771 .23999024 .028274537 .27598573-.0107421879 .33599855-.0107421879 .43899537-.0107421879 .49598695 .118270877 .49598695 .14328003 .49598695 .1532898 .4869995 .1532898 .48399354 .1532898 .47499085 .1532898 .47299195 .14929199 .47099305 .14228821 .43798829 .03527832 .36999513 .011245728 .33799745 .011245728 .29899598 .011245728 .2829895 .043273927 .2829895 .07727051 .2829895 .09927368 .2889862 .121276859 .2999878 .16529846L.33399964 .30233766Z"/>
<path id="font_6_2" d="M.48599244 .38136292C.48999024 .39537049 .48999024 .39736939 .48999024 .40437318 .48999024 .42237855 .47599793 .43138124 .46099855 .43138124 .45098878 .43138124 .43499757 .42536927 .42599488 .41036988 .42399598 .405365 .41600038 .37435914 .4119873 .35635377 .40499879 .33035279 .397995 .30334474 .3919983 .27633668L.34700013 .09628296C.34298707 .08126831 .2999878 .011245728 .23399353 .011245728 .18299866 .011245728 .17199707 .055267335 .17199707 .0922699 .17199707 .1382904 .18899536 .20030213 .22299195 .28833009 .23899842 .3293457 .24299622 .3403473 .24299622 .36035157 .24299622 .405365 .21099854 .4423828 .16099549 .4423828 .06599426 .4423828 .0289917 .29733277 .0289917 .28833009 .0289917 .27833558 .038986207 .27833558 .040985109 .27833558 .050994874 .27833558 .051986696 .28033448 .056991579 .29634095 .083999637 .3903656 .12399292 .42037965 .1579895 .42037965 .1659851 .42037965 .18299866 .42037965 .18299866 .3883667 .18299866 .36335755 .17298889 .3373413 .1659851 .31834413 .12599182 .21231079 .10798645 .1552887 .10798645 .10827637 .10798645 .019256592 .17098999-.0107421879 .22999573-.0107421879 .2689972-.0107421879 .30299378 .0062561037 .33099366 .03425598 .31799317-.017745972 .30599977-.06674194 .2659912-.11973572 .23999024-.15385437 .20199585-.18309021 .1559906-.18309021 .14199829-.18309021 .09700012-.18005371 .07998657-.14074707 .09599304-.14074707 .10899353-.14074707 .12298584-.1287384 .1329956-.11973572 .14299011-.10673523 .14299011-.08773804 .14299011-.056747438 .115997318-.052734376 .10598755-.052734376 .08299255-.052734376 .049987794-.068740848 .049987794-.11773682 .049987794-.16796875 .09399414-.20507813 .1559906-.20507813 .25898744-.20507813 .3619995-.11373901 .3899994-.00074768069L.48599244 .38136292Z"/>
</defs>
<g clip-path="url(#clip_1)">
<path transform="matrix(1.00003,0,0,-1.00002,1.0964966,206.58882)" stroke-width="1.59404" stroke-linecap="butt" stroke-miterlimit="10" stroke-linejoin="miter" fill="none" stroke="#ff0000" d="M52.09767 0C52.09767 0 54.85176 1.49454 55.9705 2.06856 57.08925 2.64256 58.95692 3.56311 60.16086 4.13712 61.3648 4.71114 63.36627 5.63167 64.64774 6.20569 65.92918 6.7797 68.04623 7.70026 69.39674 8.27426 70.74727 8.84827 72.97029 9.76881 74.3813 10.34282 75.7923 10.91684 78.10445 11.83737 79.56631 12.41139 81.02818 12.9854 83.41426 13.90594 84.91747 14.47995 86.42067 15.05397 88.8656 15.97452 90.4004 16.54854 91.93521 17.12254 94.42287 18.04309 95.97937 18.6171 97.53587 19.1911 100.05074 20.11165 101.61862 20.68565 103.18651 21.25967 105.71066 22.1802 107.2796 22.75423 108.84856 23.32823 111.36618 24.2488 112.92656 24.8228 114.48695 25.39682 116.98453 26.31735 118.52585 26.89136 120.06718 27.46538 122.52347 28.38591 124.03543 28.95993 125.54738 29.53394 127.95018 30.45448 129.42304 31.02849 130.8959 31.60251 133.2266 32.52306 134.65082 33.09708 136.07505 33.67108 138.32167 34.59163 139.68793 35.16563 141.0542 35.73964 143.19889 36.66019 144.49794 37.23419 145.797 37.80821 147.82682 38.72874 149.05069 39.30276 150.27457 39.87677 152.17833 40.79733 153.31887 41.37134 154.4594 41.94536 156.2213 42.86589 157.27089 43.43991 158.32048 44.01392 159.93192 44.93446 160.88367 45.50847 161.83542 46.08247 163.28226 47.00302 164.13053 47.57703 164.97879 48.15105 166.2586 49.0716 166.99747 49.64561 167.73633 50.21962 168.83135 51.14017 169.45574 51.71417 170.08013 52.2882 170.99134 53.20872 171.49765 53.78273 172.00397 54.35675 172.72069 55.27728 173.10495 55.8513 173.48921 56.42531 174.00688 57.34587 174.26714 57.91988 174.5274 58.4939 174.84615 59.41443 174.98075 59.98845 175.11534 60.56245 175.22972 61.483 175.23729 62.057 175.24486 62.63101 175.15406 63.55156 175.0354 64.12556 174.91675 64.69958 174.62688 65.62013 174.3821 66.19415 174.13732 66.76816 173.64076 67.6887 173.27109 68.26271 172.90143 68.83673 172.20899 69.75726 171.71776 70.33128 171.22652 70.90529 170.3406 71.82584 169.73052 72.39984 169.12044 72.97385 168.04546 73.89441 167.32062 74.46841 166.59577 75.04243 165.341 75.96297 164.50624 76.53699 163.67148 77.111 162.24393 78.03154 161.30423 78.60555 160.36454 79.17955 158.77144 80.1001 157.73354 80.6741 156.69562 81.24812 154.95311 82.16867 153.82357 82.74269 152.69403 83.3167 150.80681 84.23724 149.59256 84.81125 148.3783 85.38527 146.36244 86.3058 145.07204 86.87982 143.78163 87.45383 141.65045 88.37437 140.29216 88.94838 138.93389 89.52238 136.6999 90.44295 135.28238 91.01695 133.86486 91.59097 131.54323 92.5115 130.07563 93.08553 128.60803 93.65953 126.21263 94.58008 124.70485 95.15408 123.19707 95.7281 120.7466 96.64864 119.20859 97.22266 117.67058 97.79666 115.17836 98.71721 113.61983 99.29123 112.06128 99.86523 109.54413 100.78578 107.97566 101.35979 106.4072 101.9338 103.88385 102.85434 102.31538 103.42836 100.74692 104.00237 98.22987 104.92293 96.67123 105.49693 95.11258 106.07094 92.61996 106.99149 91.08174 107.56549 89.54353 108.13951 87.09247 109.06004 85.5848 109.63406 84.07712 110.20807 81.68283 111.12862 80.21542 111.70262 78.748 112.27664 76.42627 113.19719 75.00865 113.77121 73.59103 114.34521 71.35645 115.26576 69.99817 115.83977 68.6399 116.41377 66.50922 117.33432 65.21901 117.90833 63.9288 118.48235 61.91354 119.40288 60.6992 119.9769 59.48485 120.5509 57.59642 121.47147 56.46678 122.04547 55.33714 122.61949 53.59543 123.54002 52.55751 124.11404 51.51958 124.68805 49.926 125.60858 48.9861 126.1826 48.0462 126.7566 46.61824 127.67715 45.7834 128.25116 44.94855 128.82518 43.69398 129.74573 42.96904 130.31975 42.24408 130.89376 41.16861 131.8143 40.55841 132.3883 39.94823 132.96231 39.06242 133.88286 38.57118 134.45687 38.07994 135.03089 37.38731 135.95142 37.01784 136.52544 36.64838 137.09944 36.15302 138.02 35.90823 138.59401 35.66345 139.16803 35.37238 140.08856 35.25352 140.66259 35.13469 141.23659 35.04408 142.15714 35.05165 142.73114 35.05922 143.30515 35.1736 144.2257 35.3082 144.7997 35.4428 145.37372 35.76154 146.29427 36.02179 146.86829 36.28206 147.44229 36.79984 148.36284 37.18399 148.93685 37.56815 149.51087 38.28438 150.4314 38.79059 151.0054 39.2968 151.57942 40.2082 152.49996 40.83249 153.07398 41.45677 153.64798 42.55151 154.56855 43.29007 155.14255 44.02863 155.71657 45.30733 156.6371 46.1556 157.21112 47.00388 157.78513 48.45201 158.70568 49.40387 159.27968 50.35573 159.85369 51.96623 160.77423 53.01593 161.34824 54.06563 161.92226 55.82883 162.8428 56.96936 163.41683 58.1099 163.99083 60.01225 164.91138 61.23613 165.48538 62.46 166.0594 64.49104 166.97994 65.7903 167.55396 67.08954 168.12796 69.23422 169.04851 70.6003 169.62252 71.96635 170.19652 74.21199 171.11708 75.63602 171.69109 77.06006 172.2651 79.39095 173.18564 80.8638 173.75966 82.33665 174.33367 84.73936 175.25421 86.25142 175.82822 87.76346 176.40224 90.22055 177.32277 91.76169 177.89678 93.30283 178.4708 95.79858 179.39134 97.35887 179.96537 98.91916 180.53937 101.43819 181.45992 103.00723 182.03392 104.57628 182.60794 107.09962 183.52848 108.66751 184.1025 110.2354 184.6765 112.75087 185.59705 114.30746 186.17105 115.86406 186.74506 118.35152 187.66562 119.88643 188.23963 121.42134 188.81365 123.86678 189.73418 125.37007 190.3082 126.87337 190.8822 129.25925 191.80275 130.7212 192.37676 132.18317 192.95078 134.49604 193.8713 135.90694 194.44533 137.31786 195.01934 139.53969 195.93988 140.89009 196.5139 142.2405 197.0879 144.35825 198.00846 145.63982 198.58246 146.92137 199.15648 148.92275 200.07701 150.12668 200.65103 151.33061 201.22504 153.1982 202.14559 154.31703 202.71959 155.43587 203.2936 158.19057 204.78816 158.19057 204.78816"/>
<path transform="matrix(1.00003,0,0,-1.00002,1.0964966,206.58882)" stroke-width="1.59404" stroke-linecap="butt" stroke-miterlimit="10" stroke-linejoin="miter" fill="none" stroke="#0000ff" d="M75.97598 0C75.97598 0 77.84818 1.49454 78.57516 2.06856 79.30214 2.64256 80.47743 3.56311 81.2157 4.13712 81.95396 4.71114 83.1473 5.63167 83.89616 6.20569 84.64505 6.7797 85.85538 7.70026 86.61311 8.27426 87.37083 8.84827 88.59196 9.76881 89.35738 10.34282 90.12277 10.91684 91.35756 11.83737 92.12968 12.41139 92.90181 12.9854 94.14516 13.90594 94.92233 14.47995 95.69951 15.05397 96.95001 15.97452 97.73108 16.54854 98.51215 17.12254 99.76778 18.04309 100.55176 18.6171 101.33574 19.1911 102.59619 20.11165 103.38155 20.68565 104.1669 21.25967 105.42668 22.1802 106.21204 22.75423 106.99739 23.32823 108.25735 24.2488 109.04182 24.8228 109.8263 25.39682 111.08386 26.31735 111.866 26.89136 112.64815 27.46538 113.90063 28.38591 114.67897 28.95993 115.45732 29.53394 116.70253 30.45448 117.4758 31.02849 118.24908 31.60251 119.48517 32.52306 120.25232 33.09708 121.01947 33.67108 122.24513 34.59163 123.005 35.16563 123.76488 35.73964 124.97795 36.66019 125.72896 37.23419 126.47997 37.80821 127.67696 38.72874 128.41785 39.30276 129.15876 39.87677 130.33878 40.79733 131.06888 41.37134 131.79898 41.94536 132.96231 42.86589 133.67998 43.43991 134.39763 44.01392 135.53728 44.93446 136.2413 45.50847 136.94535 46.08247 138.06462 47.00302 138.75426 47.57703 139.4439 48.15105 140.53813 49.0716 141.21183 49.64561 141.88552 50.21962 142.95326 51.14017 143.60984 51.71417 144.2664 52.2882 145.30516 53.20872 145.94403 53.78273 146.58292 54.35675 147.59444 55.27728 148.21445 55.8513 148.83446 56.42531 149.81299 57.34587 150.41268 57.91988 151.01236 58.4939 151.95772 59.41443 152.53659 59.98845 153.11548 60.56245 154.02782 61.483 154.58481 62.057 155.14179 62.63101 156.01718 63.55156 156.55101 64.12556 157.08486 64.69958 157.9219 65.62013 158.4324 66.19415 158.9429 66.76816 159.74417 67.6887 160.23036 68.26271 160.71656 68.83673 161.4762 69.75726 161.93651 70.33128 162.39684 70.90529 163.11388 71.82584 163.54804 72.39984 163.98218 72.97385 164.65761 73.89441 165.0656 74.46841 165.47359 75.04243 166.10849 75.96297 166.48856 76.53699 166.86864 77.111 167.4533 78.03154 167.80498 78.60555 168.15666 79.17955 168.69939 80.1001 169.02326 80.6741 169.3471 81.24812 169.84488 82.16867 170.13918 82.74269 170.43347 83.3167 170.88022 84.23724 171.14437 84.81125 171.40853 85.38527 171.80843 86.3058 172.043 86.87982 172.27759 87.45383 172.63105 88.37437 172.83509 88.94838 173.03913 89.52238 173.34059 90.44295 173.51361 91.01695 173.68663 91.59097 173.93984 92.5115 174.0821 93.08553 174.22438 93.65953 174.42836 94.58008 174.53913 95.15408 174.64989 95.7281 174.80153 96.64864 174.8805 97.22266 174.95948 97.79666 175.06067 98.71721 175.1083 99.29123 175.15596 99.86523 175.20793 100.78578 175.22397 101.35979 175.24 101.9338 175.24 102.85434 175.22397 103.42836 175.20793 104.00237 175.15596 104.92293 175.1083 105.49693 175.06067 106.07094 174.95948 106.99149 174.8805 107.56549 174.80153 108.13951 174.65 109.06004 174.53913 109.63406 174.42826 110.20807 174.22357 111.12862 174.08139 111.70262 173.93921 112.27664 173.68723 113.19719 173.51433 113.77121 173.34142 114.34521 173.03913 115.26576 172.83509 115.83977 172.63105 116.41377 172.27819 117.33432 172.0437 117.90833 171.80922 118.48235 171.4093 119.40288 171.14507 119.9769 170.88083 120.5509 170.43338 121.47147 170.13918 122.04547 169.84497 122.61949 169.34832 123.54002 169.02465 124.11404 168.70099 124.68805 168.15845 125.60858 167.80638 126.1826 167.45432 126.7566 166.86725 127.67715 166.48717 128.25116 166.10709 128.82518 165.47481 129.74573 165.06702 130.31975 164.65923 130.89376 163.98236 131.8143 163.54804 132.3883 163.1137 132.96231 162.39684 133.88286 161.93651 134.45687 161.4762 135.03089 160.71645 135.95142 160.23036 136.52544 159.74428 137.09944 158.94359 138.02 158.43309 138.59401 157.92259 139.16803 157.08477 140.08856 156.55101 140.66259 156.01728 141.23659 155.14299 142.15714 154.58621 142.73114 154.02942 143.30515 153.11705 144.2257 152.538 144.7997 151.95894 145.37372 151.01236 146.29427 150.41268 146.86829 149.81299 147.44229 148.83577 148.36284 148.21587 148.93685 147.59597 149.51087 146.5838 150.4314 145.94474 151.0054 145.30565 151.57942 144.26631 152.49996 143.60984 153.07398 142.95336 153.64798 141.88683 154.56855 141.21323 155.14255 140.53963 155.71657 139.4446 156.6371 138.75496 157.21112 138.06533 157.78513 136.94675 158.70568 136.2427 159.27968 135.53867 159.85369 134.39835 160.77423 133.6807 161.34824 132.96303 161.92226 131.8002 162.8428 131.0703 163.41683 130.3404 163.99083 129.16094 164.91138 128.41996 165.48538 127.67896 166.0594 126.48097 166.97994 125.72966 167.55396 124.97835 168.12796 123.76477 169.04851 123.005 169.62252 122.24524 170.19652 121.02087 171.11708 120.25372 171.69109 119.48657 172.2651 118.24919 173.18564 117.4758 173.75966 116.70242 174.33367 115.45801 175.25421 114.67967 175.82822 113.90134 176.40224 112.64804 177.32277 111.866 177.89678 111.08397 178.4708 109.82759 179.39134 109.04323 179.96537 108.25885 180.53937 106.99808 181.45992 106.21274 182.03392 105.42738 182.60794 104.16809 183.52848 103.38295 184.1025 102.5978 184.6765 101.33775 185.59705 100.55386 186.17105 99.76997 186.74506 98.51436 187.66562 97.73318 188.23963 96.95203 188.81365 95.701 189.73418 94.92374 190.3082 94.14645 190.8822 92.9032 191.80275 92.13109 192.37676 91.35896 192.95078 90.12437 193.8713 89.35876 194.44533 88.59317 195.01934 87.37093 195.93988 86.61311 196.5139 85.8553 197.0879 84.64575 198.00846 83.89687 198.58246 83.148 199.15648 81.95407 200.07701 81.2157 200.65103 80.47733 201.22504 79.30196 202.14559 78.57516 202.71959 77.84837 203.2936 75.97739 204.78816 75.97739 204.78816"/>
<path transform="matrix(1.00003,0,0,-1.00002,1.0964966,206.58882)" stroke-width="1.19553" stroke-linecap="butt" stroke-miterlimit="10" stroke-linejoin="miter" fill="none" stroke="#008080" d="M46.15842 125.43318H166.661V130.55292H46.15842V125.43318"/>
</g>
<path transform="matrix(1.00003,0,0,-1.00002,1.0964966,206.58882)" stroke-width=".19925" stroke-linecap="butt" stroke-miterlimit="10" stroke-linejoin="miter" fill="none" stroke="#7f807f" d="M35.04816 100.26834V104.52052M175.2408 100.26834V104.52052"/>
<path transform="matrix(1.00003,0,0,-1.00002,1.0964966,206.58882)" stroke-width=".19925" stroke-linecap="butt" stroke-miterlimit="10" stroke-linejoin="miter" fill="none" stroke="#7f807f" d="M103.01842 62.18414H107.27052M103.01842 142.60472H107.27052M103.01842 182.81504H107.27052"/>
<path transform="matrix(1.00003,0,0,-1.00002,1.0964966,206.58882)" stroke-width=".3985" stroke-linecap="butt" stroke-miterlimit="10" stroke-linejoin="miter" fill="none" stroke="#000000" d="M0 102.39444H208.29644"/>
<path transform="matrix(1.00003,0,0,-1.00002,209.39919,104.19233)" d="M1.99252 0-1.19551 1.59401 0 0-1.19551-1.59401"/>
<path transform="matrix(1.00003,0,0,-1.00002,1.0964966,206.58882)" stroke-width=".3985" stroke-linecap="butt" stroke-miterlimit="10" stroke-linejoin="miter" fill="none" stroke="#000000" d="M105.14447 51.19722V202.79636"/>
<path transform="matrix(0,-1.00002,-1.00003,-0,106.244129,3.7884064)" d="M1.99252 0-1.19551 1.59401 0 0-1.19551-1.59401"/>
<use data-text="&#x2212;" xlink:href="#font_2_1" transform="matrix(9.962899,0,0,-9.962799,29.780358,116.25901)"/>
<use data-text="1" xlink:href="#font_3_1" transform="matrix(9.962899,0,0,-9.962799,37.529588,116.25901)"/>
<use data-text="1" xlink:href="#font_3_1" transform="matrix(9.962899,0,0,-9.962799,173.85169,116.25901)"/>
<use data-text="&#x2212;" xlink:href="#font_2_1" transform="matrix(9.962899,0,0,-9.962799,85.549037,146.14862)"/>
<use data-text="&#x03c0;" xlink:href="#font_4_1" transform="matrix(6.9740097,0,0,-6.97394,94.4933,142.22553)"/>
<path transform="matrix(1.00003,0,0,-1.00002,2.2515336,-44.24421)" stroke-width=".3985" stroke-linecap="butt" stroke-miterlimit="10" stroke-linejoin="miter" fill="none" stroke="#000000" d="M92.239-187.898H97.148"/>
<use data-text="4" xlink:href="#font_5_2" transform="matrix(6.9740097,0,0,-6.97394,94.96232,149.58368)"/>
<use data-text="&#x03c0;" xlink:href="#font_4_1" transform="matrix(6.9740097,0,0,-6.97394,94.4933,61.802919)"/>
<path transform="matrix(1.00003,0,0,-1.00002,9.9997639,-124.666828)" stroke-width=".3985" stroke-linecap="butt" stroke-miterlimit="10" stroke-linejoin="miter" fill="none" stroke="#000000" d="M84.491-187.898H89.4"/>
<use data-text="4" xlink:href="#font_5_2" transform="matrix(6.9740097,0,0,-6.97394,94.96232,69.16106)"/>
<use data-text="&#x03c0;" xlink:href="#font_4_1" transform="matrix(6.9740097,0,0,-6.97394,94.4933,21.592103)"/>
<path transform="matrix(1.00003,0,0,-1.00002,9.9997639,-164.87764)" stroke-width=".3985" stroke-linecap="butt" stroke-miterlimit="10" stroke-linejoin="miter" fill="none" stroke="#000000" d="M84.491-187.898H89.4"/>
<use data-text="2" xlink:href="#font_5_1" transform="matrix(6.9740097,0,0,-6.97394,94.96232,28.950242)"/>
<use data-text="x" xlink:href="#font_6_1" transform="matrix(9.962899,0,0,-9.962799,202.17754,100.6727)"/>
<use data-text="y" xlink:href="#font_6_2" transform="matrix(9.962899,0,0,-9.962799,109.76376,9.604874)"/>
</svg>
