<svg xmlns="http://www.w3.org/2000/svg" xmlns:xlink="http://www.w3.org/1999/xlink" xmlns:inkscape="http://www.inkscape.org/namespaces/inkscape" version="1.1" width="197" height="165" viewBox="0 0 197 165">
<defs>
<path id="font_1_1" d="M.6589966 .23046875C.6759949 .23046875 .69400027 .23046875 .69400027 .25045777 .69400027 .27046205 .6759949 .27046205 .6589966 .27046205H.117996219C.100997928 .27046205 .08299255 .27046205 .08299255 .25045777 .08299255 .23046875 .100997928 .23046875 .117996219 .23046875H.6589966Z"/>
<path id="font_2_4" d="M.2899933 .35191346C.37199403 .37893678 .42999269 .4490509 .42999269 .52809146 .42999269 .6100464 .34199525 .6660156 .24598694 .6660156 .14498902 .6660156 .068984989 .60606387 .068984989 .53009036 .068984989 .49710084 .09098816 .47808839 .11999512 .47808839 .15098572 .47808839 .17098999 .50009158 .17098999 .5290985 .17098999 .57910159 .12399292 .57910159 .10899353 .57910159 .13999939 .62802127 .20599365 .64100649 .24198914 .64100649 .2829895 .64100649 .33799745 .6190338 .33799745 .5290985 .33799745 .51708987 .33599855 .45906068 .30999757 .4149933 .27999879 .36691285 .24598694 .36390687 .22099304 .36291505 .21299744 .36190797 .18899536 .35990907 .18199158 .35990907 .17399597 .35890199 .16699219 .35791017 .16699219 .3479004 .16699219 .33691407 .17399597 .33691407 .19099427 .33691407H.23498535C.31698609 .33691407 .35398866 .2686615 .35398866 .17037964 .35398866 .034469606 .2849884 .0055389406 .24099732 .0055389406 .19799805 .0055389406 .12298584 .022491456 .08799744 .08137512 .12298584 .07637024 .1539917 .09837341 .1539917 .1363678 .1539917 .17237854 .1269989 .19238281 .09799194 .19238281 .07398987 .19238281 .041992189 .17837525 .041992189 .1343689 .041992189 .043441774 .1349945-.022460938 .24398804-.022460938 .3659973-.022460938 .45700074 .06838989 .45700074 .17037964 .45700074 .252594 .3939972 .33088685 .2899933 .35191346Z"/>
<path id="font_2_3" d="M.1269989 .07699585 .23298645 .18003845C.3889923 .31811524 .44898988 .3721466 .44898988 .47216798 .44898988 .5860901 .35899354 .6660156 .23699951 .6660156 .12399292 .6660156 .049987794 .57411196 .049987794 .48516847 .049987794 .4291687 .099990848 .4291687 .102996829 .4291687 .11999512 .4291687 .15499878 .44117738 .15499878 .48217774 .15499878 .5081787 .13699341 .5341797 .101989749 .5341797 .09399414 .5341797 .09199524 .5341797 .08898926 .5331726 .11199951 .59806826 .1659851 .63500979 .22399903 .63500979 .31498719 .63500979 .35798646 .5541382 .35798646 .47216798 .35798646 .39215089 .30799867 .31311036 .25299073 .25108338L.06098938 .036987306C.049987794 .025985718 .049987794 .023986817 .049987794 0H.42099L.44898988 .17404175H.42399598C.4189911 .14402771 .4119873 .1000061 .4019928 .084991458 .394989 .07699585 .32899476 .07699585 .30699159 .07699585H.1269989Z"/>
<path id="font_2_2" d="M.2939911 .64004519C.2939911 .66400149 .2939911 .6660156 .2709961 .6660156 .20899964 .60227969 .12098694 .60227969 .08898926 .60227969V.57128909C.10899353 .57128909 .16799927 .57128909 .21998596 .5972748V.07902527C.21998596 .042999269 .21699524 .0309906 .1269989 .0309906H.09498596V0C.12998963 .0029907227 .21699524 .0029907227 .25698854 .0029907227 .29699708 .0029907227 .38398744 .0029907227 .4189911 0V.0309906H.3869934C.29699708 .0309906 .2939911 .041992189 .2939911 .07902527V.64004519Z"/>
<clipPath id="clip_3">
<path transform="matrix(1.00003,0,0,-1.00002,1.0964966,163.19095)" d="M0 0H194.26912V161.3918H0Z"/>
</clipPath>
<path id="font_4_2" d="M.48599244 .38136292C.48999024 .39537049 .48999024 .39736939 .48999024 .40437318 .48999024 .42237855 .47599793 .43138124 .46099855 .43138124 .45098878 .43138124 .43499757 .42536927 .42599488 .41036988 .42399598 .405365 .41600038 .37435914 .4119873 .35635377 .40499879 .33035279 .397995 .30334474 .3919983 .27633668L.34700013 .09628296C.34298707 .08126831 .2999878 .011245728 .23399353 .011245728 .18299866 .011245728 .17199707 .055267335 .17199707 .0922699 .17199707 .1382904 .18899536 .20030213 .22299195 .28833009 .23899842 .3293457 .24299622 .3403473 .24299622 .36035157 .24299622 .405365 .21099854 .4423828 .16099549 .4423828 .06599426 .4423828 .0289917 .29733277 .0289917 .28833009 .0289917 .27833558 .038986207 .27833558 .040985109 .27833558 .050994874 .27833558 .051986696 .28033448 .056991579 .29634095 .083999637 .3903656 .12399292 .42037965 .1579895 .42037965 .1659851 .42037965 .18299866 .42037965 .18299866 .3883667 .18299866 .36335755 .17298889 .3373413 .1659851 .31834413 .12599182 .21231079 .10798645 .1552887 .10798645 .10827637 .10798645 .019256592 .17098999-.0107421879 .22999573-.0107421879 .2689972-.0107421879 .30299378 .0062561037 .33099366 .03425598 .31799317-.017745972 .30599977-.06674194 .2659912-.11973572 .23999024-.15385437 .20199585-.18309021 .1559906-.18309021 .14199829-.18309021 .09700012-.18005371 .07998657-.14074707 .09599304-.14074707 .10899353-.14074707 .12298584-.1287384 .1329956-.11973572 .14299011-.10673523 .14299011-.08773804 .14299011-.056747438 .115997318-.052734376 .10598755-.052734376 .08299255-.052734376 .049987794-.068740848 .049987794-.11773682 .049987794-.16796875 .09399414-.20507813 .1559906-.20507813 .25898744-.20507813 .3619995-.11373901 .3899994-.00074768069L.48599244 .38136292Z"/>
<path id="font_2_6" d="M.68699648 .32714845C.70199587 .32714845 .72099307 .32714845 .72099307 .34713746 .72099307 .36714173 .70199587 .36714173 .6879883 .36714173H.08898926C.07499695 .36714173 .055999757 .36714173 .055999757 .34713746 .055999757 .32714845 .07499695 .32714845 .08999634 .32714845H.68699648M.6879883 .13284302C.70199587 .13284302 .72099307 .13284302 .72099307 .15284729 .72099307 .17285156 .70199587 .17285156 .68699648 .17285156H.08999634C.07499695 .17285156 .055999757 .17285156 .055999757 .15284729 .055999757 .13284302 .07499695 .13284302 .08898926 .13284302H.6879883Z"/>
<path id="font_2_5" d="M.2939911 .16503906V.07800293C.2939911 .041992189 .2919922 .0309906 .21798706 .0309906H.19699097V0C.23799134 .0029907227 .2899933 .0029907227 .33198548 .0029907227 .37399293 .0029907227 .4269867 .0029907227 .46798707 0V.0309906H.44699098C.37298585 .0309906 .37098695 .041992189 .37098695 .07800293V.16503906H.47099305V.19602967H.37098695V.65075686C.37098695 .67074587 .37098695 .6767578 .35499574 .6767578 .34599305 .6767578 .34298707 .6767578 .33499146 .66474917L.027999878 .19602967V.16503906H.2939911M.2999878 .19602967H.055999757L.2999878 .5688019V.19602967Z"/>
<path id="font_4_1" d="M.33399964 .30233766C.33999635 .32835389 .36299134 .42037965 .43299867 .42037965 .43798829 .42037965 .46199037 .42037965 .48298646 .40734864 .45498658 .402359 .43499757 .37734986 .43499757 .35334779 .43499757 .33735658 .44599916 .31835938 .47299195 .31835938 .49499513 .31835938 .5269928 .3363495 .5269928 .37635804 .5269928 .42837525 .46798707 .4423828 .43399049 .4423828 .37599183 .4423828 .34098817 .38935853 .32899476 .36634828 .3039856 .43237306 .25 .4423828 .22099304 .4423828 .116989139 .4423828 .05999756 .3133545 .05999756 .28834535 .05999756 .27833558 .069992069 .27833558 .07199097 .27833558 .07998657 .27833558 .08299255 .28033448 .084991458 .28933717 .11898804 .39535523 .18499756 .42037965 .21899414 .42037965 .23799134 .42037965 .272995 .4113617 .272995 .35334779 .272995 .32235719 .2559967 .25532533 .21899414 .11528015 .20298767 .053268434 .16799927 .011245728 .12399292 .011245728 .117996219 .011245728 .09498596 .011245728 .07398987 .024276734 .09899902 .029266358 .12098694 .05027771 .12098694 .07827759 .12098694 .105270389 .09899902 .11328125 .083999637 .11328125 .053985597 .11328125 .0289917 .08728027 .0289917 .055267335 .0289917 .009246826 .07899475-.0107421879 .12298584-.0107421879 .18899536-.0107421879 .22499085 .059280397 .22799683 .0652771 .23999024 .028274537 .27598573-.0107421879 .33599855-.0107421879 .43899537-.0107421879 .49598695 .118270877 .49598695 .14328003 .49598695 .1532898 .4869995 .1532898 .48399354 .1532898 .47499085 .1532898 .47299195 .14929199 .47099305 .14228821 .43798829 .03527832 .36999513 .011245728 .33799745 .011245728 .29899598 .011245728 .2829895 .043273927 .2829895 .07727051 .2829895 .09927368 .2889862 .121276859 .2999878 .16529846L.33399964 .30233766Z"/>
<path id="font_2_1" d="M.40899659 .23046875H.6879883C.70199587 .23046875 .72099307 .23046875 .72099307 .25045777 .72099307 .27046205 .70199587 .27046205 .6879883 .27046205H.40899659V.5500183C.40899659 .56399539 .40899659 .5830078 .3889923 .5830078 .36898805 .5830078 .36898805 .56399539 .36898805 .5500183V.27046205H.08898926C.07499695 .27046205 .055999757 .27046205 .055999757 .25045777 .055999757 .23046875 .07499695 .23046875 .08898926 .23046875H.36898805V-.05000305C.36898805-.06401062 .36898805-.08300781 .3889923-.08300781 .40899659-.08300781 .40899659-.06401062 .40899659-.05000305V.23046875Z"/>
<path id="font_5_1" d="M.5049896 .18203736H.47099305C.46798707 .16001892 .45799256 .100997928 .44499208 .09098816 .43699647 .084991458 .3600006 .084991458 .34599305 .084991458H.1619873C.2669983 .17803955 .3019867 .20603943 .3619995 .25306703 .43598939 .312088 .5049896 .374115 .5049896 .46914674 .5049896 .5900879 .39898683 .6640625 .2709961 .6640625 .14698792 .6640625 .06298828 .57710269 .06298828 .4851532 .06298828 .43414308 .10598755 .42915345 .115997318 .42915345 .13999939 .42915345 .16899109 .44615174 .16899109 .48214723 .16899109 .5001526 .1619873 .53515627 .10998535 .53515627 .14099121 .6060791 .20899964 .62805178 .2559967 .62805178 .35598756 .62805178 .4079895 .5501404 .4079895 .46914674 .4079895 .38212586 .34599305 .3130951 .31399537 .27708436L.07299805 .038986207C.06298828 .02999878 .06298828 .027999878 .06298828 0H.47499085L.5049896 .18203736Z"/>
</defs>
<path transform="matrix(1.00003,0,0,-1.00002,1.0964966,163.19095)" stroke-width=".19925" stroke-linecap="butt" stroke-miterlimit="10" stroke-linejoin="miter" fill="none" stroke="#7f807f" d="M13.87636 14.01323V18.26509M41.62909 14.01323V18.26509M69.38182 14.01323V18.26509M124.88728 14.01323V18.26509M152.64002 14.01323V18.26509M180.39275 14.01323V18.26509"/>
<path transform="matrix(1.00003,0,0,-1.00002,1.0964966,163.19095)" stroke-width=".19925" stroke-linecap="butt" stroke-miterlimit="10" stroke-linejoin="miter" fill="none" stroke="#7f807f" d=""/>
<path transform="matrix(1.00003,0,0,-1.00002,1.0964966,163.19095)" stroke-width=".3985" stroke-linecap="butt" stroke-miterlimit="10" stroke-linejoin="miter" fill="none" stroke="#000000" d="M0 16.13918H192.2766"/>
<path transform="matrix(1.00003,0,0,-1.00002,193.37888,147.05146)" d="M1.99252 0-1.19551 1.59401 0 0-1.19551-1.59401"/>
<path transform="matrix(1.00003,0,0,-1.00002,1.0964966,163.19095)" stroke-width=".3985" stroke-linecap="butt" stroke-miterlimit="10" stroke-linejoin="miter" fill="none" stroke="#000000" d="M97.13455 0V159.39928"/>
<path transform="matrix(0,-1.00002,-1.00003,-0,98.23396,3.7884827)" d="M1.99252 0-1.19551 1.59401 0 0-1.19551-1.59401"/>
<use data-text="&#x2212;" xlink:href="#font_1_1" transform="matrix(9.962899,0,0,-9.962799,8.607719,159.11786)"/>
<use data-text="3" xlink:href="#font_2_4" transform="matrix(9.962899,0,0,-9.962799,16.356949,159.11786)"/>
<use data-text="&#x2212;" xlink:href="#font_1_1" transform="matrix(9.962899,0,0,-9.962799,36.361558,159.11786)"/>
<use data-text="2" xlink:href="#font_2_3" transform="matrix(9.962899,0,0,-9.962799,44.110788,159.11786)"/>
<use data-text="&#x2212;" xlink:href="#font_1_1" transform="matrix(9.962899,0,0,-9.962799,64.11539,159.11786)"/>
<use data-text="1" xlink:href="#font_2_2" transform="matrix(9.962899,0,0,-9.962799,71.86462,159.11786)"/>
<use data-text="1" xlink:href="#font_2_2" transform="matrix(9.962899,0,0,-9.962799,123.49718,159.11786)"/>
<use data-text="2" xlink:href="#font_2_3" transform="matrix(9.962899,0,0,-9.962799,151.25002,159.11786)"/>
<use data-text="3" xlink:href="#font_2_4" transform="matrix(9.962899,0,0,-9.962799,179.00383,159.11786)"/>
<g clip-path="url(#clip_3)">
<path transform="matrix(1.00003,0,0,-1.00002,1.0964966,163.19095)" d="M13.87636 38.73402 14.71312 39.04906 15.54988 39.37119 16.38664 39.70172 17.22342 40.03967 18.06018 40.38538 18.89694 40.74013 19.73372 41.10294 20.5705 41.47478 21.40726 41.85535 22.24403 42.24591 23.0808 42.64648 23.91756 43.05737 24.75432 43.47829 25.5911 43.90985 26.42786 44.35304 27.26462 44.80785 28.1014 45.27425 28.93816 45.75294 29.77492 46.24521 30.6117 46.7497 31.44846 47.26842 32.28522 47.801 33.122 48.34845 33.95877 48.91042 34.79553 49.48885 35.6323 50.0831 36.46907 50.69444 37.30583 51.32355 38.1426 51.97008 38.97937 52.63565 39.81613 53.32028 40.6529 54.02492 41.48965 54.75053 42.32643 55.49715 43.1632 56.26633 43.99997 57.05844 44.83673 57.87444 45.67351 58.71529 46.51027 59.58163 47.34705 60.47415 48.1838 61.39406 49.02057 62.34273 49.85735 63.32045 50.6941 64.32883 51.53087 65.36786 52.36765 66.4395 53.2044 67.54439 54.04117 68.68414 54.87794 69.85875 55.7147 71.07047 56.55147 72.31996 57.38823 73.60788 58.22502 74.93582 59.06178 76.3041 59.89854 77.71466 60.73532 79.1675 61.57208 80.66426 62.40884 82.20554 63.24562 83.79138 64.08238 85.42369 64.91914 87.10217 65.75592 88.82648 66.59268 90.5976 67.42944 92.41551 68.2662 94.2799 69.10298 96.18886 69.93974 98.14265 70.7765 100.13907 71.6133 102.17714 72.45006 104.25392 73.28682 106.36655 74.1236 108.51208 74.96036 110.68571 75.79712 112.88322 76.6339 115.09818 77.47066 117.32536 78.30742 119.5558 79.14418 121.78366 79.98096 123.9973 80.81772 126.18933 81.65448 128.34618 82.49126 130.4575 83.32802 132.50975 84.1648 134.4897 85.00156 136.38155 85.83833 138.17299 86.6751 139.846 87.51186 141.38727 88.34863 142.77912 89.1854 144.00763 90.02216 145.05765 90.85893 145.91497 91.6957 146.56925 92.53246 147.00662 93.36923 147.21869 94.206 147.19899 95.04276 146.94207 95.87952 146.44562 96.71631 145.70903 97.55307 144.73648 98.3899 143.53186 99.22658 142.10353 100.06339 140.46121 100.90009 138.6181 101.7369 136.58718 102.57372 134.38448 103.4104 132.02689 104.24722 129.53144 105.08391 126.91786 105.92073 124.20293 106.75755 121.40471 107.59424 118.54193 108.43105 115.63011 109.26776 112.68697 110.10457 109.72705 110.94139 106.76454 111.77809 103.81236 112.6149 100.88116 113.45158 97.98256 114.2884 95.12495 115.12523 92.3161 115.96191 89.56339 116.79872 86.87106 117.63542 84.24489 118.47224 81.68747 119.30905 79.20204 120.14575 76.79117 120.98256 74.4552 121.81926 72.19473 122.65608 70.01111 123.4929 67.903 124.32959 65.87044 125.16641 63.91147 126.0031 62.02576 126.83992 60.21107 127.67673 58.4661 128.51343 56.78957 129.35024 55.17856 130.18692 53.63145 131.02375 52.14632 131.86057 50.72058 132.69725 49.35295 133.53408 48.04083 134.37078 46.78198 135.2076 45.57413 136.0444 44.41566 136.8811 43.30496 137.71791 42.23946 138.5546 41.21785 139.39142 40.23723 140.22824 39.29695 141.06493 38.39444 141.90175 37.52875 142.73844 36.69888 143.57526 35.90128 144.41207 35.13594 145.24877 34.40161 146.08557 33.69699 146.92226 33.01947 147.7591 32.36873 148.59592 31.74382 149.4326 31.14343 150.26943 30.56694 151.10611 30.0124 151.94293 29.47885 152.77974 28.96594 153.61644 28.47305 154.45325 27.99887 155.28995 27.54214 156.12676 27.10284 156.96358 26.67966 157.80027 26.27231 158.63709 25.88045 159.47377 25.50247 160.31061 25.1387 161.14742 24.78784 161.98412 24.4502 162.82093 24.12419 163.65763 23.8098 164.49443 23.5064 165.33126 23.21458 166.16794 22.93214 167.00476 22.65971 167.84145 22.39664 168.67827 22.14293 169.51508 21.89763 170.35178 21.66135 171.18859 21.43282 172.02529 21.2117 172.8621 20.99803 173.69893 20.79144 174.53562 20.59196 175.37244 20.39958 176.20912 20.21269 177.04595 20.03192 177.88275 19.85764 178.71945 19.68881 179.55626 19.52518 180.39296 19.36696V16.13918H13.87636Z" fill="#80ff80" fill-opacity=".6"/>
<g>
<path transform="matrix(1.00003,0,0,-1.00002,1.0964966,163.19095)" d="M13.87636 16.13918V45.1897H41.62909V16.13918Z" fill="#ffcc99" fill-opacity=".7"/>
<path transform="matrix(1.00003,0,0,-1.00002,1.0964966,163.19095)" stroke-width=".3985" stroke-linecap="butt" stroke-miterlimit="10" stroke-linejoin="miter" fill="none" stroke="#ff9933" stroke-opacity=".7" d="M13.87636 16.13918V45.1897H41.62909V16.13918Z"/>
</g>
<g>
<path transform="matrix(1.00003,0,0,-1.00002,1.0964966,163.19095)" d="M41.62909 16.13918V70.6896H69.38182V16.13918Z" fill="#ffcc99" fill-opacity=".7"/>
<path transform="matrix(1.00003,0,0,-1.00002,1.0964966,163.19095)" stroke-width=".3985" stroke-linecap="butt" stroke-miterlimit="10" stroke-linejoin="miter" fill="none" stroke="#ff9933" stroke-opacity=".7" d="M41.62909 16.13918V70.6896H69.38182V16.13918Z"/>
</g>
<g>
<path transform="matrix(1.00003,0,0,-1.00002,1.0964966,163.19095)" d="M69.38182 16.13918V132.34128H97.13455V16.13918Z" fill="#ffcc99" fill-opacity=".7"/>
<path transform="matrix(1.00003,0,0,-1.00002,1.0964966,163.19095)" stroke-width=".3985" stroke-linecap="butt" stroke-miterlimit="10" stroke-linejoin="miter" fill="none" stroke="#ff9933" stroke-opacity=".7" d="M69.38182 16.13918V132.34128H97.13455V16.13918Z"/>
</g>
<g>
<path transform="matrix(1.00003,0,0,-1.00002,1.0964966,163.19095)" d="M97.13455 16.13918V106.51859H124.88728V16.13918Z" fill="#ffcc99" fill-opacity=".7"/>
<path transform="matrix(1.00003,0,0,-1.00002,1.0964966,163.19095)" stroke-width=".3985" stroke-linecap="butt" stroke-miterlimit="10" stroke-linejoin="miter" fill="none" stroke="#ff9933" stroke-opacity=".7" d="M97.13455 16.13918V106.51859H124.88728V16.13918Z"/>
</g>
<g>
<path transform="matrix(1.00003,0,0,-1.00002,1.0964966,163.19095)" d="M124.88728 16.13918V40.99352H152.64002V16.13918Z" fill="#ffcc99" fill-opacity=".7"/>
<path transform="matrix(1.00003,0,0,-1.00002,1.0964966,163.19095)" stroke-width=".3985" stroke-linecap="butt" stroke-miterlimit="10" stroke-linejoin="miter" fill="none" stroke="#ff9933" stroke-opacity=".7" d="M124.88728 16.13918V40.99352H152.64002V16.13918Z"/>
</g>
<g>
<path transform="matrix(1.00003,0,0,-1.00002,1.0964966,163.19095)" d="M152.64002 16.13918V22.91763H180.39275V16.13918Z" fill="#ffcc99" fill-opacity=".7"/>
<path transform="matrix(1.00003,0,0,-1.00002,1.0964966,163.19095)" stroke-width=".3985" stroke-linecap="butt" stroke-miterlimit="10" stroke-linejoin="miter" fill="none" stroke="#ff9933" stroke-opacity=".7" d="M152.64002 16.13918V22.91763H180.39275V16.13918Z"/>
</g>
<path transform="matrix(1.00003,0,0,-1.00002,1.0964966,163.19095)" stroke-width="1.59404" stroke-linecap="butt" stroke-miterlimit="10" stroke-linejoin="miter" fill="none" stroke="#0000ff" d="M0 34.40991C0 34.40991 .70534 34.59467 .97621 34.66681 1.2471 34.73897 1.68156 34.8561 1.95244 34.93 2.22333 35.00389 2.65778 35.12373 2.92867 35.19945 3.19957 35.27515 3.634 35.39807 3.9049 35.47565 4.17581 35.55322 4.61024 35.67915 4.88113 35.75867 5.15202 35.83817 5.58647 35.96724 5.85736 36.04875 6.12825 36.13026 6.56268 36.26262 6.83359 36.34622 7.10449 36.42981 7.53893 36.56561 7.80983 36.65135 8.08072 36.73709 8.51517 36.87625 8.78606 36.9642 9.05693 37.05214 9.49138 37.19496 9.76228 37.2852 10.03317 37.37544 10.46762 37.52199 10.73853 37.6146 11.00941 37.70721 11.44386 37.85771 11.71474 37.95277 11.98563 38.04785 12.42009 38.20229 12.69096 38.2999 12.96185 38.3975 13.3963 38.55614 13.66719 38.65639 13.9381 38.75665 14.37253 38.91957 14.64343 39.02258 14.91434 39.12561 15.34877 39.29312 15.61966 39.39894 15.89055 39.50476 16.32498 39.67662 16.59589 39.78532 16.86679 39.89401 17.30122 40.07053 17.57213 40.18234 17.84303 40.29417 18.27747 40.4763 18.54836 40.59131 18.81923 40.70631 19.25368 40.89302 19.52458 41.01125 19.79547 41.12947 20.22992 41.32182 20.50082 41.44347 20.77171 41.5651 21.20616 41.76276 21.47705 41.88794 21.74792 42.0131 22.18239 42.2168 22.45326 42.34564 22.72415 42.47447 23.1586 42.68398 23.42949 42.81657 23.7004 42.94919 24.13484 43.16481 24.40573 43.30139 24.67664 43.43799 25.11107 43.66037 25.38196 43.80107 25.65285 43.94179 26.08728 44.1706 26.35818 44.3156 26.62909 44.46062 27.06352 44.69678 27.33443 44.84625 27.60533 44.99574 28.03976 45.23903 28.31065 45.39304 28.58154 45.54704 29.01598 45.7975 29.28688 45.9563 29.55777 46.1151 29.99222 46.37376 30.26312 46.53763 30.53401 46.70149 30.96846 46.96834 31.23935 47.13736 31.51022 47.30638 31.94467 47.58134 32.21558 47.75583 32.48647 47.9303 32.92091 48.21484 33.1918 48.39493 33.4627 48.57501 33.89716 48.86787 34.16803 49.05374 34.43892 49.2396 34.87337 49.54245 35.14426 49.73448 35.41516 49.92651 35.84961 50.23944 36.1205 50.43784 36.3914 50.63622 36.82584 50.95938 37.09673 51.16441 37.36761 51.36945 37.80206 51.70358 38.07295 51.91554 38.34384 52.1275 38.77827 52.47307 39.04918 52.69215 39.32008 52.91122 39.75452 53.26811 40.02542 53.49458 40.29631 53.72107 40.73076 54.09015 41.00165 54.32446 41.27252 54.55876 41.70697 54.94093 41.97787 55.18338 42.24876 55.42584 42.68321 55.82109 42.95412 56.07202 43.225 56.32294 43.65945 56.73228 43.93033 56.99194 44.20122 57.25162 44.63568 57.67467 44.90656 57.94351 45.17744 58.21237 45.6119 58.65125 45.88278 58.92963 46.15369 59.20801 46.58813 59.66162 46.85902 59.94994 47.12993 60.23825 47.56436 60.70898 47.83525 61.0077 48.10614 61.30643 48.54059 61.79344 48.81148 62.1029 49.08237 62.41237 49.5168 62.91743 49.7877 63.23814 50.05861 63.55884 50.49304 64.0821 50.76395 64.41437 51.03484 64.74661 51.46927 65.28851 51.74017 65.63286 52.01106 65.97722 52.44551 66.5393 52.71642 66.89624 52.9873 67.25316 53.42175 67.83562 53.69264 68.20544 53.96352 68.57529 54.39798 69.17842 54.66885 69.56178 54.93974 69.94514 55.37419 70.5711 55.64508 70.96848 55.91599 71.36586 56.35043 72.01405 56.62132 72.42586 56.89223 72.83765 57.32668 73.50986 57.59755 73.93648 57.86844 74.36308 58.30289 75.05875 58.57378 75.50067 58.84467 75.94261 59.2791 76.66393 59.55 77.1217 59.8209 77.5795 60.25534 78.32622 60.52625 78.80017 60.79715 79.27412 61.23157 80.04715 61.50247 80.53772 61.77336 81.02829 62.20781 81.82849 62.47871 82.33594 62.7496 82.8434 63.18405 83.6705 63.45494 84.19519 63.72581 84.7199 64.16028 85.57556 64.43117 86.11768 64.70204 86.65979 65.13649 87.5429 65.40738 88.10248 65.67828 88.66206 66.11273 89.57368 66.38362 90.15086 66.65453 90.72806 67.08897 91.66786 67.35985 92.26251 67.63074 92.85718 68.0652 93.8247 68.33607 94.43678 68.60696 95.04886 69.0414 96.04507 69.3123 96.674 69.5832 97.30292 70.01764 98.32455 70.28854 98.96964 70.55945 99.61472 70.99387 100.66269 71.26477 101.32336 71.53568 101.98404 71.97011 103.05621 72.24101 103.73134 72.5119 104.40648 72.94635 105.50104 73.21724 106.18933 73.48811 106.87764 73.92258 107.99239 74.19347 108.69218 74.46434 109.392 74.89879 110.5238 75.1697 111.23315 75.44058 111.9425 75.87503 113.0884 76.14592 113.80476 76.41682 114.52115 76.85127 115.67572 77.12215 116.39641 77.39304 117.11708 77.8275 118.27715 78.09837 118.999 78.36926 119.72084 78.80371 120.87996 79.0746 121.59901 79.3455 122.31808 79.77994 123.46935 80.05084 124.18161 80.32175 124.89388 80.75618 126.03174 81.02707 126.73257 81.29796 127.43343 81.73239 128.54882 82.0033 129.23287 82.2742 129.9169 82.70863 131.00099 82.97954 131.66278 83.25043 132.32457 83.68488 133.36916 83.95576 134.00264 84.22664 134.63613 84.66109 135.62996 84.93199 136.22856 85.20288 136.82715 85.63733 137.75975 85.90823 138.31696 86.17912 138.87418 86.61357 139.73557 86.88445 140.24463 87.15533 140.7537 87.5898 141.53203 87.86067 141.98604 88.13156 142.44007 88.56601 143.12483 88.8369 143.517 89.1078 143.90918 89.54225 144.48877 89.81314 144.81266 90.08405 145.13654 90.51848 145.60144 90.78937 145.85138 91.06026 146.10132 91.49469 146.44344 91.7656 146.6141 92.0365 146.78478 92.47093 146.99481 92.74184 147.0815 93.01274 147.1682 93.44717 147.23947 93.71806 147.23903 93.98894 147.23859 94.4234 147.16802 94.69429 147.07826 94.96516 146.98851 95.39961 146.77231 95.67052 146.59215 95.9414 146.41199 96.37585 146.04994 96.64676 145.77971 96.91765 145.50949 97.35208 145.00312 97.62297 144.64447 97.89388 144.28585 98.32838 143.63887 98.59926 143.19486 98.87015 142.75086 99.30453 141.96973 99.57541 141.4444 99.8463 140.91907 100.28082 140.00975 100.5517 139.40862 100.82259 138.80747 101.25694 137.78252 101.52783 137.11168 101.79872 136.44086 102.23322 135.30739 102.50414 134.57364 102.77505 133.83989 103.20953 132.612 103.48042 131.8232 103.75131 131.03441 104.18567 129.72454 104.45656 128.88845 104.72745 128.05236 105.16196 126.67262 105.43285 125.79715 105.70372 124.92169 106.1381 123.48549 106.409 122.57869 106.67987 121.67188 107.11436 120.1918 107.38528 119.26143 107.65619 118.33105 108.09068 116.81966 108.36156 115.87317 108.63245 114.92668 109.06683 113.3955 109.3377 112.43973 109.6086 111.48396 110.04312 109.94315 110.314 108.98465 110.58488 108.02615 111.01926 106.48695 111.29013 105.53151 111.56102 104.57607 111.99551 103.04576 112.26643 102.09837 112.53735 101.15099 112.97183 99.63814 113.24272 98.70334 113.51361 97.76854 113.94797 96.27933 114.21886 95.3609 114.48975 94.44249 114.92426 92.98264 115.19514 92.08401 115.46603 91.1854 115.9004 89.76057 116.1713 88.88426 116.44217 88.00793 116.87666 86.62006 117.14758 85.76811 117.41849 84.91617 117.85298 83.56982 118.12387 82.74396 118.39474 81.91808 118.82912 80.61417 119.09999 79.81566 119.37088 79.01714 119.80542 77.75905 120.0763 76.98871 120.34718 76.21837 120.78156 75.00542 121.05243 74.26344 121.32332 73.52148 121.75783 72.3544 122.02873 71.64116 122.29965 70.9279 122.73413 69.8073 123.00502 69.1228 123.27591 68.4383 123.71027 67.36388 123.98116 66.70773 124.25204 66.05159 124.68655 65.022 124.95744 64.3937 125.22833 63.76541 125.6627 62.78036 125.9336 62.1794 126.20448 61.57843 126.63896 60.6365 126.90988 60.06227 127.18079 59.48802 127.61528 58.58907 127.88617 58.04068 128.15705 57.49228 128.59142 56.63327 128.8623 56.10979 129.13318 55.58629 129.56772 54.7669 129.8386 54.26765 130.10948 53.76839 130.54386 52.98741 130.81473 52.5114 131.08562 52.03537 131.52011 51.29056 131.79102 50.83679 132.06194 50.38303 132.49645 49.67331 132.76732 49.24095 133.03821 48.8086 133.47257 48.13257 133.74346 47.72064 134.01435 47.30872 134.44886 46.66435 134.71974 46.27199 134.99063 45.87962 135.425 45.2665 135.69589 44.89273 135.96678 44.51895 136.40126 43.93416 136.67218 43.57803 136.9431 43.22191 137.37758 42.66505 137.64847 42.32594 137.91934 41.98683 138.35372 41.45694 138.6246 41.13391 138.89548 40.81088 139.33002 40.30544 139.6009 39.99773 139.87178 39.69 140.30615 39.20918 140.57704 38.91606 140.84792 38.62296 141.28241 38.16447 141.55332 37.8851 141.82424 37.60573 142.25875 37.16875 142.52962 36.90256 142.8005 36.63635 143.23488 36.22023 143.50576 35.96648 143.77664 35.71272 144.21115 35.31561 144.48204 35.07365 144.75293 34.83168 145.1873 34.4532 145.45819 34.22247 145.72908 33.99176 146.16356 33.63069 146.43448 33.41068 146.7054 33.19066 147.13988 32.84657 147.41077 32.63663 147.68166 32.4267 148.11602 32.09778 148.3869 31.89746 148.65778 31.69714 149.09232 31.384 149.3632 31.19283 149.63408 31.00165 150.06845 30.70204 150.33934 30.5195 150.61022 30.33696 151.04471 30.05154 151.31563 29.87715 151.58654 29.70277 152.02104 29.42918 152.29192 29.26259 152.5628 29.096 152.99718 28.83557 153.26805 28.6764 153.53894 28.51724 153.97347 28.26756 154.24434 28.1154 154.51523 27.96323 154.94962 27.72504 155.22049 27.57959 155.49138 27.43414 155.92586 27.20619 156.19678 27.067 156.4677 26.92783 156.90218 26.70952 157.17307 26.57639 157.44396 26.44324 157.87831 26.23477 158.1492 26.10736 158.42009 25.97997 158.85462 25.78001 159.1255 25.65807 159.39638 25.5361 159.83075 25.34517 160.10164 25.22842 160.37252 25.11166 160.807 24.92847 161.07793 24.81656 161.34883 24.70464 161.78333 24.52895 162.05422 24.42178 162.32509 24.31464 162.75948 24.14684 163.03035 24.04414 163.30124 23.94145 163.73577 23.78008 164.00664 23.68166 164.27753 23.58322 164.7119 23.42902 164.98278 23.33467 165.25366 23.24031 165.68817 23.09209 165.95908 23.00154 166.23 22.911 166.66448 22.76892 166.93537 22.68199 167.20626 22.59508 167.64061 22.4584 167.9115 22.37503 168.18239 22.29164 168.61692 22.161 168.8878 22.08098 169.15869 22.00095 169.59305 21.87505 169.86394 21.7982 170.13481 21.72136 170.5693 21.6009 170.84023 21.52707 171.11113 21.45323 171.54563 21.33687 171.81652 21.26593 172.08739 21.195 172.52178 21.0839 172.79267 21.01578 173.06354 20.94768 173.49806 20.84055 173.76894 20.77498 174.03983 20.70943 174.4742 20.60623 174.74507 20.54321 175.01596 20.48021 175.45047 20.38141 175.72138 20.32083 175.9923 20.26025 176.42678 20.1648 176.69766 20.10649 176.96855 20.04819 177.40291 19.95659 177.6738 19.90057 177.94469 19.84454 178.37921 19.75662 178.6501 19.7027 178.92099 19.64877 179.35535 19.56389 179.62624 19.51193 179.89713 19.45998 180.3316 19.37816 180.60253 19.32813 180.87343 19.27809 181.30792 19.19942 181.57881 19.15126 181.84969 19.1031 182.28408 19.02734 182.55496 18.98096 182.82584 18.93456 183.26036 18.86154 183.53125 18.81685 183.80213 18.77216 184.2365 18.70183 184.50737 18.65877 184.77826 18.61569 185.21277 18.5479 185.48368 18.50638 185.7546 18.46486 186.18909 18.3995 186.45996 18.35948 186.73085 18.31946 187.16522 18.25645 187.4361 18.21788 187.70699 18.17929 188.14151 18.11852 188.4124 18.0813 188.68329 18.04408 189.11765 17.9855 189.38854 17.9496 189.65943 17.91371 190.0939 17.85715 190.36483 17.82253 190.63574 17.78789 191.07022 17.73332 191.34111 17.69992 191.61199 17.6665 192.04637 17.61386 192.31726 17.5816 192.58814 17.54933 193.02266 17.49852 193.29355 17.46739 193.56443 17.43625 194.26969 17.35716 194.26969 17.35716"/>
<use data-text="y" xlink:href="#font_4_2" transform="matrix(9.962899,0,0,-9.962799,108.80573,36.823419)"/>
<use data-text="=" xlink:href="#font_2_6" transform="matrix(9.962899,0,0,-9.962799,116.81498,36.823419)"/>
<use data-text="4" xlink:href="#font_2_5" transform="matrix(9.962899,0,0,-9.962799,130.76239,30.083275)"/>
<use data-text="&#x2212;" xlink:href="#font_1_1" transform="matrix(9.962899,0,0,-9.962799,137.95761,30.083275)"/>
<use data-text="x" xlink:href="#font_4_1" transform="matrix(9.962899,0,0,-9.962799,147.9209,30.083275)"/>
<path transform="matrix(1.00003,0,0,-1.00002,25.508233,-110.17153)" stroke-width=".3985" stroke-linecap="butt" stroke-miterlimit="10" stroke-linejoin="miter" fill="none" stroke="#000000" d="M103.016-144.502H130.337"/>
<use data-text="1" xlink:href="#font_2_2" transform="matrix(9.962899,0,0,-9.962799,128.52733,43.657556)"/>
<use data-text="+" xlink:href="#font_2_1" transform="matrix(9.962899,0,0,-9.962799,135.72055,43.657556)"/>
<use data-text="x" xlink:href="#font_4_1" transform="matrix(9.962899,0,0,-9.962799,145.68584,43.657556)"/>
<use data-text="2" xlink:href="#font_5_1" transform="matrix(6.9740097,0,0,-6.97394,151.38,40.779489)"/>
</g>
<use data-text="x" xlink:href="#font_4_1" transform="matrix(9.962899,0,0,-9.962799,186.15705,143.53156)"/>
<use data-text="y" xlink:href="#font_4_2" transform="matrix(9.962899,0,0,-9.962799,101.75352,9.6058659)"/>
</svg>
