<svg xmlns="http://www.w3.org/2000/svg" xmlns:xlink="http://www.w3.org/1999/xlink" xmlns:inkscape="http://www.inkscape.org/namespaces/inkscape" version="1.1" width="197" height="165" viewBox="0 0 197 165">
<defs>
<clipPath id="clip_1">
<path transform="matrix(1.00005,0,0,-1.00003,-97.44877,163.19542)" d="M98.5413 0H292.81346V161.39286H98.5413Z"/>
</clipPath>
<path id="font_2_1" d="M.6589966 .23046875C.6759949 .23046875 .69400027 .23046875 .69400027 .25045777 .69400027 .27046205 .6759949 .27046205 .6589966 .27046205H.117996219C.100997928 .27046205 .08299255 .27046205 .08299255 .25045777 .08299255 .23046875 .100997928 .23046875 .117996219 .23046875H.6589966Z"/>
<path id="font_3_1" d="M.2939911 .64004519C.2939911 .66400149 .2939911 .6660156 .2709961 .6660156 .20899964 .60227969 .12098694 .60227969 .08898926 .60227969V.57128909C.10899353 .57128909 .16799927 .57128909 .21998596 .5972748V.07902527C.21998596 .042999269 .21699524 .0309906 .1269989 .0309906H.09498596V0C.12998963 .0029907227 .21699524 .0029907227 .25698854 .0029907227 .29699708 .0029907227 .38398744 .0029907227 .4189911 0V.0309906H.3869934C.29699708 .0309906 .2939911 .041992189 .2939911 .07902527V.64004519Z"/>
<path id="font_4_1" d="M.33399964 .30233766C.33999635 .32835389 .36299134 .42037965 .43299867 .42037965 .43798829 .42037965 .46199037 .42037965 .48298646 .40734864 .45498658 .402359 .43499757 .37734986 .43499757 .35334779 .43499757 .33735658 .44599916 .31835938 .47299195 .31835938 .49499513 .31835938 .5269928 .3363495 .5269928 .37635804 .5269928 .42837525 .46798707 .4423828 .43399049 .4423828 .37599183 .4423828 .34098817 .38935853 .32899476 .36634828 .3039856 .43237306 .25 .4423828 .22099304 .4423828 .116989139 .4423828 .05999756 .3133545 .05999756 .28834535 .05999756 .27833558 .069992069 .27833558 .07199097 .27833558 .07998657 .27833558 .08299255 .28033448 .084991458 .28933717 .11898804 .39535523 .18499756 .42037965 .21899414 .42037965 .23799134 .42037965 .272995 .4113617 .272995 .35334779 .272995 .32235719 .2559967 .25532533 .21899414 .11528015 .20298767 .053268434 .16799927 .011245728 .12399292 .011245728 .117996219 .011245728 .09498596 .011245728 .07398987 .024276734 .09899902 .029266358 .12098694 .05027771 .12098694 .07827759 .12098694 .105270389 .09899902 .11328125 .083999637 .11328125 .053985597 .11328125 .0289917 .08728027 .0289917 .055267335 .0289917 .009246826 .07899475-.0107421879 .12298584-.0107421879 .18899536-.0107421879 .22499085 .059280397 .22799683 .0652771 .23999024 .028274537 .27598573-.0107421879 .33599855-.0107421879 .43899537-.0107421879 .49598695 .118270877 .49598695 .14328003 .49598695 .1532898 .4869995 .1532898 .48399354 .1532898 .47499085 .1532898 .47299195 .14929199 .47099305 .14228821 .43798829 .03527832 .36999513 .011245728 .33799745 .011245728 .29899598 .011245728 .2829895 .043273927 .2829895 .07727051 .2829895 .09927368 .2889862 .121276859 .2999878 .16529846L.33399964 .30233766Z"/>
<path id="font_4_2" d="M.48599244 .38136292C.48999024 .39537049 .48999024 .39736939 .48999024 .40437318 .48999024 .42237855 .47599793 .43138124 .46099855 .43138124 .45098878 .43138124 .43499757 .42536927 .42599488 .41036988 .42399598 .405365 .41600038 .37435914 .4119873 .35635377 .40499879 .33035279 .397995 .30334474 .3919983 .27633668L.34700013 .09628296C.34298707 .08126831 .2999878 .011245728 .23399353 .011245728 .18299866 .011245728 .17199707 .055267335 .17199707 .0922699 .17199707 .1382904 .18899536 .20030213 .22299195 .28833009 .23899842 .3293457 .24299622 .3403473 .24299622 .36035157 .24299622 .405365 .21099854 .4423828 .16099549 .4423828 .06599426 .4423828 .0289917 .29733277 .0289917 .28833009 .0289917 .27833558 .038986207 .27833558 .040985109 .27833558 .050994874 .27833558 .051986696 .28033448 .056991579 .29634095 .083999637 .3903656 .12399292 .42037965 .1579895 .42037965 .1659851 .42037965 .18299866 .42037965 .18299866 .3883667 .18299866 .36335755 .17298889 .3373413 .1659851 .31834413 .12599182 .21231079 .10798645 .1552887 .10798645 .10827637 .10798645 .019256592 .17098999-.0107421879 .22999573-.0107421879 .2689972-.0107421879 .30299378 .0062561037 .33099366 .03425598 .31799317-.017745972 .30599977-.06674194 .2659912-.11973572 .23999024-.15385437 .20199585-.18309021 .1559906-.18309021 .14199829-.18309021 .09700012-.18005371 .07998657-.14074707 .09599304-.14074707 .10899353-.14074707 .12298584-.1287384 .1329956-.11973572 .14299011-.10673523 .14299011-.08773804 .14299011-.056747438 .115997318-.052734376 .10598755-.052734376 .08299255-.052734376 .049987794-.068740848 .049987794-.11773682 .049987794-.16796875 .09399414-.20507813 .1559906-.20507813 .25898744-.20507813 .3619995-.11373901 .3899994-.00074768069L.48599244 .38136292Z"/>
</defs>
<g clip-path="url(#clip_1)">
<path transform="matrix(1.00005,0,0,-1.00003,-97.44877,163.19542)" d="M195.67739 67.68088 195.6778 67.81102 195.679 67.94118 195.68103 68.07133 195.68387 68.20201 195.68752 68.33217 195.69197 68.46231 195.69727 68.59299 195.70334 68.72314 195.71024 68.85332 195.71793 68.98346 195.72647 69.11415 195.73578 69.2443 195.74591 69.37445 195.75684 69.50461 195.76863 69.63528 195.78119 69.76543 195.79456 69.89558 195.80875 70.02574 195.82379 70.15642 195.83959 70.28658 195.85619 70.41675 195.87361 70.54689 195.8919 70.67757 195.91097 70.80772 195.9308 70.93788 195.95145 71.06802 195.97299 71.19872 195.99527 71.32886 196.01834 71.45901 196.04224 71.58917 196.06705 71.71985 196.09255 71.85 196.11887 71.98016 196.14598 72.11032 196.17403 72.241 196.20278 72.37115 196.23232 72.50131 196.26279 72.63197 196.29396 72.76213 196.32592 72.89229 196.35869 73.02245 196.39228 73.1526 196.42665 73.28276 196.46184 73.41292 196.49797 73.5436 196.53478 73.67375 196.57238 73.80391 196.61093 73.93457 196.65015 74.06473 196.69016 74.19489 196.73097 74.32503 196.77275 74.45572 196.81516 74.58588 196.85839 74.71603 196.9024 74.84619 196.9474 74.97687 196.99303 75.10703 197.03943 75.23718 197.08664 75.36732 197.13484 75.498 197.18366 75.62816 197.23326 75.75832 197.28365 75.88847 197.33506 76.01917 197.38704 76.1493 197.4398 76.27946 197.4934 76.40962 197.54796 76.5403 197.60312 76.67044 197.65904 76.8006 197.71579 76.93076 197.77355 77.06143 197.83187 77.19159 197.89096 77.32175 197.95082 77.4519 198.01172 77.58258 198.07317 77.71274 198.13539 77.8429 198.19864 77.97357 198.26244 78.10373 198.32698 78.23387 198.39232 78.36403 198.45844 78.49419 198.5253 78.62434 198.59296 78.7545 198.66167 78.88518 198.73085 79.01534 198.80083 79.1455 198.87181 79.27617 198.94333 79.40633 199.01558 79.53647 199.0886 79.66663 199.16268 79.7973 199.23722 79.92746 199.31252 80.0576 199.38857 80.18777 199.46567 80.31845 199.54323 80.44861 199.62154 80.57877 199.70059 80.70891 199.78072 80.83958 199.86125 80.96974 199.94255 81.0999 200.02457 81.23004 200.10768 81.36073 200.19116 81.49088 200.2754 81.62105 200.36038 81.7512 200.44641 81.88188 200.53284 82.01202 200.61998 82.14218 200.70786 82.27234 200.7968 82.40302 200.88611 82.53317 200.97612 82.66333 201.06685 82.79347 201.15866 82.92416 201.25081 83.05432 201.34366 83.18448 201.43759 83.31516 201.53185 83.44531 201.6268 83.57545 201.72243 83.70561 201.81877 83.83577 201.91577 83.96593 202.01348 84.09607 202.11226 84.22676 202.21121 84.3569 202.31095 84.48708 202.41173 84.61775 202.51282 84.74791 202.61455 84.87805 202.71694 85.00821 202.82039 85.13889 202.9241 85.26904 203.02845 85.3992 203.13346 85.52936 203.2395 85.66002 203.34578 85.79018 203.4527 85.92035 203.56023 86.0505 203.66886 86.18118 203.77764 86.31134 203.88706 86.44148 203.99707 86.57164 204.10814 86.70232 204.21939 86.83246 204.33123 86.96262 204.44368 87.09277 204.55716 87.22345 204.67078 87.35362 204.78498 87.48378 204.89975 87.61392 205.01558 87.7446 205.13149 87.87476 205.24799 88.00491 205.36502 88.13506 205.4831 88.26575 205.60124 88.39589 205.71993 88.52605 205.83963 88.65672 205.95938 88.7869 206.07965 88.91704 206.20049 89.0472 206.32181 89.17735 206.44362 89.30751 206.56645 89.43819 206.68929 89.56834 206.81264 89.69849 206.93694 89.82918 207.06124 89.95932 207.18599 90.0895 207.31124 90.21965 207.43692 90.34981 207.56359 90.48047 207.69019 90.61063 207.81723 90.74078 207.94469 90.87094 208.0731 91.00162 208.20145 91.13177 208.33019 91.26192 208.4593 91.39207 208.58937 91.52275 208.71932 91.65292 208.84964 91.78307 208.98033 91.91322 209.11194 92.0439 209.24337 92.17406 209.37516 92.30421 209.50728 92.43437 209.64028 92.56503 209.77309 92.69519 209.9062 92.82535 210.03963 92.95552 210.1739 93.0862 210.30796 93.21634 210.44228 93.3465 210.57688 93.47665 210.71228 93.60733 210.84741 93.73747 210.98279 93.86763 211.11896 93.9983 211.25482 94.12846 211.3909 94.25862 211.5272 94.3888 211.6637 94.51894 211.80039 94.6491 211.93779 94.77977 212.07486 94.90993 212.21207 95.04007 212.34998 95.17076 212.48749 95.3009 212.62512 95.43106 212.76288 95.56122 212.90076 95.69139 213.03926 95.82205 213.17733 95.95221 213.31545 96.08237 213.45363 96.21252 213.59244 96.3432 213.73072 96.47336 213.86904 96.6035 214.00737 96.73366 214.14623 96.86433 214.28455 96.99449 214.42285 97.12465 214.5611 97.2548 214.69986 97.38548 214.83803 97.51564 214.97609 97.6458 215.11408 97.77596 215.2525 97.90663 215.39028 98.03679 215.5279 98.16693 215.66538 98.29709 215.80327 98.42776 215.9404 98.55792 216.07736 98.68808 216.21442 98.81824 216.35149 98.94891 216.4878 99.07907 216.62383 99.20923 216.76013 99.33989 216.89562 99.47005 217.0308 99.6002 217.16568 99.73036 217.30022 99.8605 217.43439 99.99068 217.56874 100.12135 217.70217 100.25151 217.83516 100.38167 217.96828 100.51234 218.10042 100.64249 218.23212 100.77264 218.36333 100.9028 218.49454 101.03348 218.62473 101.16364 218.75435 101.2938 218.88343 101.42395 219.01194 101.55411 219.14032 101.68478 219.2676 101.81494 219.39421 101.94508 219.52019 102.07524 219.64597 102.20592 219.77053 102.33607 219.89435 102.46623 220.01741 102.59639 220.14019 102.72705 220.26166 102.85722 220.38233 102.98738 220.5021 103.11754 220.6215 103.24821 220.73952 103.37837 220.8566 103.50851 220.97274 103.63867 221.0883 103.76935 221.20246 103.8995 221.31555 104.02965 221.42757 104.15982 221.53894 104.2905 221.64875 104.42065 221.75739 104.55081 221.8653 104.68149 221.97156 104.81165 222.07654 104.9418 222.18027 105.07195 222.2827 105.2021 222.38376 105.33226 222.48387 105.46294 222.58214 105.5931 222.679 105.72325 222.77474 105.85393 222.86858 105.98409 222.96089 106.11424 223.05159 106.24438 223.14102 106.37506 223.22841 106.50522 223.31412 106.63538 223.39807 106.76552 223.48026 106.89568 223.56092 107.02635 223.63938 107.15652 223.71591 107.28668 223.79051 107.41684 223.86336 107.5475 223.93389 107.67766 224.0023 107.80782 224.06858 107.93797 224.1329 108.06865 224.19474 108.1988 224.25426 108.32895 224.31143 108.45912 224.36641 108.5898 224.4187 108.71996 224.46848 108.8501 224.51567 108.98026 224.56038 109.11093 224.60224 109.24109 224.64133 109.37125 224.67758 109.5014 224.71108 109.63206 224.74149 109.76222 224.76886 109.8924 224.79322 110.02307 224.8143 110.15323 224.83214 110.28339 224.84668 110.41353 224.85779 110.54369 224.86542 110.67384 224.86949 110.80452 224.86989 110.93466 224.86653 111.06482 224.8593 111.1955 224.84818 111.32567 224.83298 111.45583 224.8137 111.58598 224.79006 111.71664 224.76216 111.8468 224.72982 111.97696 224.69292 112.1071 224.65129 112.23726 224.60466 112.36794 224.55329 112.4981 224.49681 112.62827 224.43515 112.75842 224.36782 112.8891 224.29526 113.01926 224.21703 113.1494 224.13298 113.27956 224.04256 113.41023 223.94629 113.54039 223.8437 113.67053 223.73453 113.80069 223.61814 113.93137 223.49523 114.06152 223.36511 114.1917 223.22757 114.32185 223.08177 114.45251 222.9286 114.58267 222.76721 114.71283 222.59734 114.84299 222.41791 114.97366 222.23004 115.10382 222.0327 115.23396 221.82466 115.36464 221.60717 115.4948 221.37902 115.62497 221.13974 115.75511 220.88886 115.88527 220.62586 116.01543 220.349 116.1461 220.05992 116.27626 219.7569 116.40642 219.43787 116.53708 219.10459 116.66724 218.75493 116.7974 218.38797 116.92757 218.00099 117.05824 217.59597 117.1884 217.17002 117.31854 216.72165 117.4487 216.24723 117.57938 215.74823 117.70953 215.22118 117.83968 214.66316 117.96983 214.07106 118.09999 213.43857 118.23067 212.76622 118.36084 212.04602 118.491 211.27104 118.62114 210.42877 118.75182 209.51381 118.88197 208.50634 119.01212 207.38195 119.14227 206.09687 119.27295 204.5938 119.4031 202.72618 119.53326 200.04796 119.66344M195.67739 67.68088 195.67697 67.81102 195.67575 67.94118 195.67374 68.07133 195.67089 68.20201 195.66724 68.33217 195.66278 68.46231 195.6575 68.59299 195.65143 68.72314 195.64455 68.85332 195.63684 68.98346 195.62831 69.11415 195.61899 69.2443 195.60886 69.37445 195.59792 69.50461 195.58612 69.63528 195.57357 69.76543 195.5602 69.89558 195.54602 70.02574 195.53098 70.15642 195.51519 70.28658 195.49858 70.41675 195.48116 70.54689 195.46285 70.67757 195.44382 70.80772 195.42397 70.93788 195.40332 71.06802 195.38176 71.19872 195.3595 71.32886 195.33641 71.45901 195.31252 71.58917 195.28772 71.71985 195.2622 71.85 195.2359 71.98016 195.20879 72.11032 195.18073 72.241 195.15198 72.37115 195.12245 72.50131 195.09197 72.63197 195.0608 72.76213 195.02886 72.89229 194.99608 73.02245 194.9625 73.1526 194.9281 73.28276 194.89293 73.41292 194.8568 73.5436 194.81999 73.67375 194.7824 73.80391 194.74384 73.93457 194.70462 74.06473 194.66461 74.19489 194.6238 74.32503 194.58202 74.45572 194.5396 74.58588 194.49639 74.71603 194.45236 74.84619 194.40737 74.97687 194.36176 75.10703 194.31533 75.23718 194.26813 75.36732 194.21993 75.498 194.17111 75.62816 194.1215 75.75832 194.0711 75.88847 194.01972 76.01917 193.96773 76.1493 193.91495 76.27946 193.86139 76.40962 193.80681 76.5403 193.75164 76.67044 193.69571 76.8006 193.63898 76.93076 193.5812 77.06143 193.52289 77.19159 193.4638 77.32175 193.40395 77.4519 193.34304 77.58258 193.2816 77.71274 193.21938 77.8429 193.15612 77.97357 193.09233 78.10373 193.02779 78.23387 192.96245 78.36403 192.89635 78.49419 192.82946 78.62434 192.76181 78.7545 192.69312 78.88518 192.62392 79.01534 192.55396 79.1455 192.48294 79.27617 192.41144 79.40633 192.33917 79.53647 192.26616 79.66663 192.19208 79.7973 192.11756 79.92746 192.04225 80.0576 191.9662 80.18777 191.8891 80.31845 191.81154 80.44861 191.73323 80.57877 191.65416 80.70891 191.57405 80.83958 191.4935 80.96974 191.4122 81.0999 191.33019 81.23004 191.24709 81.36073 191.16359 81.49088 191.07936 81.62105 190.99439 81.7512 190.90836 81.88188 190.82193 82.01202 190.73477 82.14218 190.64691 82.27234 190.55797 82.40302 190.46866 82.53317 190.37865 82.66333 190.28792 82.79347 190.19609 82.92416 190.10396 83.05432 190.01111 83.18448 189.91718 83.31516 189.82292 83.44531 189.72798 83.57545 189.63233 83.70561 189.53601 83.83577 189.439 83.96593 189.3413 84.09607 189.24251 84.22676 189.14356 84.3569 189.04381 84.48708 188.94303 84.61775 188.84197 84.74791 188.74022 84.87805 188.63784 85.00821 188.53437 85.13889 188.43067 85.26904 188.32631 85.3992 188.22133 85.52936 188.11527 85.66002 188.00899 85.79018 187.90207 85.92035 187.79453 86.0505 187.68592 86.18118 187.57714 86.31134 187.4677 86.44148 187.35768 86.57164 187.24663 86.70232 187.13538 86.83246 187.02353 86.96262 186.9111 87.09277 186.7976 87.22345 186.68398 87.35362 186.56978 87.48378 186.455 87.61392 186.33919 87.7446 186.22327 87.87476 186.10678 88.00491 185.98973 88.13506 185.87166 88.26575 185.75353 88.39589 185.63483 88.52605 185.51514 88.65672 185.39539 88.7869 185.2751 88.91704 185.15428 89.0472 185.03298 89.17735 184.91115 89.30751 184.78832 89.43819 184.66548 89.56834 184.54215 89.69849 184.41783 89.82918 184.29354 89.95932 184.16876 90.0895 184.04354 90.21965 183.91785 90.34981 183.79119 90.48047 183.6646 90.61063 183.53755 90.74078 183.41007 90.87094 183.28166 91.00162 183.15332 91.13177 183.02458 91.26192 182.89545 91.39207 182.76538 91.52275 182.63545 91.65292 182.50513 91.78307 182.37444 91.91322 182.24283 92.0439 182.1114 92.17406 181.97962 92.30421 181.84749 92.43437 181.71448 92.56503 181.58168 92.69519 181.44857 92.82535 181.31513 92.95552 181.18085 93.0862 181.04683 93.21634 180.9125 93.3465 180.7779 93.47665 180.64249 93.60733 180.50736 93.73747 180.37197 93.86763 180.23581 93.9983 180.09995 94.12846 179.96385 94.25862 179.82758 94.3888 179.69107 94.51894 179.55438 94.6491 179.41696 94.77977 179.2799 94.90993 179.14269 95.04007 179.00478 95.17076 178.86728 95.3009 178.72963 95.43106 178.59188 95.56122 178.45401 95.69139 178.3155 95.82205 178.17745 95.95221 178.03934 96.08237 177.90113 96.21252 177.76232 96.3432 177.62404 96.47336 177.48574 96.6035 177.3474 96.73366 177.20854 96.86433 177.07022 96.99449 176.93192 97.12465 176.79367 97.2548 176.6549 97.38548 176.51674 97.51564 176.37866 97.6458 176.24069 97.77596 176.10227 97.90663 175.9645 98.03679 175.82688 98.16693 175.68938 98.29709 175.55152 98.42776 175.41436 98.55792 175.2774 98.68808 175.14035 98.81824 175.00327 98.94891 174.86699 99.07907 174.73094 99.20923 174.59462 99.33989 174.45914 99.47005 174.32395 99.6002 174.18909 99.73036 174.05454 99.8605 173.92037 99.99068 173.78603 100.12135 173.6526 100.25151 173.51959 100.38167 173.38648 100.51234 173.25434 100.64249 173.12265 100.77264 172.99146 100.9028 172.86023 101.03348 172.73006 101.16364 172.60042 101.2938 172.47135 101.42395 172.34284 101.55411 172.21443 101.68478 172.08716 101.81494 171.96054 101.94508 171.83458 102.07524 171.7088 102.20592 171.58423 102.33607 171.46044 102.46623 171.33736 102.59639 171.21459 102.72705 171.09311 102.85722 170.97245 102.98738 170.85266 103.11754 170.73326 103.24821 170.61525 103.37837 170.49816 103.50851 170.38205 103.63867 170.26645 103.76935 170.1523 103.8995 170.03923 104.02965 169.9272 104.15982 169.81583 104.2905 169.70601 104.42065 169.59737 104.55081 169.48949 104.68149 169.38323 104.81165 169.27822 104.9418 169.1745 105.07195 169.07209 105.2021 168.971 105.33226 168.8709 105.46294 168.77262 105.5931 168.67577 105.72325 168.58002 105.85393 168.48618 105.98409 168.39388 106.11424 168.30318 106.24438 168.21375 106.37506 168.12635 106.50522 168.04064 106.63538 167.9567 106.76552 167.87453 106.89568 167.79387 107.02635 167.71541 107.15652 167.63886 107.28668 167.56426 107.41684 167.49141 107.5475 167.42087 107.67766 167.35247 107.80782 167.28618 107.93797 167.22187 108.06865 167.16004 108.1988 167.10051 108.32895 167.04334 108.45912 166.98836 108.5898 166.93608 108.71996 166.8863 108.8501 166.83911 108.98026 166.79439 109.11093 166.75254 109.24109 166.71344 109.37125 166.67717 109.5014 166.64368 109.63206 166.61328 109.76222 166.5859 109.8924 166.56156 110.02307 166.54047 110.15323 166.52262 110.28339 166.50809 110.41353 166.49697 110.54369 166.48934 110.67384 166.48528 110.80452 166.48488 110.93466 166.48825 111.06482 166.49547 111.1955 166.50659 111.32567 166.52178 111.45583 166.54106 111.58598 166.56472 111.71664 166.5926 111.8468 166.62496 111.97696 166.66187 112.1071 166.70348 112.23726 166.75009 112.36794 166.80149 112.4981 166.85796 112.62827 166.91962 112.75842 166.98694 112.8891 167.05951 113.01926 167.13773 113.1494 167.22179 113.27956 167.31221 113.41023 167.40847 113.54039 167.51107 113.67053 167.62024 113.80069 167.73664 113.93137 167.85955 114.06152 167.98966 114.1917 168.12718 114.32185 168.27298 114.45251 168.42617 114.58267 168.58754 114.71283 168.75743 114.84299 168.93686 114.97366 169.12473 115.10382 169.32207 115.23396 169.5301 115.36464 169.74759 115.4948 169.97574 115.62497 170.21503 115.75511 170.46591 115.88527 170.72893 116.01543 171.00576 116.1461 171.29483 116.27626 171.59786 116.40642 171.9169 116.53708 172.25017 116.66724 172.59984 116.7974 172.96681 116.92757 173.35378 117.05824 173.7588 117.1884 174.18476 117.31854 174.63312 117.4487 175.10755 117.57938 175.60652 117.70953 176.13358 117.83968 176.6916 117.96983 177.2837 118.09999 177.91622 118.23067 178.58855 118.36084 179.30875 118.491 180.08373 118.62114 180.926 118.75182 181.84095 118.88197 182.84844 119.01212 183.97281 119.14227 185.2579 119.27295 186.76097 119.4031 188.62857 119.53326 191.3068 119.66344Z" fill="#b3ffb3" fill-opacity=".3"/>
<path transform="matrix(1.00005,0,0,-1.00003,-97.44877,163.19542)" stroke-width="1.59404" stroke-linecap="butt" stroke-miterlimit="10" stroke-linejoin="miter" fill="none" stroke="#0000ff" d="M391.35478 0 388.7386 .3001 386.14964 .6002 383.5884 .90031 381.05314 1.20042 378.5446 1.50055 376.06266 1.80064 373.60673 2.10077 371.17704 2.40088 368.77394 2.701 366.39588 3.0011 364.04335 3.30122 361.7161 3.60132 359.41413 3.90144 357.13685 4.20155 354.8852 4.50168 352.65733 4.80177 350.45396 5.1019 348.27494 5.40201 346.11994 5.70212 343.98927 6.00223 341.8817 6.30234 339.79753 6.60246 337.73695 6.90257 335.69923 7.20268 333.68464 7.50279 331.69328 7.8029 329.72395 8.10303 327.77708 8.40312 325.85249 8.70325 323.9499 9.00336 322.06925 9.30348 320.21064 9.60358 318.37315 9.9037 316.55696 10.2038 314.76197 10.50392 312.9881 10.80403 311.23539 11.10416 309.50276 11.40425 307.79084 11.70438 306.09889 12.00449 304.42726 12.3046 302.776 12.6047 301.14414 12.90482 299.53178 13.20494 297.93885 13.50505 296.36515 13.80516 294.81065 14.10527 293.2754 14.40538 291.75856 14.7055 290.26029 15.0056 288.78038 15.30573 287.3186 15.60583 285.87519 15.90596 284.44966 16.20605 283.04176 16.50618 281.6515 16.80627 280.27857 17.1064 278.923 17.40651 277.58448 17.70663 276.26283 18.00673 274.95793 18.30685 273.66978 18.60696 272.39784 18.90707 271.1424 19.20718 269.90284 19.50731 268.67945 19.80742 267.47178 20.10753 266.2797 20.40764 265.10313 20.70775 263.9419 21.00786 262.7958 21.30798 261.6648 21.60808 260.5486 21.9082 259.44807 22.20831 258.3611 22.50844 257.28858 22.80853 256.2303 23.10866 255.18607 23.40875 254.1558 23.70888 253.13935 24.00899 252.13654 24.30911 251.14727 24.6092 250.17131 24.90933 249.20856 25.20944 248.25891 25.50955 247.32215 25.80966 246.39818 26.10979 245.48686 26.4099 244.58803 26.71 243.70154 27.01012 242.82726 27.31023 241.96506 27.61034 241.11483 27.91046 240.27637 28.21057 239.44957 28.51068 238.63431 28.81079 237.83046 29.11092 237.03786 29.41101 236.25643 29.71114 235.48593 30.01125 234.72629 30.31139 233.97753 30.61147 233.23925 30.91159 232.51158 31.21167 231.79416 31.51181 231.08699 31.81194 230.39002 32.11203 229.70298 32.41216 229.02585 32.71225 228.35843 33.01237 227.70063 33.3125 227.05248 33.61258 226.41356 33.91272 225.78409 34.2128 225.16368 34.51294 224.55234 34.81306 223.95003 35.11316 223.35648 35.41328 222.77175 35.71338 222.19556 36.01349 221.62789 36.31363 221.06874 36.61371 220.51779 36.91385 219.97512 37.21393 219.44052 37.51407 218.91391 37.8142 218.39528 38.11429 217.8844 38.4144 217.38134 38.7145 216.88584 39.01462 216.39781 39.31476 215.91704 39.61484 215.44388 39.91498 214.978 40.21506 214.51926 40.5152 214.06763 40.81532 213.62305 41.11542 213.18535 41.41553 212.75453 41.71562 212.33045 42.01575 211.91304 42.31589 211.5023 42.61597 211.09806 42.9161 210.70032 43.21617 210.3089 43.51633 209.92383 43.81644 209.54505 44.11653 209.1724 44.41666 208.8059 44.71675 208.4454 45.01688 208.0909 45.31702 207.74236 45.6171 207.39963 45.91724 207.06273 46.21732 206.73155 46.51744 206.40605 46.81757 206.08626 47.11766 205.77194 47.41779 205.46323 47.71788 205.15993 48.018 204.86205 48.31815 204.56958 48.61823 204.28241 48.91835 204.00055 49.21843 203.7239 49.51857 203.45244 49.8187 203.18614 50.11879 202.92493 50.41891 202.66883 50.71901 202.41771 51.01913 202.1716 51.31926 201.93056 51.61934 201.69432 51.91948 201.463 52.21957 201.23651 52.5197 201.01485 52.81982 200.798 53.11992 200.5859 53.42004 200.37856 53.72014 200.17592 54.02026 199.97797 54.3204 199.78469 54.62048 199.59604 54.92061 199.41202 55.22069 199.23258 55.52083 199.05771 55.82095 198.88742 56.12105 198.72165 56.42117 198.56043 56.72127 198.40366 57.0214 198.2514 57.32152 198.10366 57.6216 197.96031 57.92174 197.82144 58.22182 197.68697 58.52196 197.55692 58.82208 197.43132 59.12218 197.3101 59.4223 197.1933 59.72238 197.08084 60.0225 196.97277 60.32265 196.86905 60.62273 196.7697 60.92287 196.67472 61.22295 196.58405 61.52309 196.49773 61.82321 196.41574 62.12329 196.33809 62.42343 196.26479 62.72353 196.19577 63.02364 196.13109 63.32378 196.07071 63.62386 196.01465 63.924 195.9629 64.22408 195.91547 64.5242 195.87235 64.82434 195.83353 65.12444 195.79903 65.42455 195.7688 65.72464 195.7429 66.02477 195.72132 66.3249 195.70401 66.62498 195.69103 66.92513 195.68235 67.2252 195.67797 67.52534 195.67789 67.82545 195.68212 68.12555 195.69065 68.42567 195.70346 68.72577 195.7206 69.0259 195.74205 69.32603 195.76779 69.62611 195.79784 69.92625 195.83217 70.22633 195.87082 70.52646 195.91379 70.82658 195.96102 71.12668 196.01258 71.4268 196.0684 71.7269 196.12854 72.02702 196.19298 72.32716 196.26169 72.62724 196.33467 72.92737 196.41194 73.22745 196.4935 73.52759 196.57935 73.82771 196.66944 74.1278 196.7638 74.42793 196.86241 74.72803 196.96527 75.02814 197.07239 75.3283 197.18373 75.62837 197.29932 75.9285 197.41909 76.22858 197.54309 76.52872 197.6713 76.82884 197.8037 77.12894 197.94028 77.42905 198.08097 77.72914 198.22586 78.02928 198.37487 78.3294 198.52797 78.62949 198.68521 78.92963 198.8465 79.2297 199.01187 79.52985 199.18132 79.82997 199.35475 80.13007 199.53221 80.43019 199.71364 80.73027 199.89905 81.0304 200.0884 81.33054 200.28163 81.63062 200.47879 81.93076 200.67977 82.23083 200.88459 82.53098 201.0932 82.8311 201.30556 83.13118 201.52169 83.4313 201.74147 83.7314 201.96494 84.03152 202.19193 84.33167 202.42258 84.63174 202.6568 84.93188 202.89449 85.23196 203.13565 85.53209 203.38025 85.83221 203.62818 86.13231 203.87943 86.43243 204.13393 86.73253 204.39167 87.03265 204.65256 87.3328 204.91652 87.63287 205.18357 87.93301 205.45352 88.23308 205.72647 88.53323 206.00226 88.83334 206.2808 89.13344 206.56212 89.43356 206.84601 89.73366 207.13254 90.03378 207.42157 90.33391 207.71295 90.63399 208.00673 90.93414 208.30274 91.23422 208.60094 91.53435 208.90123 91.83447 209.20345 92.13457 209.50762 92.4347 209.81354 92.73479 210.12117 93.03491 210.43045 93.33505 210.74112 93.63513 211.05323 93.93526 211.36653 94.23534 211.68105 94.53548 211.99658 94.8356 212.31298 95.1357 212.63016 95.43582 212.94794 95.73592 213.26628 96.03604 213.58498 96.33617 213.90383 96.63625 214.2228 96.93639 214.54163 97.23647 214.86026 97.5366 215.17847 97.83673 215.49605 98.13683 215.81293 98.43694 216.12882 98.73703 216.44394 99.03716 216.75742 99.3373 217.06937 99.63737 217.37964 99.93752 217.68793 100.2376 217.9941 100.53773 218.29792 100.83784 218.59905 101.13794 218.8974 101.43808 219.19261 101.73817 219.4845 102.03828 219.77277 102.33842 220.05707 102.6385 220.33722 102.93864 220.61287 103.23872 220.88375 103.53886 221.1495 103.83899 221.4098 104.13908 221.6643 104.4392 221.91263 104.73929 222.15447 105.03941 222.3894 105.33955 222.61696 105.63963 222.8368 105.93977 223.04845 106.23985 223.2515 106.54 223.44538 106.8401 223.62963 107.1402 223.80374 107.44032 223.96714 107.74042 224.11927 108.04054 224.25949 108.34068 224.38718 108.64076 224.50167 108.9409 224.6022 109.24097 224.68808 109.5411 224.75846 109.84123 224.81252 110.14133 224.84934 110.44145 224.868 110.74155 224.8674 111.04167 224.84651 111.34181 224.80411 111.64188 224.73894 111.94202 224.64965 112.2421 224.53472 112.54224 224.39253 112.84236 224.22136 113.14246 224.01923 113.44258 223.78401 113.74268 223.51335 114.04279 223.20458 114.34294 222.85483 114.64302 222.46062 114.94315 222.01828 115.24323 221.52332 115.54337 220.97068 115.84349 220.35448 116.14359 219.66739 116.44371 218.90099 116.7438 218.04431 117.04393 217.08396 117.34406 216.00215 117.64413 214.77535 117.94427 213.36997 118.24435 211.73453 118.5445 209.78504 118.84462 207.3597 119.14471 204.04563 119.44484 195.67739 119.74492"/>
<path transform="matrix(1.00005,0,0,-1.00003,-97.44877,163.19542)" stroke-width="1.59404" stroke-linecap="butt" stroke-miterlimit="10" stroke-linejoin="miter" fill="none" stroke="#0000ff" d="M0 0 2.61618 .3001 5.20512 .6002 7.76633 .90031 10.30165 1.20042 12.81017 1.50055 15.29211 1.80064 17.74805 2.10077 20.17773 2.40088 22.58083 2.701 24.95891 3.0011 27.31142 3.30122 29.63867 3.60132 31.94066 3.90144 34.21791 4.20155 36.46959 4.50168 38.69745 4.80177 40.9008 5.1019 43.07983 5.40201 45.23483 5.70212 47.36548 6.00223 49.47307 6.30234 51.55724 6.60246 53.61781 6.90257 55.65553 7.20268 57.67012 7.50279 59.66148 7.8029 61.63081 8.10303 63.5777 8.40312 65.50227 8.70325 67.40485 9.00336 69.28554 9.30348 71.14412 9.60358 72.98163 9.9037 74.79782 10.2038 76.59282 10.50392 78.36665 10.80403 80.11937 11.10416 81.85202 11.40425 83.56395 11.70438 85.25586 12.00449 86.92752 12.3046 88.57877 12.6047 90.21066 12.90482 91.82298 13.20494 93.41595 13.50505 94.98961 13.80516 96.54411 14.10527 98.07939 14.40538 99.59619 14.7055 101.09448 15.0056 102.57439 15.30573 104.03616 15.60583 105.4796 15.90596 106.9051 16.20605 108.31299 16.50618 109.70328 16.80627 111.0762 17.1064 112.43176 17.40651 113.7703 17.70663 115.09193 18.00673 116.39687 18.30685 117.685 18.60696 118.95692 18.90707 120.21236 19.20718 121.45193 19.50731 122.67534 19.80742 123.883 20.10753 125.07506 20.40764 126.25163 20.70775 127.41287 21.00786 128.55895 21.30798 129.68999 21.60808 130.80617 21.9082 131.90671 22.20831 132.99365 22.50844 134.06618 22.80853 135.12448 23.10866 136.16869 23.40875 137.19896 23.70888 138.21543 24.00899 139.21822 24.30911 140.2075 24.6092 141.18346 24.90933 142.1462 25.20944 143.09586 25.50955 144.03261 25.80966 144.95659 26.10979 145.8679 26.4099 146.76674 26.71 147.65322 27.01012 148.5275 27.31023 149.3897 27.61034 150.23995 27.91046 151.0784 28.21057 151.90518 28.51068 152.72045 28.81079 153.52433 29.11092 154.3169 29.41101 155.09835 29.71114 155.86882 30.01125 156.62847 30.31139 157.37725 30.61147 158.11551 30.91159 158.84319 31.21167 159.5606 31.51181 160.26778 31.81194 160.96474 32.11203 161.6518 32.41216 162.3289 32.71225 162.99634 33.01237 163.65415 33.3125 164.3023 33.61258 164.9412 33.91272 165.57067 34.2128 166.19107 34.51294 166.80243 34.81306 167.40473 35.11316 167.99829 35.41328 168.58303 35.71338 169.1592 36.01349 169.72687 36.31363 170.28603 36.61371 170.83698 36.91385 171.37966 37.21393 171.91426 37.51407 172.44086 37.8142 172.9595 38.11429 173.47037 38.4144 173.97342 38.7145 174.46895 39.01462 174.95694 39.31476 175.43775 39.61484 175.9109 39.91498 176.37677 40.21506 176.8355 40.5152 177.28714 40.81532 177.73172 41.11542 178.16942 41.41553 178.60022 41.71562 179.0243 42.01575 179.44171 42.31589 179.85247 42.61597 180.2567 42.9161 180.65444 43.21617 181.04586 43.51633 181.43094 43.81644 181.80973 44.11653 182.18239 44.41666 182.54886 44.71675 182.90938 45.01688 183.26387 45.31702 183.61241 45.6171 183.95514 45.91724 184.29203 46.21732 184.6232 46.51744 184.9487 46.81757 185.26851 47.11766 185.58283 47.41779 185.89154 47.71788 186.19484 48.018 186.4927 48.31815 186.78519 48.61823 187.07234 48.91835 187.3542 49.21843 187.63086 49.51857 187.90233 49.8187 188.16863 50.11879 188.42984 50.41891 188.68595 50.71901 188.93706 51.01913 189.18317 51.31926 189.4242 51.61934 189.66043 51.91948 189.89177 52.21957 190.11824 52.5197 190.33992 52.81982 190.55677 53.11992 190.76886 53.42004 190.9762 53.72014 191.17885 54.02026 191.37682 54.3204 191.57009 54.62048 191.75873 54.92061 191.94274 55.22069 192.12218 55.52083 192.29706 55.82095 192.46735 56.12105 192.6331 56.42117 192.79434 56.72127 192.9511 57.0214 193.10337 57.32152 193.25113 57.6216 193.39446 57.92174 193.53333 58.22182 193.6678 58.52196 193.79784 58.82208 193.92343 59.12218 194.04467 59.4223 194.16149 59.72238 194.27393 60.0225 194.382 60.32265 194.48572 60.62273 194.58507 60.92287 194.68007 61.22295 194.77072 61.52309 194.85706 61.82321 194.93903 62.12329 195.01668 62.42343 195.09 62.72353 195.159 63.02364 195.2237 63.32378 195.28404 63.62386 195.3401 63.924 195.39186 64.22408 195.43929 64.5242 195.48242 64.82434 195.52124 65.12444 195.55576 65.42455 195.58596 65.72464 195.61186 66.02477 195.63346 66.3249 195.65074 66.62498 195.66373 66.92513 195.67243 67.2252 195.6768 67.52534 195.67688 67.82545 195.67266 68.12555 195.66413 68.42567 195.65129 68.72577 195.63416 69.0259 195.61273 69.32603 195.58698 69.62611 195.55693 69.92625 195.5226 70.22633 195.48394 70.52646 195.441 70.82658 195.39374 71.12668 195.3422 71.4268 195.28638 71.7269 195.22623 72.02702 195.16179 72.32716 195.0931 72.62724 195.0201 72.92737 194.94283 73.22745 194.86127 73.52759 194.77544 73.82771 194.68535 74.1278 194.59098 74.42793 194.49236 74.72803 194.38948 75.02814 194.28237 75.3283 194.17104 75.62837 194.05545 75.9285 193.93567 76.22858 193.81168 76.52872 193.68346 76.82884 193.55107 77.12894 193.4145 77.42905 193.27379 77.72914 193.12892 78.02928 192.9799 78.3294 192.8268 78.62949 192.66956 78.92963 192.50827 79.2297 192.34288 79.52985 192.17345 79.82997 192.00002 80.13007 191.82256 80.43019 191.64112 80.73027 191.45572 81.0304 191.26636 81.33054 191.07312 81.63062 190.87599 81.93076 190.675 82.23083 190.47019 82.53098 190.26155 82.8311 190.0492 83.13118 189.83309 83.4313 189.6133 83.7314 189.38983 84.03152 189.16283 84.33167 188.93219 84.63174 188.69795 84.93188 188.46027 85.23196 188.21912 85.53209 187.97452 85.83221 187.7266 86.13231 187.47534 86.43243 187.22086 86.73253 186.9631 87.03265 186.70221 87.3328 186.43825 87.63287 186.1712 87.93301 185.90123 88.23308 185.6283 88.53323 185.3525 88.83334 185.07396 89.13344 184.79265 89.43356 184.50875 89.73366 184.22222 90.03378 183.93321 90.33391 183.6418 90.63399 183.34803 90.93414 183.05204 91.23422 182.75383 91.53435 182.45354 91.83447 182.15132 92.13457 181.84716 92.4347 181.54125 92.73479 181.23358 93.03491 180.92433 93.33505 180.61365 93.63513 180.30155 93.93526 179.98822 94.23534 179.6737 94.53548 179.35819 94.8356 179.0418 95.1357 178.72461 95.43582 178.40683 95.73592 178.08849 96.03604 177.7698 96.33617 177.45095 96.63625 177.13198 96.93639 176.81314 97.23647 176.4945 97.5366 176.1763 97.83673 175.85872 98.13683 175.54183 98.43694 175.22595 98.73703 174.91083 99.03716 174.59735 99.3373 174.2854 99.63737 173.97513 99.93752 173.66683 100.2376 173.36066 100.53773 173.05687 100.83784 172.75572 101.13794 172.45737 101.43808 172.16216 101.73817 171.87026 102.03828 171.582 102.33842 171.2977 102.6385 171.01753 102.93864 170.7419 103.23872 170.47101 103.53886 170.20525 103.83899 169.94496 104.13908 169.69045 104.4392 169.44213 104.73929 169.20029 105.03941 168.96537 105.33955 168.73783 105.63963 168.51795 105.93977 168.3063 106.23985 168.10329 106.54 167.9094 106.8401 167.72515 107.1402 167.55101 107.44032 167.38762 107.74042 167.2355 108.04054 167.09528 108.34068 166.96758 108.64076 166.8531 108.9409 166.75258 109.24097 166.66669 109.5411 166.5963 109.84123 166.54224 110.14133 166.50542 110.44145 166.48677 110.74155 166.48737 111.04167 166.50826 111.34181 166.55066 111.64188 166.61582 111.94202 166.70511 112.2421 166.82004 112.54224 166.96222 112.84236 167.1334 113.14246 167.33556 113.44258 167.57074 113.74268 167.8414 114.04279 168.15019 114.34294 168.49994 114.64302 168.89414 114.94315 169.33649 115.24323 169.83145 115.54337 170.38408 115.84349 171.00029 116.14359 171.68737 116.44371 172.45378 116.7438 173.31047 117.04393 174.27083 117.34406 175.35262 117.64413 176.57942 117.94427 177.9848 118.24435 179.62023 118.5445 181.56974 118.84462 183.99507 119.14471 187.30913 119.44484 195.67739 119.74492"/>
</g>
<path transform="matrix(1.00005,0,0,-1.00003,-97.44877,163.19542)" stroke-width=".19925" stroke-linecap="butt" stroke-miterlimit="10" stroke-linejoin="miter" fill="none" stroke="#7f807f" d="M130.92 65.55473V69.80699M260.43479 65.55473V69.80699"/>
<path transform="matrix(1.00005,0,0,-1.00003,-97.44877,163.19542)" stroke-width=".19925" stroke-linecap="butt" stroke-miterlimit="10" stroke-linejoin="miter" fill="none" stroke="#7f807f" d="M193.55139 15.61865H197.80338M193.55139 119.74309H197.80338"/>
<path transform="matrix(1.00005,0,0,-1.00003,-97.44877,163.19542)" stroke-width=".3985" stroke-linecap="butt" stroke-miterlimit="10" stroke-linejoin="miter" fill="none" stroke="#000000" d="M98.5413 67.68088H290.82096"/>
<path transform="matrix(1.00005,0,0,-1.00003,193.38672,95.51251)" d="M1.99252 0-1.19551 1.59401 0 0-1.19551-1.59401"/>
<path transform="matrix(1.00005,0,0,-1.00003,-97.44877,163.19542)" stroke-width=".3985" stroke-linecap="butt" stroke-miterlimit="10" stroke-linejoin="miter" fill="none" stroke="#000000" d="M195.67739 0V159.40033"/>
<path transform="matrix(0,-1.00003,-1.00005,-0,98.238399,3.7902985)" d="M1.99252 0-1.19551 1.59401 0 0-1.19551-1.59401"/>
<use data-text="&#x2212;" xlink:href="#font_2_1" transform="matrix(9.963098,0,0,-9.962899,27.112446,107.57975)"/>
<use data-text="1" xlink:href="#font_3_1" transform="matrix(9.963098,0,0,-9.962899,34.86183,107.57975)"/>
<use data-text="1" xlink:href="#font_3_1" transform="matrix(9.963098,0,0,-9.962899,160.50812,107.57975)"/>
<use data-text="&#x2212;" xlink:href="#font_2_1" transform="matrix(9.963098,0,0,-9.962899,79.86108,150.37104)"/>
<use data-text="1" xlink:href="#font_3_1" transform="matrix(9.963098,0,0,-9.962899,87.61046,150.37104)"/>
<use data-text="1" xlink:href="#font_3_1" transform="matrix(9.963098,0,0,-9.962899,87.61048,46.65892)"/>
<use data-text="x" xlink:href="#font_4_1" transform="matrix(9.963098,0,0,-9.962899,186.1654,91.99229)"/>
<use data-text="y" xlink:href="#font_4_2" transform="matrix(9.963098,0,0,-9.962899,101.75819,9.606812)"/>
</svg>
