<svg xmlns="http://www.w3.org/2000/svg" xmlns:xlink="http://www.w3.org/1999/xlink" xmlns:inkscape="http://www.inkscape.org/namespaces/inkscape" version="1.1" width="208" height="165" viewBox="0 0 208 165">
<defs>
<path id="font_1_1" d="M.2939911 .64004519C.2939911 .66400149 .2939911 .6660156 .2709961 .6660156 .20899964 .60227969 .12098694 .60227969 .08898926 .60227969V.57128909C.10899353 .57128909 .16799927 .57128909 .21998596 .5972748V.07902527C.21998596 .042999269 .21699524 .0309906 .1269989 .0309906H.09498596V0C.12998963 .0029907227 .21699524 .0029907227 .25698854 .0029907227 .29699708 .0029907227 .38398744 .0029907227 .4189911 0V.0309906H.3869934C.29699708 .0309906 .2939911 .041992189 .2939911 .07902527V.64004519Z"/>
<path id="font_1_2" d="M.1269989 .07699585 .23298645 .18003845C.3889923 .31811524 .44898988 .3721466 .44898988 .47216798 .44898988 .5860901 .35899354 .6660156 .23699951 .6660156 .12399292 .6660156 .049987794 .57411196 .049987794 .48516847 .049987794 .4291687 .099990848 .4291687 .102996829 .4291687 .11999512 .4291687 .15499878 .44117738 .15499878 .48217774 .15499878 .5081787 .13699341 .5341797 .101989749 .5341797 .09399414 .5341797 .09199524 .5341797 .08898926 .5331726 .11199951 .59806826 .1659851 .63500979 .22399903 .63500979 .31498719 .63500979 .35798646 .5541382 .35798646 .47216798 .35798646 .39215089 .30799867 .31311036 .25299073 .25108338L.06098938 .036987306C.049987794 .025985718 .049987794 .023986817 .049987794 0H.42099L.44898988 .17404175H.42399598C.4189911 .14402771 .4119873 .1000061 .4019928 .084991458 .394989 .07699585 .32899476 .07699585 .30699159 .07699585H.1269989Z"/>
<path id="font_1_3" d="M.2899933 .35191346C.37199403 .37893678 .42999269 .4490509 .42999269 .52809146 .42999269 .6100464 .34199525 .6660156 .24598694 .6660156 .14498902 .6660156 .068984989 .60606387 .068984989 .53009036 .068984989 .49710084 .09098816 .47808839 .11999512 .47808839 .15098572 .47808839 .17098999 .50009158 .17098999 .5290985 .17098999 .57910159 .12399292 .57910159 .10899353 .57910159 .13999939 .62802127 .20599365 .64100649 .24198914 .64100649 .2829895 .64100649 .33799745 .6190338 .33799745 .5290985 .33799745 .51708987 .33599855 .45906068 .30999757 .4149933 .27999879 .36691285 .24598694 .36390687 .22099304 .36291505 .21299744 .36190797 .18899536 .35990907 .18199158 .35990907 .17399597 .35890199 .16699219 .35791017 .16699219 .3479004 .16699219 .33691407 .17399597 .33691407 .19099427 .33691407H.23498535C.31698609 .33691407 .35398866 .2686615 .35398866 .17037964 .35398866 .034469606 .2849884 .0055389406 .24099732 .0055389406 .19799805 .0055389406 .12298584 .022491456 .08799744 .08137512 .12298584 .07637024 .1539917 .09837341 .1539917 .1363678 .1539917 .17237854 .1269989 .19238281 .09799194 .19238281 .07398987 .19238281 .041992189 .17837525 .041992189 .1343689 .041992189 .043441774 .1349945-.022460938 .24398804-.022460938 .3659973-.022460938 .45700074 .06838989 .45700074 .17037964 .45700074 .252594 .3939972 .33088685 .2899933 .35191346Z"/>
<path id="font_1_4" d="M.2939911 .16503906V.07800293C.2939911 .041992189 .2919922 .0309906 .21798706 .0309906H.19699097V0C.23799134 .0029907227 .2899933 .0029907227 .33198548 .0029907227 .37399293 .0029907227 .4269867 .0029907227 .46798707 0V.0309906H.44699098C.37298585 .0309906 .37098695 .041992189 .37098695 .07800293V.16503906H.47099305V.19602967H.37098695V.65075686C.37098695 .67074587 .37098695 .6767578 .35499574 .6767578 .34599305 .6767578 .34298707 .6767578 .33499146 .66474917L.027999878 .19602967V.16503906H.2939911M.2999878 .19602967H.055999757L.2999878 .5688019V.19602967Z"/>
<path id="font_1_5" d="M.44898988 .20022583C.44898988 .3193512 .36698915 .41944886 .25898744 .41944886 .21099854 .41944886 .16799927 .40345765 .13198853 .36842347V.5637665C.1519928 .5577698 .18499756 .55078127 .21699524 .55078127 .33999635 .55078127 .4099884 .6417694 .4099884 .6547699 .4099884 .6607666 .40699769 .6657715 .3999939 .6657715 .39898683 .6657715 .39698792 .6657715 .3919983 .66278079 .37199403 .6537781 .32299806 .6337738 .2559967 .6337738 .21598816 .6337738 .16999817 .6407776 .12298584 .6617737 .114990238 .66477969 .11299133 .66477969 .11099243 .66477969 .100997928 .66477969 .100997928 .6567688 .100997928 .6407776V.34439088C.100997928 .32637025 .100997928 .31835938 .114990238 .31835938 .12199402 .31835938 .12399292 .32136537 .12799073 .32736207 .13899231 .3433838 .17599488 .39746095 .25698854 .39746095 .30899049 .39746095 .33399964 .35139466 .34199525 .33337403 .35798646 .29632569 .3600006 .25727845 .3600006 .20722962 .3600006 .17222595 .3600006 .11222839 .33599855 .07035828 .31199647 .031463624 .2749939 .0055389406 .22898865 .0055389406 .1559906 .0055389406 .09899902 .058380128 .08198547 .11723328 .084991458 .1162262 .08799744 .115234378 .09899902 .115234378 .13198853 .115234378 .14898682 .14022827 .14898682 .16423035 .14898682 .18823242 .13198853 .21322632 .09899902 .21322632 .084991458 .21322632 .049987794 .20622254 .049987794 .16023255 .049987794 .07434082 .11898804-.022460938 .23098755-.022460938 .34700013-.022460938 .44898988 .073349 .44898988 .20022583Z"/>
<clipPath id="clip_2">
<path transform="matrix(1.00005,0,0,-1.00008,-20.534783,163.19977)" d="M32.3787 0H226.65085V161.39028H32.3787Z"/>
</clipPath>
<path id="font_3_1" d="M.33399964 .30233766C.33999635 .32835389 .36299134 .42037965 .43299867 .42037965 .43798829 .42037965 .46199037 .42037965 .48298646 .40734864 .45498658 .402359 .43499757 .37734986 .43499757 .35334779 .43499757 .33735658 .44599916 .31835938 .47299195 .31835938 .49499513 .31835938 .5269928 .3363495 .5269928 .37635804 .5269928 .42837525 .46798707 .4423828 .43399049 .4423828 .37599183 .4423828 .34098817 .38935853 .32899476 .36634828 .3039856 .43237306 .25 .4423828 .22099304 .4423828 .116989139 .4423828 .05999756 .3133545 .05999756 .28834535 .05999756 .27833558 .069992069 .27833558 .07199097 .27833558 .07998657 .27833558 .08299255 .28033448 .084991458 .28933717 .11898804 .39535523 .18499756 .42037965 .21899414 .42037965 .23799134 .42037965 .272995 .4113617 .272995 .35334779 .272995 .32235719 .2559967 .25532533 .21899414 .11528015 .20298767 .053268434 .16799927 .011245728 .12399292 .011245728 .117996219 .011245728 .09498596 .011245728 .07398987 .024276734 .09899902 .029266358 .12098694 .05027771 .12098694 .07827759 .12098694 .105270389 .09899902 .11328125 .083999637 .11328125 .053985597 .11328125 .0289917 .08728027 .0289917 .055267335 .0289917 .009246826 .07899475-.0107421879 .12298584-.0107421879 .18899536-.0107421879 .22499085 .059280397 .22799683 .0652771 .23999024 .028274537 .27598573-.0107421879 .33599855-.0107421879 .43899537-.0107421879 .49598695 .118270877 .49598695 .14328003 .49598695 .1532898 .4869995 .1532898 .48399354 .1532898 .47499085 .1532898 .47299195 .14929199 .47099305 .14228821 .43798829 .03527832 .36999513 .011245728 .33799745 .011245728 .29899598 .011245728 .2829895 .043273927 .2829895 .07727051 .2829895 .09927368 .2889862 .121276859 .2999878 .16529846L.33399964 .30233766Z"/>
<path id="font_3_2" d="M.48599244 .38136292C.48999024 .39537049 .48999024 .39736939 .48999024 .40437318 .48999024 .42237855 .47599793 .43138124 .46099855 .43138124 .45098878 .43138124 .43499757 .42536927 .42599488 .41036988 .42399598 .405365 .41600038 .37435914 .4119873 .35635377 .40499879 .33035279 .397995 .30334474 .3919983 .27633668L.34700013 .09628296C.34298707 .08126831 .2999878 .011245728 .23399353 .011245728 .18299866 .011245728 .17199707 .055267335 .17199707 .0922699 .17199707 .1382904 .18899536 .20030213 .22299195 .28833009 .23899842 .3293457 .24299622 .3403473 .24299622 .36035157 .24299622 .405365 .21099854 .4423828 .16099549 .4423828 .06599426 .4423828 .0289917 .29733277 .0289917 .28833009 .0289917 .27833558 .038986207 .27833558 .040985109 .27833558 .050994874 .27833558 .051986696 .28033448 .056991579 .29634095 .083999637 .3903656 .12399292 .42037965 .1579895 .42037965 .1659851 .42037965 .18299866 .42037965 .18299866 .3883667 .18299866 .36335755 .17298889 .3373413 .1659851 .31834413 .12599182 .21231079 .10798645 .1552887 .10798645 .10827637 .10798645 .019256592 .17098999-.0107421879 .22999573-.0107421879 .2689972-.0107421879 .30299378 .0062561037 .33099366 .03425598 .31799317-.017745972 .30599977-.06674194 .2659912-.11973572 .23999024-.15385437 .20199585-.18309021 .1559906-.18309021 .14199829-.18309021 .09700012-.18005371 .07998657-.14074707 .09599304-.14074707 .10899353-.14074707 .12298584-.1287384 .1329956-.11973572 .14299011-.10673523 .14299011-.08773804 .14299011-.056747438 .115997318-.052734376 .10598755-.052734376 .08299255-.052734376 .049987794-.068740848 .049987794-.11773682 .049987794-.16796875 .09399414-.20507813 .1559906-.20507813 .25898744-.20507813 .3619995-.11373901 .3899994-.00074768069L.48599244 .38136292Z"/>
</defs>
<path transform="matrix(1.00005,0,0,-1.00008,-20.534783,163.19977)" stroke-width=".19925" stroke-linecap="butt" stroke-miterlimit="10" stroke-linejoin="miter" fill="none" stroke="#7f807f" d="M86.32158 12.03172V14.86664M107.8858 12.03172V14.86664M151.07897 12.03172V14.86664M172.64319 12.03172V14.86664"/>
<path transform="matrix(1.00005,0,0,-1.00008,-20.534783,163.19977)" stroke-width=".19925" stroke-linecap="butt" stroke-miterlimit="10" stroke-linejoin="miter" fill="none" stroke="#7f807f" d="M64.75739 11.3232V15.57515M129.51477 11.3232V15.57515M194.27216 11.3232V15.57515"/>
<path transform="matrix(1.00005,0,0,-1.00008,-20.534783,163.19977)" stroke-width=".19925" stroke-linecap="butt" stroke-miterlimit="10" stroke-linejoin="miter" fill="none" stroke="#7f807f" d="M30.96123 26.89838H33.79614M30.96123 53.79675H33.79614M30.96123 80.69513H33.79614M30.96123 107.59352H33.79614M30.96123 134.4919H33.79614"/>
<path transform="matrix(1.00005,0,0,-1.00008,-20.534783,163.19977)" stroke-width=".19925" stroke-linecap="butt" stroke-miterlimit="10" stroke-linejoin="miter" fill="none" stroke="#7f807f" d="M30.25269 40.34756H34.50467M30.25269 67.24594H34.50467M30.25269 94.14432H34.50467M30.25269 121.04271H34.50467M30.25269 147.94109H34.50467"/>
<path transform="matrix(1.00005,0,0,-1.00008,-20.534783,163.19977)" stroke-width=".3985" stroke-linecap="butt" stroke-miterlimit="10" stroke-linejoin="miter" fill="none" stroke="#000000" d="M32.3787 13.44919H224.65833"/>
<path transform="matrix(1.00005,0,0,-1.00008,204.13477,149.7495)" d="M1.99252 0-1.19551 1.59401 0 0-1.19551-1.59401"/>
<path transform="matrix(1.00005,0,0,-1.00008,-20.534783,163.19977)" stroke-width=".3985" stroke-linecap="butt" stroke-miterlimit="10" stroke-linejoin="miter" fill="none" stroke="#000000" d="M32.3787 0V159.39775"/>
<path transform="matrix(0,-1.00008,-1.00005,-0,11.845535,3.7892609)" d="M1.99252 0-1.19551 1.59401 0 0-1.19551-1.59401"/>
<use data-text="1" xlink:href="#font_1_1" transform="matrix(9.963098,0,0,-9.963397,41.735326,161.81665)"/>
<use data-text="2" xlink:href="#font_1_2" transform="matrix(9.963098,0,0,-9.963397,106.49557,161.81665)"/>
<use data-text="3" xlink:href="#font_1_3" transform="matrix(9.963098,0,0,-9.963397,171.2558,161.81665)"/>
<use data-text="1" xlink:href="#font_1_1" transform="matrix(9.963098,0,0,-9.963397,1.217308,126.0598)"/>
<use data-text="2" xlink:href="#font_1_2" transform="matrix(9.963098,0,0,-9.963397,1.217308,99.158649)"/>
<use data-text="3" xlink:href="#font_1_3" transform="matrix(9.963098,0,0,-9.963397,1.217308,72.2585)"/>
<use data-text="4" xlink:href="#font_1_4" transform="matrix(9.963098,0,0,-9.963397,1.217308,45.358346)"/>
<use data-text="5" xlink:href="#font_1_5" transform="matrix(9.963098,0,0,-9.963397,1.217308,18.457184)"/>
<g clip-path="url(#clip_2)">
<path transform="matrix(1.00005,0,0,-1.00008,-20.534783,163.19977)" d="M64.75739 89.52812 65.40817 89.8143 66.05899 90.09947 66.7098 90.3835 67.36061 90.66652 68.01143 90.94849 68.66223 91.22945 69.31305 91.50943 69.96387 91.78836 70.61467 92.0663 71.2655 92.34332 71.91629 92.6193 72.56711 92.89435 73.21793 93.16844 73.86873 93.4416 74.51955 93.71387 75.17035 93.98515 75.82117 94.25554 76.47198 94.52509 77.12279 94.79366 77.77362 95.06137 78.42441 95.32822 79.07523 95.59422 79.72606 95.85933 80.37685 96.12361 81.02766 96.38702 81.67847 96.64966 82.32928 96.9114 82.9801 97.17235 83.6309 97.43248 84.28174 97.69185 84.93254 97.95032 85.58334 98.20811 86.23418 98.46506 86.88496 98.72255 87.53578 98.97798 88.1866 99.23262 88.8374 99.48657 89.48822 99.73975 90.13902 99.99216 90.78986 100.24388 91.44066 100.49483 92.09146 100.74507 92.7423 100.99461 93.39308 101.24342 94.0439 101.49156 94.69473 101.73897 95.34552 101.98567 95.99634 102.23178 96.64714 102.47711 97.29797 102.72183 97.94878 102.96584 98.59958 103.20917 99.25041 103.4519 99.90121 103.69394 100.55202 103.93533 101.20285 104.1761 101.85364 104.41623 102.50446 104.65569 103.15527 104.89458 103.80609 105.13278 104.4569 105.37044 105.1077 105.60744 105.75853 105.84381 106.40933 106.07964 107.06013 106.31482 107.71097 106.54941 108.36176 106.78346 109.01257 107.01686 109.6634 107.24976 110.31421 107.482 110.96501 107.71368 111.61581 107.94485 112.26665 108.1754 112.91745 108.40538 113.56825 108.63489 114.21909 108.86375 114.86989 109.0921 115.52069 109.31993 116.17152 109.5472 116.82233 109.77393 117.47313 110.0001 118.12395 110.22578 118.77477 110.45096 119.42557 110.67555 120.07637 110.89964 120.7272 111.12328 121.378 111.34633 122.02881 111.56892 122.67964 111.791 123.33044 112.01253 123.98125 112.23364 124.63208 112.45421 125.28288 112.67429 125.93369 112.8939 126.58449 113.11304 127.23532 113.33168 127.88612 113.54984 128.53693 113.76749 129.18776 113.98473 129.83856 114.20146 130.48941 114.41776 131.14017 114.63356 131.79102 114.84892 132.44178 115.0638 133.09262 115.27829 133.74347 115.4923 134.39423 115.70583 135.04508 115.91895 135.69583 116.13159 136.3467 116.34386 136.99753 116.55562 137.64829 116.76695 138.29914 116.97789 138.94989 117.18839 139.60076 117.39845 140.25159 117.6081 140.90235 117.81732 141.55319 118.02612 142.20395 118.2345 142.85482 118.44246 143.50565 118.65004 144.1564 118.85718 144.80725 119.06393 145.45801 119.27026 146.10887 119.47621 146.7597 119.68178 147.41046 119.8869 148.06133 120.09166 148.71207 120.296 149.36293 120.5 150.01377 120.7036 150.66452 120.90678 151.31539 121.10956 151.96613 121.31201 152.61699 121.51405 153.26782 121.71574 153.91858 121.917 154.56945 122.11795 155.22019 122.31851 155.87105 122.5187 156.52188 122.71854 157.17264 122.91797 157.8235 123.11708 158.47425 123.3158 159.1251 123.51418 159.77594 123.7122 160.4267 123.90985 161.07756 124.10718 161.7283 124.30412 162.37917 124.50073 163.03002 124.69698 163.68076 124.89288 164.33162 125.08849 164.98236 125.28366 165.63323 125.47856 166.28408 125.67316 166.93482 125.86736 167.58568 126.06123 168.23642 126.25475 168.88729 126.44798 169.53813 126.64087 170.18888 126.83342 170.83974 127.02567 171.49048 127.21754 172.14134 127.40913 172.79219 127.60042 173.44293 127.7913 174.0938 127.98193 174.74454 128.17226 175.3954 128.36226 176.04625 128.55196 176.69699 128.74129 177.34786 128.93036 177.99861 129.11908 178.64946 129.30753 179.30031 129.49564 179.95105 129.68347 180.60192 129.87102 181.25267 130.05823 181.90352 130.24518 182.55437 130.43177 183.20511 130.6181 183.85597 130.80416 184.50673 130.98986 185.15758 131.1753 185.80844 131.36046 186.45917 131.5453 187.11003 131.7299 187.76079 131.91414 188.41164 132.09815 189.06249 132.28189 189.71324 132.4653 190.36409 132.64849 191.01485 132.8313 191.6657 133.0139 192.31656 133.19622 192.9673 133.37825 193.61815 133.56 194.2689 133.74149V13.44919H64.75739Z" fill="#80ff80" fill-opacity=".6"/>
<path transform="matrix(1.00005,0,0,-1.00008,-20.534783,163.19977)" stroke-width="1.59404" stroke-linecap="butt" stroke-miterlimit="10" stroke-linejoin="miter" fill="none" stroke="#0000ff" d="M0 51.48865C0 51.48865 .75235 52.14664 1.0413 52.39539 1.33028 52.64413 1.79369 53.03828 2.08264 53.28148 2.37161 53.52469 2.83502 53.91026 3.12398 54.14828 3.41295 54.3863 3.87636 54.76387 4.16531 54.99702 4.45428 55.23018 4.91768 55.6002 5.20663 55.82878 5.4956 56.05736 5.95901 56.42024 6.24797 56.64449 6.53694 56.86873 7.00034 57.2249 7.28929 57.44508 7.57825 57.66525 8.04169 58.01509 8.33064 58.2314 8.6196 58.44771 9.08301 58.79149 9.37196 59.00412 9.66092 59.21675 10.12434 59.55482 10.4133 59.76396 10.70226 59.97308 11.16566 60.30568 11.45462 60.5115 11.74358 60.71732 12.207 61.04477 12.49596 61.2474 12.78491 61.45006 13.24834 61.77249 13.5373 61.9721 13.82625 62.17172 14.28967 62.48943 14.57863 62.68616 14.86758 62.88289 15.33101 63.19604 15.61996 63.39 15.90892 63.58394 16.37233 63.89276 16.66129 64.08406 16.95024 64.27534 17.41367 64.58 17.70262 64.76875 17.99158 64.9575 18.455 65.25815 18.74396 65.44441 19.03291 65.63069 19.49634 65.92744 19.7853 66.11136 20.07425 66.29527 20.53766 66.58836 20.82661 66.77002 21.11557 66.95166 21.579 67.24115 21.86795 67.42061 22.1569 67.60007 22.62032 67.88618 22.90927 68.06354 23.19823 68.24088 23.66165 68.52356 23.95062 68.69887 24.23958 68.87418 24.70297 69.15373 24.99194 69.32706 25.2809 69.5004 25.74431 69.77676 26.03328 69.9482 26.32224 70.11963 26.78564 70.39305 27.07462 70.56264 27.36357 70.73221 27.82697 71.00269 28.11594 71.17049 28.40489 71.33829 28.8683 71.606 29.15727 71.77208 29.44623 71.93814 29.90964 72.20305 30.19861 72.36745 30.48756 72.53185 30.95097 72.79414 31.23993 72.95691 31.5289 73.11969 31.9923 73.3794 32.28125 73.54057 32.57022 73.70174 33.03363 73.95897 33.32259 74.1186 33.61156 74.27824 34.07497 74.53307 34.36392 74.69122 34.6529 74.84937 35.1163 75.10179 35.40526 75.25848 35.69423 75.41516 36.15762 75.66531 36.44658 75.8206 36.73555 75.97589 37.19896 76.22383 37.48792 76.37775 37.77687 76.53165 38.2403 76.77737 38.52925 76.92993 38.8182 77.0825 39.28163 77.32617 39.57059 77.47743 39.85954 77.6287 40.32295 77.87022 40.61191 78.0202 40.90086 78.1702 41.36429 78.40976 41.65324 78.55852 41.9422 78.70726 42.40562 78.94481 42.69458 79.09236 42.98354 79.23991 43.44695 79.4756 43.7359 79.62196 44.02486 79.76833 44.48828 80.0021 44.77724 80.14731 45.0662 80.29253 45.52962 80.52449 45.81857 80.66858 46.10753 80.81267 46.57095 81.04286 46.85991 81.18584 47.14886 81.32881 47.61227 81.55722 47.90123 81.69913 48.19019 81.84105 48.65361 82.06778 48.94257 82.20865 49.23152 82.3495 49.69495 82.57455 49.9839 82.71439 50.27286 82.85422 50.73628 83.07765 51.02524 83.21648 51.3142 83.3553 51.7776 83.57712 52.06656 83.71497 52.35551 83.8528 52.81894 84.07307 53.1079 84.20993 53.39685 84.3468 53.86026 84.56555 54.14923 84.70148 54.43819 84.8374 54.9016 85.05466 55.19057 85.18967 55.47952 85.32466 55.94292 85.54047 56.23189 85.67456 56.52084 85.80865 56.98425 86.02298 57.27322 86.1562 57.56218 86.28941 58.02559 86.50237 58.31456 86.6347 58.60352 86.76703 59.06691 86.97855 59.35588 87.11003 59.64484 87.24152 60.10825 87.4517 60.39722 87.58235 60.68617 87.713 61.14958 87.92184 61.43854 88.05168 61.72751 88.1815 62.19092 88.38905 62.47987 88.51805 62.76884 88.64706 63.23224 88.85332 63.5212 88.98155 63.81017 89.10977 64.27357 89.3148 64.56253 89.44226 64.8515 89.56972 65.31491 89.77351 65.60387 89.90019 65.89284 90.02687 66.35625 90.22939 66.6452 90.35532 66.93417 90.48126 67.39757 90.68266 67.68652 90.80788 67.97548 90.93307 68.4389 91.13324 68.72786 91.2577 69.01682 91.38219 69.48024 91.58128 69.7692 91.70505 70.05815 91.82881 70.52158 92.02669 70.81053 92.14975 71.09949 92.27281 71.5629 92.46964 71.85185 92.59201 72.14081 92.71439 72.60423 92.9101 72.89319 93.0318 73.18214 93.1535 73.64557 93.34814 73.93452 93.4692 74.22348 93.59023 74.68689 93.7838 74.97585 93.90416 75.2648 94.02454 75.72824 94.21707 76.0172 94.33679 76.30615 94.45653 76.76956 94.64806 77.05852 94.76715 77.34747 94.88625 77.8109 95.07675 78.09985 95.19524 78.38881 95.31372 78.85222 95.5033 79.14117 95.62115 79.43013 95.73901 79.89355 95.92755 80.18251 96.0448 80.47147 96.16205 80.93489 96.34962 81.22385 96.4663 81.5128 96.58295 81.97623 96.76958 82.26518 96.88567 82.55414 97.00175 83.01755 97.18747 83.3065 97.30296 83.59546 97.41846 84.05887 97.60318 84.34784 97.71811 84.6368 97.83304 85.1002 98.01675 85.38918 98.1313 85.67813 98.24585 86.14154 98.42973 86.43051 98.54372 86.71947 98.6577 87.18288 98.83965 87.47185 98.95291 87.7608 99.06618 88.2242 99.24742 88.51317 99.36015 88.80212 99.47289 89.26553 99.65327 89.5545 99.76549 89.84346 99.87769 90.30685 100.05722 90.59583 100.16891 90.88478 100.28061 91.3482 100.4593 91.63716 100.57048 91.92613 100.68164 92.38953 100.85953 92.67848 100.97018 92.96745 101.08084 93.43086 101.25793 93.71982 101.36809 94.00879 101.47824 94.47218 101.6545 94.76114 101.76416 95.05011 101.87383 95.51352 102.04935 95.80247 102.15854 96.09145 102.26772 96.55486 102.44241 96.84381 102.55112 97.13278 102.6598 97.59619 102.83377 97.88515 102.942 98.1741 103.05022 98.63751 103.22342 98.92647 103.33116 99.21542 103.43892 99.67885 103.61137 99.9678 103.71867 100.25676 103.82596 100.72018 103.99765 101.00914 104.10449 101.2981 104.21133 101.76152 104.38232 102.05048 104.48871 102.33943 104.5951 102.80286 104.76534 103.09181 104.87128 103.38077 104.97722 103.84418 105.1468 104.13313 105.2523 104.42209 105.3578 104.88557 105.52667 105.17453 105.63173 105.46349 105.73679 105.9268 105.90494 106.21576 106.00957 106.50471 106.11421 106.9682 106.2817 107.25716 106.3859 107.54611 106.49011 108.00945 106.65688 108.2984 106.76068 108.58736 106.86447 109.05083 107.03062 109.3398 107.13402 109.62877 107.23741 110.09222 107.40291 110.38118 107.50587 110.67014 107.60884 111.13347 107.7736 111.42242 107.87617 111.71138 107.97874 112.17487 108.14294 112.46382 108.24512 112.75278 108.34729 113.2161 108.5108 113.50505 108.61258 113.794 108.71436 114.25748 108.87729 114.54646 108.97868 114.83543 109.08008 115.29887 109.24239 115.58784 109.34338 115.8768 109.44438 116.34012 109.60605 116.62909 109.70665 116.91805 109.80725 117.3815 109.96835 117.67047 110.06859 117.95943 110.16884 118.42274 110.3293 118.71172 110.42915 119.00067 110.52902 119.46413 110.68892 119.75311 110.78842 120.04208 110.88792 120.50554 111.04723 120.7945 111.14635 121.08347 111.24548 121.54677 111.40414 121.83572 111.50291 122.1247 111.60168 122.58817 111.75987 122.87712 111.85829 123.16609 111.95671 123.62941 112.11423 123.91837 112.21228 124.20734 112.31033 124.67079 112.46736 124.95976 112.56508 125.24875 112.6628 125.71219 112.81926 126.00114 112.91663 126.29012 113.01399 126.75343 113.16988 127.04239 113.26689 127.33136 113.3639 127.79483 113.51929 128.08379 113.61598 128.37274 113.71266 128.83606 113.86748 129.12502 113.96382 129.41397 114.06018 129.87746 114.21446 130.16643 114.3105 130.4554 114.40652 130.91886 114.56027 131.20781 114.65598 131.49677 114.75166 131.9601 114.90486 132.24906 115.00024 132.53801 115.09561 133.00148 115.24835 133.29044 115.3434 133.57939 115.43843 134.04273 115.59055 134.33168 115.68529 134.62064 115.78003 135.0841 115.93176 135.37308 116.0262 135.66205 116.12064 136.12552 116.2718 136.41448 116.3659 136.70343 116.46 137.16677 116.61064 137.45572 116.70444 137.74468 116.79823 138.20815 116.94844 138.4971 117.04195 138.78606 117.13544 139.24939 117.28514 139.53835 117.37833 139.8273 117.47151 140.29077 117.62074 140.57975 117.71364 140.86872 117.80653 141.33217 117.95529 141.62113 118.04788 141.91008 118.14047 142.37342 118.28873 142.66237 118.38103 142.95133 118.47331 143.41481 118.62114 143.70377 118.71313 143.99272 118.80515 144.45604 118.9525 144.745 119.0442 145.03395 119.13593 145.49742 119.2828 145.7864 119.37424 146.07538 119.46568 146.53882 119.6121 146.82779 119.70326 147.11675 119.7944 147.58007 119.94035 147.86904 120.0312 148.15799 120.12207 148.62145 120.26765 148.91042 120.35823 149.19937 120.44882 149.66269 120.59386 149.95166 120.68417 150.24062 120.77448 150.70407 120.91913 150.99306 121.00919 151.28203 121.09924 151.74549 121.2435 152.03444 121.33327 152.32341 121.42303 152.78673 121.56676 153.07569 121.65625 153.36466 121.74576 153.82811 121.88908 154.11707 121.97833 154.40604 122.06757 154.86936 122.21046 155.15831 122.29944 155.44728 122.38841 155.91074 122.53094 156.1997 122.61966 156.4887 122.70839 156.95215 122.85046 157.2411 122.93892 157.53008 123.02739 157.99338 123.16904 158.28234 123.25723 158.5713 123.34544 159.03478 123.4867 159.32373 123.57465 159.61269 123.66258 160.07602 123.8034 160.36498 123.8911 160.65393 123.9788 161.1174 124.11926 161.40637 124.20673 161.69535 124.29417 162.1588 124.43425 162.44776 124.52144 162.73671 124.60861 163.20005 124.74825 163.489 124.83519 163.77796 124.92213 164.24143 125.0614 164.53038 125.14812 164.81934 125.23483 165.28267 125.3737 165.57163 125.46017 165.86058 125.54665 166.32405 125.68513 166.61302 125.77136 166.902 125.85757 167.36547 125.9957 167.65442 126.08168 167.94338 126.16766 168.40671 126.30539 168.69567 126.39114 168.98462 126.4769 169.44809 126.61426 169.73705 126.69977 170.026 126.78528 170.48934 126.92224 170.77829 127.00752 171.06725 127.0928 171.53072 127.22945 171.81969 127.3145 172.10866 127.39955 172.57213 127.53581 172.86109 127.62065 173.15004 127.70547 173.61336 127.84134 173.90232 127.92593 174.19127 128.01053 174.65474 128.14606 174.94371 128.23043 175.23267 128.3148 175.69599 128.44994 175.98496 128.53409 176.27391 128.61824 176.73737 128.75305 177.02635 128.83699 177.31533 128.92092 177.77877 129.05536 178.06774 129.13909 178.35669 129.2228 178.82 129.35689 179.10898 129.4404 179.39794 129.52391 179.8614 129.65766 180.15038 129.74092 180.43933 129.8242 180.90264 129.9576 181.1916 130.04067 181.48056 130.12374 181.94402 130.25679 182.23299 130.33966 182.52198 130.42252 182.98543 130.55529 183.27439 130.63793 183.56336 130.72055 184.02667 130.85294 184.31563 130.93537 184.6046 131.01779 185.06806 131.14984 185.35701 131.23207 185.64598 131.3143 186.1093 131.446 186.39826 131.52802 186.68723 131.61003 187.15068 131.74146 187.43965 131.82328 187.72864 131.90509 188.1921 132.03618 188.48105 132.11779 188.77 132.19939 189.23332 132.3301 189.52228 132.4115 189.81124 132.4929 190.27472 132.62335 190.56368 132.70458 190.85263 132.78578 191.31597 132.91587 191.60492 132.99687 191.89388 133.07788 192.35735 133.20766 192.64632 133.28849 192.93529 133.3693 193.39875 133.4988 193.6877 133.5794 193.97666 133.66004 194.43999 133.78917 194.72895 133.86959 195.0179 133.95001 195.48139 134.07888 195.77034 134.1591 196.0593 134.23935 196.52262 134.36788 196.81157 134.44792 197.10053 134.52796 197.564 134.65619 197.85297 134.73604 198.14194 134.81589 198.60541 134.94382 198.89437 135.02349 199.18332 135.10314 199.64665 135.23075 199.93561 135.31021 200.22457 135.3897 200.68804 135.51705 200.97699 135.59633 201.26595 135.67563 201.72928 135.80265 202.01824 135.88173 202.30719 135.96083 202.77066 136.08754 203.05963 136.16648 203.3486 136.24539 203.81208 136.37187 204.10103 136.45063 204.38999 136.52938 204.8533 136.65549 205.14226 136.73404 205.43122 136.81258 205.89469 136.93843 206.18366 137.0168 206.47261 137.09519 207.2249 137.29895 207.2249 137.29895"/>
<path transform="matrix(1.00005,0,0,-1.00008,-20.534783,163.19977)" stroke-width=".3985" stroke-linecap="butt" stroke-dasharray="2.98883,2.98883" stroke-miterlimit="10" stroke-linejoin="miter" fill="none" stroke="#000000" d="M64.75739 13.44919V89.52812"/>
<path transform="matrix(1.00005,0,0,-1.00008,-20.534783,163.19977)" stroke-width=".3985" stroke-linecap="butt" stroke-dasharray="2.98883,2.98883" stroke-miterlimit="10" stroke-linejoin="miter" fill="none" stroke="#000000" d="M194.27216 13.44919V133.74236"/>
</g>
<use data-text="x" xlink:href="#font_3_1" transform="matrix(9.963098,0,0,-9.963397,196.91309,146.22942)"/>
<use data-text="y" xlink:href="#font_3_2" transform="matrix(9.963098,0,0,-9.963397,15.366009,9.606491)"/>
</svg>
