<svg xmlns="http://www.w3.org/2000/svg" xmlns:xlink="http://www.w3.org/1999/xlink" xmlns:inkscape="http://www.inkscape.org/namespaces/inkscape" version="1.1" width="197" height="170" viewBox="0 0 197 170">
<defs>
<path id="font_1_2" d="M.2939911 .64004519C.2939911 .66400149 .2939911 .6660156 .2709961 .6660156 .20899964 .60227969 .12098694 .60227969 .08898926 .60227969V.57128909C.10899353 .57128909 .16799927 .57128909 .21998596 .5972748V.07902527C.21998596 .042999269 .21699524 .0309906 .1269989 .0309906H.09498596V0C.12998963 .0029907227 .21699524 .0029907227 .25698854 .0029907227 .29699708 .0029907227 .38398744 .0029907227 .4189911 0V.0309906H.3869934C.29699708 .0309906 .2939911 .041992189 .2939911 .07902527V.64004519Z"/>
<path id="font_1_3" d="M.1269989 .07699585 .23298645 .18003845C.3889923 .31811524 .44898988 .3721466 .44898988 .47216798 .44898988 .5860901 .35899354 .6660156 .23699951 .6660156 .12399292 .6660156 .049987794 .57411196 .049987794 .48516847 .049987794 .4291687 .099990848 .4291687 .102996829 .4291687 .11999512 .4291687 .15499878 .44117738 .15499878 .48217774 .15499878 .5081787 .13699341 .5341797 .101989749 .5341797 .09399414 .5341797 .09199524 .5341797 .08898926 .5331726 .11199951 .59806826 .1659851 .63500979 .22399903 .63500979 .31498719 .63500979 .35798646 .5541382 .35798646 .47216798 .35798646 .39215089 .30799867 .31311036 .25299073 .25108338L.06098938 .036987306C.049987794 .025985718 .049987794 .023986817 .049987794 0H.42099L.44898988 .17404175H.42399598C.4189911 .14402771 .4119873 .1000061 .4019928 .084991458 .394989 .07699585 .32899476 .07699585 .30699159 .07699585H.1269989Z"/>
<path id="font_1_4" d="M.2899933 .35191346C.37199403 .37893678 .42999269 .4490509 .42999269 .52809146 .42999269 .6100464 .34199525 .6660156 .24598694 .6660156 .14498902 .6660156 .068984989 .60606387 .068984989 .53009036 .068984989 .49710084 .09098816 .47808839 .11999512 .47808839 .15098572 .47808839 .17098999 .50009158 .17098999 .5290985 .17098999 .57910159 .12399292 .57910159 .10899353 .57910159 .13999939 .62802127 .20599365 .64100649 .24198914 .64100649 .2829895 .64100649 .33799745 .6190338 .33799745 .5290985 .33799745 .51708987 .33599855 .45906068 .30999757 .4149933 .27999879 .36691285 .24598694 .36390687 .22099304 .36291505 .21299744 .36190797 .18899536 .35990907 .18199158 .35990907 .17399597 .35890199 .16699219 .35791017 .16699219 .3479004 .16699219 .33691407 .17399597 .33691407 .19099427 .33691407H.23498535C.31698609 .33691407 .35398866 .2686615 .35398866 .17037964 .35398866 .034469606 .2849884 .0055389406 .24099732 .0055389406 .19799805 .0055389406 .12298584 .022491456 .08799744 .08137512 .12298584 .07637024 .1539917 .09837341 .1539917 .1363678 .1539917 .17237854 .1269989 .19238281 .09799194 .19238281 .07398987 .19238281 .041992189 .17837525 .041992189 .1343689 .041992189 .043441774 .1349945-.022460938 .24398804-.022460938 .3659973-.022460938 .45700074 .06838989 .45700074 .17037964 .45700074 .252594 .3939972 .33088685 .2899933 .35191346Z"/>
<path id="font_1_5" d="M.2939911 .16503906V.07800293C.2939911 .041992189 .2919922 .0309906 .21798706 .0309906H.19699097V0C.23799134 .0029907227 .2899933 .0029907227 .33198548 .0029907227 .37399293 .0029907227 .4269867 .0029907227 .46798707 0V.0309906H.44699098C.37298585 .0309906 .37098695 .041992189 .37098695 .07800293V.16503906H.47099305V.19602967H.37098695V.65075686C.37098695 .67074587 .37098695 .6767578 .35499574 .6767578 .34599305 .6767578 .34298707 .6767578 .33499146 .66474917L.027999878 .19602967V.16503906H.2939911M.2999878 .19602967H.055999757L.2999878 .5688019V.19602967Z"/>
<path id="font_1_6" d="M.13198853 .327713V.35173036C.13198853 .6047821 .2559967 .64100649 .30699159 .64100649 .33099366 .64100649 .37298585 .634964 .394989 .6007538 .37998963 .6007538 .33999635 .6007538 .33999635 .5557556 .33999635 .524765 .3639984 .5097656 .38598634 .5097656 .4019928 .5097656 .43199159 .51875308 .43199159 .5577545 .43199159 .6178589 .3880005 .6660156 .30499269 .6660156 .1769867 .6660156 .041992189 .5367584 .041992189 .31570436 .041992189 .048553468 .1579895-.022460938 .25099183-.022460938 .3619995-.022460938 .45700074 .07156372 .45700074 .2036438 .45700074 .33070375 .36799623 .4267578 .25698854 .4267578 .18899536 .4267578 .1519928 .37573243 .13198853 .327713M.25099183 .0055389406C.18798828 .0055389406 .1579895 .06556702 .1519928 .080566409 .13398743 .127594 .13398743 .2076416 .13398743 .22564698 .13398743 .30369569 .1659851 .40374757 .2559967 .40374757 .27198792 .40374757 .31799317 .40374757 .34899903 .34172059 .36698915 .30470277 .36698915 .2536621 .36698915 .20463562 .36698915 .15661621 .36698915 .10658264 .34999085 .0705719 .31999208 .010528564 .27398683 .0055389406 .25099183 .0055389406Z"/>
<path id="font_1_7" d="M.16299439 .4569702C.116989139 .486969 .11299133 .52098086 .11299133 .5379791 .11299133 .598999 .17799378 .64100649 .24899292 .64100649 .32199098 .64100649 .38598634 .58898928 .38598634 .51698306 .38598634 .45996095 .34700013 .4119568 .2869873 .37695313L.16299439 .4569702M.30899049 .36193849C.3809967 .3989563 .42999269 .45095826 .42999269 .51698306 .42999269 .6090088 .34098817 .6660156 .25 .6660156 .1499939 .6660156 .068984989 .59199526 .068984989 .49897767 .068984989 .4809723 .070999149 .43595887 .11299133 .38894654 .12399292 .37695313 .16099549 .35194398 .18598938 .33494569 .12799073 .30592347 .041992189 .24984741 .041992189 .15072632 .041992189 .04458618 .14399719-.022460938 .24899292-.022460938 .3619995-.022460938 .45700074 .06060791 .45700074 .16773987 .45700074 .20379639 .44599916 .24885559 .4079895 .2909088 .3889923 .31193543 .37298585 .3219452 .30899049 .36193849M.20899964 .3199463 .33198548 .24183655C.3600006 .2228241 .40699769 .19277954 .40699769 .13169861 .40699769 .05760193 .33198548 .0055389406 .25 .0055389406 .1639862 .0055389406 .09199524 .067611698 .09199524 .15072632 .09199524 .20880127 .12399292 .27288819 .20899964 .3199463Z"/>
<path id="font_1_1" d="M.45999146 .31976319C.45999146 .39982606 .45498658 .47988893 .41999818 .5539398 .37399293 .65000918 .2919922 .6660156 .25 .6660156 .18998719 .6660156 .116989139 .64001467 .07598877 .54693606 .04399109 .47789 .038986207 .39982606 .038986207 .31976319 .038986207 .24472046 .042999269 .15464783 .083999637 .07859802 .1269989-.0024719239 .19999695-.022460938 .24899292-.022460938 .30299378-.022460938 .3789978-.0014648438 .4229889 .09359741 .45498658 .16265869 .45999146 .2407074 .45999146 .31976319M.24899292-.00047302247C.20999146-.00047302247 .15098572 .024551392 .1329956 .12062073 .12199402 .18066406 .12199402 .2727356 .12199402 .3317871 .12199402 .39582826 .12199402 .46188355 .12998963 .5159149 .14898682 .63500979 .22399903 .64401248 .24899292 .64401248 .28199769 .64401248 .34799195 .6259918 .36698915 .52693179 .3769989 .47088624 .3769989 .39482118 .3769989 .3317871 .3769989 .25672914 .3769989 .18867493 .3659973 .12461853 .35099793 .029556275 .2939911-.00047302247 .24899292-.00047302247Z"/>
<clipPath id="clip_2">
<path transform="matrix(1.00003,0,0,-1.00008,1.0964966,163.20578)" d="M0 0H194.26912V161.39575H0Z"/>
</clipPath>
<path id="font_3_1" d="M.33399964 .30233766C.33999635 .32835389 .36299134 .42037965 .43299867 .42037965 .43798829 .42037965 .46199037 .42037965 .48298646 .40734864 .45498658 .402359 .43499757 .37734986 .43499757 .35334779 .43499757 .33735658 .44599916 .31835938 .47299195 .31835938 .49499513 .31835938 .5269928 .3363495 .5269928 .37635804 .5269928 .42837525 .46798707 .4423828 .43399049 .4423828 .37599183 .4423828 .34098817 .38935853 .32899476 .36634828 .3039856 .43237306 .25 .4423828 .22099304 .4423828 .116989139 .4423828 .05999756 .3133545 .05999756 .28834535 .05999756 .27833558 .069992069 .27833558 .07199097 .27833558 .07998657 .27833558 .08299255 .28033448 .084991458 .28933717 .11898804 .39535523 .18499756 .42037965 .21899414 .42037965 .23799134 .42037965 .272995 .4113617 .272995 .35334779 .272995 .32235719 .2559967 .25532533 .21899414 .11528015 .20298767 .053268434 .16799927 .011245728 .12399292 .011245728 .117996219 .011245728 .09498596 .011245728 .07398987 .024276734 .09899902 .029266358 .12098694 .05027771 .12098694 .07827759 .12098694 .105270389 .09899902 .11328125 .083999637 .11328125 .053985597 .11328125 .0289917 .08728027 .0289917 .055267335 .0289917 .009246826 .07899475-.0107421879 .12298584-.0107421879 .18899536-.0107421879 .22499085 .059280397 .22799683 .0652771 .23999024 .028274537 .27598573-.0107421879 .33599855-.0107421879 .43899537-.0107421879 .49598695 .118270877 .49598695 .14328003 .49598695 .1532898 .4869995 .1532898 .48399354 .1532898 .47499085 .1532898 .47299195 .14929199 .47099305 .14228821 .43798829 .03527832 .36999513 .011245728 .33799745 .011245728 .29899598 .011245728 .2829895 .043273927 .2829895 .07727051 .2829895 .09927368 .2889862 .121276859 .2999878 .16529846L.33399964 .30233766Z"/>
<path id="font_3_2" d="M.48599244 .38136292C.48999024 .39537049 .48999024 .39736939 .48999024 .40437318 .48999024 .42237855 .47599793 .43138124 .46099855 .43138124 .45098878 .43138124 .43499757 .42536927 .42599488 .41036988 .42399598 .405365 .41600038 .37435914 .4119873 .35635377 .40499879 .33035279 .397995 .30334474 .3919983 .27633668L.34700013 .09628296C.34298707 .08126831 .2999878 .011245728 .23399353 .011245728 .18299866 .011245728 .17199707 .055267335 .17199707 .0922699 .17199707 .1382904 .18899536 .20030213 .22299195 .28833009 .23899842 .3293457 .24299622 .3403473 .24299622 .36035157 .24299622 .405365 .21099854 .4423828 .16099549 .4423828 .06599426 .4423828 .0289917 .29733277 .0289917 .28833009 .0289917 .27833558 .038986207 .27833558 .040985109 .27833558 .050994874 .27833558 .051986696 .28033448 .056991579 .29634095 .083999637 .3903656 .12399292 .42037965 .1579895 .42037965 .1659851 .42037965 .18299866 .42037965 .18299866 .3883667 .18299866 .36335755 .17298889 .3373413 .1659851 .31834413 .12599182 .21231079 .10798645 .1552887 .10798645 .10827637 .10798645 .019256592 .17098999-.0107421879 .22999573-.0107421879 .2689972-.0107421879 .30299378 .0062561037 .33099366 .03425598 .31799317-.017745972 .30599977-.06674194 .2659912-.11973572 .23999024-.15385437 .20199585-.18309021 .1559906-.18309021 .14199829-.18309021 .09700012-.18005371 .07998657-.14074707 .09599304-.14074707 .10899353-.14074707 .12298584-.1287384 .1329956-.11973572 .14299011-.10673523 .14299011-.08773804 .14299011-.056747438 .115997318-.052734376 .10598755-.052734376 .08299255-.052734376 .049987794-.068740848 .049987794-.11773682 .049987794-.16796875 .09399414-.20507813 .1559906-.20507813 .25898744-.20507813 .3619995-.11373901 .3899994-.00074768069L.48599244 .38136292Z"/>
</defs>
<path transform="matrix(1.00003,0,0,-1.00008,1.0964966,163.20578)" stroke-width=".19925" stroke-linecap="butt" stroke-miterlimit="10" stroke-linejoin="miter" fill="none" stroke="#7f807f" d="M48.56728 5.91847V8.75388M97.13455 5.91847V8.75388M145.70183 5.91847V8.75388"/>
<path transform="matrix(1.00003,0,0,-1.00008,1.0964966,163.20578)" stroke-width=".19925" stroke-linecap="butt" stroke-miterlimit="10" stroke-linejoin="miter" fill="none" stroke="#7f807f" d="M72.8509 5.20982V9.4625M121.4182 5.20982V9.4625M169.98548 5.20982V9.4625"/>
<path transform="matrix(1.00003,0,0,-1.00008,1.0964966,163.20578)" stroke-width=".19925" stroke-linecap="butt" stroke-miterlimit="10" stroke-linejoin="miter" fill="none" stroke="#7f807f" d="M22.86623 22.0085H25.70103M22.86623 51.35318H25.70103M22.86623 80.69788H25.70103M22.86623 110.04256H25.70103M22.86623 139.38724H25.70103"/>
<path transform="matrix(1.00003,0,0,-1.00008,1.0964966,163.20578)" stroke-width=".19925" stroke-linecap="butt" stroke-miterlimit="10" stroke-linejoin="miter" fill="none" stroke="#7f807f" d="M22.15775 36.68085H26.4095M22.15775 66.02553H26.4095M22.15775 95.37021H26.4095M22.15775 124.71489H26.4095M22.15775 154.05957H26.4095"/>
<path transform="matrix(1.00003,0,0,-1.00008,1.0964966,163.20578)" stroke-width=".3985" stroke-linecap="butt" stroke-miterlimit="10" stroke-linejoin="miter" fill="none" stroke="#000000" d="M0 7.33617H192.2766"/>
<path transform="matrix(1.00003,0,0,-1.00008,193.37888,155.86902)" d="M1.99252 0-1.19551 1.59401 0 0-1.19551-1.59401"/>
<path transform="matrix(1.00003,0,0,-1.00008,1.0964966,163.20578)" stroke-width=".3985" stroke-linecap="butt" stroke-miterlimit="10" stroke-linejoin="miter" fill="none" stroke="#000000" d="M24.28363 0V159.40323"/>
<path transform="matrix(0,-1.00008,-1.00003,-0,25.380856,3.789795)" d="M1.99252 0-1.19551 1.59401 0 0-1.19551-1.59401"/>
<use data-text="1" xlink:href="#font_1_2" transform="matrix(9.962899,0,0,-9.963397,71.45861,167.93616)"/>
<use data-text="2" xlink:href="#font_1_3" transform="matrix(9.962899,0,0,-9.963397,120.02707,167.93616)"/>
<use data-text="3" xlink:href="#font_1_4" transform="matrix(9.962899,0,0,-9.963397,168.59653,167.93616)"/>
<use data-text="2" xlink:href="#font_1_3" transform="matrix(9.962899,0,0,-9.963397,14.753906,129.7321)"/>
<use data-text="4" xlink:href="#font_1_5" transform="matrix(9.962899,0,0,-9.963397,14.753906,100.38576)"/>
<use data-text="6" xlink:href="#font_1_6" transform="matrix(9.962899,0,0,-9.963397,14.753906,71.03841)"/>
<use data-text="8" xlink:href="#font_1_7" transform="matrix(9.962899,0,0,-9.963397,14.753906,41.691064)"/>
<use data-text="1" xlink:href="#font_1_2" transform="matrix(9.962899,0,0,-9.963397,9.771759,12.344711)"/>
<use data-text="0" xlink:href="#font_1_1" transform="matrix(9.962899,0,0,-9.963397,14.753212,12.344711)"/>
<g clip-path="url(#clip_2)">
<path transform="matrix(1.00003,0,0,-1.00008,1.0964966,163.20578)" d="M24.28363 22.0085 25.75531 22.02197 27.22699 22.06238 28.69868 22.12976 30.17036 22.22406 31.64206 22.3453 33.11374 22.4935 34.58542 22.66864 36.05711 22.87071 37.5288 23.09975 39.00049 23.35573 40.47217 23.63864 41.94385 23.9485 43.41556 24.28531 44.88722 24.64908 46.35892 25.03978 47.8306 25.45741 49.30229 25.902 50.77397 26.37352 52.24565 26.872 53.71733 27.39743 55.18903 27.94978 56.66072 28.52908 58.1324 29.13536 59.6041 29.76854 61.07576 30.42868 62.54745 31.11578 64.01913 31.8298 65.49083 32.5708 66.96252 33.3387 68.4342 34.13358 69.90588 34.95538 71.37756 35.80414 72.84926 36.67986 74.32094 37.58246 75.79263 38.51205 77.26431 39.46861 78.736 40.4521 80.20769 41.4625 81.67937 42.49988 83.15106 43.56421 84.62274 44.65547 86.09442 45.77364 87.56613 46.9188 89.0378 48.0909 90.50949 49.2899 91.98117 50.51591 93.45287 51.76884 94.92455 53.04872 96.39624 54.35548 97.8679 55.68927 99.3396 57.04999 100.8113 58.43759 102.28297 59.85219 103.75467 61.29375 105.22633 62.76225 106.69803 64.25763 108.16971 65.78003 109.6414 67.32938 111.1131 68.90556 112.58478 70.50879 114.05646 72.13896 115.52814 73.7961 116.99983 75.48007 118.47151 77.19106 119.9432 78.92902 121.4149 80.69392 122.88657 82.48567 124.35828 84.30446 125.82994 86.15019 127.30164 88.02278 128.77332 89.92238 130.245 91.84897 131.7167 93.80249 133.18837 95.78284 134.66007 97.79024 136.13175 99.82458 137.60344 101.88577 139.07512 103.97401 140.54682 106.08919 142.01848 108.23131 143.49018 110.40028 144.96187 112.5963 146.43355 114.81927 147.90525 117.06906 149.37693 119.34592 150.8486 121.64972 152.32028 123.98044 153.79198 126.33804 155.26367 128.72266 156.73535 131.13423 158.20703 133.57277 159.67871 136.0381 161.1504 138.53054 162.62209 141.04987 164.09378 143.59604 165.56548 146.1693 167.03714 148.76949 168.50885 151.39664 169.98052 154.05057V7.33617H24.28363Z" fill="#b3ffb3" fill-opacity=".6"/>
<path transform="matrix(1.00003,0,0,-1.00008,1.0964966,163.20578)" stroke-width="1.59404" stroke-linecap="butt" stroke-miterlimit="10" stroke-linejoin="miter" fill="none" stroke="#0000ff" d="M24.28363 22.0085C24.28363 22.0085 25.52417 22.01666 26.00063 22.02684 26.47707 22.037 27.24117 22.0615 27.71762 22.08183 28.19408 22.10217 28.95816 22.143 29.43463 22.17354 29.91109 22.20406 30.67519 22.26118 31.15163 22.3019 31.62807 22.34259 32.39217 22.41606 32.86862 22.46693 33.34506 22.51782 34.10916 22.60762 34.58562 22.66867 35.06207 22.72972 35.82617 22.83582 36.30263 22.90704 36.77907 22.97829 37.54317 23.10072 38.0196 23.18213 38.49605 23.26353 39.26015 23.40227 39.73662 23.49387 40.21307 23.58545 40.97716 23.74051 41.45361 23.84229 41.93007 23.94406 42.69415 24.11545 43.17062 24.2274 43.64708 24.33936 44.41118 24.52705 44.88762 24.64917 45.36406 24.77129 46.12816 24.97531 46.6046 25.1076 47.08105 25.23991 47.84515 25.46027 48.32161 25.60274 48.79807 25.74521 49.56216 25.98189 50.0386 26.13455 50.51506 26.2872 51.27916 26.54018 51.7556 26.70302 52.23204 26.86584 52.99614 27.13516 53.4726 27.30817 53.94907 27.48119 54.71315 27.76683 55.1896 27.95001 55.66606 28.1332 56.43015 28.43513 56.9066 28.62851 57.38307 28.82188 58.14717 29.14017 58.62361 29.3437 59.10005 29.54724 59.86415 29.88182 60.34059 30.09555 60.81705 30.30927 61.58115 30.66019 62.0576 30.8841 62.53406 31.10799 63.29814 31.4752 63.7746 31.70929 64.25107 31.94336 65.01517 32.32693 65.49161 32.57118 65.96805 32.81544 66.73215 33.21532 67.20859 33.46974 67.68504 33.72418 68.44913 34.14038 68.9256 34.40498 69.40205 34.6696 70.16614 35.10213 70.6426 35.37689 71.11906 35.65167 71.88313 36.10052 72.3596 36.38548 72.83606 36.67044 73.60016 37.1356 74.0766 37.43073 74.55305 37.72586 75.31714 38.20737 75.7936 38.51268 76.27003 38.81801 77.03413 39.31581 77.51059 39.63129 77.98706 39.94678 78.75114 40.46092 79.2276 40.78659 79.70404 41.11227 80.46814 41.64273 80.94458 41.97858 81.42104 42.31444 82.18512 42.86119 82.66159 43.20723 83.13805 43.55325 83.90215 44.11635 84.37859 44.47255 84.85503 44.82874 85.61911 45.40817 86.09558 45.77455 86.57204 46.14093 87.33614 46.73668 87.81259 47.11324 88.28905 47.48979 89.05313 48.10185 89.52959 48.48859 90.00603 48.87532 90.77013 49.5037 91.24658 49.9006 91.72304 50.29752 92.48714 50.94221 92.9636 51.3493 93.44003 51.75641 94.20413 52.41743 94.68057 52.8347 95.15701 53.25195 95.92111 53.92926 96.39758 54.35669 96.87404 54.78412 97.63812 55.4778 98.11458 55.91542 98.59103 56.35304 99.35513 57.06303 99.83159 57.51083 100.30803 57.95865 101.07213 58.68494 101.54857 59.14291 102.02501 59.60089 102.78911 60.34354 103.26558 60.81169 103.74203 61.27985 104.50612 62.03877 104.98257 62.5171 105.45903 62.99544 106.22311 63.7707 106.69958 64.25923 107.17604 64.74774 107.94014 65.53932 108.41658 66.03801 108.89302 66.5367 109.65712 67.34462 110.13356 67.85349 110.61002 68.36237 111.37411 69.18658 111.85057 69.70563 112.32703 70.22467 113.09113 71.06523 113.56757 71.59445 114.04402 72.12369 114.80812 72.98056 115.28456 73.51996 115.761 74.05934 116.5251 74.93254 117.00156 75.48212 117.47803 76.0317 118.24211 76.92122 118.71857 77.48096 119.19502 78.04071 119.9591 78.94655 120.43556 79.51648 120.91203 80.08641 121.67613 81.00859 122.15257 81.58868 122.62901 82.1688 123.39311 83.1073 123.86955 83.69757 124.34601 84.28784 125.1101 85.24257 125.58656 85.84302 126.06302 86.44345 126.82712 87.41461 127.30356 88.02525 127.78001 88.63591 128.54412 89.62334 129.02056 90.24416 129.497 90.86497 130.2611 91.86873 130.73755 92.49973 131.21402 93.13074 131.97809 94.15082 132.45456 94.79199 132.93102 95.43317 133.6951 96.46957 134.17156 97.12091 134.64803 97.77226 135.41211 98.825 135.88857 99.48653 136.365 100.14806 137.1291 101.21709 137.60555 101.88881 138.082 102.56052 138.84609 103.64589 139.32256 104.32777 139.79901 105.00966 140.5631 106.11134 141.03955 106.80339 141.51602 107.49545 142.2801 108.61348 142.75656 109.31572 143.233 110.01796 143.9971 111.15228 144.47354 111.8647 144.95 112.5771 145.71408 113.72777 146.19055 114.45036 146.667 115.17296 147.4311 116.33994 147.90755 117.07271 148.384 117.80548 149.14807 118.98877 149.62454 119.73172 150.101 120.47467 150.8651 121.67432 151.34156 122.42743 151.81801 123.18053 152.58209 124.39638 153.05855 125.15967 153.53499 125.92296 154.29909 127.15524 154.77555 127.92871 155.252 128.7022 156.0161 129.95076 156.49256 130.73442 156.969 131.51808 157.7331 132.783 158.20954 133.57685 158.68598 134.37068 159.45008 135.6519 159.92655 136.4559 160.403 137.2599 161.1671 138.55745 161.64354 139.37165 162.11998 140.18582 162.88408 141.49971 163.36054 142.32408 163.83698 143.14846 164.60108 144.47866 165.07753 145.3132 165.55399 146.14774 166.31807 147.49423 166.79454 148.33896 167.271 149.18367 168.03508 150.5465 168.51154 151.4014 168.98799 152.25629 169.75209 153.63544 170.22855 154.50052 170.70499 155.36562 171.46909 156.76108 171.94553 157.63632 172.42197 158.51158 173.18607 159.92339 173.66252 160.80884 174.13899 161.69428 174.90308 163.12238 175.37953 164.01799 175.85599 164.91359 176.62009 166.35805 177.09653 167.26384 177.57299 168.16962 178.33708 169.6303 178.81352 170.54627 179.28997 171.46222 180.05406 172.9394 180.53052 173.86554 181.00699 174.79167 181.77108 176.28499 182.24753 177.2213 182.72399 178.15761 183.48807 179.6673 183.96453 180.61379 184.441 181.56027 185.2051 183.0863 185.68154 184.04299 186.15798 184.99967 186.92208 186.54204 187.39852 187.5089 187.87497 188.47577 188.63907 190.03452 189.11553 191.01155 189.59198 191.98857 190.35608 193.56349 190.83252 194.55068 191.30898 195.53786 192.07308 197.12912 192.54952 198.12653 193.02596 199.12393 194.26651 201.7393 194.26651 201.7393"/>
<path transform="matrix(1.00003,0,0,-1.00008,1.0964966,163.20578)" stroke-width=".3985" stroke-linecap="butt" stroke-dasharray="2.98883,2.98883" stroke-miterlimit="10" stroke-linejoin="miter" fill="none" stroke="#000000" d="M24.28363 7.33617V22.0085"/>
<path transform="matrix(1.00003,0,0,-1.00008,1.0964966,163.20578)" stroke-width=".3985" stroke-linecap="butt" stroke-dasharray="2.98883,2.98883" stroke-miterlimit="10" stroke-linejoin="miter" fill="none" stroke="#000000" d="M169.98548 7.33617V154.05957"/>
</g>
<use data-text="x" xlink:href="#font_3_1" transform="matrix(9.962899,0,0,-9.963397,186.15705,152.3489)"/>
<use data-text="y" xlink:href="#font_3_2" transform="matrix(9.962899,0,0,-9.963397,28.90033,9.607498)"/>
</svg>
