<svg xmlns="http://www.w3.org/2000/svg" xmlns:xlink="http://www.w3.org/1999/xlink" xmlns:inkscape="http://www.inkscape.org/namespaces/inkscape" version="1.1" width="197" height="170" viewBox="0 0 197 170">
<defs>
<path id="font_1_2" d="M.2939911 .64004519C.2939911 .66400149 .2939911 .6660156 .2709961 .6660156 .20899964 .60227969 .12098694 .60227969 .08898926 .60227969V.57128909C.10899353 .57128909 .16799927 .57128909 .21998596 .5972748V.07902527C.21998596 .042999269 .21699524 .0309906 .1269989 .0309906H.09498596V0C.12998963 .0029907227 .21699524 .0029907227 .25698854 .0029907227 .29699708 .0029907227 .38398744 .0029907227 .4189911 0V.0309906H.3869934C.29699708 .0309906 .2939911 .041992189 .2939911 .07902527V.64004519Z"/>
<path id="font_1_3" d="M.1269989 .07699585 .23298645 .18003845C.3889923 .31811524 .44898988 .3721466 .44898988 .47216798 .44898988 .5860901 .35899354 .6660156 .23699951 .6660156 .12399292 .6660156 .049987794 .57411196 .049987794 .48516847 .049987794 .4291687 .099990848 .4291687 .102996829 .4291687 .11999512 .4291687 .15499878 .44117738 .15499878 .48217774 .15499878 .5081787 .13699341 .5341797 .101989749 .5341797 .09399414 .5341797 .09199524 .5341797 .08898926 .5331726 .11199951 .59806826 .1659851 .63500979 .22399903 .63500979 .31498719 .63500979 .35798646 .5541382 .35798646 .47216798 .35798646 .39215089 .30799867 .31311036 .25299073 .25108338L.06098938 .036987306C.049987794 .025985718 .049987794 .023986817 .049987794 0H.42099L.44898988 .17404175H.42399598C.4189911 .14402771 .4119873 .1000061 .4019928 .084991458 .394989 .07699585 .32899476 .07699585 .30699159 .07699585H.1269989Z"/>
<path id="font_1_4" d="M.2899933 .35191346C.37199403 .37893678 .42999269 .4490509 .42999269 .52809146 .42999269 .6100464 .34199525 .6660156 .24598694 .6660156 .14498902 .6660156 .068984989 .60606387 .068984989 .53009036 .068984989 .49710084 .09098816 .47808839 .11999512 .47808839 .15098572 .47808839 .17098999 .50009158 .17098999 .5290985 .17098999 .57910159 .12399292 .57910159 .10899353 .57910159 .13999939 .62802127 .20599365 .64100649 .24198914 .64100649 .2829895 .64100649 .33799745 .6190338 .33799745 .5290985 .33799745 .51708987 .33599855 .45906068 .30999757 .4149933 .27999879 .36691285 .24598694 .36390687 .22099304 .36291505 .21299744 .36190797 .18899536 .35990907 .18199158 .35990907 .17399597 .35890199 .16699219 .35791017 .16699219 .3479004 .16699219 .33691407 .17399597 .33691407 .19099427 .33691407H.23498535C.31698609 .33691407 .35398866 .2686615 .35398866 .17037964 .35398866 .034469606 .2849884 .0055389406 .24099732 .0055389406 .19799805 .0055389406 .12298584 .022491456 .08799744 .08137512 .12298584 .07637024 .1539917 .09837341 .1539917 .1363678 .1539917 .17237854 .1269989 .19238281 .09799194 .19238281 .07398987 .19238281 .041992189 .17837525 .041992189 .1343689 .041992189 .043441774 .1349945-.022460938 .24398804-.022460938 .3659973-.022460938 .45700074 .06838989 .45700074 .17037964 .45700074 .252594 .3939972 .33088685 .2899933 .35191346Z"/>
<path id="font_1_5" d="M.2939911 .16503906V.07800293C.2939911 .041992189 .2919922 .0309906 .21798706 .0309906H.19699097V0C.23799134 .0029907227 .2899933 .0029907227 .33198548 .0029907227 .37399293 .0029907227 .4269867 .0029907227 .46798707 0V.0309906H.44699098C.37298585 .0309906 .37098695 .041992189 .37098695 .07800293V.16503906H.47099305V.19602967H.37098695V.65075686C.37098695 .67074587 .37098695 .6767578 .35499574 .6767578 .34599305 .6767578 .34298707 .6767578 .33499146 .66474917L.027999878 .19602967V.16503906H.2939911M.2999878 .19602967H.055999757L.2999878 .5688019V.19602967Z"/>
<path id="font_1_6" d="M.13198853 .327713V.35173036C.13198853 .6047821 .2559967 .64100649 .30699159 .64100649 .33099366 .64100649 .37298585 .634964 .394989 .6007538 .37998963 .6007538 .33999635 .6007538 .33999635 .5557556 .33999635 .524765 .3639984 .5097656 .38598634 .5097656 .4019928 .5097656 .43199159 .51875308 .43199159 .5577545 .43199159 .6178589 .3880005 .6660156 .30499269 .6660156 .1769867 .6660156 .041992189 .5367584 .041992189 .31570436 .041992189 .048553468 .1579895-.022460938 .25099183-.022460938 .3619995-.022460938 .45700074 .07156372 .45700074 .2036438 .45700074 .33070375 .36799623 .4267578 .25698854 .4267578 .18899536 .4267578 .1519928 .37573243 .13198853 .327713M.25099183 .0055389406C.18798828 .0055389406 .1579895 .06556702 .1519928 .080566409 .13398743 .127594 .13398743 .2076416 .13398743 .22564698 .13398743 .30369569 .1659851 .40374757 .2559967 .40374757 .27198792 .40374757 .31799317 .40374757 .34899903 .34172059 .36698915 .30470277 .36698915 .2536621 .36698915 .20463562 .36698915 .15661621 .36698915 .10658264 .34999085 .0705719 .31999208 .010528564 .27398683 .0055389406 .25099183 .0055389406Z"/>
<path id="font_1_7" d="M.16299439 .4569702C.116989139 .486969 .11299133 .52098086 .11299133 .5379791 .11299133 .598999 .17799378 .64100649 .24899292 .64100649 .32199098 .64100649 .38598634 .58898928 .38598634 .51698306 .38598634 .45996095 .34700013 .4119568 .2869873 .37695313L.16299439 .4569702M.30899049 .36193849C.3809967 .3989563 .42999269 .45095826 .42999269 .51698306 .42999269 .6090088 .34098817 .6660156 .25 .6660156 .1499939 .6660156 .068984989 .59199526 .068984989 .49897767 .068984989 .4809723 .070999149 .43595887 .11299133 .38894654 .12399292 .37695313 .16099549 .35194398 .18598938 .33494569 .12799073 .30592347 .041992189 .24984741 .041992189 .15072632 .041992189 .04458618 .14399719-.022460938 .24899292-.022460938 .3619995-.022460938 .45700074 .06060791 .45700074 .16773987 .45700074 .20379639 .44599916 .24885559 .4079895 .2909088 .3889923 .31193543 .37298585 .3219452 .30899049 .36193849M.20899964 .3199463 .33198548 .24183655C.3600006 .2228241 .40699769 .19277954 .40699769 .13169861 .40699769 .05760193 .33198548 .0055389406 .25 .0055389406 .1639862 .0055389406 .09199524 .067611698 .09199524 .15072632 .09199524 .20880127 .12399292 .27288819 .20899964 .3199463Z"/>
<path id="font_1_1" d="M.45999146 .31976319C.45999146 .39982606 .45498658 .47988893 .41999818 .5539398 .37399293 .65000918 .2919922 .6660156 .25 .6660156 .18998719 .6660156 .116989139 .64001467 .07598877 .54693606 .04399109 .47789 .038986207 .39982606 .038986207 .31976319 .038986207 .24472046 .042999269 .15464783 .083999637 .07859802 .1269989-.0024719239 .19999695-.022460938 .24899292-.022460938 .30299378-.022460938 .3789978-.0014648438 .4229889 .09359741 .45498658 .16265869 .45999146 .2407074 .45999146 .31976319M.24899292-.00047302247C.20999146-.00047302247 .15098572 .024551392 .1329956 .12062073 .12199402 .18066406 .12199402 .2727356 .12199402 .3317871 .12199402 .39582826 .12199402 .46188355 .12998963 .5159149 .14898682 .63500979 .22399903 .64401248 .24899292 .64401248 .28199769 .64401248 .34799195 .6259918 .36698915 .52693179 .3769989 .47088624 .3769989 .39482118 .3769989 .3317871 .3769989 .25672914 .3769989 .18867493 .3659973 .12461853 .35099793 .029556275 .2939911-.00047302247 .24899292-.00047302247Z"/>
<clipPath id="clip_2">
<path transform="matrix(1.00003,0,0,-1.00008,1.0964966,163.20578)" d="M0 0H194.26912V161.39575H0Z"/>
</clipPath>
<path id="font_3_1" d="M.33399964 .30233766C.33999635 .32835389 .36299134 .42037965 .43299867 .42037965 .43798829 .42037965 .46199037 .42037965 .48298646 .40734864 .45498658 .402359 .43499757 .37734986 .43499757 .35334779 .43499757 .33735658 .44599916 .31835938 .47299195 .31835938 .49499513 .31835938 .5269928 .3363495 .5269928 .37635804 .5269928 .42837525 .46798707 .4423828 .43399049 .4423828 .37599183 .4423828 .34098817 .38935853 .32899476 .36634828 .3039856 .43237306 .25 .4423828 .22099304 .4423828 .116989139 .4423828 .05999756 .3133545 .05999756 .28834535 .05999756 .27833558 .069992069 .27833558 .07199097 .27833558 .07998657 .27833558 .08299255 .28033448 .084991458 .28933717 .11898804 .39535523 .18499756 .42037965 .21899414 .42037965 .23799134 .42037965 .272995 .4113617 .272995 .35334779 .272995 .32235719 .2559967 .25532533 .21899414 .11528015 .20298767 .053268434 .16799927 .011245728 .12399292 .011245728 .117996219 .011245728 .09498596 .011245728 .07398987 .024276734 .09899902 .029266358 .12098694 .05027771 .12098694 .07827759 .12098694 .105270389 .09899902 .11328125 .083999637 .11328125 .053985597 .11328125 .0289917 .08728027 .0289917 .055267335 .0289917 .009246826 .07899475-.0107421879 .12298584-.0107421879 .18899536-.0107421879 .22499085 .059280397 .22799683 .0652771 .23999024 .028274537 .27598573-.0107421879 .33599855-.0107421879 .43899537-.0107421879 .49598695 .118270877 .49598695 .14328003 .49598695 .1532898 .4869995 .1532898 .48399354 .1532898 .47499085 .1532898 .47299195 .14929199 .47099305 .14228821 .43798829 .03527832 .36999513 .011245728 .33799745 .011245728 .29899598 .011245728 .2829895 .043273927 .2829895 .07727051 .2829895 .09927368 .2889862 .121276859 .2999878 .16529846L.33399964 .30233766Z"/>
<path id="font_3_2" d="M.48599244 .38136292C.48999024 .39537049 .48999024 .39736939 .48999024 .40437318 .48999024 .42237855 .47599793 .43138124 .46099855 .43138124 .45098878 .43138124 .43499757 .42536927 .42599488 .41036988 .42399598 .405365 .41600038 .37435914 .4119873 .35635377 .40499879 .33035279 .397995 .30334474 .3919983 .27633668L.34700013 .09628296C.34298707 .08126831 .2999878 .011245728 .23399353 .011245728 .18299866 .011245728 .17199707 .055267335 .17199707 .0922699 .17199707 .1382904 .18899536 .20030213 .22299195 .28833009 .23899842 .3293457 .24299622 .3403473 .24299622 .36035157 .24299622 .405365 .21099854 .4423828 .16099549 .4423828 .06599426 .4423828 .0289917 .29733277 .0289917 .28833009 .0289917 .27833558 .038986207 .27833558 .040985109 .27833558 .050994874 .27833558 .051986696 .28033448 .056991579 .29634095 .083999637 .3903656 .12399292 .42037965 .1579895 .42037965 .1659851 .42037965 .18299866 .42037965 .18299866 .3883667 .18299866 .36335755 .17298889 .3373413 .1659851 .31834413 .12599182 .21231079 .10798645 .1552887 .10798645 .10827637 .10798645 .019256592 .17098999-.0107421879 .22999573-.0107421879 .2689972-.0107421879 .30299378 .0062561037 .33099366 .03425598 .31799317-.017745972 .30599977-.06674194 .2659912-.11973572 .23999024-.15385437 .20199585-.18309021 .1559906-.18309021 .14199829-.18309021 .09700012-.18005371 .07998657-.14074707 .09599304-.14074707 .10899353-.14074707 .12298584-.1287384 .1329956-.11973572 .14299011-.10673523 .14299011-.08773804 .14299011-.056747438 .115997318-.052734376 .10598755-.052734376 .08299255-.052734376 .049987794-.068740848 .049987794-.11773682 .049987794-.16796875 .09399414-.20507813 .1559906-.20507813 .25898744-.20507813 .3619995-.11373901 .3899994-.00074768069L.48599244 .38136292Z"/>
</defs>
<path transform="matrix(1.00003,0,0,-1.00008,1.0964966,163.20578)" stroke-width=".19925" stroke-linecap="butt" stroke-miterlimit="10" stroke-linejoin="miter" fill="none" stroke="#7f807f" d="M48.56728 5.91847V8.75388M97.13455 5.91847V8.75388M145.70183 5.91847V8.75388"/>
<path transform="matrix(1.00003,0,0,-1.00008,1.0964966,163.20578)" stroke-width=".19925" stroke-linecap="butt" stroke-miterlimit="10" stroke-linejoin="miter" fill="none" stroke="#7f807f" d="M72.8509 5.20982V9.4625M121.4182 5.20982V9.4625M169.98548 5.20982V9.4625"/>
<path transform="matrix(1.00003,0,0,-1.00008,1.0964966,163.20578)" stroke-width=".19925" stroke-linecap="butt" stroke-miterlimit="10" stroke-linejoin="miter" fill="none" stroke="#7f807f" d="M22.86623 22.0085H25.70103M22.86623 51.35318H25.70103M22.86623 80.69788H25.70103M22.86623 110.04256H25.70103M22.86623 139.38724H25.70103"/>
<path transform="matrix(1.00003,0,0,-1.00008,1.0964966,163.20578)" stroke-width=".19925" stroke-linecap="butt" stroke-miterlimit="10" stroke-linejoin="miter" fill="none" stroke="#7f807f" d="M22.15775 36.68085H26.4095M22.15775 66.02553H26.4095M22.15775 95.37021H26.4095M22.15775 124.71489H26.4095M22.15775 154.05957H26.4095"/>
<path transform="matrix(1.00003,0,0,-1.00008,1.0964966,163.20578)" stroke-width=".3985" stroke-linecap="butt" stroke-miterlimit="10" stroke-linejoin="miter" fill="none" stroke="#000000" d="M0 7.33617H192.2766"/>
<path transform="matrix(1.00003,0,0,-1.00008,193.37888,155.86902)" d="M1.99252 0-1.19551 1.59401 0 0-1.19551-1.59401"/>
<path transform="matrix(1.00003,0,0,-1.00008,1.0964966,163.20578)" stroke-width=".3985" stroke-linecap="butt" stroke-miterlimit="10" stroke-linejoin="miter" fill="none" stroke="#000000" d="M24.28363 0V159.40323"/>
<path transform="matrix(0,-1.00008,-1.00003,-0,25.380856,3.789795)" d="M1.99252 0-1.19551 1.59401 0 0-1.19551-1.59401"/>
<use data-text="1" xlink:href="#font_1_2" transform="matrix(9.962899,0,0,-9.963397,71.45861,167.93616)"/>
<use data-text="2" xlink:href="#font_1_3" transform="matrix(9.962899,0,0,-9.963397,120.02707,167.93616)"/>
<use data-text="3" xlink:href="#font_1_4" transform="matrix(9.962899,0,0,-9.963397,168.59653,167.93616)"/>
<use data-text="2" xlink:href="#font_1_3" transform="matrix(9.962899,0,0,-9.963397,14.753906,129.7321)"/>
<use data-text="4" xlink:href="#font_1_5" transform="matrix(9.962899,0,0,-9.963397,14.753906,100.38576)"/>
<use data-text="6" xlink:href="#font_1_6" transform="matrix(9.962899,0,0,-9.963397,14.753906,71.03841)"/>
<use data-text="8" xlink:href="#font_1_7" transform="matrix(9.962899,0,0,-9.963397,14.753906,41.691064)"/>
<use data-text="1" xlink:href="#font_1_2" transform="matrix(9.962899,0,0,-9.963397,9.771759,12.344711)"/>
<use data-text="0" xlink:href="#font_1_1" transform="matrix(9.962899,0,0,-9.963397,14.753212,12.344711)"/>
<g clip-path="url(#clip_2)">
<path transform="matrix(1.00003,0,0,-1.00008,1.0964966,163.20578)" d="M24.28363 22.0085 25.0158 22.01184 25.74796 22.02184 26.4801 22.0385 27.21227 22.06184 27.94444 22.09184 28.67659 22.12854 29.40875 22.17188 30.14091 22.2219 30.87308 22.27858 31.60524 22.34195 32.3374 22.41196 33.06956 22.48866 33.80171 22.572 34.53389 22.66205 35.26604 22.75876 35.9982 22.8621 36.73038 22.97215 37.46252 23.08887 38.19469 23.21225 38.92685 23.34229 39.65903 23.479 40.39117 23.62238 41.12334 23.77242 41.8555 23.92914 42.58765 24.09253 43.31982 24.26259 44.05199 24.43932 44.78413 24.6227 45.5163 24.81279 46.24847 25.00949 46.98062 25.21294 47.71278 25.42299 48.44495 25.63972 49.1771 25.86311 49.90927 26.0932 50.64143 26.32996 51.37358 26.57336 52.10574 26.82346 52.83792 27.08022 53.57008 27.34364 54.30223 27.61372 55.03441 27.89049 55.76656 28.17392 56.49872 28.464 57.23088 28.76079 57.96304 29.06421 58.6952 29.3743 59.42737 29.69109 60.15953 30.01453 60.89168 30.34464 61.62386 30.68143 62.35602 31.02487 63.08817 31.37498 63.82033 31.73177 64.55249 32.09525 65.28467 32.46536 66.01682 32.84215 66.74898 33.22562 67.48114 33.61577 68.2133 34.01254 68.94547 34.41603 69.67763 34.82616 70.40977 35.24295 71.14194 35.66643 71.87411 36.09657 72.60626 36.53339 73.33842 36.9769 74.07059 37.42702 74.80275 37.88383 75.53491 38.34735 76.26707 38.81749 76.99924 39.29433 77.73138 39.77783 78.46356 40.26796 79.19572 40.76483 79.92787 41.26834 80.66005 41.77847 81.39221 42.29533 82.12436 42.81886 82.85652 43.34901 83.5887 43.88588 84.32085 44.4294 85.05301 44.97957 85.78517 45.53642 86.51732 46.09996 87.2495 46.67012 87.98166 47.247 88.7138 47.83055 89.44597 48.42078 90.17815 49.01761 90.9103 49.62117 91.64246 50.23137 92.37462 50.8482 93.10678 51.47176 93.83894 52.10199 94.5711 52.73885 95.30327 53.38243 96.03542 54.03267 96.7676 54.68948 97.49976 55.35309 98.23195 56.02332 98.96405 56.70018 99.69626 57.38377 100.42834 58.07394 101.16055 58.77087 101.89276 59.47452 102.62485 60.18466 103.35706 60.90167 104.08916 61.62512 104.82137 62.35547 105.55356 63.09239 106.28566 63.83592 107.01787 64.58621 107.74995 65.34308 108.48216 66.1067 109.21437 66.877 109.94646 67.65385 110.67867 68.43747 111.41077 69.22769 112.14297 70.02473 112.87517 70.82835 113.60727 71.63858 114.33948 72.45555 115.07156 73.27911 115.80379 74.1094 116.53598 74.94637 117.26807 75.78995 118.00029 76.64026 118.73239 77.49716 119.46458 78.3608 120.1968 79.23122 120.9289 80.10805 121.66109 80.99178 122.39319 81.88194 123.1254 82.77902 123.85759 83.6827 124.58969 84.59294 125.3219 85.50993 126.05399 86.43352 126.7862 87.36386 127.5184 88.30089 128.25049 89.24445 128.9827 90.19481 129.7148 91.15175 130.44699 92.11551 131.1792 93.08589 131.9113 94.06282 132.64351 95.04651 133.3756 96.03677 134.10782 97.03381 134.84001 98.03752 135.5721 99.04779 136.30432 100.06483 137.03643 101.08846 137.76862 102.11882 138.50083 103.15598 139.23291 104.1995 139.96512 105.24997 140.69722 106.30682 141.42943 107.37065 142.16162 108.44106 142.89373 109.518 143.62593 110.60175 144.35803 111.69205 145.09023 112.78911 145.82244 113.89285 146.55454 115.00314 147.28673 116.12022 148.01883 117.24387 148.75104 118.37439 149.48323 119.51149 150.21533 120.65512 150.94754 121.80554 151.67963 122.96252 152.41184 124.12628 153.14405 125.2967 153.87613 126.47371 154.60834 127.65749 155.34044 128.8478 156.07265 130.04489 156.80484 131.2488 157.53694 132.45902 158.26917 133.67626 159.00125 134.89992 159.73346 136.13037 160.46567 137.36751 161.19776 138.61116 161.92996 139.86162 162.66207 141.11862 163.39426 142.38242 164.12647 143.6529 164.85857 144.9299 165.59076 146.21384 166.32286 147.50406 167.05507 148.80133 167.78726 150.10517 168.51937 151.4155 169.25157 152.73265 169.98366 154.05634V7.33617H24.28363Z" fill="#80ff80" fill-opacity=".6"/>
<g>
<path transform="matrix(1.00003,0,0,-1.00008,1.0964966,163.20578)" d="M24.28363 7.33617V25.67659H72.8509V7.33617Z" fill="#ffcc99" fill-opacity=".7"/>
<path transform="matrix(1.00003,0,0,-1.00008,1.0964966,163.20578)" stroke-width=".3985" stroke-linecap="butt" stroke-miterlimit="10" stroke-linejoin="miter" fill="none" stroke="#ff9933" stroke-opacity=".7" d="M24.28363 7.33617V25.67659H72.8509V7.33617Z"/>
</g>
<g>
<path transform="matrix(1.00003,0,0,-1.00008,1.0964966,163.20578)" d="M72.8509 7.33617V55.02127H121.4182V7.33617Z" fill="#ffcc99" fill-opacity=".7"/>
<path transform="matrix(1.00003,0,0,-1.00008,1.0964966,163.20578)" stroke-width=".3985" stroke-linecap="butt" stroke-miterlimit="10" stroke-linejoin="miter" fill="none" stroke="#ff9933" stroke-opacity=".7" d="M72.8509 7.33617V55.02127H121.4182V7.33617Z"/>
</g>
<g>
<path transform="matrix(1.00003,0,0,-1.00008,1.0964966,163.20578)" d="M121.4182 7.33617V113.71063H169.98548V7.33617Z" fill="#ffcc99" fill-opacity=".7"/>
<path transform="matrix(1.00003,0,0,-1.00008,1.0964966,163.20578)" stroke-width=".3985" stroke-linecap="butt" stroke-miterlimit="10" stroke-linejoin="miter" fill="none" stroke="#ff9933" stroke-opacity=".7" d="M121.4182 7.33617V113.71063H169.98548V7.33617Z"/>
</g>
<path transform="matrix(1.00003,0,0,-1.00008,1.0964966,163.20578)" stroke-width=".79701" stroke-linecap="butt" stroke-dasharray="2.98883,2.98883" stroke-miterlimit="10" stroke-linejoin="miter" fill="none" stroke="#ff0000" d="M48.56728 7.33617V25.67659"/>
<path transform="matrix(1.00003,0,0,-1.00008,1.0964966,163.20578)" stroke-width=".79701" stroke-linecap="butt" stroke-dasharray="2.98883,2.98883" stroke-miterlimit="10" stroke-linejoin="miter" fill="none" stroke="#ff0000" d="M97.13455 7.33617V55.02127"/>
<path transform="matrix(1.00003,0,0,-1.00008,1.0964966,163.20578)" stroke-width=".79701" stroke-linecap="butt" stroke-dasharray="2.98883,2.98883" stroke-miterlimit="10" stroke-linejoin="miter" fill="none" stroke="#ff0000" d="M145.70183 7.33617V113.71063"/>
<path transform="matrix(1.00003,0,0,-1.00008,1.0964966,163.20578)" stroke-width="1.59404" stroke-linecap="butt" stroke-miterlimit="10" stroke-linejoin="miter" fill="none" stroke="#0000ff" d="M24.28363 22.0085C24.28363 22.0085 24.90079 22.01053 25.13782 22.01303 25.37485 22.01555 25.75499 22.02162 25.99202 22.02666 26.22905 22.0317 26.60919 22.0418 26.84622 22.04935 27.08324 22.05692 27.46338 22.07106 27.70041 22.08113 27.93744 22.09119 28.31758 22.10938 28.55461 22.12196 28.79164 22.13454 29.17178 22.15677 29.40881 22.17188 29.64584 22.187 30.02599 22.21326 30.26302 22.23088 30.50005 22.2485 30.88017 22.27882 31.1172 22.29897 31.35422 22.3191 31.73436 22.35347 31.97139 22.37613 32.20842 22.3988 32.58856 22.4372 32.82559 22.46237 33.06262 22.48755 33.44276 22.52998 33.6798 22.55768 33.91682 22.58537 34.29697 22.63184 34.534 22.66205 34.77103 22.69228 35.15115 22.7428 35.38818 22.77553 35.6252 22.80827 36.00534 22.86281 36.24237 22.89806 36.4794 22.93332 36.85954 22.99193 37.09657 23.0297 37.3336 23.06747 37.71375 23.13011 37.95078 23.17041 38.1878 23.21071 38.56795 23.27737 38.80498 23.32018 39.042 23.36299 39.42215 23.43369 39.65916 23.47902 39.8962 23.52435 40.27634 23.5991 40.51337 23.64696 40.7504 23.69481 41.13052 23.77359 41.36755 23.82396 41.60458 23.87431 41.98473 23.95715 42.22176 24.01004 42.45879 24.06293 42.83893 24.1498 43.07596 24.2052 43.31299 24.26062 43.69313 24.35153 43.93015 24.40945 44.16718 24.46739 44.54732 24.56233 44.78435 24.62277 45.02138 24.68321 45.40152 24.78218 45.63855 24.84515 45.87558 24.90811 46.25572 25.01114 46.49275 25.07663 46.72978 25.14212 47.10991 25.24919 47.34694 25.31718 47.58397 25.38518 47.96411 25.49629 48.20113 25.56682 48.43816 25.63734 48.8183 25.75246 49.05533 25.82552 49.29236 25.89856 49.6725 26.01773 49.90953 26.09329 50.14656 26.16884 50.5267 26.29207 50.76373 26.37015 51.00076 26.44823 51.38089 26.57549 51.61792 26.65608 51.85495 26.73668 52.23509 26.86797 52.4721 26.9511 52.70914 27.03421 53.08928 27.16956 53.32631 27.25519 53.56334 27.34082 53.94348 27.48021 54.18051 27.56837 54.41754 27.65652 54.79768 27.79993 55.03471 27.8906 55.27174 27.98126 55.65189 28.12871 55.88892 28.22192 56.12595 28.31512 56.50607 28.46663 56.7431 28.56233 56.98013 28.65805 57.36026 28.81357 57.59729 28.9118 57.83432 29.01004 58.21446 29.16963 58.45149 29.27037 58.68852 29.37111 59.06866 29.53471 59.3057 29.63799 59.54272 29.74126 59.92287 29.9089 60.1599 30.01471 60.39693 30.1205 60.77705 30.29218 61.01408 30.40047 61.25111 30.50877 61.63124 30.68451 61.86827 30.79533 62.1053 30.90616 62.48544 31.08594 62.72247 31.19928 62.9595 31.31264 63.33965 31.49644 63.57668 31.6123 63.8137 31.72818 64.19385 31.91603 64.43088 32.03441 64.66791 32.15279 65.04803 32.34467 65.28506 32.46556 65.5221 32.58647 65.90224 32.78241 66.13927 32.90582 66.3763 33.02925 66.75644 33.2292 66.99347 33.35513 67.2305 33.48108 67.61063 33.6851 67.84766 33.81355 68.08469 33.94202 68.46483 34.15007 68.70186 34.28105 68.93889 34.41203 69.31902 34.62411 69.55605 34.7576 69.79308 34.89108 70.17322 35.10721 70.41025 35.24323 70.64728 35.37924 71.02742 35.59941 71.26445 35.73795 71.50148 35.87648 71.88162 36.1007 72.11865 36.24173 72.35568 36.38278 72.73582 36.61102 72.97285 36.7546 73.20988 36.89816 73.59 37.13048 73.82703 37.27657 74.06406 37.42265 74.4442 37.65895 74.68123 37.80757 74.91826 37.95619 75.2984 38.19656 75.53543 38.34769 75.77246 38.49881 76.1526 38.74321 76.38963 38.89685 76.62666 39.0505 77.0068 39.2989 77.24384 39.45506 77.48087 39.61124 77.86098 39.86375 78.098 40.02246 78.33504 40.18115 78.71518 40.43764 78.95221 40.59883 79.18924 40.76004 79.56938 41.02063 79.80641 41.18436 80.04344 41.34808 80.42358 41.61267 80.66061 41.7789 80.89764 41.94514 81.27779 42.21376 81.51482 42.38252 81.75185 42.55127 82.13197 42.82399 82.369 42.99527 82.60603 43.16655 82.98618 43.44324 83.2232 43.61703 83.46024 43.79085 83.84036 44.07164 84.0774 44.24796 84.31442 44.42426 84.69456 44.70903 84.9316 44.88786 85.16862 45.0667 85.54877 45.35558 85.7858 45.53694 86.02281 45.7183 86.40295 46.01115 86.63998 46.19502 86.87701 46.37889 87.25716 46.67578 87.49419 46.86217 87.73122 47.04857 88.11134 47.34956 88.34837 47.53848 88.5854 47.72739 88.96556 48.03236 89.20259 48.2238 89.43962 48.41524 89.81975 48.72429 90.05678 48.91824 90.2938 49.11218 90.67393 49.42525 90.91096 49.6217 91.148 49.81815 91.52814 50.13525 91.76517 50.33424 92.0022 50.53323 92.38234 50.85442 92.61937 51.05592 92.8564 51.25745 93.23654 51.58261 93.47357 51.78664 93.7106 51.99066 94.09073 52.31993 94.32776 52.52647 94.56477 52.73303 94.94492 53.06627 95.18195 53.27533 95.41898 53.48439 95.79912 53.82167 96.03615 54.03325 96.27318 54.24483 96.65332 54.58624 96.89035 54.80034 97.12738 55.01445 97.50752 55.35979 97.74455 55.5764 97.98158 55.79301 98.36172 56.14252 98.59874 56.36165 98.83577 56.58078 99.21591 56.93423 99.45294 57.15587 99.68997 57.37752 100.0701 57.735 100.30713 57.95918 100.54416 58.18336 100.9243 58.54495 101.16133 58.77165 101.39836 58.99834 101.7785 59.3639 102.01553 59.59311 102.25256 59.82233 102.6327 60.192 102.86972 60.42374 103.10675 60.65547 103.4869 61.02913 103.72392 61.26337 103.96095 61.49762 104.34108 61.87535 104.57811 62.11214 104.81514 62.3489 105.1953 62.73064 105.43233 62.96991 105.66936 63.2092 106.04948 63.59496 106.28651 63.83676 106.52354 64.07857 106.90369 64.46843 107.1407 64.71277 107.37773 64.95709 107.75787 65.35092 107.9949 65.59778 108.23193 65.84462 108.61208 66.24257 108.8491 66.49194 109.08614 66.74132 109.46628 67.14322 109.70331 67.39511 109.94034 67.64699 110.32053 68.05304 110.55756 68.30742 110.79459 68.56181 111.17464 68.97174 111.41165 69.22865 111.64868 69.48557 112.02888 69.89969 112.26591 70.15913 112.50294 70.41856 112.883 70.83664 113.12003 71.0986 113.35706 71.36055 113.73724 71.78271 113.97429 72.04721 114.21133 72.31172 114.5915 72.73793 114.82854 73.00494 115.06557 73.27194 115.44562 73.70212 115.68265 73.97163 115.91968 74.24115 116.29987 74.67548 116.5369 74.9475 116.77393 75.21951 117.15398 75.65771 117.391 75.93227 117.62804 76.20682 118.00822 76.64919 118.24527 76.92627 118.48232 77.20335 118.86249 77.6498 119.09952 77.92938 119.33655 78.20895 119.7166 78.65926 119.95363 78.94138 120.19066 79.2235 120.57085 79.67807 120.80788 79.9627 121.0449 80.24733 121.42497 80.70572 121.662 80.99284 121.89903 81.27998 122.2792 81.74258 122.51625 82.03227 122.7533 82.32196 123.13347 82.78857 123.3705 83.08075 123.60753 83.37292 123.98758 83.8435 124.22461 84.13821 124.46164 84.43292 124.84183 84.90765 125.07886 85.20486 125.31589 85.50208 125.69595 85.98065 125.93298 86.28038 126.17001 86.58012 126.5502 87.06291 126.78725 87.36519 127.02429 87.66747 127.40446 88.15427 127.6415 88.45906 127.87852 88.76384 128.25856 89.25461 128.49559 89.56192 128.73262 89.86922 129.11281 90.36414 129.34984 90.67393 129.58687 90.98375 129.96694 91.48251 130.20397 91.79485 130.441 92.10716 130.82117 92.61015 131.05821 92.92503 131.29526 93.23991 131.67545 93.74692 131.91248 94.0643 132.1495 94.38168 132.52956 94.89265 132.76659 95.21255 133.00362 95.53244 133.3838 96.04756 133.62084 96.36996 133.85787 96.69237 134.23792 97.2113 134.47495 97.53624 134.71198 97.86116 135.09217 98.38435 135.32921 98.71182 135.56626 99.03929 135.94643 99.5665 136.18346 99.89648 136.42049 100.22646 136.80054 100.75761 137.03757 101.0901 137.2746 101.4226 137.65479 101.95792 137.89182 102.29291 138.12885 102.6279 138.50891 103.16707 138.74594 103.50458 138.98297 103.84209 139.36315 104.38547 139.60019 104.72554 139.83724 105.06561 140.2174 105.61302 140.45444 105.95558 140.69145 106.29814 141.07152 106.8495 141.30855 107.19458 141.54558 107.53967 141.92577 108.0952 142.1628 108.4428 142.39983 108.79037 142.77989 109.34973 143.01692 109.69986 143.25395 110.04997 143.63413 110.61353 143.87117 110.9662 144.10822 111.31886 144.4884 111.88658 144.72544 112.24174 144.96245 112.59691 145.3425 113.16833 145.57953 113.52602 145.81656 113.88368 146.19675 114.45943 146.43378 114.81961 146.6708 115.1798 147.05088 115.75934 147.2879 116.12204 147.52494 116.48474 147.9051 117.06853 148.14215 117.43379 148.3792 117.79904 148.75939 118.38686 148.99642 118.75461 149.23343 119.12236 149.61348 119.7141 149.85051 120.08437 150.08754 120.45465 150.46775 121.05057 150.70478 121.42334 150.9418 121.79613 151.32186 122.39586 151.55889 122.77116 151.79592 123.14647 152.1761 123.75055 152.41315 124.1284 152.65019 124.50626 153.03037 125.11429 153.26738 125.49461 153.50441 125.87495 153.88446 126.4868 154.12149 126.86967 154.35852 127.25253 154.73873 127.86867 154.97576 128.25405 155.21279 128.6394 155.59285 129.25934 155.82988 129.64723 156.06691 130.03513 156.44709 130.65927 156.68413 131.04975 156.92118 131.4402 157.30135 132.0685 157.53836 132.46146 157.77539 132.85442 158.15546 133.48645 158.39249 133.8819 158.62952 134.27735 159.0097 134.91367 159.24674 135.31163 159.48377 135.70961 159.86382 136.34972 160.10085 136.75023 160.33788 137.15074 160.71807 137.79521 160.95511 138.19826 161.19216 138.6013 161.57233 139.24971 161.80934 139.65523 162.04637 140.06076 162.42644 140.713 162.66347 141.12104 162.9005 141.52907 163.28069 142.18563 163.51772 142.59618 163.75475 143.00673 164.13481 143.66707 164.37184 144.08017 164.60887 144.49326 164.98905 145.15792 165.22609 145.57357 165.46314 145.98921 165.8433 146.65782 166.08032 147.07595 166.31735 147.49405 166.69742 148.16649 166.93445 148.58713 167.17148 149.00777 167.55167 149.6845 167.7887 150.10767 168.02573 150.53086 168.40579 151.21146 168.64282 151.63715 168.87985 152.06284 169.26004 152.74759 169.49709 153.17581 169.73413 153.60404 170.11429 154.29286 170.35132 154.72359 170.58835 155.1543 170.9684 155.84693 171.20543 156.28015 171.44246 156.71338 171.82265 157.41031 172.05968 157.84607 172.2967 158.28183 172.67678 158.98264 172.9138 159.42092 173.15084 159.8592 173.53102 160.56417 173.76807 161.00499 174.00511 161.44583 174.38527 162.15486 174.6223 162.59816 174.85933 163.04148 175.2394 163.75429 175.47643 164.20012 175.71346 164.64595 176.09365 165.36304 176.33068 165.8114 176.5677 166.25978 176.94776 166.98079 177.18479 167.43167 177.42182 167.88254 177.802 168.6076 178.03905 169.061 178.2761 169.51442 178.65625 170.24372 178.89328 170.69962 179.13031 171.15552 179.51038 171.88852 179.7474 172.34694 179.98444 172.80535 180.36463 173.5427 180.60166 174.00366 180.83869 174.46463 181.21875 175.20586 181.45578 175.66934 181.69281 176.13283 182.07299 176.8782 182.31003 177.34421 182.54708 177.81021 182.92723 178.55953 183.16426 179.02802 183.40129 179.49652 183.78136 180.24977 184.01839 180.72081 184.25542 181.19184 184.6356 181.94942 184.87264 182.42298 185.10967 182.89653 185.48973 183.65782 185.72676 184.13388 185.96379 184.60994 186.34397 185.37558 186.58101 185.8542 186.81806 186.33281 187.19823 187.1024 187.43526 187.58347 187.67229 188.06453 188.05234 188.83785 188.28937 189.32146 188.5264 189.80509 188.90659 190.58292 189.14362 191.06908 189.38065 191.55524 189.76071 192.33679 189.99774 192.82544 190.23477 193.3141 190.61495 194.09978 190.85199 194.59098 191.08904 195.08217 191.46921 195.87197 191.70624 196.36568 191.94327 196.85939 192.32334 197.65314 192.56037 198.14936 192.7974 198.64559 193.17758 199.44345 193.41461 199.9422 193.65164 200.44095 194.26873 201.744 194.26873 201.744"/>
</g>
<path transform="matrix(1.00003,0,0,-1.00008,1.0964966,163.20578)" d="M51.05797 25.67659C51.05797 27.05217 49.94286 28.16728 48.56728 28.16728 47.1917 28.16728 46.07658 27.05217 46.07658 25.67659 46.07658 24.30101 47.1917 23.1859 48.56728 23.1859 49.94286 23.1859 51.05797 24.30101 51.05797 25.67659ZM48.56728 25.67659" fill="#ff0000"/>
<path transform="matrix(1.00003,0,0,-1.00008,1.0964966,163.20578)" stroke-width=".3985" stroke-linecap="butt" stroke-miterlimit="10" stroke-linejoin="miter" fill="none" stroke="#ff0000" d="M51.05797 25.67659C51.05797 27.05217 49.94286 28.16728 48.56728 28.16728 47.1917 28.16728 46.07658 27.05217 46.07658 25.67659 46.07658 24.30101 47.1917 23.1859 48.56728 23.1859 49.94286 23.1859 51.05797 24.30101 51.05797 25.67659ZM48.56728 25.67659"/>
<path transform="matrix(1.00003,0,0,-1.00008,1.0964966,163.20578)" d="M99.62524 55.02127C99.62524 56.39685 98.51013 57.51196 97.13455 57.51196 95.75897 57.51196 94.64386 56.39685 94.64386 55.02127 94.64386 53.64569 95.75897 52.53058 97.13455 52.53058 98.51013 52.53058 99.62524 53.64569 99.62524 55.02127ZM97.13455 55.02127" fill="#ff0000"/>
<path transform="matrix(1.00003,0,0,-1.00008,1.0964966,163.20578)" stroke-width=".3985" stroke-linecap="butt" stroke-miterlimit="10" stroke-linejoin="miter" fill="none" stroke="#ff0000" d="M99.62524 55.02127C99.62524 56.39685 98.51013 57.51196 97.13455 57.51196 95.75897 57.51196 94.64386 56.39685 94.64386 55.02127 94.64386 53.64569 95.75897 52.53058 97.13455 52.53058 98.51013 52.53058 99.62524 53.64569 99.62524 55.02127ZM97.13455 55.02127"/>
<path transform="matrix(1.00003,0,0,-1.00008,1.0964966,163.20578)" d="M148.19252 113.71063C148.19252 115.08623 147.07741 116.20132 145.70183 116.20132 144.32625 116.20132 143.21114 115.08623 143.21114 113.71063 143.21114 112.33505 144.32625 111.21994 145.70183 111.21994 147.07741 111.21994 148.19252 112.33505 148.19252 113.71063ZM145.70183 113.71063" fill="#ff0000"/>
<path transform="matrix(1.00003,0,0,-1.00008,1.0964966,163.20578)" stroke-width=".3985" stroke-linecap="butt" stroke-miterlimit="10" stroke-linejoin="miter" fill="none" stroke="#ff0000" d="M148.19252 113.71063C148.19252 115.08623 147.07741 116.20132 145.70183 116.20132 144.32625 116.20132 143.21114 115.08623 143.21114 113.71063 143.21114 112.33505 144.32625 111.21994 145.70183 111.21994 147.07741 111.21994 148.19252 112.33505 148.19252 113.71063ZM145.70183 113.71063"/>
<path transform="matrix(1.00003,0,0,-1.00008,1.0964966,163.20578)" stroke-width=".3985" stroke-linecap="butt" stroke-miterlimit="10" stroke-linejoin="miter" fill="none" stroke="#ff0000" d=""/>
<use data-text="x" xlink:href="#font_3_1" transform="matrix(9.962899,0,0,-9.963397,186.15705,152.3489)"/>
<use data-text="y" xlink:href="#font_3_2" transform="matrix(9.962899,0,0,-9.963397,28.90033,9.607498)"/>
</svg>
