<svg xmlns="http://www.w3.org/2000/svg" xmlns:xlink="http://www.w3.org/1999/xlink" xmlns:inkscape="http://www.inkscape.org/namespaces/inkscape" version="1.1" width="197" height="165" viewBox="0 0 197 165">
<defs>
<path id="font_1_5" d="M.1269989 .07699585 .23298645 .18003845C.3889923 .31811524 .44898988 .3721466 .44898988 .47216798 .44898988 .5860901 .35899354 .6660156 .23699951 .6660156 .12399292 .6660156 .049987794 .57411196 .049987794 .48516847 .049987794 .4291687 .099990848 .4291687 .102996829 .4291687 .11999512 .4291687 .15499878 .44117738 .15499878 .48217774 .15499878 .5081787 .13699341 .5341797 .101989749 .5341797 .09399414 .5341797 .09199524 .5341797 .08898926 .5331726 .11199951 .59806826 .1659851 .63500979 .22399903 .63500979 .31498719 .63500979 .35798646 .5541382 .35798646 .47216798 .35798646 .39215089 .30799867 .31311036 .25299073 .25108338L.06098938 .036987306C.049987794 .025985718 .049987794 .023986817 .049987794 0H.42099L.44898988 .17404175H.42399598C.4189911 .14402771 .4119873 .1000061 .4019928 .084991458 .394989 .07699585 .32899476 .07699585 .30699159 .07699585H.1269989Z"/>
<path id="font_1_6" d="M.2939911 .16503906V.07800293C.2939911 .041992189 .2919922 .0309906 .21798706 .0309906H.19699097V0C.23799134 .0029907227 .2899933 .0029907227 .33198548 .0029907227 .37399293 .0029907227 .4269867 .0029907227 .46798707 0V.0309906H.44699098C.37298585 .0309906 .37098695 .041992189 .37098695 .07800293V.16503906H.47099305V.19602967H.37098695V.65075686C.37098695 .67074587 .37098695 .6767578 .35499574 .6767578 .34599305 .6767578 .34298707 .6767578 .33499146 .66474917L.027999878 .19602967V.16503906H.2939911M.2999878 .19602967H.055999757L.2999878 .5688019V.19602967Z"/>
<path id="font_1_7" d="M.13198853 .327713V.35173036C.13198853 .6047821 .2559967 .64100649 .30699159 .64100649 .33099366 .64100649 .37298585 .634964 .394989 .6007538 .37998963 .6007538 .33999635 .6007538 .33999635 .5557556 .33999635 .524765 .3639984 .5097656 .38598634 .5097656 .4019928 .5097656 .43199159 .51875308 .43199159 .5577545 .43199159 .6178589 .3880005 .6660156 .30499269 .6660156 .1769867 .6660156 .041992189 .5367584 .041992189 .31570436 .041992189 .048553468 .1579895-.022460938 .25099183-.022460938 .3619995-.022460938 .45700074 .07156372 .45700074 .2036438 .45700074 .33070375 .36799623 .4267578 .25698854 .4267578 .18899536 .4267578 .1519928 .37573243 .13198853 .327713M.25099183 .0055389406C.18798828 .0055389406 .1579895 .06556702 .1519928 .080566409 .13398743 .127594 .13398743 .2076416 .13398743 .22564698 .13398743 .30369569 .1659851 .40374757 .2559967 .40374757 .27198792 .40374757 .31799317 .40374757 .34899903 .34172059 .36698915 .30470277 .36698915 .2536621 .36698915 .20463562 .36698915 .15661621 .36698915 .10658264 .34999085 .0705719 .31999208 .010528564 .27398683 .0055389406 .25099183 .0055389406Z"/>
<path id="font_1_8" d="M.16299439 .4569702C.116989139 .486969 .11299133 .52098086 .11299133 .5379791 .11299133 .598999 .17799378 .64100649 .24899292 .64100649 .32199098 .64100649 .38598634 .58898928 .38598634 .51698306 .38598634 .45996095 .34700013 .4119568 .2869873 .37695313L.16299439 .4569702M.30899049 .36193849C.3809967 .3989563 .42999269 .45095826 .42999269 .51698306 .42999269 .6090088 .34098817 .6660156 .25 .6660156 .1499939 .6660156 .068984989 .59199526 .068984989 .49897767 .068984989 .4809723 .070999149 .43595887 .11299133 .38894654 .12399292 .37695313 .16099549 .35194398 .18598938 .33494569 .12799073 .30592347 .041992189 .24984741 .041992189 .15072632 .041992189 .04458618 .14399719-.022460938 .24899292-.022460938 .3619995-.022460938 .45700074 .06060791 .45700074 .16773987 .45700074 .20379639 .44599916 .24885559 .4079895 .2909088 .3889923 .31193543 .37298585 .3219452 .30899049 .36193849M.20899964 .3199463 .33198548 .24183655C.3600006 .2228241 .40699769 .19277954 .40699769 .13169861 .40699769 .05760193 .33198548 .0055389406 .25 .0055389406 .1639862 .0055389406 .09199524 .067611698 .09199524 .15072632 .09199524 .20880127 .12399292 .27288819 .20899964 .3199463Z"/>
<path id="font_1_4" d="M.2939911 .64004519C.2939911 .66400149 .2939911 .6660156 .2709961 .6660156 .20899964 .60227969 .12098694 .60227969 .08898926 .60227969V.57128909C.10899353 .57128909 .16799927 .57128909 .21998596 .5972748V.07902527C.21998596 .042999269 .21699524 .0309906 .1269989 .0309906H.09498596V0C.12998963 .0029907227 .21699524 .0029907227 .25698854 .0029907227 .29699708 .0029907227 .38398744 .0029907227 .4189911 0V.0309906H.3869934C.29699708 .0309906 .2939911 .041992189 .2939911 .07902527V.64004519Z"/>
<path id="font_1_3" d="M.45999146 .31976319C.45999146 .39982606 .45498658 .47988893 .41999818 .5539398 .37399293 .65000918 .2919922 .6660156 .25 .6660156 .18998719 .6660156 .116989139 .64001467 .07598877 .54693606 .04399109 .47789 .038986207 .39982606 .038986207 .31976319 .038986207 .24472046 .042999269 .15464783 .083999637 .07859802 .1269989-.0024719239 .19999695-.022460938 .24899292-.022460938 .30299378-.022460938 .3789978-.0014648438 .4229889 .09359741 .45498658 .16265869 .45999146 .2407074 .45999146 .31976319M.24899292-.00047302247C.20999146-.00047302247 .15098572 .024551392 .1329956 .12062073 .12199402 .18066406 .12199402 .2727356 .12199402 .3317871 .12199402 .39582826 .12199402 .46188355 .12998963 .5159149 .14898682 .63500979 .22399903 .64401248 .24899292 .64401248 .28199769 .64401248 .34799195 .6259918 .36698915 .52693179 .3769989 .47088624 .3769989 .39482118 .3769989 .3317871 .3769989 .25672914 .3769989 .18867493 .3659973 .12461853 .35099793 .029556275 .2939911-.00047302247 .24899292-.00047302247Z"/>
<clipPath id="clip_2">
<path transform="matrix(1.00002,0,0,-1.00002,1.095665,163.19095)" d="M0 0H194.27399V161.3918H0Z"/>
</clipPath>
<path id="font_3_4" d="M.48599244 .38136292C.48999024 .39537049 .48999024 .39736939 .48999024 .40437318 .48999024 .42237855 .47599793 .43138124 .46099855 .43138124 .45098878 .43138124 .43499757 .42536927 .42599488 .41036988 .42399598 .405365 .41600038 .37435914 .4119873 .35635377 .40499879 .33035279 .397995 .30334474 .3919983 .27633668L.34700013 .09628296C.34298707 .08126831 .2999878 .011245728 .23399353 .011245728 .18299866 .011245728 .17199707 .055267335 .17199707 .0922699 .17199707 .1382904 .18899536 .20030213 .22299195 .28833009 .23899842 .3293457 .24299622 .3403473 .24299622 .36035157 .24299622 .405365 .21099854 .4423828 .16099549 .4423828 .06599426 .4423828 .0289917 .29733277 .0289917 .28833009 .0289917 .27833558 .038986207 .27833558 .040985109 .27833558 .050994874 .27833558 .051986696 .28033448 .056991579 .29634095 .083999637 .3903656 .12399292 .42037965 .1579895 .42037965 .1659851 .42037965 .18299866 .42037965 .18299866 .3883667 .18299866 .36335755 .17298889 .3373413 .1659851 .31834413 .12599182 .21231079 .10798645 .1552887 .10798645 .10827637 .10798645 .019256592 .17098999-.0107421879 .22999573-.0107421879 .2689972-.0107421879 .30299378 .0062561037 .33099366 .03425598 .31799317-.017745972 .30599977-.06674194 .2659912-.11973572 .23999024-.15385437 .20199585-.18309021 .1559906-.18309021 .14199829-.18309021 .09700012-.18005371 .07998657-.14074707 .09599304-.14074707 .10899353-.14074707 .12298584-.1287384 .1329956-.11973572 .14299011-.10673523 .14299011-.08773804 .14299011-.056747438 .115997318-.052734376 .10598755-.052734376 .08299255-.052734376 .049987794-.068740848 .049987794-.11773682 .049987794-.16796875 .09399414-.20507813 .1559906-.20507813 .25898744-.20507813 .3619995-.11373901 .3899994-.00074768069L.48599244 .38136292Z"/>
<path id="font_1_9" d="M.68699648 .32714845C.70199587 .32714845 .72099307 .32714845 .72099307 .34713746 .72099307 .36714173 .70199587 .36714173 .6879883 .36714173H.08898926C.07499695 .36714173 .055999757 .36714173 .055999757 .34713746 .055999757 .32714845 .07499695 .32714845 .08999634 .32714845H.68699648M.6879883 .13284302C.70199587 .13284302 .72099307 .13284302 .72099307 .15284729 .72099307 .17285156 .70199587 .17285156 .68699648 .17285156H.08999634C.07499695 .17285156 .055999757 .17285156 .055999757 .15284729 .055999757 .13284302 .07499695 .13284302 .08898926 .13284302H.6879883Z"/>
<path id="font_3_1" d="M.36698915 .3996582H.45298768C.47299195 .3996582 .48298646 .3996582 .48298646 .41966249 .48298646 .43066407 .47299195 .43066407 .45599366 .43066407H.37298585L.3939972 .5449524C.397995 .5660095 .4119873 .6370239 .41799928 .6490326 .4269867 .66804507 .44400025 .68307498 .46499635 .68307498 .46899415 .68307498 .49499513 .68307498 .5139923 .66503909 .46998597 .661026 .45999146 .6260376 .45999146 .6110382 .45999146 .58802798 .47799684 .57603457 .49699403 .57603457 .522995 .57603457 .5519867 .5980377 .5519867 .6360321 .5519867 .6820679 .5059967 .7050781 .46499635 .7050781 .43099977 .7050781 .36799623 .68707278 .33799745 .58802798 .33198548 .56700137 .32899476 .5569763 .30499269 .43066407H.23599243C.21699524 .43066407 .20599365 .43066407 .20599365 .4116516 .20599365 .3996582 .21499634 .3996582 .23399353 .3996582H.2999878L.22499085 .0048828127C.20698548-.09207153 .18998719-.18309021 .13798523-.18309021 .13398743-.18309021 .10899353-.18309021 .08999634-.16506958 .13598633-.1620636 .14498902-.12606812 .14498902-.111068729 .14498902-.08807373 .1269989-.07606506 .10798645-.07606506 .08198547-.07606506 .052993776-.09806824 .052993776-.13606262 .052993776-.18109131 .09700012-.20507813 .13798523-.20507813 .19299317-.20507813 .23298645-.14607239 .25099183-.108062747 .2829895-.04508972 .30599977 .07583618 .30699159 .082839969L.36698915 .3996582Z"/>
<path id="font_1_1" d="M.33099366-.2400055C.33099366-.23701477 .33099366-.23500061 .31399537-.21800232 .18899536-.0920105 .15699768 .09700012 .15699768 .25 .15699768 .42399598 .19499207 .59799197 .31799317 .72299197 .33099366 .73498538 .33099366 .7369995 .33099366 .73999026 .33099366 .746994 .32699586 .75 .32099916 .75 .31098939 .75 .22099304 .6819916 .1619873 .5549927 .11099243 .44499208 .09899902 .33399964 .09899902 .25 .09899902 .17199707 .10998535 .050994874 .16499329-.06201172 .22499085-.18501282 .31098939-.25 .32099916-.25 .32699586-.25 .33099366-.24700928 .33099366-.2400055Z"/>
<path id="font_3_2" d="M.20599365 .3996582H.2999878C.31999208 .3996582 .32998658 .3996582 .32998658 .41966249 .32998658 .43066407 .31999208 .43066407 .3019867 .43066407H.21398926C.25 .5724945 .25498963 .59246829 .25498963 .59846499 .25498963 .61546328 .24299622 .62545779 .22599793 .62545779 .22299195 .62545779 .19499207 .62446597 .18598938 .58947756L.14698792 .43066407H.052993776C.032989503 .43066407 .022994996 .43066407 .022994996 .4116516 .022994996 .3996582 .0309906 .3996582 .050994874 .3996582H.13899231C.066986087 .11608887 .06298828 .099121097 .06298828 .08114624 .06298828 .02722168 .100997928-.0107421879 .15499878-.0107421879 .25698854-.0107421879 .31399537 .13505554 .31399537 .14305115 .31399537 .1530304 .30599977 .1530304 .3019867 .1530304 .29299928 .1530304 .2919922 .15003968 .2869873 .13905335 .24398804 .035217287 .19099427 .011245728 .15699768 .011245728 .13598633 .011245728 .12599182 .024230957 .12599182 .057174684 .12599182 .08114624 .12799073 .088134769 .13198853 .10510254L.20599365 .3996582Z"/>
<path id="font_1_2" d="M.2889862 .25C.2889862 .32798768 .27799989 .44898988 .22299195 .56199648 .16299439 .68499758 .07699585 .75 .066986087 .75 .06098938 .75 .056991579 .74598696 .056991579 .73999026 .056991579 .7369995 .056991579 .73498538 .07598877 .71699526 .17399597 .6179962 .23098755 .45899964 .23098755 .25 .23098755 .07899475 .19400025-.09700012 .069992069-.2230072 .056991579-.23500061 .056991579-.23701477 .056991579-.2400055 .056991579-.2460022 .06098938-.25 .066986087-.25 .07699585-.25 .16699219-.18200684 .22599793-.055007936 .2769928 .054992677 .2889862 .16600037 .2889862 .25Z"/>
<path id="font_3_3" d="M.33399964 .30233766C.33999635 .32835389 .36299134 .42037965 .43299867 .42037965 .43798829 .42037965 .46199037 .42037965 .48298646 .40734864 .45498658 .402359 .43499757 .37734986 .43499757 .35334779 .43499757 .33735658 .44599916 .31835938 .47299195 .31835938 .49499513 .31835938 .5269928 .3363495 .5269928 .37635804 .5269928 .42837525 .46798707 .4423828 .43399049 .4423828 .37599183 .4423828 .34098817 .38935853 .32899476 .36634828 .3039856 .43237306 .25 .4423828 .22099304 .4423828 .116989139 .4423828 .05999756 .3133545 .05999756 .28834535 .05999756 .27833558 .069992069 .27833558 .07199097 .27833558 .07998657 .27833558 .08299255 .28033448 .084991458 .28933717 .11898804 .39535523 .18499756 .42037965 .21899414 .42037965 .23799134 .42037965 .272995 .4113617 .272995 .35334779 .272995 .32235719 .2559967 .25532533 .21899414 .11528015 .20298767 .053268434 .16799927 .011245728 .12399292 .011245728 .117996219 .011245728 .09498596 .011245728 .07398987 .024276734 .09899902 .029266358 .12098694 .05027771 .12098694 .07827759 .12098694 .105270389 .09899902 .11328125 .083999637 .11328125 .053985597 .11328125 .0289917 .08728027 .0289917 .055267335 .0289917 .009246826 .07899475-.0107421879 .12298584-.0107421879 .18899536-.0107421879 .22499085 .059280397 .22799683 .0652771 .23999024 .028274537 .27598573-.0107421879 .33599855-.0107421879 .43899537-.0107421879 .49598695 .118270877 .49598695 .14328003 .49598695 .1532898 .4869995 .1532898 .48399354 .1532898 .47499085 .1532898 .47299195 .14929199 .47099305 .14228821 .43798829 .03527832 .36999513 .011245728 .33799745 .011245728 .29899598 .011245728 .2829895 .043273927 .2829895 .07727051 .2829895 .09927368 .2889862 .121276859 .2999878 .16529846L.33399964 .30233766Z"/>
</defs>
<path transform="matrix(1.00002,0,0,-1.00002,1.095665,163.19095)" stroke-width=".19925" stroke-linecap="butt" stroke-miterlimit="10" stroke-linejoin="miter" fill="none" stroke="#7f807f" d="M22.41623 47.00012V49.83495M52.30453 47.00012V49.83495M82.19284 47.00012V49.83495M112.08115 47.00012V49.83495M141.96945 47.00012V49.83495M171.85776 47.00012V49.83495"/>
<path transform="matrix(1.00002,0,0,-1.00002,1.095665,163.19095)" stroke-width=".19925" stroke-linecap="butt" stroke-miterlimit="10" stroke-linejoin="miter" fill="none" stroke="#7f807f" d="M37.36038 46.2916V50.54346M67.24869 46.2916V50.54346M97.137 46.2916V50.54346M127.0253 46.2916V50.54346M156.9136 46.2916V50.54346M186.80191 46.2916V50.54346"/>
<path transform="matrix(1.00002,0,0,-1.00002,1.095665,163.19095)" stroke-width=".19925" stroke-linecap="butt" stroke-miterlimit="10" stroke-linejoin="miter" fill="none" stroke="#7f807f" d=""/>
<path transform="matrix(1.00002,0,0,-1.00002,1.095665,163.19095)" stroke-width=".3985" stroke-linecap="butt" stroke-miterlimit="10" stroke-linejoin="miter" fill="none" stroke="#000000" d="M0 48.41753H192.28145"/>
<path transform="matrix(1.00002,0,0,-1.00002,193.38095,114.772449)" d="M1.99252 0-1.19551 1.59401 0 0-1.19551-1.59401"/>
<path transform="matrix(1.00002,0,0,-1.00002,1.095665,163.19095)" stroke-width=".3985" stroke-linecap="butt" stroke-miterlimit="10" stroke-linejoin="miter" fill="none" stroke="#000000" d="M7.47208 0V159.39928"/>
<path transform="matrix(0,-1.00002,-1.00002,-0,8.567895,3.7884827)" d="M1.99252 0-1.19551 1.59401 0 0-1.19551-1.59401"/>
<use data-text="2" xlink:href="#font_1_5" transform="matrix(9.962799,0,0,-9.962799,35.966363,126.83922)"/>
<use data-text="4" xlink:href="#font_1_6" transform="matrix(9.962799,0,0,-9.962799,65.854969,126.83922)"/>
<use data-text="6" xlink:href="#font_1_7" transform="matrix(9.962799,0,0,-9.962799,95.74356,126.83922)"/>
<use data-text="8" xlink:href="#font_1_8" transform="matrix(9.962799,0,0,-9.962799,125.63316,126.83922)"/>
<use data-text="1" xlink:href="#font_1_4" transform="matrix(9.962799,0,0,-9.962799,153.0307,126.83922)"/>
<use data-text="0" xlink:href="#font_1_3" transform="matrix(9.962799,0,0,-9.962799,158.01212,126.83922)"/>
<use data-text="1" xlink:href="#font_1_4" transform="matrix(9.962799,0,0,-9.962799,182.92032,126.83922)"/>
<use data-text="2" xlink:href="#font_1_5" transform="matrix(9.962799,0,0,-9.962799,187.9017,126.83922)"/>
<g clip-path="url(#clip_2)">
<path transform="matrix(1.00002,0,0,-1.00002,1.095665,163.19095)" stroke-width="1.59404" stroke-linecap="butt" stroke-miterlimit="10" stroke-linejoin="miter" fill="none" stroke="#0000ff" d="M7.47208 48.41753 7.77245 50.35419 8.07283 52.27129 8.37321 54.16882 8.67361 56.0468 8.97401 57.90523 9.27438 59.74406 9.57478 61.56334 9.87515 63.36307 10.17554 65.14323 10.47592 66.90385 10.7763 68.64488 11.07672 70.36636 11.37709 72.06827 11.67749 73.75063 11.97786 75.4134 12.27824 77.05664 12.57863 78.68031 12.87901 80.28441 13.1794 81.86896 13.4798 83.43393 13.7802 84.97934 14.08057 86.50519 14.38095 88.01147 14.68134 89.4982 14.98172 90.9654 15.2821 92.41298 15.5825 93.84103 15.8829 95.2495 16.18327 96.63843 16.48366 98.00777 16.78404 99.35756 17.08443 100.68779 17.38481 101.99847 17.6852 103.28958 17.98561 104.56108 18.28598 105.8131 18.58636 107.04552 18.88675 108.25836 19.18713 109.45166 19.48752 110.6254 19.7879 111.77956 20.08829 112.91417 20.38869 114.02922 20.68907 115.12468 20.98946 116.2006 21.28984 117.25697 21.59023 118.29376 21.89061 119.31099 22.191 120.30865 22.4914 121.28685 22.7918 122.24535 23.09216 123.18431 23.39255 124.10373 23.69293 125.00359 23.99332 125.88387 24.2937 126.74458 24.59409 127.58575 24.8945 128.40746 25.19487 129.20944 25.49525 129.99193 25.79564 130.75484 26.09602 131.4982 26.39641 132.22199 26.6968 132.92621 26.99718 133.61084 27.29758 134.27603 27.59796 134.92157 27.89835 135.54758 28.19873 136.15404 28.49911 136.74079 28.7995 137.3081 29.09988 137.85588 29.40027 138.38396 29.70067 138.89266 30.00105 139.38173 30.30144 139.85112 30.60182 140.30107 30.9022 140.73146 31.20259 141.14229 31.50298 141.53343 31.80338 141.90518 32.10376 142.25733 32.40414 142.5898 32.70453 142.9028 33.00491 143.19625 33.3053 143.47014 33.60568 143.72437 33.90607 143.95912 34.20647 144.17436 34.50685 144.3699 34.80724 144.54596 35.10762 144.70249 35.408 144.83945 35.70839 144.95673 36.00877 145.05455 36.30916 145.13282 36.60956 145.19144 36.90994 145.23059 37.21033 145.25017 37.51071 145.25019 37.81111 145.23056 38.11148 145.19142 38.41188 145.13278 38.71223 145.05452 39.01265 144.95665 39.31303 144.8393 39.6134 144.70235 39.9138 144.54579 40.21417 144.36983 40.51457 144.17415 40.81497 143.95888 41.11534 143.72425 41.41574 143.46985 41.71611 143.196 42.01651 142.90248 42.31693 142.58951 42.61728 142.25696 42.91768 141.90476 43.21805 141.53318 43.51845 141.14186 43.81883 140.73107 44.11919 140.30072 44.4196 139.85071 44.71996 139.38124 45.02036 138.89218 45.32077 138.38349 45.62112 137.85533 45.92154 137.30757 46.2219 136.74031 46.52231 136.15335 46.82271 135.5469 47.12308 134.92096 47.42348 134.27532 47.72383 133.61025 48.02425 132.92554 48.32463 132.22132 48.625 131.49755 48.9254 130.75409 49.22577 129.99121 49.52617 129.2087 49.82657 128.40654 50.12694 127.58498 50.42734 126.74376 50.7277 125.88304 51.0281 125.0027 51.32852 124.10278 51.62888 123.18341 51.92928 122.24432 52.22964 121.28584 52.53004 120.3077 52.83043 119.30992 53.13078 118.29277 53.4312 117.25592 53.73155 116.19963 54.03195 115.12361 54.33237 114.02808 54.63272 112.91312 54.93314 111.7784 55.23349 110.62431 55.5339 109.45052 55.8343 108.25711 56.13466 107.04436 56.43507 105.81187 56.73541 104.55995 57.03583 103.28828 57.33623 101.99712 57.6366 100.68654 57.937 99.3562 58.23735 98.00653 58.53777 96.63707 58.83817 95.24803 59.13853 93.83968 59.43893 92.41154 59.7393 90.96405 60.0397 89.4968 60.3401 88.00995 60.64047 86.50377 60.94087 84.97778 61.24121 83.43251 61.54161 81.86739 61.84203 80.28276 62.14238 78.67879 62.4428 77.05501 62.74315 75.4119 63.04355 73.749 63.34396 72.06653 63.64432 70.36473 63.94473 68.64314 64.24509 66.90225 64.5455 65.14151 64.8459 63.36124 65.14624 61.56165 65.44666 59.74223 65.74701 57.90352 66.04742 56.04497 66.34782 54.16687 66.6482 52.26949 66.9486 50.35226 67.24895 48.41576"/>
<path transform="matrix(1.00002,0,0,-1.00002,1.095665,163.19095)" stroke-width="1.59404" stroke-linecap="butt" stroke-miterlimit="10" stroke-linejoin="miter" fill="none" stroke="#0000ff" d="M67.24869 48.41753 67.887 47.33554 68.5253 46.2539 69.16364 45.17517 69.80194 44.09966 70.44028 43.0293 71.07858 41.96509 71.71689 40.90797 72.35522 39.85924 72.99353 38.81955 73.63184 37.79117 74.27017 36.77504 74.9085 35.77248 75.54678 34.78282 76.18512 33.80963 76.82344 32.85226 77.46176 31.91231 78.10007 30.99173 78.73839 30.09052 79.37671 29.20998 80.01501 28.35039 80.65334 27.51407 81.29166 26.70096 81.92996 25.91176 82.56828 25.14806 83.2066 24.41115 83.84492 23.70038 84.48323 23.01866 85.12155 22.36469 85.75987 21.74075 86.39821 21.1462 87.0365 20.58261 87.67482 20.05034 88.31316 19.55002 88.95145 19.08199 89.58977 18.64656 90.2281 18.24533 90.86641 17.87671 91.50471 17.54393 92.14305 17.24535 92.78136 16.98227 93.41966 16.7544 94.058 16.56201 94.6963 16.40579 95.33464 16.28604 95.97295 16.20114 96.61125 16.15337 97.24959 16.1411 97.88791 16.16563 98.5262 16.22632 99.16454 16.32315 99.80286 16.45647 100.44115 16.62495 101.07948 16.83057 101.7178 17.07104 102.35612 17.34735 102.99443 17.65819 103.63275 18.00323 104.27107 18.38315 104.9094 18.79697 105.5477 19.24306 106.18602 19.72238 106.82434 20.234 107.46265 20.77725 108.10097 21.35147 108.73929 21.95702 109.3776 22.59225 110.01591 23.25623 110.65424 23.94826 111.29257 24.66873 111.93086 25.415 112.56918 26.18742 113.20752 26.98502 113.84583 27.80617 114.48413 28.65091 115.12247 29.51758 115.76077 30.4062 116.39908 31.31386 117.03741 32.24187 117.67572 33.18794 118.31406 34.15178 118.95236 35.13046 119.59067 36.12495 120.229 37.13269 120.86731 38.153 121.50562 39.1856 122.14395 40.22786 122.78227 41.27982 123.42056 42.33919 124.0589 43.40599 124.69722 44.47893 125.33554 45.55508 125.97385 46.63512 126.61217 47.71709 127.25049 48.79938 127.8888 49.88135 128.52712 50.96202 129.16544 52.03947 129.80376 53.11403 130.44207 54.18213 131.08039 55.24408 131.71874 56.2986 132.35701 57.34378 132.99535 58.37927 133.6336 59.4038 134.27199 60.41507 134.91033 61.41344 135.54859 62.39697 136.18695 63.36435 136.8252 64.31624 137.46355 65.24907 138.10193 66.1632 138.74018 67.05763 139.37853 67.93108 140.01679 68.78323 140.65514 69.61215 141.29349 70.41685 141.93175 71.1954 142.57012 71.94942 143.20838 72.67761 143.84673 73.37741 144.48508 74.0501 145.12334 74.6934 145.76169 75.30766 146.39994 75.89125 147.03832 76.4445 147.67667 76.96548 148.31493 77.4545 148.95328 77.91122 149.59154 78.33472 150.2299 78.72368 150.86826 79.07939 151.50652 79.3996 152.14487 79.68558 152.78313 79.93637 153.42148 80.152 154.05985 80.33179 154.6981 80.4764 155.33646 80.58292 155.9747 80.65553 156.61307 80.69104 157.25142 80.6904 157.88967 80.65263 158.52805 80.57806 159.1663 80.46898 159.80464 80.32211 160.44301 80.1407 161.08127 79.92314 161.7196 79.6704 162.3579 79.38184 162.99625 79.05937 163.63459 78.70204 164.27285 78.31052 164.91121 77.8854 165.54946 77.42706 166.18784 76.93643 166.82619 76.41287 167.46443 75.85834 168.1028 75.2728 168.74106 74.65692 169.3794 74.01169 170.01778 73.33739 170.65604 72.63501 171.29438 71.90617 171.93264 71.15118 172.571 70.36938 173.20934 69.56436 173.8476 68.73386 174.48598 67.88074 175.12424 67.00598 175.76258 66.11124 176.40094 65.1955 177.0392 64.26071 177.67754 63.30849 178.31583 62.33983 178.95418 61.35535 179.59252 60.356 180.23078 59.34439 180.86914 58.31892 181.50739 57.28246 182.14577 56.23695 182.78412 55.18243 183.42237 54.12015 184.06073 53.05077 184.69899 51.97719 185.33733 50.89876 185.97571 49.81776 186.61397 48.7361 187.2523 47.65413 187.89057 46.57217 188.52893 45.49246 189.16727 44.41566 189.80553 43.34401 190.44391 42.2772 191.08216 41.21817 191.7205 40.16653 192.35887 39.12491 192.99712 38.09329 193.63547 37.07362 194.27376 36.06685"/>
<use data-text="y" xlink:href="#font_3_4" transform="matrix(9.962799,0,0,-9.962799,50.434656,20.426102)"/>
<use data-text="=" xlink:href="#font_1_9" transform="matrix(9.962799,0,0,-9.962799,58.443819,20.426102)"/>
<use data-text="f" xlink:href="#font_3_1" transform="matrix(9.962799,0,0,-9.962799,68.96002,20.426102)"/>
<use data-text="(" xlink:href="#font_1_1" transform="matrix(9.962799,0,0,-9.962799,74.91014,20.426102)"/>
<use data-text="t" xlink:href="#font_3_2" transform="matrix(9.962799,0,0,-9.962799,78.78522,20.426102)"/>
<use data-text=")" xlink:href="#font_1_2" transform="matrix(9.962799,0,0,-9.962799,82.38229,20.426102)"/>
</g>
<use data-text="x" xlink:href="#font_3_3" transform="matrix(9.962799,0,0,-9.962799,186.15937,111.25291)"/>
<use data-text="y" xlink:href="#font_3_4" transform="matrix(9.962799,0,0,-9.962799,12.087883,9.6058659)"/>
</svg>
