<svg xmlns="http://www.w3.org/2000/svg" xmlns:xlink="http://www.w3.org/1999/xlink" xmlns:inkscape="http://www.inkscape.org/namespaces/inkscape" version="1.1" width="236" height="107" viewBox="0 0 236 107">
<defs>
<path id="font_1_5" d="M.33399964 .30233766C.33999635 .32835389 .36299134 .42037965 .43299867 .42037965 .43798829 .42037965 .46199037 .42037965 .48298646 .40734864 .45498658 .402359 .43499757 .37734986 .43499757 .35334779 .43499757 .33735658 .44599916 .31835938 .47299195 .31835938 .49499513 .31835938 .5269928 .3363495 .5269928 .37635804 .5269928 .42837525 .46798707 .4423828 .43399049 .4423828 .37599183 .4423828 .34098817 .38935853 .32899476 .36634828 .3039856 .43237306 .25 .4423828 .22099304 .4423828 .116989139 .4423828 .05999756 .3133545 .05999756 .28834535 .05999756 .27833558 .069992069 .27833558 .07199097 .27833558 .07998657 .27833558 .08299255 .28033448 .084991458 .28933717 .11898804 .39535523 .18499756 .42037965 .21899414 .42037965 .23799134 .42037965 .272995 .4113617 .272995 .35334779 .272995 .32235719 .2559967 .25532533 .21899414 .11528015 .20298767 .053268434 .16799927 .011245728 .12399292 .011245728 .117996219 .011245728 .09498596 .011245728 .07398987 .024276734 .09899902 .029266358 .12098694 .05027771 .12098694 .07827759 .12098694 .105270389 .09899902 .11328125 .083999637 .11328125 .053985597 .11328125 .0289917 .08728027 .0289917 .055267335 .0289917 .009246826 .07899475-.0107421879 .12298584-.0107421879 .18899536-.0107421879 .22499085 .059280397 .22799683 .0652771 .23999024 .028274537 .27598573-.0107421879 .33599855-.0107421879 .43899537-.0107421879 .49598695 .118270877 .49598695 .14328003 .49598695 .1532898 .4869995 .1532898 .48399354 .1532898 .47499085 .1532898 .47299195 .14929199 .47099305 .14228821 .43798829 .03527832 .36999513 .011245728 .33799745 .011245728 .29899598 .011245728 .2829895 .043273927 .2829895 .07727051 .2829895 .09927368 .2889862 .121276859 .2999878 .16529846L.33399964 .30233766Z"/>
<path id="font_2_1" d="M.5159912 .31925965C.5159912 .42918397 .5029907 .50813296 .45700074 .5780945 .42599488 .62405398 .3639984 .6640625 .28399659 .6640625 .051986696 .6640625 .051986696 .39120484 .051986696 .31925965 .051986696 .2472992 .051986696-.01953125 .28399659-.01953125 .5159912-.01953125 .5159912 .2472992 .5159912 .31925965M.28399659 .008468628C.23799134 .008468628 .1769867 .035446168 .15699768 .117385867 .14299011 .17634583 .14299011 .25830079 .14299011 .33224488 .14299011 .40519715 .14299011 .4811554 .1579895 .53611758 .1789856 .6150665 .24299622 .63604739 .28399659 .63604739 .33799745 .63604739 .3899994 .6030731 .4079895 .545105 .42399598 .4911499 .4249878 .41918946 .4249878 .33224488 .4249878 .25830079 .4249878 .18434143 .4119873 .12138367 .3919983 .030441285 .32398988 .008468628 .28399659 .008468628Z"/>
<path id="font_3_4" d="M.68699648 .32714845C.70199587 .32714845 .72099307 .32714845 .72099307 .34713746 .72099307 .36714173 .70199587 .36714173 .6879883 .36714173H.08898926C.07499695 .36714173 .055999757 .36714173 .055999757 .34713746 .055999757 .32714845 .07499695 .32714845 .08999634 .32714845H.68699648M.6879883 .13284302C.70199587 .13284302 .72099307 .13284302 .72099307 .15284729 .72099307 .17285156 .70199587 .17285156 .68699648 .17285156H.08999634C.07499695 .17285156 .055999757 .17285156 .055999757 .15284729 .055999757 .13284302 .07499695 .13284302 .08898926 .13284302H.6879883Z"/>
<path id="font_1_1" d="M.37298585 .37835694C.35499574 .41537477 .32598878 .4423828 .2809906 .4423828 .1639862 .4423828 .039993287 .29533387 .039993287 .14929199 .039993287 .055267335 .09498596-.0107421879 .17298889-.0107421879 .19299317-.0107421879 .24299622-.0067443849 .30299378 .06427002 .31098939 .022247315 .34599305-.0107421879 .3939972-.0107421879 .42900086-.0107421879 .45199586 .012252808 .46798707 .044265748 .4850006 .08027649 .49798585 .14129639 .49798585 .14329529 .49798585 .1532898 .4889984 .1532898 .48599244 .1532898 .47599793 .1532898 .47499085 .14929199 .47200013 .13528443 .45498658 .07026672 .43699647 .011245728 .3959961 .011245728 .36898805 .011245728 .3659973 .037261964 .3659973 .057266237 .3659973 .07926941 .36799623 .08728027 .3789978 .13128662 .3899994 .17329407 .3919983 .18330384 .40098573 .22131348L.43699647 .36135865C.44400025 .38935853 .44400025 .39135743 .44400025 .39537049 .44400025 .41236878 .43199159 .42237855 .4149933 .42237855 .3909912 .42237855 .37599183 .4003601 .37298585 .37835694M.30799867 .119277957C.30299378 .10127258 .30299378 .09927368 .28799439 .08227539 .24398804 .027252198 .20298767 .011245728 .1749878 .011245728 .125 .011245728 .11099243 .06626892 .11099243 .105285648 .11099243 .1552887 .14299011 .27833558 .1659851 .32434083 .19699097 .38336183 .24198914 .42037965 .28199769 .42037965 .34700013 .42037965 .36099244 .3383484 .36099244 .33235169 .36099244 .32633973 .35899354 .32034303 .35798646 .31533814L.30799867 .119277957Z"/>
<path id="font_2_2" d="M.33499146 .63612368C.33499146 .6630554 .33299256 .6640625 .30499269 .6640625 .24099732 .6014404 .1499939 .6004486 .10899353 .6004486V.5644531C.1329956 .5644531 .19898987 .5644531 .2539978 .592453V.08203125C.2539978 .04899597 .2539978 .035995485 .1539917 .035995485H.115997318V0C.13398743 .0009918213 .25698854 .0039978029 .2939911 .0039978029 .32499696 .0039978029 .45098878 .0009918213 .47299195 0V.035995485H.43499757C.33499146 .035995485 .33499146 .04899597 .33499146 .08203125V.63612368Z"/>
<path id="font_4_2" d="M.32398988 .6253052C.32398988 .64131167 .31199647 .66329959 .28399659 .66329959 .25698854 .66329959 .22799683 .6372986 .22799683 .6083069 .22799683 .5913086 .24099732 .5703125 .2679901 .5703125 .29699708 .5703125 .32398988 .5983124 .32398988 .6253052M.11999512 .117263797C.115997318 .104263309 .11099243 .09225464 .11099243 .07525635 .11099243 .02822876 .15098572-.009765625 .20599365-.009765625 .30599977-.009765625 .34999085 .12828064 .34999085 .14328003 .34999085 .15628052 .33699037 .15628052 .33399964 .15628052 .31999208 .15628052 .31900025 .15028382 .31498719 .13928223 .2919922 .059249879 .24798584 .018234253 .20899964 .018234253 .18899536 .018234253 .18399048 .031234742 .18399048 .053237916 .18399048 .07624817 .19099427 .09526062 .19999695 .117263797 .20999146 .14428711 .22099304 .17129517 .23199463 .1973114 .24099732 .22131348 .2769928 .3123474 .2809906 .32435609 .28399659 .33436585 .2869873 .3463745 .2869873 .35636903 .2869873 .4033966 .24699402 .44140626 .19198609 .44140626 .09298706 .44140626 .04699707 .3053589 .04699707 .28834535 .04699707 .27534486 .06098938 .27534486 .06399536 .27534486 .07798767 .27534486 .07899475 .28033448 .08198547 .29135133 .10798645 .37738038 .1519928 .4133911 .18899536 .4133911 .20498657 .4133911 .21398926 .4053955 .21398926 .37838746 .21398926 .3553772 .20799256 .34036256 .18299866 .27833558L.11999512 .117263797Z"/>
<path id="font_5_1" d="M.74398806 .2263794C.7599945 .2263794 .7839966 .2263794 .7839966 .25038148 .7839966 .27539063 .7609863 .27539063 .74398806 .27539063H.147995C.13198853 .27539063 .10798645 .27539063 .10798645 .25138856 .10798645 .2263794 .1309967 .2263794 .147995 .2263794H.74398806Z"/>
<path id="font_4_1" d="M.83399966 .5736542C.84399417 .6116333 .8600006 .64460757 .9399872 .64660647 .94499209 .64660647 .95999148 .6476135 .95999148 .6686096 .95999148 .6746063 .95500186 .6826172 .94499209 .6826172 .9119873 .6826172 .875 .6786041 .84098818 .6786041 .81700137 .6786041 .7589874 .6826172 .7350006 .6826172 .7299957 .6826172 .71499636 .6826172 .71499636 .660614 .71499636 .6476135 .7279968 .64660647 .7369995 .64660647 .7839966 .6456146 .8009949 .63061526 .8009949 .6056366 .8009949 .597641 .7999878 .59265139 .7969971 .5816498L.6879883 .1459198 .43399049 .66560366C.42599488 .6826172 .42399598 .6826172 .3999939 .6826172H.2630005C.24398804 .6826172 .23098755 .6826172 .23098755 .660614 .23098755 .64660647 .24299622 .64660647 .2639923 .64660647 .2849884 .64660647 .30699159 .6456146 .32798768 .6416168L.19400025 .10694885C.18499756 .06896973 .16799927 .038986207 .08999634 .035995485 .08299255 .035995485 .068984989 .034988405 .068984989 .01499939 .068984989 .0039978029 .07699585 0 .083999637 0 .116989139 0 .1539917 .0039978029 .18798828 .0039978029 .21199036 .0039978029 .269989 0 .2939911 0 .3039856 0 .31399537 .004989624 .31399537 .020996094 .31399537 .034988405 .3019867 .035995485 .29100038 .035995485 .22799683 .037994386 .22799683 .0639801 .22799683 .07797241 .22799683 .081970218 .22799683 .08695984 .23199463 .10295105L.3600006 .614624 .6519928 .016998291C.6599884 .0009918213 .6639862 0 .673996 0 .6899872 0 .6899872 .0029907227 .69499209 .020996094L.83399966 .5736542Z"/>
<path id="font_1_2" d="M.23899842 .68333438C.23899842 .6843262 .23899842 .69433596 .22599793 .69433596 .20298767 .69433596 .12998963 .6863251 .10398865 .6843262 .09599304 .68333438 .084991458 .6823273 .084991458 .6643219 .084991458 .6523285 .09399414 .6523285 .10899353 .6523285 .15699768 .6523285 .15899658 .6453247 .15899658 .6353302 .15899658 .6283264 .1499939 .5943451 .14498902 .573349L.06298828 .24731446C.050994874 .1973114 .04699707 .18130493 .04699707 .14628601 .04699707 .05126953 .099990848-.0107421879 .17399597-.0107421879 .2919922-.0107421879 .4149933 .1382904 .4149933 .28233338 .4149933 .37335206 .3619995 .4423828 .28199769 .4423828 .23599243 .4423828 .19499207 .41337586 .16499329 .38235475L.23899842 .68333438M.14498902 .30534364C.15098572 .3273468 .15098572 .3293457 .1599884 .3403473 .20899964 .405365 .2539978 .42037965 .27999879 .42037965 .31599427 .42037965 .34298707 .3903656 .34298707 .32633973 .34298707 .26733399 .30999757 .15229798 .2919922 .11428833 .25898744 .04725647 .21299744 .011245728 .17399597 .011245728 .13999939 .011245728 .10699463 .038253786 .10699463 .11227417 .10699463 .13128662 .10699463 .15029907 .12298584 .21331787L.14498902 .30534364Z"/>
<path id="font_1_3" d="M.3959961 .37998963C.37998963 .37998963 .3659973 .37998963 .35198976 .36598207 .33599855 .35098268 .33399964 .33398438 .33399964 .3269806 .33399964 .30297853 .35198976 .2919922 .37098695 .2919922 .3999939 .2919922 .4269867 .315979 .4269867 .35598756 .4269867 .40522767 .37998963 .4423828 .30899049 .4423828 .17399597 .4423828 .040985109 .2989807 .040985109 .15811157 .040985109 .06819153 .09899902-.0107421879 .20298767-.0107421879 .34599305-.0107421879 .42999269 .09516907 .42999269 .107162479 .42999269 .11315918 .42399598 .120147708 .41799928 .120147708 .41299439 .120147708 .41099549 .1181488 .40499879 .1101532 .32598878 .011245728 .21699524 .011245728 .20498657 .011245728 .14199829 .011245728 .114990238 .06021118 .114990238 .120147708 .114990238 .1611023 .1349945 .25801087 .16899109 .31999208 .19999695 .37698365 .25498963 .42037965 .30999757 .42037965 .34399415 .42037965 .38198854 .40724183 .3959961 .37998963Z"/>
<path id="font_6_95" d="M.7319946 .08753967C.7319946 .09353638 .7319946 .104537967 .71899417 .104537967 .70799258 .104537967 .70799258 .09555054 .70700076 .08854675 .70098879 .017532349 .66600039-.00047302247 .6409912-.00047302247 .59199526-.00047302247 .58399966 .05053711 .56999209 .14355469L.5569916 .22355652C.5389862 .28756715 .48999024 .3205719 .43499757 .3395691 .5319977 .36357118 .6100006 .4245758 .6100006 .502594 .6100006 .5986023 .49598695 .6826172 .34899903 .6826172H.034988405V.6516113H.05899048C.13598633 .6516113 .13798523 .64060977 .13798523 .604599V.077545169C.13798523 .04197693 .13598633 .0309906 .05899048 .0309906H.034988405V0C.070999149 .0029907227 .14199829 .0029907227 .18099976 .0029907227 .21998596 .0029907227 .29100038 .0029907227 .32699586 0V.0309906H.30299378C.22599793 .0309906 .22399903 .04197693 .22399903 .077926639V.3305359H.33898927C.35499574 .3305359 .39698792 .3305359 .43199159 .29658509 .46998597 .26063539 .46998597 .22969055 .46998597 .16279602 .46998597 .09788513 .46998597 .05795288 .5109863 .019989014 .5519867-.016464234 .6069946-.022460938 .6369934-.022460938 .71499636-.022460938 .7319946 .059524537 .7319946 .087524417V.08753967M.5069885 .5025635C.5069885 .43354798 .48298646 .35253907 .33499146 .35253907H.22399903V.6116028C.22399903 .6345978 .22399903 .64660647 .24598694 .6496124 .2559967 .6516113 .2849884 .6516113 .30499269 .6516113 .394989 .6516113 .5069885 .6476135 .5069885 .5025635Z"/>
<path id="font_6_50" d="M.4149933 .11933899C.4149933 .12934876 .40699769 .13134766 .4019928 .13134766 .3929901 .13134766 .3909912 .12535095 .3889923 .11734009 .35398866 .014251709 .2639923 .014251709 .2539978 .014251709 .20399475 .014251709 .1639862 .044281007 .14099121 .08131409 .11099243 .12934876 .11099243 .19540406 .11099243 .23144531H.3899994C.4119873 .23144531 .4149933 .23144531 .4149933 .2524414 .4149933 .35131837 .36099244 .4482422 .23599243 .4482422 .11999512 .4482422 .027999878 .34532167 .027999878 .22042847 .027999878 .08631897 .1329956-.0107421879 .24798584-.0107421879 .36999513-.0107421879 .4149933 .10032654 .4149933 .11933899M.34899903 .2524414H.11199951C.117996219 .40126039 .20199585 .426239 .23599243 .426239 .33898927 .426239 .34899903 .2913971 .34899903 .2524414Z"/>
<path id="font_6_43" d="M.4149933 .119140628C.4149933 .12911988 .40499879 .12911988 .4019928 .12911988 .3929901 .12911988 .3909912 .12512207 .3889923 .119140628 .3600006 .026229859 .29499818 .014251709 .2579956 .014251709 .20498657 .014251709 .116989139 .0572052 .116989139 .21801758 .116989139 .38093568 .19898987 .42323304 .2519989 .42323304 .26098634 .42323304 .32398988 .42222596 .35899354 .38594056 .31799317 .38293458 .31199647 .3529358 .31199647 .3399353 .31199647 .31393434 .32998658 .2939453 .35798646 .2939453 .38398744 .2939453 .4039917 .3109436 .4039917 .34094239 .4039917 .40911866 .32798768 .4482422 .25099183 .4482422 .12599182 .4482422 .033996583 .3399353 .033996583 .21601868 .033996583 .08816528 .1329956-.0107421879 .24899292-.0107421879 .3829956-.0107421879 .4149933 .10914612 .4149933 .119140628Z"/>
<path id="font_6_105" d="M.33198548 .12385559V.18066406H.30699159V.12585449C.30699159 .052108766 .2769928 .014251709 .23999024 .014251709 .17298889 .014251709 .17298889 .10491943 .17298889 .12187195V.3996582H.31599427V.43066407H.17298889V.6142578H.147995C.14698792 .5324249 .116989139 .42565919 .018997193 .42166139V.3996582H.10398865V.12408447C.10398865 .0012512207 .19699097-.0107421879 .23298645-.0107421879 .3039856-.0107421879 .33198548 .060180665 .33198548 .12408447V.12385559Z"/>
<path id="font_6_28" d="M.48298646 .08912659V.14511109H.45799256V.08912659C.45799256 .03112793 .43299867 .025131226 .42199708 .025131226 .3889923 .025131226 .3849945 .070129398 .3849945 .07511902V.27508546C.3849945 .31707765 .3849945 .3560791 .34899903 .39312745 .30999757 .43223573 .2599945 .4482422 .21199036 .4482422 .12998963 .4482422 .06098938 .40115357 .06098938 .335083 .06098938 .30508424 .08099365 .28808595 .10699463 .28808595 .1349945 .28808595 .15299988 .30807496 .15299988 .33407594 .15299988 .3460846 .147995 .37908937 .101989749 .38008119 .1289978 .41519166 .17799378 .426239 .20999146 .426239 .25898744 .426239 .31599427 .38710023 .31599427 .29808045V.26107789C.2649994 .25808717 .19499207 .25508119 .13198853 .22509766 .056991579 .19110108 .03199768 .13911438 .03199768 .09512329 .03199768 .014251709 .1289978-.0107421879 .19198609-.0107421879 .2579956-.0107421879 .3039856 .029251099 .32299806 .07624817 .32699586 .036132814 .35398866-.005859375 .40098573-.005859375 .42199708-.005859375 .48298646 .008132935 .48298646 .08912659M.31599427 .14013672C.31599427 .04525757 .24398804 .011245728 .19898987 .011245728 .1499939 .011245728 .10899353 .04624939 .10899353 .09625244 .10899353 .15124512 .15098572 .23425293 .31599427 .24024964V.14013672Z"/>
<path id="font_6_77" d="M.5349884 0V.0309906C.48298646 .0309906 .45799256 .0309906 .45700074 .061019899V.25221253C.45700074 .3383026 .45700074 .36932374 .42599488 .405365 .4119873 .42237855 .3789978 .4423828 .32099916 .4423828 .24798584 .4423828 .20098877 .39935304 .17298889 .33729554V.4423828L.03199768 .43066407V.3996582C.101989749 .3996582 .10998535 .39266969 .10998535 .34370423V.07595825C.10998535 .0309906 .09899902 .0309906 .03199768 .0309906V0L.14498902 .0029907227 .25698854 0V.0309906C.18998719 .0309906 .1789856 .0309906 .1789856 .07595825V.25978089C.1789856 .36431886 .25 .42037965 .31399537 .42037965 .3769989 .42037965 .3880005 .36631776 .3880005 .30926515V.076034549C.3880005 .0309906 .3769989 .0309906 .30999757 .0309906V0L.4229889 .0029907227 .5349884 0Z"/>
<path id="font_6_59" d="M.4850006 .40411378C.4850006 .42111207 .47299195 .453125 .43399049 .453125 .4139862 .453125 .36999513 .44711305 .32798768 .40611268 .28599549 .43937684 .24398804 .4423828 .22200012 .4423828 .1289978 .4423828 .05999756 .37338258 .05999756 .29638673 .05999756 .25239564 .08198547 .21440125 .10699463 .19340515 .09399414 .17840576 .07598877 .14538574 .07598877 .11035156 .07598877 .07899475 .08898926 .04083252 .11999512 .020828248 .05999756 .003829956 .027999878-.039138795 .027999878-.07911682 .027999878-.15107727 .1269989-.20605469 .24899292-.20605469 .36698915-.20605469 .47099305-.15507508 .47099305-.07711792 .47099305-.042144777 .45700074 .008834839 .4059906 .036834718 .35299684 .064834598 .29499818 .064834598 .23399353 .064834598 .20899964 .064834598 .1659851 .064834598 .15899658 .065841678 .1269989 .069885257 .10598755 .101242069 .10598755 .13334656 .10598755 .13735962 .10598755 .16040039 .12298584 .18040467 .1619873 .15240479 .20298767 .14941406 .22200012 .14941406 .31498719 .14941406 .38398744 .21839905 .38398744 .2953949 .38398744 .3323822 .36799623 .36938478 .34298707 .39237977 .3789978 .42637635 .4149933 .43138124 .43299867 .43138124 .43299867 .43112184 .43998719 .43112184 .44299317 .43011476 .43199159 .42611695 .4269867 .41513063 .4269867 .40315248 .4269867 .38616944 .43998719 .37417604 .45599366 .37417604 .46598817 .37417604 .4850006 .3811798 .4850006 .4041443V.40411378M.30899049 .29626466C.30899049 .26930238 .30799867 .2373352 .29299928 .21235657 .2849884 .20037842 .2619934 .17240906 .22200012 .17240906 .1349945 .17240906 .1349945 .2722931 .1349945 .29527284 .1349945 .3222351 .13598633 .35420228 .15098572 .3791809 .15899658 .3913269 .18199158 .41937257 .22200012 .41937257 .30899049 .41937257 .30899049 .31922914 .30899049 .29618836V.29626466M.4189911-.07911682C.4189911-.13308716 .34799195-.18305969 .25-.18305969 .14898682-.18305969 .07998657-.13209534 .07998657-.07911682 .07998657-.03314209 .117996219 .003829956 .1619873 .0068359377H.22099304C.30699159 .0068359377 .4189911 .0068359377 .4189911-.07911682Z"/>
<path id="font_6_72" d="M.25498963 0V.0309906C.18798828 .0309906 .1769867 .0309906 .1769867 .07601929V.69433596L.032989503 .6826172V.6516113C.102996829 .6516113 .11099243 .64460757 .11099243 .5956421V.07595825C.11099243 .0309906 .099990848 .0309906 .032989503 .0309906V0L.14399719 .0029907227 .25498963 0Z"/>
<path id="font_6_63" d="M.5349884 0V.0309906C.48298646 .0309906 .45799256 .0309906 .45700074 .061019899V.25221253C.45700074 .3383026 .45700074 .36932374 .42599488 .405365 .4119873 .42237855 .3789978 .4423828 .32099916 .4423828 .23699951 .4423828 .19299317 .38233949 .1769867 .34629823H.17599488V.69433596L.03199768 .6826172V.6516113C.101989749 .6516113 .10998535 .64463809 .10998535 .59580996V.076034549C.10998535 .0309906 .09899902 .0309906 .03199768 .0309906V0L.14498902 .0029907227 .25698854 0V.0309906C.18998719 .0309906 .1789856 .0309906 .1789856 .076034549V.2602234C.1789856 .36431886 .25 .42037965 .31399537 .42037965 .3769989 .42037965 .3880005 .36631776 .3880005 .30926515V.076034549C.3880005 .0309906 .3769989 .0309906 .30999757 .0309906V0L.4229889 .0029907227 .5349884 0Z"/>
<path id="font_6_98" d="M.3600006 .12823487C.3600006 .18122864 .32998658 .21122742 .31799317 .22323609 .2849884 .25523377 .24598694 .26322938 .20399475 .27124024 .147995 .28224183 .08099365 .29522706 .08099365 .35324098 .08099365 .38822938 .10699463 .42922975 .19299317 .42922975 .30299378 .42922975 .30799867 .3392334 .30999757 .30822755 .31098939 .2992401 .32199098 .2992401 .32199098 .2992401 .33499146 .2992401 .33499146 .30422975 .33499146 .32322694V.4242401C.33499146 .4412384 .33499146 .4482422 .32398988 .4482422 .31900025 .4482422 .31698609 .4482422 .3039856 .43623353 .30099488 .43223573 .29100038 .42323304 .2869873 .42022706 .24899292 .4482422 .20799256 .4482422 .19299317 .4482422 .070999149 .4482422 .032989503 .38124085 .032989503 .3252411 .032989503 .29023744 .04899597 .26223756 .07598877 .24023438 .10798645 .2142334 .13598633 .2082367 .20799256 .19422913 .22999573 .19021607 .31199647 .17422486 .31199647 .10221863 .31199647 .051223756 .2769928 .011245728 .19898987 .011245728 .114990238 .011245728 .07899475 .068222049 .05999756 .1532135 .056991579 .16621399 .055999757 .17021179 .04598999 .17021179 .032989503 .17021179 .032989503 .16322327 .032989503 .1452179V.013214111C.032989503-.003753662 .032989503-.0107421879 .04399109-.0107421879 .04899597-.0107421879 .049987794-.009750366 .068984989 .009246826 .070999149 .011245728 .070999149 .013214111 .08898926 .032226564 .1329956-.009750366 .17799378-.0107421879 .19898987-.0107421879 .31399537-.0107421879 .3600006 .05621338 .3600006 .1282196V.12823487Z"/>
<path id="font_6_96" d="M.3639984 .38137818C.3639984 .41337586 .33299256 .4423828 .2899933 .4423828 .21699524 .4423828 .18099976 .37538148 .16699219 .3323822V.4423828L.027999878 .43066407V.3996582C.09799194 .3996582 .10598755 .39266969 .10598755 .34370423V.07595825C.10598755 .0309906 .09498596 .0309906 .027999878 .0309906V0L.14199829 .0029907227C.18199158 .0029907227 .22898865 .0029907227 .2689972 0V.0309906H.24798584C.17399597 .0309906 .17199707 .04197693 .17199707 .07795715V.23181153C.17199707 .33137513 .21398926 .42037965 .2899933 .42037965 .29699708 .42037965 .29899598 .42037965 .30099488 .41937257 .2979889 .41838075 .27799989 .40637208 .27799989 .3803711 .27799989 .35237123 .29899598 .33737184 .32099916 .33737184 .33898927 .33737184 .3639984 .3493805 .3639984 .38137818Z"/>
<path id="font_1_4" d="M.36698915 .3996582H.45298768C.47299195 .3996582 .48298646 .3996582 .48298646 .41966249 .48298646 .43066407 .47299195 .43066407 .45599366 .43066407H.37298585L.3939972 .5449524C.397995 .5660095 .4119873 .6370239 .41799928 .6490326 .4269867 .66804507 .44400025 .68307498 .46499635 .68307498 .46899415 .68307498 .49499513 .68307498 .5139923 .66503909 .46998597 .661026 .45999146 .6260376 .45999146 .6110382 .45999146 .58802798 .47799684 .57603457 .49699403 .57603457 .522995 .57603457 .5519867 .5980377 .5519867 .6360321 .5519867 .6820679 .5059967 .7050781 .46499635 .7050781 .43099977 .7050781 .36799623 .68707278 .33799745 .58802798 .33198548 .56700137 .32899476 .5569763 .30499269 .43066407H.23599243C.21699524 .43066407 .20599365 .43066407 .20599365 .4116516 .20599365 .3996582 .21499634 .3996582 .23399353 .3996582H.2999878L.22499085 .0048828127C.20698548-.09207153 .18998719-.18309021 .13798523-.18309021 .13398743-.18309021 .10899353-.18309021 .08999634-.16506958 .13598633-.1620636 .14498902-.12606812 .14498902-.111068729 .14498902-.08807373 .1269989-.07606506 .10798645-.07606506 .08198547-.07606506 .052993776-.09806824 .052993776-.13606262 .052993776-.18109131 .09700012-.20507813 .13798523-.20507813 .19299317-.20507813 .23298645-.14607239 .25099183-.108062747 .2829895-.04508972 .30599977 .07583618 .30699159 .082839969L.36698915 .3996582Z"/>
<path id="font_3_2" d="M.33099366-.2400055C.33099366-.23701477 .33099366-.23500061 .31399537-.21800232 .18899536-.0920105 .15699768 .09700012 .15699768 .25 .15699768 .42399598 .19499207 .59799197 .31799317 .72299197 .33099366 .73498538 .33099366 .7369995 .33099366 .73999026 .33099366 .746994 .32699586 .75 .32099916 .75 .31098939 .75 .22099304 .6819916 .1619873 .5549927 .11099243 .44499208 .09899902 .33399964 .09899902 .25 .09899902 .17199707 .10998535 .050994874 .16499329-.06201172 .22499085-.18501282 .31098939-.25 .32099916-.25 .32699586-.25 .33099366-.24700928 .33099366-.2400055Z"/>
<path id="font_3_3" d="M.2889862 .25C.2889862 .32798768 .27799989 .44898988 .22299195 .56199648 .16299439 .68499758 .07699585 .75 .066986087 .75 .06098938 .75 .056991579 .74598696 .056991579 .73999026 .056991579 .7369995 .056991579 .73498538 .07598877 .71699526 .17399597 .6179962 .23098755 .45899964 .23098755 .25 .23098755 .07899475 .19400025-.09700012 .069992069-.2230072 .056991579-.23500061 .056991579-.23701477 .056991579-.2400055 .056991579-.2460022 .06098938-.25 .066986087-.25 .07699585-.25 .16699219-.18200684 .22599793-.055007936 .2769928 .054992677 .2889862 .16600037 .2889862 .25Z"/>
<path id="font_3_1" d="M.44198609 .69781497C.43499757 .7108154 .43299867 .7158203 .41600038 .7158203 .39898683 .7158203 .39698792 .7108154 .3899994 .69781497L.051986696 .019989014C.04699707 .010986328 .04699707 .008987427 .04699707 .0079956059 .04699707 0 .052993776 0 .068984989 0H.7630005C.7789917 0 .7849884 0 .7849884 .0079956059 .7849884 .008987427 .7849884 .010986328 .7799988 .019989014L.44198609 .69781497M.38398744 .61582949 .6529999 .07598877H.11399841L.38398744 .61582949Z"/>
</defs>
<path transform="matrix(1.00003,0,0,-1.00002,15.57502,93.367588)" stroke-width=".3985" stroke-linecap="butt" stroke-miterlimit="10" stroke-linejoin="miter" fill="none" stroke="#000000" d="M0 0H216.39337"/>
<path transform="matrix(1.00003,0,0,-1.00002,231.97489,93.367588)" stroke-width=".31879" stroke-linecap="round" stroke-linejoin="round" fill="none" stroke="#000000" d="M-1.19551 1.59401C-1.09587 .99626 0 .09961 .29886 0 0-.09961-1.09587-.99626-1.19551-1.59401"/>
<path transform="matrix(1.00003,0,0,-1.00002,15.57502,93.367588)" stroke-width=".3985" stroke-linecap="butt" stroke-miterlimit="10" stroke-linejoin="miter" fill="none" stroke="#000000" d="M0-7.65366V91.38492"/>
<path transform="matrix(0,-1.00002,-1.00003,-0,15.57502,1.980835)" stroke-width=".31879" stroke-linecap="round" stroke-linejoin="round" fill="none" stroke="#000000" d="M-1.19551 1.59401C-1.09587 .99626 0 .09961 .29886 0 0-.09961-1.09587-.99626-1.19551-1.59401"/>
<path transform="matrix(1.00003,0,0,-1.00002,15.57502,93.367588)" d="M0 0V53.57526H25.51195V0Z" fill="#cdba96"/>
<path transform="matrix(1.00003,0,0,-1.00002,15.57502,93.367588)" d="M25.51195 0V81.63817H51.02391V0Z" fill="#cdba96"/>
<path transform="matrix(1.00003,0,0,-1.00002,15.57502,93.367588)" d="M51.02391 0V84.18953H76.53587V0Z" fill="#cdba96"/>
<path transform="matrix(1.00003,0,0,-1.00002,15.57502,93.367588)" d="M76.53587 0V43.37024H102.04784V0Z" fill="#cdba96"/>
<path transform="matrix(1.00003,0,0,-1.00002,15.57502,93.367588)" d="M102.04784 0V28.0633H127.5598V0Z" fill="#cdba96"/>
<path transform="matrix(1.00003,0,0,-1.00002,15.57502,93.367588)" d="M127.5598 0V38.26793H153.07175V0Z" fill="#cdba96"/>
<path transform="matrix(1.00003,0,0,-1.00002,15.57502,93.367588)" d="M153.07175 0V51.02391H178.58371V0Z" fill="#cdba96"/>
<path transform="matrix(1.00003,0,0,-1.00002,15.57502,93.367588)" d="M178.58371 0V68.88219H204.09568V0Z" fill="#cdba96"/>
<path transform="matrix(1.00003,0,0,-1.00002,15.57502,93.367588)" stroke-width=".3985" stroke-linecap="butt" stroke-miterlimit="10" stroke-linejoin="miter" fill="none" stroke="#000000" d="M0 0V53.57526H25.51195V0ZM25.51195 53.57526"/>
<path transform="matrix(1.00003,0,0,-1.00002,15.57502,93.367588)" stroke-width=".3985" stroke-linecap="butt" stroke-miterlimit="10" stroke-linejoin="miter" fill="none" stroke="#000000" d="M25.51195 0V81.63817H51.02391V0ZM51.02391 81.63817"/>
<path transform="matrix(1.00003,0,0,-1.00002,15.57502,93.367588)" stroke-width=".3985" stroke-linecap="butt" stroke-miterlimit="10" stroke-linejoin="miter" fill="none" stroke="#000000" d="M51.02391 0V84.18953H76.53587V0ZM76.53587 84.18953"/>
<path transform="matrix(1.00003,0,0,-1.00002,15.57502,93.367588)" stroke-width=".3985" stroke-linecap="butt" stroke-miterlimit="10" stroke-linejoin="miter" fill="none" stroke="#000000" d="M76.53587 0V43.37024H102.04784V0ZM102.04784 43.37024"/>
<path transform="matrix(1.00003,0,0,-1.00002,15.57502,93.367588)" stroke-width=".3985" stroke-linecap="butt" stroke-miterlimit="10" stroke-linejoin="miter" fill="none" stroke="#000000" d="M102.04784 0V28.0633H127.5598V0ZM127.5598 28.0633"/>
<path transform="matrix(1.00003,0,0,-1.00002,15.57502,93.367588)" stroke-width=".3985" stroke-linecap="butt" stroke-miterlimit="10" stroke-linejoin="miter" fill="none" stroke="#000000" d="M127.5598 0V38.26793H153.07175V0ZM153.07175 38.26793"/>
<path transform="matrix(1.00003,0,0,-1.00002,15.57502,93.367588)" stroke-width=".3985" stroke-linecap="butt" stroke-miterlimit="10" stroke-linejoin="miter" fill="none" stroke="#000000" d="M153.07175 0V51.02391H178.58371V0ZM178.58371 51.02391"/>
<path transform="matrix(1.00003,0,0,-1.00002,15.57502,93.367588)" stroke-width=".3985" stroke-linecap="butt" stroke-miterlimit="10" stroke-linejoin="miter" fill="none" stroke="#000000" d="M178.58371 0V68.88219H204.09568V0ZM204.09568 68.88219"/>
<path transform="matrix(1.00003,0,0,-1.00002,15.57502,93.367588)" stroke-width=".3985" stroke-linecap="butt" stroke-dasharray="2.98883,2.98883" stroke-miterlimit="10" stroke-linejoin="miter" fill="none" stroke="#000000" d="M0 0V53.57526"/>
<path transform="matrix(1.00003,0,0,-1.00002,15.57502,93.367588)" stroke-width=".3985" stroke-linecap="butt" stroke-dasharray="2.98883,2.98883" stroke-miterlimit="10" stroke-linejoin="miter" fill="none" stroke="#000000" d="M25.51195 0V81.63817"/>
<path transform="matrix(1.00003,0,0,-1.00002,15.57502,93.367588)" stroke-width=".3985" stroke-linecap="butt" stroke-dasharray="2.98883,2.98883" stroke-miterlimit="10" stroke-linejoin="miter" fill="none" stroke="#000000" d="M51.02391 0V84.18953"/>
<path transform="matrix(1.00003,0,0,-1.00002,15.57502,93.367588)" stroke-width=".3985" stroke-linecap="butt" stroke-dasharray="2.98883,2.98883" stroke-miterlimit="10" stroke-linejoin="miter" fill="none" stroke="#000000" d="M76.53587 0V43.37024"/>
<path transform="matrix(1.00003,0,0,-1.00002,15.57502,93.367588)" stroke-width=".3985" stroke-linecap="butt" stroke-dasharray="2.98883,2.98883" stroke-miterlimit="10" stroke-linejoin="miter" fill="none" stroke="#000000" d="M102.04784 0V28.0633"/>
<path transform="matrix(1.00003,0,0,-1.00002,15.57502,93.367588)" stroke-width=".3985" stroke-linecap="butt" stroke-dasharray="2.98883,2.98883" stroke-miterlimit="10" stroke-linejoin="miter" fill="none" stroke="#000000" d="M127.5598 0V38.26793"/>
<path transform="matrix(1.00003,0,0,-1.00002,15.57502,93.367588)" stroke-width=".3985" stroke-linecap="butt" stroke-dasharray="2.98883,2.98883" stroke-miterlimit="10" stroke-linejoin="miter" fill="none" stroke="#000000" d="M153.07175 0V51.02391"/>
<path transform="matrix(1.00003,0,0,-1.00002,15.57502,93.367588)" stroke-width=".3985" stroke-linecap="butt" stroke-dasharray="2.98883,2.98883" stroke-miterlimit="10" stroke-linejoin="miter" fill="none" stroke="#000000" d="M178.58371 0V68.88219"/>
<path transform="matrix(1.00003,0,0,-1.00002,15.57502,93.367588)" stroke-width=".3985" stroke-linecap="butt" stroke-dasharray="2.98883,2.98883" stroke-miterlimit="10" stroke-linejoin="miter" fill="none" stroke="#000000" d="M204.09568 0V68.88219"/>
<path transform="matrix(1.00003,0,0,-1.00002,15.57502,93.367588)" stroke-width="1.19553" stroke-linecap="butt" stroke-miterlimit="10" stroke-linejoin="miter" fill="none" stroke="#ec008c" d="M0 43.37024C0 43.37024 18.43248 65.41602 25.51195 71.43356 32.59142 77.4511 43.94444 86.38655 51.02391 86.7405 58.10338 87.09442 69.4564 81.06398 76.53587 73.98451 83.61534 66.90504 94.96837 41.7341 102.04784 35.71657 109.1273 29.69904 120.48032 29.55234 127.5598 30.61426 134.63927 31.67618 145.99228 39.4765 153.07175 43.37024 160.15123 47.26396 171.50424 53.36798 178.58371 58.67758 185.66318 63.98717 204.09568 81.63817 204.09568 81.63817"/>
<path transform="matrix(1.00003,0,0,-1.00002,15.57502,93.367588)" d="M1.19553 0C1.19553 .66026 .66026 1.19553 0 1.19553-.66026 1.19553-1.19553 .66026-1.19553 0-1.19553-.66026-.66026-1.19553 0-1.19553 .66026-1.19553 1.19553-.66026 1.19553 0ZM0 0"/>
<path transform="matrix(1.00003,0,0,-1.00002,15.57502,93.367588)" d="M26.70749 0C26.70749 .66026 26.17223 1.19553 25.51195 1.19553 24.85168 1.19553 24.31642 .66026 24.31642 0 24.31642-.66026 24.85168-1.19553 25.51195-1.19553 26.17223-1.19553 26.70749-.66026 26.70749 0ZM25.51195 0"/>
<path transform="matrix(1.00003,0,0,-1.00002,15.57502,93.367588)" d="M52.21944 0C52.21944 .66026 51.68417 1.19553 51.02391 1.19553 50.36365 1.19553 49.82838 .66026 49.82838 0 49.82838-.66026 50.36365-1.19553 51.02391-1.19553 51.68417-1.19553 52.21944-.66026 52.21944 0ZM51.02391 0"/>
<path transform="matrix(1.00003,0,0,-1.00002,15.57502,93.367588)" d="M77.7314 0C77.7314 .66026 77.19614 1.19553 76.53587 1.19553 75.87561 1.19553 75.34035 .66026 75.34035 0 75.34035-.66026 75.87561-1.19553 76.53587-1.19553 77.19614-1.19553 77.7314-.66026 77.7314 0ZM76.53587 0"/>
<path transform="matrix(1.00003,0,0,-1.00002,15.57502,93.367588)" d="M103.24336 0C103.24336 .66026 102.7081 1.19553 102.04784 1.19553 101.38756 1.19553 100.85231 .66026 100.85231 0 100.85231-.66026 101.38756-1.19553 102.04784-1.19553 102.7081-1.19553 103.24336-.66026 103.24336 0ZM102.04784 0"/>
<path transform="matrix(1.00003,0,0,-1.00002,15.57502,93.367588)" d="M128.75533 0C128.75533 .66026 128.22006 1.19553 127.5598 1.19553 126.89952 1.19553 126.36426 .66026 126.36426 0 126.36426-.66026 126.89952-1.19553 127.5598-1.19553 128.22006-1.19553 128.75533-.66026 128.75533 0ZM127.5598 0"/>
<path transform="matrix(1.00003,0,0,-1.00002,15.57502,93.367588)" d="M154.26729 0C154.26729 .66026 153.73203 1.19553 153.07175 1.19553 152.41149 1.19553 151.87622 .66026 151.87622 0 151.87622-.66026 152.41149-1.19553 153.07175-1.19553 153.73203-1.19553 154.26729-.66026 154.26729 0ZM153.07175 0"/>
<path transform="matrix(1.00003,0,0,-1.00002,15.57502,93.367588)" d="M179.77924 0C179.77924 .66026 179.24399 1.19553 178.58371 1.19553 177.92345 1.19553 177.38819 .66026 177.38819 0 177.38819-.66026 177.92345-1.19553 178.58371-1.19553 179.24399-1.19553 179.77924-.66026 179.77924 0ZM178.58371 0"/>
<path transform="matrix(1.00003,0,0,-1.00002,15.57502,93.367588)" d="M205.2912 0C205.2912 .66026 204.75594 1.19553 204.09568 1.19553 203.43541 1.19553 202.90015 .66026 202.90015 0 202.90015-.66026 203.43541-1.19553 204.09568-1.19553 204.75594-1.19553 205.2912-.66026 205.2912 0ZM204.09568 0"/>
<use data-text="x" xlink:href="#font_1_5" transform="matrix(9.962899,0,0,-9.962799,1.2175903,101.68775)"/>
<use data-text="0" xlink:href="#font_2_1" transform="matrix(6.9740097,0,0,-6.97394,6.9117586,103.181789)"/>
<use data-text="=" xlink:href="#font_3_4" transform="matrix(9.962899,0,0,-9.962799,14.14798,101.68775)"/>
<use data-text="a" xlink:href="#font_1_1" transform="matrix(9.962899,0,0,-9.962799,24.664292,101.68775)"/>
<use data-text="x" xlink:href="#font_1_5" transform="matrix(9.962899,0,0,-9.962799,36.00564,101.68775)"/>
<use data-text="1" xlink:href="#font_2_2" transform="matrix(6.9740097,0,0,-6.97394,41.699808,103.181789)"/>
<use data-text="x" xlink:href="#font_1_5" transform="matrix(9.962899,0,0,-9.962799,82.50803,101.68775)"/>
<use data-text="i" xlink:href="#font_4_2" transform="matrix(6.9740097,0,0,-6.97394,88.2022,103.181789)"/>
<use data-text="&#x2212;" xlink:href="#font_5_1" transform="matrix(6.9740097,0,0,-6.97394,91.020298,103.181789)"/>
<use data-text="1" xlink:href="#font_2_2" transform="matrix(6.9740097,0,0,-6.97394,97.247478,103.181789)"/>
<use data-text="x" xlink:href="#font_1_5" transform="matrix(9.962899,0,0,-9.962799,113.11995,101.68775)"/>
<use data-text="i" xlink:href="#font_4_2" transform="matrix(6.9740097,0,0,-6.97394,118.81412,103.181789)"/>
<use data-text="x" xlink:href="#font_1_5" transform="matrix(9.962899,0,0,-9.962799,204.27167,104.3168)"/>
<use data-text="N" xlink:href="#font_4_1" transform="matrix(6.9740097,0,0,-6.97394,209.96585,105.81084)"/>
<use data-text="=" xlink:href="#font_3_4" transform="matrix(9.962899,0,0,-9.962799,220.28916,104.3168)"/>
<use data-text="b" xlink:href="#font_1_2" transform="matrix(9.962899,0,0,-9.962799,230.80547,104.3168)"/>
<use data-text="c" xlink:href="#font_1_3" transform="matrix(9.962899,0,0,-9.962799,101.05559,101.68775)"/>
<use data-text="i" xlink:href="#font_4_2" transform="matrix(6.9740097,0,0,-6.97394,105.366718,103.181789)"/>
<path transform="matrix(1.00003,0,0,-1.00002,15.57502,93.367588)" stroke-width=".3985" stroke-linecap="butt" stroke-miterlimit="10" stroke-linejoin="miter" fill="none" stroke="#000000" d="M142.86713 81.63817 89.66475 43.63657"/>
<path transform="matrix(-.81371447,.5812016,.58120748,.8137063,105.24247,49.73013)" stroke-width=".31879" stroke-linecap="round" stroke-linejoin="round" fill="none" stroke="#000000" d="M-1.19551 1.59401C-1.09587 .99626 0 .09961 .29886 0 0-.09961-1.09587-.99626-1.19551-1.59401"/>
<use data-text="R" xlink:href="#font_6_95" transform="matrix(9.962899,0,0,-9.962799,95.573429,10.390923)"/>
<use data-text="e" xlink:href="#font_6_50" transform="matrix(9.962899,0,0,-9.962799,102.90612,10.390923)"/>
<use data-text="c" xlink:href="#font_6_43" transform="matrix(9.962899,0,0,-9.962799,107.32964,10.390923)"/>
<use data-text="t" xlink:href="#font_6_105" transform="matrix(9.962899,0,0,-9.962799,111.753177,10.390923)"/>
<use data-text="a" xlink:href="#font_6_28" transform="matrix(9.962899,0,0,-9.962799,115.62874,10.390923)"/>
<use data-text="n" xlink:href="#font_6_77" transform="matrix(9.962899,0,0,-9.962799,120.61019,10.390923)"/>
<use data-text="g" xlink:href="#font_6_59" transform="matrix(9.962899,0,0,-9.962799,126.14956,10.390923)"/>
<use data-text="l" xlink:href="#font_6_72" transform="matrix(9.962899,0,0,-9.962799,131.13101,10.390923)"/>
<use data-text="e" xlink:href="#font_6_50" transform="matrix(9.962899,0,0,-9.962799,133.9007,10.390923)"/>
<use data-text="h" xlink:href="#font_6_63" transform="matrix(9.962899,0,0,-9.962799,141.63193,10.390923)"/>
<use data-text="a" xlink:href="#font_6_28" transform="matrix(9.962899,0,0,-9.962799,147.1713,10.390923)"/>
<use data-text="s" xlink:href="#font_6_98" transform="matrix(9.962899,0,0,-9.962799,152.15271,10.390923)"/>
<use data-text="a" xlink:href="#font_6_28" transform="matrix(9.962899,0,0,-9.962799,159.39575,10.390923)"/>
<use data-text="r" xlink:href="#font_6_96" transform="matrix(9.962899,0,0,-9.962799,164.3772,10.390923)"/>
<use data-text="e" xlink:href="#font_6_50" transform="matrix(9.962899,0,0,-9.962799,168.28266,10.390923)"/>
<use data-text="a" xlink:href="#font_6_28" transform="matrix(9.962899,0,0,-9.962799,172.70618,10.390923)"/>
<use data-text="f" xlink:href="#font_1_4" transform="matrix(9.962899,0,0,-9.962799,181.01499,10.390923)"/>
<use data-text="(" xlink:href="#font_3_2" transform="matrix(9.962899,0,0,-9.962799,186.96518,10.390923)"/>
<use data-text="c" xlink:href="#font_1_3" transform="matrix(9.962899,0,0,-9.962799,190.8403,10.390923)"/>
<use data-text="i" xlink:href="#font_4_2" transform="matrix(6.9740097,0,0,-6.97394,195.15143,11.884956)"/>
<use data-text=")" xlink:href="#font_3_3" transform="matrix(9.962899,0,0,-9.962799,198.46854,10.390923)"/>
<use data-text="&#x2206;" xlink:href="#font_3_1" transform="matrix(9.962899,0,0,-9.962799,203.98798,10.390923)"/>
<use data-text="x" xlink:href="#font_1_5" transform="matrix(9.962899,0,0,-9.962799,212.30594,10.390923)"/>
<use data-text="i" xlink:href="#font_4_2" transform="matrix(6.9740097,0,0,-6.97394,218.00012,11.884956)"/>
</svg>
