<svg xmlns="http://www.w3.org/2000/svg" xmlns:xlink="http://www.w3.org/1999/xlink" xmlns:inkscape="http://www.inkscape.org/namespaces/inkscape" version="1.1" width="208" height="109" viewBox="0 0 208 109">
<defs>
<path id="font_1_1" d="M.24899292 .10601807C.23899842 .072021488 .20599365 .018234253 .15499878 .018234253 .1519928 .018234253 .12199402 .018234253 .100997928 .03215027 .14199829 .04508972 .14498902 .08100891 .14498902 .087020877 .14498902 .10900879 .12799073 .12402344 .10499573 .12402344 .07699585 .12402344 .04798889 .10002136 .04798889 .0630188 .04798889 .01322937 .10398865-.009765625 .15299988-.009765625 .19898987-.009765625 .23999024 .019226075 .2649994 .061019899 .2889862 .008224487 .34399415-.009765625 .38398744-.009765625 .49899293-.009765625 .55999758 .11502075 .55999758 .14305115 .55999758 .15608216 .5469971 .15608216 .5439911 .15608216 .5299988 .15608216 .5289917 .15107727 .5249939 .13905335 .5039978 .07002258 .44400025 .018234253 .3880005 .018234253 .34799195 .018234253 .32699586 .04508972 .32699586 .08302307 .32699586 .10900879 .35099793 .20018006 .3789978 .31140138 .39898683 .38841249 .44400025 .4133911 .47698976 .4133911 .47898866 .4133911 .5099945 .4133911 .5309906 .39941407 .49899293 .39041139 .4869995 .3624115 .4869995 .34440614 .4869995 .32240296 .5039978 .30740357 .5269928 .30740357 .5499878 .30740357 .58299258 .32640077 .58299258 .3684082 .58299258 .4243927 .5189972 .44140626 .47898866 .44140626 .42900086 .44140626 .3889923 .4084015 .36698915 .3704071 .34899903 .4113922 .30299378 .44140626 .24699402 .44140626 .1349945 .44140626 .070999149 .31840516 .070999149 .2883606 .070999149 .27534486 .084991458 .27534486 .08799744 .27534486 .100997928 .27534486 .101989749 .27934266 .10699463 .29237367 .13198853 .3704071 .19499207 .4133911 .24398804 .4133911 .2769928 .4133911 .3039856 .395401 .3039856 .3474121 .3039856 .32740785 .2919922 .27734376 .2829895 .24327088L.24899292 .10601807Z"/>
</defs>
<path transform="matrix(1,0,0,-1,7.3320009,98.177)" stroke-width=".3985" stroke-linecap="butt" stroke-miterlimit="10" stroke-linejoin="miter" fill="none" stroke="#000000" d="M-6.23622 0H199.10425"/>
<path transform="matrix(1,0,0,-1,206.43625,98.177)" stroke-width=".31879" stroke-linecap="round" stroke-linejoin="round" fill="none" stroke="#000000" d="M-1.19551 1.59401C-1.09587 .99626 0 .09961 .29886 0 0-.09961-1.09587-.99626-1.19551-1.59401"/>
<path transform="matrix(1,0,0,-1,7.3320009,98.177)" stroke-width=".3985" stroke-linecap="butt" stroke-miterlimit="10" stroke-linejoin="miter" fill="none" stroke="#000000" d="M0-5.66927V95.92068"/>
<path transform="matrix(0,-1,-1,-0,7.3320009,2.2563248)" stroke-width=".31879" stroke-linecap="round" stroke-linejoin="round" fill="none" stroke="#000000" d="M-1.19551 1.59401C-1.09587 .99626 0 .09961 .29886 0 0-.09961-1.09587-.99626-1.19551-1.59401"/>
<path transform="matrix(1,0,0,-1,7.3320009,98.177)" d="M88.08812 0V59.52846H99.0019V0ZM99.0019 59.52846" fill="#b3ffb3"/>
<path transform="matrix(1,0,0,-1,7.3320009,98.177)" stroke-width=".3985" stroke-linecap="butt" stroke-miterlimit="10" stroke-linejoin="miter" fill="none" stroke="#008000" d="M88.08812 0V59.52846H99.0019V0ZM99.0019 59.52846"/>
<path transform="matrix(1,0,0,-1,7.3320009,98.177)" stroke-width=".3985" stroke-linecap="butt" stroke-dasharray="2.98883,2.98883" stroke-miterlimit="10" stroke-linejoin="miter" fill="none" stroke="#000000" d="M88.08812 0V59.52846"/>
<path transform="matrix(1,0,0,-1,7.3320009,98.177)" stroke-width=".3985" stroke-linecap="butt" stroke-dasharray="2.98883,2.98883" stroke-miterlimit="10" stroke-linejoin="miter" fill="none" stroke="#000000" d="M99.0019 0V59.52846"/>
<path transform="matrix(1,0,0,-1,7.3320009,98.177)" d="M95.13907 59.52846C95.13907 60.40884 94.4254 61.12251 93.54501 61.12251 92.66464 61.12251 91.95097 60.40884 91.95097 59.52846 91.95097 58.64809 92.66464 57.93442 93.54501 57.93442 94.4254 57.93442 95.13907 58.64809 95.13907 59.52846ZM93.54501 59.52846" fill="#ff0000"/>
<path transform="matrix(1,0,0,-1,7.3320009,98.177)" stroke-width=".3985" stroke-linecap="butt" stroke-dasharray="2.98883,2.98883" stroke-miterlimit="10" stroke-linejoin="miter" fill="none" stroke="#ff0000" d="M93.54501 0V59.52846"/>
<use data-text="x" xlink:href="#font_1_1" transform="matrix(6.9738,0,0,-6.9738,98.618007,106.967)"/>
<path transform="matrix(1,0,0,-1,7.3320009,98.177)" stroke-width="1.19553" stroke-linecap="butt" stroke-miterlimit="10" stroke-linejoin="miter" fill="none" stroke="#0000ff" d="M0 22.67752C0 22.67752 22.52887 37.40721 31.18167 42.5202 39.83447 47.6332 53.71054 57.1686 62.36334 59.52846 71.01614 61.88832 84.89221 61.495 93.54501 59.52846 102.19781 57.56194 116.0739 45.74837 124.72668 45.35506 133.37949 44.96173 147.25557 51.97394 155.90837 56.69362 164.56118 61.41328 187.09004 79.37114 187.09004 79.37114"/>
</svg>
