<svg xmlns="http://www.w3.org/2000/svg" xmlns:xlink="http://www.w3.org/1999/xlink" xmlns:inkscape="http://www.inkscape.org/namespaces/inkscape" version="1.1" width="197" height="167" viewBox="0 0 197 167">
<defs>
<path id="font_1_1" d="M.2939911 .64004519C.2939911 .66400149 .2939911 .6660156 .2709961 .6660156 .20899964 .60227969 .12098694 .60227969 .08898926 .60227969V.57128909C.10899353 .57128909 .16799927 .57128909 .21998596 .5972748V.07902527C.21998596 .042999269 .21699524 .0309906 .1269989 .0309906H.09498596V0C.12998963 .0029907227 .21699524 .0029907227 .25698854 .0029907227 .29699708 .0029907227 .38398744 .0029907227 .4189911 0V.0309906H.3869934C.29699708 .0309906 .2939911 .041992189 .2939911 .07902527V.64004519Z"/>
<path id="font_1_2" d="M.1269989 .07699585 .23298645 .18003845C.3889923 .31811524 .44898988 .3721466 .44898988 .47216798 .44898988 .5860901 .35899354 .6660156 .23699951 .6660156 .12399292 .6660156 .049987794 .57411196 .049987794 .48516847 .049987794 .4291687 .099990848 .4291687 .102996829 .4291687 .11999512 .4291687 .15499878 .44117738 .15499878 .48217774 .15499878 .5081787 .13699341 .5341797 .101989749 .5341797 .09399414 .5341797 .09199524 .5341797 .08898926 .5331726 .11199951 .59806826 .1659851 .63500979 .22399903 .63500979 .31498719 .63500979 .35798646 .5541382 .35798646 .47216798 .35798646 .39215089 .30799867 .31311036 .25299073 .25108338L.06098938 .036987306C.049987794 .025985718 .049987794 .023986817 .049987794 0H.42099L.44898988 .17404175H.42399598C.4189911 .14402771 .4119873 .1000061 .4019928 .084991458 .394989 .07699585 .32899476 .07699585 .30699159 .07699585H.1269989Z"/>
<path id="font_1_3" d="M.2899933 .35191346C.37199403 .37893678 .42999269 .4490509 .42999269 .52809146 .42999269 .6100464 .34199525 .6660156 .24598694 .6660156 .14498902 .6660156 .068984989 .60606387 .068984989 .53009036 .068984989 .49710084 .09098816 .47808839 .11999512 .47808839 .15098572 .47808839 .17098999 .50009158 .17098999 .5290985 .17098999 .57910159 .12399292 .57910159 .10899353 .57910159 .13999939 .62802127 .20599365 .64100649 .24198914 .64100649 .2829895 .64100649 .33799745 .6190338 .33799745 .5290985 .33799745 .51708987 .33599855 .45906068 .30999757 .4149933 .27999879 .36691285 .24598694 .36390687 .22099304 .36291505 .21299744 .36190797 .18899536 .35990907 .18199158 .35990907 .17399597 .35890199 .16699219 .35791017 .16699219 .3479004 .16699219 .33691407 .17399597 .33691407 .19099427 .33691407H.23498535C.31698609 .33691407 .35398866 .2686615 .35398866 .17037964 .35398866 .034469606 .2849884 .0055389406 .24099732 .0055389406 .19799805 .0055389406 .12298584 .022491456 .08799744 .08137512 .12298584 .07637024 .1539917 .09837341 .1539917 .1363678 .1539917 .17237854 .1269989 .19238281 .09799194 .19238281 .07398987 .19238281 .041992189 .17837525 .041992189 .1343689 .041992189 .043441774 .1349945-.022460938 .24398804-.022460938 .3659973-.022460938 .45700074 .06838989 .45700074 .17037964 .45700074 .252594 .3939972 .33088685 .2899933 .35191346Z"/>
<path id="font_1_4" d="M.2939911 .16503906V.07800293C.2939911 .041992189 .2919922 .0309906 .21798706 .0309906H.19699097V0C.23799134 .0029907227 .2899933 .0029907227 .33198548 .0029907227 .37399293 .0029907227 .4269867 .0029907227 .46798707 0V.0309906H.44699098C.37298585 .0309906 .37098695 .041992189 .37098695 .07800293V.16503906H.47099305V.19602967H.37098695V.65075686C.37098695 .67074587 .37098695 .6767578 .35499574 .6767578 .34599305 .6767578 .34298707 .6767578 .33499146 .66474917L.027999878 .19602967V.16503906H.2939911M.2999878 .19602967H.055999757L.2999878 .5688019V.19602967Z"/>
<path id="font_1_5" d="M.13198853 .327713V.35173036C.13198853 .6047821 .2559967 .64100649 .30699159 .64100649 .33099366 .64100649 .37298585 .634964 .394989 .6007538 .37998963 .6007538 .33999635 .6007538 .33999635 .5557556 .33999635 .524765 .3639984 .5097656 .38598634 .5097656 .4019928 .5097656 .43199159 .51875308 .43199159 .5577545 .43199159 .6178589 .3880005 .6660156 .30499269 .6660156 .1769867 .6660156 .041992189 .5367584 .041992189 .31570436 .041992189 .048553468 .1579895-.022460938 .25099183-.022460938 .3619995-.022460938 .45700074 .07156372 .45700074 .2036438 .45700074 .33070375 .36799623 .4267578 .25698854 .4267578 .18899536 .4267578 .1519928 .37573243 .13198853 .327713M.25099183 .0055389406C.18798828 .0055389406 .1579895 .06556702 .1519928 .080566409 .13398743 .127594 .13398743 .2076416 .13398743 .22564698 .13398743 .30369569 .1659851 .40374757 .2559967 .40374757 .27198792 .40374757 .31799317 .40374757 .34899903 .34172059 .36698915 .30470277 .36698915 .2536621 .36698915 .20463562 .36698915 .15661621 .36698915 .10658264 .34999085 .0705719 .31999208 .010528564 .27398683 .0055389406 .25099183 .0055389406Z"/>
<clipPath id="clip_2">
<path transform="matrix(1.00005,0,0,-1.00002,1.0961456,179.33626)" d="M0 16.13963H194.27368V177.536H0Z"/>
</clipPath>
<path id="font_3_1" d="M.20599365 .3996582H.2999878C.31999208 .3996582 .32998658 .3996582 .32998658 .41966249 .32998658 .43066407 .31999208 .43066407 .3019867 .43066407H.21398926C.25 .5724945 .25498963 .59246829 .25498963 .59846499 .25498963 .61546328 .24299622 .62545779 .22599793 .62545779 .22299195 .62545779 .19499207 .62446597 .18598938 .58947756L.14698792 .43066407H.052993776C.032989503 .43066407 .022994996 .43066407 .022994996 .4116516 .022994996 .3996582 .0309906 .3996582 .050994874 .3996582H.13899231C.066986087 .11608887 .06298828 .099121097 .06298828 .08114624 .06298828 .02722168 .100997928-.0107421879 .15499878-.0107421879 .25698854-.0107421879 .31399537 .13505554 .31399537 .14305115 .31399537 .1530304 .30599977 .1530304 .3019867 .1530304 .29299928 .1530304 .2919922 .15003968 .2869873 .13905335 .24398804 .035217287 .19099427 .011245728 .15699768 .011245728 .13598633 .011245728 .12599182 .024230957 .12599182 .057174684 .12599182 .08114624 .12799073 .088134769 .13198853 .10510254L.20599365 .3996582Z"/>
<path id="font_3_2" d="M.48599244 .38136292C.48999024 .39537049 .48999024 .39736939 .48999024 .40437318 .48999024 .42237855 .47599793 .43138124 .46099855 .43138124 .45098878 .43138124 .43499757 .42536927 .42599488 .41036988 .42399598 .405365 .41600038 .37435914 .4119873 .35635377 .40499879 .33035279 .397995 .30334474 .3919983 .27633668L.34700013 .09628296C.34298707 .08126831 .2999878 .011245728 .23399353 .011245728 .18299866 .011245728 .17199707 .055267335 .17199707 .0922699 .17199707 .1382904 .18899536 .20030213 .22299195 .28833009 .23899842 .3293457 .24299622 .3403473 .24299622 .36035157 .24299622 .405365 .21099854 .4423828 .16099549 .4423828 .06599426 .4423828 .0289917 .29733277 .0289917 .28833009 .0289917 .27833558 .038986207 .27833558 .040985109 .27833558 .050994874 .27833558 .051986696 .28033448 .056991579 .29634095 .083999637 .3903656 .12399292 .42037965 .1579895 .42037965 .1659851 .42037965 .18299866 .42037965 .18299866 .3883667 .18299866 .36335755 .17298889 .3373413 .1659851 .31834413 .12599182 .21231079 .10798645 .1552887 .10798645 .10827637 .10798645 .019256592 .17098999-.0107421879 .22999573-.0107421879 .2689972-.0107421879 .30299378 .0062561037 .33099366 .03425598 .31799317-.017745972 .30599977-.06674194 .2659912-.11973572 .23999024-.15385437 .20199585-.18309021 .1559906-.18309021 .14199829-.18309021 .09700012-.18005371 .07998657-.14074707 .09599304-.14074707 .10899353-.14074707 .12298584-.1287384 .1329956-.11973572 .14299011-.10673523 .14299011-.08773804 .14299011-.056747438 .115997318-.052734376 .10598755-.052734376 .08299255-.052734376 .049987794-.068740848 .049987794-.11773682 .049987794-.16796875 .09399414-.20507813 .1559906-.20507813 .25898744-.20507813 .3619995-.11373901 .3899994-.00074768069L.48599244 .38136292Z"/>
</defs>
<path transform="matrix(1.00005,0,0,-1.00002,1.0961456,179.33626)" stroke-width=".19925" stroke-linecap="butt" stroke-miterlimit="10" stroke-linejoin="miter" fill="none" stroke="#7f807f" d="M58.2821 24.80943V27.64436M135.99158 24.80943V27.64436"/>
<path transform="matrix(1.00005,0,0,-1.00002,1.0961456,179.33626)" stroke-width=".19925" stroke-linecap="butt" stroke-miterlimit="10" stroke-linejoin="miter" fill="none" stroke="#7f807f" d="M58.2821 24.10092V28.35287M97.13684 24.10092V28.35287M135.99158 24.10092V28.35287M174.84632 24.10092V28.35287"/>
<path transform="matrix(1.00005,0,0,-1.00002,1.0961456,179.33626)" stroke-width=".19925" stroke-linecap="butt" stroke-miterlimit="10" stroke-linejoin="miter" fill="none" stroke="#7f807f" d="M18.00987 46.40144H20.84485M18.00987 86.75053H20.84485M18.00987 127.09962H20.84485M18.00987 167.44872H20.84485"/>
<path transform="matrix(1.00005,0,0,-1.00002,1.0961456,179.33626)" stroke-width=".19925" stroke-linecap="butt" stroke-miterlimit="10" stroke-linejoin="miter" fill="none" stroke="#7f807f" d="M17.30133 66.57599H21.55338M17.30133 106.92508H21.55338M17.30133 147.27417H21.55338"/>
<path transform="matrix(1.00005,0,0,-1.00002,1.0961456,179.33626)" stroke-width=".3985" stroke-linecap="butt" stroke-miterlimit="10" stroke-linejoin="miter" fill="none" stroke="#000000" d="M0 26.2269H192.28116"/>
<path transform="matrix(1.00005,0,0,-1.00002,193.3869,153.10883)" d="M1.99252 0-1.19551 1.59401 0 0-1.19551-1.59401"/>
<path transform="matrix(1.00005,0,0,-1.00002,1.0961456,179.33626)" stroke-width=".3985" stroke-linecap="butt" stroke-miterlimit="10" stroke-linejoin="miter" fill="none" stroke="#000000" d="M19.42737 16.13963V175.54347"/>
<path transform="matrix(0,-1.00002,-1.00005,-0,20.524487,3.7892762)" d="M1.99252 0-1.19551 1.59401 0 0-1.19551-1.59401"/>
<use data-text="1" xlink:href="#font_1_1" transform="matrix(9.963098,0,0,-9.962799,56.889936,165.17498)"/>
<use data-text="2" xlink:href="#font_1_2" transform="matrix(9.963098,0,0,-9.962799,95.74688,165.17498)"/>
<use data-text="3" xlink:href="#font_1_3" transform="matrix(9.963098,0,0,-9.962799,134.60382,165.17498)"/>
<use data-text="4" xlink:href="#font_1_4" transform="matrix(9.963098,0,0,-9.962799,173.46076,165.17498)"/>
<use data-text="2" xlink:href="#font_1_2" transform="matrix(9.963098,0,0,-9.962799,9.896584,115.96899)"/>
<use data-text="4" xlink:href="#font_1_4" transform="matrix(9.963098,0,0,-9.962799,9.896584,75.61919)"/>
<use data-text="6" xlink:href="#font_1_5" transform="matrix(9.963098,0,0,-9.962799,9.896584,35.26938)"/>
<g clip-path="url(#clip_2)">
<path transform="matrix(1.00005,0,0,-1.00002,1.0961456,179.33626)" stroke-width="1.59404" stroke-linecap="butt" stroke-miterlimit="10" stroke-linejoin="miter" fill="none" stroke="#0000ff" d="M13.59915 0C13.59915 0 14.81845 1.26619 15.28676 1.7525 15.75505 2.23882 16.50607 3.0187 16.97437 3.50502 17.44267 3.99133 18.1937 4.77124 18.66199 5.25755 19.13028 5.74387 19.8813 6.52376 20.34961 7.01007 20.8179 7.49638 21.56892 8.27629 22.03722 8.76259 22.50552 9.2489 23.25655 10.0288 23.72484 10.5151 24.19313 11.00142 24.94415 11.78133 25.41246 12.26764 25.88075 12.75395 26.63177 13.53384 27.10007 14.02016 27.56837 14.50647 28.3194 15.28638 28.78769 15.77269 29.25598 16.25899 30.007 17.03888 30.47531 17.52519 30.9436 18.0115 31.69463 18.79141 32.16292 19.27773 32.63123 19.76404 33.38225 20.54393 33.85054 21.03024 34.31883 21.51656 35.06985 22.29646 35.53816 22.78278 36.00645 23.26909 36.75748 24.04898 37.22577 24.5353 37.69408 25.02159 38.4451 25.8015 38.91339 26.28781 39.38168 26.77412 40.1327 27.55402 40.601 28.04033 41.06929 28.52664 41.82031 29.30655 42.28862 29.79286 42.75691 30.27917 43.50793 31.05907 43.97623 31.54538 44.44453 32.0317 45.19556 32.8116 45.66385 33.2979 46.13214 33.78421 46.88316 34.5641 47.35147 35.05042 47.81976 35.53673 48.57079 36.31664 49.03908 36.80295 49.50739 37.28926 50.2584 38.06915 50.7267 38.55547 51.19499 39.04178 51.94601 39.82169 52.41432 40.308 52.88261 40.7943 53.63364 41.57419 54.10193 42.0605 54.57024 42.54681 55.32126 43.32672 55.78955 43.81303 56.25784 44.29935 57.00887 45.07924 57.47717 45.56555 57.94547 46.05186 58.69649 46.83176 59.16478 47.31807 59.63309 47.80438 60.38411 48.58429 60.8524 49.0706 61.3207 49.5569 62.07172 50.3368 62.54002 50.82312 63.00832 51.30943 63.75934 52.08932 64.22763 52.57564 64.69594 53.06195 65.44696 53.84186 65.91525 54.32817 66.38354 54.81448 67.13455 55.59439 67.60286 56.0807 68.07115 56.56702 68.82217 57.34692 69.29047 57.83322 69.75877 58.31953 70.5098 59.09944 70.97809 59.58575 71.44638 60.07207 72.1974 60.85197 72.66571 61.33829 73.134 61.8246 73.88503 62.60445 74.35332 63.09076 74.82162 63.57707 75.57265 64.35698 76.04094 64.84329 76.50923 65.3296 77.26027 66.1095 77.72856 66.59581 78.19685 67.08212 78.94788 67.86201 79.41618 68.34833 79.88448 68.83464 80.6355 69.61455 81.10379 70.10086 81.5721 70.58717 82.32312 71.36708 82.79141 71.8534 83.2597 72.3397 84.01073 73.11961 84.47903 73.60593 84.94733 74.09222 85.69835 74.87213 86.16664 75.35844 86.63495 75.84476 87.38597 76.62466 87.85426 77.11098 88.32256 77.59729 89.07358 78.3772 89.54189 78.86351 90.01018 79.34982 90.7612 80.12967 91.22949 80.61598 91.6978 81.1023 92.44882 81.8822 92.91711 82.3685 93.3854 82.85481 94.13641 83.63472 94.60472 84.12103 95.07301 84.60735 95.82404 85.38724 96.29233 85.87355 96.76064 86.35986 97.51166 87.13977 97.97995 87.62608 98.44824 88.1124 99.19926 88.8923 99.66757 89.37862 100.13586 89.86493 100.88689 90.64484 101.35518 91.13113 101.82349 91.61745 102.57451 92.39735 103.0428 92.88367 103.5111 93.36998 104.26212 94.14989 104.73042 94.6362 105.19872 95.12251 105.94974 95.90242 106.41803 96.38873 106.88634 96.87505 107.63736 97.65489 108.10565 98.1412 108.57394 98.6275 109.32498 99.40741 109.79327 99.89372 110.26157 100.38004 111.01259 101.15994 111.4809 101.64626 111.94919 102.13257 112.70021 102.91246 113.1685 103.39877 113.6368 103.88509 114.38783 104.665 114.85612 105.1513 115.32442 105.63762 116.07544 106.41753 116.54375 106.90382 117.01204 107.39014 117.76306 108.17004 118.23135 108.65636 118.69966 109.14267 119.45067 109.92258 119.91896 110.40889 120.38725 110.8952 121.13828 111.67511 121.60658 112.16142 122.07487 112.64774 122.8259 113.42764 123.29419 113.91396 123.7625 114.40027 124.51352 115.18011 124.98181 115.66641 125.4501 116.15273 126.20113 116.93263 126.66943 117.41895 127.13773 117.90526 127.88875 118.68517 128.35704 119.17148 128.82535 119.65779 129.57637 120.43768 130.04467 120.924 130.51296 121.41031 131.26398 122.19022 131.73229 122.67653 132.20058 123.16283 132.9516 123.94273 133.41989 124.42905 133.8882 124.91536 134.63922 125.69527 135.10752 126.18158 135.5758 126.6679 136.32683 127.4478 136.79514 127.93411 137.26343 128.42043 138.01445 129.20034 138.48274 129.68665 138.95105 130.17296 139.70207 130.95287 140.17037 131.43917 140.63866 131.92548 141.38968 132.70532 141.85799 133.19164 142.32628 133.67795 143.0773 134.45786 143.5456 134.94417 144.0139 135.43048 144.76493 136.21038 145.23322 136.69669 145.7015 137.183 146.45253 137.9629 146.92082 138.44922 147.38912 138.93553 148.14014 139.71544 148.60845 140.20174 149.07674 140.68805 149.82776 141.46796 150.29605 141.95427 150.76436 142.44058 151.51538 143.22049 151.98368 143.7068 152.45197 144.19312 153.20299 144.97303 153.6713 145.45934 154.13959 145.94565 154.89061 146.72556 155.3589 147.21187 155.82721 147.69817 156.57823 148.47808 157.04653 148.96439 157.51482 149.4507 158.26584 150.23055 158.73415 150.71686 159.20244 151.20317 159.95346 151.98308 160.42176 152.46939 160.89006 152.9557 161.64109 153.7356 162.10938 154.22191 162.57767 154.70822 163.32869 155.48813 163.797 155.97444 164.26529 156.46074 165.01631 157.24065 165.4846 157.72696 165.95291 158.21327 166.70394 158.99318 167.17223 159.47949 167.64052 159.9658 168.39154 160.74571 168.85985 161.23203 169.32814 161.71834 170.07917 162.49825 170.54746 162.98456 171.01576 163.47087 171.76679 164.25078 172.23508 164.73708 172.70337 165.22339 173.45438 166.0033 173.92269 166.48961 174.39098 166.97592 175.142 167.75577 175.61029 168.24208 176.0786 168.7284 176.82962 169.5083 177.29792 169.99462 177.7662 170.48093 178.51725 171.26082 178.98554 171.74713 179.45383 172.23343 180.67316 173.49965 180.67316 173.49965"/>
<path transform="matrix(1.00005,0,0,-1.00002,1.0961456,179.33626)" stroke-width=".3985" stroke-linecap="butt" stroke-dasharray="2.98883,2.98883" stroke-miterlimit="10" stroke-linejoin="miter" fill="none" stroke="#000000" d="M58.2821 23.20071V46.40144"/>
<path transform="matrix(1.00005,0,0,-1.00002,1.0961456,179.33626)" stroke-width=".3985" stroke-linecap="butt" stroke-dasharray="2.98883,2.98883" stroke-miterlimit="10" stroke-linejoin="miter" fill="none" stroke="#000000" d="M135.99158 23.20071V127.09962"/>
<path transform="matrix(1.00005,0,0,-1.00002,1.0961456,179.33626)" d="M58.2821 26.2269V46.40144L77.70947 66.57599 97.13684 86.75053 116.56421 106.92508 135.99158 127.09962V26.2269Z" fill="#4dff4d" fill-opacity=".7"/>
</g>
<use data-text="t" xlink:href="#font_3_1" transform="matrix(9.963098,0,0,-9.962799,188.2615,149.58867)"/>
<use data-text="y" xlink:href="#font_3_2" transform="matrix(9.963098,0,0,-9.962799,24.044293,9.60585)"/>
</svg>
