<svg xmlns="http://www.w3.org/2000/svg" xmlns:xlink="http://www.w3.org/1999/xlink" xmlns:inkscape="http://www.inkscape.org/namespaces/inkscape" version="1.1" width="203" height="164" viewBox="0 0 203 164">
<defs>
<path id="font_1_2" d="M.2939911 .64004519C.2939911 .66400149 .2939911 .6660156 .2709961 .6660156 .20899964 .60227969 .12098694 .60227969 .08898926 .60227969V.57128909C.10899353 .57128909 .16799927 .57128909 .21998596 .5972748V.07902527C.21998596 .042999269 .21699524 .0309906 .1269989 .0309906H.09498596V0C.12998963 .0029907227 .21699524 .0029907227 .25698854 .0029907227 .29699708 .0029907227 .38398744 .0029907227 .4189911 0V.0309906H.3869934C.29699708 .0309906 .2939911 .041992189 .2939911 .07902527V.64004519Z"/>
<path id="font_1_3" d="M.1269989 .07699585 .23298645 .18003845C.3889923 .31811524 .44898988 .3721466 .44898988 .47216798 .44898988 .5860901 .35899354 .6660156 .23699951 .6660156 .12399292 .6660156 .049987794 .57411196 .049987794 .48516847 .049987794 .4291687 .099990848 .4291687 .102996829 .4291687 .11999512 .4291687 .15499878 .44117738 .15499878 .48217774 .15499878 .5081787 .13699341 .5341797 .101989749 .5341797 .09399414 .5341797 .09199524 .5341797 .08898926 .5331726 .11199951 .59806826 .1659851 .63500979 .22399903 .63500979 .31498719 .63500979 .35798646 .5541382 .35798646 .47216798 .35798646 .39215089 .30799867 .31311036 .25299073 .25108338L.06098938 .036987306C.049987794 .025985718 .049987794 .023986817 .049987794 0H.42099L.44898988 .17404175H.42399598C.4189911 .14402771 .4119873 .1000061 .4019928 .084991458 .394989 .07699585 .32899476 .07699585 .30699159 .07699585H.1269989Z"/>
<path id="font_1_4" d="M.2899933 .35191346C.37199403 .37893678 .42999269 .4490509 .42999269 .52809146 .42999269 .6100464 .34199525 .6660156 .24598694 .6660156 .14498902 .6660156 .068984989 .60606387 .068984989 .53009036 .068984989 .49710084 .09098816 .47808839 .11999512 .47808839 .15098572 .47808839 .17098999 .50009158 .17098999 .5290985 .17098999 .57910159 .12399292 .57910159 .10899353 .57910159 .13999939 .62802127 .20599365 .64100649 .24198914 .64100649 .2829895 .64100649 .33799745 .6190338 .33799745 .5290985 .33799745 .51708987 .33599855 .45906068 .30999757 .4149933 .27999879 .36691285 .24598694 .36390687 .22099304 .36291505 .21299744 .36190797 .18899536 .35990907 .18199158 .35990907 .17399597 .35890199 .16699219 .35791017 .16699219 .3479004 .16699219 .33691407 .17399597 .33691407 .19099427 .33691407H.23498535C.31698609 .33691407 .35398866 .2686615 .35398866 .17037964 .35398866 .034469606 .2849884 .0055389406 .24099732 .0055389406 .19799805 .0055389406 .12298584 .022491456 .08799744 .08137512 .12298584 .07637024 .1539917 .09837341 .1539917 .1363678 .1539917 .17237854 .1269989 .19238281 .09799194 .19238281 .07398987 .19238281 .041992189 .17837525 .041992189 .1343689 .041992189 .043441774 .1349945-.022460938 .24398804-.022460938 .3659973-.022460938 .45700074 .06838989 .45700074 .17037964 .45700074 .252594 .3939972 .33088685 .2899933 .35191346Z"/>
<path id="font_1_5" d="M.2939911 .16503906V.07800293C.2939911 .041992189 .2919922 .0309906 .21798706 .0309906H.19699097V0C.23799134 .0029907227 .2899933 .0029907227 .33198548 .0029907227 .37399293 .0029907227 .4269867 .0029907227 .46798707 0V.0309906H.44699098C.37298585 .0309906 .37098695 .041992189 .37098695 .07800293V.16503906H.47099305V.19602967H.37098695V.65075686C.37098695 .67074587 .37098695 .6767578 .35499574 .6767578 .34599305 .6767578 .34298707 .6767578 .33499146 .66474917L.027999878 .19602967V.16503906H.2939911M.2999878 .19602967H.055999757L.2999878 .5688019V.19602967Z"/>
<path id="font_1_6" d="M.44898988 .20022583C.44898988 .3193512 .36698915 .41944886 .25898744 .41944886 .21099854 .41944886 .16799927 .40345765 .13198853 .36842347V.5637665C.1519928 .5577698 .18499756 .55078127 .21699524 .55078127 .33999635 .55078127 .4099884 .6417694 .4099884 .6547699 .4099884 .6607666 .40699769 .6657715 .3999939 .6657715 .39898683 .6657715 .39698792 .6657715 .3919983 .66278079 .37199403 .6537781 .32299806 .6337738 .2559967 .6337738 .21598816 .6337738 .16999817 .6407776 .12298584 .6617737 .114990238 .66477969 .11299133 .66477969 .11099243 .66477969 .100997928 .66477969 .100997928 .6567688 .100997928 .6407776V.34439088C.100997928 .32637025 .100997928 .31835938 .114990238 .31835938 .12199402 .31835938 .12399292 .32136537 .12799073 .32736207 .13899231 .3433838 .17599488 .39746095 .25698854 .39746095 .30899049 .39746095 .33399964 .35139466 .34199525 .33337403 .35798646 .29632569 .3600006 .25727845 .3600006 .20722962 .3600006 .17222595 .3600006 .11222839 .33599855 .07035828 .31199647 .031463624 .2749939 .0055389406 .22898865 .0055389406 .1559906 .0055389406 .09899902 .058380128 .08198547 .11723328 .084991458 .1162262 .08799744 .115234378 .09899902 .115234378 .13198853 .115234378 .14898682 .14022827 .14898682 .16423035 .14898682 .18823242 .13198853 .21322632 .09899902 .21322632 .084991458 .21322632 .049987794 .20622254 .049987794 .16023255 .049987794 .07434082 .11898804-.022460938 .23098755-.022460938 .34700013-.022460938 .44898988 .073349 .44898988 .20022583Z"/>
<path id="font_2_1" d="M.6589966 .23046875C.6759949 .23046875 .69400027 .23046875 .69400027 .25045777 .69400027 .27046205 .6759949 .27046205 .6589966 .27046205H.117996219C.100997928 .27046205 .08299255 .27046205 .08299255 .25045777 .08299255 .23046875 .100997928 .23046875 .117996219 .23046875H.6589966Z"/>
<path id="font_1_1" d="M.45999146 .31976319C.45999146 .39982606 .45498658 .47988893 .41999818 .5539398 .37399293 .65000918 .2919922 .6660156 .25 .6660156 .18998719 .6660156 .116989139 .64001467 .07598877 .54693606 .04399109 .47789 .038986207 .39982606 .038986207 .31976319 .038986207 .24472046 .042999269 .15464783 .083999637 .07859802 .1269989-.0024719239 .19999695-.022460938 .24899292-.022460938 .30299378-.022460938 .3789978-.0014648438 .4229889 .09359741 .45498658 .16265869 .45999146 .2407074 .45999146 .31976319M.24899292-.00047302247C.20999146-.00047302247 .15098572 .024551392 .1329956 .12062073 .12199402 .18066406 .12199402 .2727356 .12199402 .3317871 .12199402 .39582826 .12199402 .46188355 .12998963 .5159149 .14898682 .63500979 .22399903 .64401248 .24899292 .64401248 .28199769 .64401248 .34799195 .6259918 .36698915 .52693179 .3769989 .47088624 .3769989 .39482118 .3769989 .3317871 .3769989 .25672914 .3769989 .18867493 .3659973 .12461853 .35099793 .029556275 .2939911-.00047302247 .24899292-.00047302247Z"/>
<path id="font_1_8" d="M.16299439 .4569702C.116989139 .486969 .11299133 .52098086 .11299133 .5379791 .11299133 .598999 .17799378 .64100649 .24899292 .64100649 .32199098 .64100649 .38598634 .58898928 .38598634 .51698306 .38598634 .45996095 .34700013 .4119568 .2869873 .37695313L.16299439 .4569702M.30899049 .36193849C.3809967 .3989563 .42999269 .45095826 .42999269 .51698306 .42999269 .6090088 .34098817 .6660156 .25 .6660156 .1499939 .6660156 .068984989 .59199526 .068984989 .49897767 .068984989 .4809723 .070999149 .43595887 .11299133 .38894654 .12399292 .37695313 .16099549 .35194398 .18598938 .33494569 .12799073 .30592347 .041992189 .24984741 .041992189 .15072632 .041992189 .04458618 .14399719-.022460938 .24899292-.022460938 .3619995-.022460938 .45700074 .06060791 .45700074 .16773987 .45700074 .20379639 .44599916 .24885559 .4079895 .2909088 .3889923 .31193543 .37298585 .3219452 .30899049 .36193849M.20899964 .3199463 .33198548 .24183655C.3600006 .2228241 .40699769 .19277954 .40699769 .13169861 .40699769 .05760193 .33198548 .0055389406 .25 .0055389406 .1639862 .0055389406 .09199524 .067611698 .09199524 .15072632 .09199524 .20880127 .12399292 .27288819 .20899964 .3199463Z"/>
<path id="font_1_7" d="M.13198853 .327713V.35173036C.13198853 .6047821 .2559967 .64100649 .30699159 .64100649 .33099366 .64100649 .37298585 .634964 .394989 .6007538 .37998963 .6007538 .33999635 .6007538 .33999635 .5557556 .33999635 .524765 .3639984 .5097656 .38598634 .5097656 .4019928 .5097656 .43199159 .51875308 .43199159 .5577545 .43199159 .6178589 .3880005 .6660156 .30499269 .6660156 .1769867 .6660156 .041992189 .5367584 .041992189 .31570436 .041992189 .048553468 .1579895-.022460938 .25099183-.022460938 .3619995-.022460938 .45700074 .07156372 .45700074 .2036438 .45700074 .33070375 .36799623 .4267578 .25698854 .4267578 .18899536 .4267578 .1519928 .37573243 .13198853 .327713M.25099183 .0055389406C.18798828 .0055389406 .1579895 .06556702 .1519928 .080566409 .13398743 .127594 .13398743 .2076416 .13398743 .22564698 .13398743 .30369569 .1659851 .40374757 .2559967 .40374757 .27198792 .40374757 .31799317 .40374757 .34899903 .34172059 .36698915 .30470277 .36698915 .2536621 .36698915 .20463562 .36698915 .15661621 .36698915 .10658264 .34999085 .0705719 .31999208 .010528564 .27398683 .0055389406 .25099183 .0055389406Z"/>
<clipPath id="clip_3">
<path transform="matrix(1.00003,0,0,-1.00008,7.385803,163.02899)" d="M0 0H194.27216V161.39636H0Z"/>
</clipPath>
<path id="font_4_1" d="M.20599365 .3996582H.2999878C.31999208 .3996582 .32998658 .3996582 .32998658 .41966249 .32998658 .43066407 .31999208 .43066407 .3019867 .43066407H.21398926C.25 .5724945 .25498963 .59246829 .25498963 .59846499 .25498963 .61546328 .24299622 .62545779 .22599793 .62545779 .22299195 .62545779 .19499207 .62446597 .18598938 .58947756L.14698792 .43066407H.052993776C.032989503 .43066407 .022994996 .43066407 .022994996 .4116516 .022994996 .3996582 .0309906 .3996582 .050994874 .3996582H.13899231C.066986087 .11608887 .06298828 .099121097 .06298828 .08114624 .06298828 .02722168 .100997928-.0107421879 .15499878-.0107421879 .25698854-.0107421879 .31399537 .13505554 .31399537 .14305115 .31399537 .1530304 .30599977 .1530304 .3019867 .1530304 .29299928 .1530304 .2919922 .15003968 .2869873 .13905335 .24398804 .035217287 .19099427 .011245728 .15699768 .011245728 .13598633 .011245728 .12599182 .024230957 .12599182 .057174684 .12599182 .08114624 .12799073 .088134769 .13198853 .10510254L.20599365 .3996582Z"/>
<path id="font_4_2" d="M.48599244 .38136292C.48999024 .39537049 .48999024 .39736939 .48999024 .40437318 .48999024 .42237855 .47599793 .43138124 .46099855 .43138124 .45098878 .43138124 .43499757 .42536927 .42599488 .41036988 .42399598 .405365 .41600038 .37435914 .4119873 .35635377 .40499879 .33035279 .397995 .30334474 .3919983 .27633668L.34700013 .09628296C.34298707 .08126831 .2999878 .011245728 .23399353 .011245728 .18299866 .011245728 .17199707 .055267335 .17199707 .0922699 .17199707 .1382904 .18899536 .20030213 .22299195 .28833009 .23899842 .3293457 .24299622 .3403473 .24299622 .36035157 .24299622 .405365 .21099854 .4423828 .16099549 .4423828 .06599426 .4423828 .0289917 .29733277 .0289917 .28833009 .0289917 .27833558 .038986207 .27833558 .040985109 .27833558 .050994874 .27833558 .051986696 .28033448 .056991579 .29634095 .083999637 .3903656 .12399292 .42037965 .1579895 .42037965 .1659851 .42037965 .18299866 .42037965 .18299866 .3883667 .18299866 .36335755 .17298889 .3373413 .1659851 .31834413 .12599182 .21231079 .10798645 .1552887 .10798645 .10827637 .10798645 .019256592 .17098999-.0107421879 .22999573-.0107421879 .2689972-.0107421879 .30299378 .0062561037 .33099366 .03425598 .31799317-.017745972 .30599977-.06674194 .2659912-.11973572 .23999024-.15385437 .20199585-.18309021 .1559906-.18309021 .14199829-.18309021 .09700012-.18005371 .07998657-.14074707 .09599304-.14074707 .10899353-.14074707 .12298584-.1287384 .1329956-.11973572 .14299011-.10673523 .14299011-.08773804 .14299011-.056747438 .115997318-.052734376 .10598755-.052734376 .08299255-.052734376 .049987794-.068740848 .049987794-.11773682 .049987794-.16796875 .09399414-.20507813 .1559906-.20507813 .25898744-.20507813 .3619995-.11373901 .3899994-.00074768069L.48599244 .38136292Z"/>
</defs>
<path transform="matrix(1.00003,0,0,-1.00008,7.385803,163.02899)" stroke-width=".19925" stroke-linecap="butt" stroke-miterlimit="10" stroke-linejoin="miter" fill="none" stroke="#7f807f" d="M48.56804 72.26347V75.0984M113.32542 72.26347V75.0984"/>
<path transform="matrix(1.00003,0,0,-1.00008,7.385803,163.02899)" stroke-width=".19925" stroke-linecap="butt" stroke-miterlimit="10" stroke-linejoin="miter" fill="none" stroke="#7f807f" d="M48.56804 71.55496V75.8069M80.94673 71.55496V75.8069M113.32542 71.55496V75.8069M145.70412 71.55496V75.8069M178.08281 71.55496V75.8069"/>
<path transform="matrix(1.00003,0,0,-1.00008,7.385803,163.02899)" stroke-width=".19925" stroke-linecap="butt" stroke-miterlimit="10" stroke-linejoin="miter" fill="none" stroke="#7f807f" d="M14.77194 80.69818H17.60674M14.77194 94.73264H17.60674M14.77194 108.7671H17.60674M14.77194 122.80157H17.60674"/>
<path transform="matrix(1.00003,0,0,-1.00008,7.385803,163.02899)" stroke-width=".19925" stroke-linecap="butt" stroke-miterlimit="10" stroke-linejoin="miter" fill="none" stroke="#7f807f" d="M14.06345 3.5086H18.31522M14.06345 17.54308H18.31522M14.06345 31.57755H18.31522M14.06345 45.61201H18.31522M14.06345 59.64647H18.31522M14.06345 87.71541H18.31522M14.06345 101.74988H18.31522M14.06345 115.78435H18.31522M14.06345 129.8188H18.31522M14.06345 143.85327H18.31522M14.06345 157.88774H18.31522"/>
<path transform="matrix(1.00003,0,0,-1.00008,7.385803,163.02899)" stroke-width=".3985" stroke-linecap="butt" stroke-miterlimit="10" stroke-linejoin="miter" fill="none" stroke="#000000" d="M0 73.68094H192.27964"/>
<path transform="matrix(1.00003,0,0,-1.00008,199.67122,89.34216)" d="M1.99252 0-1.19551 1.59401 0 0-1.19551-1.59401"/>
<path transform="matrix(1.00003,0,0,-1.00008,7.385803,163.02899)" stroke-width=".3985" stroke-linecap="butt" stroke-miterlimit="10" stroke-linejoin="miter" fill="none" stroke="#000000" d="M16.18935 0V159.40384"/>
<path transform="matrix(0,-1.00008,-1.00003,-0,23.57564,3.6123963)" d="M1.99252 0-1.19551 1.59401 0 0-1.19551-1.59401"/>
<use data-text="1" xlink:href="#font_1_2" transform="matrix(9.962899,0,0,-9.963397,53.464189,101.40906)"/>
<use data-text="2" xlink:href="#font_1_3" transform="matrix(9.962899,0,0,-9.963397,85.84416,101.40906)"/>
<use data-text="3" xlink:href="#font_1_4" transform="matrix(9.962899,0,0,-9.963397,118.22413,101.40906)"/>
<use data-text="4" xlink:href="#font_1_5" transform="matrix(9.962899,0,0,-9.963397,150.6031,101.40906)"/>
<use data-text="5" xlink:href="#font_1_6" transform="matrix(9.962899,0,0,-9.963397,182.98308,101.40906)"/>
<use data-text="&#x2212;" xlink:href="#font_2_1" transform="matrix(9.962899,0,0,-9.963397,.21759033,162.31494)"/>
<use data-text="1" xlink:href="#font_1_2" transform="matrix(9.962899,0,0,-9.963397,7.965828,162.31494)"/>
<use data-text="0" xlink:href="#font_1_1" transform="matrix(9.962899,0,0,-9.963397,12.947273,162.31494)"/>
<use data-text="&#x2212;" xlink:href="#font_2_1" transform="matrix(9.962899,0,0,-9.963397,5.198738,148.27982)"/>
<use data-text="8" xlink:href="#font_1_8" transform="matrix(9.962899,0,0,-9.963397,12.946976,148.27982)"/>
<use data-text="&#x2212;" xlink:href="#font_2_1" transform="matrix(9.962899,0,0,-9.963397,5.198738,134.24469)"/>
<use data-text="6" xlink:href="#font_1_7" transform="matrix(9.962899,0,0,-9.963397,12.946976,134.24469)"/>
<use data-text="&#x2212;" xlink:href="#font_2_1" transform="matrix(9.962899,0,0,-9.963397,5.198738,120.208568)"/>
<use data-text="4" xlink:href="#font_1_5" transform="matrix(9.962899,0,0,-9.963397,12.946976,120.208568)"/>
<use data-text="&#x2212;" xlink:href="#font_2_1" transform="matrix(9.962899,0,0,-9.963397,5.198738,106.17345)"/>
<use data-text="2" xlink:href="#font_1_3" transform="matrix(9.962899,0,0,-9.963397,12.946976,106.17345)"/>
<use data-text="2" xlink:href="#font_1_3" transform="matrix(9.962899,0,0,-9.963397,12.947968,78.517238)"/>
<use data-text="4" xlink:href="#font_1_5" transform="matrix(9.962899,0,0,-9.963397,12.947968,64.48111)"/>
<use data-text="6" xlink:href="#font_1_7" transform="matrix(9.962899,0,0,-9.963397,12.947968,50.44599)"/>
<use data-text="8" xlink:href="#font_1_8" transform="matrix(9.962899,0,0,-9.963397,12.947968,36.409868)"/>
<use data-text="1" xlink:href="#font_1_2" transform="matrix(9.962899,0,0,-9.963397,7.96682,22.37474)"/>
<use data-text="0" xlink:href="#font_1_1" transform="matrix(9.962899,0,0,-9.963397,12.948273,22.37474)"/>
<use data-text="1" xlink:href="#font_1_2" transform="matrix(9.962899,0,0,-9.963397,7.96682,8.338623)"/>
<use data-text="2" xlink:href="#font_1_3" transform="matrix(9.962899,0,0,-9.963397,12.948273,8.338623)"/>
<g clip-path="url(#clip_3)">
<path transform="matrix(1.00003,0,0,-1.00008,7.385803,163.02899)" stroke-width="1.59404" stroke-linecap="butt" stroke-miterlimit="10" stroke-linejoin="miter" fill="none" stroke="#0000ff" d="M16.18935 157.88774C16.18935 157.88774 17.48895 156.76111 17.9881 156.3284 18.48724 155.89569 19.28772 155.20177 19.78685 154.76906 20.286 154.33635 21.08649 153.64243 21.58563 153.20972 22.08478 152.77701 22.88525 152.08309 23.38438 151.65038 23.88353 151.21767 24.68402 150.52373 25.18317 150.09102 25.68231 149.65831 26.48279 148.9644 26.98192 148.5317 27.48106 148.09899 28.28156 147.40505 28.7807 146.97234 29.27985 146.53963 30.0803 145.8457 30.57945 145.413 31.0786 144.98029 31.87909 144.28638 32.37823 143.85367 32.87737 143.42096 33.67784 142.72704 34.17699 142.29433 34.67613 141.86162 35.47662 141.1677 35.97577 140.73499 36.4749 140.30228 37.27538 139.60836 37.77452 139.17565 38.27367 138.74294 39.07416 138.04901 39.5733 137.6163 40.07243 137.1836 40.87291 136.48967 41.37206 136.05696 41.8712 135.62425 42.67168 134.93032 43.1708 134.4976 43.66995 134.0649 44.47044 133.37097 44.96959 132.93827 45.46873 132.50556 46.26921 131.81163 46.76834 131.37892 47.26749 130.94622 48.06798 130.2523 48.56712 129.8196 49.06627 129.38689 49.86674 128.69293 50.36588 128.26023 50.86502 127.82751 51.66551 127.1336 52.16466 126.70091 52.6638 126.26822 53.46426 125.57428 53.96341 125.14157 54.46255 124.70886 55.26305 124.01494 55.76219 123.58223 56.26132 123.14952 57.0618 122.4556 57.56094 122.02289 58.06009 121.59018 58.86058 120.89624 59.35973 120.46353 59.85886 120.03082 60.65933 119.33688 61.15848 118.90417 61.65762 118.47147 62.45811 117.77753 62.95726 117.34483 63.45639 116.91214 64.25687 116.21822 64.75601 115.78552 65.25516 115.35283 66.05565 114.65889 66.55478 114.22618 67.05392 113.79347 67.8544 113.09955 68.35355 112.66684 68.85269 112.23413 69.65317 111.5402 70.1523 111.1075 70.65144 110.67479 71.45193 109.98085 71.95108 109.54814 72.45023 109.11543 73.2507 108.42151 73.74983 107.9888 74.24898 107.55609 75.04947 106.86217 75.54861 106.42946 76.04776 105.99675 76.84822 105.3028 77.34737 104.8701 77.84651 104.43741 78.647 103.74348 79.14615 103.31079 79.64528 102.8781 80.44576 102.18416 80.9449 101.75145 81.44405 101.31874 82.24454 100.6248 82.74368 100.1921 83.24281 99.75938 84.04329 99.06546 84.54243 98.63275 85.04158 98.20004 85.84207 97.50612 86.34122 97.07341 86.84035 96.6407 87.64082 95.94678 88.13997 95.51407 88.63911 95.08136 89.4396 94.38742 89.93874 93.95471 90.43788 93.522 91.23836 92.82806 91.7375 92.39537 92.23665 91.96268 93.03714 91.26877 93.53627 90.83607 94.03542 90.40338 94.83589 89.70943 95.33504 89.27672 95.83418 88.84401 96.63467 88.15009 97.1338 87.71736 97.63295 87.28465 98.43343 86.59073 98.93257 86.15802 99.4317 85.72531 100.23218 85.03139 100.73132 84.59868 101.23047 84.16597 102.03096 83.47203 102.5301 83.03932 103.02924 82.60661 103.82971 81.91267 104.32886 81.47998 104.828 81.04729 105.6285 80.35338 106.12764 79.92068 106.62677 79.48799 107.42725 78.79404 107.92639 78.36133 108.42554 77.92862 109.22603 77.2347 109.72517 76.80199 110.2243 76.36928 111.02478 75.67535 111.52393 75.24265 112.02307 74.80994 112.82356 74.116 113.3227 73.68329 113.82184 73.25058 114.62231 72.55666 115.12146 72.12393 115.6206 71.69122 116.4211 70.9973 116.92023 70.56459 117.41937 70.13188 118.21985 69.43794 118.719 69.00525 119.21814 68.57256 120.01863 67.87863 120.51776 67.44594 121.0169 67.01324 121.81738 66.3193 122.31653 65.8866 122.81566 65.45389 123.61613 64.75996 124.11528 64.32726 124.61443 63.89455 125.41492 63.2006 125.91406 62.7679 126.4132 62.33519 127.21367 61.64127 127.71281 61.20856 128.21196 60.77585 129.01245 60.08192 129.5116 59.64922 130.01073 59.2165 130.8112 58.52258 131.31035 58.08987 131.8095 57.65717 132.60999 56.96321 133.10912 56.53052 133.60826 56.09781 134.40874 55.4039 134.90789 54.9712 135.40703 54.53851 136.20752 53.84457 136.70665 53.41187 137.2058 52.97916 138.00627 52.28522 138.50542 51.85251 139.00457 51.4198 139.80506 50.72588 140.30419 50.29317 140.80333 49.86046 141.6038 49.16653 142.10295 48.73383 142.6021 48.30112 143.40259 47.60718 143.90172 47.17447 144.40087 46.74176 145.20134 46.04784 145.70049 45.61513 146.19962 45.18242 147.0001 44.48848 147.49925 44.05579 147.9984 43.6231 148.79888 42.92917 149.29802 42.49648 149.79715 42.06378 150.59763 41.36984 151.09677 40.93713 151.59592 40.50441 152.39641 39.81049 152.89556 39.37778 153.39469 38.94507 154.19516 38.25114 154.6943 37.81844 155.19345 37.38573 155.99394 36.69179 156.49308 36.25908 156.99222 35.82637 157.7927 35.13245 158.29184 34.69974 158.79099 34.26703 159.59148 33.57309 160.0906 33.1404 160.58975 32.7077 161.39023 32.01378 161.88938 31.58109 162.38852 31.14839 163.18901 30.45445 163.68814 30.02174 164.18729 29.58904 164.98777 28.89511 165.48691 28.4624 165.98606 28.0297 166.78655 27.33577 167.28568 26.90306 167.78482 26.47035 168.5853 25.77641 169.08444 25.3437 169.58358 24.911 170.38407 24.21706 170.88321 23.78435 171.38236 23.35164 172.18283 22.65771 172.68198 22.225 173.1811 21.7923 173.9816 21.09834 174.48075 20.66565 174.97989 20.23296 175.78037 19.53905 176.27951 19.10635 176.77864 18.67366 177.57912 17.97972 178.07826 17.54701 178.57741 17.1143 179.3779 16.42036 179.87703 15.98766 180.37618 15.55495 181.17665 14.86102 181.6758 14.42831 182.17494 13.9956 182.97544 13.30168 183.47457 12.86897 183.97371 12.43626 184.77419 11.74234 185.27333 11.30963 185.77248 10.87692 186.57297 10.18298 187.0721 9.75027 187.57125 9.31757 188.37172 8.62361 188.87087 8.19092 189.37001 7.75822 190.17049 7.06432 190.66963 6.63162 191.16878 6.19893 191.96926 5.50497 192.4684 5.07227 192.96753 4.63956 194.26717 3.51292 194.26717 3.51292"/>
</g>
<use data-text="t" xlink:href="#font_4_1" transform="matrix(9.962899,0,0,-9.963397,194.54642,85.82182)"/>
<use data-text="y" xlink:href="#font_4_2" transform="matrix(9.962899,0,0,-9.963397,27.095398,9.429703)"/>
</svg>
