<svg xmlns="http://www.w3.org/2000/svg" xmlns:xlink="http://www.w3.org/1999/xlink" xmlns:inkscape="http://www.inkscape.org/namespaces/inkscape" version="1.1" width="208" height="177" viewBox="0 0 208 177">
<defs>
<path id="font_1_1" d="M.2939911 .64004519C.2939911 .66400149 .2939911 .6660156 .2709961 .6660156 .20899964 .60227969 .12098694 .60227969 .08898926 .60227969V.57128909C.10899353 .57128909 .16799927 .57128909 .21998596 .5972748V.07902527C.21998596 .042999269 .21699524 .0309906 .1269989 .0309906H.09498596V0C.12998963 .0029907227 .21699524 .0029907227 .25698854 .0029907227 .29699708 .0029907227 .38398744 .0029907227 .4189911 0V.0309906H.3869934C.29699708 .0309906 .2939911 .041992189 .2939911 .07902527V.64004519Z"/>
<path id="font_1_2" d="M.1269989 .07699585 .23298645 .18003845C.3889923 .31811524 .44898988 .3721466 .44898988 .47216798 .44898988 .5860901 .35899354 .6660156 .23699951 .6660156 .12399292 .6660156 .049987794 .57411196 .049987794 .48516847 .049987794 .4291687 .099990848 .4291687 .102996829 .4291687 .11999512 .4291687 .15499878 .44117738 .15499878 .48217774 .15499878 .5081787 .13699341 .5341797 .101989749 .5341797 .09399414 .5341797 .09199524 .5341797 .08898926 .5331726 .11199951 .59806826 .1659851 .63500979 .22399903 .63500979 .31498719 .63500979 .35798646 .5541382 .35798646 .47216798 .35798646 .39215089 .30799867 .31311036 .25299073 .25108338L.06098938 .036987306C.049987794 .025985718 .049987794 .023986817 .049987794 0H.42099L.44898988 .17404175H.42399598C.4189911 .14402771 .4119873 .1000061 .4019928 .084991458 .394989 .07699585 .32899476 .07699585 .30699159 .07699585H.1269989Z"/>
<path id="font_1_3" d="M.2899933 .35191346C.37199403 .37893678 .42999269 .4490509 .42999269 .52809146 .42999269 .6100464 .34199525 .6660156 .24598694 .6660156 .14498902 .6660156 .068984989 .60606387 .068984989 .53009036 .068984989 .49710084 .09098816 .47808839 .11999512 .47808839 .15098572 .47808839 .17098999 .50009158 .17098999 .5290985 .17098999 .57910159 .12399292 .57910159 .10899353 .57910159 .13999939 .62802127 .20599365 .64100649 .24198914 .64100649 .2829895 .64100649 .33799745 .6190338 .33799745 .5290985 .33799745 .51708987 .33599855 .45906068 .30999757 .4149933 .27999879 .36691285 .24598694 .36390687 .22099304 .36291505 .21299744 .36190797 .18899536 .35990907 .18199158 .35990907 .17399597 .35890199 .16699219 .35791017 .16699219 .3479004 .16699219 .33691407 .17399597 .33691407 .19099427 .33691407H.23498535C.31698609 .33691407 .35398866 .2686615 .35398866 .17037964 .35398866 .034469606 .2849884 .0055389406 .24099732 .0055389406 .19799805 .0055389406 .12298584 .022491456 .08799744 .08137512 .12298584 .07637024 .1539917 .09837341 .1539917 .1363678 .1539917 .17237854 .1269989 .19238281 .09799194 .19238281 .07398987 .19238281 .041992189 .17837525 .041992189 .1343689 .041992189 .043441774 .1349945-.022460938 .24398804-.022460938 .3659973-.022460938 .45700074 .06838989 .45700074 .17037964 .45700074 .252594 .3939972 .33088685 .2899933 .35191346Z"/>
<clipPath id="clip_2">
<path transform="matrix(1.00003,0,0,-1,11.84491,163.193)" d="M0 0H194.26912V161.3956H0Z"/>
</clipPath>
</defs>
<path transform="matrix(1.00003,0,0,-1,11.84491,163.193)" stroke-width=".19925" stroke-linecap="butt" stroke-miterlimit="10" stroke-linejoin="miter" fill="none" stroke="#7f807f" d="M55.50546-2.12604V2.12604M111.01093-2.12604V2.12604M166.51639-2.12604V2.12604"/>
<path transform="matrix(1.00003,0,0,-1,11.84491,163.193)" stroke-width=".19925" stroke-linecap="butt" stroke-miterlimit="10" stroke-linejoin="miter" fill="none" stroke="#7f807f" d="M-2.12611 64.55823H2.12611M-2.12611 129.11647H2.12611"/>
<path transform="matrix(1.00003,0,0,-1,11.84491,163.193)" stroke-width=".3985" stroke-linecap="butt" stroke-miterlimit="10" stroke-linejoin="miter" fill="none" stroke="#000000" d="M0 0H192.2766"/>
<path transform="matrix(1.00003,0,0,-1,204.12729,163.193)" d="M1.99252 0-1.19551 1.59401 0 0-1.19551-1.59401"/>
<path transform="matrix(1.00003,0,0,-1,11.84491,163.193)" stroke-width=".3985" stroke-linecap="butt" stroke-miterlimit="10" stroke-linejoin="miter" fill="none" stroke="#000000" d="M0 0V159.40308"/>
<path transform="matrix(0,-1,-1.00003,-0,11.84491,3.789917)" d="M1.99252 0-1.19551 1.59401 0 0-1.19551-1.59401"/>
<use data-text="1" xlink:href="#font_1_1" transform="matrix(9.962899,0,0,-9.9626,64.861499,175.259)"/>
<use data-text="2" xlink:href="#font_1_2" transform="matrix(9.962899,0,0,-9.9626,120.368167,175.259)"/>
<use data-text="3" xlink:href="#font_1_3" transform="matrix(9.962899,0,0,-9.9626,175.87584,175.259)"/>
<use data-text="1" xlink:href="#font_1_1" transform="matrix(9.962899,0,0,-9.9626,1.2175903,101.84499)"/>
<use data-text="2" xlink:href="#font_1_2" transform="matrix(9.962899,0,0,-9.9626,1.2175903,37.286996)"/>
<g clip-path="url(#clip_2)">
<path transform="matrix(1.00003,0,0,-1,11.84491,163.193)" stroke-width="1.59404" stroke-linecap="butt" stroke-miterlimit="10" stroke-linejoin="miter" fill="none" stroke="#0000ff" d="M0 129.11647H.9762 1.95242 2.92865 3.90488 4.88112 5.85733 6.83356 7.80978 8.78601 9.76224 10.73846 11.71468 12.6909 13.66713 14.64336 15.61958 16.59581 17.57204 18.54826 19.52449 20.50072 21.47694 22.45314 23.42937 24.40561 25.38184 26.35806 27.33429 28.3105 29.28673 30.26295 31.23918 32.21541 33.19162 34.16785 35.14407 36.1203 37.09653 38.07275 39.04898 40.0252 41.00143 41.97766 42.95389 43.9301 44.90633 45.88255 46.85878 47.835 48.81123 49.78746 50.76367 51.7399 52.71613 53.69235 54.6686 55.64479 56.62102 57.59724 58.57347 59.5497 60.52592 61.50215 62.47838 63.4546 64.43083 65.40706 66.38327 67.3595 68.33572 69.31195 70.28818 71.2644 72.24062 73.21684 74.19308 75.16931 76.14554 77.12175 78.09796 79.07419 80.05042 81.02664 82.00287 82.9791 83.95532 84.93155 85.90778 86.884 87.86021 88.83644 89.81267 90.7889 91.76512 92.74135 93.71758 94.6938 95.67003 96.64626 97.62248 98.59875 99.57487 100.55116 101.5273 102.50359 103.47987 104.45601 105.4323 106.40843 107.38472 108.36101 109.33714 110.31342 111.28955 112.26584 113.24213 114.21826 115.19455 116.17068 117.14697 118.12326 119.0994 120.07567 121.0518 122.02808 123.00436 123.98051 124.95679 125.93292 126.90923 127.8855 128.86164 129.83792 130.81406 131.79033 132.76662 133.74275 134.71904 135.69518 136.67147 137.64775 138.62389 139.60018 140.57631 141.5526 142.52887 143.505 144.4813 145.45742 146.43372 147.41 148.38613 149.36241 150.33856 151.31484 152.29113 153.26726 154.24353 155.21967 156.19596 157.17224 158.14838 159.12467 160.1008 161.07709 162.05338 163.02951 164.0058 164.98192 165.9582 166.9345 167.91063 168.8869 169.86305 170.83934 171.81562 172.79177 173.76805 174.74417 175.72046 176.69673 177.67287 178.64916 179.62529 180.60158 181.57787 182.554 183.53029 184.50643 185.48271 186.45899 187.43512 188.4114 189.38755 190.36383 191.34012 192.31626 193.29254 194.26868"/>
<path transform="matrix(1.00003,0,0,-1,11.84491,163.193)" stroke-width=".3985" stroke-linecap="butt" stroke-dasharray="2.98883,2.98883" stroke-miterlimit="10" stroke-linejoin="miter" fill="none" stroke="#000000" d="M55.50546 0V129.11647"/>
<path transform="matrix(1.00003,0,0,-1,11.84491,163.193)" stroke-width=".3985" stroke-linecap="butt" stroke-dasharray="2.98883,2.98883" stroke-miterlimit="10" stroke-linejoin="miter" fill="none" stroke="#000000" d="M166.51639 0V129.11647"/>
</g>
</svg>
