<svg xmlns="http://www.w3.org/2000/svg" xmlns:xlink="http://www.w3.org/1999/xlink" xmlns:inkscape="http://www.inkscape.org/namespaces/inkscape" version="1.1" width="207" height="165" viewBox="0 0 207 165">
<defs>
<path id="font_1_3" d="M.1269989 .07699585 .23298645 .18003845C.3889923 .31811524 .44898988 .3721466 .44898988 .47216798 .44898988 .5860901 .35899354 .6660156 .23699951 .6660156 .12399292 .6660156 .049987794 .57411196 .049987794 .48516847 .049987794 .4291687 .099990848 .4291687 .102996829 .4291687 .11999512 .4291687 .15499878 .44117738 .15499878 .48217774 .15499878 .5081787 .13699341 .5341797 .101989749 .5341797 .09399414 .5341797 .09199524 .5341797 .08898926 .5331726 .11199951 .59806826 .1659851 .63500979 .22399903 .63500979 .31498719 .63500979 .35798646 .5541382 .35798646 .47216798 .35798646 .39215089 .30799867 .31311036 .25299073 .25108338L.06098938 .036987306C.049987794 .025985718 .049987794 .023986817 .049987794 0H.42099L.44898988 .17404175H.42399598C.4189911 .14402771 .4119873 .1000061 .4019928 .084991458 .394989 .07699585 .32899476 .07699585 .30699159 .07699585H.1269989Z"/>
<path id="font_1_5" d="M.2939911 .16503906V.07800293C.2939911 .041992189 .2919922 .0309906 .21798706 .0309906H.19699097V0C.23799134 .0029907227 .2899933 .0029907227 .33198548 .0029907227 .37399293 .0029907227 .4269867 .0029907227 .46798707 0V.0309906H.44699098C.37298585 .0309906 .37098695 .041992189 .37098695 .07800293V.16503906H.47099305V.19602967H.37098695V.65075686C.37098695 .67074587 .37098695 .6767578 .35499574 .6767578 .34599305 .6767578 .34298707 .6767578 .33499146 .66474917L.027999878 .19602967V.16503906H.2939911M.2999878 .19602967H.055999757L.2999878 .5688019V.19602967Z"/>
<path id="font_1_7" d="M.13198853 .327713V.35173036C.13198853 .6047821 .2559967 .64100649 .30699159 .64100649 .33099366 .64100649 .37298585 .634964 .394989 .6007538 .37998963 .6007538 .33999635 .6007538 .33999635 .5557556 .33999635 .524765 .3639984 .5097656 .38598634 .5097656 .4019928 .5097656 .43199159 .51875308 .43199159 .5577545 .43199159 .6178589 .3880005 .6660156 .30499269 .6660156 .1769867 .6660156 .041992189 .5367584 .041992189 .31570436 .041992189 .048553468 .1579895-.022460938 .25099183-.022460938 .3619995-.022460938 .45700074 .07156372 .45700074 .2036438 .45700074 .33070375 .36799623 .4267578 .25698854 .4267578 .18899536 .4267578 .1519928 .37573243 .13198853 .327713M.25099183 .0055389406C.18798828 .0055389406 .1579895 .06556702 .1519928 .080566409 .13398743 .127594 .13398743 .2076416 .13398743 .22564698 .13398743 .30369569 .1659851 .40374757 .2559967 .40374757 .27198792 .40374757 .31799317 .40374757 .34899903 .34172059 .36698915 .30470277 .36698915 .2536621 .36698915 .20463562 .36698915 .15661621 .36698915 .10658264 .34999085 .0705719 .31999208 .010528564 .27398683 .0055389406 .25099183 .0055389406Z"/>
<path id="font_1_8" d="M.16299439 .4569702C.116989139 .486969 .11299133 .52098086 .11299133 .5379791 .11299133 .598999 .17799378 .64100649 .24899292 .64100649 .32199098 .64100649 .38598634 .58898928 .38598634 .51698306 .38598634 .45996095 .34700013 .4119568 .2869873 .37695313L.16299439 .4569702M.30899049 .36193849C.3809967 .3989563 .42999269 .45095826 .42999269 .51698306 .42999269 .6090088 .34098817 .6660156 .25 .6660156 .1499939 .6660156 .068984989 .59199526 .068984989 .49897767 .068984989 .4809723 .070999149 .43595887 .11299133 .38894654 .12399292 .37695313 .16099549 .35194398 .18598938 .33494569 .12799073 .30592347 .041992189 .24984741 .041992189 .15072632 .041992189 .04458618 .14399719-.022460938 .24899292-.022460938 .3619995-.022460938 .45700074 .06060791 .45700074 .16773987 .45700074 .20379639 .44599916 .24885559 .4079895 .2909088 .3889923 .31193543 .37298585 .3219452 .30899049 .36193849M.20899964 .3199463 .33198548 .24183655C.3600006 .2228241 .40699769 .19277954 .40699769 .13169861 .40699769 .05760193 .33198548 .0055389406 .25 .0055389406 .1639862 .0055389406 .09199524 .067611698 .09199524 .15072632 .09199524 .20880127 .12399292 .27288819 .20899964 .3199463Z"/>
<path id="font_1_2" d="M.2939911 .64004519C.2939911 .66400149 .2939911 .6660156 .2709961 .6660156 .20899964 .60227969 .12098694 .60227969 .08898926 .60227969V.57128909C.10899353 .57128909 .16799927 .57128909 .21998596 .5972748V.07902527C.21998596 .042999269 .21699524 .0309906 .1269989 .0309906H.09498596V0C.12998963 .0029907227 .21699524 .0029907227 .25698854 .0029907227 .29699708 .0029907227 .38398744 .0029907227 .4189911 0V.0309906H.3869934C.29699708 .0309906 .2939911 .041992189 .2939911 .07902527V.64004519Z"/>
<path id="font_1_1" d="M.45999146 .31976319C.45999146 .39982606 .45498658 .47988893 .41999818 .5539398 .37399293 .65000918 .2919922 .6660156 .25 .6660156 .18998719 .6660156 .116989139 .64001467 .07598877 .54693606 .04399109 .47789 .038986207 .39982606 .038986207 .31976319 .038986207 .24472046 .042999269 .15464783 .083999637 .07859802 .1269989-.0024719239 .19999695-.022460938 .24899292-.022460938 .30299378-.022460938 .3789978-.0014648438 .4229889 .09359741 .45498658 .16265869 .45999146 .2407074 .45999146 .31976319M.24899292-.00047302247C.20999146-.00047302247 .15098572 .024551392 .1329956 .12062073 .12199402 .18066406 .12199402 .2727356 .12199402 .3317871 .12199402 .39582826 .12199402 .46188355 .12998963 .5159149 .14898682 .63500979 .22399903 .64401248 .24899292 .64401248 .28199769 .64401248 .34799195 .6259918 .36698915 .52693179 .3769989 .47088624 .3769989 .39482118 .3769989 .3317871 .3769989 .25672914 .3769989 .18867493 .3659973 .12461853 .35099793 .029556275 .2939911-.00047302247 .24899292-.00047302247Z"/>
<path id="font_2_1" d="M.6589966 .23046875C.6759949 .23046875 .69400027 .23046875 .69400027 .25045777 .69400027 .27046205 .6759949 .27046205 .6589966 .27046205H.117996219C.100997928 .27046205 .08299255 .27046205 .08299255 .25045777 .08299255 .23046875 .100997928 .23046875 .117996219 .23046875H.6589966Z"/>
<path id="font_1_4" d="M.2899933 .35191346C.37199403 .37893678 .42999269 .4490509 .42999269 .52809146 .42999269 .6100464 .34199525 .6660156 .24598694 .6660156 .14498902 .6660156 .068984989 .60606387 .068984989 .53009036 .068984989 .49710084 .09098816 .47808839 .11999512 .47808839 .15098572 .47808839 .17098999 .50009158 .17098999 .5290985 .17098999 .57910159 .12399292 .57910159 .10899353 .57910159 .13999939 .62802127 .20599365 .64100649 .24198914 .64100649 .2829895 .64100649 .33799745 .6190338 .33799745 .5290985 .33799745 .51708987 .33599855 .45906068 .30999757 .4149933 .27999879 .36691285 .24598694 .36390687 .22099304 .36291505 .21299744 .36190797 .18899536 .35990907 .18199158 .35990907 .17399597 .35890199 .16699219 .35791017 .16699219 .3479004 .16699219 .33691407 .17399597 .33691407 .19099427 .33691407H.23498535C.31698609 .33691407 .35398866 .2686615 .35398866 .17037964 .35398866 .034469606 .2849884 .0055389406 .24099732 .0055389406 .19799805 .0055389406 .12298584 .022491456 .08799744 .08137512 .12298584 .07637024 .1539917 .09837341 .1539917 .1363678 .1539917 .17237854 .1269989 .19238281 .09799194 .19238281 .07398987 .19238281 .041992189 .17837525 .041992189 .1343689 .041992189 .043441774 .1349945-.022460938 .24398804-.022460938 .3659973-.022460938 .45700074 .06838989 .45700074 .17037964 .45700074 .252594 .3939972 .33088685 .2899933 .35191346Z"/>
<path id="font_1_6" d="M.44898988 .20022583C.44898988 .3193512 .36698915 .41944886 .25898744 .41944886 .21099854 .41944886 .16799927 .40345765 .13198853 .36842347V.5637665C.1519928 .5577698 .18499756 .55078127 .21699524 .55078127 .33999635 .55078127 .4099884 .6417694 .4099884 .6547699 .4099884 .6607666 .40699769 .6657715 .3999939 .6657715 .39898683 .6657715 .39698792 .6657715 .3919983 .66278079 .37199403 .6537781 .32299806 .6337738 .2559967 .6337738 .21598816 .6337738 .16999817 .6407776 .12298584 .6617737 .114990238 .66477969 .11299133 .66477969 .11099243 .66477969 .100997928 .66477969 .100997928 .6567688 .100997928 .6407776V.34439088C.100997928 .32637025 .100997928 .31835938 .114990238 .31835938 .12199402 .31835938 .12399292 .32136537 .12799073 .32736207 .13899231 .3433838 .17599488 .39746095 .25698854 .39746095 .30899049 .39746095 .33399964 .35139466 .34199525 .33337403 .35798646 .29632569 .3600006 .25727845 .3600006 .20722962 .3600006 .17222595 .3600006 .11222839 .33599855 .07035828 .31199647 .031463624 .2749939 .0055389406 .22898865 .0055389406 .1559906 .0055389406 .09899902 .058380128 .08198547 .11723328 .084991458 .1162262 .08799744 .115234378 .09899902 .115234378 .13198853 .115234378 .14898682 .14022827 .14898682 .16423035 .14898682 .18823242 .13198853 .21322632 .09899902 .21322632 .084991458 .21322632 .049987794 .20622254 .049987794 .16023255 .049987794 .07434082 .11898804-.022460938 .23098755-.022460938 .34700013-.022460938 .44898988 .073349 .44898988 .20022583Z"/>
<clipPath id="clip_3">
<path transform="matrix(1.00002,0,0,-1.00002,11.120941,163.18994)" d="M0 0H194.27399V161.39028H0Z"/>
</clipPath>
<path id="font_4_1" d="M.33399964 .30233766C.33999635 .32835389 .36299134 .42037965 .43299867 .42037965 .43798829 .42037965 .46199037 .42037965 .48298646 .40734864 .45498658 .402359 .43499757 .37734986 .43499757 .35334779 .43499757 .33735658 .44599916 .31835938 .47299195 .31835938 .49499513 .31835938 .5269928 .3363495 .5269928 .37635804 .5269928 .42837525 .46798707 .4423828 .43399049 .4423828 .37599183 .4423828 .34098817 .38935853 .32899476 .36634828 .3039856 .43237306 .25 .4423828 .22099304 .4423828 .116989139 .4423828 .05999756 .3133545 .05999756 .28834535 .05999756 .27833558 .069992069 .27833558 .07199097 .27833558 .07998657 .27833558 .08299255 .28033448 .084991458 .28933717 .11898804 .39535523 .18499756 .42037965 .21899414 .42037965 .23799134 .42037965 .272995 .4113617 .272995 .35334779 .272995 .32235719 .2559967 .25532533 .21899414 .11528015 .20298767 .053268434 .16799927 .011245728 .12399292 .011245728 .117996219 .011245728 .09498596 .011245728 .07398987 .024276734 .09899902 .029266358 .12098694 .05027771 .12098694 .07827759 .12098694 .105270389 .09899902 .11328125 .083999637 .11328125 .053985597 .11328125 .0289917 .08728027 .0289917 .055267335 .0289917 .009246826 .07899475-.0107421879 .12298584-.0107421879 .18899536-.0107421879 .22499085 .059280397 .22799683 .0652771 .23999024 .028274537 .27598573-.0107421879 .33599855-.0107421879 .43899537-.0107421879 .49598695 .118270877 .49598695 .14328003 .49598695 .1532898 .4869995 .1532898 .48399354 .1532898 .47499085 .1532898 .47299195 .14929199 .47099305 .14228821 .43798829 .03527832 .36999513 .011245728 .33799745 .011245728 .29899598 .011245728 .2829895 .043273927 .2829895 .07727051 .2829895 .09927368 .2889862 .121276859 .2999878 .16529846L.33399964 .30233766Z"/>
<path id="font_4_2" d="M.48599244 .38136292C.48999024 .39537049 .48999024 .39736939 .48999024 .40437318 .48999024 .42237855 .47599793 .43138124 .46099855 .43138124 .45098878 .43138124 .43499757 .42536927 .42599488 .41036988 .42399598 .405365 .41600038 .37435914 .4119873 .35635377 .40499879 .33035279 .397995 .30334474 .3919983 .27633668L.34700013 .09628296C.34298707 .08126831 .2999878 .011245728 .23399353 .011245728 .18299866 .011245728 .17199707 .055267335 .17199707 .0922699 .17199707 .1382904 .18899536 .20030213 .22299195 .28833009 .23899842 .3293457 .24299622 .3403473 .24299622 .36035157 .24299622 .405365 .21099854 .4423828 .16099549 .4423828 .06599426 .4423828 .0289917 .29733277 .0289917 .28833009 .0289917 .27833558 .038986207 .27833558 .040985109 .27833558 .050994874 .27833558 .051986696 .28033448 .056991579 .29634095 .083999637 .3903656 .12399292 .42037965 .1579895 .42037965 .1659851 .42037965 .18299866 .42037965 .18299866 .3883667 .18299866 .36335755 .17298889 .3373413 .1659851 .31834413 .12599182 .21231079 .10798645 .1552887 .10798645 .10827637 .10798645 .019256592 .17098999-.0107421879 .22999573-.0107421879 .2689972-.0107421879 .30299378 .0062561037 .33099366 .03425598 .31799317-.017745972 .30599977-.06674194 .2659912-.11973572 .23999024-.15385437 .20199585-.18309021 .1559906-.18309021 .14199829-.18309021 .09700012-.18005371 .07998657-.14074707 .09599304-.14074707 .10899353-.14074707 .12298584-.1287384 .1329956-.11973572 .14299011-.10673523 .14299011-.08773804 .14299011-.056747438 .115997318-.052734376 .10598755-.052734376 .08299255-.052734376 .049987794-.068740848 .049987794-.11773682 .049987794-.16796875 .09399414-.20507813 .1559906-.20507813 .25898744-.20507813 .3619995-.11373901 .3899994-.00074768069L.48599244 .38136292Z"/>
</defs>
<path transform="matrix(1.00002,0,0,-1.00002,11.120941,163.18994)" stroke-width=".19925" stroke-linecap="butt" stroke-miterlimit="10" stroke-linejoin="miter" fill="none" stroke="#7f807f" d="M22.41623 61.34549V64.18027M52.30453 61.34549V64.18027M82.19284 61.34549V64.18027M112.08115 61.34549V64.18027M141.96945 61.34549V64.18027M171.85776 61.34549V64.18027"/>
<path transform="matrix(1.00002,0,0,-1.00002,11.120941,163.18994)" stroke-width=".19925" stroke-linecap="butt" stroke-miterlimit="10" stroke-linejoin="miter" fill="none" stroke="#7f807f" d="M37.36038 60.63701V64.88873M67.24869 60.63701V64.88873M97.137 60.63701V64.88873M127.0253 60.63701V64.88873M156.9136 60.63701V64.88873M186.80191 60.63701V64.88873"/>
<path transform="matrix(1.00002,0,0,-1.00002,11.120941,163.18994)" stroke-width=".19925" stroke-linecap="butt" stroke-miterlimit="10" stroke-linejoin="miter" fill="none" stroke="#7f807f" d="M5.34589 8.96613H9.59824M5.34589 26.89838H9.59824M5.34589 44.83063H9.59824M5.34589 80.69513H9.59824M5.34589 98.62738H9.59824M5.34589 116.55965H9.59824M5.34589 134.4919H9.59824M5.34589 152.42415H9.59824"/>
<path transform="matrix(1.00002,0,0,-1.00002,11.120941,163.18994)" stroke-width=".3985" stroke-linecap="butt" stroke-miterlimit="10" stroke-linejoin="miter" fill="none" stroke="#000000" d="M0 62.76288H192.28145"/>
<path transform="matrix(1.00002,0,0,-1.00002,203.40624,100.425807)" d="M1.99252 0-1.19551 1.59401 0 0-1.19551-1.59401"/>
<path transform="matrix(1.00002,0,0,-1.00002,11.120941,163.18994)" stroke-width=".3985" stroke-linecap="butt" stroke-miterlimit="10" stroke-linejoin="miter" fill="none" stroke="#000000" d="M7.47208 0V159.39775"/>
<path transform="matrix(0,-1.00002,-1.00002,-0,18.59317,3.7890015)" d="M1.99252 0-1.19551 1.59401 0 0-1.19551-1.59401"/>
<use data-text="2" xlink:href="#font_1_3" transform="matrix(9.962799,0,0,-9.962799,45.99164,112.49193)"/>
<use data-text="4" xlink:href="#font_1_5" transform="matrix(9.962799,0,0,-9.962799,75.88024,112.49193)"/>
<use data-text="6" xlink:href="#font_1_7" transform="matrix(9.962799,0,0,-9.962799,105.76884,112.49193)"/>
<use data-text="8" xlink:href="#font_1_8" transform="matrix(9.962799,0,0,-9.962799,135.65845,112.49193)"/>
<use data-text="1" xlink:href="#font_1_2" transform="matrix(9.962799,0,0,-9.962799,163.05599,112.49193)"/>
<use data-text="0" xlink:href="#font_1_1" transform="matrix(9.962799,0,0,-9.962799,168.03739,112.49193)"/>
<use data-text="1" xlink:href="#font_1_2" transform="matrix(9.962799,0,0,-9.962799,192.94559,112.49193)"/>
<use data-text="2" xlink:href="#font_1_3" transform="matrix(9.962799,0,0,-9.962799,197.92699,112.49193)"/>
<use data-text="&#x2212;" xlink:href="#font_2_1" transform="matrix(9.962799,0,0,-9.962799,.21672058,157.01882)"/>
<use data-text="3" xlink:href="#font_1_4" transform="matrix(9.962799,0,0,-9.962799,7.964882,157.01882)"/>
<use data-text="&#x2212;" xlink:href="#font_2_1" transform="matrix(9.962799,0,0,-9.962799,.21672058,139.08646)"/>
<use data-text="2" xlink:href="#font_1_3" transform="matrix(9.962799,0,0,-9.962799,7.964882,139.08646)"/>
<use data-text="&#x2212;" xlink:href="#font_2_1" transform="matrix(9.962799,0,0,-9.962799,.21672058,121.1531)"/>
<use data-text="1" xlink:href="#font_1_2" transform="matrix(9.962799,0,0,-9.962799,7.964882,121.1531)"/>
<use data-text="1" xlink:href="#font_1_2" transform="matrix(9.962799,0,0,-9.962799,7.9658815,85.70339)"/>
<use data-text="2" xlink:href="#font_1_3" transform="matrix(9.962799,0,0,-9.962799,7.9658815,67.771038)"/>
<use data-text="3" xlink:href="#font_1_4" transform="matrix(9.962799,0,0,-9.962799,7.9658815,49.83867)"/>
<use data-text="4" xlink:href="#font_1_5" transform="matrix(9.962799,0,0,-9.962799,7.9658815,31.90532)"/>
<use data-text="5" xlink:href="#font_1_6" transform="matrix(9.962799,0,0,-9.962799,7.9658815,13.972946)"/>
<g clip-path="url(#clip_3)">
<path transform="matrix(1.00002,0,0,-1.00002,11.120941,163.18994)" stroke-width=".79701" stroke-linecap="butt" stroke-miterlimit="10" stroke-linejoin="miter" fill="none" stroke="#0000ff" d="M7.47208 62.76288 7.62225 65.2988 7.77245 66.34015 7.92262 67.133 8.07283 67.79616 8.22302 68.37581 8.37321 68.89575 8.52342 69.36996 8.6736 69.80774 8.82379 70.21548 8.97398 70.59792 9.12419 70.95857 9.27437 71.3002 9.42456 71.62502 9.57475 71.9348 9.72493 72.23102 9.87514 72.51494 10.02531 72.78757 10.1755 73.04982 10.32573 73.30247 10.4759 73.54619 10.6261 73.78159 10.77628 74.00916 10.92645 74.22939 11.07668 74.44269 11.22687 74.64941 11.37704 74.84993 11.52725 75.04453 11.67744 75.23349 11.82762 75.41707 11.97781 75.59547 12.12799 75.76895 12.2782 75.93767 12.4284 76.10182 12.57858 76.26158 12.72879 76.4171 12.87897 76.5685 13.02916 76.71593 13.17935 76.85953 13.32956 76.99937 13.47974 77.1356 13.62993 77.26834 13.78012 77.39763 13.9303 77.52359 14.0805 77.6463 14.23068 77.76585 14.38087 77.88231 14.5311 77.99574 14.68127 78.10622 14.83147 78.2138 14.98164 78.31856 15.13184 78.42053 15.28204 78.51979 15.43224 78.61638 15.58241 78.71034 15.73262 78.80174 15.88281 78.8906 16.03299 78.97696 16.18318 79.0609 16.33336 79.1424 16.48357 79.22151 16.63377 79.29831 16.78395 79.37279 16.93416 79.44498 17.08434 79.51492 17.23453 79.58266 17.38472 79.6482 17.53493 79.71153 17.6851 79.77275 17.8353 79.83185 17.98549 79.88884 18.13567 79.94376 18.28587 79.9966 18.43605 80.04742 18.58626 80.0962 18.73643 80.143 18.88664 80.18779 19.03683 80.2306 19.18701 80.27147 19.3372 80.3104 19.48741 80.34737 19.63759 80.38243 19.78778 80.41559 19.93799 80.44684 20.08818 80.4762 20.23836 80.50368 20.38855 80.5293 20.53873 80.55304 20.68895 80.57495 20.83914 80.59499 20.98932 80.61319 21.13953 80.62956 21.2897 80.6441 21.4399 80.65681 21.59009 80.66771 21.74026 80.67677 21.89047 80.68402 22.04066 80.68947 22.19086 80.69308 22.34103 80.6949 22.49124 80.69489 22.64143 80.69308 22.79163 80.68948 22.94183 80.68402 23.09201 80.67679 23.24219 80.66771 23.39238 80.65685 23.54257 80.64412 23.69278 80.62958 23.84296 80.61322 23.99315 80.59502 24.14337 80.57497 24.29355 80.55307 24.44374 80.52933 24.59392 80.5037 24.74413 80.47621 24.89432 80.44685 25.0445 80.41562 25.19469 80.38246 25.34486 80.34741 25.49507 80.31044 25.64528 80.2715 25.79546 80.23065 25.94566 80.18784 26.09581 80.14305 26.24605 80.09625 26.39622 80.04747 26.5464 79.99666 26.69661 79.94382 26.84679 79.8889 26.997 79.83191 27.1472 79.77281 27.29738 79.7116 27.44757 79.64824 27.59773 79.58273 27.74797 79.51498 27.89815 79.44504 28.04832 79.37286 28.19852 79.29837 28.34871 79.2216 28.49892 79.14247 28.64911 79.06097 28.79929 78.97705 28.9495 78.89069 29.09966 78.80185 29.24986 78.71045 29.40005 78.61647 29.55023 78.51991 29.70045 78.42062 29.85063 78.31866 30.00082 78.21391 30.15103 78.10632 30.30121 77.99585 30.45142 77.8824 30.6016 77.76598 30.75177 77.64644 30.90198 77.52373 31.05215 77.39777 31.20236 77.26848 31.35254 77.13574 31.50275 76.9995 31.65294 76.85965 31.80313 76.71606 31.95334 76.56863 32.10352 76.41725 32.2537 76.26175 32.40388 76.10199 32.55408 75.93784 32.70428 75.76912 32.85446 75.59567 33.00465 75.41725 33.15486 75.23366 33.30505 75.04472 33.45525 74.85011 33.60542 74.64961 33.7556 74.4429 33.90582 74.2296 34.056 74.00938 34.20619 73.7818 34.35637 73.54645 34.50658 73.30272 34.65678 73.05006 34.80696 72.78783 34.95717 72.5152 35.10735 72.23131 35.25755 71.93507 35.40773 71.62534 35.5579 71.30055 35.70811 70.95892 35.85829 70.59831 36.0085 70.21588 36.1587 69.80814 36.30888 69.37044 36.45908 68.8962 36.60924 68.3764 36.75948 67.79669 36.90965 67.13371 37.05983 66.3411 37.21002 65.30008 37.36021 62.84583"/>
<path transform="matrix(1.00002,0,0,-1.00002,11.120941,163.18994)" stroke-width=".79701" stroke-linecap="butt" stroke-miterlimit="10" stroke-linejoin="miter" fill="none" stroke="#0000ff" d="M37.36038 62.76288 37.66075 62.40242 37.96114 62.04198 38.26152 61.68153 38.56192 61.32108 38.86232 60.96063 39.16269 60.60019 39.46309 60.23973 39.76346 59.87927 40.06384 59.51884 40.36423 59.15839 40.66461 58.79793 40.965 58.43748 41.2654 58.07704 41.5658 57.71658 41.86617 57.35614 42.16655 56.9957 42.46693 56.63524 42.76732 56.2748 43.0677 55.91434 43.3681 55.5539 43.6685 55.19345 43.96887 54.833 44.26926 54.47255 44.56964 54.11209 44.87003 53.75165 45.17041 53.39119 45.4708 53.03075 45.77121 52.6703 46.07158 52.30984 46.37196 51.94939 46.67235 51.58896 46.97273 51.2285 47.27312 50.86806 47.5735 50.50761 47.87392 50.14716 48.17429 49.78671 48.47467 49.42625 48.77505 49.06581 49.07544 48.70537 49.37582 48.34491 49.67621 47.98447 49.9766 47.62402 50.27698 47.26357 50.57738 46.9031 50.87776 46.54266 51.17815 46.18222 51.47853 45.82176 51.77892 45.4613 52.0793 45.10088 52.37968 44.74042 52.6801 44.37996 52.98047 44.01953 53.28085 43.65907 53.58124 43.29861 53.88162 42.93817 54.182 42.57773 54.48239 42.21727 54.78278 41.85683 55.08318 41.49638 55.38356 41.13593 55.68394 40.77548 55.98433 40.41502 56.28471 40.05458 56.5851 39.69414 56.88551 39.33368 57.18588 38.97322 57.48627 38.6128 57.78665 38.25233 58.08704 37.89188 58.38742 37.53143 58.6878 37.17099 58.98819 36.81053 59.28857 36.45009 59.58897 36.08965 59.88936 35.72919 60.18974 35.36874 60.49013 35.0083 60.79051 34.64784 61.0909 34.2874 61.39128 33.92694 61.69168 33.5665 61.99207 33.20604 62.29245 32.8456 62.59283 32.48515 62.89322 32.12471 63.1936 31.76425 63.49399 31.4038 63.79437 31.04337 64.09477 30.6829 64.39516 30.32245 64.69554 29.96199 64.99593 29.60156 65.29631 29.2411 65.5967 28.88065 65.89708 28.52022 66.19746 28.15976 66.49786 27.79932 66.79825 27.43886 67.09863 27.07841 67.39902 27.07877 67.69942 27.43922 67.99979 27.79965 68.30019 28.16013 68.60054 28.52054 68.90096 28.881 69.20134 29.24149 69.50171 29.6019 69.80211 29.96236 70.10248 30.32278 70.40288 30.68326 70.70328 31.04373 71.00365 31.40413 71.30405 31.7646 71.60442 32.12503 71.90482 32.48549 72.20523 32.84596 72.50558 33.20639 72.80598 33.56686 73.10635 33.92726 73.40675 34.28775 73.70714 34.64822 74.00749 35.00862 74.3079 35.3691 74.60826 35.72952 74.90866 36.09 75.20908 36.45045 75.50943 36.81088 75.80984 37.17136 76.1102 37.53177 76.41061 37.89223 76.71101 38.25272 77.01138 38.61313 77.31178 38.97359 77.61214 39.33401 77.91255 39.69449 78.21294 40.05496 78.5133 40.41536 78.8137 40.77583 79.11407 41.13626 79.41447 41.49672 79.71487 41.8572 80.01524 42.21762 80.31564 42.5781 80.61601 42.93849 80.91641 43.29897 81.21683 43.65944 81.51718 44.01987 81.81758 44.38033 82.11795 44.74075 82.41835 45.10123 82.71873 45.46169 83.01909 45.8221 83.3195 46.18257 83.61986 46.543 83.92026 46.90346 84.22067 47.26393 84.52103 47.62436 84.82144 47.98482 85.1218 48.34523 85.42221 48.70572 85.72261 49.0662 86.02296 49.42659 86.32338 49.78706 86.62372 50.14749 86.92413 50.50797 87.22453 50.86842 87.5249 51.22885 87.8253 51.58932 88.12566 51.94972 88.42607 52.3102 88.72647 52.67067 89.02684 53.0311 89.32724 53.39156 89.62761 53.75197 89.92801 54.11246 90.22841 54.47292 90.52878 54.83333 90.82918 55.1938 91.12952 55.55423 91.42992 55.91469 91.73033 56.27516 92.03069 56.63557 92.3311 56.99605 92.63145 57.35646 92.93185 57.71693 93.23227 58.07741 93.53262 58.43782 93.83304 58.7983 94.13339 59.1587 94.4338 59.5192 94.7342 59.87965 95.03455 60.24007 95.33496 60.60054 95.63531 60.96095 95.93573 61.32143 96.23613 61.6819 96.5365 62.04233 96.8369 62.40279 97.13725 62.7632"/>
<path transform="matrix(1.00002,0,0,-1.00002,11.120941,163.18994)" stroke-width=".79701" stroke-linecap="butt" stroke-miterlimit="10" stroke-linejoin="miter" fill="none" stroke="#0000ff" d="M186.80191 62.76288 186.79517 63.61179 186.77814 64.4607 186.74945 65.30908 186.71044 66.15746 186.65979 67.0042 186.5979 67.84988 186.52709 68.6945 186.44322 69.53857 186.34819 70.37996 186.24283 71.21973 186.12673 72.05788 185.99897 72.8928 185.85906 73.72557 185.70934 74.55566 185.54883 75.38199 185.37712 76.2067 185.1942 77.02708 185.00142 77.84372 184.79788 78.65767 184.58492 79.46785 184.3603 80.27318 184.1236 81.0726 183.87749 81.86934 183.62014 82.66014 183.35295 83.44664 183.07587 84.22777 182.7876 85.00352 182.49082 85.77443 182.18282 86.5389 181.86585 87.29904 181.53858 88.05058 181.20053 88.79836 180.85308 89.53807 180.49533 90.27132 180.12859 90.99702 179.75246 91.7163 179.366 92.42856 178.97191 93.13168 178.5684 93.82944 178.15416 94.52017 177.73363 95.20125 177.30191 95.8753 176.86119 96.53917 176.41243 97.1971 175.95514 97.84535 175.48844 98.48338 175.01454 99.11334 174.5326 99.73578 174.04259 100.34798 173.5436 100.95052 173.03745 101.54495 172.52411 102.12973 172.00225 102.70267 171.4728 103.26645 170.93569 103.81949 170.39144 104.36229 169.84044 104.89595 169.28318 105.41885 168.71874 105.93155 168.14757 106.4324 167.56922 106.92357 166.98596 107.40343 166.39641 107.87253 165.79969 108.3298 165.19625 108.7747 164.58832 109.20885 163.97455 109.63008 163.35453 110.04108 162.73001 110.4408 162.10102 110.82813 161.46527 111.20416 160.82596 111.56783 160.18173 111.91911 159.53256 112.2575 158.87889 112.58405 158.2212 112.89769 157.55992 113.19896 156.89417 113.48784 156.22527 113.76434 155.5519 114.02904 154.87625 114.27919 154.19705 114.51805 153.5147 114.74399 152.82923 114.95648 152.14102 115.15501 151.45017 115.34059 150.75795 115.51329 150.06215 115.67307 149.365 115.81938 148.6665 115.9528 147.96623 116.07385 147.26372 116.18144 146.56029 116.2745 145.85642 116.35521 145.15029 116.42244 144.44376 116.47517 143.7372 116.51552 143.02974 116.54134 142.32227 116.55534H141.61527L140.90825 116.54134 140.20127 116.51552 139.49379 116.47517 138.78725 116.42244 138.08159 116.35628 137.37725 116.2745 136.67383 116.18144 135.97219 116.07385 135.27149 115.95227 134.57209 115.81993 133.8745 115.672 133.1805 115.51329 132.48648 115.34006 131.79695 115.15446 131.10877 114.95648 130.4233 114.74399 129.7414 114.5175 129.06128 114.27919 128.38521 114.02797 127.7127 113.76434 127.04337 113.48784 126.37851 113.19841 125.71678 112.89716 125.05864 112.58351 124.40497 112.2575 123.75626 111.91911 123.112 111.56729 122.47224 111.20363 121.83786 110.82759 121.20798 110.44025 120.58347 110.04108 119.96387 109.63008 119.34921 109.20776 118.74174 108.7731 118.1392 108.32765 117.54204 107.87146 116.95248 107.40288 116.36833 106.92357 115.79088 106.4324 115.21971 105.93102 114.65436 105.41832 114.0971 104.89488 113.54611 104.3612 113.00229 103.81895 112.4652 103.26538 111.93617 102.7016 111.41342 102.12811 110.9001 101.54442 110.39482 100.95052 109.89586 100.34744 109.4054 99.73523 108.92389 99.11334 108.44955 98.48232 107.9833 97.84373 107.52644 97.19603 107.0768 96.53864 106.63608 95.87479 106.20525 95.20071 105.78337 94.51857 105.37047 93.82889 104.96652 93.13168 104.57155 92.4264 104.18599 91.71521 103.8094 90.99596 103.44312 90.26917 103.0858 89.53645 102.73746 88.79674 102.39987 88.05005 102.0726 87.29688 101.75606 86.53781 101.44763 85.77336 101.15038 85.00244 100.863 84.22618 100.5855 83.44559 100.31783 82.65852 100.06096 81.86772 99.81438 81.07152 99.57857 80.27103 99.3535 79.46516 99.141 78.65605 98.93701 77.8421 98.74377 77.02547 98.56131 76.20453 98.39006 75.38036 98.23 74.55405 98.07982 73.72397 97.93993 72.89066 97.81172 72.05573 97.69516 71.21864 97.59068 70.37888 97.49565 69.53696 97.41272 68.69289 97.34007 67.84828 97.2791 67.0026 97.22844 66.15529 97.18944 65.30746 97.16075 64.45963 97.1437 63.6107 97.13786 62.7618"/>
</g>
<path transform="matrix(1.00002,0,0,-1.00002,11.120941,163.18994)" d="M8.6676 62.76288C8.6676 63.42314 8.13234 63.9584 7.47208 63.9584 6.8118 63.9584 6.27654 63.42314 6.27654 62.76288 6.27654 62.10262 6.8118 61.56735 7.47208 61.56735 8.13234 61.56735 8.6676 62.10262 8.6676 62.76288ZM7.47208 62.76288" fill="#0000ff"/>
<path transform="matrix(1.00002,0,0,-1.00002,11.120941,163.18994)" stroke-width=".3985" stroke-linecap="butt" stroke-miterlimit="10" stroke-linejoin="miter" fill="none" stroke="#0000ff" d="M8.6676 62.76288C8.6676 63.42314 8.13234 63.9584 7.47208 63.9584 6.8118 63.9584 6.27654 63.42314 6.27654 62.76288 6.27654 62.10262 6.8118 61.56735 7.47208 61.56735 8.13234 61.56735 8.6676 62.10262 8.6676 62.76288ZM7.47208 62.76288"/>
<path transform="matrix(1.00002,0,0,-1.00002,11.120941,163.18994)" d="M38.55591 62.76288C38.55591 63.42314 38.02065 63.9584 37.36038 63.9584 36.7001 63.9584 36.16484 63.42314 36.16484 62.76288 36.16484 62.10262 36.7001 61.56735 37.36038 61.56735 38.02065 61.56735 38.55591 62.10262 38.55591 62.76288ZM37.36038 62.76288" fill="#0000ff"/>
<path transform="matrix(1.00002,0,0,-1.00002,11.120941,163.18994)" stroke-width=".3985" stroke-linecap="butt" stroke-miterlimit="10" stroke-linejoin="miter" fill="none" stroke="#0000ff" d="M38.55591 62.76288C38.55591 63.42314 38.02065 63.9584 37.36038 63.9584 36.7001 63.9584 36.16484 63.42314 36.16484 62.76288 36.16484 62.10262 36.7001 61.56735 37.36038 61.56735 38.02065 61.56735 38.55591 62.10262 38.55591 62.76288ZM37.36038 62.76288"/>
<path transform="matrix(1.00002,0,0,-1.00002,11.120941,163.18994)" d="M98.33252 62.76288C98.33252 63.42314 97.79726 63.9584 97.137 63.9584 96.47672 63.9584 95.94145 63.42314 95.94145 62.76288 95.94145 62.10262 96.47672 61.56735 97.137 61.56735 97.79726 61.56735 98.33252 62.10262 98.33252 62.76288ZM97.137 62.76288" fill="#0000ff"/>
<path transform="matrix(1.00002,0,0,-1.00002,11.120941,163.18994)" stroke-width=".3985" stroke-linecap="butt" stroke-miterlimit="10" stroke-linejoin="miter" fill="none" stroke="#0000ff" d="M98.33252 62.76288C98.33252 63.42314 97.79726 63.9584 97.137 63.9584 96.47672 63.9584 95.94145 63.42314 95.94145 62.76288 95.94145 62.10262 96.47672 61.56735 97.137 61.56735 97.79726 61.56735 98.33252 62.10262 98.33252 62.76288ZM97.137 62.76288"/>
<path transform="matrix(1.00002,0,0,-1.00002,11.120941,163.18994)" d="M187.99744 62.76288C187.99744 63.42314 187.46218 63.9584 186.80191 63.9584 186.14163 63.9584 185.60637 63.42314 185.60637 62.76288 185.60637 62.10262 186.14163 61.56735 186.80191 61.56735 187.46218 61.56735 187.99744 62.10262 187.99744 62.76288ZM186.80191 62.76288" fill="#0000ff"/>
<path transform="matrix(1.00002,0,0,-1.00002,11.120941,163.18994)" stroke-width=".3985" stroke-linecap="butt" stroke-miterlimit="10" stroke-linejoin="miter" fill="none" stroke="#0000ff" d="M187.99744 62.76288C187.99744 63.42314 187.46218 63.9584 186.80191 63.9584 186.14163 63.9584 185.60637 63.42314 185.60637 62.76288 185.60637 62.10262 186.14163 61.56735 186.80191 61.56735 187.46218 61.56735 187.99744 62.10262 187.99744 62.76288ZM186.80191 62.76288"/>
<path transform="matrix(1.00002,0,0,-1.00002,11.120941,163.18994)" stroke-width=".3985" stroke-linecap="butt" stroke-miterlimit="10" stroke-linejoin="miter" fill="none" stroke="#0000ff" d=""/>
<use data-text="x" xlink:href="#font_4_1" transform="matrix(9.962799,0,0,-9.962799,196.18465,96.90562)"/>
<use data-text="y" xlink:href="#font_4_2" transform="matrix(9.962799,0,0,-9.962799,22.11316,9.6058659)"/>
</svg>
